<svg width="616" height="616" viewBox="0 0 616 616" fill="none" xmlns="http://www.w3.org/2000/svg">
<path d="M458.191 608.781H92.4722C76.4201 608.781 63.4095 595.768 63.4095 579.719V80.7874C63.4095 64.7353 76.4225 51.7247 92.4722 51.7247H458.193C474.245 51.7247 487.258 64.7377 487.258 80.7874V579.719C487.256 595.768 474.243 608.781 458.191 608.781Z" fill="#F7F7F7"/>
<path d="M441.239 281.94H109.424C104.073 281.94 99.7367 277.602 99.7367 272.253C99.7367 266.901 104.075 262.565 109.424 262.565H441.236C446.588 262.565 450.924 266.904 450.924 272.253C450.926 277.604 446.588 281.94 441.239 281.94Z" fill="#B4B4B4" fill-opacity="0.3"/>
<path d="M441.239 332.472H109.424C104.073 332.472 99.7367 328.133 99.7367 322.784C99.7367 317.433 104.075 313.096 109.424 313.096H441.236C446.588 313.096 450.924 317.435 450.924 322.784C450.926 328.133 446.588 332.472 441.239 332.472Z" fill="#B4B4B4" fill-opacity="0.3"/>
<path d="M441.239 383H109.424C104.073 383 99.7367 378.662 99.7367 373.313C99.7367 367.961 104.075 363.625 109.424 363.625H441.236C446.588 363.625 450.924 367.964 450.924 373.313C450.926 378.664 446.588 383 441.239 383Z" fill="#B4B4B4" fill-opacity="0.3"/>
<path d="M441.239 458.795H109.424C104.073 458.795 99.7367 454.456 99.7367 449.107C99.7367 443.756 104.075 439.42 109.424 439.42H441.236C446.588 439.42 450.924 443.758 450.924 449.107C450.926 454.459 446.588 458.795 441.239 458.795Z" fill="#B4B4B4" fill-opacity="0.3"/>
<path d="M441.239 509.326H109.424C104.073 509.326 99.7367 504.988 99.7367 499.639C99.7367 494.287 104.075 489.951 109.424 489.951H441.236C446.588 489.951 450.924 494.29 450.924 499.639C450.926 504.988 446.588 509.326 441.239 509.326Z" fill="#B4B4B4" fill-opacity="0.3"/>
<path d="M441.239 154.799H109.424C104.073 154.799 99.7367 150.46 99.7367 145.111C99.7367 139.76 104.075 135.424 109.424 135.424H441.236C446.588 135.424 450.924 139.762 450.924 145.111C450.926 150.46 446.588 154.799 441.239 154.799Z" fill="#B4B4B4" fill-opacity="0.3"/>
<path d="M441.239 205.328H109.424C104.073 205.328 99.7367 200.989 99.7367 195.64C99.7367 190.289 104.075 185.953 109.424 185.953H441.236C446.588 185.953 450.924 190.291 450.924 195.64C450.926 200.992 446.588 205.328 441.239 205.328Z" fill="#B4B4B4" fill-opacity="0.3"/>
<path d="M458.191 613.594H92.4722C73.7925 613.594 58.5946 598.398 58.5946 579.719V80.7874C58.5946 62.1053 73.7901 46.9099 92.4722 46.9099H458.193C476.873 46.9099 492.068 62.1053 492.068 80.7874V579.719C492.068 598.398 476.871 613.594 458.191 613.594ZM92.4722 56.5349C79.0982 56.5349 68.2196 67.4135 68.2196 80.7874V579.719C68.2196 593.09 79.0982 603.969 92.4722 603.969H458.193C471.565 603.969 482.443 593.09 482.443 579.719V80.7874C482.443 67.4135 471.565 56.5349 458.193 56.5349H92.4722Z" fill="#0F893B"/>
<path d="M520.84 332.626L468.492 280.278L497.146 251.624C501.275 247.495 507.971 247.495 512.103 251.624L549.496 289.017C553.625 293.146 553.625 299.843 549.496 303.974L520.84 332.626Z" fill="#6BDDDD"/>
<path d="M468.479 280.206L520.821 332.548L369.108 484.261L316.766 431.919L468.479 280.206Z" fill="#FDB416"/>
<path d="M520.84 337.436C519.608 337.436 518.378 336.966 517.438 336.026L465.09 283.678C463.21 281.798 463.21 278.752 465.09 276.873L493.743 248.217C499.744 242.22 509.507 242.22 515.505 248.217L552.899 285.61C558.9 291.609 558.9 301.373 552.899 307.372L524.245 336.026C523.304 336.966 522.072 337.436 520.84 337.436ZM475.297 280.278L520.84 325.821L546.091 300.569C548.339 298.322 548.339 294.665 546.091 292.417L508.698 255.024C506.451 252.777 502.793 252.774 500.546 255.026L475.297 280.278Z" fill="#0F893B"/>
<path d="M369.104 489.174C367.829 489.174 366.604 488.666 365.702 487.764L313.354 435.413C311.475 433.534 311.475 430.488 313.354 428.608L465.092 276.873C466.969 274.993 470.018 274.993 471.897 276.873L524.245 329.221C525.147 330.123 525.655 331.348 525.655 332.623C525.655 333.898 525.147 335.123 524.245 336.026L372.507 487.764C371.604 488.666 370.38 489.174 369.104 489.174ZM323.561 432.011L369.104 477.556L514.035 332.626L468.492 287.082L323.561 432.011Z" fill="#0F893B"/>
<path d="M316.754 432.013L369.102 484.361L313.332 500.173C305.303 502.449 297.923 494.963 300.314 486.967L316.754 432.013Z" fill="#F9CFCF"/>
<path d="M310.358 505.404C306.323 505.404 302.451 503.804 299.489 500.798C295.485 496.737 294.073 491.048 295.706 485.586L312.144 430.632C312.63 429.008 313.934 427.762 315.575 427.345C317.218 426.929 318.958 427.41 320.156 428.609L372.504 480.959C373.712 482.167 374.189 483.921 373.758 485.574C373.327 487.227 372.054 488.527 370.413 488.991L314.644 504.8C313.219 505.207 311.778 505.404 310.358 505.404ZM319.054 441.116L304.927 488.344C304.316 490.391 304.845 492.519 306.344 494.042C307.844 495.562 309.961 496.118 312.021 495.541L359.903 481.965L319.054 441.116Z" fill="#0F893B"/>
<path d="M499.22 7.21875H328.441C319.285 7.21875 311.862 14.642 311.862 23.7978V183.248C311.862 192.404 319.285 199.827 328.441 199.827H387.072L407.999 234.751C410.639 239.157 417.022 239.157 419.662 234.751L440.589 199.827H499.22C508.376 199.827 515.799 192.404 515.799 183.248V23.7978C515.799 14.642 508.376 7.21875 499.22 7.21875Z" fill="#FDB416"/>
<path d="M413.832 242.868C409.715 242.868 405.99 240.757 403.872 237.225L384.345 204.64H328.441C316.646 204.64 307.05 195.043 307.05 183.246V23.7978C307.05 12.0048 316.646 2.40625 328.441 2.40625H499.222C511.018 2.40625 520.614 12.0024 520.614 23.7978V183.248C520.614 195.043 511.018 204.642 499.222 204.642H443.318L423.791 237.227C421.674 240.757 417.951 242.865 413.832 242.868ZM328.441 12.0312C321.954 12.0312 316.675 17.3082 316.675 23.7978V183.248C316.675 189.735 321.951 195.017 328.441 195.017H387.072C388.763 195.017 390.33 195.905 391.199 197.356L412.126 232.28C412.629 233.12 413.411 233.245 413.829 233.245C414.248 233.243 415.03 233.117 415.533 232.28L436.46 197.356C437.329 195.905 438.895 195.017 440.587 195.017H499.217C505.705 195.017 510.984 189.738 510.984 183.248V23.7978C510.984 17.3106 505.707 12.0312 499.217 12.0312H328.441Z" fill="#0F893B"/>
<path d="M379.9 147.268L382.708 132.148C389.692 132.148 395.776 131.968 400.96 131.608C406.144 131.176 410.428 130.564 413.812 129.772C417.268 128.908 419.824 127.792 421.48 126.424C423.208 125.056 424.072 123.4 424.072 121.456C424.072 118.864 423.64 115.768 422.776 112.168C421.912 108.496 420.796 104.788 419.428 101.044L433.576 96.94C434.512 99.388 435.412 102.088 436.276 105.04C437.14 107.92 437.824 110.836 438.328 113.788C438.904 116.668 439.192 119.368 439.192 121.888C439.192 126.352 438.22 130.204 436.276 133.444C434.332 136.612 431.092 139.24 426.556 141.328C422.092 143.344 416.044 144.82 408.412 145.756C400.78 146.764 391.276 147.268 379.9 147.268ZM379.792 147.268C372.016 147.268 365.428 146.656 360.028 145.432C354.7 144.28 350.344 142.624 346.96 140.464C343.648 138.232 341.236 135.64 339.724 132.688C338.212 129.736 337.456 126.496 337.456 122.968C337.456 120.664 337.636 118.36 337.996 116.056C338.428 113.68 338.932 111.376 339.508 109.144C340.156 106.912 340.732 104.896 341.236 103.096L354.736 106.228C354.448 107.524 354.124 108.928 353.764 110.44C353.404 111.952 353.116 113.428 352.9 114.868C352.684 116.236 352.576 117.496 352.576 118.648C352.576 121.312 353.512 123.688 355.384 125.776C357.328 127.792 360.496 129.376 364.888 130.528C369.28 131.608 375.184 132.148 382.6 132.148L384.76 143.812L379.792 147.268ZM388.108 172.54C386.02 172.54 384.22 171.82 382.708 170.38C381.268 168.94 380.548 167.176 380.548 165.088C380.548 163 381.268 161.164 382.708 159.58C384.22 158.068 386.02 157.312 388.108 157.312C390.196 157.312 391.96 158.068 393.4 159.58C394.912 161.164 395.668 163 395.668 165.088C395.668 167.176 394.912 168.94 393.4 170.38C391.96 171.82 390.196 172.54 388.108 172.54ZM476.264 145L474.212 73.504H489.332L491.384 145H476.264ZM470.324 66.592L468.488 59.032C471.008 58.6 472.88 58.24 474.104 57.952C475.4 57.664 476.768 57.34 478.208 56.98L477.128 59.68C475.256 59.032 473.456 57.772 471.728 55.9C470.072 53.956 469.244 51.76 469.244 49.312C469.244 46.72 469.82 44.632 470.972 43.048C472.124 41.464 473.6 40.312 475.4 39.592C477.2 38.872 479.072 38.512 481.016 38.512C482.096 38.512 483.104 38.584 484.04 38.728C485.048 38.872 485.948 39.088 486.74 39.376L485.876 47.152C485.156 47.008 484.436 46.864 483.716 46.72C482.996 46.576 482.204 46.504 481.34 46.504C480.404 46.504 479.54 46.828 478.748 47.476C478.028 48.052 477.668 48.772 477.668 49.636C477.668 50.86 478.1 51.94 478.964 52.876C479.828 53.812 480.836 54.568 481.988 55.144C483.212 55.648 484.22 55.936 485.012 56.008L479.072 56.656C481.016 56.152 482.852 55.648 484.58 55.144C486.308 54.568 487.928 53.992 489.44 53.416L491.6 60.652C489.8 61.3 487.676 62.02 485.228 62.812C482.852 63.532 480.368 64.216 477.776 64.864C475.256 65.512 472.772 66.088 470.324 66.592Z" fill="white"/>
</svg>
