<svg width="596" height="596" viewBox="0 0 596 596" fill="none" xmlns="http://www.w3.org/2000/svg">
<path d="M374.354 186.475C374.354 281.907 302.667 360.597 210.209 371.63H210.196C202.881 372.506 195.434 372.949 187.879 372.949C164.962 372.949 143.017 368.812 122.726 361.245L62.4787 392.196C49.6112 398.803 34.8497 387.435 37.9554 373.309L51.171 313.277C20.2919 280 1.40503 235.45 1.40503 186.475C1.40503 83.4877 84.8927 0 187.88 0C195.434 0 202.882 0.443508 210.197 1.31888H210.222C302.667 12.3635 374.354 91.0425 374.354 186.475Z" fill="#0F893B" fill-opacity="0.8"/>
<path d="M210.196 371.63C202.881 372.506 195.434 372.949 187.879 372.949C164.962 372.949 143.017 368.812 122.726 361.245L62.4787 392.196C49.6112 398.803 34.8497 387.435 37.9554 373.309L51.171 313.277C20.2919 280 1.40503 235.45 1.40503 186.475C1.40503 83.4877 84.8927 0 187.88 0C195.434 0 202.882 0.443508 210.197 1.31888C117.752 12.3635 46.0759 91.0541 46.0759 186.475C46.0748 281.907 117.751 360.574 210.196 371.63Z" fill="#0F893B" fill-opacity="0.9"/>
<path d="M190.505 242.167C179.709 242.167 170.957 233.415 170.957 222.619V192.908C170.957 182.113 179.708 173.36 190.505 173.36C199.723 173.36 208.301 169.671 214.661 162.973C221.016 156.28 224.251 147.501 223.771 138.25C222.871 120.933 208.567 107.094 191.203 106.745C174.37 106.447 159.841 118.712 157.517 135.378C157.302 136.912 157.194 138.486 157.194 140.05C157.194 150.845 148.442 159.598 137.646 159.598C126.849 159.598 118.098 150.846 118.098 140.05C118.098 136.685 118.332 133.297 118.795 129.977C123.789 94.1983 154.48 67.6425 190.508 67.6425C191.002 67.6425 191.494 67.6472 191.99 67.6577C229.746 68.4178 260.857 98.5367 262.813 136.226C263.855 156.289 256.822 175.35 243.013 189.895C233.981 199.407 222.516 206.23 210.053 209.744V222.62C210.053 233.416 201.301 242.167 190.505 242.167Z" fill="#F4EAFA"/>
<path d="M190.505 307.555C179.709 307.555 170.957 298.803 170.957 288.007V286.705C170.957 275.91 179.708 267.157 190.505 267.157C201.3 267.157 210.053 275.908 210.053 286.705V288.007C210.053 298.803 201.301 307.555 190.505 307.555Z" fill="#F4EAFA"/>
<path d="M408.118 201.872C511.107 201.872 594.595 285.361 594.595 388.349C594.595 437.321 575.708 481.875 544.833 515.15L558.039 575.178C561.148 589.312 546.392 600.681 533.519 594.068L473.268 563.118C452.986 570.682 431.037 574.826 408.119 574.826C305.13 574.826 221.642 491.337 221.642 388.349C221.642 285.361 305.129 201.872 408.118 201.872Z" fill="#FFD987"/>
<path d="M266.311 388.349C266.311 483.78 337.998 562.46 430.445 573.504C423.13 574.38 415.682 574.823 408.127 574.823C305.129 574.823 221.641 491.336 221.641 388.349C221.641 285.362 305.129 201.874 408.127 201.874C415.682 201.874 423.13 202.318 430.456 203.193C337.998 214.226 266.311 292.918 266.311 388.349Z" fill="#FFCC5D"/>
<path d="M300.079 329.448C301.327 329.16 303.055 329.016 305.263 329.016C311.167 329.016 315.919 330.864 319.519 334.56C322.735 337.872 324.343 342.072 324.343 347.16V350.688C324.343 352.032 324.367 353.04 324.415 353.712H326.215V363H325.279L322.615 359.688H322.399C321.967 360.168 321.583 360.576 321.247 360.912C319.567 362.256 317.671 362.952 315.559 363H292.807V353.712H312.247C312.919 353.712 313.255 353.376 313.255 352.704V348.024C313.255 345.096 312.343 342.696 310.519 340.824C308.743 338.952 306.415 338.016 303.535 338.016C302.047 338.016 300.895 338.112 300.079 338.304V329.448ZM338.96 353.712C338.528 352.896 338.096 351.888 337.664 350.688C337.04 348.624 336.728 346.68 336.728 344.856C336.728 339.672 338.72 335.592 342.704 332.616C345.92 330.216 349.784 329.016 354.296 329.016H354.512H354.872C357.704 329.016 360.488 329.424 363.224 330.24V339.024C360.632 338.496 358.304 338.232 356.24 338.232C350.624 338.232 347.816 340.752 347.816 345.792C347.816 348 348.32 349.824 349.328 351.264C350.576 352.896 352.688 353.712 355.664 353.712H369.128V357.384L364.664 363H325.64V353.712H338.96ZM388.18 311.448V360.264L382.564 364.8H377.092V311.448H388.18ZM413.451 363C408.363 363 404.259 361.2 401.139 357.6C398.451 354.528 397.107 350.856 397.107 346.584C397.107 341.16 398.523 336.984 401.355 334.056C404.667 330.696 408.891 329.016 414.027 329.016C417.723 329.016 420.843 329.856 423.387 331.536C427.227 334.08 429.147 337.728 429.147 342.48V353.712H431.451V363H429.075C428.499 368.28 426.387 372.408 422.739 375.384C420.531 377.256 417.795 378.6 414.531 379.416C412.323 379.992 409.995 380.28 407.547 380.28C406.491 380.28 405.387 380.208 404.235 380.064L399.411 374.16V370.272C401.619 370.752 403.731 370.992 405.747 370.992C412.467 370.992 416.451 368.328 417.699 363H413.451ZM418.059 342.552C418.059 341.064 417.507 339.912 416.403 339.096C415.683 338.568 414.867 338.304 413.955 338.304C412.179 338.304 410.739 339 409.635 340.392C408.579 341.736 408.051 343.536 408.051 345.792C408.051 351.072 410.667 353.712 415.899 353.712H418.059V342.552ZM451.849 314.04C453.433 314.04 454.753 314.592 455.809 315.696C456.913 316.752 457.465 318.072 457.465 319.656C457.465 321.192 456.913 322.512 455.809 323.616C454.705 324.72 453.385 325.272 451.849 325.272C450.313 325.272 448.993 324.72 447.889 323.616C446.785 322.512 446.233 321.192 446.233 319.656C446.233 318.12 446.761 316.8 447.817 315.696C448.921 314.592 450.265 314.04 451.849 314.04ZM464.737 314.04C466.321 314.04 467.641 314.592 468.697 315.696C469.801 316.752 470.353 318.072 470.353 319.656C470.353 321.192 469.801 322.512 468.697 323.616C467.593 324.72 466.273 325.272 464.737 325.272C463.201 325.272 461.881 324.72 460.777 323.616C459.673 322.512 459.121 321.192 459.121 319.656C459.121 318.12 459.649 316.8 460.705 315.696C461.809 314.592 463.153 314.04 464.737 314.04ZM444.145 353.712C442.753 350.928 442.057 347.976 442.057 344.856C442.057 341.976 442.705 339.336 444.001 336.936C445.441 334.488 447.433 332.568 449.977 331.176C452.521 329.736 455.329 329.016 458.401 329.016C463.009 329.016 466.897 330.552 470.065 333.624C473.185 336.648 474.745 340.392 474.745 344.856C474.745 348.024 474.049 350.976 472.657 353.712H476.473V363H465.241C462.265 363 460.033 362.568 458.545 361.704H458.113C456.625 362.568 454.369 363 451.345 363H430.969V353.712H444.145ZM458.329 353.568C461.929 352.848 463.729 350.28 463.729 345.864C463.681 343.656 463.153 341.856 462.145 340.464C461.185 339.024 459.913 338.304 458.329 338.304C456.793 338.304 455.521 339.024 454.513 340.464C453.505 341.904 453.001 343.704 453.001 345.864C453.001 350.232 454.777 352.8 458.329 353.568ZM499.946 311.448V354.072C499.946 356.184 499.274 358.08 497.93 359.76C496.106 361.92 493.778 363 490.946 363H475.898V353.712H487.778C488.066 353.712 488.306 353.64 488.498 353.496C488.738 353.304 488.858 353.04 488.858 352.704V311.448H499.946ZM521 311.448V360.264L515.384 364.8H509.912V311.448H521Z" fill="#7A6D79"/>
<path d="M307.495 404.04C309.079 404.04 310.423 404.592 311.527 405.696C312.631 406.8 313.183 408.12 313.183 409.656C313.183 411.192 312.631 412.512 311.527 413.616C310.423 414.72 309.079 415.272 307.495 415.272C305.959 415.272 304.639 414.72 303.535 413.616C302.431 412.512 301.879 411.192 301.879 409.656C301.879 408.072 302.431 406.752 303.535 405.696C304.639 404.592 305.959 404.04 307.495 404.04ZM320.383 404.04C321.967 404.04 323.311 404.592 324.415 405.696C325.519 406.8 326.071 408.12 326.071 409.656C326.071 411.192 325.519 412.512 324.415 413.616C323.311 414.72 321.967 415.272 320.383 415.272C318.847 415.272 317.527 414.72 316.423 413.616C315.367 412.512 314.839 411.192 314.839 409.656C314.839 408.072 315.367 406.752 316.423 405.696C317.527 404.592 318.847 404.04 320.383 404.04ZM326.071 417.936V442.704C326.071 442.992 326.167 443.232 326.359 443.424C326.551 443.616 326.839 443.712 327.223 443.712H329.671V453H323.983C321.535 453 319.303 452.04 317.287 450.12C314.935 452.472 312.103 453.648 308.791 453.648H308.719H308.575C303.775 453.648 300.007 451.656 297.271 447.672C295.063 444.552 293.959 440.832 293.959 436.512C293.959 431.232 295.639 426.864 298.999 423.408C302.023 420.288 305.791 418.728 310.303 418.728C312.751 418.728 315.175 419.232 317.575 420.24L320.527 417.936H326.071ZM314.911 428.808C313.759 428.52 312.679 428.376 311.671 428.376C309.559 428.376 307.903 429.096 306.703 430.536C305.503 431.976 304.903 433.968 304.903 436.512C304.903 438.912 305.551 440.88 306.847 442.416C308.191 443.952 309.919 444.72 312.031 444.72C312.847 444.72 313.807 444.6 314.911 444.36V428.808ZM353.204 419.88V444.072C353.204 446.184 352.508 448.08 351.116 449.76C349.292 451.92 346.988 453 344.204 453H329.156V443.712H341.036C341.324 443.712 341.564 443.64 341.756 443.496C341.996 443.304 342.116 443.04 342.116 442.704V419.88H353.204ZM334.988 456.312C336.524 456.312 337.844 456.864 338.948 457.968C340.052 459.072 340.604 460.416 340.604 462C340.604 463.536 340.052 464.856 338.948 465.96C337.844 467.064 336.524 467.616 334.988 467.616C333.404 467.616 332.06 467.064 330.956 465.96C329.9 464.856 329.372 463.536 329.372 462C329.372 460.416 329.9 459.072 330.956 457.968C332.06 456.864 333.404 456.312 334.988 456.312ZM347.876 456.312C349.412 456.312 350.732 456.864 351.836 457.968C352.94 459.072 353.492 460.416 353.492 462C353.492 463.536 352.94 464.856 351.836 465.96C350.732 467.064 349.412 467.616 347.876 467.616C346.292 467.616 344.948 467.064 343.844 465.96C342.788 464.856 342.26 463.536 342.26 462C342.26 460.416 342.788 459.072 343.844 457.968C344.948 456.864 346.292 456.312 347.876 456.312ZM378.647 453C373.559 453 369.455 451.2 366.335 447.6C363.647 444.528 362.303 440.856 362.303 436.584C362.303 431.16 363.719 426.984 366.551 424.056C369.863 420.696 374.087 419.016 379.223 419.016C382.919 419.016 386.039 419.856 388.583 421.536C392.423 424.08 394.343 427.728 394.343 432.48V443.712H396.647V453H394.271C393.695 458.28 391.583 462.408 387.935 465.384C385.727 467.256 382.991 468.6 379.727 469.416C377.519 469.992 375.191 470.28 372.743 470.28C371.687 470.28 370.583 470.208 369.431 470.064L364.607 464.16V460.272C366.815 460.752 368.927 460.992 370.943 460.992C377.663 460.992 381.647 458.328 382.895 453H378.647ZM383.255 432.552C383.255 431.064 382.703 429.912 381.599 429.096C380.879 428.568 380.063 428.304 379.151 428.304C377.375 428.304 375.935 429 374.831 430.392C373.775 431.736 373.247 433.536 373.247 435.792C373.247 441.072 375.863 443.712 381.095 443.712H383.255V432.552ZM405.74 421.104C410.3 419.712 414.5 419.016 418.34 419.016C424.052 419.016 428.876 420.816 432.812 424.416C436.46 427.776 438.284 431.88 438.284 436.728V443.064C438.284 443.256 438.308 443.472 438.356 443.712H440.588V453H439.148L436.484 449.688H436.268C434.492 451.896 432.164 453 429.284 453H396.164V443.712H426.116C426.788 443.712 427.124 443.376 427.124 442.704V437.952C427.124 435.216 426.02 432.96 423.812 431.184C421.652 429.36 418.94 428.448 415.676 428.448C412.988 428.448 409.676 428.952 405.74 429.96V421.104ZM458.471 404.04C460.055 404.04 461.375 404.592 462.431 405.696C463.535 406.752 464.087 408.072 464.087 409.656C464.087 411.192 463.535 412.512 462.431 413.616C461.375 414.72 460.055 415.272 458.471 415.272C456.935 415.272 455.615 414.72 454.511 413.616C453.407 412.512 452.855 411.192 452.855 409.656C452.855 408.12 453.407 406.8 454.511 405.696C455.615 404.592 456.935 404.04 458.471 404.04ZM464.087 419.88V443.064C464.087 443.256 464.111 443.472 464.159 443.712H467.687V453H465.455L462.287 449.688H462.143C460.319 451.896 457.967 453 455.087 453H440.039V443.712H451.559C451.991 443.712 452.327 443.568 452.567 443.28C452.855 443.04 452.999 442.704 452.999 442.272V419.88H464.087ZM491.228 401.448V444.072C491.228 446.184 490.556 448.08 489.212 449.76C487.388 451.92 485.06 453 482.228 453H467.18V443.712H479.06C479.348 443.712 479.588 443.64 479.78 443.496C480.02 443.304 480.14 443.04 480.14 442.704V401.448H491.228ZM512.281 401.448V450.264L506.665 454.8H501.193V401.448H512.281Z" fill="#7A6D79"/>
</svg>
