<svg width="595" height="648" viewBox="0 0 595 648" fill="none" xmlns="http://www.w3.org/2000/svg">
<path d="M363.815 300.044C400.494 263.365 400.494 203.896 363.815 167.216C327.135 130.537 267.666 130.537 230.987 167.216C194.308 203.896 194.308 263.365 230.987 300.044C267.666 336.723 327.135 336.723 363.815 300.044Z" fill="#EF5350"/>
<path d="M391.406 379.75H203.531C192.05 379.75 182.656 389.144 182.656 400.625V525.875C182.656 537.356 192.05 546.75 203.531 546.75H391.406C402.887 546.75 412.281 537.356 412.281 525.875V400.625C412.281 389.144 402.887 379.75 391.406 379.75Z" fill="#FDB416"/>
<path d="M83.5 485.169H52.1875C22.9625 485.169 0 462.206 0 432.981V391.231C0 362.006 22.9625 339.044 52.1875 339.044H83.5" fill="#0F893B"/>
<path d="M114.812 506.044H93.9375C87.675 506.044 83.5 501.869 83.5 495.606V328.606C83.5 322.344 87.675 318.169 93.9375 318.169H114.812C121.075 318.169 125.25 322.344 125.25 328.606V495.606C125.25 500.825 121.075 506.044 114.812 506.044Z" fill="#0F893B"/>
<path d="M511.438 485.169H542.75C571.975 485.169 594.938 462.206 594.938 432.981V391.231C594.938 362.006 571.975 339.044 542.75 339.044H511.438" fill="#0F893B"/>
<path d="M480.125 506.044H501C507.263 506.044 511.438 501.869 511.438 495.606V328.606C511.438 322.344 507.263 318.169 501 318.169H480.125C473.862 318.169 469.688 322.344 469.688 328.606V495.606C469.688 500.825 473.862 506.044 480.125 506.044Z" fill="#0F893B"/>
<path d="M222.319 177.263C224.406 174.131 227.537 171 230.669 167.869C233.8 164.738 236.931 161.606 240.062 159.519" stroke="#37474F" stroke-miterlimit="10" stroke-linecap="round" stroke-linejoin="round"/>
<path d="M265.112 145.95C298.512 133.425 337.131 140.731 364.269 167.869C400.8 204.4 400.8 263.894 364.269 300.425C327.737 336.956 268.244 336.956 231.712 300.425C204.575 273.287 197.269 234.669 209.794 201.269" stroke="#37474F" stroke-miterlimit="10" stroke-linecap="round" stroke-linejoin="round"/>
<path d="M330.869 225.275L287.031 197.094C279.725 192.919 271.375 198.137 271.375 205.444V260.763C271.375 269.113 280.769 274.331 287.031 269.113L330.869 240.931C337.131 237.8 337.131 229.45 330.869 225.275Z" fill="white" stroke="#37474F" stroke-miterlimit="10" stroke-linecap="round" stroke-linejoin="round"/>
<path d="M515.438 488.169V518.438C515.438 575.844 468.469 622.813 411.062 622.813H301.469" stroke="#37474F" stroke-width="8" stroke-miterlimit="10" stroke-linecap="round" stroke-linejoin="round"/>
<path d="M321.297 643.688H279.547C273.284 643.688 269.109 639.513 269.109 633.25V612.375C269.109 606.112 273.284 601.938 279.547 601.938H321.297C327.559 601.938 331.734 606.112 331.734 612.375V633.25C331.734 639.513 326.516 643.688 321.297 643.688Z" stroke="#37474F" stroke-width="8" stroke-miterlimit="10" stroke-linecap="round" stroke-linejoin="round"/>
<path d="M83.5 296.25V249.281C83.5 131.337 179.525 35.3125 297.469 35.3125C415.413 35.3125 511.438 131.337 511.438 249.281V296.25" stroke="#37474F" stroke-width="8" stroke-miterlimit="10" stroke-linecap="round" stroke-linejoin="round"/>
<path d="M542.75 317.125V249.281C542.75 113.594 433.156 4 297.469 4C161.781 4 52.1875 113.594 52.1875 249.281V317.125" stroke="#37474F" stroke-width="8" stroke-miterlimit="10" stroke-linecap="round" stroke-linejoin="round"/>
</svg>
