<svg width="766" height="472" viewBox="0 0 766 472" fill="none" xmlns="http://www.w3.org/2000/svg">
<path d="M667.299 141.646V439.541C667.299 443.188 665.848 446.684 663.267 449.262C660.686 451.841 657.185 453.289 653.535 453.29H371.536V433.878C371.536 433.878 488.516 347.202 612.303 416.856C614.968 418.348 617.978 419.116 621.033 419.086C624.088 419.055 627.082 418.227 629.717 416.683C632.352 415.138 634.537 412.932 636.054 410.283C637.571 407.634 638.368 404.635 638.365 401.583V127.897H653.535C657.185 127.898 660.686 129.347 663.267 131.925C665.848 134.503 667.299 138 667.299 141.646Z" fill="#0F893B"/>
<path d="M371.539 433.878V453.29H89.5402C85.8899 453.289 82.3893 451.841 79.8081 449.262C77.227 446.684 75.7767 443.188 75.7761 439.541V141.646C75.7767 138 77.227 134.503 79.8081 131.925C82.3893 129.347 85.8899 127.898 89.5402 127.897H104.711V401.583C104.71 404.636 105.508 407.636 107.027 410.285C108.545 412.934 110.731 415.14 113.368 416.684C116.004 418.228 118.999 419.056 122.055 419.086C125.11 419.117 128.121 418.348 130.787 416.856C254.559 347.202 371.539 433.878 371.539 433.878Z" fill="#0F893B"/>
<path d="M638.365 401.583V419.188C638.365 421.117 637.985 423.027 637.246 424.809C636.507 426.592 635.424 428.211 634.058 429.576C632.692 430.94 631.071 432.022 629.286 432.76C627.502 433.498 625.589 433.878 623.658 433.878H371.536C371.536 433.878 488.516 347.202 612.303 416.856C614.968 418.348 617.978 419.116 621.033 419.086C624.088 419.055 627.082 418.227 629.717 416.683C632.352 415.138 634.537 412.932 636.054 410.283C637.571 407.634 638.368 404.635 638.365 401.583Z" fill="#5BA777"/>
<path d="M104.707 401.583V419.188C104.707 421.117 105.087 423.027 105.826 424.809C106.565 426.592 107.648 428.211 109.014 429.576C110.38 430.94 112.001 432.022 113.785 432.76C115.57 433.498 117.482 433.878 119.414 433.878H371.535C371.535 433.878 254.556 347.202 130.769 416.856C128.104 418.348 125.094 419.116 122.039 419.086C118.984 419.055 115.99 418.227 113.355 416.683C110.72 415.138 108.535 412.932 107.018 410.283C105.501 407.634 104.704 404.635 104.707 401.583Z" fill="#5BA777"/>
<path d="M371.535 120.739V433.877C371.535 433.877 254.556 347.202 130.784 416.856C128.118 418.348 125.107 419.116 122.051 419.086C118.995 419.056 116 418.228 113.364 416.684C110.728 415.139 108.542 412.934 107.023 410.285C105.504 407.635 104.706 404.636 104.707 401.583V103.419C104.712 100.293 105.553 97.2261 107.141 94.5334C108.73 91.8407 111.009 89.6202 113.743 88.1012C147.57 69.2717 270.025 13.1716 371.535 120.739Z" fill="#FFCD2C"/>
<path d="M371.538 120.74V433.878C371.538 433.878 298.993 332.064 154.919 380.737C152.892 381.418 150.731 381.607 148.616 381.289C146.501 380.971 144.492 380.155 142.756 378.908C141.019 377.661 139.605 376.019 138.629 374.118C137.653 372.217 137.145 370.111 137.145 367.974V209.806C178.492 209.806 218.569 195.541 250.599 169.424C282.628 143.307 304.644 106.941 312.921 66.4775C336.035 80.2831 356.002 98.7664 371.538 120.74Z" fill="#FFE8A0"/>
<path d="M312.921 66.4773C304.644 106.941 282.628 143.307 250.599 169.424C218.569 195.541 178.492 209.806 137.145 209.806V57.481C137.142 54.4164 138.187 51.4428 140.109 49.0535C142.03 46.6642 144.711 45.0029 147.708 44.3451C174.518 38.502 247.692 27.8618 312.921 66.4773Z" fill="#FFF2C8"/>
<path d="M638.365 103.419V401.583C638.368 404.635 637.571 407.634 636.054 410.283C634.537 412.932 632.352 415.138 629.717 416.682C627.082 418.227 624.088 419.055 621.033 419.086C617.978 419.116 614.968 418.347 612.303 416.856C488.516 347.202 371.536 433.877 371.536 433.877V120.739C473.061 13.1716 595.517 69.2717 629.328 88.1012C632.065 89.6177 634.346 91.8376 635.935 94.5308C637.524 97.2241 638.363 100.293 638.365 103.419Z" fill="#FFA82C"/>
<path d="M605.929 57.481V367.974C605.931 370.111 605.423 372.217 604.448 374.119C603.472 376.021 602.058 377.663 600.321 378.91C598.584 380.157 596.574 380.974 594.459 381.291C592.344 381.609 590.183 381.419 588.156 380.736C530.481 361.249 484.267 365.882 449.588 378.45C397.628 397.265 371.536 433.878 371.536 433.878V120.739C443.618 20.5244 559.954 36.6191 595.367 44.3452C598.364 45.0029 601.045 46.6642 602.966 49.0535C604.887 51.4428 605.933 54.4165 605.929 57.481Z" fill="#FFDB69"/>
<path d="M323.813 188.279C322.924 188.28 322.046 188.083 321.243 187.702C320.44 187.321 319.732 186.766 319.171 186.077C310.142 176.056 299.455 167.661 287.578 161.257C260.605 146.396 231.082 142.425 199.839 149.457C198.29 149.806 196.667 149.525 195.325 148.678C193.984 147.831 193.034 146.486 192.686 144.939C192.337 143.393 192.618 141.771 193.466 140.431C194.314 139.091 195.661 138.142 197.209 137.794C240.02 128.158 273.383 139.682 293.825 151.047C315.983 163.366 327.957 177.92 328.456 178.533C329.169 179.41 329.619 180.471 329.753 181.592C329.887 182.714 329.7 183.85 329.214 184.87C328.728 185.89 327.963 186.752 327.007 187.355C326.051 187.958 324.944 188.279 323.813 188.279Z" fill="#5BA777"/>
<path d="M323.813 233.159C322.924 233.161 322.046 232.964 321.243 232.583C320.44 232.202 319.732 231.646 319.171 230.957C310.142 220.937 299.455 212.541 287.578 206.137C260.604 191.276 231.083 187.306 199.839 194.337C199.072 194.51 198.279 194.529 197.505 194.396C196.73 194.262 195.99 193.977 195.325 193.558C193.984 192.71 193.034 191.365 192.686 189.819C192.337 188.272 192.618 186.65 193.466 185.31C194.314 183.97 195.661 183.022 197.209 182.674C240.029 173.037 273.384 184.564 293.825 195.927C315.983 208.246 327.957 222.8 328.456 223.414C329.169 224.291 329.619 225.351 329.753 226.473C329.887 227.594 329.7 228.731 329.214 229.751C328.728 230.77 327.963 231.632 327.007 232.235C326.051 232.839 324.944 233.159 323.813 233.159Z" fill="#5BA777"/>
<path d="M323.813 278.039C322.923 278.04 322.045 277.843 321.241 277.462C320.438 277.08 319.729 276.524 319.169 275.835C310.139 265.816 299.454 257.421 287.578 251.016C260.604 236.155 231.083 232.184 199.839 239.217C199.072 239.389 198.279 239.409 197.505 239.275C196.73 239.142 195.99 238.857 195.325 238.437C193.984 237.59 193.034 236.245 192.686 234.698C192.337 233.152 192.618 231.53 193.466 230.19C194.314 228.85 195.661 227.902 197.209 227.553C240.029 217.919 273.384 229.443 293.825 240.806C315.983 253.126 327.957 267.68 328.456 268.293C329.169 269.17 329.619 270.231 329.753 271.352C329.887 272.474 329.7 273.61 329.214 274.63C328.728 275.65 327.963 276.511 327.007 277.115C326.051 277.718 324.944 278.039 323.813 278.039Z" fill="#5BA777"/>
<path d="M323.813 322.919C322.924 322.92 322.046 322.723 321.243 322.342C320.44 321.961 319.732 321.406 319.171 320.717C310.142 310.696 299.455 302.3 287.578 295.896C260.604 281.035 231.083 277.066 199.839 284.096C199.072 284.269 198.279 284.289 197.505 284.155C196.73 284.021 195.99 283.737 195.325 283.317C193.984 282.47 193.034 281.125 192.686 279.578C192.337 278.031 192.618 276.41 193.466 275.07C194.314 273.73 195.661 272.781 197.209 272.433C240.029 262.798 273.384 274.323 293.825 285.686C315.983 298.006 327.957 312.559 328.456 313.173C329.169 314.05 329.619 315.11 329.753 316.232C329.887 317.353 329.7 318.49 329.214 319.51C328.728 320.53 327.963 321.391 327.007 321.995C326.051 322.598 324.944 322.918 323.813 322.919Z" fill="#5BA777"/>
<path d="M605.928 214.379V367.974C605.929 370.111 605.421 372.217 604.446 374.119C603.47 376.021 602.056 377.663 600.319 378.91C598.582 380.158 596.573 380.974 594.457 381.291C592.342 381.609 590.181 381.419 588.154 380.737C530.48 361.249 484.265 365.882 449.586 378.45C454.567 337.964 472.457 300.153 500.611 270.606C528.766 241.06 565.691 221.346 605.928 214.379Z" fill="#FFD44A"/>
<path d="M416.821 188.273C415.691 188.272 414.585 187.952 413.63 187.349C412.675 186.746 411.91 185.885 411.424 184.866C410.938 183.847 410.751 182.712 410.885 181.591C411.018 180.47 411.467 179.41 412.178 178.533C412.678 177.92 424.651 163.366 446.809 151.047C467.25 139.682 500.608 128.161 543.425 137.794C544.974 138.142 546.32 139.091 547.168 140.431C548.017 141.771 548.297 143.392 547.949 144.939C547.6 146.486 546.65 147.831 545.309 148.678C543.967 149.525 542.344 149.806 540.795 149.457C509.554 142.429 480.031 146.397 453.056 161.256C441.179 167.66 430.492 176.056 421.463 186.078C420.901 186.765 420.193 187.319 419.39 187.699C418.587 188.078 417.71 188.275 416.821 188.273Z" fill="#0F893B"/>
<path d="M416.821 232.925C415.691 232.925 414.585 232.604 413.63 232.001C412.675 231.398 411.91 230.538 411.424 229.519C410.938 228.5 410.751 227.364 410.885 226.243C411.018 225.122 411.467 224.062 412.178 223.186C412.678 222.572 424.651 208.018 446.809 195.699C467.25 184.334 500.608 172.811 543.425 182.446C544.974 182.795 546.32 183.743 547.168 185.083C548.017 186.423 548.297 188.045 547.949 189.591C547.6 191.138 546.65 192.483 545.309 193.33C543.967 194.178 542.344 194.458 540.795 194.11C509.554 187.08 480.031 191.049 453.056 205.909C441.179 212.312 430.492 220.708 421.463 230.73C420.901 231.417 420.193 231.971 419.39 232.351C418.587 232.731 417.71 232.927 416.821 232.925Z" fill="#0F893B"/>
<path d="M416.821 277.577C415.691 277.576 414.585 277.256 413.63 276.653C412.675 276.05 411.91 275.189 411.424 274.17C410.938 273.151 410.751 272.016 410.885 270.895C411.018 269.774 411.467 268.714 412.178 267.837C412.678 267.224 424.651 252.67 446.809 240.351C467.25 228.986 500.608 217.464 543.425 227.098C544.974 227.446 546.32 228.395 547.168 229.735C548.017 231.075 548.297 232.696 547.949 234.243C547.6 235.79 546.65 237.135 545.309 237.982C543.967 238.829 542.344 239.11 540.795 238.761C509.554 231.732 480.031 235.702 453.056 250.56C441.179 256.964 430.492 265.36 421.463 275.382C420.901 276.069 420.193 276.623 419.39 277.002C418.587 277.382 417.71 277.579 416.821 277.577Z" fill="#0F893B"/>
<path d="M416.821 322.229C415.691 322.228 414.585 321.908 413.63 321.305C412.675 320.702 411.91 319.841 411.424 318.822C410.938 317.803 410.751 316.668 410.885 315.547C411.018 314.426 411.467 313.366 412.178 312.489C412.678 311.876 424.651 297.322 446.809 285.003C467.25 273.638 500.608 262.117 543.425 271.75C544.974 272.098 546.32 273.047 547.168 274.387C548.017 275.727 548.297 277.348 547.949 278.895C547.6 280.442 546.65 281.787 545.309 282.634C543.967 283.481 542.344 283.762 540.795 283.413C509.554 276.385 480.031 280.353 453.056 295.213C441.179 301.616 430.492 310.012 421.464 320.034C420.902 320.721 420.194 321.275 419.391 321.655C418.588 322.035 417.71 322.231 416.821 322.229Z" fill="#0F893B"/>
</svg>
