<svg width="616" height="616" viewBox="0 0 616 616" fill="none" xmlns="http://www.w3.org/2000/svg">
<g clip-path="url(#clip0_51_9914)">
<path d="M379.9 147.268L382.708 132.148C389.692 132.148 395.776 131.968 400.96 131.608C406.144 131.176 410.428 130.564 413.812 129.772C417.268 128.908 419.824 127.792 421.48 126.424C423.208 125.056 424.072 123.4 424.072 121.456C424.072 118.864 423.64 115.768 422.776 112.168C421.912 108.496 420.796 104.788 419.428 101.044L433.576 96.94C434.512 99.388 435.412 102.088 436.276 105.04C437.14 107.92 437.824 110.836 438.328 113.788C438.904 116.668 439.192 119.368 439.192 121.888C439.192 126.352 438.22 130.204 436.276 133.444C434.332 136.612 431.092 139.24 426.556 141.328C422.092 143.344 416.044 144.82 408.412 145.756C400.78 146.764 391.276 147.268 379.9 147.268ZM379.792 147.268C372.016 147.268 365.428 146.656 360.028 145.432C354.7 144.28 350.344 142.624 346.96 140.464C343.648 138.232 341.236 135.64 339.724 132.688C338.212 129.736 337.456 126.496 337.456 122.968C337.456 120.664 337.636 118.36 337.996 116.056C338.428 113.68 338.932 111.376 339.508 109.144C340.156 106.912 340.732 104.896 341.236 103.096L354.736 106.228C354.448 107.524 354.124 108.928 353.764 110.44C353.404 111.952 353.116 113.428 352.9 114.868C352.684 116.236 352.576 117.496 352.576 118.648C352.576 121.312 353.512 123.688 355.384 125.776C357.328 127.792 360.496 129.376 364.888 130.528C369.28 131.608 375.184 132.148 382.6 132.148L384.76 143.812L379.792 147.268ZM388.108 172.54C386.02 172.54 384.22 171.82 382.708 170.38C381.268 168.94 380.548 167.176 380.548 165.088C380.548 163 381.268 161.164 382.708 159.58C384.22 158.068 386.02 157.312 388.108 157.312C390.196 157.312 391.96 158.068 393.4 159.58C394.912 161.164 395.668 163 395.668 165.088C395.668 167.176 394.912 168.94 393.4 170.38C391.96 171.82 390.196 172.54 388.108 172.54ZM476.264 145L474.212 73.504H489.332L491.384 145H476.264ZM470.324 66.592L468.488 59.032C471.008 58.6 472.88 58.24 474.104 57.952C475.4 57.664 476.768 57.34 478.208 56.98L477.128 59.68C475.256 59.032 473.456 57.772 471.728 55.9C470.072 53.956 469.244 51.76 469.244 49.312C469.244 46.72 469.82 44.632 470.972 43.048C472.124 41.464 473.6 40.312 475.4 39.592C477.2 38.872 479.072 38.512 481.016 38.512C482.096 38.512 483.104 38.584 484.04 38.728C485.048 38.872 485.948 39.088 486.74 39.376L485.876 47.152C485.156 47.008 484.436 46.864 483.716 46.72C482.996 46.576 482.204 46.504 481.34 46.504C480.404 46.504 479.54 46.828 478.748 47.476C478.028 48.052 477.668 48.772 477.668 49.636C477.668 50.86 478.1 51.94 478.964 52.876C479.828 53.812 480.836 54.568 481.988 55.144C483.212 55.648 484.22 55.936 485.012 56.008L479.072 56.656C481.016 56.152 482.852 55.648 484.58 55.144C486.308 54.568 487.928 53.992 489.44 53.416L491.6 60.652C489.8 61.3 487.676 62.02 485.228 62.812C482.852 63.532 480.368 64.216 477.776 64.864C475.256 65.512 472.772 66.088 470.324 66.592Z" fill="white"/>
<path d="M498.353 37.4641H541.978C549.642 37.4641 555.853 43.6754 555.853 51.339V227.822H484.478V51.339C484.478 43.6754 490.689 37.4641 498.353 37.4641Z" fill="#0F893B" fill-opacity="0.9"/>
<path d="M555.853 418.178H484.478V227.82H555.853V418.178Z" fill="#0F893B" fill-opacity="0.5"/>
<path d="M484.478 418.178H555.853V594.661C555.853 602.325 549.642 608.536 541.978 608.536H498.353C490.689 608.536 484.478 602.325 484.478 594.661V418.178Z" fill="#0F893B" fill-opacity="0.25"/>
<path d="M364.355 608.536C364.355 588.366 364.355 573.948 364.355 555.284C364.355 512.798 329.915 478.358 287.43 478.358H143.222C100.737 478.358 66.2969 512.798 66.2969 555.284V608.536H364.355Z" fill="#FDB416"/>
<path d="M364.355 613.161H66.2969C63.7439 613.161 61.6719 611.089 61.6719 608.536V555.286C61.6719 510.319 98.2556 473.736 143.222 473.736H287.43C332.396 473.736 368.98 510.319 368.98 555.286V608.536C368.98 611.089 366.91 613.161 364.355 613.161ZM70.9219 603.911H359.73V555.286C359.73 515.419 327.297 482.986 287.43 482.986H143.222C103.357 482.986 70.9219 515.419 70.9219 555.286V603.911Z" fill="#020202"/>
<path d="M267.861 481.566V414.369H162.788V481.566C162.788 510.581 186.309 534.101 215.324 534.101C244.341 534.101 267.861 510.581 267.861 481.566Z" fill="#F9CFCF"/>
<path d="M215.326 538.726C183.807 538.726 158.166 513.085 158.166 481.566V414.369C158.166 411.816 160.238 409.744 162.791 409.744H267.864C270.417 409.744 272.489 411.816 272.489 414.369V481.566C272.489 513.085 246.845 538.726 215.326 538.726ZM167.416 418.994V481.566C167.416 507.984 188.908 529.476 215.326 529.476C241.744 529.476 263.239 507.984 263.239 481.566V418.994H167.416Z" fill="#020202"/>
<path d="M78.9185 282.455C78.9185 186.262 145.604 134.503 215.326 134.503C283.929 134.503 351.733 184.962 351.733 282.455C376.556 282.455 394.212 301.984 394.212 324.26C394.212 345.401 379.074 366.066 347.585 366.066C332.664 425.222 279.116 469.016 215.326 469.016C151.536 469.016 97.9874 425.224 83.0671 366.066C51.8761 366.066 36.4402 345.642 36.4402 324.26C36.4402 302.081 53.9874 282.455 78.9185 282.455Z" fill="#F9CFCF"/>
<path d="M128.82 377.896C142.224 377.896 153.09 371.831 153.09 364.35C153.09 356.868 142.224 350.803 128.82 350.803C115.416 350.803 104.55 356.868 104.55 364.35C104.55 371.831 115.416 377.896 128.82 377.896Z" fill="#F9A7A7"/>
<path d="M149.387 350.81C158.568 350.81 166.01 343.368 166.01 334.188V316.458C166.01 307.277 158.568 299.836 149.387 299.836C140.207 299.836 132.765 307.277 132.765 316.458V334.188C132.765 343.366 140.207 350.81 149.387 350.81Z" fill="#020202"/>
<path d="M244.628 381.002C244.628 397.06 231.611 410.077 215.553 410.077C199.495 410.077 186.478 397.06 186.478 381.002H244.628Z" fill="#F9A7A7"/>
<path d="M215.326 473.639C151.802 473.639 96.4449 431.447 79.4897 370.605C46.7678 369.028 31.8175 345.85 31.8175 324.26C31.8175 299.748 50.1556 280.237 74.3421 278.038C76.4002 180.753 146.282 129.881 215.326 129.881C252.275 129.881 286.778 143.633 312.479 168.604C340.273 195.609 355.38 233.372 356.312 278.038C380.496 280.242 398.837 299.75 398.837 324.26C398.837 345.85 383.886 369.03 351.165 370.607C334.209 431.447 278.85 473.639 215.326 473.639ZM215.326 139.131C149.841 139.131 83.5458 188.362 83.5458 282.457C83.5458 285.01 81.4738 287.082 78.9208 287.082C57.6944 287.082 41.0675 303.413 41.0675 324.26C41.0675 342.767 54.0545 361.441 83.0694 361.441C85.1877 361.441 87.0354 362.881 87.5534 364.935C102.321 423.492 154.863 464.391 215.326 464.391C275.789 464.391 328.331 423.492 343.099 364.935C343.617 362.881 345.464 361.441 347.582 361.441C376.595 361.441 389.584 342.767 389.584 324.26C389.584 303.411 372.958 287.08 351.731 287.08C349.178 287.08 347.106 285.008 347.106 282.455C347.108 183.982 278.797 139.131 215.326 139.131Z" fill="#020202"/>
<path d="M243.733 101.907C243.733 101.907 198.586 60.4966 136.03 88.6906L162.788 104.066C162.788 104.066 108.717 93.0959 82.2856 121.29L100.196 133.639C71.0006 158.306 52.4404 195.17 52.4404 236.385V282.457L78.9186 283.033V282.457C78.9186 257.679 83.3655 235.872 91.1309 217.122C105.512 237.072 145.852 283.167 211.873 283.607C213.592 283.618 214.87 281.995 214.454 280.33C213.025 274.606 210.356 262.156 210.497 249.58C225.122 262.507 245.839 275.663 273.363 281.615C275.282 282.032 276.959 280.226 276.45 278.329L267.861 246.401C267.861 246.401 287.351 291.201 378.212 282.457V236.385C378.212 162.115 318.003 101.907 243.733 101.907Z" fill="#404040"/>
<path d="M211.894 288.229C211.878 288.229 211.862 288.229 211.846 288.229C150.372 287.82 110.514 249.113 92.4906 226.548C86.5521 243.575 83.5459 262.339 83.5459 282.455V283.031C83.5459 284.275 83.0441 285.466 82.1561 286.338C81.2658 287.205 80.1211 287.704 78.8214 287.656L52.3433 287.08C49.8296 287.027 47.8177 284.971 47.8177 282.455V236.383C47.8177 197.371 64.1024 160.424 92.7011 134.085L79.6632 125.096C78.5555 124.331 77.834 123.121 77.6883 121.782C77.5449 120.441 77.9912 119.107 78.9139 118.124C95.9039 100.001 122.845 96.8837 141.786 97.3254L133.729 92.6958C132.224 91.8309 131.329 90.1937 131.415 88.4593C131.5 86.7249 132.55 85.1825 134.134 84.4702C192.483 58.1748 237.02 90.4781 245.43 97.2861C321.354 98.1996 382.839 160.244 382.839 236.378V282.45C382.839 284.832 381.028 286.826 378.656 287.055C322.929 292.417 292.996 278.158 277.773 265.426L280.918 277.122C281.584 279.594 280.925 282.18 279.156 284.039C277.398 285.887 274.866 286.666 272.387 286.13C251.607 281.636 232.543 272.777 215.573 259.749C216.334 267.808 217.888 274.972 218.945 279.204C219.491 281.393 219.003 283.669 217.604 285.447C216.214 287.219 214.135 288.229 211.894 288.229ZM267.864 241.773C269.656 241.773 271.351 242.823 272.105 244.555C272.276 244.939 291.213 284.774 373.589 278.221V236.383C373.589 164.781 315.337 106.529 243.735 106.529C242.579 106.529 241.462 106.094 240.609 105.313C238.858 103.72 200.85 69.9963 146.575 89.4121L165.096 100.054C167.062 101.183 167.917 103.571 167.12 105.694C166.319 107.815 164.093 109.036 161.875 108.597C161.382 108.495 115.144 99.4992 89.6208 120.726L102.823 129.83C104.009 130.649 104.747 131.971 104.816 133.412C104.888 134.85 104.282 136.24 103.181 137.17C73.8727 161.932 57.0654 198.095 57.0654 236.383V277.929L74.3352 278.304C74.7884 255.489 78.9972 234.329 86.862 215.348C87.5026 213.799 88.934 212.719 90.599 212.525C92.2617 212.338 93.9059 213.054 94.8864 214.414C108.593 233.428 146.95 277.363 209.369 278.938C207.792 272.086 205.748 260.916 205.875 249.525C205.896 247.714 206.969 246.084 208.622 245.349C210.271 244.615 212.204 244.911 213.562 246.112C230.445 261.037 249.798 271.202 271.131 276.357L263.396 247.599C262.767 245.261 264.048 242.83 266.335 242.032C266.839 241.859 267.355 241.773 267.864 241.773Z" fill="#020202"/>
<path d="M215.553 414.702C196.969 414.702 181.853 399.585 181.853 381.002C181.853 378.449 183.925 376.377 186.478 376.377H244.628C247.181 376.377 249.253 378.449 249.253 381.002C249.253 399.585 234.136 414.702 215.553 414.702ZM191.542 385.627C193.711 396.905 203.652 405.452 215.553 405.452C227.453 405.452 237.396 396.905 239.563 385.627H191.542Z" fill="#020202"/>
<path d="M301.832 377.896C315.236 377.896 326.102 371.831 326.102 364.35C326.102 356.868 315.236 350.803 301.832 350.803C288.428 350.803 277.562 356.868 277.562 364.35C277.562 371.831 288.428 377.896 301.832 377.896Z" fill="#F9A7A7"/>
<path d="M281.41 350.361C272.311 350.361 264.934 342.985 264.934 333.885V316.31C264.934 307.21 272.311 299.833 281.41 299.833C290.51 299.833 297.887 307.21 297.887 316.31V333.885C297.887 342.985 290.51 350.361 281.41 350.361Z" fill="#020202"/>
<path d="M428.663 37.4641H274.84C261.895 37.4641 251.401 47.9582 251.401 60.9035V167.346C251.401 180.291 261.895 190.785 274.84 190.785H331.016V215.755C331.016 217.848 333.504 218.944 335.049 217.531L364.295 190.785H428.663C441.609 190.785 452.103 180.291 452.103 167.346V60.9035C452.103 47.9582 441.609 37.4641 428.663 37.4641Z" fill="#0F893B" fill-opacity="0.9"/>
<path d="M323.703 136.764L325.887 125.004C331.319 125.004 336.051 124.864 340.083 124.584C344.115 124.248 347.447 123.772 350.079 123.156C352.767 122.484 354.755 121.616 356.043 120.552C357.387 119.488 358.059 118.2 358.059 116.688C358.059 114.672 357.723 112.264 357.051 109.464C356.379 106.608 355.511 103.724 354.447 100.812L365.451 97.6202C366.179 99.5242 366.879 101.624 367.551 103.92C368.223 106.16 368.755 108.428 369.147 110.724C369.595 112.964 369.819 115.064 369.819 117.024C369.819 120.496 369.063 123.492 367.551 126.012C366.039 128.476 363.519 130.52 359.991 132.144C356.519 133.712 351.815 134.86 345.879 135.588C339.943 136.372 332.551 136.764 323.703 136.764ZM323.619 136.764C317.571 136.764 312.447 136.288 308.247 135.336C304.103 134.44 300.715 133.152 298.083 131.472C295.507 129.736 293.631 127.72 292.455 125.424C291.279 123.128 290.691 120.608 290.691 117.864C290.691 116.072 290.831 114.28 291.111 112.488C291.447 110.64 291.839 108.848 292.287 107.112C292.791 105.376 293.239 103.808 293.631 102.408L304.131 104.844C303.907 105.852 303.655 106.944 303.375 108.12C303.095 109.296 302.871 110.444 302.703 111.564C302.535 112.628 302.451 113.608 302.451 114.504C302.451 116.576 303.179 118.424 304.635 120.048C306.147 121.616 308.611 122.848 312.027 123.744C315.443 124.584 320.035 125.004 325.803 125.004L327.483 134.076L323.619 136.764ZM330.087 156.42C328.463 156.42 327.063 155.86 325.887 154.74C324.767 153.62 324.207 152.248 324.207 150.624C324.207 149 324.767 147.572 325.887 146.34C327.063 145.164 328.463 144.576 330.087 144.576C331.711 144.576 333.083 145.164 334.203 146.34C335.379 147.572 335.967 149 335.967 150.624C335.967 152.248 335.379 153.62 334.203 154.74C333.083 155.86 331.711 156.42 330.087 156.42ZM398.652 135L397.056 79.3922H408.816L410.412 135H398.652ZM394.032 74.0162L392.604 68.1362C394.564 67.8002 396.02 67.5202 396.972 67.2962C397.98 67.0722 399.044 66.8202 400.164 66.5402L399.324 68.6402C397.868 68.1362 396.468 67.1562 395.124 65.7002C393.836 64.1882 393.192 62.4802 393.192 60.5762C393.192 58.5602 393.64 56.9362 394.536 55.7042C395.432 54.4722 396.58 53.5762 397.98 53.0162C399.38 52.4562 400.836 52.1762 402.348 52.1762C403.188 52.1762 403.972 52.2322 404.7 52.3442C405.484 52.4562 406.184 52.6242 406.8 52.8482L406.128 58.8962C405.568 58.7842 405.008 58.6722 404.448 58.5602C403.888 58.4482 403.272 58.3922 402.6 58.3922C401.872 58.3922 401.2 58.6442 400.584 59.1482C400.024 59.5962 399.744 60.1562 399.744 60.8282C399.744 61.7802 400.08 62.6202 400.752 63.3482C401.424 64.0762 402.208 64.6642 403.104 65.1122C404.056 65.5042 404.84 65.7282 405.456 65.7842L400.836 66.2882C402.348 65.8962 403.776 65.5042 405.12 65.1122C406.464 64.6642 407.724 64.2162 408.9 63.7682L410.58 69.3962C409.18 69.9002 407.528 70.4602 405.624 71.0762C403.776 71.6362 401.844 72.1682 399.828 72.6722C397.868 73.1762 395.936 73.6242 394.032 74.0162Z" fill="white"/>
<path d="M333.423 222.788C332.466 222.788 331.501 222.594 330.59 222.191C328.04 221.067 326.393 218.542 326.393 215.755V195.41H274.843C259.37 195.41 246.781 182.821 246.781 167.346V60.9036C246.781 45.4306 259.37 32.8414 274.843 32.8414H428.668C444.143 32.8414 456.732 45.4306 456.732 60.9036V167.346C456.732 182.821 444.143 195.41 428.668 195.41H366.096L338.175 220.945C336.85 222.152 335.148 222.788 333.423 222.788ZM274.84 42.0891C264.467 42.0891 256.028 50.5274 256.028 60.9012V167.343C256.028 177.717 264.467 186.158 274.84 186.158H331.016C333.569 186.158 335.641 188.23 335.641 190.783V210.721L361.175 187.37C362.029 186.59 363.141 186.158 364.297 186.158H428.666C439.04 186.158 447.48 177.717 447.48 167.343V60.9036C447.48 50.5297 439.04 42.0914 428.666 42.0914L274.84 42.0891Z" fill="#1B1B1B"/>
<path d="M555.853 232.447H484.478C481.925 232.447 479.853 230.375 479.853 227.822V51.339C479.853 41.1386 488.152 32.8391 498.353 32.8391H541.978C552.179 32.8391 560.478 41.1386 560.478 51.339V227.82C560.478 230.375 558.406 232.447 555.853 232.447ZM489.103 223.197H551.228V51.339C551.228 46.2377 547.08 42.0891 541.978 42.0891H498.353C493.251 42.0891 489.103 46.2377 489.103 51.339V223.197Z" fill="#1B1B1B"/>
<path d="M555.853 422.803H484.478C481.925 422.803 479.853 420.731 479.853 418.178V227.822C479.853 225.269 481.925 223.197 484.478 223.197H555.853C558.406 223.197 560.478 225.269 560.478 227.822V418.178C560.478 420.733 558.406 422.803 555.853 422.803ZM489.103 413.553H551.228V232.447H489.103V413.553Z" fill="#1B1B1B"/>
<path d="M541.978 613.161H498.353C488.152 613.161 479.853 604.861 479.853 594.661V418.18C479.853 415.627 481.925 413.555 484.478 413.555H555.853C558.406 413.555 560.478 415.627 560.478 418.18V594.661C560.478 604.861 552.179 613.161 541.978 613.161ZM489.103 422.803V594.659C489.103 599.76 493.251 603.909 498.353 603.909H541.978C547.08 603.909 551.228 599.76 551.228 594.659V422.803H489.103Z" fill="#1B1B1B"/>
<path d="M587.56 158.026V107.26C587.56 102.073 582.075 98.7199 577.459 101.086L527.92 126.47C522.888 129.048 522.888 136.24 527.92 138.819L577.459 164.203C582.075 166.566 587.56 163.213 587.56 158.026Z" fill="#FFEA92"/>
<path d="M580.629 169.603C578.828 169.603 577.022 169.175 575.35 168.317L525.814 142.933C521.933 140.944 519.524 137.001 519.524 132.642C519.524 128.283 521.933 124.34 525.816 122.351L575.352 96.967C578.967 95.1147 583.192 95.2742 586.656 97.3925C590.12 99.5107 592.189 103.197 592.189 107.258V158.026C592.189 162.087 590.12 165.775 586.656 167.891C584.792 169.029 582.713 169.603 580.629 169.603ZM580.615 104.94C580.299 104.94 579.942 105.01 579.568 105.202L530.032 130.586C528.896 131.169 528.774 132.219 528.774 132.644C528.774 133.07 528.896 134.122 530.032 134.705L579.568 160.089C580.611 160.623 581.496 160.207 581.829 160.003C582.162 159.8 582.937 159.201 582.937 158.031V107.26C582.937 106.09 582.165 105.491 581.829 105.287C581.614 105.156 581.175 104.94 580.615 104.94Z" fill="#1B1B1B"/>
</g>
<defs>
<clipPath id="clip0_51_9914">
<rect width="616" height="616" fill="white"/>
</clipPath>
</defs>
</svg>
