<svg width="596" height="596" viewBox="0 0 596 596" fill="none" xmlns="http://www.w3.org/2000/svg">
<path d="M574.196 370.259C580.189 347.238 583.388 323.091 583.388 298.194C583.388 140.686 455.702 13 298.194 13C140.686 13 13 140.686 13 298.194C13 455.702 140.686 583.388 298.194 583.388C369.782 583.388 435.203 557.008 485.282 513.444L574.196 370.259Z" fill="#0F893B" fill-opacity="0.8"/>
<path d="M226.129 574.196C249.15 580.189 273.297 583.388 298.194 583.388C455.702 583.388 583.388 455.702 583.388 298.194C583.388 140.686 455.702 13 298.194 13C140.686 13 13 140.686 13 298.194C13 369.782 39.38 435.203 82.9439 485.282L226.129 574.196Z" fill="#3FA162"/>
<path d="M293.794 433.742L297.488 466.972H465.751L452.635 399.972C447.701 374.768 455.932 348.796 474.445 330.995C514.451 292.532 515.954 248.558 516.371 232.908C518.535 151.756 458.46 97.7623 377.308 95.5975C302.738 93.6094 249.187 122.775 232.161 194.249C230.546 201.03 230.594 208.105 232.206 214.887L233.46 220.161C234.975 226.531 233.412 233.243 229.241 238.289L195.008 280.941C190.16 286.804 192.932 295.715 200.25 297.795L225.505 304.969C229.886 306.214 231.247 311.754 227.942 314.887L219.441 322.947C217.437 324.846 217.712 328.113 220.003 329.652L230.936 338.638C233.617 340.841 233.968 344.795 231.746 347.461C230.532 348.918 221.33 357.344 221.33 357.344C218.583 359.315 219.041 363.532 222.148 364.868L234.007 370.798L221.402 396.008C216.267 410.235 227.885 424.898 242.91 423.15L275.687 419.337C284.673 418.291 292.794 424.753 293.794 433.742Z" fill="#FFD987"/>
<path d="M377.306 95.5985C366.965 95.3225 357.03 95.6486 347.539 96.6013C421.022 104.596 473.719 156.812 471.69 232.909C471.273 248.559 469.77 292.532 429.764 330.996C411.25 348.796 403.019 374.769 407.954 399.973L421.07 466.973H465.748L452.632 399.973C447.697 374.769 455.928 348.797 474.442 330.996C514.448 292.533 515.95 248.559 516.368 232.909C518.533 151.757 458.457 97.7624 377.306 95.5985Z" fill="#FFCC5D"/>
<path d="M466.509 500.497C475.306 500.497 482.31 493.13 481.866 484.345L480.606 459.373C480.165 453.125 474.741 448.416 468.493 448.858L293.457 461.223C284.072 461.886 275.47 466.691 269.982 474.334L254.833 495.019C253.168 497.294 254.792 500.496 257.611 500.496H466.509V500.497Z" fill="#0F893B"/>
<path d="M121.436 273.636C124.01 271.06 124.01 266.887 121.436 264.313C118.862 261.74 114.688 261.74 112.114 264.313C59.9594 316.47 59.9594 401.333 112.114 453.488C113.401 454.775 115.089 455.418 116.775 455.418C118.462 455.418 120.149 454.775 121.436 453.488C124.01 450.913 124.01 446.74 121.436 444.166C74.4211 397.151 74.4211 320.652 121.436 273.636Z" fill="white"/>
<path d="M123.644 358.901C123.644 336.677 132.273 315.809 147.941 300.141C150.516 297.566 150.516 293.393 147.941 290.819C145.368 288.245 141.194 288.245 138.62 290.819C120.461 308.977 110.461 333.156 110.461 358.902C110.461 384.647 120.461 408.826 138.62 426.986C139.906 428.272 141.594 428.916 143.281 428.916C144.967 428.916 146.655 428.272 147.941 426.986C150.516 424.41 150.516 420.237 147.941 417.663C132.273 401.993 123.644 381.125 123.644 358.901Z" fill="white"/>
<path d="M174.445 317.321C171.871 314.748 167.697 314.748 165.124 317.321C142.198 340.248 142.198 377.552 165.124 400.479C166.41 401.765 168.098 402.409 169.785 402.409C171.471 402.409 173.159 401.765 174.445 400.479C177.02 397.903 177.02 393.73 174.445 391.156C156.66 373.37 156.66 344.431 174.445 326.645C177.02 324.07 177.02 319.897 174.445 317.321Z" fill="white"/>
</svg>
