<svg width="596" height="596" viewBox="0 0 596 596" fill="none" xmlns="http://www.w3.org/2000/svg">
<g clip-path="url(#clip0_51_9878)">
<path d="M574.002 357.259C579.995 334.238 583.194 310.091 583.194 285.194C583.194 127.686 455.508 0 298 0C140.492 0 12.8058 127.686 12.8058 285.194C12.8058 442.702 140.492 570.388 298 570.388C369.587 570.388 435.009 544.008 485.088 500.444L574.002 357.259Z" fill="#0F893B" fill-opacity="0.8"/>
<path d="M104.958 541.68C113.647 543.51 122.199 546.7 130.297 551.375C138.395 556.051 145.433 561.86 151.363 568.472L197.274 535.447C201.417 533.202 204.856 529.853 207.211 525.773L208.302 523.884C208.161 523.806 208.016 523.747 207.876 523.666C199.829 519.021 195.102 510.848 194.504 502.229C194.383 500.478 193.402 499.056 192.062 498.202C190.587 497.262 188.677 497.014 186.94 497.863C169.797 506.237 149.639 494.622 148.318 475.564C148.184 473.636 147.014 472.105 145.462 471.297C144.054 470.565 142.331 470.426 140.754 471.196C132.991 474.988 123.55 474.981 115.503 470.334C115.363 470.253 115.239 470.157 115.101 470.074L114.011 471.963C111.655 476.043 110.475 480.696 110.602 485.406L104.958 541.68Z" fill="#FCF9EB"/>
<path d="M165.233 499.727L165.299 498.727C156.157 495.114 149.081 486.59 148.318 475.564C148.184 473.636 147.014 472.105 145.462 471.297C144.053 470.565 142.331 470.426 140.754 471.196C132.991 474.988 123.55 474.981 115.503 470.334C115.363 470.253 115.239 470.157 115.101 470.074L114.011 471.963C111.655 476.043 110.475 480.696 110.602 485.406L104.957 541.679C113.464 543.469 121.833 546.574 129.779 551.089C131.653 541 134.271 527.821 137.294 515.15C143.407 489.542 165.233 499.727 165.233 499.727Z" fill="#FCECA9"/>
<path d="M347.968 64.9593L441.17 118.769C441.357 118.876 441.525 119.002 441.706 119.115L458.602 89.8504C473.637 63.8092 464.715 30.5112 438.673 15.4762C412.632 0.441123 379.334 9.36366 364.299 35.4049L347.404 64.6694C347.589 64.7684 347.782 64.8522 347.968 64.9593Z" fill="#FF4155"/>
<path d="M308.385 260.573L219.951 267.782C219.951 267.782 207.025 294.569 177.763 352.603C148.501 410.636 200.2 460.346 200.2 460.346C229.512 494.425 253.896 516.569 271.934 506.352C288.838 496.778 283.036 477.581 283.036 477.581C279.778 467.046 274.088 454.97 267.405 442.798L278.162 366.638C278.162 366.638 337.669 379.263 373.876 372.35C410.084 365.436 398.282 336.424 398.282 336.424C391.007 262.886 308.385 260.573 308.385 260.573Z" fill="#FD995B"/>
<path d="M382.183 328.937C345.976 335.851 286.469 323.225 286.469 323.225L280.277 367.067C291.161 369.215 341.712 378.494 373.878 372.351C410.085 365.438 398.284 336.426 398.284 336.426C397.852 332.056 397.146 327.945 396.214 324.063C392.616 326.119 388.034 327.819 382.183 328.937Z" fill="#F48345"/>
<path d="M224.727 436.421C224.727 436.421 173.029 386.71 202.29 328.678C216.179 301.133 226.381 280.639 233.273 266.696L219.95 267.782C219.95 267.782 207.024 294.57 177.762 352.603C148.499 410.636 200.199 460.346 200.199 460.346C229.511 494.425 253.895 516.569 271.933 506.352C282.197 500.539 284.085 491.183 283.988 484.726C267.733 482.585 247.752 463.191 224.727 436.421Z" fill="#F48345"/>
<path d="M574.79 354.115L533.951 326.371C530.356 323.928 527.277 320.81 524.841 317.211C495.419 273.757 458.423 223.668 417.368 188.158C409.224 181.113 399.526 176.121 389.09 173.466C368.796 168.302 332.647 160.422 316.442 165.042C270.511 178.139 204.826 175.971 182.759 208.456C150.594 255.804 103.628 385.376 129.88 403.21C134.737 406.509 140.803 407.319 148.094 403.005L164.566 388.37C187.955 362.502 212.206 307.906 221.121 286.726C223.452 281.185 228.588 277.341 234.564 276.694C249.656 275.061 272.537 274.444 287.716 272.623C326.645 267.953 363.604 283.803 381.851 318.866C386.045 326.926 389.888 334.065 390.954 339.722C390.954 339.722 396.793 361.455 379.751 364.71L319.991 367.816C313.77 366.511 214.962 335.312 181.369 375.617C180.005 377.268 178.631 379.419 178.71 379.302C174.938 385.359 172.948 393.533 176.005 399.812C178.798 405.807 184.882 406.494 235.832 428.589C258.094 438.186 280.948 448.598 292.368 456.357C311.404 469.288 388.476 472.95 423.536 473.957C435.104 474.289 446.333 477.911 455.906 484.414L482.61 502.555C527.352 464.519 560.193 412.924 574.79 354.115Z" fill="#F9BA8F"/>
<path d="M514.971 470.268L481.134 447.282C471.561 440.778 460.331 437.156 448.764 436.824C413.703 435.817 336.632 432.155 317.596 419.223C290.533 400.838 208.472 371.618 202.675 364.934C201.717 363.785 201.231 362.693 200.931 361.964C183.836 369.022 178.633 379.416 178.713 379.299C173.5 387.67 172.476 399.611 179.819 404.095C191.857 411.49 267.236 439.281 292.371 456.356C311.406 469.287 388.478 472.949 423.538 473.956C435.107 474.288 446.335 477.911 455.909 484.414L482.612 502.555C494.239 492.671 505.062 481.873 514.971 470.268Z" fill="#FCAD6D"/>
<path d="M148.096 403.005L164.566 388.368C185.958 364.711 208.747 316.127 221.121 286.726C221.122 286.723 221.124 286.72 221.125 286.717C225.119 277.267 234.789 276.622 234.626 276.688C241.622 275.933 251.315 275.331 258.445 274.893C258.48 274.891 258.514 274.89 258.549 274.888C268.888 274.251 279.446 273.616 287.717 272.623C327.028 267.908 363.012 284.085 381.164 317.617L381.186 317.58C385.063 325.063 389.807 333.637 390.955 339.722C392.466 346.78 392.743 355.005 387.933 360.361L387.932 360.364C387.932 360.364 430.936 344.952 416.181 302.59C414.767 295.093 408.671 285.484 403.752 274.938C388.493 242.24 353.584 223.389 317.748 227.601L215.177 239.655C207.54 240.479 200.956 245.375 197.977 252.455C152.046 361.587 122.475 384.923 122.385 385.056C122.386 385.06 122.385 385.066 122.386 385.071C122.39 385.12 122.395 385.165 122.399 385.213C122.884 391.679 124.541 399.581 129.883 403.21C133.07 405.375 136.781 406.456 141.015 405.733C143.231 405.353 145.589 404.487 148.096 403.005Z" fill="#FCAD6D"/>
<path d="M114.543 471.998C122.851 476.795 132.964 477.14 141.599 472.923C142.523 472.472 143.565 472.5 144.502 472.961L338.597 135L315.297 121.547L114.139 471.743C114.276 471.826 114.403 471.918 114.543 471.998Z" fill="#FFB332"/>
<path d="M114.543 471.998C122.851 476.795 132.965 477.14 141.599 472.923C142.523 472.472 143.565 472.5 144.502 472.961L235.836 313.929C234.672 313.537 233.406 313.452 232.159 313.758C217.784 317.289 213.567 308.423 212.368 303.939C212.195 303.291 211.911 302.688 211.571 302.122L114.139 471.741C114.276 471.826 114.403 471.918 114.543 471.998Z" fill="#FF9100"/>
<path d="M144.723 473.058C145.714 473.629 146.324 474.592 146.402 475.696C147.067 485.283 152.422 493.869 160.73 498.666C169.038 503.462 179.152 503.807 187.787 499.59C188.782 499.105 189.92 499.152 190.911 499.724C190.982 499.765 191.037 499.823 191.104 499.867L385.199 161.906L338.598 135.001L144.502 472.962C144.574 472.997 144.651 473.016 144.723 473.058Z" fill="#FFDD40"/>
<path d="M287.418 324.961C257.333 334.285 244.036 322.895 239.153 316.336C238.299 315.19 237.131 314.368 235.834 313.93L144.501 472.962C144.574 472.998 144.65 473.016 144.722 473.058C145.713 473.629 146.323 474.592 146.401 475.696C147.065 485.283 152.421 493.869 160.729 498.666C169.037 503.462 179.15 503.807 187.784 499.59C188.78 499.105 189.918 499.152 190.909 499.724C190.981 499.765 191.034 499.823 191.102 499.867L291.536 324.99C290.23 324.565 288.793 324.535 287.418 324.961Z" fill="#FFB332"/>
<path d="M192.587 502.362C193.252 511.948 198.608 520.534 206.916 525.331C207.055 525.411 207.2 525.474 207.339 525.552L408.497 175.358L385.198 161.905L191.103 499.866C191.97 500.448 192.516 501.336 192.587 502.362Z" fill="#FFB332"/>
<path d="M312.988 332.09C303.092 335.291 297.569 330.99 294.827 327.337C293.978 326.206 292.82 325.407 291.536 324.99L191.102 499.867C191.969 500.449 192.515 501.337 192.587 502.363C193.252 511.949 198.608 520.535 206.916 525.332C207.055 525.412 207.2 525.475 207.34 525.553L318.248 332.475C316.686 331.696 314.815 331.498 312.988 332.09Z" fill="#FF9100"/>
<path d="M131.259 549.71C122.91 544.891 114.1 541.611 105.152 539.742L100.579 585.336C99.6181 593.638 109.037 599.075 115.746 594.093L152.945 567.335C146.85 560.521 139.606 554.53 131.259 549.71Z" fill="#5F5F9B"/>
<path d="M126.727 568.472C126.727 568.472 128.014 560.472 130.152 549.101C122.131 544.622 113.707 541.53 105.151 539.742L100.577 585.336C99.617 593.638 109.035 599.075 115.745 594.093L132.597 581.971C124.178 578.133 126.727 568.472 126.727 568.472Z" fill="#47477F"/>
<path d="M319.993 367.815C313.771 366.51 214.963 335.311 181.371 375.616C180.007 377.267 178.634 379.418 178.713 379.3C174.94 385.358 172.951 393.532 176.007 399.812C178.8 405.806 184.885 406.494 235.834 428.589C297.116 455.006 287.048 455.272 300.1 460.089L364.352 365.51L319.993 367.815Z" fill="#F9BA8F"/>
<path d="M325.326 422.956C322.208 421.805 319.575 420.568 317.597 419.224C290.534 400.839 208.473 371.619 202.676 364.935C201.718 363.786 201.231 362.694 200.932 361.965C185.342 368.401 172.214 381.693 174.838 396.272C176.681 405.58 179.182 404.054 234.695 428.096C298.814 455.56 285.654 454.754 300.091 460.085C300.094 460.086 300.096 460.088 300.096 460.088L325.326 422.956Z" fill="#FCAD6D"/>
<path d="M361.165 212.969C359.561 212.969 357.938 212.56 356.449 211.701L309.847 184.796C305.327 182.186 303.777 176.407 306.387 171.885C308.996 167.364 314.775 165.815 319.298 168.426L365.9 195.331C370.42 197.941 371.969 203.72 369.359 208.241C367.61 211.273 364.432 212.969 361.165 212.969Z" fill="#FCECA9"/>
<path d="M407.857 176.467L314.655 122.657C306.382 117.881 303.548 107.302 308.324 99.0291C313.1 90.7561 323.679 87.9216 331.952 92.6977L425.154 146.508C433.427 151.284 436.262 161.863 431.485 170.136C426.708 178.41 416.13 181.244 407.857 176.467Z" fill="#D3DCFB"/>
<path d="M347.515 124.451C350.237 119.116 355.16 115.744 360.556 114.783C362.43 114.449 363.806 113.053 364.276 111.362L331.952 92.7001C323.679 87.9239 313.101 90.7584 308.324 99.0314C303.548 107.304 306.382 117.882 314.655 122.66L348.322 142.097C345.149 136.848 344.572 130.218 347.515 124.451Z" fill="#BEC8F7"/>
<path d="M424.513 147.618L331.312 93.8083C323.039 89.0322 320.204 78.4532 324.981 70.1802C329.757 61.9072 340.336 59.0727 348.609 63.8489L441.811 117.659C450.084 122.435 452.918 133.014 448.142 141.287C443.365 149.56 432.787 152.394 424.513 147.618Z" fill="#E9EFFF"/>
<path d="M364.184 108.499C362.318 103.345 362.777 97.3959 366.036 92.3707C370.057 86.1709 377.343 83.3631 384.318 84.4667L348.609 63.85C340.336 59.0738 329.758 61.9083 324.981 70.1813C320.204 78.4543 323.039 89.0321 331.312 93.8094L363.774 112.552C364.482 111.375 364.694 109.905 364.184 108.499Z" fill="#D3DCFB"/>
<path d="M429.48 70.8286C441.068 70.8286 450.462 61.4345 450.462 49.8464C450.462 38.2582 441.068 28.8641 429.48 28.8641C417.891 28.8641 408.497 38.2582 408.497 49.8464C408.497 61.4345 417.891 70.8286 429.48 70.8286Z" fill="#FF7186"/>
</g>
<defs>
<clipPath id="clip0_51_9878">
<rect width="596" height="596" fill="white"/>
</clipPath>
</defs>
</svg>
