<svg width="1045" height="215" viewBox="0 0 1045 215" fill="none" xmlns="http://www.w3.org/2000/svg">
<path d="M126.6 169.52C127.378 169.458 128.161 169.559 128.898 169.817C129.635 170.076 130.31 170.485 130.88 171.02C136.39 176.27 141.64 181.79 147.11 187.09C149.51 189.42 152.2 191.45 155.49 194.21C157.49 193.117 159.49 191.947 161.49 190.7C166.01 187.83 171.04 185.42 174.07 180.62C171.98 180.62 170.29 181.95 168.07 181.98C165.616 182.058 163.172 181.628 160.892 180.718C158.612 179.808 156.545 178.436 154.82 176.69C150.21 172.25 145.71 167.69 141.17 163.2" fill="#EEC31A"/>
<path d="M155.73 194.41C148.73 196.89 142.07 199.99 135.05 201.54C127.078 203.316 118.947 204.284 110.78 204.43C92.7803 204.69 76.1503 199.72 60.7303 190.27C44.7556 180.543 31.9851 166.343 24.0003 149.43C16.2203 133.37 13.7303 116.33 15.3703 98.76C16.3333 88.1873 19.178 77.8718 23.7703 68.3C28.0003 59.4 32.9403 51.14 39.5903 44C47.0003 36 58.4503 36.54 65.1403 44.91C70.2303 51.28 69.5603 60.36 64.1403 66.44C54.7614 76.7989 49.2013 90.0501 48.3803 104C47.1403 122.24 53.0003 138.06 65.1103 151.38C72.5094 159.44 81.9486 165.352 92.4303 168.49C103.516 171.933 115.332 172.279 126.6 169.49C127.379 169.428 128.162 169.529 128.899 169.787C129.636 170.046 130.311 170.455 130.88 170.99C136.39 176.24 141.64 181.76 147.11 187.06C149.57 189.48 152.33 191.55 155.73 194.41Z" fill="#FCB415"/>
<path d="M167.2 141.06C175.65 132.55 183.27 124.82 190.94 117.15C208.94 99.15 226.94 81.24 244.88 63.21C250.02 58.04 256.05 55.94 262.93 58.11C275.76 62.17 279.12 77.37 269.51 87.02C257.66 98.92 245.74 110.74 233.86 122.61C216.29 140.16 198.5 157.51 181.24 175.37C172.66 184.26 160.99 182.95 153.76 175.37C139.49 160.49 124.76 146.05 110.17 131.47C103 124.3 102.68 113.66 109.52 106.82C116.36 99.98 126.94 99.94 134.19 107.09C144.243 117.023 154.243 127.023 164.19 137.09C165.27 138.354 166.275 139.679 167.2 141.06Z" fill="#138944"/>
<path d="M109.11 11.7C128.53 11.84 144.54 15.97 159.29 24.56C170.02 30.7999 171.13 44.7 161.7 52.56C156.39 57 149.21 57.75 142.51 54C131.226 47.5764 118.238 44.7832 105.31 46C101.98 46.29 98.6804 47 95.3704 47.65C86.3704 49.33 77.7204 44.12 75.5804 35.65C73.2204 26.3 78.0004 17.55 87.2004 14.82C90.3126 13.8899 93.497 13.2209 96.7204 12.82C101.61 12.18 106.54 11.91 109.11 11.7Z" fill="#FCB415"/>
<path d="M201 75.44C201.011 79.9724 199.23 84.3254 196.046 87.5507C192.862 90.7761 188.532 92.6126 184 92.66C174.23 92.7401 166 84.33 166.05 74.26C166.055 71.9882 166.508 69.7396 167.382 67.6427C168.256 65.5457 169.535 63.6415 171.145 62.0388C172.756 60.4361 174.666 59.1662 176.767 58.3016C178.867 57.4371 181.118 56.9948 183.39 57C192.86 57.05 201 65.57 201 75.44Z" fill="#FCB415"/>
<path d="M348 56.82L350.22 86.19C350.38 86.9971 350.234 87.8348 349.81 88.54C349.134 89.0113 348.307 89.2145 347.49 89.11H346.49C345.654 89.2072 344.811 89.0053 344.11 88.54C343.606 87.8625 343.349 87.0336 343.38 86.19L341.38 56.88C341.396 55.9388 341.191 55.007 340.78 54.16C340.592 53.9148 340.345 53.7217 340.061 53.5992C339.778 53.4767 339.467 53.4287 339.16 53.46C338.869 53.4371 338.577 53.4928 338.315 53.6212C338.053 53.7496 337.83 53.9461 337.67 54.19C337.249 55.0287 337.001 55.9435 336.94 56.88L333.51 82.38C333.18 84.96 332.51 86.73 331.51 87.68C330.51 88.63 328.83 89.11 326.51 89.11C324.74 89.2443 322.985 88.7009 321.6 87.59C320.52 86.59 319.81 84.84 319.47 82.38L316 56.88C315.938 55.9495 315.679 55.0428 315.24 54.22C315.075 53.9718 314.848 53.7711 314.581 53.6378C314.314 53.5045 314.018 53.4432 313.72 53.46C312.447 53.46 311.727 54.6 311.56 56.88L309.56 86.19C309.614 87.0224 309.365 87.8463 308.86 88.51C308.15 88.9911 307.292 89.2037 306.44 89.11H305.49C304.676 89.2148 303.852 89.0115 303.18 88.54C302.747 87.8384 302.6 86.9969 302.77 86.19L304.93 56.82C305.183 53.52 305.993 51.14 307.36 49.68C308.727 48.22 310.81 47.4933 313.61 47.5C316.24 47.5 318.21 48.21 319.51 49.65C320.81 51.09 321.69 53.48 322.12 56.82L325.12 81.31C325.165 81.9541 325.317 82.5861 325.57 83.18C325.68 83.337 325.833 83.459 326.01 83.5317C326.187 83.6044 326.382 83.6246 326.57 83.59C326.741 83.6038 326.913 83.5733 327.069 83.5015C327.225 83.4297 327.359 83.319 327.46 83.18C327.713 82.5861 327.865 81.9541 327.91 81.31L330.91 56.82C331.33 53.52 332.207 51.14 333.54 49.68C334.307 48.9194 335.227 48.3315 336.239 47.9555C337.252 47.5796 338.333 47.4242 339.41 47.5C342.24 47.5 344.33 48.21 345.69 49.65C347.05 51.09 347.73 53.48 348 56.82Z" fill="#FCB415"/>
<path d="M361.75 60.5L366.75 80.93C366.897 81.8439 367.295 82.699 367.9 83.4C368.558 83.8811 369.369 84.1052 370.18 84.03C370.527 84.0488 370.874 83.9974 371.2 83.8788C371.527 83.7602 371.826 83.577 372.08 83.34C372.655 82.6512 373.028 81.8173 373.16 80.93L377.92 60.5C378.031 59.6452 378.409 58.8472 379 58.22C379.74 57.7672 380.607 57.5672 381.47 57.65H382.3C383.48 57.65 384.22 57.84 384.52 58.22C384.82 58.6 384.82 59.36 384.52 60.5L377.67 89.11C376.61 93.55 374.99 96.8833 372.81 99.11C370.47 101.427 367.375 102.826 364.09 103.05C363.44 103.164 362.77 103.024 362.22 102.66C361.664 102.13 361.31 101.423 361.22 100.66L361.02 99.83C360.908 99.5411 360.857 99.2323 360.869 98.9227C360.881 98.6132 360.956 98.3094 361.09 98.03C361.541 97.5705 362.156 97.3081 362.8 97.3C364.741 97.1328 366.571 96.3235 368 95C369.465 93.3529 370.496 91.3662 371 89.22C370.072 89.5854 369.075 89.7391 368.08 89.67C367.183 89.7418 366.281 89.623 365.433 89.3214C364.585 89.0198 363.81 88.5422 363.16 87.92C362.08 86.76 361.16 84.6367 360.4 81.55L355.07 60.55C354.783 59.41 354.783 58.65 355.07 58.27C355.357 57.89 356.097 57.7 357.29 57.7H358.12C358.983 57.6172 359.85 57.8172 360.59 58.27C361.191 58.8808 361.595 59.6575 361.75 60.5Z" fill="#FCB415"/>
<path d="M404.32 59.23L403.75 58.66C403.143 58.2152 402.725 57.5584 402.58 56.82C402.678 56.0597 403.031 55.3549 403.58 54.82L406.58 51.21C408.78 48.63 411.233 47.34 413.94 47.34C416.353 47.34 418.12 48.0067 419.24 49.34C420.36 50.7 420.92 52.83 420.92 55.75V86.19C421.024 87.0182 420.818 87.8556 420.34 88.54C419.656 89.0092 418.823 89.2119 418 89.11H417.18C416.353 89.2116 415.518 89.009 414.83 88.54C414.361 87.8519 414.158 87.0166 414.26 86.19V58C414.309 56.7402 414.246 55.4785 414.07 54.23C413.94 53.78 413.58 53.56 412.99 53.56C412.4 53.56 411.59 54.26 410.45 55.66L407.87 59C407.2 59.84 406.62 60.28 406.16 60.3C405.436 60.1802 404.782 59.7996 404.32 59.23Z" fill="#FCB415"/>
<path d="M429 58.28L428.8 58.22C428.527 58.129 428.296 57.9447 428.146 57.6996C427.996 57.4544 427.937 57.1642 427.98 56.88C427.98 55.19 428.04 53.5 428.17 51.81C428.59 45.3433 430.07 42.1067 432.61 42.1C433.006 42.0811 433.401 42.1544 433.763 42.3141C434.126 42.4737 434.447 42.7154 434.7 43.02C435.234 43.7177 435.504 44.5823 435.46 45.46C435.284 47.4709 434.68 49.4209 433.69 51.18C432.746 53.3377 431.664 55.4321 430.45 57.45C430 58.18 429.5 58.45 429 58.28Z" fill="#FCB415"/>
<path d="M438.57 85.62V84.8C438.474 84.0529 438.652 83.2964 439.07 82.67C439.41 82.35 440.07 82.32 441.07 82.57C444.088 83.3871 447.203 83.794 450.33 83.78C451.874 83.8716 453.422 83.668 454.89 83.18C455.308 83.0104 455.661 82.7131 455.9 82.3306C456.139 81.9481 456.251 81.4999 456.22 81.05C456.24 80.6768 456.176 80.3038 456.034 79.958C455.893 79.6122 455.676 79.3021 455.4 79.05C454.416 78.2868 453.328 77.6673 452.17 77.21L445.31 74.21C443.435 73.4899 441.768 72.3146 440.46 70.79C439.431 69.2541 438.93 67.4257 439.03 65.58C439.03 62.58 440.03 60.45 441.95 59.05C443.87 57.65 446.95 56.96 451.15 56.96C453.635 56.9393 456.112 57.2589 458.51 57.91C459.336 58.0729 460.104 58.4486 460.74 59C461.117 59.6281 461.282 60.3609 461.21 61.09V61.85C461.317 62.6034 461.123 63.3688 460.67 63.98C460.32 64.29 459.67 64.31 458.62 63.98C456.161 63.2836 453.615 62.9468 451.06 62.98C449.597 62.8878 448.13 63.0954 446.75 63.59C446.357 63.7509 446.024 64.0297 445.797 64.388C445.569 64.7462 445.459 65.1662 445.48 65.59C445.46 65.9191 445.507 66.2489 445.617 66.5597C445.727 66.8706 445.898 67.1563 446.12 67.4C446.809 68.0173 447.605 68.5021 448.47 68.83L455.82 72C457.841 72.7121 459.642 73.9351 461.05 75.55C462.157 77.1258 462.706 79.0264 462.61 80.95C462.61 83.95 461.61 86.23 459.54 87.67C457.47 89.11 454.24 89.83 449.8 89.83C446.869 89.8388 443.949 89.4759 441.11 88.75C440.343 88.6083 439.628 88.2629 439.04 87.75C438.656 87.11 438.491 86.3622 438.57 85.62Z" fill="#FCB415"/>
<path d="M466.29 61.51V60.88C466.223 60.2331 466.382 59.5831 466.74 59.04C467.214 58.6108 467.814 58.3445 468.45 58.28L471.81 57.65L472.58 51.65C472.597 50.9766 472.84 50.3285 473.27 49.81C473.837 49.4558 474.505 49.301 475.17 49.37H476C476.646 49.2936 477.298 49.4495 477.84 49.81C478.201 50.3516 478.356 51.0039 478.28 51.65V57.65H487.16C487.906 57.5672 488.659 57.7437 489.29 58.15C489.735 58.7766 489.928 59.5477 489.83 60.31V61.07C489.928 61.8323 489.735 62.6033 489.29 63.23C488.66 63.641 487.907 63.8179 487.16 63.73H478.28V78.13C478.28 81.82 479.93 83.65 483.28 83.65C485.01 83.6697 486.736 83.4783 488.42 83.08C489.48 82.87 490.17 82.91 490.51 83.21C490.935 83.8183 491.11 84.5663 491 85.3V86.06C491.071 86.8386 490.893 87.6197 490.49 88.29C489.914 88.8244 489.181 89.1578 488.4 89.24C486.704 89.5529 484.984 89.7201 483.26 89.74C475.647 89.74 471.84 85.85 471.84 78.07V63.73H468.54C468.232 63.8235 467.904 63.8316 467.591 63.7533C467.278 63.6749 466.993 63.5132 466.765 63.2853C466.537 63.0574 466.375 62.7718 466.297 62.4592C466.218 62.1465 466.226 61.8184 466.32 61.51H466.29Z" fill="#FCB415"/>
<path d="M512.47 81.88V50.79C512.37 49.9667 512.573 49.1351 513.04 48.45C513.729 47.9827 514.564 47.7803 515.39 47.88H516.21C517.037 47.7784 517.872 47.981 518.56 48.45C519.027 49.1351 519.23 49.9667 519.13 50.79V80.42C519.087 80.7528 519.122 81.0912 519.233 81.408C519.343 81.7249 519.526 82.0117 519.767 82.2456C520.008 82.4795 520.299 82.6541 520.619 82.7556C520.939 82.857 521.278 82.8825 521.61 82.83H535.12C535.518 82.7008 535.944 82.6835 536.351 82.7802C536.758 82.8768 537.131 83.0836 537.428 83.3779C537.725 83.6722 537.936 84.0426 538.037 84.4487C538.138 84.8547 538.125 85.2807 538 85.68V86.25C538.121 86.6464 538.132 87.0682 538.031 87.4703C537.931 87.8724 537.724 88.2398 537.431 88.5334C537.139 88.8269 536.772 89.0356 536.37 89.1371C535.969 89.2387 535.547 89.2293 535.15 89.11H519.7C517.16 89.11 515.33 88.54 514.19 87.4C513.05 86.26 512.47 84.42 512.47 81.88Z" fill="#FCB415"/>
<path d="M567.79 67.35V79.66C567.79 83.1733 566.71 85.74 564.55 87.36C562.39 88.98 558.967 89.7967 554.28 89.81C545.693 89.81 541.4 86.5533 541.4 80.04C541.4 76.7067 542.467 74.2833 544.6 72.77C546.733 71.2567 549.98 70.4867 554.34 70.46H561.34V67.35C561.416 66.6264 561.293 65.8958 560.985 65.2367C560.677 64.5777 560.194 64.0153 559.59 63.61C558.43 62.89 556.517 62.53 553.85 62.53C551.617 62.5032 549.386 62.6941 547.19 63.1C546.26 63.27 545.64 63.22 545.32 62.94C545 62.66 544.85 62.05 544.85 61.07V60.18C544.778 59.5016 544.944 58.8193 545.32 58.25C545.824 57.8 546.458 57.5201 547.13 57.45C549.228 57.1292 551.347 56.9621 553.47 56.95C558.297 56.95 561.893 57.7733 564.26 59.42C566.6 61.07 567.79 63.71 567.79 67.35ZM561.32 79.35V75.41H554.32C552.641 75.2773 550.959 75.6241 549.47 76.41C548.934 76.8035 548.509 77.3288 548.235 77.935C547.962 78.5412 547.85 79.2078 547.91 79.87C547.851 80.5148 547.96 81.1639 548.229 81.7532C548.497 82.3425 548.915 82.8516 549.44 83.23C550.876 84.0044 552.503 84.3515 554.13 84.23C556.71 84.23 558.55 83.87 559.65 83.15C560.75 82.43 561.307 81.16 561.32 79.34V79.35Z" fill="#FCB415"/>
<path d="M580.54 69.25V86.25C580.658 86.6471 580.667 87.0688 580.565 87.4704C580.463 87.872 580.255 88.2387 579.962 88.5317C579.669 88.8247 579.302 89.033 578.9 89.1348C578.499 89.2366 578.077 89.2281 577.68 89.11H576.86C576.463 89.2317 576.039 89.2429 575.636 89.1424C575.233 89.0419 574.864 88.8335 574.57 88.5396C574.277 88.2456 574.068 87.8773 573.968 87.4739C573.867 87.0706 573.878 86.6475 574 86.25V69.25C574 61.0833 578.61 57 587.83 57C592.57 57 596.04 58 598.27 60C600.5 62 601.6 65.11 601.6 69.29V86.29C601.718 86.6871 601.727 87.1088 601.625 87.5104C601.523 87.9121 601.315 88.2787 601.022 88.5717C600.729 88.8647 600.362 89.073 599.96 89.1748C599.559 89.2766 599.137 89.2681 598.74 89.15H597.92C597.523 89.2717 597.099 89.2829 596.696 89.1824C596.293 89.0819 595.924 88.8735 595.63 88.5796C595.337 88.2856 595.128 87.9173 595.028 87.5139C594.927 87.1106 594.938 86.6875 595.06 86.29V69.29C595.06 67.01 594.533 65.4033 593.48 64.47C592.42 63.54 590.48 63.08 587.83 63.08C585.18 63.08 583.18 63.54 582.12 64.47C581.06 65.4 580.54 67 580.54 69.25Z" fill="#FCB415"/>
<path d="M635.28 68.18V68.75C635.28 76.3567 630.733 80.1634 621.64 80.17C619.665 80.0819 617.687 80.2093 615.74 80.55C615.357 80.6153 615.011 80.8177 614.766 81.1195C614.521 81.4213 614.395 81.8018 614.41 82.19C614.41 82.91 614.88 83.4 615.8 83.65C617.728 83.981 619.685 84.1084 621.64 84.03C627.1 84.03 630.883 84.6967 632.99 86.03C635.07 87.35 636.11 89.69 636.11 93.03C636.11 96.63 635.05 99.17 632.93 100.65C630.81 102.13 627.047 102.87 621.64 102.87C616.06 102.87 612.213 102.17 610.1 100.77C608 99.45 607 97.27 607 94.31C606.923 93.0368 607.195 91.7668 607.787 90.6371C608.38 89.5074 609.269 88.561 610.36 87.9C609.588 87.4545 608.954 86.8039 608.528 86.0202C608.103 85.2366 607.903 84.3504 607.95 83.46C607.95 80.6334 609.617 78.8167 612.95 78.01C609.517 76.3567 607.803 73.27 607.81 68.75V68.18C607.725 66.6101 608.011 65.0422 608.645 63.6036C609.279 62.1649 610.244 60.8961 611.46 59.9C613.887 57.9 617.28 56.9167 621.64 56.95C623.684 56.9135 625.718 57.2524 627.64 57.95L631.25 54.84C631.721 54.3094 632.36 53.9564 633.06 53.84C633.745 53.9432 634.366 54.3002 634.8 54.84L635.38 55.41C635.897 55.8504 636.25 56.4532 636.38 57.12C636.338 57.458 636.228 57.7839 636.056 58.0779C635.884 58.3718 635.654 58.6277 635.38 58.83L632.78 61.63C633.628 62.489 634.288 63.5148 634.718 64.6424C635.148 65.7699 635.34 66.9746 635.28 68.18ZM621.64 89.62C619.713 89.664 617.785 89.5771 615.87 89.36C614.297 90.0267 613.513 91.38 613.52 93.42C613.44 94.059 613.555 94.7072 613.849 95.2799C614.144 95.8525 614.604 96.3231 615.17 96.63C616.27 97.15 618.42 97.42 621.64 97.42C624.86 97.42 626.82 97.14 627.92 96.59C629.02 96.04 629.57 94.95 629.57 93.3C629.57 91.65 629.04 90.67 627.99 90.3C626.94 89.93 624.86 89.62 621.64 89.62ZM628.75 68.75V68.18C628.808 67.4012 628.687 66.6195 628.395 65.8949C628.104 65.1703 627.651 64.5221 627.07 64C625.95 63.09 624.13 62.63 621.64 62.63C616.78 62.63 614.347 64.4934 614.34 68.22V68.79C614.269 69.5965 614.381 70.4087 614.668 71.1655C614.956 71.9224 615.411 72.6043 616 73.16C617.12 74.06 619 74.52 621.61 74.52C624.22 74.52 626.02 74.06 627.1 73.16C627.687 72.5946 628.139 71.9051 628.425 71.142C628.71 70.3789 628.821 69.5616 628.75 68.75Z" fill="#FCB415"/>
<path d="M647.46 60.5V77.44C647.46 79.72 647.99 81.3267 649.05 82.26C650.11 83.1933 652.01 83.6567 654.75 83.65C657.463 83.65 659.347 83.1867 660.4 82.26C661.453 81.3333 661.987 79.7267 662 77.44V60.5C661.899 59.6955 662.102 58.8823 662.57 58.22C663.234 57.7566 664.046 57.5538 664.85 57.65H665.67C666.477 57.5522 667.293 57.7551 667.96 58.22C668.423 58.8843 668.626 59.6958 668.53 60.5V77.44C668.53 81.62 667.41 84.7267 665.17 86.76C662.92 88.76 659.46 89.76 654.76 89.76C645.54 89.76 640.933 85.6367 640.94 77.39V60.5C640.839 59.6955 641.042 58.8823 641.51 58.22C642.174 57.7566 642.986 57.5538 643.79 57.65H644.61C645.417 57.5522 646.233 57.7551 646.9 58.22C647.36 58.8857 647.559 59.6971 647.46 60.5Z" fill="#FCB415"/>
<path d="M700.05 67.35V79.66C700.05 83.1733 698.97 85.74 696.81 87.36C694.65 88.98 691.223 89.7967 686.53 89.81C677.95 89.81 673.66 86.5533 673.66 80.04C673.66 76.7067 674.727 74.2833 676.86 72.77C678.993 71.2567 682.24 70.4867 686.6 70.46H693.6V67.35C693.676 66.6264 693.553 65.8958 693.245 65.2367C692.937 64.5777 692.454 64.0153 691.85 63.61C690.69 62.89 688.777 62.53 686.11 62.53C683.877 62.5027 681.646 62.6936 679.45 63.1C678.52 63.27 677.9 63.22 677.58 62.94C677.26 62.66 677.1 62.05 677.1 61.07V60.18C677.031 59.5005 677.201 58.8181 677.58 58.25C678.082 57.8019 678.711 57.5221 679.38 57.45C681.482 57.1296 683.604 56.9625 685.73 56.95C690.55 56.95 694.147 57.7733 696.52 59.42C698.86 61.07 700.05 63.71 700.05 67.35ZM693.58 79.35V75.41H686.58C684.898 75.2814 683.214 75.6279 681.72 76.41C681.187 76.806 680.765 77.332 680.494 77.9378C680.222 78.5436 680.111 79.2089 680.17 79.87C680.111 80.5148 680.22 81.1639 680.489 81.7532C680.757 82.3425 681.175 82.8516 681.7 83.23C683.136 84.0044 684.763 84.3515 686.39 84.23C688.97 84.23 690.81 83.87 691.91 83.15C693.01 82.43 693.567 81.16 693.58 79.34V79.35Z" fill="#FCB415"/>
<path d="M733.1 68.18V68.75C733.1 76.3567 728.553 80.1634 719.46 80.17C717.485 80.0819 715.507 80.2093 713.56 80.55C713.177 80.6153 712.831 80.8177 712.586 81.1195C712.341 81.4213 712.215 81.8018 712.23 82.19C712.23 82.91 712.7 83.4 713.62 83.65C715.548 83.981 717.505 84.1084 719.46 84.03C724.907 84.03 728.69 84.6967 730.81 86.03C732.89 87.35 733.93 89.69 733.93 93.03C733.93 96.63 732.86 99.17 730.75 100.65C728.64 102.13 724.87 102.87 719.46 102.87C713.88 102.87 710.033 102.17 707.92 100.77C705.807 99.37 704.767 97.1934 704.8 94.24C704.717 92.9649 704.988 91.6916 705.583 90.5606C706.177 89.4296 707.073 88.4847 708.17 87.83C707.398 87.3845 706.764 86.7339 706.338 85.9502C705.913 85.1666 705.713 84.2804 705.76 83.39C705.76 80.5634 707.427 78.7467 710.76 77.94C707.333 76.2867 705.62 73.2 705.62 68.68V68.11C705.535 66.5401 705.821 64.9722 706.455 63.5336C707.089 62.0949 708.054 60.8261 709.27 59.83C711.703 57.83 715.097 56.8467 719.45 56.88C721.494 56.8435 723.528 57.1824 725.45 57.88L729.06 54.77C729.531 54.2394 730.17 53.8864 730.87 53.77C731.555 53.8732 732.176 54.2302 732.61 54.77L733.19 55.34C733.707 55.7804 734.06 56.3832 734.19 57.05C734.148 57.388 734.038 57.7139 733.866 58.0078C733.694 58.3018 733.464 58.5577 733.19 58.76L730.59 61.56C731.449 62.4262 732.116 63.4631 732.548 64.6035C732.98 65.7439 733.168 66.9623 733.1 68.18ZM719.46 89.62C717.533 89.664 715.605 89.5771 713.69 89.36C712.117 90.0267 711.333 91.38 711.34 93.42C711.261 94.06 711.377 94.709 711.674 95.2818C711.97 95.8546 712.432 96.3245 713 96.63C714.1 97.15 716.25 97.42 719.47 97.42C722.69 97.42 724.65 97.14 725.75 96.59C726.85 96.04 727.4 94.95 727.4 93.3C727.4 91.65 726.87 90.67 725.82 90.3C724.77 89.93 722.67 89.62 719.46 89.62ZM726.57 68.75V68.18C726.626 67.4015 726.503 66.6204 726.212 65.8962C725.921 65.1719 725.469 64.5235 724.89 64C723.77 63.09 721.95 62.63 719.46 62.63C714.6 62.63 712.167 64.4934 712.16 68.22V68.79C712.087 69.6044 712.201 70.4246 712.492 71.1887C712.783 71.9527 713.244 72.6405 713.84 73.2C714.96 74.1 716.84 74.56 719.46 74.56C722.08 74.56 723.87 74.1 724.95 73.2C725.537 72.6275 725.987 71.9302 726.268 71.1598C726.548 70.3894 726.651 69.5658 726.57 68.75Z" fill="#FCB415"/>
<path d="M765.83 70.08C765.83 70.25 765.83 71.18 765.7 72.87C765.698 73.7232 765.409 74.5509 764.88 75.22C764.165 75.6782 763.315 75.8792 762.47 75.79H744.83V77.18C744.83 79.5133 745.54 81.18 746.96 82.18C748.38 83.18 750.69 83.67 753.91 83.67C756.687 83.6723 759.454 83.3364 762.15 82.67C763.15 82.41 763.85 82.45 764.21 82.76C764.66 83.3731 764.853 84.1368 764.75 84.89V85.71C764.835 86.4525 764.669 87.202 764.28 87.84C763.67 88.3539 762.935 88.6987 762.15 88.84C759.462 89.5484 756.689 89.8848 753.91 89.84C748.543 89.84 744.6 88.75 742.08 86.57C739.56 84.39 738.3 80.9433 738.3 76.23V70.71C738.3 61.57 742.993 57 752.38 57C756.78 57 760.113 58.11 762.38 60.33C764.647 62.55 765.797 65.8 765.83 70.08ZM744.83 68.87V70.46H759.68V68.87C759.68 64.69 757.187 62.5967 752.2 62.59C747.213 62.5833 744.757 64.6767 744.83 68.87Z" fill="#FCB415"/>
<path d="M304.24 150.88V143.42H309.76V150.88C309.76 162.067 315.403 167.66 326.69 167.66H334.45V156.4C334.45 142.8 341.3 136 355 136H362.84V159.43C362.84 164.95 364.953 167.71 369.18 167.71H371V173.31H369.14C365.26 173.31 362.3 172.077 360.26 169.61C358.22 167.143 357.2 163.75 357.2 159.43V141.43H355C349.827 141.43 346.033 142.613 343.62 144.98C341.207 147.347 340.003 151.163 340.01 156.43V173.29H326.69C319.43 173.29 313.873 171.337 310.02 167.43C306.167 163.523 304.24 158.007 304.24 150.88Z" fill="#168944"/>
<path d="M399.35 173.26H369.51V167.66H399.35V173.26Z" fill="#168944"/>
<path d="M397.86 167.66H399.8C404.18 167.66 406.367 164.823 406.36 159.15V115.07H412V159.15C412 163.477 410.93 166.91 408.79 169.45C406.65 171.99 403.667 173.26 399.84 173.26H397.9L397.86 167.66Z" fill="#168944"/>
<path d="M422.62 154.38C422.623 149.414 424.597 144.653 428.109 141.142C431.622 137.632 436.384 135.66 441.35 135.66C443.887 135.571 446.414 136.031 448.758 137.008C451.101 137.984 453.207 139.455 454.93 141.32C458.397 145.113 460.137 149.963 460.15 155.87V171.31C460.282 176.244 458.489 181.035 455.15 184.67C451.817 188.25 447.377 190.04 441.83 190.04C438.781 190.042 435.768 189.38 433 188.1C430.297 186.898 427.929 185.055 426.1 182.73L430.1 179C431.396 180.74 433.118 182.118 435.1 183C437.18 183.966 439.447 184.462 441.74 184.45C445.027 184.592 448.238 183.443 450.69 181.25C452.949 179.178 454.315 176.31 454.5 173.25H442.5C436.727 173.25 431.977 171.47 428.25 167.91C426.41 166.18 424.957 164.079 423.987 161.748C423.017 159.416 422.551 156.905 422.62 154.38ZM428.14 154.38C428.072 156.179 428.394 157.971 429.084 159.634C429.775 161.296 430.817 162.789 432.14 164.01C434.984 166.512 438.685 167.82 442.47 167.66H454.55V155.5C454.713 151.727 453.404 148.037 450.9 145.21C449.69 143.894 448.211 142.856 446.562 142.166C444.914 141.475 443.136 141.149 441.35 141.21C439.619 141.199 437.903 141.531 436.301 142.186C434.699 142.842 433.242 143.807 432.014 145.027C430.786 146.248 429.812 147.699 429.147 149.297C428.482 150.895 428.14 152.609 428.14 154.34V154.38Z" fill="#168944"/>
<path d="M488.19 167.66C493.663 167.66 496.4 164.353 496.4 157.74V115.07H502V157.66C502 162.54 500.76 166.35 498.31 169.12C497.05 170.503 495.501 171.591 493.772 172.307C492.044 173.022 490.179 173.348 488.31 173.26H467.31V167.66H488.19ZM469.4 123.87H472.68C472.149 123.375 471.726 122.776 471.437 122.11C471.148 121.444 470.999 120.726 471 120C470.989 119.217 471.143 118.44 471.452 117.72C471.76 117 472.216 116.353 472.79 115.82C473.36 115.262 474.036 114.823 474.778 114.53C475.52 114.236 476.312 114.094 477.11 114.11C478.034 114.102 478.947 114.299 479.786 114.687C480.624 115.074 481.367 115.642 481.96 116.35L480.03 118.13C479.686 117.715 479.251 117.385 478.758 117.167C478.265 116.948 477.729 116.846 477.19 116.87C476.267 116.842 475.37 117.176 474.69 117.8C474.359 118.11 474.098 118.487 473.925 118.906C473.753 119.325 473.673 119.777 473.69 120.23C473.679 121.172 474.038 122.08 474.69 122.76C474.996 123.112 475.374 123.394 475.798 123.587C476.223 123.78 476.684 123.88 477.15 123.88H482.67V126.57H469.4V123.87ZM472.46 163.71V129.71H478.05V163.71H472.46Z" fill="#168944"/>
<path d="M520.8 173.26H515.28V115.07H520.8V173.26Z" fill="#168944"/>
<path d="M551.83 143.42H557.35V150.88C557.35 162.067 562.993 167.66 574.28 167.66H582V156.4C582 142.8 588.85 136 602.55 136H610.39V159.43C610.39 164.95 612.503 167.71 616.73 167.71H618.59V173.31H616.73C612.85 173.31 609.89 172.077 607.85 169.61C605.81 167.143 604.79 163.75 604.79 159.43V141.43H602.63C597.463 141.43 593.67 142.613 591.25 144.98C588.83 147.347 587.627 151.163 587.64 156.43V173.29H574.28C567.02 173.29 561.463 171.337 557.61 167.43C553.757 163.523 551.83 158.017 551.83 150.91V143.42ZM568.61 181.31C568.93 180.954 569.321 180.669 569.759 180.476C570.197 180.283 570.671 180.186 571.15 180.19C571.636 180.187 572.117 180.282 572.566 180.47C573.014 180.657 573.42 180.932 573.76 181.28C574.116 181.606 574.4 182.003 574.593 182.446C574.786 182.889 574.884 183.367 574.88 183.85C574.879 184.338 574.779 184.821 574.587 185.269C574.394 185.718 574.113 186.123 573.76 186.46C573.054 187.122 572.117 187.481 571.15 187.46C570.185 187.447 569.263 187.059 568.58 186.377C567.896 185.696 567.506 184.775 567.49 183.81C567.491 183.338 567.592 182.872 567.784 182.441C567.977 182.01 568.259 181.625 568.61 181.31ZM580.85 181.31C581.168 180.954 581.558 180.671 581.994 180.477C582.431 180.284 582.903 180.186 583.38 180.19C583.868 180.186 584.351 180.281 584.801 180.468C585.251 180.656 585.659 180.932 586 181.28C586.356 181.606 586.64 182.003 586.833 182.446C587.026 182.889 587.124 183.367 587.12 183.85C587.119 184.338 587.019 184.821 586.827 185.269C586.634 185.718 586.353 186.123 586 186.46C585.292 187.124 584.351 187.483 583.38 187.46C582.415 187.45 581.493 187.062 580.811 186.379C580.128 185.697 579.74 184.775 579.73 183.81C579.729 183.338 579.828 182.871 580.021 182.439C580.214 182.008 580.497 181.623 580.85 181.31Z" fill="#168944"/>
<path d="M646.94 173.26H617.1V167.66H646.94V173.26Z" fill="#168944"/>
<path d="M675.29 173.26H645.45V167.66H675.29V173.26Z" fill="#168944"/>
<path d="M673.8 173.26V167.66H678.2C682.52 167.66 684.683 164.823 684.69 159.15V136H690.29V159.2C690.29 164.867 692.477 167.703 696.85 167.71H701.17V173.31H696.85C692.517 173.31 689.41 171.517 687.53 167.93C686.665 169.636 685.322 171.053 683.665 172.008C682.009 172.963 680.11 173.416 678.2 173.31L673.8 173.26ZM678 127.83C677.984 127.344 678.064 126.86 678.236 126.405C678.407 125.95 678.667 125.534 679 125.18C679.334 124.825 679.739 124.544 680.189 124.356C680.638 124.168 681.123 124.078 681.61 124.09C682.092 124.085 682.57 124.179 683.013 124.367C683.457 124.554 683.858 124.831 684.19 125.18C684.542 125.524 684.819 125.937 685.005 126.393C685.19 126.849 685.281 127.338 685.27 127.83C685.266 128.555 685.048 129.262 684.642 129.863C684.237 130.464 683.663 130.931 682.992 131.206C682.321 131.481 681.584 131.551 680.874 131.407C680.164 131.264 679.511 130.913 679 130.4C678.34 129.709 677.98 128.785 678 127.83ZM689.94 127.83C689.931 127.337 690.023 126.848 690.211 126.392C690.398 125.936 690.677 125.524 691.03 125.18C691.359 124.83 691.758 124.552 692.2 124.364C692.643 124.177 693.119 124.083 693.6 124.09C694.086 124.087 694.567 124.182 695.016 124.37C695.464 124.557 695.87 124.832 696.21 125.18C696.571 125.519 696.857 125.931 697.05 126.387C697.242 126.843 697.338 127.335 697.33 127.83C697.334 128.307 697.236 128.779 697.042 129.216C696.849 129.652 696.566 130.042 696.21 130.36C695.874 130.715 695.47 130.997 695.021 131.19C694.572 131.383 694.088 131.481 693.6 131.48C693.115 131.491 692.634 131.401 692.186 131.215C691.738 131.029 691.334 130.751 691 130.4C690.653 130.068 690.378 129.669 690.19 129.227C690.003 128.785 689.907 128.31 689.91 127.83H689.94Z" fill="#168944"/>
<path d="M699.69 167.66H718.93L705.65 147.82V136H733.11C743.297 136 748.393 139.533 748.4 146.6C748.37 148.229 748.03 149.838 747.4 151.34C746.6 153.208 745.558 154.963 744.3 156.56C742.88 158.42 741.62 159.99 740.5 161.26C739.38 162.53 737.82 164.26 735.84 166.37C735.24 166.96 734.84 167.37 734.56 167.71H754.33V173.31H699.69V167.66ZM712.07 141.55V147.37L725.57 167.66H728C728.553 167.06 729.847 165.68 731.88 163.52C733.913 161.36 735.293 159.843 736.02 158.97C736.74 158.097 737.74 156.867 739.02 155.28C740.043 154.036 740.906 152.668 741.59 151.21C742.046 150.187 742.288 149.08 742.3 147.96C742.3 145.433 741.417 143.733 739.65 142.86C737.883 141.987 735.137 141.55 731.41 141.55H712.07ZM722.89 127.68C722.885 127.194 722.977 126.712 723.161 126.262C723.344 125.812 723.616 125.403 723.96 125.06C724.301 124.701 724.712 124.416 725.168 124.223C725.624 124.03 726.115 123.934 726.61 123.94C727.104 123.941 727.593 124.041 728.048 124.233C728.503 124.426 728.915 124.707 729.26 125.06C729.625 125.392 729.916 125.797 730.116 126.248C730.316 126.699 730.419 127.187 730.42 127.68C730.424 128.183 730.323 128.681 730.123 129.143C729.923 129.604 729.629 130.019 729.26 130.36C728.916 130.715 728.504 130.997 728.049 131.19C727.594 131.382 727.104 131.481 726.61 131.48C726.115 131.489 725.623 131.393 725.166 131.2C724.71 131.008 724.299 130.721 723.96 130.36C723.612 130.007 723.338 129.588 723.155 129.128C722.971 128.668 722.881 128.175 722.89 127.68Z" fill="#168944"/>
<path d="M752.88 167.66H754.82C759.187 167.66 761.373 164.823 761.38 159.15V115.07H767V159.15C767 163.477 765.927 166.91 763.78 169.45C762.681 170.727 761.304 171.735 759.754 172.396C758.203 173.056 756.522 173.352 754.84 173.26H752.9L752.88 167.66Z" fill="#168944"/>
<path d="M304.24 150.88V143.42H309.76V150.88C309.76 162.067 315.403 167.66 326.69 167.66H334.45V156.4C334.45 142.8 341.3 136 355 136H362.84V159.43C362.84 164.95 364.953 167.71 369.18 167.71H371V173.31H369.14C365.26 173.31 362.3 172.077 360.26 169.61C358.22 167.143 357.2 163.75 357.2 159.43V141.43H355C349.827 141.43 346.033 142.613 343.62 144.98C341.207 147.347 340.003 151.163 340.01 156.43V173.29H326.69C319.43 173.29 313.873 171.337 310.02 167.43C306.167 163.523 304.24 158.007 304.24 150.88Z" fill="#010101"/>
<path d="M399.35 173.26H369.51V167.66H399.35V173.26Z" fill="#010101"/>
<path d="M397.86 167.66H399.8C404.18 167.66 406.367 164.823 406.36 159.15V115.07H412V159.15C412 163.477 410.93 166.91 408.79 169.45C406.65 171.99 403.667 173.26 399.84 173.26H397.9L397.86 167.66Z" fill="#010101"/>
<path d="M422.62 154.38C422.623 149.414 424.597 144.653 428.109 141.142C431.622 137.632 436.384 135.66 441.35 135.66C443.887 135.571 446.414 136.031 448.758 137.008C451.101 137.984 453.207 139.455 454.93 141.32C458.397 145.113 460.137 149.963 460.15 155.87V171.31C460.282 176.244 458.489 181.035 455.15 184.67C451.817 188.25 447.377 190.04 441.83 190.04C438.781 190.042 435.768 189.38 433 188.1C430.297 186.898 427.929 185.055 426.1 182.73L430.1 179C431.396 180.74 433.118 182.118 435.1 183C437.18 183.966 439.447 184.462 441.74 184.45C445.027 184.592 448.238 183.443 450.69 181.25C452.949 179.178 454.315 176.31 454.5 173.25H442.5C436.727 173.25 431.977 171.47 428.25 167.91C426.41 166.18 424.957 164.079 423.987 161.748C423.017 159.416 422.551 156.905 422.62 154.38ZM428.14 154.38C428.072 156.179 428.394 157.971 429.084 159.634C429.775 161.296 430.817 162.789 432.14 164.01C434.984 166.512 438.685 167.82 442.47 167.66H454.55V155.5C454.713 151.727 453.404 148.037 450.9 145.21C449.69 143.894 448.211 142.856 446.562 142.166C444.914 141.475 443.136 141.149 441.35 141.21C439.619 141.199 437.903 141.531 436.301 142.186C434.699 142.842 433.242 143.807 432.014 145.027C430.786 146.248 429.812 147.699 429.147 149.297C428.482 150.895 428.14 152.609 428.14 154.34V154.38Z" fill="#010101"/>
<path d="M488.19 167.66C493.663 167.66 496.4 164.353 496.4 157.74V115.07H502V157.66C502 162.54 500.76 166.35 498.31 169.12C497.05 170.503 495.501 171.591 493.772 172.307C492.044 173.022 490.179 173.348 488.31 173.26H467.31V167.66H488.19ZM469.4 123.87H472.68C472.149 123.375 471.726 122.776 471.437 122.11C471.148 121.444 470.999 120.726 471 120C470.989 119.217 471.143 118.44 471.452 117.72C471.76 117 472.216 116.353 472.79 115.82C473.36 115.262 474.036 114.823 474.778 114.53C475.52 114.236 476.312 114.094 477.11 114.11C478.034 114.102 478.947 114.299 479.786 114.687C480.624 115.074 481.367 115.642 481.96 116.35L480.03 118.13C479.686 117.715 479.251 117.385 478.758 117.167C478.265 116.948 477.729 116.846 477.19 116.87C476.267 116.842 475.37 117.176 474.69 117.8C474.359 118.11 474.098 118.487 473.925 118.906C473.753 119.325 473.673 119.777 473.69 120.23C473.679 121.172 474.038 122.08 474.69 122.76C474.996 123.112 475.374 123.394 475.798 123.587C476.223 123.78 476.684 123.88 477.15 123.88H482.67V126.57H469.4V123.87ZM472.46 163.71V129.71H478.05V163.71H472.46Z" fill="#010101"/>
<path d="M520.8 173.26H515.28V115.07H520.8V173.26Z" fill="#010101"/>
<path d="M551.83 143.42H557.35V150.88C557.35 162.067 562.993 167.66 574.28 167.66H582V156.4C582 142.8 588.85 136 602.55 136H610.39V159.43C610.39 164.95 612.503 167.71 616.73 167.71H618.59V173.31H616.73C612.85 173.31 609.89 172.077 607.85 169.61C605.81 167.143 604.79 163.75 604.79 159.43V141.43H602.63C597.463 141.43 593.67 142.613 591.25 144.98C588.83 147.347 587.627 151.163 587.64 156.43V173.29H574.28C567.02 173.29 561.463 171.337 557.61 167.43C553.757 163.523 551.83 158.017 551.83 150.91V143.42ZM568.61 181.31C568.93 180.954 569.321 180.669 569.759 180.476C570.197 180.283 570.671 180.186 571.15 180.19C571.636 180.187 572.117 180.282 572.566 180.47C573.014 180.657 573.42 180.932 573.76 181.28C574.116 181.606 574.4 182.003 574.593 182.446C574.786 182.889 574.884 183.367 574.88 183.85C574.879 184.338 574.779 184.821 574.587 185.269C574.394 185.718 574.113 186.123 573.76 186.46C573.054 187.122 572.117 187.481 571.15 187.46C570.185 187.447 569.263 187.059 568.58 186.377C567.896 185.696 567.506 184.775 567.49 183.81C567.491 183.338 567.592 182.872 567.784 182.441C567.977 182.01 568.259 181.625 568.61 181.31ZM580.85 181.31C581.168 180.954 581.558 180.671 581.994 180.477C582.431 180.284 582.903 180.186 583.38 180.19C583.868 180.186 584.351 180.281 584.801 180.468C585.251 180.656 585.659 180.932 586 181.28C586.356 181.606 586.64 182.003 586.833 182.446C587.026 182.889 587.124 183.367 587.12 183.85C587.119 184.338 587.019 184.821 586.827 185.269C586.634 185.718 586.353 186.123 586 186.46C585.292 187.124 584.351 187.483 583.38 187.46C582.415 187.45 581.493 187.062 580.811 186.379C580.128 185.697 579.74 184.775 579.73 183.81C579.729 183.338 579.828 182.871 580.021 182.439C580.214 182.008 580.497 181.623 580.85 181.31Z" fill="#010101"/>
<path d="M646.94 173.26H617.1V167.66H646.94V173.26Z" fill="#010101"/>
<path d="M675.29 173.26H645.45V167.66H675.29V173.26Z" fill="#010101"/>
<path d="M673.8 173.26V167.66H678.2C682.52 167.66 684.683 164.823 684.69 159.15V136H690.29V159.2C690.29 164.867 692.477 167.703 696.85 167.71H701.17V173.31H696.85C692.517 173.31 689.41 171.517 687.53 167.93C686.665 169.636 685.322 171.053 683.665 172.008C682.009 172.963 680.11 173.416 678.2 173.31L673.8 173.26ZM678 127.83C677.984 127.344 678.064 126.86 678.236 126.405C678.407 125.95 678.667 125.534 679 125.18C679.334 124.825 679.739 124.544 680.189 124.356C680.638 124.168 681.123 124.078 681.61 124.09C682.092 124.085 682.57 124.179 683.013 124.367C683.457 124.554 683.858 124.831 684.19 125.18C684.542 125.524 684.819 125.937 685.005 126.393C685.19 126.849 685.281 127.338 685.27 127.83C685.266 128.555 685.048 129.262 684.642 129.863C684.237 130.464 683.663 130.931 682.992 131.206C682.321 131.481 681.584 131.551 680.874 131.407C680.164 131.264 679.511 130.913 679 130.4C678.34 129.709 677.98 128.785 678 127.83ZM689.94 127.83C689.931 127.337 690.023 126.848 690.211 126.392C690.398 125.936 690.677 125.524 691.03 125.18C691.359 124.83 691.758 124.552 692.2 124.364C692.643 124.177 693.119 124.083 693.6 124.09C694.086 124.087 694.567 124.182 695.016 124.37C695.464 124.557 695.87 124.832 696.21 125.18C696.571 125.519 696.857 125.931 697.05 126.387C697.242 126.843 697.338 127.335 697.33 127.83C697.334 128.307 697.236 128.779 697.042 129.216C696.849 129.652 696.566 130.042 696.21 130.36C695.874 130.715 695.47 130.997 695.021 131.19C694.572 131.383 694.088 131.481 693.6 131.48C693.115 131.491 692.634 131.401 692.186 131.215C691.738 131.029 691.334 130.751 691 130.4C690.653 130.068 690.378 129.669 690.19 129.227C690.003 128.785 689.907 128.31 689.91 127.83H689.94Z" fill="#010101"/>
<path d="M699.69 167.66H718.93L705.65 147.82V136H733.11C743.297 136 748.393 139.533 748.4 146.6C748.37 148.229 748.03 149.838 747.4 151.34C746.6 153.208 745.558 154.963 744.3 156.56C742.88 158.42 741.62 159.99 740.5 161.26C739.38 162.53 737.82 164.26 735.84 166.37C735.24 166.96 734.84 167.37 734.56 167.71H754.33V173.31H699.69V167.66ZM712.07 141.55V147.37L725.57 167.66H728C728.553 167.06 729.847 165.68 731.88 163.52C733.913 161.36 735.293 159.843 736.02 158.97C736.74 158.097 737.74 156.867 739.02 155.28C740.043 154.036 740.906 152.668 741.59 151.21C742.046 150.187 742.288 149.08 742.3 147.96C742.3 145.433 741.417 143.733 739.65 142.86C737.883 141.987 735.137 141.55 731.41 141.55H712.07ZM722.89 127.68C722.885 127.194 722.977 126.712 723.161 126.262C723.344 125.812 723.616 125.403 723.96 125.06C724.301 124.701 724.712 124.416 725.168 124.223C725.624 124.03 726.115 123.934 726.61 123.94C727.104 123.941 727.593 124.041 728.048 124.233C728.503 124.426 728.915 124.707 729.26 125.06C729.625 125.392 729.916 125.797 730.116 126.248C730.316 126.699 730.419 127.187 730.42 127.68C730.424 128.183 730.323 128.681 730.123 129.143C729.923 129.604 729.629 130.019 729.26 130.36C728.916 130.715 728.504 130.997 728.049 131.19C727.594 131.382 727.104 131.481 726.61 131.48C726.115 131.489 725.623 131.393 725.166 131.2C724.71 131.008 724.299 130.721 723.96 130.36C723.612 130.007 723.338 129.588 723.155 129.128C722.971 128.668 722.881 128.175 722.89 127.68Z" fill="#010101"/>
<path d="M752.88 167.66H754.82C759.187 167.66 761.373 164.823 761.38 159.15V115.07H767V159.15C767 163.477 765.927 166.91 763.78 169.45C762.681 170.727 761.304 171.735 759.754 172.396C758.203 173.056 756.522 173.352 754.84 173.26H752.9L752.88 167.66Z" fill="#010101"/>
<path d="M793.14 53H803.57C808.63 53 812.35 54.1867 814.73 56.56C817.11 58.9333 818.297 62.5 818.29 67.26C818.29 76.76 813.383 81.51 803.57 81.51H792.57V93.58C792.674 94.4564 792.457 95.3407 791.96 96.07C791.23 96.5642 790.345 96.7773 789.47 96.67H788.6C787.725 96.7773 786.84 96.5642 786.11 96.07C785.617 95.339 785.405 94.4551 785.51 93.58V60.58C785.51 57.9 786.11 55.94 787.32 54.74C788.53 53.54 790.45 53 793.14 53ZM803.57 59.66H795.16C793.41 59.66 792.54 60.51 792.54 62.21V74.82H803.54C806.36 74.82 808.35 74.23 809.49 73.07C810.63 71.91 811.2 69.95 811.2 67.22C811.2 64.49 810.62 62.53 809.45 61.36C808.28 60.19 806.34 59.62 803.57 59.62V59.66Z" fill="#FCB415"/>
<path d="M824.41 87.26V52.62C824.308 51.7671 824.521 50.9064 825.01 50.2C825.718 49.7072 826.583 49.4903 827.44 49.59H828.31C829.164 49.49 830.025 49.707 830.73 50.2C831.227 50.9027 831.445 51.7655 831.34 52.62V85.91C831.23 87.1886 831.487 88.4721 832.08 89.61C832.358 89.9814 832.726 90.2756 833.15 90.4646C833.573 90.6537 834.038 90.7312 834.5 90.69C835.24 90.5868 835.993 90.7537 836.62 91.16C836.995 91.8356 837.146 92.6131 837.05 93.38V94.05C837.137 94.8179 836.946 95.5917 836.51 96.23C835.876 96.7453 835.103 97.0618 834.29 97.14C833.984 97.1995 833.672 97.223 833.36 97.21C832.144 97.2819 830.927 97.0944 829.789 96.6599C828.651 96.2254 827.619 95.5539 826.76 94.69C825.193 93.01 824.41 90.5333 824.41 87.26Z" fill="#FCB415"/>
<path d="M867.79 73.61V86.61C867.79 90.33 866.65 93.06 864.36 94.78C862.07 96.5 858.45 97.37 853.47 97.37C844.37 97.37 839.817 93.9167 839.81 87.01C839.81 83.5233 840.943 80.9566 843.21 79.31C845.477 77.6633 848.92 76.8467 853.54 76.86H860.93V73.61C861.009 72.8386 860.879 72.0601 860.554 71.3563C860.228 70.6525 859.719 70.0493 859.08 69.61C857.85 68.86 855.82 68.47 853 68.47C850.632 68.4391 848.267 68.6434 845.94 69.08C845.613 69.1902 845.266 69.2319 844.922 69.2027C844.578 69.1735 844.244 69.0738 843.94 68.91C843.728 68.6266 843.573 68.3041 843.486 67.9608C843.398 67.6176 843.379 67.2605 843.43 66.91V66C843.365 65.2945 843.545 64.5882 843.94 64C844.473 63.5194 845.146 63.2216 845.86 63.15C848.083 62.8016 850.33 62.6211 852.58 62.61C857.693 62.61 861.503 63.4866 864.01 65.24C866.517 66.9933 867.777 69.7833 867.79 73.61ZM860.93 86.31V82.14H853.54C851.752 82.0087 849.965 82.394 848.39 83.25C847.824 83.6696 847.375 84.2273 847.087 84.8699C846.798 85.5124 846.678 86.2182 846.74 86.92C846.68 87.6031 846.796 88.2903 847.078 88.9155C847.36 89.5407 847.798 90.0829 848.35 90.49C849.882 91.3114 851.616 91.6824 853.35 91.56C856.09 91.56 858.04 91.18 859.2 90.42C860.35 89.65 860.93 88.29 860.93 86.31Z" fill="#FCB415"/>
<path d="M871.69 67.42V66.75C871.612 66.0492 871.778 65.3429 872.16 64.75C872.682 64.318 873.325 64.0563 874 64L877.56 63.32L878.37 57C878.381 56.2684 878.642 55.5625 879.11 55C879.707 54.6271 880.41 54.4618 881.11 54.53H882C882.685 54.448 883.377 54.6147 883.95 55C884.346 55.587 884.513 56.2983 884.42 57V63.32H893.84C894.63 63.234 895.425 63.4248 896.09 63.86C896.56 64.525 896.764 65.3422 896.66 66.15V66.95C896.766 67.7579 896.562 68.5759 896.09 69.24C895.427 69.6791 894.63 69.8703 893.84 69.78H884.4V85C884.4 88.9 886.15 90.85 889.65 90.85C891.485 90.872 893.315 90.6671 895.1 90.24C896.21 90.02 896.95 90.06 897.31 90.38C897.67 90.7 897.85 91.38 897.85 92.6V93.4C897.926 94.2241 897.737 95.0511 897.31 95.76C896.702 96.3246 895.926 96.6756 895.1 96.76C893.301 97.0865 891.478 97.2637 889.65 97.29C881.583 97.29 877.547 93.1667 877.54 84.92V69.77H874C873.337 69.8485 872.668 69.6813 872.12 69.3C871.753 68.7465 871.6 68.0781 871.69 67.42Z" fill="#FCB415"/>
<path d="M900.14 67.42V66.75C900.062 66.0491 900.228 65.3429 900.61 64.75C901.121 64.3037 901.756 64.0245 902.43 63.95L905.99 63.27V59.37C905.99 55.3 906.99 52.37 908.99 50.5C910.99 48.63 913.99 47.74 918.11 47.74C919.55 47.7405 920.987 47.8508 922.41 48.07C923.257 48.1581 924.061 48.484 924.73 49.01C925.186 49.6815 925.388 50.4932 925.3 51.3V52.11C925.3 53.28 925.1 54.01 924.7 54.33C924.278 54.5143 923.821 54.6063 923.36 54.6L921.2 54.46C920.331 54.3433 919.456 54.2765 918.58 54.26C914.77 54.26 912.86 55.79 912.86 58.83V63.27H921.81C922.61 63.1759 923.417 63.3671 924.09 63.81C924.544 64.4818 924.736 65.2963 924.63 66.1V66.9C924.737 67.7037 924.545 68.5189 924.09 69.19C923.419 69.6377 922.61 69.8294 921.81 69.73H912.86V93.65C912.981 94.0663 912.988 94.5076 912.881 94.9276C912.773 95.3477 912.554 95.731 912.248 96.0377C911.941 96.3443 911.558 96.5629 911.138 96.6706C910.718 96.7783 910.276 96.7712 909.86 96.65H909C908.584 96.7712 908.142 96.7783 907.722 96.6706C907.302 96.5629 906.919 96.3443 906.612 96.0377C906.306 95.731 906.087 95.3477 905.979 94.9276C905.872 94.5076 905.879 94.0663 906 93.65V69.77H902.5C901.837 69.8485 901.168 69.6813 900.62 69.3C900.235 68.7532 900.064 68.0843 900.14 67.42Z" fill="#FCB415"/>
<path d="M944 97.41C938.71 97.41 934.8 96.22 932.3 93.85C929.8 91.48 928.53 87.85 928.53 82.85V77.1C928.53 67.42 933.687 62.5767 944 62.57C949.253 62.57 953.12 63.77 955.6 66.17C958.08 68.57 959.323 72.2133 959.33 77.1V82.89C959.33 87.6433 958.04 91.2533 955.46 93.72C952.88 96.18 949.05 97.41 944 97.41ZM952.41 82.89V77.1C952.41 74.14 951.79 72.0567 950.55 70.85C949.31 69.63 947.13 69 944 69C940.87 69 938.59 69.6 937.34 70.82C936.09 72.04 935.46 74.11 935.46 77.07V82.86C935.46 85.77 936.08 87.86 937.34 89.04C938.6 90.22 940.81 90.86 944 90.86C947.19 90.86 949.38 90.26 950.59 89.07C951.8 87.88 952.4 85.84 952.4 82.89H952.41Z" fill="#FCB415"/>
<path d="M972.84 75V93.7C972.943 94.5544 972.726 95.4165 972.23 96.12C971.524 96.6086 970.663 96.822 969.81 96.72H968.94C968.087 96.822 967.226 96.6086 966.52 96.12C966.024 95.4165 965.807 94.5544 965.91 93.7V74.48C965.91 66.54 970.147 62.57 978.62 62.57C979.071 62.5521 979.523 62.5756 979.97 62.64C980.787 62.6616 981.576 62.9456 982.22 63.45C982.682 64.1415 982.883 64.974 982.79 65.8V66.8C982.79 67.92 982.62 68.63 982.25 68.95C981.544 69.3091 980.727 69.3808 979.97 69.15C979.524 69.0799 979.071 69.0565 978.62 69.08C976.467 69.08 974.967 69.53 974.12 70.43C973.26 71.27 972.84 72.8 972.84 75Z" fill="#FCB415"/>
<path d="M994.63 75.62V93.62C994.73 94.4727 994.517 95.3328 994.03 96.04C993.319 96.5267 992.456 96.7398 991.6 96.64H990.73C989.877 96.742 989.016 96.5286 988.31 96.04C987.814 95.3365 987.597 94.4744 987.7 93.62V75.62C987.7 66.92 992.25 62.57 1001.35 62.57C1006.29 62.57 1009.66 64.2067 1011.45 67.48C1013.23 64.21 1016.6 62.57 1021.53 62.57C1026.15 62.57 1029.57 63.6467 1031.79 65.8C1034.01 67.9533 1035.12 71.2267 1035.12 75.62V93.62C1035.24 94.0364 1035.25 94.4776 1035.14 94.8976C1035.03 95.3177 1034.81 95.7011 1034.51 96.0077C1034.2 96.3143 1033.82 96.5329 1033.4 96.6406C1032.98 96.7483 1032.54 96.7412 1032.12 96.62H1031.25C1030.83 96.7412 1030.39 96.7483 1029.97 96.6406C1029.55 96.5329 1029.17 96.3143 1028.86 96.0077C1028.56 95.7011 1028.34 95.3177 1028.23 94.8976C1028.12 94.4776 1028.13 94.0364 1028.25 93.62V75.62C1028.25 73.2 1027.77 71.4967 1026.8 70.51C1025.8 69.51 1024.1 69.03 1021.59 69.03C1019.08 69.03 1017.38 69.54 1016.35 70.55C1015.32 71.56 1014.8 73.25 1014.8 75.62V93.62C1014.92 94.0364 1014.93 94.4776 1014.82 94.8976C1014.71 95.3177 1014.49 95.7011 1014.19 96.0077C1013.88 96.3143 1013.5 96.5329 1013.08 96.6406C1012.66 96.7483 1012.22 96.7412 1011.8 96.62H1011C1010.58 96.7412 1010.14 96.7483 1009.72 96.6406C1009.3 96.5329 1008.92 96.3143 1008.61 96.0077C1008.31 95.7011 1008.09 95.3177 1007.98 94.8976C1007.87 94.4776 1007.88 94.0364 1008 93.62V75.62C1008 73.2 1007.52 71.4967 1006.56 70.51C1005.56 69.51 1003.86 69.03 1001.34 69.03C998.82 69.03 997.09 69.53 996.1 70.51C995.11 71.49 994.63 73.2 994.63 75.62Z" fill="#FCB415"/>
<path d="M813 143.7C814.977 141.655 817.352 140.038 819.978 138.948C822.604 137.857 825.427 137.317 828.27 137.36H848.7V164.36C848.7 170.953 851.217 174.25 856.25 174.25H858.68V180.76H856.25C850.123 180.76 846.22 177.777 844.54 171.81C842.919 174.593 840.563 176.877 837.73 178.41C834.84 179.979 831.598 180.787 828.31 180.76C824.009 180.776 819.801 179.511 816.222 177.126C812.643 174.741 809.854 171.345 808.212 167.37C806.57 163.395 806.149 159.021 807.001 154.806C807.854 150.591 809.942 146.724 813 143.7ZM813 159.05C813.019 163.087 814.636 166.952 817.498 169.799C820.36 172.646 824.233 174.243 828.27 174.24C830.115 174.281 831.947 173.935 833.651 173.226C835.354 172.516 836.89 171.458 838.16 170.12C840.827 167.373 842.16 163.683 842.16 159.05V143.87H828.31C824.268 143.857 820.386 145.448 817.515 148.294C814.645 151.14 813.021 155.008 813 159.05ZM819.34 124.79C819.72 124.396 820.178 124.085 820.683 123.875C821.189 123.665 821.733 123.561 822.28 123.57C822.839 123.571 823.391 123.683 823.906 123.899C824.421 124.116 824.888 124.432 825.28 124.83C825.697 125.224 826.028 125.7 826.252 126.229C826.476 126.757 826.587 127.326 826.58 127.9C826.591 128.464 826.481 129.024 826.257 129.542C826.032 130.059 825.699 130.523 825.28 130.9C824.892 131.305 824.426 131.629 823.911 131.852C823.396 132.076 822.841 132.194 822.28 132.2C821.157 132.184 820.084 131.73 819.292 130.934C818.5 130.138 818.05 129.063 818.04 127.94C818.032 127.351 818.146 126.766 818.377 126.223C818.608 125.681 818.949 125.193 819.38 124.79H819.34ZM832 127.9C831.99 127.329 832.096 126.763 832.313 126.235C832.53 125.707 832.852 125.229 833.26 124.83C833.658 124.43 834.131 124.113 834.652 123.896C835.172 123.679 835.731 123.568 836.295 123.568C836.859 123.568 837.418 123.679 837.938 123.896C838.459 124.113 838.932 124.43 839.33 124.83C839.74 125.228 840.063 125.705 840.28 126.234C840.497 126.762 840.603 127.329 840.59 127.9C840.598 128.46 840.491 129.015 840.274 129.532C840.057 130.048 839.736 130.514 839.33 130.9C838.932 131.3 838.459 131.617 837.938 131.834C837.418 132.051 836.859 132.162 836.295 132.162C835.731 132.162 835.172 132.051 834.652 131.834C834.131 131.617 833.658 131.3 833.26 130.9C832.856 130.512 832.536 130.046 832.32 129.53C832.103 129.014 831.994 128.46 832 127.9Z" fill="#010101"/>
<path d="M856.94 180.75V174.24H866.05V137.36H872.56V152.11C880.56 142.277 888.56 137.36 896.56 137.36C899.34 137.263 902.107 137.781 904.663 138.877C907.22 139.973 909.503 141.62 911.35 143.7C915.137 147.92 917.033 153.357 917.04 160.01V164.43C917.04 170.97 919.497 174.24 924.41 174.24H926.66V180.75H924.41C919.15 180.75 915.507 178.437 913.48 173.81C912.353 175.994 910.624 177.808 908.497 179.039C906.37 180.269 903.935 180.863 901.48 180.75H856.94ZM872.56 174.24H901.56C902.787 174.278 904.007 174.044 905.134 173.557C906.261 173.07 907.267 172.34 908.08 171.42C909.753 169.54 910.59 166.777 910.59 163.13V160.13C910.59 155.21 909.287 151.277 906.68 148.33C904.073 145.383 900.547 143.907 896.1 143.9C889.04 143.9 881.203 149.393 872.59 160.38L872.56 174.24Z" fill="#010101"/>
<path d="M925 180.75V174.24H927.42C932.46 174.24 934.977 170.943 934.97 164.35V137.35H941.48V164.35C941.48 170.943 943.997 174.24 949.03 174.24H951.46V180.75H949C944.02 180.75 940.433 178.667 938.24 174.5C935.98 178.66 932.363 180.743 927.39 180.75H925ZM933.85 127.82C933.838 127.24 933.944 126.664 934.16 126.126C934.377 125.588 934.7 125.1 935.11 124.69C935.503 124.271 935.979 123.939 936.508 123.716C937.036 123.492 937.606 123.381 938.18 123.39C939.354 123.393 940.479 123.86 941.31 124.69C942.14 125.521 942.607 126.646 942.61 127.82C942.617 128.383 942.505 128.942 942.281 129.459C942.056 129.976 941.726 130.44 941.31 130.82C940.904 131.237 940.417 131.568 939.878 131.791C939.34 132.015 938.763 132.127 938.18 132.12C937.609 132.124 937.044 132.014 936.516 131.798C935.988 131.581 935.509 131.261 935.106 130.857C934.703 130.453 934.384 129.973 934.169 129.445C933.953 128.916 933.845 128.351 933.85 127.78V127.82Z" fill="#010101"/>
<path d="M949.69 174.24H964.27C961.744 172.678 959.675 170.477 958.27 167.86C956.792 165.16 956.028 162.128 956.05 159.05C956.044 154.75 957.314 150.544 959.7 146.966C962.085 143.388 965.479 140.598 969.45 138.95C973.422 137.301 977.794 136.869 982.012 137.706C986.23 138.544 990.105 140.614 993.145 143.655C996.186 146.695 998.256 150.57 999.094 154.788C999.931 159.006 999.499 163.378 997.85 167.35C996.202 171.321 993.412 174.715 989.834 177.1C986.256 179.486 982.05 180.756 977.75 180.75H949.75L949.69 174.24ZM962.45 159.05C962.431 162.584 963.639 166.015 965.869 168.757C968.098 171.499 971.21 173.383 974.673 174.086C978.136 174.789 981.736 174.269 984.858 172.613C987.98 170.958 990.431 168.27 991.792 165.009C993.154 161.747 993.341 158.115 992.322 154.731C991.303 151.347 989.141 148.422 986.205 146.455C983.269 144.487 979.742 143.6 976.225 143.944C972.708 144.287 969.419 145.841 966.92 148.34C965.484 149.726 964.346 151.391 963.578 153.233C962.809 155.075 962.425 157.054 962.45 159.05Z" fill="#010101"/>
</svg>
