<svg width="40" height="40" viewBox="0 0 40 40" fill="none" xmlns="http://www.w3.org/2000/svg">
    <g clip-path="url(#clip0_51_8891)">
        <path d="M17.5486 29.0413C17.6663 29.0318 17.7848 29.0472 17.8963 29.0862C18.0078 29.1253 18.1098 29.1873 18.196 29.2681C19.0294 30.0622 19.8234 30.8971 20.6508 31.6988C21.0138 32.0512 21.4207 32.3583 21.9183 32.7757C22.2208 32.6103 22.5233 32.4334 22.8258 32.2448C23.5095 31.8107 24.2703 31.4462 24.7286 30.7202C24.4125 30.7202 24.1569 30.9213 23.8211 30.9259C23.4499 30.9377 23.0804 30.8727 22.7355 30.735C22.3906 30.5973 22.0779 30.3899 21.817 30.1257C21.1197 29.4542 20.439 28.7645 19.7524 28.0853" fill="#EEC31A"/>
        <path d="M21.9529 32.8059C20.8942 33.181 19.8868 33.6499 18.825 33.8843C17.6192 34.153 16.3893 34.2994 15.1541 34.3214C12.4315 34.3608 9.91616 33.609 7.58382 32.1797C5.16758 30.7084 3.23599 28.5607 2.02827 26.0025C0.851514 23.5733 0.474892 20.996 0.722948 18.3384C0.868599 16.7393 1.29887 15.179 1.99348 13.7313C2.63328 12.3851 3.38048 11.1357 4.38632 10.0558C5.50711 8.84575 7.23896 8.92743 8.25085 10.1934C9.02073 11.1569 8.91939 12.5303 8.0996 13.4499C6.681 15.0168 5.84001 17.021 5.71584 19.131C5.52828 21.8899 6.41463 24.2827 8.24631 26.2974C9.36545 27.5166 10.7932 28.4107 12.3786 28.8854C14.0553 29.4061 15.8426 29.4584 17.5469 29.0366C17.6647 29.0272 17.7831 29.0425 17.8946 29.0816C18.0061 29.1207 18.1082 29.1826 18.1943 29.2635C19.0277 30.0576 19.8218 30.8925 20.6491 31.6942C21.0212 32.0602 21.4387 32.3733 21.9529 32.8059Z" fill="#FCB415"/>
        <path d="M23.6892 24.7365C24.9672 23.4494 26.1198 22.2802 27.2799 21.12C30.0025 18.3975 32.7251 15.6885 35.4386 12.9614C36.216 12.1794 37.1281 11.8618 38.1687 12.19C40.1093 12.8041 40.6175 15.1032 39.1639 16.5628C37.3716 18.3627 35.5686 20.1505 33.7717 21.9459C31.1142 24.6004 28.4234 27.2247 25.8128 29.926C24.515 31.2707 22.7499 31.0725 21.6563 29.926C19.4979 27.6754 17.2699 25.4913 15.0631 23.286C13.9787 22.2015 13.9303 20.5922 14.9648 19.5576C15.9994 18.523 17.5997 18.517 18.6963 19.5984C20.2169 21.1009 21.7294 22.6134 23.2339 24.136C23.3972 24.3272 23.5492 24.5277 23.6892 24.7365Z" fill="#138944"/>
        <path d="M14.9015 5.17035C17.8388 5.19152 20.2604 5.8162 22.4914 7.11547C24.1144 8.0593 24.2822 10.1617 22.8559 11.3506C22.0528 12.0221 20.9668 12.1356 19.9534 11.5684C18.2466 10.5968 16.282 10.1743 14.3267 10.3584C13.823 10.4022 13.3239 10.5096 12.8233 10.6079C11.462 10.862 10.1536 10.074 9.82994 8.79288C9.47298 7.37866 10.196 6.05518 11.5875 5.64226C12.0583 5.50159 12.5399 5.4004 13.0274 5.33975C13.7671 5.24295 14.5128 5.20211 14.9015 5.17035Z" fill="#FCB415"/>
        <path d="M28.8004 14.8113C28.802 15.4968 28.5327 16.1552 28.0511 16.6431C27.5695 17.1309 26.9146 17.4087 26.2291 17.4159C24.7513 17.428 23.5065 16.1559 23.5141 14.6328C23.5149 14.2892 23.5833 13.9491 23.7156 13.6319C23.8478 13.3147 24.0412 13.0267 24.2848 12.7843C24.5283 12.5419 24.8172 12.3498 25.135 12.219C25.4528 12.0883 25.7932 12.0214 26.1368 12.0222C27.5692 12.0297 28.8004 13.3184 28.8004 14.8113Z" fill="#FCB415"/>
    </g>
    <defs>
        <clipPath id="clip0_51_8891">
            <rect width="40" height="40" fill="white"/>
        </clipPath>
    </defs>
</svg>
