<svg width="591" height="472" viewBox="0 0 591 472" fill="none" xmlns="http://www.w3.org/2000/svg">
    <g clip-path="url(#clip0_51_8837)">
        <path opacity="0.25" d="M318.83 428C315.478 428 312.028 427.943 308.581 427.833C305.412 427.37 302.228 426.831 299.141 426.32C297.557 426.054 295.913 425.78 294.303 425.52L287.214 424.341C285.661 424.07 284.089 423.758 282.566 423.456C281.827 423.309 280.982 423.143 280.17 422.985C275.642 424.017 270.968 424.522 266.278 424.488C265.413 424.488 264.524 424.473 263.637 424.443C260.593 424.369 257.328 424.197 253.934 423.927C250.92 423.613 247.557 423.214 243.347 422.669C232.778 421.214 220.877 419.105 208.277 416.872H208.253C203.236 415.982 198.049 415.071 192.69 414.14C189.563 412.55 186.153 411.394 182.591 410.716C180.215 410.048 177.618 409.364 174.868 408.677C174.161 408.498 173.428 408.316 172.721 408.143H172.704C170.636 407.632 168.499 407.104 166.406 406.473L158 404.066C155.624 403.35 153.356 402.525 151.35 401.796L150.483 401.482C148.458 400.762 146.482 399.948 144.562 399.046C143.274 398.434 142.096 397.67 141.063 396.778C133.075 393.656 133.079 391.566 133.819 389.523C114.13 381.04 96.1233 370.03 80.4415 356.886C80.9549 358.828 81.8448 360.685 83.0752 362.383C83.7386 363.401 84.501 364.492 85.3446 365.626C86.208 366.668 87.1862 367.785 88.3368 369.041C90.5937 371.577 93.0691 373.969 95.7429 376.198C93.8795 374.942 92.1408 373.621 90.4576 372.343C88.7744 371.065 87.1546 369.838 85.7426 368.943C92.8468 375.063 100.393 380.806 108.339 386.139C109.244 386.784 110.092 387.377 110.914 387.948L110.929 387.958C112.785 389.094 114.473 390.413 115.955 391.888C116.124 392.115 116.173 392.285 116.102 392.389C116.031 392.492 115.888 392.528 115.648 392.528C113.691 392.224 111.797 391.679 110.026 390.911C106.66 389.154 103.779 387.339 101.238 385.734L99.852 384.865C97.6951 383.457 95.63 381.952 93.6656 380.356C93.2696 380.046 92.8861 379.745 92.5151 379.451C91.525 378.661 90.5685 377.864 89.5705 377.018C88.7962 376.313 88.0793 375.61 87.3922 374.93L87.0694 374.614C85.4456 373.008 83.9683 371.471 82.6633 370.115C77.483 364.243 72.4551 358.971 61.1439 347.554C61.2786 347.579 61.416 347.592 61.5538 347.594C61.6605 347.605 61.7685 347.591 61.8665 347.554C61.9645 347.517 62.0487 347.458 62.1103 347.384C62.5182 346.802 61.4509 345.072 59.8983 342.692C58.7478 340.992 57.2705 339.035 55.9755 337.348L51.8684 331.336C50.6751 329.634 49.6006 327.874 48.6505 326.067L48.5871 325.952C47.9257 324.85 47.4085 323.692 47.0445 322.496C46.9794 322.321 46.9986 322.132 47.098 321.968C47.1205 321.947 47.1486 321.929 47.1802 321.918C47.2117 321.907 47.2459 321.902 47.2802 321.903C47.8742 321.903 49.4584 323.147 52.1318 325.706C47.7218 319.257 43.8829 312.541 40.6463 305.615C39.0403 302.883 37.5393 300.331 35.9353 297.599C37.2205 301.849 37.7294 303.906 37.8977 304.583L37.9215 304.681C37.9413 304.8 37.9393 304.872 37.9215 304.895C37.9187 304.898 37.9151 304.901 37.911 304.903C37.9069 304.904 37.9023 304.905 37.8977 304.905C37.4853 304.516 37.1677 304.062 36.963 303.569L36.8521 303.364C36.2462 302.23 35.4917 300.82 35.1412 300.82C35.1244 300.82 35.1078 300.824 35.0927 300.83C35.0776 300.837 35.0644 300.846 35.0541 300.857C34.8555 301.767 34.8988 302.702 35.1808 303.596C28.6002 289.767 24.291 275.245 22.3725 260.433C20.5011 245.923 20.5436 231.283 22.4993 216.782C24.4148 202.526 28.2298 188.497 33.8719 174.961C39.3983 161.674 46.5841 148.92 55.3081 136.914C62.9697 127.813 70.1204 119.971 77.1681 112.94C85.711 104.322 93.0419 97.4597 100.238 91.3406C101.995 89.7841 104.084 87.9603 106.264 86.2368L112.403 81.2182C113.708 80.2312 115.025 79.2141 116.3 78.2305C119.167 76.0159 122.134 73.7212 125.193 71.6019C128.657 69.0233 132.354 66.5549 135.926 64.1684C136.823 63.5694 137.72 62.9682 138.619 62.3647C140.095 61.3927 141.635 60.4441 143.126 59.5256L143.146 59.5139C143.97 59.0129 144.82 58.4835 145.653 57.959L149.218 55.7545L152.881 53.6536C156.285 52.2223 158.804 51.1952 160.85 50.5005C162.411 49.9666 164.017 49.5301 165.654 49.1945C166.092 49.1083 166.54 49.0596 166.99 49.0492C167.476 49.0492 167.783 49.1427 167.931 49.3264C168.08 49.5101 168.036 49.799 167.824 50.1782C166.618 51.753 165.192 53.2007 163.579 54.4903C162.266 55.6122 161.026 56.793 159.864 58.0275C170.246 53.1471 180.963 48.7928 191.96 44.9876C186.401 47.4259 180.811 50.103 174.874 53.1709C190.978 46.5036 207.712 40.9782 224.903 36.6522C242.766 32.163 261.028 28.8925 279.512 26.8722C282.483 25.9737 287.952 24.7829 291.814 23.9663C294.621 23.5043 297.332 22.698 299.862 21.5731C300.06 21.4294 300.117 21.2858 300.06 21.1489C299.911 20.8015 298.8 20.1886 293.03 19.9915C276.099 21.3053 259.3 23.6337 242.761 26.9591C241.679 27.1067 240.587 27.1954 239.492 27.2246C238.858 27.2246 238.519 27.1545 238.49 27.0142C238.422 26.7119 239.8 26.0823 242.476 25.1888C249.876 23.0156 257.461 21.3195 265.166 20.1151C272.146 19.6024 277.158 19.3101 281.184 19.0763C284.946 18.8575 287.653 18.7005 290.141 18.4684C292.735 18.2179 295.05 17.8772 297.727 17.4429L300.499 17.0555L308.052 16C309.369 16.4537 310.791 16.6468 312.21 16.5645C313.807 16.653 315.84 16.6948 318.43 16.6948H319.817C321.288 16.663 322.84 16.648 324.433 16.648C328.967 16.648 333.573 16.7783 337.073 17.0054L337.389 16.992L338.098 16.9603L340.506 16.8534L342.197 16.82L343.671 16.795L345.453 16.7482L349.356 16.648C349.97 16.633 350.58 16.6129 351.172 16.5929H351.19C352.283 16.5561 353.315 16.5211 354.358 16.5211H354.584L357.309 16.5795L359.776 16.6313H359.893C363.874 16.705 367.844 17.0114 371.775 17.5482C374.2 17.8638 376.705 18.2245 379.428 18.6504C382.311 19.2015 385.448 19.8913 388.678 20.6077C384.783 20.6662 382.737 20.9919 382.45 21.6098C382.345 21.8269 382.468 22.0841 382.81 22.3747C383.9 23.1257 385.123 23.7281 386.434 24.16C387.286 24.494 388.272 24.828 389.316 25.1821C390.411 25.5528 391.648 25.972 392.926 26.458C403.047 29.7147 417.546 35.3763 425.465 40.1076C419.087 38.0107 412.567 36.2345 405.94 34.7884C415.048 37.435 423.91 40.6487 432.453 44.403C440.733 48.0539 448.676 52.223 456.216 56.8752C463.031 60.329 469.586 64.1346 475.845 68.2701C466.532 60.5564 456.451 53.5313 445.713 47.2722C436.748 41.9371 427.268 37.2445 417.374 33.2436C429.781 37.6074 441.849 42.6276 453.506 48.2743C463.677 53.2844 473.406 58.9077 482.617 65.1003C491.589 71.247 499.781 78.1619 507.061 85.7341C515.007 94.1081 521.643 103.308 526.809 113.108C528.676 115.847 530.333 118.381 531.795 120.624C533.339 122.984 534.797 125.213 536.213 127.244C537.231 128.867 538.235 130.402 539.207 131.885C540.67 134.12 542.051 136.227 543.35 138.44L543.672 139C545.979 142.831 548.015 146.774 549.77 150.809C552.307 156.626 554.388 162.578 556 168.625C556.174 169.684 556.188 170.267 556.039 170.41C556.029 170.421 556.016 170.43 556.001 170.436C555.987 170.442 555.97 170.445 555.954 170.446C555.681 170.446 555.14 169.61 554.663 168.886L554.623 168.826C554.12 168.054 553.647 167.322 553.413 167.322C553.4 167.323 553.386 167.325 553.374 167.331C553.362 167.336 553.352 167.343 553.344 167.353C553.242 168.463 553.392 169.579 553.786 170.643C554.649 174.919 556.226 179.07 558.471 182.973C558.982 183.89 559.509 184.837 560.031 185.932L560.178 182.338C560.124 183.85 560.285 185.959 560.453 188.183C560.495 188.731 560.536 189.292 560.578 189.853C560.596 190.167 560.615 190.483 560.633 190.8L560.643 190.967C560.798 193.616 560.958 196.357 560.962 198.65C561.03 200.172 560.872 201.695 560.491 203.184C561.273 205.689 562.061 207.93 562.758 209.908L562.77 209.941C563.166 211.072 563.544 212.139 563.887 213.164C564.414 214.761 564.932 216.244 565.435 217.674C566.018 219.335 566.568 220.905 567.091 222.537C567.77 224.997 568.641 228.382 569.348 232.818C569.62 235.016 569.764 237.439 569.867 239.52C569.894 240.323 569.921 241.158 569.95 242.025L569.998 243.473C570.012 244.495 569.954 245.556 569.893 246.676C569.871 247.075 569.849 247.481 569.83 247.892C569.875 247.479 569.843 247.062 569.735 246.658C569.418 247.89 569.212 249.141 569.119 250.399V250.416C568.994 251.354 568.867 252.324 568.723 253.255C568.626 254.609 568.298 255.944 567.748 257.219C567.74 257.229 567.73 257.238 567.717 257.244C567.705 257.251 567.691 257.255 567.677 257.256C567.57 257.256 567.495 256.976 567.447 256.398L567.406 255.327V255.289C567.378 254.589 567.342 253.682 567.299 252.532C566.839 255.463 566.529 259.212 566.166 263.546V263.557C565.891 266.852 565.572 270.587 565.164 274.316C565.075 275.709 564.843 277.123 564.62 278.491C564.503 279.206 564.382 279.939 564.281 280.662C564.172 281.33 564.065 282.035 563.97 282.651V282.661C563.754 284.066 563.532 285.519 563.259 286.907C563.049 287.784 562.845 288.655 562.649 289.5C561.93 292.582 561.263 295.491 560.378 298.018C560.274 298.056 560.162 298.077 560.049 298.078C559.483 298.078 559.132 297.48 558.823 296.954L558.794 296.906C558.469 296.353 558.16 295.832 557.681 295.832C557.087 295.832 556.285 296.73 555.233 298.559C554.621 299.614 553.922 300.984 553.096 302.749C552.425 304.307 551.473 306.169 550.368 308.327V308.337L550.354 308.362L549.805 309.436L548.405 312.532L548.031 313.367L547.613 314.293L546.643 316.242L545.768 317.979C544.989 319.53 544.321 321.119 543.769 322.738C543.076 325.023 543.346 325.527 543.837 326.035L543.93 326.135C544.377 326.611 544.843 327.102 544.385 328.884C542.991 332.973 540.88 336.862 538.12 340.423C538.563 339.818 539.021 339.205 539.464 338.612L539.484 338.586C541.068 336.458 542.716 334.262 544.074 331.977C544.619 331.094 545.195 330.202 545.754 329.34C547.031 327.366 548.348 325.332 549.397 323.228C548.568 326.035 547.455 328.778 546.073 331.426C545.929 331.718 545.783 332.013 545.637 332.311C545.025 333.56 544.391 334.851 543.657 336.152C542.905 337.341 542.132 338.566 541.336 339.827L541.183 340.069L540.526 341.112C535.529 348.689 529.648 355.826 522.969 362.416L517.305 367.612C516.35 368.482 515.39 369.356 514.426 370.232L511.335 372.695C509.264 374.332 507.189 375.973 505.111 377.617C503.703 378.619 502.247 379.621 500.843 380.595L500.814 380.615C500.073 381.126 499.307 381.654 498.558 382.175C495.57 384.364 492.36 386.293 489.251 388.157C487.934 388.949 486.572 389.767 485.267 390.582C483.841 391.505 482.324 392.305 480.857 393.087C480.114 393.479 479.346 393.884 478.603 394.298L477.338 394.986L477.288 395.013L472.14 397.813C458.579 402.77 444.501 406.65 430.087 409.405C421.524 411.044 412.607 412.639 403.156 414.327H403.12C396.246 415.556 389.137 416.832 381.488 418.237C381.83 418.128 382.383 417.968 383.024 417.784C385.834 416.972 390.537 415.613 390.549 414.898C390.549 414.791 390.448 414.701 390.238 414.631C387.46 414.778 384.696 415.081 381.965 415.538C380.488 415.752 378.969 415.97 377.442 416.159C373.642 416.705 369.323 417.438 364.588 418.33C359.618 419.379 357.216 420.149 357.245 420.685C357.273 421.166 359.2 421.413 361.065 421.652C362.848 421.879 364.671 422.113 364.731 422.549C364.762 422.773 364.335 423.03 363.442 423.337C361.158 423.69 358.849 424.077 356.616 424.454C350.891 425.418 344.972 426.415 338.647 426.943C337.837 427.015 336.985 427.095 336.235 427.165C332.538 427.511 328.71 427.866 324.644 427.923C322.722 427.982 320.759 428 318.83 428ZM231.105 416.346C233.206 416.346 235.701 416.426 238.592 416.513H238.624C239.602 416.545 240.616 416.577 241.658 416.608L242.104 416.618H242.115L242.48 416.627C235.707 415.887 229.014 415.018 222.594 414.048C222.545 414.444 223.16 415.284 227.865 416.441C228.699 416.38 229.759 416.346 231.093 416.346H231.105ZM499.43 93.7221C505.801 101.12 511.584 108.865 516.741 116.908C522.128 125.32 526.94 133.984 531.155 142.859C540.139 162.082 547.059 181.947 551.831 202.214C555.947 218.852 557.882 235.822 557.6 252.817C557.905 250.603 558.194 248.079 558.409 245.521C558.741 240.188 558.587 234.842 557.95 229.53C558.245 230.829 558.544 231.081 558.861 231.348C559.229 231.661 559.653 232.016 560.136 234.107C559.499 229.844 559.059 226.173 558.673 222.934C558.475 221.224 558.277 219.609 558.079 218.141C557.859 216.102 557.722 214.238 557.669 212.602C557.54 210.726 557.499 209.474 557.524 208.411C557.51 206.726 557.752 205.046 558.245 203.413C557.664 202.771 557.154 202.086 556.722 201.365C553.542 186.866 548.075 172.79 540.468 159.513C539.524 157.806 538.573 156.108 537.653 154.466L537.607 154.386C532.014 144.828 527.086 135.003 522.846 124.963C523.171 123.194 523.533 121.105 523.777 119.015C523.165 118.165 522.553 117.297 521.961 116.457L521.929 116.412C520.826 114.847 519.686 113.229 518.509 111.662L512.905 104.494C512.836 104.267 512.801 104.034 512.8 103.799C512.769 103.06 512.735 102.223 509.646 98.6221C507.85 96.8251 506.826 95.95 506.511 95.95C506.494 95.9492 506.478 95.9522 506.463 95.9586C506.449 95.9651 506.436 95.9748 506.428 95.9867C506.877 97.4792 507.598 98.904 508.564 100.21C510.218 102.994 512.091 106.149 511.638 106.804C511.613 106.84 511.577 106.871 511.533 106.892C511.49 106.913 511.44 106.924 511.39 106.924C507.58 102.351 503.554 97.909 499.43 93.7221ZM151.422 62.6369C116.387 79.8755 86.1506 104.529 66.3084 132.055C82.386 111.723 102.368 93.7913 125.433 78.997C133.55 72.9497 142.243 67.4757 151.424 62.6303L151.422 62.6369ZM475.534 70.5548C480.088 74.2457 484.58 78.2522 488.863 82.4608C489.06 82.5959 489.287 82.6964 489.53 82.7564C489.54 82.7571 489.549 82.7558 489.558 82.7526C489.567 82.7494 489.574 82.7444 489.58 82.738C489.598 82.7146 489.58 82.6679 489.548 82.596C485.645 77.9938 480.917 73.9315 475.534 70.5548ZM343.524 21.8336C339.726 22.1559 338.682 22.9074 338.162 23.6022C338.008 23.8226 337.875 24.0533 337.766 24.2919L337.675 24.4723C349.255 24.8468 360.794 25.8661 372.216 27.5235C370.875 27.2112 369.82 26.9507 368.895 26.7085C369.093 26.63 369.196 26.5415 369.174 26.4347C368.929 25.2255 352.6 22.4665 343.524 21.8403V21.8336Z" fill="#138944"/>
        <path d="M492.097 208.519C489.475 201.513 487.279 195.849 485.771 191.921L484.821 189.531C484.722 189.269 484.624 189.04 484.526 188.811L483.936 187.272L483.477 186.061L483.28 185.57V185.504C482.625 183.769 482.264 182.623 481.871 181.085C481.51 179.611 480.658 176.141 480.331 165.632C480.167 160.133 480.199 154.502 480.429 148.904C482.264 148.118 485.607 146.35 488.426 142.945C490.72 140.228 491.802 137.282 491.573 134.434C491.343 131.422 490.065 128.901 487.902 127.33C485.247 125.333 482.166 125.431 480.265 125.758L476.168 108.276C476.004 107.556 475.414 107.065 474.693 107L448.505 105.166L422.383 102.875C421.498 102.809 420.711 103.464 420.613 104.348C419.695 113.285 419.007 122.484 418.581 131.618C418.319 137.609 418.188 142.782 418.188 147.234C418.188 169.725 421.4 173.948 424.775 176.076C428.446 178.367 433.395 178.531 439.59 176.567C439.131 179.742 438.705 182.918 438.345 186.028C438.279 186.584 438.214 187.141 438.181 187.73C438.05 188.712 437.951 189.662 437.853 190.611C437.066 198.337 436.575 206.161 436.345 213.92C436.345 214.64 436.804 215.295 437.46 215.524L467.613 225.706C467.613 225.706 467.974 225.804 468.138 225.804C468.466 225.804 468.793 225.706 469.056 225.509L491.474 210.45C492.097 210.025 492.359 209.239 492.097 208.519Z" fill="#F1F1F1"/>
        <path d="M496.398 426.156C497.12 429.725 498.594 433.162 500.659 436.141C503.544 440.299 507.083 442.918 510.033 444.522L512.098 433.162C512.131 432.966 512.229 432.769 512.328 432.606L518.194 423.046L508.558 415.975L506.559 416.957L496.398 426.156Z" fill="white"/>
        <path d="M492.986 425.829C493.74 430.183 495.477 434.406 497.968 438.008C501.934 443.737 507.014 446.847 510.586 448.451C510.783 448.549 511.013 448.582 511.242 448.582C511.504 448.582 511.766 448.516 512.029 448.385C512.455 448.156 512.782 447.731 512.881 447.24L515.273 434.046L521.763 423.505C522.222 422.785 522.025 421.835 521.337 421.312L509.702 412.767C509.21 412.374 508.554 412.341 508.03 412.603L504.916 414.109C504.916 414.109 504.654 414.273 504.523 414.371L493.51 424.323C493.084 424.716 492.888 425.273 492.986 425.829ZM500.655 436.142C498.59 433.162 497.116 429.725 496.395 426.157L506.555 416.957L508.554 415.975L518.19 423.047L512.324 432.606C512.324 432.606 512.127 432.966 512.094 433.162L510.029 444.522C507.079 442.918 503.54 440.299 500.655 436.142Z" fill="#138944"/>
        <path d="M418.181 113.449C407.791 104.675 405.923 98.4221 406.611 94.068C407.693 87.2914 415.985 78.9433 415.887 79.0743C426.343 70.006 434.635 68.4018 440.272 68.5983C449.286 68.9256 450.334 73.8035 464.297 76.3898C476.031 78.5832 480.75 76.1606 485.863 80.7439C488.551 83.1337 489.895 86.7348 492.55 93.9044C495.303 101.369 496.712 105.133 496.122 109.356C495.368 114.824 492.025 120.749 487.601 124.579C484.716 127.1 482.029 128.704 480.324 132.469C479.997 133.189 479.407 134.663 478.686 134.63C478.423 134.63 477.833 134.368 476.948 131.258C476.195 128.573 476.096 126.806 475.605 123.368C475.179 120.324 475.113 119.243 474.49 117.508C473.671 115.282 472.622 113.776 472.425 113.547C468.197 107.883 447.548 118.392 424.638 114.856C421.819 114.431 419.591 113.842 418.214 113.481L418.181 113.449Z" fill="#138944"/>
        <path d="M458.12 137.674C457.76 140.162 456.35 142.028 454.974 141.832C453.63 141.636 452.811 139.442 453.171 136.954C453.532 134.466 454.941 132.6 456.318 132.796C457.661 132.993 458.481 135.186 458.12 137.674Z" fill="#138944"/>
        <path d="M434.738 134.761C434.377 137.249 432.968 139.115 431.591 138.919C430.247 138.722 429.428 136.529 429.788 134.041C430.149 131.553 431.558 129.687 432.935 129.883C434.279 130.08 435.098 132.273 434.738 134.761Z" fill="#138944"/>
        <path d="M435.32 160.036C435.32 160.036 444.956 162.36 450.496 162.229C450.496 162.229 448.791 169.006 441.122 167.238C435.32 165.896 435.32 160.036 435.32 160.036Z" fill="#138944"/>
        <path d="M464.612 131.684C464.874 131.684 465.136 131.618 465.366 131.454C465.988 131.029 466.152 130.21 465.726 129.621C465.53 129.327 460.679 122.255 452.78 124.285C452.059 124.481 451.633 125.202 451.829 125.922C452.026 126.642 452.747 127.068 453.468 126.871C459.499 125.333 463.399 130.898 463.563 131.127C463.825 131.52 464.251 131.716 464.677 131.716L464.612 131.684Z" fill="#138944"/>
        <path d="M440.014 126.674C440.375 126.674 440.735 126.51 441.03 126.216C441.522 125.659 441.457 124.808 440.899 124.35C434.803 118.981 427.232 123.073 426.937 123.237C426.281 123.597 426.052 124.415 426.412 125.037C426.773 125.692 427.592 125.921 428.215 125.561C428.477 125.43 434.443 122.222 439.129 126.347C439.392 126.576 439.687 126.674 440.014 126.674Z" fill="#138944"/>
        <path d="M444.39 152.341C444.947 152.341 445.471 152.014 445.635 151.457C445.865 150.77 445.504 150.017 444.816 149.755L438.097 147.398C444.685 136.267 444.783 136.005 444.816 135.841C445.045 135.154 444.685 134.401 443.964 134.172C443.308 133.943 442.587 134.27 442.325 134.892C441.964 135.58 437.736 142.749 434.95 147.463C434.754 147.791 434.721 148.216 434.852 148.609C434.983 148.969 435.278 149.264 435.671 149.395L443.931 152.276C443.931 152.276 444.226 152.341 444.357 152.341H444.39Z" fill="#138944"/>
        <path d="M319.575 173.162L343.731 272.455C344.157 274.223 342.912 275.925 341.109 276.089L265.167 283.062C263.693 283.193 262.349 282.243 262.021 280.803L237.865 181.51C237.439 179.742 238.685 178.04 240.487 177.876L316.429 170.903C317.904 170.772 319.248 171.721 319.575 173.162Z" fill="white"/>
        <path d="M286.664 235.429C291.117 235.429 294.727 231.823 294.727 227.376C294.727 222.928 291.117 219.322 286.664 219.322C282.211 219.322 278.602 222.928 278.602 227.376C278.602 231.823 282.211 235.429 286.664 235.429Z" fill="#138944"/>
        <path d="M248.909 243.514C250.482 248.097 251.171 249.963 252.547 250.487C254.481 251.175 257.464 249.472 262.445 244.824C264.543 242.859 266.084 241.419 267.198 238.898C267.526 238.145 270.344 231.368 267.264 227.211C266.805 226.589 266.182 225.738 265.199 225.476C265.002 225.41 264.805 225.377 264.609 225.377C263.757 225.377 262.806 225.901 261.167 226.916C260.25 227.473 259.201 228.095 257.955 228.717C254.612 230.386 252.252 230.812 250.712 231.107C249.86 231.27 249.237 231.368 249.007 231.532C249.007 231.532 248.778 231.761 248.581 232.056C247.729 233.267 246.746 237.228 248.909 243.514Z" fill="white"/>
        <path d="M244.32 236.509C244.32 238.768 244.746 241.485 245.795 244.595C247.532 249.702 248.516 252.518 251.433 253.565C252.121 253.794 252.809 253.925 253.498 253.925C256.775 253.925 260.315 251.306 264.674 247.214C266.903 245.152 268.804 243.351 270.18 240.241C270.869 238.702 273.982 230.813 269.885 225.28C269.263 224.462 268.148 222.923 266.083 222.334C263.658 221.613 261.692 222.759 259.463 224.102C258.611 224.625 257.66 225.215 256.48 225.771C253.563 227.244 251.564 227.604 250.122 227.866C248.876 228.095 247.827 228.292 246.877 229.045C246.713 229.176 246.287 229.601 245.861 230.191C245.009 231.467 244.32 233.628 244.32 236.509ZM248.581 232.057C248.778 231.762 249.007 231.533 249.007 231.533C249.237 231.369 249.859 231.271 250.712 231.107C252.252 230.813 254.612 230.387 257.955 228.718C259.201 228.096 260.249 227.473 261.167 226.917C262.806 225.902 263.756 225.378 264.609 225.378C264.805 225.378 265.002 225.411 265.199 225.477C266.182 225.738 266.805 226.59 267.263 227.212C270.344 231.369 267.526 238.146 267.198 238.899C266.084 241.42 264.543 242.86 262.445 244.824C257.463 249.473 254.481 251.175 252.547 250.488C251.17 249.964 250.482 248.098 248.909 243.515C246.746 237.229 247.729 233.268 248.581 232.057Z" fill="#138944"/>
        <path d="M590.785 340.255C590.72 341.171 590.556 342.186 590.327 343.267C590.064 344.38 589.769 345.395 589.442 346.278C588.852 347.883 587.934 349.323 586.82 350.567C564.663 375.939 542.474 401.277 520.317 426.616C517.499 424.652 514.582 422.557 511.665 420.331C509.01 418.301 506.453 416.304 504.028 414.34L549.16 348.734C551.487 345.329 551.979 341.008 550.406 337.177C541.458 315.571 532.576 293.997 523.661 272.39C523.431 271.899 523.234 271.375 523.005 270.884C522.808 271.571 522.579 272.259 522.382 272.946C522.284 273.307 522.153 273.667 522.054 274.027C521.956 274.387 521.858 274.714 521.759 275.074C521.465 276.089 521.202 277.039 520.94 278.021C520.94 278.021 520.929 278.043 520.907 278.086C517.859 288.955 515.04 301.363 512.943 315.211C512.156 320.514 511.468 326.047 510.911 331.743C508.289 359.112 509.764 382.879 512.222 401.376C498.161 406.155 476.857 411.59 450.57 411.622C421.957 411.655 399.047 405.337 384.56 400.066C384.822 387.528 384.888 374.596 384.691 361.305C384.429 346.802 383.872 332.692 383.052 319.041C382.495 309.547 381.807 300.282 380.987 291.247C380.987 291.116 380.987 290.985 380.987 290.887C372.072 307.877 363.124 324.868 354.177 341.892C349.457 350.829 337.1 352.106 330.676 344.281C306.848 315.341 283.053 286.402 259.258 257.462C263.093 253.173 262.044 254.351 265.879 250.063C289.117 265.319 312.355 280.574 335.626 295.797C346.442 267.545 359.519 241.748 374.432 218.111C374.563 217.882 374.694 217.653 374.858 217.424C375.415 216.54 376.497 215.132 378.136 213.724C380.037 212.153 381.971 211.302 382.823 210.942C386.363 209.468 407.929 201.448 437.788 190.546C438.607 190.251 439.459 189.957 440.312 189.629C443.851 189.564 447.391 189.499 450.931 189.433C453.52 190.153 456.503 190.644 459.748 190.677H459.977C463.845 190.677 467.352 190.022 470.334 189.04C473.743 188.975 477.119 188.909 480.528 188.844C481.412 189.171 482.297 189.499 483.182 189.826C501.93 196.701 520.678 203.576 539.393 210.451C549.488 214.117 557.19 222.367 560.238 232.679L590.327 335.279C590.785 336.883 590.982 338.585 590.818 340.255H590.785Z" fill="#138944"/>
        <path d="M487 191.792C482.104 193.958 475.821 196.083 468.354 197.208C465.254 197.667 462.316 197.917 459.623 198H459.297C449.505 197.917 441.508 194.875 436 191.917C436.245 189.333 436.49 186.75 436.775 184.208C436.775 183.75 436.898 183.292 436.938 182.833C438.53 183.875 440.57 185.042 442.977 186.083C444.609 186.833 446.404 187.5 448.362 188.083C451.586 189 455.298 189.625 459.338 189.667H459.623C464.438 189.667 468.803 188.833 472.516 187.583C475.168 186.708 477.208 185.708 477.82 185.417C480.105 184.292 482.022 183.083 483.491 182C484.674 185.25 485.817 188.5 487 191.75V191.792Z" fill="#138944"/>
        <path d="M207.502 124.079V325.213C207.502 329.108 204.334 332.272 200.435 332.272H29.1136C25.2147 332.272 22.0469 329.108 22.0469 325.213V124.079C22.0469 120.2 25.2147 117.036 29.1136 117.036H200.435C204.334 117.036 207.502 120.2 207.502 124.079Z" fill="#138944"/>
        <path d="M197.388 113.993H26.0667C22.1678 113.993 19 117.157 19 121.036V322.171C19 326.065 22.1678 329.229 26.0667 329.229H197.388C201.287 329.229 204.455 326.065 204.455 322.171V121.036C204.455 117.157 201.287 113.993 197.388 113.993ZM202.932 322.171C202.932 325.228 200.434 327.708 197.388 327.708H26.0667C23.0055 327.708 20.523 325.228 20.523 322.171V131.745H202.932V322.171ZM202.932 130.224H20.523V121.036C20.523 117.994 23.0055 115.514 26.0667 115.514H197.388C200.434 115.514 202.932 117.994 202.932 121.036V130.224Z" fill="#138944"/>
        <path d="M202.932 131.746V322.171C202.932 325.229 200.435 327.708 197.389 327.708H26.0671C23.0059 327.708 20.5234 325.229 20.5234 322.171V131.746H202.932Z" fill="white"/>
        <path d="M202.932 121.036V130.224H20.5234V121.036C20.5234 117.994 23.0059 115.514 26.0671 115.514H197.389C200.435 115.514 202.932 117.994 202.932 121.036Z" fill="white"/>
        <path d="M142.576 292.263H86.9712C82.0367 292.263 78.0312 296.264 78.0312 301.193C78.0312 306.121 82.0367 310.137 86.9712 310.137H142.576C147.51 310.137 151.516 306.121 151.516 301.193C151.516 296.264 147.51 292.263 142.576 292.263ZM142.576 308.616H86.9712C82.8744 308.616 79.5542 305.285 79.5542 301.193C79.5542 297.101 82.8744 293.784 86.9712 293.784H142.576C146.673 293.784 149.993 297.101 149.993 301.193C149.993 305.285 146.673 308.616 142.576 308.616Z" fill="#138944"/>
        <path d="M149.985 301.193C149.985 305.286 146.665 308.617 142.568 308.617H86.9639C82.867 308.617 79.5469 305.286 79.5469 301.193C79.5469 297.101 82.867 293.785 86.9639 293.785H142.568C146.665 293.785 149.985 297.101 149.985 301.193Z" fill="#138944"/>
        <path d="M165.433 280.626H58.0317C52.2291 280.626 47.5078 275.91 47.5078 270.115C47.5078 264.319 52.2291 259.603 58.0317 259.603H165.433C171.236 259.603 175.957 264.319 175.957 270.115C175.957 275.91 171.236 280.626 165.433 280.626ZM58.0317 261.124C53.0667 261.124 49.0308 265.155 49.0308 270.115C49.0308 275.074 53.0667 279.105 58.0317 279.105H165.433C170.398 279.105 174.434 275.074 174.434 270.115C174.434 265.155 170.398 261.124 165.433 261.124H58.0317Z" fill="#138944"/>
        <path d="M165.433 245.638H58.0317C52.2291 245.638 47.5078 240.923 47.5078 235.127C47.5078 229.331 52.2291 224.615 58.0317 224.615H165.433C171.236 224.615 175.957 229.331 175.957 235.127C175.957 240.923 171.236 245.638 165.433 245.638ZM58.0317 226.136C53.0667 226.136 49.0308 230.168 49.0308 235.127C49.0308 240.086 53.0667 244.117 58.0317 244.117H165.433C170.398 244.117 174.434 240.086 174.434 235.127C174.434 230.168 170.398 226.136 165.433 226.136H58.0317Z" fill="#138944"/>
        <path d="M111.718 149.224C94.7671 149.224 80.9688 163.006 80.9688 179.953C80.9688 196.899 94.7671 210.681 111.718 210.681C128.669 210.681 142.482 196.884 142.482 179.953C142.482 163.022 128.684 149.224 111.718 149.224ZM111.718 209.16C101.148 209.16 91.9038 203.501 86.7561 195.073C91.0662 191.985 99.4274 187.239 110.728 186.859C123.049 186.448 132.263 191.362 136.969 194.617C131.898 203.288 122.486 209.16 111.718 209.16ZM110.682 185.338C99.0771 185.718 90.457 190.571 85.9794 193.765C83.7558 189.658 82.4917 184.942 82.4917 179.953C82.4917 163.843 95.6047 150.745 111.718 150.745C127.831 150.745 140.959 163.843 140.959 179.953C140.959 184.744 139.771 189.278 137.715 193.278C132.796 189.901 123.323 184.912 110.682 185.338Z" fill="#138944"/>
        <path d="M136.971 194.616C131.899 203.287 122.487 209.159 111.72 209.159C100.952 209.159 91.9055 203.5 86.7578 195.073C91.0679 191.985 99.4291 187.238 110.73 186.858C123.051 186.447 132.265 191.361 136.971 194.616Z" fill="#138944"/>
        <path d="M111.707 160.116C106.484 160.116 102.234 164.36 102.234 169.593C102.234 174.826 106.484 179.055 111.707 179.055C116.931 179.055 121.196 174.811 121.196 169.593C121.196 164.376 116.946 160.116 111.707 160.116ZM111.707 177.534C107.321 177.534 103.757 173.974 103.757 169.593C103.757 165.212 107.321 161.637 111.707 161.637C116.094 161.637 119.673 165.197 119.673 169.593C119.673 173.99 116.109 177.534 111.707 177.534Z" fill="#138944"/>
        <path d="M119.689 169.593C119.689 173.974 116.125 177.533 111.723 177.533C107.322 177.533 103.773 173.974 103.773 169.593C103.773 165.212 107.337 161.637 111.723 161.637C116.11 161.637 119.689 165.196 119.689 169.593Z" fill="#138944"/>
        <path d="M243.064 94.9928L203.938 88.5733C203.284 88.482 202.583 88.4668 201.928 88.5733L162.802 94.9928C159.787 95.4796 157.594 98.0504 157.594 101.108V134.803C157.594 149.163 165.468 162.337 178.124 169.182L180.484 170.46C185.784 173.32 191.084 176.18 196.369 179.04L202.933 182.584L208.995 179.314C215.178 175.967 221.346 172.635 227.575 169.274L227.743 169.182C240.399 162.337 248.273 149.163 248.273 134.803V101.108C248.273 98.0504 246.08 95.4796 243.064 94.9928ZM246.75 134.803C246.75 148.6 239.18 161.272 226.981 167.859L226.814 167.965C220.63 171.297 214.447 174.628 208.264 177.975L202.933 180.85L197.1 177.701C191.8 174.841 186.5 171.981 181.215 169.121L178.855 167.844C166.686 161.272 159.117 148.6 159.117 134.803V101.108C159.117 98.811 160.777 96.8639 163.046 96.4988L202.172 90.0793C202.415 90.0337 202.674 90.0184 202.933 90.0184C203.192 90.0184 203.451 90.0337 203.695 90.0793L242.82 96.4988C243.947 96.6813 244.937 97.2594 245.638 98.0809C246.339 98.9023 246.75 99.9672 246.75 101.108V134.803Z" fill="#138944"/>
        <path d="M245.631 98.0815C244.93 97.26 243.94 96.682 242.813 96.4994L203.687 90.0799C203.444 90.0343 203.185 90.019 202.926 90.019C202.667 90.019 202.408 90.0343 202.164 90.0799L163.039 96.4994C160.769 96.8645 159.109 98.8116 159.109 101.109V134.804C159.109 148.601 166.679 161.273 178.847 167.844L181.208 169.122C186.493 171.982 191.793 174.842 197.093 177.702L202.926 180.851L208.256 177.976C214.44 174.629 220.623 171.297 226.806 167.966L226.974 167.859C239.173 161.273 246.742 148.601 246.742 134.804V101.109C246.742 99.9678 246.331 98.9029 245.631 98.0815ZM222.694 149.848C222.694 151.582 221.278 153.012 219.526 153.012H186.325C184.574 153.012 183.157 151.582 183.157 149.848V128.049C183.157 126.315 184.574 124.9 186.325 124.9H188.732V121.812C188.732 113.993 195.098 107.635 202.926 107.635C210.754 107.635 217.12 113.993 217.12 121.812V124.9H219.526C221.278 124.9 222.694 126.315 222.694 128.049V149.848Z" fill="white"/>
        <path d="M219.525 124.9H217.119V121.811C217.119 113.992 210.753 107.634 202.925 107.634C195.097 107.634 188.73 113.992 188.73 121.811V124.9H186.324C184.573 124.9 183.156 126.314 183.156 128.048V149.847C183.156 151.582 184.573 153.012 186.324 153.012H219.525C221.277 153.012 222.693 151.582 222.693 149.847V128.048C222.693 126.314 221.277 124.9 219.525 124.9ZM190.253 121.811C190.253 114.829 195.934 109.155 202.925 109.155C209.915 109.155 215.596 114.829 215.596 121.811V124.884H212.794V122.009C212.794 116.579 208.362 112.152 202.925 112.152C197.488 112.152 193.056 116.579 193.056 122.009V124.884H190.253V121.811ZM211.271 122.009V124.884H194.579V122.009C194.579 117.415 198.325 113.673 202.925 113.673C207.524 113.673 211.271 117.415 211.271 122.009ZM221.17 149.847C221.17 150.745 220.439 151.49 219.525 151.49H186.324C185.41 151.49 184.679 150.745 184.679 149.847V128.048C184.679 127.151 185.41 126.421 186.324 126.421H219.525C220.439 126.421 221.17 127.151 221.17 128.048V149.847Z" fill="#138944"/>
        <path d="M215.6 121.812V124.885H212.798V122.01C212.798 116.579 208.366 112.153 202.929 112.153C197.492 112.153 193.06 116.579 193.06 122.01V124.885H190.258V121.812C190.258 114.83 195.939 109.156 202.929 109.156C209.92 109.156 215.6 114.83 215.6 121.812Z" fill="#138944"/>
        <path d="M211.27 122.009V124.884H194.578V122.009C194.578 117.415 198.325 113.673 202.924 113.673C207.524 113.673 211.27 117.415 211.27 122.009Z" fill="white"/>
        <path d="M219.534 126.421H186.332C185.419 126.421 184.688 127.151 184.688 128.049V149.848C184.688 150.745 185.419 151.49 186.332 151.49H219.534C220.447 151.49 221.178 150.745 221.178 149.848V128.049C221.178 127.151 220.447 126.421 219.534 126.421ZM205.705 139.397V143.276C205.705 144.797 204.456 146.045 202.933 146.045C201.41 146.045 200.161 144.797 200.161 143.276V139.397C199.613 138.743 199.308 137.921 199.308 137.054C199.308 135.046 200.938 133.434 202.933 133.434C204.928 133.434 206.558 135.046 206.558 137.054C206.558 137.921 206.253 138.743 205.705 139.397Z" fill="#138944"/>
        <path d="M202.937 133.434C200.942 133.434 199.312 135.047 199.312 137.055C199.312 137.922 199.617 138.743 200.165 139.397V143.276C200.165 144.798 201.414 146.045 202.937 146.045C204.46 146.045 205.709 144.798 205.709 143.276V139.397C206.257 138.743 206.562 137.922 206.562 137.055C206.562 135.047 204.932 133.434 202.937 133.434ZM204.415 138.561C204.262 138.713 204.186 138.895 204.186 139.108V143.276C204.186 143.961 203.623 144.524 202.937 144.524C202.252 144.524 201.688 143.961 201.688 143.276V139.108C201.688 138.895 201.612 138.713 201.46 138.561C201.064 138.165 200.835 137.617 200.835 137.055C200.835 135.898 201.78 134.955 202.937 134.955C204.095 134.955 205.039 135.898 205.039 137.055C205.039 137.617 204.811 138.165 204.415 138.561Z" fill="#138944"/>
        <path d="M205.024 137.054C205.024 137.617 204.795 138.165 204.399 138.56C204.247 138.712 204.171 138.895 204.171 139.108V143.276C204.171 143.96 203.608 144.523 202.922 144.523C202.237 144.523 201.673 143.96 201.673 143.276V139.108C201.673 138.895 201.597 138.712 201.445 138.56C201.049 138.165 200.82 137.617 200.82 137.054C200.82 135.898 201.765 134.955 202.922 134.955C204.08 134.955 205.024 135.898 205.024 137.054Z" fill="white"/>
        <path d="M148.607 273.203C150.315 273.203 151.699 271.82 151.699 270.115C151.699 268.409 150.315 267.027 148.607 267.027C146.9 267.027 145.516 268.409 145.516 270.115C145.516 271.82 146.9 273.203 148.607 273.203Z" fill="#138944"/>
        <path d="M133.381 273.203C135.088 273.203 136.472 271.82 136.472 270.115C136.472 268.409 135.088 267.027 133.381 267.027C131.673 267.027 130.289 268.409 130.289 270.115C130.289 271.82 131.673 273.203 133.381 273.203Z" fill="#138944"/>
        <path d="M118.146 273.203C119.854 273.203 121.238 271.82 121.238 270.115C121.238 268.409 119.854 267.027 118.146 267.027C116.439 267.027 115.055 268.409 115.055 270.115C115.055 271.82 116.439 273.203 118.146 273.203Z" fill="#138944"/>
        <path d="M102.912 273.203C104.619 273.203 106.004 271.82 106.004 270.115C106.004 268.409 104.619 267.027 102.912 267.027C101.205 267.027 99.8203 268.409 99.8203 270.115C99.8203 271.82 101.205 273.203 102.912 273.203Z" fill="#138944"/>
        <path d="M87.6854 273.203C89.3929 273.203 90.7771 271.82 90.7771 270.115C90.7771 268.409 89.3929 267.027 87.6854 267.027C85.9779 267.027 84.5938 268.409 84.5938 270.115C84.5938 271.82 85.9779 273.203 87.6854 273.203Z" fill="#138944"/>
        <path d="M72.451 273.203C74.1585 273.203 75.5427 271.82 75.5427 270.115C75.5427 268.409 74.1585 267.027 72.451 267.027C70.7436 267.027 69.3594 268.409 69.3594 270.115C69.3594 271.82 70.7436 273.203 72.451 273.203Z" fill="#138944"/>
        <path d="M60.578 125.874C62.2434 125.874 63.5935 124.525 63.5935 122.862C63.5935 121.198 62.2434 119.85 60.578 119.85C58.9126 119.85 57.5625 121.198 57.5625 122.862C57.5625 124.525 58.9126 125.874 60.578 125.874Z" fill="#138944"/>
        <path d="M45.3436 125.874C47.0091 125.874 48.3592 124.525 48.3592 122.862C48.3592 121.198 47.0091 119.85 45.3436 119.85C43.6782 119.85 42.3281 121.198 42.3281 122.862C42.3281 124.525 43.6782 125.874 45.3436 125.874Z" fill="#138944"/>
        <path d="M30.1171 125.874C31.7825 125.874 33.1326 124.525 33.1326 122.862C33.1326 121.198 31.7825 119.85 30.1171 119.85C28.4517 119.85 27.1016 121.198 27.1016 122.862C27.1016 124.525 28.4517 125.874 30.1171 125.874Z" fill="#138944"/>
    </g>
    <defs>
        <clipPath id="clip0_51_8837">
            <rect width="591" height="472" fill="white"/>
        </clipPath>
    </defs>
</svg>
