<svg width="658" height="508" viewBox="0 0 658 508" fill="none" xmlns="http://www.w3.org/2000/svg">
    <g clip-path="url(#clip0_51_8647)">
        <path opacity="0.2" d="M274.254 508C265.516 507.996 256.786 507.492 248.106 506.491C238.218 504.234 228.241 501.616 218.591 499.083L216.146 498.443C211.281 499.636 206.282 500.2 201.272 500.122C192.197 499.937 183.153 499.005 174.231 497.334C162.515 495.264 149.311 492.537 135.323 489.658C129.239 488.401 122.951 487.103 116.414 485.781C112.866 483.55 108.969 481.929 104.886 480.983C103.375 480.559 101.814 480.024 100.161 479.47C98.8307 479.019 97.4593 478.553 96.0495 478.121C94.9783 477.762 93.8567 477.416 92.7735 477.083C90.66 476.432 88.484 475.763 86.3729 474.907C73.562 470.661 60.8256 463.872 57.9843 459.772C56.1178 458.771 54.412 457.497 52.9239 455.991C52.0007 455.129 51.2551 454.095 50.7287 452.947C50.4654 452.262 50.3654 451.525 50.4367 450.795C50.508 450.064 50.7486 449.361 51.1394 448.739C40.6926 441.178 31.7991 431.681 24.9436 420.765C18.5285 410.278 14.0039 398.749 11.5755 386.701C10.5842 389.226 10.0397 391.905 9.96633 394.617C9.88657 398.298 10.1091 401.979 10.6316 405.623C11.3129 410.023 12.4353 414.342 13.982 418.518L13.2615 416.973L12.1495 414.574C11.8013 413.777 11.5082 412.966 11.2224 412.175C11.0327 411.652 10.8574 411.165 10.6652 410.68C10.1032 409.145 9.49799 407.677 8.9648 406.384C8.61415 405.534 8.28751 404.74 8.0041 404.002C8.28511 405.309 8.77987 406.842 9.35388 408.62C9.59406 409.339 9.83423 410.083 10.0744 410.858C10.2257 411.299 10.3674 411.748 10.5163 412.223C10.8141 413.17 11.1216 414.142 11.5275 415.101C12.1519 416.541 12.8004 418.057 13.4488 419.595C13.689 420.139 13.9292 420.703 14.1694 421.25C14.5945 422.248 15.0316 423.282 15.536 424.27L17.246 427.415L18.005 428.809C18.3052 429.346 18.5982 429.898 18.884 430.428C19.3884 431.371 19.9071 432.347 20.4499 433.235L22.9405 437.04L22.9669 437.08L23.0438 437.2C24.4608 439.549 25.8731 441.598 27.0067 443.246C28.0902 444.63 29.0045 446.138 29.7302 447.739C29.8455 448.082 29.8551 448.322 29.7615 448.459C29.726 448.501 29.6805 448.535 29.629 448.556C29.5775 448.578 29.5216 448.586 29.4661 448.581C27.0676 447.637 24.8805 446.228 23.0318 444.433L21.8525 442.96L21.8117 442.91C18.8499 439.47 16.2052 435.77 13.91 431.856C12.5506 429.529 11.5803 427.804 10.7589 426.261C9.94471 424.388 9.22659 422.663 8.56851 421.005L8.50367 420.84C7.87441 419.235 7.28118 417.721 6.79363 416.248L6.40935 414.737L6.38293 414.634C6.13475 413.658 5.89458 412.705 5.66241 411.774C5.56634 411.354 5.47027 410.938 5.3742 410.527L5.35739 410.455C4.77232 408.196 4.34379 405.899 4.07486 403.582L3.69778 400.703L3.0349 395.629C2.81875 392.544 2.55455 389.795 2.21591 386.979C1.85325 383.152 1.44495 378.894 0.964602 373.861L0.928576 373.478L0.00390625 363.819C0.10371 363.95 0.228563 364.06 0.371218 364.143C0.513873 364.225 0.671486 364.278 0.834908 364.299C2.45849 364.299 2.80434 357.623 3.20302 349.891C3.37355 346.574 3.55128 343.145 3.84189 339.924C4.00054 335.573 4.65073 331.254 5.78009 327.049C5.97223 326.66 6.15236 326.471 6.33009 326.471C6.92812 326.471 7.54777 328.63 8.47484 333.883C8.95519 324.748 9.81261 314.881 11.1023 303.721C11.1768 299.883 11.148 296.333 11.0759 291.842C9.63489 298.739 8.91436 301.553 8.65978 301.553C8.65384 301.553 8.64797 301.552 8.64258 301.549C8.63718 301.547 8.6324 301.543 8.62856 301.538C8.49061 300.759 8.46071 299.963 8.53969 299.175C8.53969 298.936 8.53969 298.667 8.5517 298.408C8.67478 297.369 8.58323 296.316 8.28271 295.313C8.26929 295.298 8.253 295.287 8.23483 295.278C8.21666 295.27 8.19699 295.266 8.17703 295.265C7.8624 295.265 7.35083 296.35 6.60869 298.578C8.03198 278.867 10.8093 259.277 14.9211 239.946C19.0334 220.842 24.8769 202.15 32.3794 184.104C47.1263 148.614 69.5306 116.811 97.9949 90.9627C108.563 82.7895 119.459 75.0146 131.276 67.1941C143.095 59.6398 154.126 53.0572 165.001 47.0742L173.599 42.5403L177.901 40.2613L182.267 38.131L191.012 33.8345L199.658 29.9195L199.898 29.8115C202.499 28.5833 205.358 27.343 208.893 25.9013L212.395 24.4403L218.01 22.0966C221.092 20.9275 224.187 19.7512 227.295 18.5677L231.974 16.7925L236.719 15.1661C240.637 14.3936 243.944 13.8251 246.555 13.4868C248.058 13.3024 249.57 13.2031 251.084 13.1893C251.507 13.1893 251.91 13.1893 252.285 13.2205C253.726 13.3117 254.526 13.5828 254.735 14.0554C254.872 14.3648 254.752 14.7486 254.367 15.2332C252.82 16.7505 251.078 18.0557 249.187 19.1147C247.025 20.5109 244.564 22.0942 242.962 23.3296C247.65 22.0918 252.468 21.0722 257.132 20.0887L257.201 20.0743C259.029 19.688 260.919 19.2874 262.774 18.8748C268.821 17.7137 275.849 16.3823 282.739 15.2764C275.738 17.1188 268.826 19.1363 262.99 20.8707L261.858 21.2306L261.81 21.245L261.755 21.2617L260.646 21.6144C277.547 18.0664 295.231 15.2428 313.179 13.2181C324.98 11.8723 336.847 11.1884 348.725 11.1694C361.175 11.1565 373.612 11.9779 385.952 13.6283C386.261 13.602 386.578 13.578 386.927 13.554C388.733 13.4388 390.988 13.3669 393.157 13.3141C394.43 13.3309 395.746 13.3885 397.021 13.4436C398.054 13.4892 399.111 13.5348 400.127 13.5588C401.637 13.6044 402.903 13.6259 403.996 13.6259C408.197 13.6259 410.209 13.2973 410.336 12.5872C410.481 11.774 408.091 10.4786 403.033 8.62418L395.804 7.18482C394.23 6.88015 392.619 6.69064 391.06 6.50592C390.212 6.40517 389.355 6.30441 388.512 6.18686C386.831 5.99255 385.149 5.77425 383.499 5.56074C380.346 5.15292 377.101 4.73551 373.892 4.47163L359.225 3.69917L355.555 3.50966C355.281 3.50966 355.008 3.50966 354.734 3.50966C354.225 3.50966 353.708 3.50966 353.209 3.53125C352.767 3.53125 352.33 3.55044 351.893 3.55284L344.565 3.67518C341.38 3.37772 339.761 3.01308 339.749 2.59087C339.737 2.16866 341.471 1.66968 344.762 1.1803C347.344 0.827653 351.66 0.239915 356.497 0.0432022C357.472 0.0432022 358.478 0.0288086 359.494 0.0288086C363.522 0.0288086 367.684 0.0983776 371.865 0.235117C374.793 0.544579 377.445 1.08914 379.791 1.57132C380.569 1.73205 381.302 1.88078 382.022 2.01992L389.722 3.51446L392.698 4.05182L395.652 4.58678C397.333 4.9778 398.907 5.30646 400.439 5.59433C403.172 6.1005 405.737 6.45794 409.289 6.82738C409.931 6.90174 410.589 6.96412 411.288 7.02649C412.354 7.12485 413.449 7.2256 414.626 7.38633L419.307 8.16598L421.341 8.50423C422.583 9.60786 424.062 10.4107 425.664 10.8504C426.716 11.2486 427.972 11.6852 429.507 12.1794L431.119 12.6856L431.248 12.7263L431.71 12.8703C432.456 13.1518 433.219 13.4412 434.001 13.7387C437.138 14.8926 440.522 16.1376 443.781 17.3371C445.407 17.944 446.999 18.5366 448.51 19.1147C449.831 19.6952 451.039 20.2974 452.204 20.8803L452.614 21.0842C455.881 22.2669 458.859 23.2577 461.501 24.1357C463.108 24.6706 464.623 25.1768 466.098 25.6854L467.133 26.098C470.575 27.4702 473.817 28.7632 477.247 30.2457C477.77 30.4856 478.296 30.7135 478.851 30.9654C480.306 31.5638 481.725 32.2479 483.1 33.0141C485.199 34.1824 487.303 35.413 489.529 36.754C491.64 38.0423 494.268 39.6472 497.078 41.5303C499.756 43.5262 502.602 45.7021 505.743 48.1825C503.79 47.269 501.703 46.673 499.561 46.4169C498.956 46.4169 498.586 46.5777 498.456 46.8967C497.858 48.3721 502.429 53.0788 506.978 57.4904L509.247 59.8725L509.281 59.9085C517.447 68.4679 528.637 80.1891 533.901 88.9356L532.825 87.9304C529.919 85.1283 526.868 82.4803 523.684 79.9972C522.243 78.8793 520.802 77.7086 519.279 76.4707C518.095 75.5112 516.878 74.5108 515.614 73.5177C531.775 88.0692 546.28 104.356 558.867 122.082L558.851 122.046L558.836 122.012L567.614 132.495L575.951 143.382C558.865 114.434 544.402 93.8846 529.052 76.7562C541.45 89.4706 551.46 100.04 560.035 110.197C568.126 119.373 575.79 128.909 584.885 141.1C602.629 165.821 613.358 187.491 620.76 213.56C622.626 218.742 624.442 223.252 626.044 227.234C626.952 229.491 627.812 231.624 628.597 233.673L629.949 236.964L629.995 237.077C630.651 238.67 631.285 240.217 631.916 241.74L633.42 245.677L633.554 246.027L634.868 249.467C639.927 262.943 643.22 277.015 644.667 291.333C644.799 292.138 644.728 292.962 644.463 293.732C644.45 293.747 644.434 293.759 644.416 293.767C644.399 293.775 644.379 293.78 644.36 293.78C644.038 293.78 643.514 292.581 643.051 291.54L643.015 291.456C642.534 290.345 642.054 289.297 641.787 289.297C641.771 289.297 641.755 289.301 641.74 289.308C641.725 289.315 641.712 289.325 641.701 289.337C641.43 290.812 641.444 292.325 641.742 293.795C642.043 298.23 642.777 302.626 643.935 306.919C644.304 308.119 644.686 309.217 645.056 310.278C645.613 311.861 646.135 313.353 646.601 315.169L647.463 310.107C647.071 312.494 646.836 316.074 646.586 319.864C646.295 324.247 645.998 328.778 645.424 332.509C645.204 334.533 644.735 336.522 644.028 338.432C644.463 341.711 644.876 344.702 645.229 347.344V347.37C646.209 354.48 646.982 360.099 647.494 365.969C647.854 370.866 647.76 375.785 647.213 380.665C646.376 387.847 644.695 394.905 642.203 401.694C642.419 401.135 642.55 400.547 642.59 399.95C642.51 399.95 642.294 400.374 641.869 401.363L640.286 404.599L638.331 408.593C637.519 410.384 636.445 412.045 635.144 413.521C635.122 413.535 635.096 413.543 635.07 413.544C635.059 413.545 635.049 413.543 635.04 413.538C635.031 413.534 635.023 413.527 635.017 413.518C634.942 413.415 635.017 413 635.257 412.283C635.377 411.896 635.555 411.429 635.778 410.843C636.151 409.857 636.607 408.643 637.104 407.041C636.465 408.264 635.773 409.632 635.043 411.078C631.165 419.154 626.615 426.89 621.442 434.207C614.783 443.516 606.632 451.665 597.317 458.323C596.38 458.059 596.596 456.965 596.81 455.907C596.983 455.041 597.144 454.228 596.695 453.88C596.521 453.742 596.302 453.674 596.08 453.688C594.838 453.688 592.148 455.012 585.644 458.21C583.483 459.275 580.8 460.592 577.659 462.113C576.676 462.593 575.761 463.073 574.875 463.531H574.856C573.626 464.172 572.454 464.776 571.366 465.261C569.394 466.158 567.799 466.909 566.488 467.552C563.976 468.794 562.182 469.79 560.87 470.514L560.464 470.74C557.863 472.28 557.609 473.182 557.556 474.122C557.556 474.185 557.556 474.247 557.556 474.312C557.515 475.163 557.474 476.044 555.51 477.531C553.307 479.297 548.511 481.398 539.958 484.347C542.725 483.555 545.528 482.667 548.237 481.799C549.637 481.353 551.069 480.897 552.491 480.456C555.236 479.51 558.015 478.472 560.693 477.464C562.002 476.984 563.483 476.416 564.912 475.893C562.17 477.61 558.733 479.506 554.698 481.53C550.894 483.274 546.551 485.061 541.426 486.995C530.665 490.715 519.674 493.734 508.522 496.032C485.583 500.945 460.898 503.728 439.138 506.174L436.643 506.455C423.219 506.326 410.507 505.356 397.05 504.332C381.408 503.133 365.241 501.907 346.602 501.907C341.558 501.907 336.488 502 331.497 502.183C331.936 502.103 332.679 502 333.536 501.88H333.572C336.793 501.432 342.182 500.681 342.41 499.721C342.446 499.57 342.355 499.417 342.137 499.268C338.232 498.727 334.291 498.486 330.349 498.548C324.277 498.548 317.939 498.889 312.54 499.222C306.757 499.968 303.918 500.695 303.858 501.444C303.805 502.113 305.923 502.732 307.969 503.332C309.92 503.903 311.937 504.49 311.932 505.105C311.932 505.421 311.409 505.721 310.338 506.021C308.01 506.189 305.654 506.371 303.373 506.549H303.305C294.2 507.268 284.785 508 274.254 508ZM160.892 488.47C164.098 488.47 168.179 488.65 172.42 488.849L173.141 488.869H173.484C165.558 487.794 157.89 486.592 150.667 485.306C150.579 485.963 151.542 487.074 156.672 488.619C157.772 488.523 159.148 488.47 160.892 488.47ZM593.904 182.739C605.901 208.817 615.401 235.971 622.278 263.837C628.243 287.464 632.145 311.562 633.941 335.862C634.845 347.782 634.709 359.758 633.533 371.654C632.481 382.491 629.99 393.14 626.126 403.32L626.606 402.361C627.978 399.787 629.151 397.111 630.113 394.358C630.312 393.777 630.53 393.178 630.742 392.599C631.277 391.221 631.733 389.813 632.108 388.382C632.69 386.175 633.218 384.045 633.684 382.051C634.049 380.283 634.304 378.487 634.549 376.747V376.69C634.597 376.348 634.645 376.007 634.693 375.668C634.825 374.816 634.933 373.909 635.026 372.811C634.962 374.759 635.087 375.32 635.353 375.723C635.396 375.797 635.444 375.869 635.49 375.939C635.821 376.443 636.196 377.011 636.115 379.916C636.977 371.873 637.476 365.283 637.88 359.969C638.125 354.967 638.66 349.983 639.482 345.043C639.786 342.78 640.39 340.567 641.278 338.463C640.713 337.517 640.24 336.519 639.866 335.483C638.696 311.3 633.47 294.169 627.754 277.319C627.147 275.56 626.543 273.822 625.941 272.106C620.656 258.009 616.468 243.526 613.416 228.786L615.774 220.978L613.613 215.64L611.288 210.362C610.747 209.163 610.212 207.937 609.693 206.764L609.679 206.73C608.691 204.47 607.673 202.139 606.571 199.886C606.545 199.565 606.564 199.242 606.626 198.927C606.784 197.926 606.965 196.794 604.402 191.49C602.798 188.698 601.846 187.34 601.496 187.34C601.478 187.34 601.459 187.344 601.443 187.352C601.427 187.361 601.413 187.373 601.402 187.388C601.534 189.543 601.997 191.665 602.776 193.68C602.908 194.148 603.045 194.623 603.177 195.098C604.111 198.425 605.065 202.033 604.532 202.736C604.504 202.774 604.468 202.805 604.426 202.826C604.385 202.848 604.338 202.859 604.291 202.858H604.236C600.701 195.604 597.317 189.036 593.904 182.739ZM574.536 146.004C578.302 152.289 581.982 158.896 585.495 165.629C585.808 165.968 586 166.124 586.093 166.124C586.102 166.124 586.111 166.123 586.119 166.119C586.126 166.116 586.133 166.111 586.139 166.104C586.166 166.073 586.168 166.008 586.139 165.908C584.439 161.416 582.231 157.133 579.556 153.143C578.514 151.524 577.356 149.825 575.91 147.796C575.521 147.268 575.117 146.752 574.726 146.256L574.536 146.004ZM232.048 26.7769C209.486 32.6026 187.61 40.8158 166.793 51.2772C165.352 52.0664 163.867 52.8485 162.438 53.6065C158.857 55.5041 155.168 57.4592 151.7 59.635L148.578 61.523L144.361 64.0731L141.373 66.0714L141.33 66.1002L137.263 68.8182L133.742 71.1979L130.337 73.7336C128.076 75.4224 125.822 77.1089 123.576 78.7929L123.04 79.2367C121.056 80.8792 119.079 82.5184 117.108 84.1545L113.897 86.8269L110.83 89.6481L110.388 90.0559C122.834 79.5489 136.196 70.1749 150.314 62.046C165.279 53.4587 180.907 46.0785 197.048 39.9758C208.364 34.7041 220.062 30.2896 232.041 26.7697L232.048 26.7769ZM453.025 29.4853C452.388 29.4286 451.747 29.5316 451.16 29.785C450.572 30.0385 450.058 30.4343 449.663 30.9366L449.521 31.0854C461.629 36.2989 473.281 42.5113 484.356 49.6579L483.988 49.3724C483.176 48.7247 482.259 47.9906 481.38 47.2542H481.406C481.62 47.2542 481.759 47.1942 481.803 47.0814C481.916 46.796 481.464 46.1626 480.465 45.1959L480.136 44.8984C478.341 43.2003 476.39 41.6743 474.309 40.3404L472.789 39.3617C467.753 35.942 462.507 32.8421 457.082 30.0802C455.755 29.7264 454.392 29.5251 453.02 29.4805L453.025 29.4853Z" fill="#138944"/>
        <path d="M489.344 293.234V247.299L529.172 270.266L489.344 293.231V293.234ZM491.782 251.516V289.016L524.296 270.266L491.782 251.516Z" fill="#138944"/>
        <path d="M240.496 117.665V76.9844L275.773 97.3249L240.496 117.661V117.665ZM242.934 81.2017V113.448L270.897 97.3249L242.934 81.2017Z" fill="#138944"/>
        <path d="M323.851 184.362C320.199 184.362 316.629 183.28 313.593 181.253C310.556 179.226 308.189 176.345 306.792 172.975C305.395 169.604 305.029 165.896 305.742 162.318C306.454 158.74 308.213 155.454 310.796 152.874C313.378 150.295 316.668 148.538 320.25 147.826C323.832 147.114 327.545 147.48 330.92 148.875C334.294 150.271 337.178 152.635 339.207 155.668C341.237 158.701 342.32 162.267 342.321 165.915C342.314 170.805 340.366 175.494 336.904 178.952C333.442 182.41 328.748 184.356 323.851 184.362ZM323.851 149.904C320.68 149.904 317.581 150.843 314.944 152.603C312.308 154.363 310.253 156.864 309.04 159.79C307.826 162.716 307.509 165.936 308.128 169.042C308.747 172.148 310.274 175.001 312.516 177.241C314.758 179.48 317.615 181.005 320.725 181.623C323.835 182.24 327.059 181.923 329.988 180.71C332.917 179.498 335.421 177.445 337.182 174.812C338.944 172.178 339.883 169.082 339.883 165.915C339.877 161.67 338.186 157.6 335.181 154.599C332.176 151.598 328.101 149.909 323.851 149.904Z" fill="#138944"/>
        <path d="M216.501 127.268C215.021 127.268 213.575 126.83 212.344 126.009C211.114 125.188 210.155 124.021 209.589 122.655C209.023 121.29 208.874 119.787 209.163 118.338C209.452 116.888 210.164 115.557 211.211 114.511C212.257 113.466 213.59 112.755 215.041 112.466C216.493 112.178 217.997 112.326 219.364 112.892C220.731 113.457 221.899 114.415 222.721 115.644C223.543 116.873 223.982 118.317 223.982 119.795C223.98 121.777 223.191 123.676 221.788 125.077C220.386 126.477 218.484 127.266 216.501 127.268ZM216.501 114.758C215.503 114.758 214.528 115.053 213.699 115.607C212.869 116.16 212.223 116.947 211.841 117.868C211.459 118.788 211.359 119.801 211.554 120.778C211.749 121.755 212.229 122.653 212.934 123.358C213.64 124.062 214.538 124.542 215.517 124.736C216.495 124.931 217.509 124.831 218.431 124.45C219.353 124.068 220.14 123.423 220.694 122.594C221.249 121.766 221.544 120.792 221.544 119.795C221.544 118.459 221.013 117.178 220.067 116.233C219.121 115.288 217.838 114.758 216.501 114.758Z" fill="#138944"/>
        <path d="M304.571 76.9146C303.092 76.9146 301.645 76.4763 300.415 75.6552C299.185 74.8341 298.226 73.667 297.659 72.3016C297.093 70.9361 296.945 69.4336 297.234 67.9841C297.522 66.5345 298.235 65.203 299.281 64.1579C300.327 63.1129 301.66 62.4012 303.112 62.1128C304.563 61.8245 306.067 61.9725 307.434 62.5381C308.801 63.1037 309.97 64.0614 310.792 65.2903C311.614 66.5192 312.053 67.964 312.053 69.4419C312.05 71.423 311.261 73.3222 309.859 74.7231C308.456 76.1239 306.555 76.912 304.571 76.9146ZM304.571 64.4042C303.574 64.4042 302.599 64.6996 301.769 65.2532C300.94 65.8067 300.293 66.5935 299.912 67.514C299.53 68.4346 299.43 69.4475 299.625 70.4247C299.819 71.402 300.299 72.2996 301.005 73.0041C301.71 73.7087 302.609 74.1885 303.587 74.3829C304.566 74.5772 305.58 74.4775 306.501 74.0962C307.423 73.7149 308.211 73.0692 308.765 72.2407C309.319 71.4123 309.615 70.4383 309.615 69.4419C309.615 68.1058 309.084 66.8244 308.138 65.8797C307.192 64.9349 305.909 64.4042 304.571 64.4042Z" fill="#138944"/>
        <path d="M122.168 252.586C118.9 252.585 115.706 251.617 112.989 249.803C110.273 247.99 108.155 245.412 106.905 242.397C105.655 239.382 105.328 236.064 105.966 232.863C106.604 229.662 108.178 226.721 110.488 224.414C112.799 222.106 115.743 220.535 118.948 219.898C122.153 219.262 125.474 219.589 128.493 220.838C131.512 222.087 134.092 224.202 135.907 226.916C137.723 229.629 138.692 232.82 138.692 236.084C138.687 240.459 136.944 244.654 133.846 247.748C130.748 250.841 126.548 252.581 122.168 252.586ZM122.168 222.016C119.382 222.016 116.659 222.841 114.343 224.387C112.027 225.933 110.222 228.13 109.156 230.7C108.09 233.271 107.811 236.099 108.354 238.828C108.898 241.557 110.239 244.063 112.209 246.031C114.179 247.998 116.688 249.338 119.42 249.881C122.152 250.423 124.984 250.145 127.557 249.08C130.131 248.015 132.33 246.212 133.878 243.899C135.425 241.586 136.251 238.866 136.251 236.084C136.247 232.354 134.762 228.779 132.121 226.141C129.481 223.504 125.902 222.021 122.168 222.016Z" fill="#138944"/>
        <path d="M636.235 69.9121H397.793C392.316 69.9077 387.062 72.0757 383.186 75.9395C379.31 79.8033 377.128 85.0466 377.121 90.5165V189.808C377.128 195.278 379.31 200.522 383.186 204.385C387.062 208.249 392.316 210.417 397.793 210.413H425.876C428.896 216.236 430.784 222.578 431.441 229.103C432.433 236.249 432.949 247.98 432.949 247.98C451.782 238.199 468.957 225.522 483.847 210.413H636.242C641.719 210.417 646.973 208.249 650.849 204.385C654.726 200.522 656.907 195.278 656.914 189.808V90.5165C656.907 85.0453 654.725 79.8009 650.847 75.9369C646.969 72.0729 641.713 69.9058 636.235 69.9121Z" fill="white"/>
        <path d="M514.823 138.277C514.823 168.079 491.246 192.236 462.16 192.236C433.075 192.236 409.5 168.079 409.5 138.277C409.5 108.475 433.078 84.3179 462.16 84.3179C491.243 84.3179 514.823 108.475 514.823 138.277Z" fill="white"/>
        <path d="M476.95 90.5095C475.15 90.6495 473.429 91.3115 472 92.4142C471.372 86.5075 469.302 80.845 465.972 75.924C460.517 68.1107 439.901 68.7056 433.731 78.2197C433.731 78.2197 432.316 95.0746 434.281 106.047C435.926 115.235 441.323 118.958 445.483 120.201C445.379 121.624 445.242 123.044 445.113 124.32C444.803 125.94 444.133 127.469 443.153 128.796C443.153 128.796 441.493 138.778 459.898 139.345C474.635 139.798 475.646 130.272 475.646 130.272C475.646 130.272 475.615 124.557 475.238 118.716C475.053 115.866 474.904 110.397 474.801 105.541C476.385 105.535 477.94 105.12 479.315 104.336C480.691 103.551 481.84 102.424 482.65 101.065C483.248 100.023 483.57 98.845 483.585 97.6437C483.6 96.4424 483.308 95.2571 482.736 94.2001C482.165 93.143 481.332 92.2493 480.318 91.6034C479.304 90.9576 478.141 90.5811 476.941 90.5095" fill="white"/>
        <path d="M410.859 163.331C408.121 151.368 402.212 148.911 402.212 148.911C402.212 148.911 399.378 149.348 395.869 140.755C392.658 132.894 387.583 121.324 386.743 119.438C388.079 118.043 389.121 116.393 389.805 114.587C390.878 111.454 391.541 103.382 392.687 100.674C393.833 97.9653 397.173 92.5989 395.271 91.2818C393.369 89.9648 390.972 92.8483 388.412 96.6387C386.541 99.407 385.03 101.544 384.348 102.504C383.599 100.585 383.205 100.736 383.205 100.736C383.205 100.736 382.9 89.0316 382.559 84.6848C382.218 80.3379 379.379 81.6861 379.12 83.3342C378.86 84.9822 378.577 100.04 378.577 100.04C378.577 100.04 375.894 82.7632 375.531 82.0484C374.448 79.9109 372.003 80.2036 372.198 84.1018C372.339 86.8798 373.963 101.518 373.963 101.518H373.091C373.091 101.518 366.551 84.1354 363.847 85.961C361.861 87.302 369.371 102.907 369.371 102.907L368.386 103.43C368.386 103.43 360.446 95.2617 359.051 96.8258C357.655 98.3899 365.418 107.254 365.418 107.254C365.418 107.254 365.679 108.125 367.339 112.383C368.369 115.001 369.708 117.488 371.326 119.791C371.326 119.791 373.247 127.419 375.471 138.541C377.695 149.662 382.799 172.548 391.09 181.448C399.381 190.348 410.222 184.943 410.222 184.943C410.222 184.943 414.098 177.507 410.859 163.331Z" fill="white"/>
        <path d="M269.529 247.152C270.358 259.931 274.573 275.38 286.757 272.053C297.982 268.982 305.01 259.96 305.01 247.152C305.01 234.344 298.165 224.95 286.216 222.241C275.98 219.924 268.11 225.31 269.529 247.152Z" fill="white"/>
        <path d="M259.949 247.148C259.949 261.592 268.905 273.296 279.956 273.296C291.006 273.296 299.962 261.587 299.962 247.148C299.962 232.708 291.006 220.999 279.956 220.999C268.905 220.999 259.949 232.711 259.949 247.148Z" fill="white"/>
        <path d="M77.5156 421.027C77.5156 421.027 105.971 370.589 144.618 338.875C184.299 306.315 223.008 306.893 223.008 306.893L269.415 310.028C269.415 310.028 295.06 306.533 344.325 355.047C348.487 359.146 332.674 484.493 332.674 484.493C332.674 484.493 168.614 486.39 168.919 484.493L169.529 450.318C169.529 450.318 104.602 457.546 77.5156 421.027Z" fill="#FFCB57"/>
        <mask id="mask0_51_8647" style="mask-type:luminance" maskUnits="userSpaceOnUse" x="77" y="306" width="269" height="180">
            <path d="M77.5156 421.027C77.5156 421.027 105.971 370.589 144.618 338.875C184.299 306.315 223.008 306.893 223.008 306.893L269.415 310.028C269.415 310.028 295.06 306.533 344.325 355.047C348.487 359.146 332.674 484.493 332.674 484.493C332.674 484.493 168.614 486.39 168.919 484.493L169.529 450.318C169.529 450.318 104.602 457.546 77.5156 421.027Z" fill="white"/>
        </mask>
        <g mask="url(#mask0_51_8647)">
            <path d="M568.8 -145.673H102.346C-3.7693 -145.673 -89.793 -59.7498 -89.793 46.2416V510.26C-89.793 616.251 -3.7693 702.174 102.346 702.174H568.8C674.916 702.174 760.94 616.251 760.94 510.26V46.2416C760.94 -59.7498 674.916 -145.673 568.8 -145.673Z" fill="#138944"/>
        </g>
        <path d="M291.133 209.655C288.346 205.507 285.239 201.584 281.84 197.919C281.84 197.919 263.517 211.624 245.769 225.963C226.576 241.467 219.289 232.56 219.289 232.56C216.248 232.975 213.173 233.097 210.108 232.922C207.688 232.996 205.331 233.704 203.272 234.975C201.213 236.247 199.525 238.037 198.378 240.166C197.231 242.295 196.665 244.688 196.736 247.105C196.808 249.521 197.515 251.877 198.786 253.934C203.515 262.486 213.103 263.113 217.906 262.837C218.201 271.219 218.689 286.687 218.499 292.946C218.156 304.221 213.936 311.06 213.436 311.264C213.66 313.183 216.318 329.215 242.834 331.341C271.033 333.598 274.126 315.875 274.126 315.875C270.374 312.085 267.857 307.252 266.904 302.009C266.472 298.018 266.382 293.997 266.635 289.99C277.407 288.172 289.072 278.523 292.814 257.499C296.698 235.669 291.133 209.655 291.133 209.655Z" fill="white"/>
        <path d="M237.34 437.028C237.34 437.028 255.471 446.285 260.877 448.44C261.691 448.766 258.192 454.9 251.114 453.53L241.209 451.611L237.34 437.028Z" fill="white"/>
        <path d="M226.7 252.49C226.7 266.948 217.737 278.67 206.68 278.67C195.622 278.67 186.656 266.948 186.656 252.49C186.656 238.032 195.62 226.313 206.68 226.313C217.74 226.313 226.7 238.032 226.7 252.49Z" fill="white"/>
        <path d="M219.547 252.49C219.547 265.31 211.602 275.7 201.796 275.7C191.989 275.7 184.047 265.307 184.047 252.49C184.047 239.672 191.992 229.28 201.796 229.28C211.6 229.28 219.547 239.67 219.547 252.49Z" fill="white"/>
        <path d="M279.848 183.533C279.848 183.533 253.097 163.065 227.439 181.175C207.387 195.335 211.158 226.836 211.158 226.836C210.133 227.528 208.981 228.011 207.769 228.258C206.556 228.505 205.307 228.511 204.092 228.275C201.923 227.667 199.689 227.322 197.437 227.246C197.437 227.246 196.174 195.29 214.314 178.509C241.069 153.762 276.519 172.162 279.848 183.533Z" fill="white"/>
        <path d="M207.423 415.999C206.858 414.659 206.801 413.159 207.262 411.781C207.724 410.402 208.672 409.238 209.93 408.507C211.058 407.697 212.411 407.261 213.8 407.261C215.189 407.261 216.543 407.697 217.671 408.507L262.204 466.58L269.695 483.879L251.36 473.854L207.423 415.999Z" fill="white"/>
        <path d="M85.1417 430.433C80.3299 438.538 77.2708 447.56 76.1616 456.917C74.6173 471.791 78.7362 479.491 84.9087 482.056C88.3276 483.553 91.9888 484.423 95.7166 484.623H253.191C254.072 483.925 254.797 483.05 255.319 482.056C255.842 481.061 256.15 479.969 256.225 478.848C256.122 475.511 255.211 475.01 255.211 475.01C256.259 474.935 257.267 474.575 258.125 473.969C258.983 473.363 259.659 472.534 260.08 471.572C260.386 470.548 260.406 469.459 260.138 468.423C259.871 467.388 259.325 466.445 258.559 465.697C259.54 465.65 260.478 465.283 261.228 464.65C261.979 464.018 262.5 463.157 262.712 462.2C263.699 458.858 260.233 456.356 251.863 452.448C244.841 449.335 237.465 447.087 229.899 445.753C229.899 445.753 226.109 440.043 225.137 440.235C213.534 442.55 195.266 451.376 195.266 451.376C195.266 451.376 178.147 451.376 158.299 450.987C138.451 450.599 123.649 448.919 110.24 444.011C101.234 440.78 92.7714 436.202 85.1417 430.433Z" fill="white"/>
        <path d="M399.226 347.03L404.306 330.549C408.902 324.962 412.293 318.487 414.268 311.53C417.453 300.121 417.126 297.885 417.126 297.885C417.126 297.885 426.567 279.214 428.474 274.136C430.381 269.057 427.626 266.107 424.449 270.537C421.271 274.968 410.413 290.367 410.413 290.367L408.389 288.745C408.389 288.745 412.39 265.701 414.083 258.519C415.776 251.336 413.214 247.297 410.247 249.199C406.205 251.79 399.151 285.183 399.151 285.183L397.47 284.797C397.47 284.797 402.953 253.435 403.254 249.41C403.676 243.703 397.273 243.72 395.964 249.184C395.03 253.083 388.843 286.106 388.843 286.106C388.843 286.106 388.843 258.917 387.568 253.846C386.292 248.774 382.056 250.465 381.422 255.525C380.788 260.584 379.515 285.104 379.515 285.104L376.969 298.418C374.785 292.711 372.006 287.249 368.676 282.124C364.65 276.856 361.074 279.625 361.074 279.625C361.074 279.625 362.311 285.497 363.807 291.286C365.169 296.549 367.65 301.601 367.65 307.939C367.65 314.277 373.803 325.267 373.803 325.267L371.685 345.55L399.226 347.03Z" fill="white"/>
        <path d="M499.776 475.557H328.176C326.644 475.558 325.13 475.221 323.743 474.569C322.357 473.917 321.132 472.967 320.156 471.787C319.18 470.607 318.478 469.225 318.099 467.742C317.721 466.259 317.675 464.71 317.967 463.207L340.757 346.139C341.219 343.774 342.49 341.643 344.353 340.111C346.216 338.579 348.554 337.742 350.967 337.743H522.566C524.098 337.742 525.612 338.078 526.998 338.73C528.385 339.381 529.61 340.331 530.586 341.511C531.561 342.691 532.264 344.071 532.643 345.554C533.021 347.037 533.067 348.586 532.776 350.088L509.988 467.156C509.525 469.521 508.253 471.652 506.39 473.184C504.527 474.716 502.189 475.553 499.776 475.552" fill="white"/>
        <path d="M504.409 485.824H282.087C281.16 485.825 280.272 485.458 279.616 484.805C278.96 484.151 278.591 483.264 278.59 482.339V479.172C278.59 478.714 278.681 478.26 278.857 477.837C279.033 477.413 279.29 477.029 279.615 476.705C279.94 476.381 280.325 476.124 280.749 475.949C281.173 475.774 281.628 475.684 282.087 475.684H504.409C504.868 475.684 505.322 475.774 505.746 475.949C506.17 476.124 506.556 476.381 506.88 476.705C507.205 477.029 507.463 477.413 507.639 477.837C507.815 478.26 507.905 478.714 507.906 479.172V482.339C507.905 482.797 507.815 483.251 507.639 483.674C507.463 484.097 507.205 484.482 506.88 484.805C506.555 485.129 506.17 485.386 505.746 485.56C505.322 485.735 504.867 485.825 504.409 485.824Z" fill="white"/>
        <path d="M439.058 415.552C434.975 421.79 427.289 423.98 421.902 420.465C416.515 416.951 415.473 409.049 419.565 402.824C423.658 396.598 431.341 394.396 436.721 397.915C442.101 401.435 443.148 409.327 439.055 415.557" fill="white"/>
        <path d="M50.6321 506.347H606.027C608.205 506.349 610.363 505.923 612.376 505.092C614.389 504.261 616.218 503.042 617.76 501.505C619.301 499.968 620.525 498.143 621.36 496.133C622.195 494.124 622.626 491.97 622.628 489.795V484.858H34.0312V489.797C34.0331 491.973 34.464 494.127 35.2993 496.136C36.1346 498.145 37.358 499.97 38.8995 501.507C40.441 503.045 42.2706 504.263 44.2836 505.094C46.2967 505.925 48.4539 506.349 50.6321 506.347Z" fill="white"/>
        <path d="M505.279 140.661C490.424 128.453 479.912 125.411 474.99 124.672C475.082 127.633 475.094 129.751 475.094 129.751C475.094 129.751 474.092 139.277 459.324 138.826C440.883 138.26 442.548 128.292 442.548 128.292C443.339 127.2 443.944 125.984 444.337 124.694C436.745 125.426 429.464 128.072 423.175 132.383C416.803 136.489 403.351 143.969 399.878 146.503C399.912 146.895 399.912 147.289 399.878 147.681C400.327 148.117 400.92 148.373 401.545 148.4C401.545 148.4 407.454 150.847 410.206 162.815C413.451 176.969 409.567 184.425 409.567 184.425C405.919 186.042 401.843 186.427 397.957 185.521C399.72 187.05 401.868 188.069 404.168 188.468C406.469 188.867 408.834 188.631 411.01 187.786C414.921 186.586 426.502 178.061 427.438 178.874C436.886 187.148 449.023 191.71 461.589 191.71C473.871 191.6 485.735 187.24 495.16 179.373C504.585 171.506 510.988 160.619 513.279 148.566C510.843 145.708 508.165 143.064 505.279 140.661Z" fill="#FFCB57"/>
        <mask id="mask1_51_8647" style="mask-type:luminance" maskUnits="userSpaceOnUse" x="397" y="124" width="117" height="68">
            <path d="M505.279 140.661C490.424 128.453 479.912 125.411 474.99 124.672C475.082 127.633 475.094 129.751 475.094 129.751C475.094 129.751 474.092 139.277 459.324 138.826C440.883 138.26 442.548 128.292 442.548 128.292C443.339 127.2 443.944 125.984 444.337 124.694C436.745 125.426 429.464 128.072 423.175 132.383C416.803 136.489 403.351 143.969 399.878 146.503C399.912 146.895 399.912 147.289 399.878 147.681C400.327 148.117 400.92 148.373 401.545 148.4C401.545 148.4 407.454 150.847 410.206 162.815C413.451 176.969 409.567 184.425 409.567 184.425C405.919 186.042 401.843 186.427 397.957 185.521C399.72 187.05 401.868 188.069 404.168 188.468C406.469 188.867 408.834 188.631 411.01 187.786C414.921 186.586 426.502 178.061 427.438 178.874C436.886 187.148 449.023 191.71 461.589 191.71C473.871 191.6 485.735 187.24 495.16 179.373C504.585 171.506 510.988 160.619 513.279 148.566C510.843 145.708 508.165 143.064 505.279 140.661Z" fill="white"/>
        </mask>
        <g mask="url(#mask1_51_8647)">
            <path d="M852.177 -107.153H276.76C170.645 -107.153 84.6211 -21.23 84.6211 84.7614V659.504C84.6211 765.496 170.645 851.419 276.76 851.419H852.177C958.292 851.419 1044.32 765.496 1044.32 659.504V84.7614C1044.32 -21.23 958.292 -107.153 852.177 -107.153Z" fill="#138944"/>
        </g>
        <path d="M600.428 507.312H55.5383C49.5096 507.307 43.7287 504.914 39.4639 500.658C35.1991 496.402 32.7986 490.63 32.7891 484.608C32.7897 484.286 32.9182 483.977 33.1464 483.749C33.3746 483.521 33.684 483.393 34.0067 483.392H85.5889L85.2911 483.282C84.9909 483.171 84.6811 483.058 84.3616 482.927C79.9881 481.106 72.9414 475.25 74.8796 456.538C75.9547 447.198 78.9603 438.183 83.706 430.064C80.9011 427.56 78.3538 424.783 76.1021 421.773L75.6217 421.142L76.0204 420.451C77.2069 418.371 105.538 369.152 143.384 338.103C141.888 336.273 140.537 334.33 139.342 332.29C136.976 328.471 135.468 324.185 134.921 319.727C134.375 315.268 134.803 310.745 136.177 306.468C137.939 301.564 140.703 297.08 144.293 293.299C147.883 289.519 152.221 286.525 157.031 284.509C170.507 278.682 179.127 270.3 183.407 258.878C182.913 256.69 182.659 254.455 182.65 252.212C182.595 246.456 184.277 240.817 187.478 236.031C187.591 234.896 187.706 233.937 187.824 233.102C188.134 230.924 188.35 228.402 188.578 225.73C189.004 217.152 190.538 208.666 193.141 200.481C196.671 190.196 203.324 181.267 212.175 174.937C216.63 171.653 221.743 169.371 227.164 168.247C232.711 165.901 238.676 164.703 244.699 164.725C249.164 164.732 253.607 165.339 257.909 166.532C269.087 169.617 278.891 176.66 280.726 182.914L281.206 184.545C282.075 185.222 282.772 185.783 283.459 186.364C292.761 194.218 297.341 206.843 298.313 227.301C300.965 229.901 303.041 233.028 304.406 236.48C305.771 239.932 306.396 243.631 306.239 247.34C306.405 251.496 305.58 255.632 303.831 259.407C302.082 263.182 299.46 266.488 296.181 269.052C296.077 277.816 298.184 283.527 303.227 288.153C313.795 297.813 315.544 307.147 310.193 325.139C320.279 332.076 329.809 339.787 338.696 348.203L339.196 345.643C339.714 343.003 341.133 340.625 343.212 338.914C345.29 337.204 347.899 336.268 350.592 336.266H370.99L372.138 325.25C371.12 323.371 366.035 313.682 366.035 307.673C365.872 303.666 365.061 299.712 363.634 295.963C363.096 294.311 362.618 292.821 362.231 291.324C360.74 285.542 359.498 279.641 359.491 279.605C359.444 279.384 359.461 279.154 359.539 278.941C359.618 278.729 359.755 278.543 359.935 278.406C360.848 277.762 361.94 277.419 363.057 277.425C363.303 277.425 363.548 277.441 363.792 277.472C364.9 277.688 365.953 278.125 366.889 278.756C367.824 279.387 368.623 280.199 369.237 281.145C371.979 285.156 374.286 289.446 376.12 293.944L377.895 284.629C377.936 283.65 379.166 260.119 379.79 255.122C380.203 251.833 382.048 249.443 384.274 249.309C384.329 249.309 384.394 249.309 384.469 249.309C385.326 249.309 387.418 249.698 388.311 253.294C389.193 259.973 389.59 266.708 389.5 273.445C392.313 258.571 393.896 250.468 394.33 248.647C394.532 247.316 395.183 246.093 396.176 245.182C397.169 244.272 398.444 243.728 399.789 243.64C399.998 243.64 400.206 243.655 400.411 243.686C401.016 243.809 401.59 244.052 402.1 244.4C402.61 244.747 403.045 245.193 403.38 245.71C403.716 246.228 403.945 246.807 404.053 247.413C404.162 248.02 404.149 248.643 404.014 249.244C403.839 251.598 401.98 262.841 400.45 271.859C402.907 261.899 406.416 249.662 409.127 247.922C409.746 247.501 410.475 247.269 411.224 247.256C411.895 247.256 412.549 247.467 413.093 247.86C415.326 249.436 415.975 253.529 414.798 258.54C413.28 264.969 409.906 284.209 409.245 287.992L409.704 288.359C416.489 278.732 421.206 272.063 422.981 269.578C424.563 267.371 425.997 266.908 426.919 266.908C427.343 266.903 427.76 267.004 428.135 267.2C429.967 268.174 430.371 271.039 429.139 274.304C427.395 278.967 419.469 294.747 417.911 297.866C417.449 302.529 416.474 307.128 415.004 311.578C413.017 318.628 409.602 325.195 404.97 330.873L403.31 336.253H449.028C449.192 336.246 449.356 336.272 449.51 336.33C449.664 336.388 449.804 336.476 449.923 336.59C450.042 336.703 450.137 336.84 450.201 336.991C450.266 337.142 450.299 337.304 450.299 337.469C450.299 337.633 450.266 337.795 450.201 337.946C450.137 338.098 450.042 338.234 449.923 338.347C449.804 338.461 449.664 338.549 449.51 338.607C449.356 338.665 449.192 338.691 449.028 338.684H350.597C348.47 338.685 346.409 339.425 344.767 340.776C343.125 342.127 342.004 344.006 341.595 346.092L336.761 370.942C336.707 371.22 336.557 371.471 336.338 371.65C336.119 371.83 335.843 371.927 335.56 371.926C335.479 371.926 335.399 371.919 335.319 371.906C335.004 371.843 334.726 371.658 334.546 371.391C334.366 371.124 334.299 370.797 334.359 370.481L338.151 350.985C322.408 336.165 307.548 325.214 294.022 318.451C287.18 314.692 279.678 312.284 271.926 311.357C272.741 312.554 273.658 313.678 274.668 314.716L275.149 315.164L275.041 315.812C274.238 318.97 272.624 321.864 270.36 324.208C266.846 327.98 259.999 332.478 247.327 332.478C245.78 332.478 244.149 332.41 242.487 332.278C227.503 331.079 220.017 325.396 216.376 320.845C214.2 318.188 212.724 315.03 212.081 311.657L211.76 311.353L212.048 310.393L212.497 309.119C187.645 313.131 164.337 323.763 145.027 339.895C109.241 369.215 81.5684 415.752 78.5302 420.96C82.3171 425.827 86.8575 430.06 91.98 433.499C97.8333 437.176 104.056 440.231 110.545 442.615C112.815 443.445 115.058 444.165 117.405 444.815L117.585 444.865L117.746 444.911C118.387 445.088 119.076 445.268 119.907 445.477L120.388 445.592C132.797 448.277 145.463 449.594 158.16 449.519L159.411 449.543H159.611H159.769L161.21 449.569C164.544 449.469 166.974 449.291 168.115 449.193C168.783 443.829 172.378 415.879 177.242 392.818C177.301 392.548 177.45 392.306 177.664 392.131C177.879 391.957 178.147 391.861 178.423 391.858C178.512 391.859 178.599 391.869 178.685 391.889C179.001 391.956 179.278 392.145 179.454 392.415C179.631 392.684 179.693 393.013 179.627 393.329C174.778 416.375 171.185 444.354 170.512 449.728C184.296 449.912 194.7 449.915 194.803 449.915C203.991 445.451 213.564 441.827 223.406 439.086L206.257 416.481C206.199 416.401 206.149 416.316 206.108 416.227C205.409 414.619 205.329 412.81 205.882 411.147C206.435 409.483 207.583 408.082 209.106 407.211C210.499 406.331 212.107 405.849 213.755 405.818C215.383 405.806 216.968 406.34 218.256 407.334C218.322 407.388 218.38 407.449 218.432 407.516L241.5 437.635C247.188 440.513 257.294 445.551 261.07 447.053C261.44 447.218 261.731 447.523 261.877 447.901C262.023 448.279 262.014 448.699 261.85 449.07C260.956 451.118 259.329 452.758 257.287 453.669C261.055 455.747 264.754 458.402 263.604 462.291C263.346 463.204 262.891 464.049 262.271 464.767L262.897 465.587C262.958 465.666 263.008 465.752 263.046 465.844L270.53 483.142C270.546 483.188 270.552 483.236 270.547 483.284C270.543 483.319 270.543 483.354 270.547 483.39H277.61C277.261 482.656 277.076 481.855 277.07 481.043V479.945C277.074 478.42 277.683 476.959 278.763 475.883C279.844 474.806 281.308 474.202 282.834 474.202H320.895C320.148 473.649 319.47 473.01 318.875 472.297C317.783 470.98 316.998 469.437 316.576 467.78C316.154 466.123 316.106 464.393 316.435 462.716L320.945 439.527C320.821 439.414 320.721 439.276 320.654 439.122C320.587 438.967 320.552 438.801 320.554 438.633C321.079 412.515 316.813 386.522 307.966 361.939C304.635 352.433 300.156 343.368 294.629 334.944C294.535 334.815 294.467 334.669 294.429 334.514C294.391 334.359 294.384 334.197 294.409 334.04C294.433 333.882 294.489 333.731 294.572 333.594C294.655 333.458 294.764 333.339 294.893 333.245C295.101 333.09 295.354 333.005 295.614 333.005C295.805 333.006 295.994 333.051 296.165 333.138C296.336 333.224 296.484 333.349 296.599 333.502C296.839 333.838 321.277 367.907 322.9 429.459L329.462 395.742C329.516 395.464 329.666 395.214 329.885 395.035C330.104 394.855 330.379 394.758 330.663 394.759C330.842 394.757 331.019 394.795 331.181 394.87C331.344 394.946 331.487 395.057 331.601 395.195C331.715 395.333 331.797 395.494 331.84 395.668C331.883 395.842 331.887 396.023 331.851 396.198L318.836 463.191C318.578 464.516 318.617 465.883 318.95 467.191C319.283 468.5 319.902 469.719 320.763 470.761C321.623 471.803 322.704 472.641 323.927 473.217C325.15 473.792 326.486 474.09 327.838 474.089H499.25C501.379 474.087 503.441 473.346 505.083 471.994C506.726 470.642 507.848 468.763 508.257 466.676L531.021 349.592C531.278 348.266 531.238 346.9 530.905 345.591C530.571 344.283 529.952 343.064 529.092 342.023C528.232 340.981 527.151 340.143 525.929 339.567C524.706 338.991 523.371 338.693 522.019 338.693H486.197C486.033 338.701 485.868 338.674 485.715 338.617C485.561 338.559 485.42 338.471 485.301 338.357C485.182 338.244 485.088 338.107 485.023 337.956C484.958 337.805 484.925 337.642 484.925 337.478C484.925 337.314 484.958 337.151 485.023 337C485.088 336.849 485.182 336.713 485.301 336.599C485.42 336.486 485.561 336.397 485.715 336.34C485.868 336.282 486.033 336.256 486.197 336.263H522.009C523.72 336.262 525.411 336.64 526.959 337.368C528.507 338.096 529.874 339.158 530.964 340.476C532.053 341.794 532.837 343.337 533.259 344.993C533.681 346.65 533.731 348.379 533.405 350.057L510.642 467.142C510.328 468.717 509.69 470.21 508.77 471.527C507.849 472.844 506.665 473.957 505.293 474.794C506.272 475.259 507.1 475.99 507.682 476.904C508.265 477.817 508.577 478.876 508.583 479.959V481.048C508.577 481.86 508.391 482.661 508.041 483.394H621.96C622.283 483.395 622.592 483.523 622.82 483.751C623.047 483.979 623.175 484.288 623.175 484.611C623.166 490.632 620.766 496.403 616.501 500.659C612.237 504.915 606.457 507.307 600.428 507.312ZM35.2629 485.822C35.5784 490.98 37.8516 495.824 41.6192 499.365C45.3867 502.907 50.3647 504.88 55.5383 504.882H600.428C605.602 504.88 610.58 502.907 614.348 499.365C618.115 495.824 620.388 490.98 620.704 485.822H35.2629ZM282.834 476.646C281.955 476.646 281.112 476.994 280.49 477.615C279.868 478.235 279.517 479.076 279.515 479.954V481.043C279.514 481.48 279.601 481.912 279.769 482.315C279.937 482.718 280.184 483.083 280.495 483.39H505.161C505.472 483.083 505.72 482.718 505.888 482.315C506.056 481.912 506.142 481.48 506.141 481.043V479.945C506.139 479.067 505.788 478.225 505.166 477.605C504.544 476.985 503.701 476.637 502.822 476.637L282.834 476.646ZM257.155 478.301C257.155 478.347 257.155 478.385 257.155 478.426C257.155 478.467 257.155 478.508 257.155 478.556C257.162 480.311 256.569 482.016 255.474 483.39H266.421L257.155 478.301ZM85.404 431.978C81.0985 439.636 78.345 448.067 77.3005 456.788C75.9844 469.502 78.8232 477.985 85.2983 480.679C88.566 482.11 92.0634 482.947 95.6258 483.15H252.459C253.12 482.585 253.661 481.894 254.05 481.117C254.44 480.341 254.67 479.494 254.727 478.628C254.766 477.66 254.598 476.696 254.232 475.799C246.081 473.338 237.673 471.821 229.175 471.277H229.05C228.935 471.316 228.815 471.337 228.694 471.337C228.492 471.326 228.295 471.262 228.124 471.153C227.953 471.045 227.812 470.894 227.716 470.715C227.62 470.537 227.571 470.337 227.574 470.134C227.577 469.931 227.632 469.733 227.734 469.557C227.901 469.259 228.173 469.034 228.497 468.924C228.762 468.869 229.032 468.848 229.302 468.862C238.05 469.352 246.705 470.915 255.073 473.513C255.851 473.43 256.593 473.141 257.224 472.678C257.854 472.214 258.35 471.592 258.661 470.874C258.891 470.105 258.911 469.288 258.717 468.509C258.524 467.729 258.124 467.016 257.561 466.443C248.141 461.885 229.376 459.726 227.268 459.501H227.232C227.073 459.485 226.918 459.438 226.778 459.362C226.637 459.287 226.513 459.184 226.412 459.061C226.311 458.937 226.236 458.794 226.19 458.642C226.144 458.489 226.129 458.328 226.146 458.17C226.182 457.874 226.323 457.601 226.543 457.401C226.764 457.2 227.049 457.086 227.347 457.078C227.388 457.076 227.43 457.076 227.472 457.078C228.312 457.164 248.194 459.266 258.497 464.2C259.171 464.104 259.798 463.801 260.292 463.334C260.786 462.867 261.123 462.259 261.257 461.593C261.857 459.554 259.761 457.591 253.776 454.59C252.981 454.168 251.806 453.631 251.242 453.362L251.069 453.283C244.155 450.225 236.898 448.011 229.453 446.688C229.287 446.661 229.129 446.6 228.987 446.509C228.845 446.418 228.724 446.3 228.629 446.161C227.514 444.395 226.227 442.743 224.787 441.231C213.498 443.586 195.75 452.124 195.577 452.208C195.412 452.287 195.231 452.329 195.048 452.331C194.878 452.331 177.83 452.331 158.095 451.94C136.225 451.508 122.201 449.464 109.695 444.884C101.026 441.739 92.8425 437.391 85.3872 431.966L85.404 431.978ZM260.515 466.477C260.974 467.277 261.25 468.169 261.322 469.089C261.393 470.009 261.259 470.933 260.93 471.794C260.6 472.656 260.082 473.433 259.414 474.07C258.746 474.707 257.945 475.188 257.068 475.478L266.896 480.856L260.878 466.942L260.515 466.477ZM244.88 442.056L251.636 450.874L251.845 450.968L252.116 451.09C252.837 451.429 253.557 451.764 254.232 452.093C255.302 451.915 256.325 451.522 257.239 450.937C258.035 450.408 258.714 449.723 259.235 448.922C256.547 447.78 251.72 445.465 244.88 442.056ZM213.751 408.255C212.54 408.282 211.36 408.64 210.338 409.289C209.344 409.85 208.588 410.752 208.21 411.827C207.832 412.903 207.857 414.079 208.282 415.138L227.866 440.952C228.329 441.509 228.877 442.231 229.492 443.099L230.484 444.404C236.156 445.456 241.727 446.995 247.135 449.003L216.577 409.109C215.745 408.543 214.758 408.243 213.751 408.255ZM363.057 279.835C362.725 279.835 362.394 279.89 362.08 279.999C362.202 280.555 363.281 285.617 364.602 290.71C364.981 292.185 365.466 293.677 365.935 295.119L365.963 295.208C367.475 299.197 368.324 303.405 368.476 307.668C368.476 313.317 373.836 323.261 374.446 324.381L374.458 324.405C374.581 324.624 374.633 324.876 374.605 325.125L373.445 336.266H400.767L402.72 329.923C402.773 329.757 402.859 329.605 402.974 329.474C407.437 324.021 410.734 317.712 412.663 310.938C415.612 300.332 415.485 297.835 415.478 297.743C415.458 297.512 415.5 297.279 415.6 297.069L415.694 296.882C417.906 292.483 425.248 277.792 426.879 273.445C427.811 270.969 427.359 269.527 427.016 269.343C426.99 269.332 426.963 269.327 426.936 269.328C426.653 269.328 425.925 269.678 424.988 270.986C422.001 275.162 412.11 289.194 410.991 290.779L410.972 290.806C410.945 290.843 410.913 290.876 410.876 290.904L410.813 290.959C410.861 290.995 410.909 291.026 410.958 291.058C411.006 291.089 411.066 291.127 411.116 291.168C411.374 291.362 411.544 291.651 411.589 291.971C411.634 292.29 411.55 292.615 411.355 292.872C411.16 293.13 410.871 293.3 410.551 293.345C410.231 293.39 409.907 293.305 409.649 293.111C404.863 289.339 398.959 287.261 392.863 287.203C389.708 287.164 386.579 287.768 383.667 288.978C383.505 289.057 383.328 289.098 383.148 289.098C382.872 289.097 382.605 289.003 382.39 288.83C382.175 288.658 382.025 288.418 381.964 288.15C381.903 287.881 381.935 287.6 382.055 287.352C382.175 287.104 382.376 286.904 382.624 286.785C384.096 286.144 385.633 285.667 387.209 285.36C387.209 275.477 386.938 257.717 385.977 253.881C385.648 252.576 385.081 251.734 384.536 251.734C384.506 251.732 384.477 251.732 384.447 251.734C383.727 251.775 382.54 252.975 382.233 255.419C381.661 259.977 380.551 280.682 380.338 284.789V284.919L377.919 297.626C381.35 300.695 384.121 304.429 386.063 308.601C387.696 312.351 388.703 316.343 389.044 320.418C389.071 320.74 388.969 321.059 388.761 321.306C388.553 321.553 388.256 321.708 387.934 321.738H387.826C387.522 321.738 387.229 321.624 387.006 321.417C386.784 321.211 386.647 320.927 386.625 320.624C386.308 316.87 385.393 313.19 383.914 309.724C379.557 301.423 376.005 299.221 375.971 299.2L375.952 299.183C375.76 299.056 375.609 298.876 375.517 298.665C375.51 298.651 375.501 298.64 375.489 298.631C375.474 298.621 375.462 298.607 375.455 298.59C373.311 292.992 370.59 287.632 367.335 282.597C366.891 281.831 366.271 281.182 365.527 280.702C364.783 280.223 363.936 279.926 363.055 279.838L363.057 279.835ZM223.427 235.822C226.268 240.817 227.736 246.474 227.681 252.219C227.781 256.227 227.089 260.215 225.645 263.956C224.2 267.696 222.031 271.116 219.263 274.018C219.517 283.088 219.592 289.371 219.491 292.718C219.515 299.262 217.789 305.693 214.49 311.348C215.204 315.045 217.04 318.432 219.748 321.051C224.746 326.089 232.46 329.042 242.682 329.863C244.279 329.99 245.843 330.055 247.334 330.055C255.781 330.055 262.422 328.032 267.074 324.043C269.611 321.929 271.488 319.132 272.483 315.985C268.809 312.092 266.355 307.212 265.422 301.944C265.005 298.362 264.892 294.75 265.085 291.149C264.169 291.251 263.248 291.303 262.326 291.305C254.477 290.969 246.887 288.396 240.456 283.89C235.173 280.35 230.725 275.706 227.419 270.278C227.329 270.142 227.267 269.99 227.237 269.829C227.207 269.669 227.209 269.505 227.244 269.345C227.279 269.186 227.345 269.036 227.44 268.903C227.534 268.77 227.654 268.657 227.793 268.571C227.932 268.485 228.087 268.428 228.248 268.403C228.409 268.379 228.574 268.386 228.732 268.426C228.89 268.466 229.039 268.538 229.169 268.636C229.299 268.735 229.408 268.858 229.489 268.999C232.612 274.146 236.83 278.541 241.846 281.875C247.86 286.098 254.957 288.519 262.302 288.853C263.191 288.854 264.079 288.805 264.963 288.707C275.18 287.548 287.465 278.612 291.305 257.012C294.908 236.729 290.227 212.538 289.682 209.847C287.176 206.128 284.404 202.595 281.388 199.275C278.295 201.606 262.045 213.877 246.28 226.622C238.546 232.876 231.73 236.05 226.016 236.05C225.148 236.057 224.281 235.981 223.427 235.822ZM411.243 249.676C410.964 249.692 410.696 249.786 410.468 249.947C408.208 251.401 403.327 268.997 399.917 285.173C399.882 285.336 399.814 285.491 399.717 285.626C402.17 286.246 404.534 287.173 406.754 288.385C406.757 288.368 406.757 288.35 406.754 288.332C406.749 288.31 406.749 288.287 406.754 288.265C406.79 288.049 410.732 265.279 412.461 257.967C413.587 253.169 412.636 250.475 411.721 249.83C411.585 249.724 411.416 249.672 411.243 249.676ZM399.775 246.049C398.668 246.049 397.239 247.032 396.72 249.194C395.963 252.363 391.65 275.239 389.832 284.938C390.851 284.828 391.876 284.773 392.901 284.772C393.907 284.773 394.913 284.827 395.913 284.936C395.84 284.746 395.817 284.54 395.848 284.338C395.903 284.031 401.317 252.946 401.612 249.06C401.737 247.368 401.161 246.255 400.07 246.082C399.973 246.063 399.874 246.052 399.775 246.049ZM210.912 227.999C209.948 228.537 208.914 228.937 207.84 229.187C215.439 232.62 220.543 241.877 220.543 252.217C220.543 265.3 212.593 276.007 202.443 276.587C203.749 276.975 205.104 277.175 206.466 277.18C216.822 277.18 225.248 265.982 225.248 252.214C225.248 240.699 219.354 230.732 210.912 227.985V227.999ZM201.591 230.223C192.486 230.223 185.079 240.09 185.079 252.219C185.079 264.348 192.486 274.215 201.591 274.215C210.696 274.215 218.105 264.348 218.105 252.219C218.105 240.09 210.696 230.216 201.591 230.216V230.223ZM298.45 231.094C298.477 232.094 298.506 233.109 298.518 234.131C300.293 238.307 301.204 242.8 301.193 247.337C301.262 253.435 299.591 259.426 296.375 264.609C296.358 264.849 296.344 265.07 296.33 265.3C296.33 265.475 296.308 265.639 296.298 265.802C298.799 263.441 300.762 260.572 302.056 257.388C303.349 254.204 303.943 250.78 303.797 247.347C303.978 241.471 302.086 235.718 298.45 231.094ZM298.422 242.762C298.201 247.56 297.687 252.077 297.187 256.436L297.05 257.636C298.184 254.32 298.758 250.839 298.751 247.335C298.746 245.805 298.636 244.277 298.422 242.762ZM244.654 167.143C233.561 167.121 222.895 171.416 214.92 179.119C199.227 193.651 198.432 220.565 198.432 225.814C200.369 225.998 202.289 226.336 204.172 226.824C204.661 226.943 205.161 227.002 205.664 227.001C207.06 226.968 208.427 226.597 209.648 225.919C209.168 220.57 207.698 193.193 226.501 179.903C233.39 174.922 241.679 172.244 250.183 172.253C259.23 172.483 268.076 174.976 275.91 179.503C270.779 174.332 264.334 170.658 257.268 168.875C253.16 167.733 248.917 167.151 244.654 167.143Z" fill="#393F49"/>
        <path d="M471.411 338.693C471.576 338.7 471.74 338.674 471.894 338.617C472.048 338.559 472.188 338.47 472.307 338.357C472.426 338.243 472.521 338.107 472.585 337.956C472.65 337.805 472.683 337.642 472.683 337.478C472.683 337.314 472.65 337.151 472.585 337C472.521 336.849 472.426 336.713 472.307 336.599C472.188 336.486 472.048 336.397 471.894 336.339C471.74 336.282 471.576 336.256 471.411 336.263H463.198C463.033 336.256 462.869 336.282 462.715 336.339C462.561 336.397 462.421 336.486 462.302 336.599C462.183 336.713 462.088 336.849 462.024 337C461.959 337.151 461.926 337.314 461.926 337.478C461.926 337.642 461.959 337.805 462.024 337.956C462.088 338.107 462.183 338.243 462.302 338.357C462.421 338.47 462.561 338.559 462.715 338.617C462.869 338.674 463.033 338.7 463.198 338.693H471.411Z" fill="#393F49"/>
        <path d="M427.164 423.085C424.899 423.099 422.679 422.451 420.778 421.221C419.337 420.254 418.123 418.986 417.22 417.506C416.317 416.025 415.746 414.367 415.547 412.645C415.068 408.871 415.974 405.052 418.097 401.895C419.429 399.78 421.26 398.024 423.43 396.781C425.599 395.538 428.041 394.846 430.541 394.765C432.805 394.752 435.023 395.401 436.922 396.632C438.378 397.605 439.602 398.885 440.51 400.382C441.418 401.878 441.987 403.555 442.177 405.294C442.625 409.042 441.711 412.826 439.6 415.957C438.27 418.072 436.441 419.828 434.272 421.071C432.104 422.314 429.663 423.005 427.164 423.085ZM430.526 397.191C428.432 397.272 426.389 397.865 424.577 398.919C422.766 399.972 421.24 401.452 420.134 403.231C418.366 405.85 417.585 409.01 417.929 412.15C418.065 413.559 418.51 414.92 419.234 416.137C419.957 417.353 420.942 418.394 422.116 419.186C423.621 420.166 425.381 420.684 427.178 420.674C429.274 420.591 431.317 419.996 433.128 418.94C434.94 417.885 436.464 416.402 437.568 414.621C439.356 411.976 440.134 408.778 439.761 405.609C439.616 404.214 439.166 402.869 438.444 401.667C437.722 400.465 436.745 399.436 435.582 398.652C434.076 397.681 432.318 397.173 430.526 397.191Z" fill="#393F49"/>
        <path d="M261.922 243.909C262.457 243.023 262.708 241.996 262.642 240.964C262.577 239.932 262.197 238.945 261.554 238.134C261.247 237.825 260.867 237.596 260.448 237.469C260.03 237.342 259.587 237.321 259.159 237.407C258.731 237.493 258.33 237.684 257.994 237.962C257.657 238.241 257.395 238.598 257.231 239.003C256.701 239.887 256.452 240.911 256.518 241.939C256.584 242.967 256.962 243.951 257.601 244.76C257.908 245.07 258.288 245.299 258.705 245.427C259.123 245.555 259.566 245.577 259.994 245.492C260.422 245.407 260.823 245.217 261.16 244.939C261.496 244.662 261.759 244.305 261.924 243.901" fill="#393F49"/>
        <path d="M281.829 236.839C281.364 237.754 281.173 238.784 281.278 239.805C281.383 240.826 281.78 241.795 282.422 242.596C283.693 243.882 285.482 243.395 286.423 241.507C286.889 240.593 287.081 239.563 286.976 238.543C286.87 237.522 286.473 236.553 285.83 235.752C284.562 234.464 282.77 234.951 281.829 236.839Z" fill="#393F49"/>
        <path d="M272.892 261.018C272.961 261.018 273.03 261.012 273.098 261.001L277.65 260.226C278.138 260.166 278.603 259.981 278.999 259.689C279.395 259.397 279.709 259.008 279.91 258.559C280.112 258.111 280.194 257.618 280.15 257.128C280.105 256.639 279.935 256.169 279.655 255.764L277.4 251.631C276.05 248.552 275.261 245.258 275.068 241.903C275.063 241.584 274.932 241.279 274.704 241.055C274.477 240.83 274.17 240.704 273.85 240.704H273.836C273.676 240.706 273.518 240.739 273.371 240.803C273.224 240.866 273.091 240.957 272.979 241.072C272.868 241.186 272.78 241.322 272.721 241.47C272.662 241.618 272.633 241.777 272.635 241.937C272.831 245.651 273.705 249.298 275.214 252.698L277.599 257.055C277.655 257.127 277.692 257.211 277.707 257.301C277.722 257.39 277.715 257.482 277.686 257.568C277.664 257.616 277.602 257.765 277.256 257.808L272.692 258.585C272.369 258.612 272.07 258.765 271.861 259.012C271.651 259.259 271.548 259.578 271.574 259.901C271.601 260.224 271.754 260.523 272.002 260.732C272.249 260.941 272.569 261.044 272.892 261.018Z" fill="#393F49"/>
        <path d="M253.526 262.697C253.385 262.407 253.134 262.184 252.829 262.078C252.523 261.973 252.188 261.992 251.897 262.133C251.607 262.274 251.384 262.525 251.278 262.83C251.172 263.135 251.192 263.469 251.333 263.76C252.843 266.46 255.051 268.707 257.726 270.264C260.402 271.822 263.447 272.635 266.543 272.617C268.017 272.611 269.486 272.459 270.929 272.163C271.242 272.096 271.516 271.909 271.692 271.641C271.868 271.374 271.931 271.048 271.868 270.734C271.804 270.42 271.62 270.144 271.354 269.965C271.089 269.787 270.763 269.72 270.449 269.779C267.241 270.659 263.831 270.44 260.763 269.156C257.695 267.872 255.147 265.598 253.526 262.697Z" fill="#393F49"/>
        <path d="M250.415 228.966C250.614 228.966 250.81 228.917 250.986 228.824C251.162 228.73 251.312 228.596 251.424 228.431C252.747 226.667 254.649 225.425 256.796 224.921C258.944 224.418 261.201 224.685 263.171 225.677C263.319 225.737 263.478 225.767 263.638 225.766C263.798 225.765 263.956 225.733 264.104 225.671C264.251 225.608 264.385 225.518 264.497 225.404C264.609 225.29 264.698 225.156 264.758 225.008C264.819 224.859 264.849 224.701 264.848 224.541C264.847 224.381 264.814 224.223 264.752 224.076C264.69 223.929 264.599 223.795 264.485 223.683C264.372 223.571 264.237 223.482 264.088 223.422C261.593 222.256 258.773 221.982 256.1 222.646C253.427 223.311 251.064 224.873 249.407 227.071C249.283 227.253 249.212 227.466 249.201 227.687C249.189 227.907 249.238 228.126 249.342 228.32C249.445 228.515 249.6 228.678 249.789 228.792C249.978 228.905 250.195 228.965 250.415 228.966Z" fill="#393F49"/>
        <path d="M281.5 225.658C282.526 224.938 283.759 224.575 285.012 224.624C286.264 224.672 287.465 225.13 288.432 225.926C288.649 226.098 288.919 226.191 289.196 226.19C289.447 226.189 289.692 226.111 289.896 225.966C290.101 225.82 290.256 225.615 290.339 225.378C290.422 225.142 290.43 224.885 290.361 224.644C290.292 224.403 290.15 224.188 289.955 224.031C288.568 222.894 286.845 222.245 285.052 222.186C283.259 222.127 281.496 222.661 280.038 223.705C279.779 223.898 279.607 224.185 279.56 224.505C279.513 224.824 279.595 225.149 279.788 225.408C279.981 225.667 280.269 225.839 280.589 225.886C280.909 225.932 281.234 225.85 281.493 225.658" fill="#393F49"/>
        <path d="M431.773 250.079L431.689 248.229C431.689 248.128 431.158 236.436 430.193 229.446C429.551 223.304 427.825 217.324 425.094 211.785H397.776C391.978 211.78 386.419 209.48 382.317 205.388C378.214 201.295 375.904 195.745 375.892 189.954V146.488C375.294 143.849 374.76 141.357 374.263 138.86C372.13 128.23 370.262 120.68 370.18 120.364C368.567 118.027 367.228 115.512 366.191 112.87C364.935 109.645 364.483 108.381 364.327 107.913C356.053 98.404 357.619 96.6384 358.133 96.0506C358.307 95.8603 358.518 95.7079 358.754 95.6031C358.989 95.4982 359.244 95.4431 359.502 95.4413H359.601C360.962 95.4413 363.345 97.0126 366.681 100.114C360.588 86.714 362.449 85.4521 363.15 84.9796C363.479 84.7557 363.867 84.6362 364.265 84.6365C364.489 84.6377 364.712 84.6733 364.925 84.7421C367.185 85.4617 370.077 91.2048 372.104 95.8995L372.056 95.5037C371.729 92.4138 371.052 85.9823 370.968 84.1831C370.778 80.5319 372.625 79.7595 373.194 79.6084C373.395 79.5542 373.602 79.5268 373.809 79.5268C374.412 79.5704 374.992 79.7794 375.484 80.1307C375.976 80.482 376.361 80.962 376.598 81.5179C376.808 82.1766 376.969 82.8502 377.078 83.533C378.546 79.2122 381.332 75.4588 385.044 72.7992C388.756 70.1396 393.208 68.7071 397.776 68.7028H422.85C422.111 66.8844 423.191 66.2463 425.151 65.0876C425.836 64.6822 426.612 64.224 427.457 63.6315C428.863 62.4622 430.043 61.0459 430.939 59.4525C432.677 56.0617 435.639 53.4561 439.225 52.1622C440.365 51.8188 441.549 51.6442 442.739 51.644C445.491 51.6796 448.167 52.5533 450.408 54.1485H450.422C453.5 52.5833 456.79 51.4746 460.188 50.8572C461.67 50.6073 463.169 50.4733 464.672 50.4565C471.517 50.4565 476.832 53.9398 480.917 61.1078C482.217 63.4621 483.066 66.0378 483.42 68.7028H636.118C641.916 68.7072 647.475 71.0077 651.577 75.0999C655.68 79.1921 657.99 84.7421 658.002 90.5331V189.935C657.99 195.726 655.68 201.276 651.577 205.368C647.475 209.461 641.916 211.761 636.118 211.765H484.304C469.38 226.795 452.228 239.44 433.452 249.256L431.77 250.076L431.773 250.079ZM378.322 156.163V189.935C378.327 195.085 380.379 200.023 384.027 203.663C387.675 207.303 392.62 209.347 397.776 209.347H426.568L426.912 209.997C429.983 215.959 431.913 222.441 432.604 229.11C433.324 234.344 433.805 242.078 434.031 246.221C452.069 236.588 468.545 224.283 482.896 209.724L483.259 209.347H636.115C641.272 209.347 646.217 207.303 649.865 203.663C653.512 200.023 655.564 195.085 655.569 189.935V90.5451C655.564 85.3949 653.512 80.4574 649.865 76.8174C646.217 73.1775 641.272 71.1329 636.115 71.1329H483.674C483.879 76.4749 483.158 81.8119 481.542 86.9083C491.604 90.9351 500.227 97.8813 506.299 106.851C512.631 116.136 516.003 127.117 515.973 138.351C515.967 141.861 515.635 145.364 514.981 148.813L514.996 148.827L514.88 149.408C514.882 149.416 514.882 149.424 514.88 149.432C514.64 150.708 514.306 152.034 513.862 153.608L513.797 153.848V153.882C513.749 154.062 513.701 154.239 513.646 154.417C513.314 155.551 512.906 156.76 512.399 158.113C512.258 158.502 512.123 158.847 511.991 159.171C511.511 160.404 511.013 161.525 510.497 162.592C510.353 162.904 510.192 163.213 510.038 163.516L509.99 163.609C509.371 164.84 508.789 165.903 508.232 166.86L508.011 167.217L507.79 167.575C507.18 168.568 506.522 169.566 505.838 170.545L505.677 170.785C505.576 170.931 505.487 171.063 505.391 171.192C504.658 172.205 503.83 173.26 502.929 174.333L502.482 174.863C501.563 175.93 500.607 176.957 499.644 177.914L499.536 178.02L499.423 178.13C491.849 185.658 482.181 190.732 471.678 192.692L471.51 192.713L471.332 192.744C469.838 193.006 468.45 193.198 467.059 193.327L466.689 193.356L466.516 193.368C464.917 193.502 463.481 193.567 462.121 193.567C460.553 193.567 458.925 193.49 457.277 193.327C456.797 193.284 456.335 193.215 455.879 193.145L455.178 193.042L454.541 192.958C453.878 192.874 453.194 192.785 452.526 192.66C451.959 192.555 451.39 192.42 450.845 192.286L450.213 192.135L449.683 192.013C449.075 191.874 448.46 191.734 447.862 191.564C447.315 191.411 446.774 191.228 446.251 191.053L445.77 190.89L445.405 190.77C444.701 190.53 443.964 190.305 443.272 190.031C442.891 189.885 442.509 189.719 442.139 189.551L441.613 189.326C440.7 188.942 439.732 188.527 438.796 188.062C438.555 187.939 438.315 187.81 438.075 187.683L437.66 187.459C436.437 186.821 435.431 186.26 434.492 185.682C434.364 185.603 434.237 185.519 434.11 185.442L433.858 185.276C432.597 184.48 431.482 183.715 430.45 182.937C430.389 182.894 430.329 182.849 430.272 182.803L430.164 182.719L429.729 182.391C429.03 181.863 428.312 181.318 427.635 180.738C425.458 181.849 423.345 183.081 421.306 184.427C418.376 186.443 415.26 188.173 411.999 189.595C410.265 190.148 408.459 190.44 406.639 190.463C403.475 190.495 400.41 189.358 398.033 187.272C395.007 186.417 392.282 184.728 390.172 182.398C385.856 177.758 381.872 168.933 378.322 156.163ZM437.004 146.284C437.089 146.284 437.175 146.293 437.258 146.311C437.417 146.341 437.567 146.402 437.702 146.492C437.836 146.581 437.951 146.695 438.041 146.829C438.13 146.963 438.192 147.114 438.222 147.272C438.253 147.43 438.252 147.592 438.219 147.75C438.202 147.848 435.933 159.166 429.727 179.08C429.714 179.114 429.693 179.144 429.667 179.169C429.647 179.188 429.63 179.21 429.616 179.234C438.711 186.899 450.217 191.122 462.116 191.161C473.061 191.14 483.699 187.543 492.405 180.918C492.401 180.911 492.396 180.906 492.39 180.901C492.385 180.896 492.38 180.89 492.376 180.884C491.156 177.226 489.619 172.459 488.264 168.254L488.024 167.479C486.722 163.432 485.601 159.939 485.197 158.802C485.091 158.498 485.109 158.164 485.247 157.874C485.386 157.583 485.634 157.359 485.937 157.25C486.066 157.204 486.203 157.18 486.34 157.18C486.592 157.18 486.838 157.257 487.044 157.402C487.25 157.547 487.406 157.752 487.491 157.989C487.921 159.2 489.189 163.139 490.347 166.735C491.679 170.878 493.205 175.611 494.451 179.361C503.62 171.712 509.939 161.199 512.387 149.52C510.11 146.882 507.62 144.435 504.942 142.204C492.073 131.596 482.49 127.942 476.717 126.743L476.873 133.253C476.88 133.576 476.76 133.889 476.537 134.123C476.314 134.357 476.007 134.493 475.684 134.501H475.653C475.335 134.498 475.031 134.373 474.804 134.152C474.577 133.931 474.445 133.63 474.435 133.313L473.801 106.831C472.966 106.831 472.133 106.762 471.31 106.625C471.012 106.568 470.745 106.402 470.563 106.158C470.381 105.915 470.297 105.612 470.327 105.31C470.357 105.008 470.499 104.728 470.726 104.525C470.952 104.322 471.246 104.211 471.55 104.214C471.631 104.214 471.712 104.222 471.791 104.238C472.484 104.358 473.186 104.416 473.89 104.411C475.401 104.527 476.916 104.225 478.266 103.537C479.617 102.85 480.751 101.803 481.544 100.513C482.095 99.6378 482.389 98.6259 482.393 97.5923C482.396 96.5587 482.109 95.5449 481.563 94.6664C481.077 93.851 480.406 93.1616 479.603 92.6543C478.8 92.147 477.888 91.8361 476.942 91.7469C475.412 91.8816 473.952 92.4464 472.73 93.3758L471.068 94.7192C470.96 94.9279 470.89 95.0503 470.861 95.0503C469.846 88.7387 467.134 82.821 463.015 77.9291C460.521 75.5367 457.606 73.6261 454.416 72.294C454.316 72.294 454.251 72.3228 454.222 72.3756C454.167 72.4811 454.241 72.685 454.445 72.9849C454.699 73.2768 454.878 73.6256 454.967 74.0015C455.057 74.3774 455.054 74.7693 454.959 75.1439C454.824 75.4255 454.63 75.6755 454.392 75.878C454.154 76.0804 453.876 76.2308 453.576 76.3194C450.902 74.9699 448.014 74.0949 445.04 73.7334C444.723 73.7307 444.407 73.7588 444.096 73.8173C442.856 74.1465 441.672 74.66 440.585 75.3407C439.135 76.2105 437.58 76.8917 435.957 77.3678C435.572 77.7644 435.218 78.1894 434.898 78.6392C434.818 79.6467 434.657 82.2088 434.537 85.4042C434.572 85.1524 434.688 84.9186 434.866 84.7373C435.374 84.213 435.981 83.7955 436.653 83.5092C437.324 83.2228 438.046 83.0735 438.776 83.07C439.977 83.0799 441.148 83.4474 442.139 84.1255C442.401 84.3139 442.578 84.5986 442.63 84.9171C442.682 85.2356 442.606 85.5619 442.417 85.824C442.229 86.0861 441.944 86.2627 441.625 86.3149C441.306 86.3671 440.979 86.2906 440.717 86.1023C440.148 85.7215 439.481 85.5125 438.796 85.5001C438.378 85.5052 437.965 85.5941 437.582 85.7614C437.199 85.9287 436.854 86.171 436.567 86.4741C436.452 86.5858 436.317 86.6739 436.169 86.7334C436.02 86.7928 435.862 86.8225 435.702 86.8208C435.542 86.819 435.384 86.7857 435.237 86.723C435.09 86.6602 434.956 86.5691 434.845 86.4549C434.657 86.2595 434.543 86.0051 434.523 85.7352C434.196 92.4664 434.506 99.2134 435.45 105.886C437.578 117.773 446.15 119.356 447.848 119.56C448.665 119.656 449.487 119.705 450.31 119.706C454.077 119.697 457.739 118.462 460.74 116.187C463.458 114.209 465.777 111.738 467.578 108.902C467.688 108.725 467.841 108.579 468.023 108.478C468.205 108.378 468.41 108.325 468.618 108.326C468.835 108.326 469.047 108.384 469.234 108.494C469.421 108.604 469.575 108.761 469.68 108.95C469.785 109.139 469.839 109.352 469.834 109.569C469.829 109.785 469.767 109.996 469.653 110.18C467.684 113.294 465.141 116.005 462.157 118.169C458.755 120.738 454.608 122.129 450.343 122.132C449.41 122.13 448.478 122.073 447.552 121.961C441.771 121.295 434.922 116.83 433.041 106.306C432.457 102.757 432.125 99.1713 432.047 95.5756C425.407 100.561 420.021 107.022 416.314 114.446C412.607 121.87 410.681 130.055 410.688 138.351C410.688 138.567 410.688 138.783 410.702 138.999C410.702 139.147 410.702 139.289 410.714 139.43L410.861 139.344L411.466 138.977C415.525 136.578 420.112 133.884 423.117 131.946C429.637 127.447 437.214 124.714 445.107 124.015C445.107 124.073 445.095 124.133 445.088 124.195C445.081 124.257 445.076 124.327 445.069 124.384C444.971 125.132 444.759 125.86 444.442 126.543C437.266 127.365 430.398 129.922 424.436 133.995C421.438 135.935 416.803 138.668 412.713 141.076C408.402 143.617 403.956 146.236 401.826 147.685C401.922 147.732 402.023 147.765 402.128 147.786C402.175 147.783 402.221 147.783 402.267 147.786C402.402 147.792 402.534 147.827 402.654 147.889C402.918 147.997 409.158 150.684 412.021 163.173C415.316 177.585 411.447 185.317 411.281 185.639C411.161 185.867 410.972 186.05 410.741 186.164C408.725 187.053 406.578 187.607 404.383 187.803C405.145 187.961 405.921 188.041 406.699 188.042C408.257 188.022 409.804 187.771 411.288 187.296C414.326 185.92 417.236 184.281 419.988 182.398C422.288 180.738 424.78 179.359 427.409 178.291C433.221 159.637 435.575 148.51 435.815 147.304V147.275C435.864 146.996 436.01 146.743 436.228 146.561C436.445 146.379 436.72 146.283 437.004 146.284ZM360.309 98.1737C361.975 101.176 363.99 103.971 366.313 106.5C366.424 106.63 366.506 106.781 366.554 106.944V106.966C366.674 107.33 367.099 108.551 368.434 112.004C369.431 114.515 370.719 116.902 372.272 119.114C372.371 119.245 372.444 119.394 372.486 119.553L372.503 119.62C372.983 121.561 374.691 128.65 376.641 138.38C381.029 160.282 386.183 174.534 391.957 180.738C393.294 182.248 394.939 183.455 396.782 184.276C398.626 185.098 400.624 185.515 402.642 185.5C404.916 185.486 407.166 185.028 409.264 184.151C410.025 182.309 412.309 175.383 409.641 163.703C407.371 153.759 402.793 150.722 401.898 150.216C401.688 150.196 401.481 150.155 401.28 150.094C402.414 153.272 403.538 156.938 404.628 160.985C404.71 161.297 404.665 161.628 404.504 161.908C404.343 162.187 404.077 162.392 403.766 162.477C403.663 162.503 403.558 162.517 403.452 162.518C403.183 162.518 402.923 162.429 402.71 162.266C402.497 162.103 402.344 161.874 402.275 161.616C400.978 156.3 399.232 151.104 397.056 146.083C397.044 146.06 397.035 146.036 397.032 146.011C397.033 145.996 397.033 145.98 397.032 145.965C396.143 144.476 395.375 142.918 394.733 141.306C391.952 134.493 387.838 125.032 385.633 119.997C385.536 119.78 385.505 119.54 385.545 119.306C385.585 119.072 385.693 118.855 385.856 118.682C387.072 117.406 388.022 115.9 388.65 114.254C389.222 112.139 389.652 109.989 389.937 107.817C390.236 105.243 390.783 102.703 391.573 100.234C391.813 99.6418 392.173 98.9269 392.533 98.1857C393.162 96.9046 395.074 93.0112 394.553 92.3059C394.468 92.2381 394.362 92.2002 394.253 92.1979C394.213 92.1981 394.172 92.2021 394.133 92.2099C392.692 92.4834 390.216 96.1442 389.404 97.346C387.442 100.251 385.9 102.439 385.321 103.245C385.304 103.245 385.297 103.259 385.294 103.264C385.191 103.408 385.056 103.526 384.901 103.61C383.778 104.359 382.832 105.342 382.127 106.492C381.423 107.642 380.976 108.93 380.818 110.269C380.772 110.553 380.625 110.811 380.405 110.996C380.184 111.181 379.905 111.28 379.617 111.277C379.545 111.276 379.474 111.271 379.403 111.26C379.085 111.203 378.803 111.023 378.617 110.758C378.432 110.494 378.36 110.167 378.416 109.849C378.86 106.815 380.427 104.056 382.809 102.12V102.098C382.758 102.007 382.705 101.914 382.676 101.858C382.621 101.833 382.568 101.802 382.518 101.767C382.358 101.659 382.225 101.513 382.132 101.344C382.039 101.174 381.988 100.984 381.982 100.791V100.726C381.93 98.7494 381.656 88.6931 381.346 84.79C381.238 83.449 380.882 83.0196 380.794 82.9788C380.674 83.0235 380.567 83.0973 380.483 83.1937C380.399 83.2901 380.341 83.4059 380.313 83.5306C380.121 84.7301 379.89 94.6712 379.797 99.7546C380.02 99.8799 380.198 100.073 380.303 100.307C380.409 100.54 380.437 100.801 380.383 101.052C380.33 101.302 380.197 101.529 380.005 101.699C379.813 101.868 379.572 101.972 379.316 101.995C375.749 102.33 372.407 103.886 369.856 106.4C369.638 106.639 369.335 106.781 369.012 106.797C368.689 106.812 368.373 106.698 368.134 106.481C367.895 106.264 367.752 105.961 367.736 105.638C367.721 105.315 367.835 105 368.052 104.761L368.081 104.73L368.151 104.658C367.901 104.616 367.67 104.496 367.493 104.315C365.344 101.997 362.934 99.936 360.309 98.1737ZM480.768 89.2089C480.768 89.2281 480.737 89.2856 480.737 89.2856C480.652 89.6294 480.54 89.9663 480.403 90.2932C481.716 91.0528 482.822 92.1239 483.622 93.4118C484.39 94.6553 484.801 96.0866 484.808 97.5482C484.814 99.0097 484.417 100.445 483.66 101.695C482.9 103.048 481.832 104.203 480.542 105.067C479.251 105.931 477.776 106.478 476.234 106.666L476.654 124.216C481.607 125.133 492.076 128.453 506.489 140.34C508.755 142.225 510.889 144.264 512.875 146.443C513.299 143.77 513.521 141.069 513.538 138.363C513.643 127.832 510.575 117.512 504.731 108.746C498.887 99.9798 490.537 93.1724 480.768 89.2089ZM394.241 89.7702C394.849 89.7725 395.441 89.9609 395.939 90.31C398.302 91.9533 396.398 95.8275 394.716 99.2532L394.555 99.5842C394.27 100.167 394.003 100.719 393.804 101.184C393.109 103.475 392.616 105.822 392.331 108.199C392.033 110.509 391.57 112.794 390.946 115.038C390.31 116.758 389.366 118.348 388.16 119.73C390.295 124.607 394.279 133.783 396.972 140.383C397.73 142.378 398.743 144.266 399.986 146.001C401.6 144.85 404.957 142.832 408.346 140.827C408.346 140.613 408.325 140.397 408.315 140.184C408.284 139.584 408.253 138.965 408.253 138.349C408.228 129.383 410.374 120.545 414.506 112.587C418.638 104.628 424.634 97.7847 431.984 92.6393C431.915 85.824 432.34 79.8434 432.465 78.1714V78.1258L432.491 77.8235L432.508 77.7924H432.436H432.356C428.785 77.7276 426.126 74.194 424.21 71.1161H397.776C394.422 71.1137 391.125 71.9854 388.211 73.6451C385.297 75.3048 382.867 77.6951 381.161 80.5799C382.021 80.7095 383.505 81.4099 383.762 84.5933C384.089 88.6715 384.363 98.9629 384.394 100.122C384.423 100.15 384.45 100.181 384.475 100.213C385.402 98.8862 386.382 97.4612 387.384 95.9739C389.702 92.5458 391.659 90.1828 393.688 89.8038C393.871 89.7761 394.056 89.7648 394.241 89.7702ZM364.726 87.4481C366.084 92.6302 368.002 97.6495 370.447 102.417C370.481 102.494 370.504 102.574 370.514 102.657V102.72C370.913 102.441 371.347 102.173 371.876 101.868C370.168 96.7557 367.762 91.9032 364.726 87.4481ZM373.809 81.9593C373.708 82.0121 373.329 82.5494 373.396 84.0608C373.514 86.3709 374.688 97.1853 375.046 100.443C375.782 100.199 376.534 100.004 377.297 99.8601C376.336 93.6565 374.688 83.4538 374.381 82.5135C374.328 82.3876 374.25 82.2736 374.152 82.178C374.055 82.0825 373.939 82.0073 373.812 81.9569L373.809 81.9593Z" fill="#393F49"/>
        <path d="M625.05 102.521H544.467C544.303 102.513 544.139 102.539 543.985 102.597C543.831 102.655 543.69 102.743 543.571 102.857C543.452 102.97 543.358 103.107 543.293 103.258C543.229 103.409 543.195 103.572 543.195 103.736C543.195 103.9 543.229 104.063 543.293 104.214C543.358 104.365 543.452 104.501 543.571 104.615C543.69 104.728 543.831 104.817 543.985 104.874C544.139 104.932 544.303 104.958 544.467 104.951H625.05C625.364 104.937 625.659 104.803 625.876 104.577C626.093 104.35 626.214 104.049 626.214 103.736C626.214 103.423 626.093 103.121 625.876 102.895C625.659 102.669 625.364 102.535 625.05 102.521Z" fill="#393F49"/>
        <path d="M625.05 127.376H544.467C544.303 127.368 544.139 127.394 543.985 127.452C543.831 127.51 543.69 127.598 543.571 127.712C543.452 127.825 543.358 127.962 543.293 128.113C543.229 128.264 543.195 128.427 543.195 128.591C543.195 128.755 543.229 128.918 543.293 129.069C543.358 129.22 543.452 129.356 543.571 129.47C543.69 129.583 543.831 129.672 543.985 129.729C544.139 129.787 544.303 129.813 544.467 129.806H625.05C625.364 129.792 625.659 129.658 625.876 129.431C626.093 129.205 626.214 128.904 626.214 128.591C626.214 128.278 626.093 127.976 625.876 127.75C625.659 127.524 625.364 127.39 625.05 127.376Z" fill="#393F49"/>
        <path d="M597.044 153.268H544.463C544.299 153.26 544.135 153.286 543.981 153.344C543.827 153.402 543.686 153.49 543.567 153.604C543.448 153.717 543.354 153.854 543.289 154.005C543.225 154.156 543.191 154.318 543.191 154.483C543.191 154.647 543.225 154.809 543.289 154.961C543.354 155.112 543.448 155.248 543.567 155.362C543.686 155.475 543.827 155.563 543.981 155.621C544.135 155.679 544.299 155.705 544.463 155.698H597.044C597.209 155.705 597.373 155.679 597.527 155.621C597.681 155.563 597.821 155.475 597.94 155.362C598.059 155.248 598.154 155.112 598.218 154.961C598.283 154.809 598.316 154.647 598.316 154.483C598.316 154.318 598.283 154.156 598.218 154.005C598.154 153.854 598.059 153.717 597.94 153.604C597.821 153.49 597.681 153.402 597.527 153.344C597.373 153.286 597.209 153.26 597.044 153.268Z" fill="#393F49"/>
        <path d="M454.688 95.6166C454.745 95.1057 454.603 94.5923 454.289 94.1847C453.975 93.777 453.515 93.5068 453.006 93.4312C452.497 93.5068 452.037 93.777 451.724 94.1847C451.41 94.5923 451.267 95.1057 451.325 95.6166C451.267 96.1277 451.41 96.6414 451.724 97.0494C452.037 97.4575 452.497 97.7281 453.006 97.8044C453.516 97.7281 453.976 97.4575 454.289 97.0494C454.603 96.6414 454.746 96.1277 454.688 95.6166Z" fill="#393F49"/>
        <path d="M438.235 92.7185C437.395 92.6994 436.691 93.6589 436.657 94.8776C436.624 96.0962 437.284 97.0798 438.123 97.1014C438.961 97.123 439.669 96.1634 439.696 94.9424C439.722 93.7213 439.074 92.7401 438.235 92.7185Z" fill="#393F49"/>
        <path d="M446.318 104.845L443.195 104.989L443.676 103.132C444.293 100.6 444.611 98.0044 444.624 95.3982C444.596 95.0846 444.457 94.7913 444.232 94.5714C444.006 94.3514 443.709 94.2192 443.395 94.1987C443.073 94.2032 442.766 94.3346 442.541 94.5643C442.316 94.7939 442.191 95.1032 442.194 95.4246C442.181 97.8112 441.896 100.189 441.346 102.511L440.426 105.968C440.379 106.148 440.374 106.336 440.411 106.519C440.449 106.701 440.527 106.872 440.641 107.02C440.755 107.167 440.901 107.286 441.068 107.368C441.235 107.451 441.419 107.493 441.605 107.494H441.661L446.435 107.273C446.749 107.245 447.039 107.097 447.246 106.861C447.452 106.624 447.559 106.316 447.544 106.003C447.529 105.689 447.393 105.393 447.164 105.177C446.935 104.962 446.632 104.843 446.318 104.845Z" fill="#393F49"/>
        <path d="M457.813 104.25C457.494 104.201 457.17 104.28 456.91 104.471C456.65 104.661 456.476 104.947 456.427 105.265C456.103 106.767 455.286 108.118 454.106 109.105C452.927 110.092 451.451 110.658 449.914 110.713C449.604 110.746 449.32 110.897 449.118 111.134C448.917 111.37 448.814 111.675 448.83 111.985C448.846 112.296 448.981 112.588 449.206 112.802C449.431 113.017 449.73 113.137 450.041 113.138C450.086 113.141 450.131 113.141 450.175 113.138C452.249 113.021 454.225 112.22 455.793 110.859C457.36 109.499 458.431 107.657 458.836 105.622C458.881 105.305 458.799 104.982 458.608 104.725C458.416 104.468 458.13 104.297 457.813 104.25Z" fill="#393F49"/>
        <path d="M451.338 84.3126C451.183 84.3768 451.042 84.4725 450.926 84.5935C450.809 84.7146 450.719 84.8584 450.661 85.016C450.603 85.1736 450.578 85.3415 450.588 85.5091C450.598 85.6767 450.643 85.8405 450.719 85.99C450.796 86.1395 450.902 86.2716 451.033 86.3779C451.163 86.4843 451.313 86.5625 451.475 86.6078C451.637 86.653 451.807 86.6643 451.973 86.6409C452.14 86.6174 452.3 86.5598 452.443 86.4717C453.267 85.9586 454.246 85.7508 455.208 85.8845C456.17 86.0182 457.054 86.485 457.707 87.2033C457.917 87.4284 458.204 87.5659 458.511 87.588C458.818 87.6101 459.122 87.5152 459.362 87.3225C459.602 87.1298 459.76 86.8534 459.804 86.5492C459.848 86.2449 459.775 85.9352 459.6 85.6824C458.593 84.5362 457.22 83.7734 455.714 83.5237C454.208 83.274 452.662 83.5528 451.338 84.3126Z" fill="#393F49"/>
        <path d="M473.389 101.772C474.208 102.117 475.11 102.212 475.983 102.045C476.855 101.878 477.659 101.456 478.291 100.833C478.924 100.21 479.357 99.4131 479.536 98.5438C479.715 97.6746 479.632 96.7718 479.297 95.9497C479.237 95.802 479.148 95.6676 479.036 95.5541C478.923 95.4407 478.79 95.3505 478.642 95.2887C478.345 95.1639 478.01 95.1622 477.711 95.284C477.563 95.3444 477.429 95.4332 477.315 95.5455C477.201 95.6577 477.111 95.7913 477.049 95.9384C476.924 96.2355 476.923 96.5701 477.045 96.8685C477.247 97.3733 477.241 97.9373 477.029 98.4379C476.816 98.9384 476.415 99.3349 475.911 99.5409C475.662 99.6455 475.394 99.6994 475.124 99.6994C474.854 99.6994 474.587 99.6455 474.338 99.5409C474.19 99.4787 474.032 99.4461 473.872 99.445C473.712 99.4439 473.553 99.4742 473.405 99.5344C473.257 99.5945 473.122 99.6833 473.008 99.7955C472.894 99.9078 472.803 100.041 472.741 100.189C472.615 100.486 472.612 100.821 472.734 101.12C472.856 101.42 473.091 101.658 473.389 101.784" fill="#393F49"/>
        <path d="M468.541 136.643C446.762 141.532 444.297 131.855 444.194 131.43C444.11 131.134 443.917 130.88 443.653 130.721C443.389 130.561 443.074 130.508 442.772 130.571C442.47 130.634 442.204 130.81 442.026 131.062C441.849 131.314 441.774 131.624 441.816 131.929C442.524 134.343 444.128 136.396 446.3 137.667C449.747 139.667 453.697 140.631 457.677 140.445C461.517 140.382 465.339 139.899 469.074 139.006C469.233 138.975 469.385 138.912 469.52 138.821C469.655 138.73 469.771 138.613 469.86 138.477C469.949 138.341 470.009 138.189 470.038 138.029C470.067 137.869 470.064 137.704 470.028 137.546C469.993 137.387 469.925 137.237 469.831 137.105C469.736 136.973 469.616 136.861 469.477 136.776C469.339 136.691 469.184 136.634 469.023 136.61C468.862 136.585 468.698 136.593 468.541 136.633" fill="#393F49"/>
    </g>
    <defs>
        <clipPath id="clip0_51_8647">
            <rect width="658" height="508" fill="white"/>
        </clipPath>
    </defs>
</svg>
