<svg width="759" height="950" viewBox="0 0 759 950" fill="none" xmlns="http://www.w3.org/2000/svg">
    <g clip-path="url(#clip0_51_8899)">
        <mask id="mask0_51_8899" style="mask-type:luminance" maskUnits="userSpaceOnUse" x="0" y="0" width="759" height="950">
            <path d="M727 0H32C14.3269 0 0 14.3269 0 32V918C0 935.673 14.3269 950 32 950H727C744.673 950 759 935.673 759 918V32C759 14.3269 744.673 0 727 0Z" fill="white"/>
        </mask>
        <g mask="url(#mask0_51_8899)">
            <path d="M727 0H32C14.3269 0 0 14.3269 0 32V918C0 935.673 14.3269 950 32 950H727C744.673 950 759 935.673 759 918V32C759 14.3269 744.673 0 727 0Z" fill="#138944"/>
            <g style="mix-blend-mode:color-burn">
                <path d="M444.091 643.126L-164.425 67.2043C-214.19 20.1053 -294.875 20.1054 -344.639 67.2043L-685.218 389.54C-734.983 436.639 -734.983 513.002 -685.217 560.102L-76.7018 1136.02C-26.9364 1183.12 53.7473 1183.12 103.513 1136.02L444.091 813.688C493.857 766.589 493.857 690.225 444.091 643.126Z" fill="#C5C5C5"/>
            </g>
            <g style="mix-blend-mode:multiply">
                <path d="M830.608 -2.98797L780.011 45.4397L619.536 -106.439C596.775 -127.981 558.317 -127.981 535.556 -106.439L349.226 69.9106C339.445 79.1669 333.964 91.179 333.791 103.734C333.62 116.236 338.708 128.306 349.225 138.792L509.7 290.671C532.461 312.213 570.919 312.213 593.68 290.671L780.01 114.321C789.788 105.067 795.268 93.0584 795.441 80.507C795.614 67.9992 790.523 55.9237 781.106 46.5049L830.608 -2.98797ZM830.618 -2.97766C877.87 44.2827 877.045 118.864 828.128 165.161L641.797 341.511C592.032 388.61 511.348 388.61 461.583 341.511L301.108 189.632C251.342 142.531 251.343 66.1698 301.108 19.0704L487.439 -157.279C537.204 -204.379 617.888 -204.379 667.653 -157.279L828.128 -5.40061C828.975 -4.59857 829.8 -3.7964 830.618 -2.97766Z" fill="#B7DAC5"/>
            </g>
            <path d="M1171.31 783.106L562.79 207.184C513.025 160.085 432.34 160.085 382.575 207.184L41.9968 529.52C-7.76798 576.619 -7.76802 652.982 41.9974 700.082L650.513 1276C700.278 1323.1 780.962 1323.1 830.728 1276L1171.31 953.668C1221.07 906.569 1221.07 830.205 1171.31 783.106Z" fill="#1D7742"/>
            <g opacity="0.154">
                <path d="M1104.49 522.875L1047.02 578.566L906.06 445.16C887.025 427.145 854.863 427.145 835.828 445.16L651.858 619.276C641.858 628.74 639.645 639.018 639.549 645.974C639.454 652.892 641.348 663.146 651.858 673.631L792.814 807.037C811.849 825.052 844.011 825.052 863.047 807.037L1047.02 632.921C1057.01 623.46 1059.23 613.185 1059.32 606.232C1059.42 599.31 1057.52 589.042 1047.91 579.438L1104.49 522.875ZM1104.5 522.886C1151.75 570.146 1150.92 644.727 1102.01 691.024L918.037 865.14C868.273 912.239 787.588 912.239 737.823 865.14L596.867 731.734C547.102 684.635 547.102 608.272 596.867 561.172L780.837 387.057C830.601 339.957 911.286 339.958 961.051 387.057L1102.01 520.462C1102.85 521.265 1103.68 522.067 1104.5 522.886Z" fill="#B7DAC5"/>
            </g>
            <mask id="mask1_51_8899" style="mask-type:luminance" maskUnits="userSpaceOnUse" x="4" y="171" width="1205" height="1141">
                <path d="M1171.31 783.106L562.79 207.184C513.025 160.085 432.34 160.085 382.575 207.184L41.9968 529.52C-7.76792 576.619 -7.76796 652.982 41.9975 700.082L650.513 1276C700.279 1323.1 780.962 1323.1 830.728 1276L1171.31 953.668C1221.07 906.569 1221.07 830.205 1171.31 783.106Z" fill="white"/>
            </mask>
            <g mask="url(#mask1_51_8899)">
                <g style="mix-blend-mode:overlay" opacity="0.42">
                    <path d="M444.095 643.126L-164.421 67.2043C-214.186 20.1053 -294.871 20.1054 -344.635 67.2043L-685.214 389.54C-734.979 436.639 -734.979 513.002 -685.213 560.102L-76.6979 1136.02C-26.9324 1183.12 53.7513 1183.12 103.517 1136.02L444.095 813.688C493.861 766.589 493.861 690.225 444.095 643.126Z" fill="#B7DAC5"/>
                </g>
                <mask id="mask2_51_8899" style="mask-type:luminance" maskUnits="userSpaceOnUse" x="-723" y="31" width="1205" height="1141">
                    <path d="M444.095 643.126L-164.421 67.2043C-214.186 20.1053 -294.871 20.1054 -344.635 67.2043L-685.214 389.54C-734.979 436.639 -734.979 513.002 -685.213 560.102L-76.6979 1136.02C-26.9324 1183.12 53.7513 1183.12 103.517 1136.02L444.095 813.688C493.861 766.589 493.861 690.225 444.095 643.126Z" fill="white"/>
                </mask>
                <g mask="url(#mask2_51_8899)">
                    <g style="mix-blend-mode:multiply">
                        <path d="M-503.472 197.653C-1026.69 301.243 -918.622 489.885 -748.46 440.242C-578.298 390.599 -369.868 287.242 -152.002 471.715C65.8652 656.188 22.0575 1012.87 -73.897 1056.75C-169.851 1100.63 -1.61897 1096.61 -115.901 802.039C-199.464 586.651 -210.192 452.391 -279.704 430.872C-305.256 422.961 -316.668 464.546 -374.084 474.034C-412.998 480.465 -820.911 652.948 -829.231 655.628C-866.575 667.662 -225.438 461.855 -261.321 496.586C-305.197 539.054 -642.625 872.068 -552.387 855.067C-462.15 838.066 -329.564 600.032 -207.28 707.309C-151.949 755.85 -230.454 1020.07 -187.956 1108.91C-136.533 1216.41 30.929 1135.6 35.857 991.574C44.8582 728.52 115.941 352.003 -19.9095 216.932C-155.76 81.8601 37.8737 376.124 1.35275 454.832C-35.1682 533.54 -167.114 388.17 -213.322 321.7C-259.53 255.23 215.919 -50.7533 157.106 267.63C98.2927 586.013 116.527 839.03 152.379 909.564C188.231 980.099 447.371 932.504 447.371 932.504C447.371 932.504 165.742 819.232 194.808 586.15C223.875 353.069 280.385 460.875 280.385 460.875C280.385 460.875 234.462 728.94 481.903 758.867" stroke="#138944" stroke-width="2.40028" stroke-miterlimit="10"/>
                    </g>
                </g>
            </g>
            <mask id="mask3_51_8899" style="mask-type:luminance" maskUnits="userSpaceOnUse" x="4" y="171" width="1205" height="1141">
                <path d="M1171.31 783.106L562.79 207.184C513.025 160.085 432.34 160.085 382.575 207.184L41.9968 529.52C-7.76792 576.619 -7.76796 652.982 41.9975 700.082L650.513 1276C700.279 1323.1 780.962 1323.1 830.728 1276L1171.31 953.668C1221.07 906.569 1221.07 830.205 1171.31 783.106Z" fill="white"/>
            </mask>
            <g mask="url(#mask3_51_8899)">
                <g style="mix-blend-mode:color-burn">
                    <path d="M830.612 -2.98748L780.015 45.4402L619.54 -106.439C596.779 -127.98 558.321 -127.98 535.56 -106.439L349.23 69.9111C339.45 79.1674 333.968 91.1794 333.796 103.735C333.624 116.237 338.712 128.307 349.23 138.792L509.704 290.671C532.465 312.213 570.923 312.213 593.685 290.671L780.015 114.322C789.792 105.068 795.272 93.0588 795.446 80.5075C795.618 67.9997 790.527 55.9241 781.11 46.5054L830.612 -2.98748ZM830.622 -2.97717C877.874 44.2832 877.049 118.864 828.132 165.162L641.802 341.512C592.037 388.611 511.352 388.611 461.587 341.511L301.113 189.633C251.346 142.532 251.348 66.1703 301.113 19.0709L487.443 -157.279C537.208 -204.378 617.893 -204.378 667.657 -157.279L828.132 -5.40012C828.979 -4.59808 829.804 -3.79591 830.622 -2.97717Z" fill="#B7DAC5"/>
                </g>
            </g>
        </g>
    </g>
    <defs>
        <clipPath id="clip0_51_8899">
            <rect width="759" height="950" fill="white"/>
        </clipPath>
    </defs>
</svg>
