<svg width="605" height="467" viewBox="0 0 605 467" fill="none" xmlns="http://www.w3.org/2000/svg">
    <path opacity="0.25" d="M327.138 444C323.669 444 320.1 443.939 316.533 443.82C313.255 443.321 309.961 442.74 306.767 442.189C305.128 441.903 303.427 441.608 301.762 441.327L294.427 440.057C292.821 439.765 291.194 439.429 289.618 439.103C288.854 438.944 287.979 438.766 287.139 438.595C282.455 439.707 277.619 440.252 272.767 440.215C271.872 440.215 270.952 440.199 270.034 440.166C266.885 440.087 263.507 439.902 259.995 439.61C256.877 439.272 253.398 438.842 249.042 438.255C238.108 436.687 225.795 434.414 212.758 432.008H212.734C207.543 431.048 202.176 430.067 196.632 429.064C193.397 427.35 189.869 426.104 186.183 425.374C183.725 424.654 181.039 423.916 178.193 423.176C177.462 422.984 176.704 422.788 175.972 422.6H175.954C173.815 422.05 171.604 421.481 169.439 420.801L160.741 418.207C158.283 417.435 155.937 416.546 153.862 415.761L152.964 415.423C150.87 414.646 148.825 413.769 146.838 412.797C145.506 412.137 144.287 411.314 143.218 410.353C134.953 406.989 134.957 404.736 135.724 402.535C115.354 393.393 96.7231 381.528 80.4987 367.363C81.0299 369.456 81.9505 371.457 83.2236 373.286C83.9099 374.384 84.6987 375.559 85.5715 376.781C86.4647 377.904 87.4768 379.108 88.6672 380.462C91.0022 383.194 93.5633 385.772 96.3297 388.174C94.4017 386.821 92.6029 385.397 90.8614 384.02C89.12 382.643 87.4441 381.32 85.9833 380.356C93.3333 386.951 101.141 393.14 109.362 398.888C110.298 399.583 111.175 400.222 112.025 400.837L112.042 400.848C113.962 402.072 115.708 403.494 117.242 405.083C117.416 405.328 117.467 405.511 117.393 405.623C117.319 405.735 117.172 405.772 116.924 405.772C114.899 405.445 112.939 404.858 111.108 404.03C107.625 402.137 104.644 400.18 102.015 398.451L100.581 397.515C98.3494 395.998 96.2128 394.375 94.1805 392.656C93.7707 392.322 93.3739 391.997 92.9901 391.68C91.9657 390.829 90.9762 389.97 89.9436 389.058C89.1425 388.298 88.4008 387.54 87.6899 386.808L87.356 386.468C85.6759 384.736 84.1476 383.081 82.7974 381.619C77.4378 375.291 72.2359 369.609 60.5332 357.306C60.6726 357.333 60.8147 357.347 60.9573 357.349C61.0677 357.36 61.1795 357.345 61.2808 357.305C61.3822 357.265 61.4694 357.202 61.5331 357.122C61.9551 356.496 60.8508 354.631 59.2446 352.067C58.0542 350.234 56.5258 348.125 55.1859 346.307L50.9367 339.828C49.7021 337.994 48.5904 336.098 47.6074 334.15L47.5419 334.025C46.8576 332.839 46.3224 331.59 45.9459 330.302C45.8785 330.113 45.8984 329.909 46.0012 329.733C46.0245 329.709 46.0536 329.691 46.0862 329.679C46.1189 329.667 46.1543 329.661 46.1897 329.663C46.8043 329.663 48.4433 331.004 51.2092 333.761C46.6466 326.811 42.6748 319.574 39.3262 312.109C37.6647 309.165 36.1117 306.415 34.4522 303.47C35.7818 308.051 36.3084 310.268 36.4825 310.997L36.5071 311.103C36.5276 311.231 36.5255 311.308 36.5071 311.334C36.5042 311.337 36.5005 311.34 36.4963 311.342C36.492 311.343 36.4873 311.344 36.4825 311.344C36.0558 310.925 35.7272 310.436 35.5155 309.905L35.4008 309.683C34.7738 308.461 33.9932 306.942 33.6306 306.942C33.6132 306.942 33.596 306.946 33.5804 306.953C33.5648 306.96 33.5512 306.97 33.5405 306.982C33.3351 307.962 33.3798 308.97 33.6716 309.933C26.8633 295.031 22.4049 279.381 20.42 263.418C18.4838 247.781 18.5278 232.004 20.5512 216.377C22.533 201.013 26.48 185.895 32.3173 171.308C38.0351 156.988 45.4695 143.244 54.4955 130.305C62.4222 120.498 69.8204 112.046 77.112 104.469C85.9505 95.1821 93.5351 87.7867 100.98 81.1923C102.798 79.5149 104.959 77.5495 107.215 75.6921L113.566 70.2837C114.916 69.22 116.279 68.124 117.598 67.0639C120.565 64.6774 123.634 62.2045 126.799 59.9205C130.383 57.1416 134.208 54.4815 137.904 51.9096C138.831 51.2641 139.76 50.6162 140.69 49.9659C142.216 48.9184 143.81 47.8961 145.353 46.9062L145.374 46.8936C146.226 46.3537 147.105 45.7831 147.967 45.218L151.655 42.8423L155.445 40.5781C158.967 39.0357 161.573 37.9288 163.69 37.1801C165.305 36.6048 166.966 36.1344 168.66 35.7727C169.114 35.6798 169.577 35.6273 170.043 35.6161C170.545 35.6161 170.862 35.7169 171.016 35.9149C171.17 36.1129 171.125 36.4242 170.906 36.8328C169.657 38.53 168.183 40.09 166.513 41.4798C165.155 42.6889 163.872 43.9614 162.669 45.2918C173.411 40.0323 184.499 35.3398 195.876 31.239C190.125 33.8667 184.341 36.7518 178.199 40.058C194.861 32.8728 212.174 26.9183 229.96 22.2562C248.441 17.4184 267.335 13.8938 286.459 11.7167C289.532 10.7484 295.191 9.46511 299.186 8.58501C302.09 8.08719 304.895 7.21826 307.513 6.00591C307.717 5.85113 307.777 5.69635 307.717 5.54876C307.564 5.17441 306.414 4.51388 300.444 4.30151C282.927 5.71741 265.547 8.22666 248.436 11.8102C247.316 11.9693 246.187 12.0649 245.053 12.0964C244.398 12.0964 244.047 12.0208 244.016 11.8696C243.947 11.5439 245.373 10.8654 248.141 9.90246C255.797 7.56048 263.644 5.73264 271.616 4.43469C278.838 3.88215 284.023 3.56719 288.188 3.31522C292.081 3.07945 294.882 2.91027 297.455 2.66009C300.139 2.39013 302.534 2.02297 305.304 1.55502L308.172 1.13747L315.986 0C317.349 0.488937 318.821 0.697043 320.289 0.60833C321.94 0.703719 324.044 0.748714 326.724 0.748714H328.158C329.68 0.714518 331.287 0.69832 332.934 0.69832C337.626 0.69832 342.391 0.838704 346.011 1.08348L346.339 1.06908L347.073 1.03488L349.564 0.919694L351.314 0.883698L352.838 0.856702L354.682 0.806307L358.72 0.69832C359.355 0.682122 359.986 0.660524 360.599 0.638927H360.617C361.748 0.599331 362.815 0.561535 363.895 0.561535H364.129L366.948 0.624528L369.501 0.680322H369.621C373.74 0.759802 377.848 1.08996 381.914 1.66841C384.424 2.00857 387.016 2.39732 389.833 2.85627C392.816 3.4502 396.061 4.19352 399.403 4.96563C395.373 5.02862 393.256 5.37958 392.959 6.04551C392.851 6.27948 392.978 6.55665 393.332 6.86981C394.46 7.67916 395.725 8.32836 397.081 8.79379C397.962 9.15375 398.983 9.51371 400.062 9.89526C401.195 10.2948 402.476 10.7466 403.797 11.2703C414.269 14.7799 429.27 20.8812 437.463 25.98C430.864 23.7202 424.119 21.8061 417.262 20.2477C426.685 23.0998 435.854 26.5632 444.693 30.6091C453.259 34.5436 461.477 39.0364 469.279 44.0499C476.329 47.772 483.111 51.8732 489.586 56.3299C479.951 48.0171 469.521 40.4463 458.412 33.7011C449.136 27.9516 439.328 22.8945 429.092 18.5829C441.928 23.2856 454.414 28.6958 466.474 34.781C476.998 40.1803 487.063 46.2403 496.593 52.9139C505.876 59.538 514.351 66.99 521.883 75.1504C530.103 84.1747 536.97 94.0893 542.314 104.651C544.246 107.602 545.961 110.333 547.473 112.75C549.071 115.293 550.579 117.696 552.043 119.884C553.097 121.634 554.135 123.288 555.141 124.886C556.655 127.294 558.083 129.565 559.427 131.95L559.761 132.553C562.148 136.682 564.255 140.932 566.07 145.279C568.695 151.548 570.848 157.962 572.515 164.48C572.695 165.621 572.71 166.249 572.556 166.403C572.545 166.415 572.532 166.425 572.517 166.431C572.502 166.438 572.485 166.441 572.468 166.441C572.185 166.441 571.626 165.541 571.132 164.76L571.091 164.695C570.571 163.864 570.081 163.076 569.839 163.076C569.825 163.076 569.812 163.079 569.799 163.084C569.787 163.09 569.776 163.098 569.768 163.108C569.662 164.305 569.817 165.508 570.224 166.654C571.117 171.262 572.749 175.736 575.072 179.942C575.6 180.93 576.145 181.95 576.686 183.131L576.838 179.258C576.783 180.886 576.949 183.16 577.123 185.557C577.166 186.147 577.209 186.752 577.252 187.357C577.271 187.695 577.29 188.035 577.309 188.377L577.319 188.557C577.479 191.412 577.645 194.365 577.649 196.836C577.72 198.477 577.556 200.118 577.162 201.723C577.971 204.422 578.786 206.838 579.507 208.969L579.52 209.005C579.93 210.223 580.321 211.373 580.675 212.478C581.22 214.199 581.757 215.797 582.277 217.338C582.88 219.128 583.449 220.82 583.99 222.579C584.693 225.23 585.594 228.878 586.326 233.658C586.607 236.027 586.756 238.638 586.863 240.881C586.89 241.746 586.919 242.646 586.949 243.58L586.998 245.141C587.012 246.242 586.953 247.385 586.889 248.593C586.867 249.023 586.844 249.46 586.824 249.903C586.871 249.458 586.838 249.009 586.725 248.573C586.397 249.901 586.184 251.249 586.088 252.605V252.623C585.959 253.634 585.828 254.68 585.678 255.682C585.578 257.142 585.239 258.581 584.67 259.955C584.662 259.966 584.651 259.975 584.638 259.982C584.626 259.988 584.611 259.993 584.597 259.995C584.486 259.995 584.408 259.692 584.359 259.069L584.316 257.916V257.874C584.287 257.12 584.25 256.143 584.205 254.903C583.73 258.062 583.408 262.102 583.033 266.773V266.785C582.749 270.336 582.419 274.361 581.997 278.379C581.905 279.88 581.665 281.405 581.433 282.879C581.312 283.649 581.188 284.439 581.083 285.219C580.97 285.939 580.86 286.698 580.761 287.362V287.373C580.538 288.887 580.309 290.452 580.026 291.948C579.809 292.893 579.598 293.832 579.395 294.743C578.651 298.064 577.961 301.199 577.045 303.922C576.938 303.964 576.822 303.986 576.705 303.987C576.119 303.987 575.756 303.343 575.437 302.776L575.406 302.723C575.07 302.128 574.75 301.566 574.254 301.566C573.64 301.566 572.81 302.534 571.722 304.505C571.089 305.643 570.366 307.119 569.511 309.021C568.817 310.7 567.831 312.707 566.688 315.032V315.043L566.674 315.07L566.106 316.227L564.658 319.564L564.271 320.464L563.838 321.461L562.834 323.561L561.929 325.433C561.123 327.105 560.433 328.818 559.862 330.563C559.145 333.025 559.423 333.568 559.931 334.115L560.028 334.223C560.491 334.736 560.972 335.265 560.499 337.186C559.057 341.592 556.872 345.783 554.016 349.621C554.475 348.969 554.949 348.309 555.408 347.67L555.428 347.641C557.067 345.348 558.772 342.981 560.177 340.519C560.741 339.567 561.337 338.606 561.915 337.677C563.236 335.55 564.599 333.358 565.684 331.09C564.826 334.116 563.675 337.071 562.244 339.925C562.096 340.24 561.945 340.557 561.794 340.879C561.161 342.225 560.505 343.617 559.745 345.019C558.968 346.3 558.167 347.62 557.344 348.978L557.186 349.239L556.506 350.364C551.336 358.529 545.251 366.22 538.341 373.322L532.482 378.921C531.493 379.86 530.5 380.801 529.503 381.745L526.305 384.4C524.162 386.164 522.015 387.932 519.865 389.704C518.409 390.784 516.903 391.864 515.45 392.913L515.419 392.934C514.653 393.485 513.86 394.054 513.086 394.615C509.994 396.975 506.673 399.054 503.456 401.062C502.094 401.915 500.684 402.797 499.334 403.676C497.859 404.671 496.29 405.533 494.772 406.375C494.003 406.798 493.208 407.234 492.44 407.68L491.131 408.422L491.08 408.45L485.753 411.469C471.723 416.81 457.157 420.992 442.245 423.961C433.386 425.727 424.16 427.445 414.381 429.265H414.344C407.233 430.59 399.878 431.965 391.964 433.478C392.318 433.361 392.89 433.189 393.553 432.991C396.461 432.116 401.326 430.651 401.339 429.881C401.339 429.765 401.234 429.668 401.017 429.593C398.142 429.751 395.283 430.077 392.457 430.57C390.929 430.8 389.357 431.036 387.778 431.239C383.846 431.828 379.378 432.618 374.479 433.579C369.337 434.709 366.852 435.539 366.882 436.117C366.911 436.635 368.904 436.902 370.834 437.159C372.678 437.404 374.565 437.656 374.627 438.125C374.659 438.367 374.217 438.644 373.293 438.975C370.931 439.355 368.542 439.772 366.231 440.179C360.308 441.218 354.184 442.292 347.64 442.861C346.802 442.938 345.921 443.025 345.145 443.1C341.32 443.473 337.359 443.856 333.153 443.917C331.164 443.98 329.133 444 327.138 444ZM236.377 431.441C238.55 431.441 241.132 431.527 244.123 431.621H244.156C245.168 431.655 246.217 431.689 247.295 431.724L247.756 431.734H247.768L248.145 431.743C241.138 430.946 234.213 430.01 227.571 428.965C227.52 429.391 228.157 430.296 233.025 431.544C233.887 431.477 234.983 431.441 236.364 431.441H236.377ZM513.987 83.7588C520.579 91.731 526.562 100.078 531.898 108.745C537.471 117.811 542.45 127.148 546.811 136.712C556.106 157.429 563.265 178.836 568.202 200.677C572.461 218.608 574.462 236.896 574.17 255.211C574.486 252.824 574.785 250.105 575.008 247.347C575.351 241.601 575.192 235.84 574.533 230.114C574.838 231.515 575.148 231.786 575.475 232.074C575.857 232.411 576.295 232.794 576.795 235.048C576.135 230.453 575.68 226.497 575.281 223.007C575.076 221.164 574.871 219.424 574.666 217.842C574.439 215.644 574.297 213.635 574.242 211.872C574.109 209.85 574.066 208.501 574.093 207.356C574.078 205.54 574.328 203.729 574.838 201.969C574.237 201.278 573.71 200.539 573.263 199.763C569.972 184.137 564.317 168.968 556.446 154.66C555.469 152.82 554.486 150.99 553.533 149.221L553.486 149.134C547.7 138.834 542.601 128.246 538.214 117.426C538.55 115.52 538.925 113.268 539.177 111.017C538.544 110.101 537.911 109.165 537.298 108.259L537.266 108.211C536.124 106.524 534.944 104.78 533.727 103.092L527.929 95.3674C527.857 95.1229 527.821 94.8713 527.821 94.6187C527.788 93.8214 527.753 92.9197 524.557 89.0394C522.699 87.1028 521.639 86.1597 521.314 86.1597C521.297 86.1588 521.28 86.162 521.264 86.169C521.249 86.176 521.237 86.1865 521.228 86.1993C521.693 87.8077 522.438 89.3431 523.438 90.751C525.149 93.7512 527.087 97.151 526.618 97.8566C526.592 97.896 526.555 97.9288 526.51 97.9516C526.465 97.9743 526.414 97.9862 526.362 97.9861C522.42 93.0583 518.255 88.2709 513.987 83.7588ZM153.935 50.2592C117.688 68.8367 86.4053 95.4052 65.8765 125.069C82.5105 103.158 103.184 83.8334 127.047 67.89C135.445 61.373 144.439 55.4738 153.937 50.252L153.935 50.2592ZM489.265 58.792C493.977 62.7696 498.623 67.0873 503.055 71.6228C503.259 71.7684 503.493 71.8767 503.745 71.9413C503.755 71.9422 503.765 71.9408 503.774 71.9373C503.783 71.9338 503.791 71.9284 503.797 71.9215C503.815 71.8963 503.797 71.8459 503.764 71.7686C499.726 66.8089 494.834 62.431 489.265 58.792ZM352.686 6.28668C348.757 6.63404 347.677 7.44394 347.138 8.19266C346.979 8.43016 346.842 8.67877 346.728 8.93597L346.634 9.13035C358.616 9.53394 370.554 10.6324 382.371 12.4186C380.984 12.082 379.892 11.8012 378.935 11.5403C379.14 11.4557 379.247 11.3603 379.224 11.2451C378.97 9.94206 362.076 6.9688 352.686 6.29388V6.28668Z" fill="#138944"/>
    <path opacity="0.3" d="M132.863 93.7297V88.0597C132.863 76.8697 125.423 72.9097 117.813 72.9097C110.203 72.9097 102.933 78.6097 102.933 88.0597V93.7297H100.812V125.11H134.812V93.7297H132.863ZM118.823 110.98V116.66H115.602V110.98C114.032 110.34 112.922 108.81 112.922 107.01C112.922 104.64 114.842 102.72 117.212 102.72C119.582 102.72 121.503 104.64 121.503 107.01C121.503 108.81 120.393 110.35 118.823 110.98ZM128.153 93.7297H107.483V88.0597C107.483 82.3597 112.123 77.7197 117.823 77.7197C123.523 77.7197 128.163 81.6197 128.163 88.0597V93.7297H128.153Z" stroke="black" stroke-miterlimit="10"/>
    <path opacity="0.3" d="M252.797 34.6299H156.457C149.012 34.6299 142.977 40.6628 142.977 48.1049C142.977 55.5469 149.012 61.5799 156.457 61.5799H252.797C260.241 61.5799 266.277 55.5469 266.277 48.1049C266.277 40.6628 260.241 34.6299 252.797 34.6299Z" stroke="black" stroke-miterlimit="10"/>
    <path opacity="0.3" d="M128.214 218.44C127.324 216.9 126.084 216.03 124.774 216.03H122.504V214C124.124 212.09 125.174 209.2 125.174 206.23C125.174 201.13 122.104 196.99 118.314 196.99C114.524 196.99 111.454 201.12 111.454 206.23C111.454 209.09 112.414 211.88 113.934 213.78V216.03H110.904C109.564 216.03 108.294 216.9 107.384 218.44L103.274 225.36H132.214L128.204 218.44H128.214Z" stroke="black" stroke-miterlimit="10"/>
    <path opacity="0.3" d="M137.819 221.416C142.368 210.436 137.153 197.847 126.173 193.299C115.192 188.751 102.604 193.965 98.0557 204.946C93.5074 215.926 98.7217 228.514 109.702 233.063C120.683 237.611 133.271 232.397 137.819 221.416Z" stroke="black" stroke-miterlimit="10"/>
    <path opacity="0.5" d="M498.529 52.2301L475.629 47.8601L475.589 47.9401C474.449 50.2501 472.579 51.5401 470.859 51.2101L469.869 51.0201C468.139 50.6901 466.879 48.8101 466.669 46.2401V46.1501L443.759 41.7801C437.379 40.5601 431.229 44.7501 430.009 51.1201L400.309 201.83C399.609 205.49 402.009 209.02 405.669 209.72L470.279 222.05C473.939 222.75 477.469 220.35 478.169 216.69L507.869 65.9801C509.089 59.6001 504.899 53.4501 498.529 52.2301Z" fill="#138944" stroke="#138944" stroke-linecap="round" stroke-linejoin="round"/>
    <path d="M507.227 69.3401L507.867 65.9801C509.087 59.6001 504.897 53.4501 498.527 52.2301L475.627 47.8601L475.587 47.9401C474.447 50.2501 472.577 51.5401 470.857 51.2101L469.867 51.0201C468.137 50.6901 466.877 48.8101 466.667 46.2401V46.1501L443.757 41.7801C437.377 40.5601 431.227 44.7501 430.007 51.1201L429.367 54.4801L507.237 69.3401H507.227Z" fill="white" stroke="#138944" stroke-linecap="round" stroke-linejoin="round"/>
    <path d="M502.217 117.6L505.007 102.97L503.687 102.72L512.017 64.0302C513.237 57.6502 509.047 51.5002 502.677 50.2802L440.647 38.4402C434.267 37.2202 428.117 41.4102 426.897 47.7802L396.367 202.84C395.147 209.22 399.337 215.37 405.707 216.59L467.737 228.43C474.117 229.65 480.267 225.46 481.487 219.09L498.527 129.82L499.847 130.07L501.497 121.42L500.177 121.17L500.907 117.35L502.227 117.6H502.217ZM479.417 210.15C478.197 216.53 472.047 220.71 465.667 219.49L410.897 209.04C404.517 207.82 400.337 201.67 401.557 195.29L430.017 51.1102C431.237 44.7302 437.387 40.5502 443.767 41.7702L466.667 46.1402V46.2302C466.887 48.8002 468.147 50.6802 469.877 51.0102L470.867 51.2002C472.597 51.5302 474.457 50.2402 475.597 47.9302L475.637 47.8502L498.537 52.2202C504.917 53.4402 509.097 59.5902 507.877 65.9702L479.417 210.15Z" fill="white" stroke="#138944" stroke-linecap="round" stroke-linejoin="round"/>
    <path d="M500.34 51.4903L442.36 40.4303C435.6 39.1403 429.08 43.5703 427.79 50.3303L398.13 200.84C396.84 207.6 401.27 214.12 408.03 215.41L466.01 226.47C472.77 227.76 479.29 223.33 480.58 216.57L510.24 66.0603C511.53 59.3003 507.1 52.7803 500.34 51.4903ZM479.42 210.16C478.2 216.54 472.05 220.72 465.67 219.5L410.9 209.05C404.52 207.83 400.34 201.68 401.56 195.3L430.02 51.1203C431.24 44.7403 437.39 40.5603 443.77 41.7803L466.67 46.1503V46.2403C466.89 48.8103 468.15 50.6903 469.88 51.0203L470.87 51.2103C472.6 51.5403 474.46 50.2503 475.6 47.9403L475.64 47.8603L498.54 52.2303C504.92 53.4503 509.1 59.6003 507.88 65.9803L479.42 210.16Z" fill="#138944" stroke="#138944" stroke-linecap="round" stroke-linejoin="round"/>
    <path d="M471.884 47.7202C471.994 47.1202 471.604 46.5402 471.004 46.4302C470.404 46.3202 469.824 46.7102 469.714 47.3102C469.604 47.9102 469.994 48.4902 470.594 48.6002C471.194 48.7102 471.774 48.3202 471.884 47.7202Z" fill="white"/>
    <path d="M438.24 45.6003C438.03 46.7003 436.72 46.8603 436.56 47.6903V47.7503L437.74 47.9803L437.67 48.3503L436.07 48.0503L436.13 47.7403C436.35 46.5703 437.63 46.5703 437.83 45.5503C437.9 45.1803 437.81 44.9503 437.51 44.9003C437.21 44.8403 437.04 45.0303 436.98 45.3503L436.92 45.6703L436.54 45.6003L436.6 45.3003C436.71 44.7403 437.03 44.4203 437.59 44.5303C438.16 44.6403 438.34 45.0503 438.24 45.6103V45.6003Z" fill="#138944"/>
    <path d="M440.231 45.9804L440.211 46.0704C440.141 46.4404 439.941 46.6804 439.631 46.7304C439.911 46.9004 440.001 47.2004 439.931 47.5704L439.881 47.8504C439.771 48.4104 439.441 48.7204 438.881 48.6104C438.321 48.5004 438.131 48.0904 438.241 47.5304L438.291 47.2804L438.671 47.3504L438.621 47.6304C438.561 47.9604 438.651 48.1804 438.951 48.2404C439.251 48.3004 439.411 48.1304 439.481 47.7604L439.531 47.4804C439.601 47.1204 439.481 46.9204 439.181 46.8504L438.961 46.8104L439.031 46.4504L439.271 46.5004C439.541 46.5404 439.741 46.4004 439.801 46.0804L439.831 45.9104C439.901 45.5404 439.811 45.3204 439.511 45.2604C439.221 45.2004 439.051 45.3804 438.981 45.7104L438.941 45.9004L438.561 45.8304L438.591 45.6604C438.701 45.1004 439.021 44.7904 439.581 44.9004C440.141 45.0104 440.331 45.4204 440.231 45.9704V45.9804Z" fill="#138944"/>
    <path d="M440.956 46.4001L440.856 46.9001L440.466 46.8301L440.566 46.3301L440.956 46.4001ZM440.576 48.3801L440.476 48.8801L440.086 48.8101L440.186 48.3101L440.576 48.3801Z" fill="#138944"/>
    <path d="M441.715 46.8903C441.865 46.7103 442.065 46.6503 442.315 46.6903C442.785 46.7803 442.925 47.1603 442.825 47.6803L442.685 48.3903C442.575 48.9503 442.245 49.2603 441.685 49.1503C441.125 49.0403 440.935 48.6303 441.045 48.0703L441.095 47.8303L441.475 47.9003L441.425 48.1703C441.365 48.5003 441.455 48.7203 441.755 48.7803C442.045 48.8403 442.215 48.6603 442.285 48.3403L442.415 47.6303C442.475 47.3003 442.385 47.0803 442.085 47.0203C441.865 46.9803 441.685 47.0703 441.595 47.3303L441.575 47.4103L441.195 47.3403L441.675 45.3403L443.105 45.6103L443.035 45.9703L441.965 45.7703L441.695 46.8803L441.715 46.8903Z" fill="#138944"/>
    <path d="M445.064 46.9001V46.9701L444.674 46.9001L444.694 46.8101C444.754 46.4801 444.654 46.2601 444.364 46.2101C444.054 46.1501 443.884 46.3201 443.814 46.7101L443.654 47.5301C443.804 47.3001 444.024 47.2001 444.314 47.2501C444.784 47.3401 444.924 47.7201 444.824 48.2401L444.714 48.7901C444.604 49.3501 444.264 49.6601 443.704 49.5501C443.144 49.4401 442.934 49.0301 443.044 48.4701L443.394 46.6101C443.504 46.0301 443.834 45.7201 444.414 45.8301C444.974 45.9401 445.164 46.3401 445.064 46.9001ZM443.554 48.0201L443.454 48.5701C443.394 48.9001 443.484 49.1201 443.784 49.1801C444.074 49.2401 444.254 49.0601 444.314 48.7401L444.414 48.1901C444.474 47.8601 444.374 47.6401 444.084 47.5801C443.784 47.5201 443.614 47.7001 443.554 48.0201Z" fill="#138944"/>
    <path d="M484.766 54.6535L483.734 54.4565L483.245 57.0202L484.276 57.2172L484.766 54.6535Z" fill="#138944"/>
    <path d="M486.235 54.373L485.203 54.1763L484.615 57.2607L485.646 57.4574L486.235 54.373Z" fill="#138944"/>
    <path d="M487.68 54.269L486.648 54.0723L485.991 57.5201L487.022 57.7168L487.68 54.269Z" fill="#138944"/>
    <path d="M489.172 53.894L488.141 53.6973L487.361 57.7836L488.393 57.9803L489.172 53.894Z" fill="#138944"/>
    <path d="M501.105 60.3401L494.945 59.1601L495.665 55.3901L501.825 56.5701L501.105 60.3401ZM495.345 58.8901L500.825 59.9401L501.415 56.8601L495.935 55.8101L495.345 58.8901Z" fill="#138944"/>
    <path d="M499.642 56.882L496.391 56.2617L495.945 58.5996L499.196 59.2198L499.642 56.882Z" fill="#138944"/>
    <path d="M502.112 58.1212L501.336 57.9731L501.167 58.8572L501.943 59.0052L502.112 58.1212Z" fill="#138944"/>
    <path d="M492.844 57.9201C492.844 57.9201 492.764 57.8901 492.734 57.8701C491.624 56.8901 490.664 57.4201 490.624 57.4401C490.514 57.5001 490.374 57.4701 490.304 57.3601C490.244 57.2501 490.274 57.1101 490.384 57.0401C490.434 57.0101 491.674 56.3001 493.044 57.5201C493.144 57.6101 493.154 57.7501 493.064 57.8501C493.004 57.9101 492.924 57.9401 492.844 57.9201Z" fill="#138944"/>
    <path d="M493.458 57.23C493.458 57.23 493.378 57.2 493.348 57.18C491.738 55.76 490.318 56.57 490.308 56.57C490.198 56.64 490.058 56.6 489.988 56.49C489.918 56.38 489.958 56.23 490.068 56.17C490.088 56.16 491.798 55.18 493.658 56.83C493.758 56.92 493.768 57.06 493.678 57.16C493.618 57.22 493.538 57.25 493.458 57.23Z" fill="#138944"/>
    <path d="M494.048 56.4202C494.048 56.4202 493.968 56.3902 493.938 56.3702C491.898 54.5702 490.128 55.5602 490.058 55.6002C489.948 55.6602 489.798 55.6302 489.738 55.5202C489.668 55.4102 489.708 55.2702 489.818 55.2002C489.838 55.1902 491.948 53.9802 494.248 56.0202C494.348 56.1102 494.358 56.2502 494.268 56.3502C494.208 56.4102 494.128 56.4402 494.048 56.4202Z" fill="#138944"/>
    <path d="M492.076 58.1704C492.016 58.4904 491.706 58.7004 491.386 58.6404C491.066 58.5804 490.856 58.2704 490.916 57.9504C490.976 57.6304 491.286 57.4204 491.606 57.4804C491.926 57.5404 492.136 57.8504 492.076 58.1704Z" fill="#138944"/>
    <path d="M486.984 110.922L432.722 100.571C429.825 100.018 427.029 101.919 426.476 104.816L417.787 150.364C417.234 153.261 419.135 156.058 422.032 156.61L476.293 166.961C479.19 167.514 481.987 165.614 482.539 162.717L491.228 117.168C491.781 114.271 489.88 111.474 486.984 110.922Z" fill="white" stroke="#949494" stroke-miterlimit="10"/>
    <path d="M442.739 93.7902L442.039 88.4502L442.949 88.6202L443.439 92.7002L445.409 89.0802L446.239 89.2402L443.609 93.9502L443.069 96.7602L442.209 96.6002L442.749 93.7902H442.739Z" fill="#949494"/>
    <path d="M446.264 91.21C446.494 90.01 447.234 89.35 448.434 89.58C449.644 89.81 450.084 90.7 449.864 91.89L449.094 95.94C448.864 97.13 448.124 97.8 446.914 97.57C445.714 97.34 445.274 96.44 445.504 95.26L446.274 91.21H446.264ZM446.344 95.47C446.204 96.19 446.434 96.66 447.054 96.78C447.694 96.9 448.064 96.54 448.194 95.83L448.984 91.69C449.114 90.99 448.914 90.5 448.274 90.38C447.644 90.26 447.264 90.63 447.124 91.33L446.334 95.47H446.344Z" fill="#949494"/>
    <path d="M450.731 96.3104C450.601 97.0204 450.791 97.4904 451.431 97.6204C452.061 97.7404 452.421 97.3704 452.551 96.6604L453.691 90.6704L454.511 90.8304L453.381 96.7704C453.151 97.9604 452.451 98.6504 451.241 98.4204C450.041 98.1904 449.651 97.2904 449.871 96.1104L451.001 90.1704L451.861 90.3304L450.721 96.3204L450.731 96.3104Z" fill="#949494"/>
    <path d="M457.131 91.3202C458.361 91.5502 458.761 92.2802 458.531 93.4402L458.411 94.0802C458.251 94.9402 457.841 95.4202 457.131 95.5102C457.811 95.8602 457.961 96.4902 457.801 97.3302L457.571 98.5502C457.501 98.9002 457.451 99.2202 457.551 99.5202L456.671 99.3502C456.611 99.1102 456.611 98.9002 456.711 98.3702L456.941 97.1402C457.111 96.2602 456.751 95.9002 456.021 95.7602L455.401 95.6402L454.761 98.9902L453.891 98.8202L455.391 90.9902L457.141 91.3202H457.131ZM456.201 94.9702C456.891 95.1002 457.351 94.9602 457.511 94.1102L457.651 93.3602C457.781 92.6602 457.601 92.2402 456.951 92.1102L456.101 91.9502L455.551 94.8502L456.201 94.9702Z" fill="#949494"/>
    <path d="M464.627 94.7201L464.497 95.4301L463.667 95.2701L463.807 94.5201C463.937 93.8201 463.747 93.3401 463.107 93.2101C462.477 93.0901 462.107 93.4601 461.977 94.1701L461.187 98.3101C461.057 99.0201 461.267 99.5001 461.887 99.6201C462.527 99.7401 462.887 99.3701 463.017 98.6601L463.207 97.6401L464.037 97.8001L463.847 98.7701C463.617 99.9601 462.907 100.63 461.707 100.4C460.507 100.17 460.097 99.2801 460.327 98.0901L461.097 94.0401C461.327 92.8501 462.037 92.1801 463.227 92.4101C464.437 92.6401 464.847 93.5301 464.617 94.7201H464.627Z" fill="#949494"/>
    <path d="M465.358 94.8502C465.588 93.6502 466.328 92.9902 467.528 93.2202C468.738 93.4502 469.188 94.3402 468.958 95.5302L468.188 99.5802C467.958 100.77 467.218 101.44 466.008 101.21C464.808 100.98 464.368 100.08 464.598 98.9002L465.368 94.8502H465.358ZM465.438 99.1102C465.298 99.8302 465.528 100.3 466.148 100.42C466.788 100.54 467.158 100.18 467.298 99.4702L468.088 95.3302C468.218 94.6302 468.008 94.1402 467.378 94.0202C466.748 93.9002 466.368 94.2702 466.238 94.9702L465.448 99.1102H465.438Z" fill="#949494"/>
    <path d="M471.978 94.1603C473.198 94.3903 473.618 95.2403 473.388 96.4503L472.638 100.4C472.408 101.6 471.708 102.23 470.488 102L468.648 101.65L470.148 93.8203L471.988 94.1703L471.978 94.1603ZM470.628 101.2C471.258 101.32 471.628 100.99 471.768 100.27L472.538 96.2403C472.678 95.5203 472.448 95.0703 471.808 94.9503L470.868 94.7703L469.678 101.02L470.628 101.2Z" fill="#949494"/>
    <path d="M476.696 98.6604L476.546 99.4404L474.636 99.0704L474.106 101.86L476.456 102.31L476.306 103.1L473.086 102.48L474.586 94.6504L477.806 95.2704L477.656 96.0604L475.306 95.6104L474.796 98.2904L476.706 98.6604H476.696Z" fill="#949494"/>
    <path d="M436.718 125.53C437.338 124.82 438.158 124.53 439.148 124.72C441.048 125.08 441.628 126.64 441.228 128.75L440.678 131.64C440.248 133.9 438.888 135.17 436.628 134.74C434.368 134.31 433.598 132.63 434.028 130.37L434.218 129.38L435.758 129.67L435.548 130.77C435.298 132.1 435.688 133.01 436.868 133.23C438.048 133.46 438.748 132.76 439.008 131.43L439.558 128.56C439.808 127.23 439.418 126.32 438.238 126.1C437.328 125.93 436.618 126.32 436.268 127.37L436.208 127.71L434.668 127.42L436.638 119.28L442.468 120.39L442.188 121.87L437.838 121.04L436.738 125.54L436.718 125.53Z" fill="#949494"/>
    <path d="M450.345 125.57L450.295 125.84L448.755 125.55L448.825 125.17C449.075 123.84 448.675 122.95 447.475 122.72C446.225 122.48 445.525 123.18 445.225 124.76L444.595 128.08C445.195 127.14 446.105 126.73 447.285 126.95C449.185 127.31 449.765 128.85 449.365 130.98L448.935 133.22C448.505 135.48 447.105 136.74 444.845 136.31C442.565 135.87 441.725 134.18 442.155 131.92L443.595 124.38C444.045 122.04 445.375 120.78 447.725 121.23C450.005 121.67 450.785 123.3 450.355 125.56L450.345 125.57ZM444.195 130.13L443.775 132.35C443.525 133.68 443.915 134.59 445.125 134.82C446.305 135.05 447.035 134.35 447.285 133.02L447.705 130.8C447.955 129.47 447.545 128.56 446.355 128.33C445.155 128.1 444.445 128.8 444.195 130.13Z" fill="#949494"/>
    <path d="M458.556 127.14L458.506 127.41L456.966 127.12L457.036 126.74C457.286 125.41 456.886 124.52 455.686 124.29C454.436 124.05 453.736 124.75 453.436 126.33L452.806 129.65C453.406 128.71 454.316 128.3 455.496 128.52C457.396 128.88 457.976 130.42 457.576 132.55L457.146 134.79C456.716 137.05 455.316 138.31 453.056 137.88C450.776 137.44 449.936 135.75 450.366 133.49L451.806 125.95C452.256 123.61 453.586 122.35 455.936 122.8C458.216 123.24 458.996 124.87 458.566 127.13L458.556 127.14ZM452.406 131.7L451.986 133.92C451.736 135.25 452.126 136.16 453.336 136.39C454.516 136.62 455.246 135.92 455.496 134.59L455.916 132.37C456.166 131.04 455.756 130.13 454.566 129.9C453.366 129.67 452.656 130.37 452.406 131.7Z" fill="#949494"/>
    <path d="M466.769 128.73L465.329 136.27C464.879 138.61 463.539 139.89 461.179 139.44C458.919 139.01 458.119 137.35 458.549 135.09L458.599 134.82L460.139 135.11L460.069 135.49C459.819 136.82 460.239 137.71 461.419 137.94C462.689 138.18 463.389 137.48 463.689 135.92L464.319 132.6C463.729 133.54 462.819 133.93 461.639 133.71C459.739 133.35 459.149 131.83 459.559 129.7L459.989 127.44C460.419 125.18 461.799 123.93 464.079 124.37C466.359 124.81 467.199 126.48 466.769 128.74V128.73ZM461.629 127.66L461.209 129.88C460.959 131.21 461.369 132.12 462.559 132.35C463.759 132.58 464.469 131.88 464.719 130.55L465.139 128.33C465.399 126.98 464.999 126.09 463.789 125.86C462.609 125.63 461.889 126.31 461.629 127.66Z" fill="#949494"/>
    <path d="M475.147 130.26L475.057 130.72C474.767 132.22 474.037 133.22 472.787 133.44C473.917 134.16 474.167 135.41 473.877 136.89L473.667 137.99C473.227 140.27 471.777 141.46 469.477 141.02C467.177 140.58 466.267 138.94 466.697 136.66L466.907 135.56C467.197 134.06 467.867 133.03 469.217 132.76C468.097 132.07 467.797 130.89 468.087 129.39L468.177 128.93C468.617 126.65 470.077 125.51 472.357 125.94C474.637 126.38 475.577 127.98 475.147 130.26ZM469.797 129.28L469.657 130C469.387 131.44 469.957 132.2 471.117 132.42C472.277 132.64 473.097 132.14 473.367 130.71L473.507 129.99C473.797 128.47 473.237 127.64 472.067 127.42C470.907 127.2 470.077 127.76 469.787 129.28H469.797ZM468.577 135.68L468.337 136.93C468.047 138.45 468.587 139.3 469.767 139.52C470.947 139.75 471.737 139.15 472.057 137.64L472.297 136.39C472.567 134.95 472.067 134.14 470.847 133.9C469.627 133.67 468.857 134.24 468.577 135.68Z" fill="#949494"/>
    <path d="M421.867 169.51L472.927 179.25" stroke="#138944" stroke-miterlimit="10"/>
    <path d="M419.969 179.47L471.029 189.21" stroke="#138944" stroke-miterlimit="10"/>
    <path d="M504.664 131.98L517.014 130.08" stroke="#138944" stroke-miterlimit="10"/>
    <path d="M502.766 146.23L509.416 148.13" stroke="#138944" stroke-miterlimit="10"/>
    <path d="M498.969 158.58L511.319 167.13" stroke="#138944" stroke-miterlimit="10"/>
    <path d="M386.277 155.7C387.617 155.7 388.697 154.62 388.697 153.28V133.29C388.697 131.95 387.617 130.87 386.277 130.87H386.167V123.05C386.167 117.72 381.847 113.4 376.517 113.4H165.517C160.187 113.4 155.867 117.72 155.867 123.05V268.82C155.867 274.15 160.187 278.47 165.517 278.47H376.517C381.847 278.47 386.167 274.15 386.167 268.82V216.52H386.277C387.617 216.52 388.697 215.44 388.697 214.1V194.11C388.697 192.77 387.617 191.69 386.277 191.69H386.167V189.16H386.277C387.617 189.16 388.697 188.08 388.697 186.74V166.75C388.697 165.41 387.617 164.33 386.277 164.33H386.167V155.7H386.277Z" fill="#138944"/>
    <path d="M377.567 119.83H164.477V272.03H377.567V119.83Z" fill="white" stroke="#D2F0FF" stroke-miterlimit="10"/>
    <path opacity="0.5" d="M377.567 119.83H164.477V272.03H377.567V119.83Z" fill="#138944" stroke="#D2F0FF" stroke-miterlimit="10"/>
    <path d="M330.967 139.4H211.797V235.11H330.967V139.4Z" fill="#E3E3E3" stroke="#D2F0FF" stroke-miterlimit="10"/>
    <path d="M256.628 208.59V209.19H255.168V211.32H256.968V211.93H254.508V205.94H256.968V206.55H255.168V208.59H256.628Z" fill="#B2B2B2"/>
    <path d="M258.17 211.92H257.57V205.93H258.42L259.81 210.26V205.93H260.4V211.92H259.71L258.18 207.08V211.92H258.17Z" fill="#B2B2B2"/>
    <path d="M261.936 211.92V206.54H260.836V205.93H263.706V206.54H262.606V211.92H261.946H261.936Z" fill="#B2B2B2"/>
    <path d="M266.284 208.59V209.19H264.824V211.32H266.624V211.93H264.164V205.94H266.624V206.55H264.824V208.59H266.284Z" fill="#B2B2B2"/>
    <path d="M268.567 205.94C269.507 205.94 269.897 206.42 269.897 207.31V207.8C269.897 208.46 269.667 208.87 269.157 209.03C269.707 209.19 269.907 209.64 269.907 210.28V211.21C269.907 211.48 269.907 211.72 270.027 211.93H269.347C269.267 211.76 269.237 211.6 269.237 211.2V210.26C269.237 209.58 268.917 209.37 268.367 209.37H267.897V211.93H267.227V205.94H268.557H268.567ZM268.397 208.76C268.927 208.76 269.247 208.59 269.247 207.94V207.37C269.247 206.83 269.047 206.55 268.557 206.55H267.907V208.77H268.407L268.397 208.76Z" fill="#B2B2B2"/>
    <path d="M274.565 207.38V207.92H273.935V207.35C273.935 206.81 273.725 206.49 273.235 206.49C272.745 206.49 272.535 206.81 272.535 207.35V210.51C272.535 211.05 272.755 211.37 273.235 211.37C273.715 211.37 273.935 211.04 273.935 210.51V209.73H274.565V210.47C274.565 211.38 274.135 211.98 273.215 211.98C272.295 211.98 271.875 211.38 271.875 210.47V207.37C271.875 206.46 272.305 205.86 273.215 205.86C274.125 205.86 274.565 206.46 274.565 207.37V207.38Z" fill="#B2B2B2"/>
    <path d="M275.125 207.38C275.125 206.46 275.575 205.87 276.495 205.87C277.415 205.87 277.875 206.46 277.875 207.38V210.48C277.875 211.39 277.425 211.99 276.495 211.99C275.565 211.99 275.125 211.39 275.125 210.48V207.38ZM275.785 210.51C275.785 211.06 276.015 211.37 276.495 211.37C276.975 211.37 277.205 211.05 277.205 210.51V207.35C277.205 206.81 276.985 206.49 276.495 206.49C276.005 206.49 275.785 206.81 275.785 207.35V210.51Z" fill="#B2B2B2"/>
    <path d="M279.908 205.94C280.838 205.94 281.268 206.5 281.268 207.43V210.45C281.268 211.37 280.838 211.93 279.908 211.93H278.508V205.94H279.908ZM279.908 211.32C280.388 211.32 280.618 211.02 280.618 210.47V207.39C280.618 206.84 280.388 206.54 279.898 206.54H279.178V211.31H279.908V211.32Z" fill="#B2B2B2"/>
    <path d="M284.018 208.59V209.19H282.558V211.32H284.358V211.93H281.898V205.94H284.358V206.55H282.558V208.59H284.018Z" fill="#B2B2B2"/>
    <path d="M321.56 171.01H221V182.36H321.56V171.01Z" fill="white" stroke="#D2F0FF" stroke-miterlimit="10"/>
    <path d="M321.56 189.01H221V200.36H321.56V189.01Z" fill="white" stroke="#D2F0FF" stroke-miterlimit="10"/>
    <path d="M285.474 214.61H275.984V225.96H285.474V214.61Z" fill="white" stroke="#D2F0FF" stroke-miterlimit="10"/>
    <path d="M273.396 214.61H263.906V225.96H273.396V214.61Z" fill="white" stroke="#D2F0FF" stroke-miterlimit="10"/>
    <path d="M261.31 214.61H251.82V225.96H261.31V214.61Z" fill="white" stroke="#D2F0FF" stroke-miterlimit="10"/>
    <path d="M249.224 214.61H240.164V225.96H249.224V214.61Z" fill="white" stroke="#D2F0FF" stroke-miterlimit="10"/>
    <path d="M297.918 214.61H288.078V225.96H297.918V214.61Z" fill="white" stroke="#D2F0FF" stroke-miterlimit="10"/>
    <path d="M276.167 152.39V150.21C276.167 146.67 273.287 143.8 269.757 143.8C266.227 143.8 263.347 146.68 263.347 150.21V152.39H263.227V164.45H276.297V152.39H276.177H276.167ZM270.137 159.02V161.21H268.897V159.02C268.297 158.77 267.867 158.18 267.867 157.49C267.867 156.58 268.607 155.84 269.517 155.84C270.427 155.84 271.167 156.58 271.167 157.49C271.167 158.18 270.737 158.77 270.137 159.02ZM273.727 152.39H265.777V150.21C265.777 148.02 267.557 146.24 269.747 146.24C271.937 146.24 273.717 148.02 273.717 150.21V152.39H273.727Z" fill="#949494"/>
    <path d="M256.617 194.12L257.527 195.12L257.087 195.45L256.407 194.26L255.737 195.45L255.297 195.12L256.197 194.12L254.867 193.85L255.027 193.33L256.277 193.88L256.127 192.53H256.677L256.527 193.88L257.777 193.34L257.937 193.86L256.607 194.13L256.617 194.12Z" fill="#B2B2B2"/>
    <path d="M260 194.12L260.91 195.12L260.47 195.45L259.79 194.26L259.12 195.45L258.68 195.12L259.58 194.12L258.25 193.85L258.41 193.33L259.66 193.88L259.51 192.53H260.06L259.91 193.88L261.16 193.34L261.32 193.86L259.99 194.13L260 194.12Z" fill="#B2B2B2"/>
    <path d="M263.367 194.12L264.277 195.12L263.837 195.45L263.157 194.26L262.487 195.45L262.047 195.12L262.947 194.12L261.617 193.85L261.777 193.33L263.027 193.88L262.877 192.53H263.427L263.277 193.88L264.527 193.34L264.687 193.86L263.357 194.13L263.367 194.12Z" fill="#B2B2B2"/>
    <path d="M266.75 194.12L267.66 195.12L267.22 195.45L266.54 194.26L265.87 195.45L265.43 195.12L266.33 194.12L265 193.85L265.16 193.33L266.41 193.88L266.26 192.53H266.81L266.66 193.88L267.91 193.34L268.07 193.86L266.74 194.13L266.75 194.12Z" fill="#B2B2B2"/>
    <path d="M270.125 194.12L271.035 195.12L270.595 195.45L269.915 194.26L269.245 195.45L268.805 195.12L269.705 194.12L268.375 193.85L268.535 193.33L269.785 193.88L269.635 192.53H270.185L270.035 193.88L271.285 193.34L271.445 193.86L270.115 194.13L270.125 194.12Z" fill="#B2B2B2"/>
    <path d="M273.508 194.12L274.418 195.12L273.978 195.45L273.298 194.26L272.628 195.45L272.188 195.12L273.088 194.12L271.758 193.85L271.918 193.33L273.168 193.88L273.018 192.53H273.568L273.418 193.88L274.668 193.34L274.828 193.86L273.498 194.13L273.508 194.12Z" fill="#B2B2B2"/>
    <path d="M276.875 194.12L277.785 195.12L277.345 195.45L276.665 194.26L275.995 195.45L275.555 195.12L276.455 194.12L275.125 193.85L275.285 193.33L276.535 193.88L276.385 192.53H276.935L276.785 193.88L278.035 193.34L278.195 193.86L276.865 194.13L276.875 194.12Z" fill="#B2B2B2"/>
    <path d="M280.258 194.12L281.168 195.12L280.728 195.45L280.048 194.26L279.378 195.45L278.938 195.12L279.838 194.12L278.508 193.85L278.668 193.33L279.918 193.88L279.768 192.53H280.318L280.168 193.88L281.418 193.34L281.578 193.86L280.248 194.13L280.258 194.12Z" fill="#B2B2B2"/>
    <path d="M428.642 343.24C428.642 343.24 427.602 343.3 425.742 343.5C423.972 337.5 418.682 319.76 415.202 310.59C410.972 299.45 405.212 283.7 401.372 277.17C397.532 270.64 397.912 266.8 390.622 260.65C383.322 254.5 376.792 257.19 376.792 257.19C376.792 257.19 375.642 252.58 368.342 250.28C361.042 247.98 351.062 252.58 351.062 252.58C351.062 252.58 349.522 249.89 342.232 250.66C334.942 251.43 332.242 257.96 332.242 257.96C332.242 257.96 317.262 228 311.502 225.7C305.742 223.4 299.982 229.16 302.282 234.53C304.582 239.91 321.872 269.87 324.172 276.78C326.472 283.69 331.472 295.22 331.472 295.22C331.472 295.22 314.952 283.31 309.962 282.16C304.972 281.01 297.672 280.24 293.442 284.85C289.212 289.46 299.202 290.61 307.272 297.91C315.342 305.21 328.402 322.11 334.542 332.86C340.692 343.62 353.752 345.54 359.512 351.68C363.572 356.01 369.332 362.04 372.392 365.24C370.462 367.25 369.502 368.58 369.502 368.58L382.182 399.69C382.182 399.69 384.872 395.46 395.622 387.01C406.372 378.56 439.792 368.19 439.792 368.19L428.652 343.22L428.642 343.24Z" fill="#138944" stroke="#138944" stroke-miterlimit="10"/>
    <path d="M374.012 359.4C374.012 359.4 364.792 349.8 359.032 343.65C353.272 337.5 340.212 335.58 334.062 324.83C327.912 314.08 314.852 297.17 306.792 289.88C298.722 282.58 288.742 281.43 292.962 276.82C297.192 272.21 304.482 272.98 309.482 274.13C314.472 275.28 330.992 287.19 330.992 287.19C330.992 287.19 326.002 275.67 323.692 268.75C321.392 261.84 304.102 231.88 301.802 226.5C299.502 221.12 305.262 215.36 311.022 217.67C316.782 219.97 331.762 249.93 331.762 249.93C331.762 249.93 334.452 243.4 341.752 242.63C349.052 241.86 350.582 244.55 350.582 244.55C350.582 244.55 360.572 239.94 367.862 242.25C375.152 244.56 376.312 249.16 376.312 249.16C376.312 249.16 382.842 246.47 390.142 252.62C397.442 258.77 397.052 262.61 400.892 269.14C404.732 275.67 410.492 291.42 414.722 302.56C418.952 313.7 425.862 337.51 425.862 337.51L376.312 364.4L374.012 359.41V359.4Z" fill="white" stroke="#138944" stroke-miterlimit="10"/>
    <path d="M331.766 249.93L345.206 269.91" stroke="#138944" stroke-miterlimit="10"/>
    <path d="M350.586 244.56L362.876 263.76" stroke="#138944" stroke-miterlimit="10"/>
    <path d="M376.32 249.17L384.77 264.15" stroke="#138944" stroke-miterlimit="10"/>
    <path d="M336.922 304.37L338.672 309.47" stroke="#138944" stroke-miterlimit="10"/>
    <path d="M330.992 287.19L335.702 300.83" stroke="#138944" stroke-miterlimit="10"/>
    <path d="M352.5 274.52L355.57 278.74" stroke="#138944" stroke-miterlimit="10"/>
    <path d="M366.711 270.29L370.171 274.9" stroke="#138944" stroke-miterlimit="10"/>
    <path d="M385.531 267.99L387.841 275.29" stroke="#138944" stroke-miterlimit="10"/>
    <path d="M369.023 360.56C369.023 360.56 377.853 348.27 395.913 342.12C413.963 335.97 428.173 335.21 428.173 335.21L439.313 360.18C439.313 360.18 405.893 370.55 395.143 379C384.393 387.45 381.703 391.68 381.703 391.68L369.023 360.57V360.56Z" fill="white" stroke="#138944" stroke-miterlimit="10"/>
    <path d="M399.359 443.52C399.359 443.52 384.759 407.03 380.919 399.35C377.079 391.67 383.219 387.83 383.219 387.83C383.219 387.83 392.049 375.92 415.099 366.7C438.149 357.48 440.069 357.1 445.829 363.63C451.589 370.16 489.379 443.59 489.379 443.59" fill="white"/>
    <path d="M399.359 443.52C399.359 443.52 384.759 407.03 380.919 399.35C377.079 391.67 383.219 387.83 383.219 387.83C383.219 387.83 392.049 375.92 415.099 366.7C438.149 357.48 440.069 357.1 445.829 363.63C451.589 370.16 489.379 443.59 489.379 443.59" stroke="#138944" stroke-miterlimit="10"/>
    <path d="M159.589 405.13C159.589 405.13 164.809 393.93 177.249 387.59C189.679 381.25 197.759 378.52 209.659 366.78C221.559 355.04 241.169 344.56 249.249 343.12C257.339 341.67 260.019 338.2 256.539 334.23C253.059 330.26 243.549 330.04 235.079 332.9C226.609 335.76 218.789 339.26 218.789 339.26C223.079 330.82 225.929 320.65 230.149 312.18C233.149 306.17 238.059 296.25 240.979 290.19C242.879 286.24 248.539 279.66 246.019 275.34C243.489 271 237.429 273.89 234.359 278.01C229.479 284.57 205.609 320.55 205.609 320.55C210.139 310.95 214.679 301.35 219.209 291.75C226.099 277.16 229.389 270.2 228.409 272.27C230.419 268.01 234.329 262.32 231.949 257.41C229.529 252.43 222.519 251.92 219.609 256.66C216.289 262.07 190.919 310.08 190.919 310.08C190.919 310.08 206.799 268.87 208.829 264.14C211.309 258.36 209.839 253.32 206.189 253.34C200.879 253.38 198.359 259.27 196.279 263.27C196.669 262.71 197.049 262.14 197.439 261.58C192.469 268.2 189.129 276.91 184.969 284.1C180.109 292.5 175.079 300.81 169.889 309.01C170.909 300.52 174.319 292.56 178.539 285.2C181.089 280.76 191.689 269.85 189.879 264.48C188.319 259.86 176.689 268.54 169.919 278.01C166.229 283.17 156.569 297.25 153.909 307.15C151.249 317.05 132.629 350.78 127.659 360.17C122.689 369.57 116.719 386.16 116.719 386.16L159.569 405.13H159.589Z" fill="#138944" stroke="#138944" stroke-miterlimit="10"/>
    <path d="M173.774 396.07C173.774 396.07 164.194 384.35 145.804 379.33C127.404 374.31 113.174 374.42 113.174 374.42L103.594 400.03C103.594 400.03 137.584 408.32 148.844 416.09C160.104 423.86 163.044 427.91 163.044 427.91L173.774 396.08V396.07Z" fill="#138944" stroke="#138944" stroke-miterlimit="10"/>
    <path d="M158.323 400.69C158.323 400.69 163.543 389.49 175.983 383.15C188.413 376.81 196.493 374.08 208.393 362.34C220.293 350.6 239.903 340.12 247.983 338.68C256.073 337.23 258.753 333.76 255.273 329.79C251.793 325.82 242.283 325.6 233.813 328.46C225.343 331.32 217.523 334.82 217.523 334.82C221.813 326.38 224.663 316.21 228.883 307.74C231.883 301.73 236.793 291.81 239.713 285.75C241.613 281.8 247.273 275.22 244.753 270.9C242.223 266.56 236.163 269.45 233.093 273.57C228.213 280.13 204.343 316.11 204.343 316.11C208.873 306.51 213.413 296.91 217.943 287.31C224.833 272.72 228.123 265.76 227.143 267.83C229.153 263.57 233.063 257.88 230.683 252.97C228.263 247.99 221.253 247.48 218.343 252.22C215.023 257.63 189.653 305.64 189.653 305.64C189.653 305.64 205.533 264.43 207.563 259.7C210.043 253.92 208.573 248.88 204.923 248.9C199.613 248.94 197.093 254.83 195.013 258.83C195.403 258.27 195.783 257.7 196.173 257.14C191.203 263.76 187.863 272.47 183.703 279.66C178.843 288.06 173.813 296.37 168.623 304.57C169.643 296.08 173.053 288.12 177.273 280.76C179.823 276.32 190.423 265.41 188.613 260.04C187.053 255.42 175.423 264.1 168.653 273.57C164.963 278.73 155.303 292.81 152.643 302.71C149.983 312.61 131.363 346.34 126.393 355.73C121.423 365.13 115.453 381.72 115.453 381.72L158.303 400.69H158.323Z" fill="white" stroke="#138944" stroke-miterlimit="10"/>
    <path d="M189.668 305.65L185.078 314.92" stroke="#138944" stroke-miterlimit="10"/>
    <path d="M204.353 316.12L200.773 320.76" stroke="#138944" stroke-miterlimit="10"/>
    <path d="M217.53 334.82L212.93 341.52" stroke="#138944" stroke-miterlimit="10"/>
    <path d="M193.753 330.42L193.383 334.41" stroke="#138944" stroke-miterlimit="10"/>
    <path d="M182.289 323.15L182.299 327" stroke="#138944" stroke-miterlimit="10"/>
    <path d="M165.43 315.12L166.35 321.67" stroke="#138944" stroke-miterlimit="10"/>
    <path d="M172.5 391.64C172.5 391.64 162.92 379.92 144.53 374.9C126.13 369.88 111.9 369.99 111.9 369.99L102.32 395.6C102.32 395.6 136.31 403.89 147.57 411.66C158.83 419.43 161.77 423.48 161.77 423.48L172.5 391.65V391.64Z" fill="white" stroke="#138944" stroke-miterlimit="10"/>
    <path d="M157.271 447.01C157.271 447.01 159.651 439 163.011 431.1C166.371 423.2 160.001 419.74 160.001 419.74C160.001 419.74 150.451 408.4 126.881 400.62C103.311 392.84 101.371 392.58 96.0209 399.45C90.6709 406.32 73.4609 447.62 73.4609 447.62" fill="white"/>
    <path d="M157.271 447.01C157.271 447.01 159.651 439 163.011 431.1C166.371 423.2 160.001 419.74 160.001 419.74C160.001 419.74 150.451 408.4 126.881 400.62C103.311 392.84 101.371 392.58 96.0209 399.45C90.6709 406.32 73.4609 447.62 73.4609 447.62" stroke="#138944" stroke-miterlimit="10"/>
</svg>
