<svg width="374" height="139" viewBox="0 0 374 139" fill="none" xmlns="http://www.w3.org/2000/svg">
<g clip-path="url(#clip0_20_252)">
<mask id="mask0_20_252" style="mask-type:luminance" maskUnits="userSpaceOnUse" x="0" y="0" width="374" height="139">
<path d="M374 0H0V138.5H374V0Z" fill="white"/>
</mask>
<g mask="url(#mask0_20_252)">
<path d="M374 0H0V138.5H374V0Z" fill="white"/>
<path d="M374 0H0V138H374V0Z" fill="#F4F7FF"/>
<mask id="mask1_20_252" style="mask-type:luminance" maskUnits="userSpaceOnUse" x="0" y="0" width="374" height="139">
<path d="M373.799 0H0V138.5H373.799V0Z" fill="white"/>
</mask>
<g mask="url(#mask1_20_252)">
<g filter="url(#filter0_d_20_252)">
<path d="M106.723 104.141C127.557 104.141 144.446 87.252 144.446 66.4182C144.446 45.5844 127.557 28.6953 106.723 28.6953C85.8891 28.6953 69 45.5844 69 66.4182C69 87.252 85.8891 104.141 106.723 104.141Z" fill="#148943"/>
<path d="M106.723 106.141C128.661 106.141 146.446 88.3566 146.446 66.4182C146.446 44.4799 128.661 26.6953 106.723 26.6953C84.7845 26.6953 67 44.4799 67 66.4182C67 88.3566 84.7845 106.141 106.723 106.141Z" stroke="white" stroke-width="4"/>
</g>
<g opacity="0.2">
<path fill-rule="evenodd" clip-rule="evenodd" d="M377 49C376.717 49.016 376.434 49.036 376.15 49.057L377 49.909V49ZM374.863 49.176L377 51.318V52.726L373.606 49.329C374.024 49.273 374.443 49.222 374.863 49.176ZM372.389 49.514L377 54.134V55.542L371.195 49.727C371.591 49.6503 371.989 49.5793 372.389 49.514ZM370.03 49.967C369.647 50.0517 369.267 50.1403 368.89 50.233L377 58.359V56.951L370.03 49.967ZM367.776 50.526C367.411 50.6267 367.048 50.732 366.686 50.842L377 61.175V59.767L367.777 50.526H367.776ZM365.619 51.182C365.269 51.298 364.921 51.4187 364.575 51.544L377 63.991V62.582L365.621 51.182H365.619ZM363.553 51.927C363.217 52.0603 362.884 52.1937 362.555 52.327L377 66.808V65.4L363.553 51.927ZM361.57 52.756C361.246 52.9007 360.926 53.049 360.607 53.201L377 69.624V68.216L361.57 52.756ZM359.664 53.664C359.354 53.8207 359.046 53.9813 358.741 54.146L377 72.44V71.032L359.664 53.664ZM357.834 54.647C357.535 54.8157 357.239 54.9883 356.945 55.165L377 75.257V73.848L357.836 54.648L357.834 54.647ZM356.075 55.7L377 76.664V78.072L355.221 56.254C355.504 56.066 355.788 55.8813 356.075 55.7ZM354.385 56.823L377 79.482V80.89L353.564 57.41C353.835 57.21 354.109 57.0143 354.384 56.823H354.385ZM352.761 58.012L377 82.3V83.709L351.973 58.632C352.233 58.422 352.496 58.2153 352.761 58.012ZM351.201 59.267L377 85.115V86.522L350.449 59.922C350.698 59.7013 350.95 59.4843 351.204 59.271L351.201 59.267ZM349.704 60.585L377 87.93V89.339L348.982 61.269C349.221 61.039 349.462 60.8113 349.707 60.586L349.704 60.585ZM348.271 61.966L377 90.747V92.155L347.583 62.682C347.811 62.4413 348.041 62.203 348.274 61.967L348.271 61.966ZM346.903 63.411L377 93.563V94.97L346.245 64.158C346.463 63.9073 346.684 63.6587 346.906 63.412L346.903 63.411ZM345.596 64.919L377 96.379V97.788L344.972 65.7C345.178 65.4387 345.387 65.1793 345.6 64.922L345.596 64.919ZM344.361 66.493L377 99.2V100.6L343.762 67.3C343.957 67.0273 344.157 66.7573 344.361 66.49V66.493ZM343.184 68.13L377 102.012V103.42L342.617 68.973C342.801 68.6897 342.989 68.4087 343.181 68.13H343.184ZM342.065 69.832L377 104.832V106.24L341.54 70.71C341.714 70.416 341.89 70.1237 342.07 69.833L342.065 69.832ZM341.027 71.6L377 107.645V109.053L340.533 72.517C340.694 72.2103 340.861 71.9063 341.032 71.605L341.027 71.6ZM340.056 73.444L377 110.461V111.87L339.597 74.4C339.747 74.082 339.9 73.7657 340.057 73.451L340.056 73.444ZM339.157 75.361C339.013 75.6883 338.873 76.0177 338.737 76.349L377 114.686V113.277L339.159 75.366L339.157 75.361ZM338.339 77.361C338.206 77.7023 338.079 78.0453 337.96 78.39L377 117.5V116.094L338.34 77.362L338.339 77.361ZM337.603 79.441C337.487 79.797 337.375 80.1547 337.269 80.514L377 120.318V118.91L337.605 79.442L337.603 79.441ZM336.957 81.61C336.858 81.983 336.758 82.355 336.671 82.731L377 123.135V121.727L336.959 81.611L336.957 81.61ZM336.41 83.878C336.327 84.268 336.251 84.66 336.178 85.054L377 125.951V124.543L336.412 83.879L336.41 83.878ZM335.973 86.257C335.909 86.667 335.851 87.078 335.799 87.491L377 128.767V127.359L335.976 86.259L335.973 86.257ZM335.655 88.757C335.613 89.189 335.575 89.621 335.545 90.057L377 131.583V130.176L335.658 88.756L335.655 88.757ZM335.476 91.394C335.459 91.853 335.45 92.312 335.447 92.773L377 134.4V132.992L335.477 91.392L335.476 91.394ZM335.458 94.194C335.458 94.272 335.458 94.35 335.458 94.428C335.47 94.8367 335.488 95.2467 335.511 95.658L376.889 137.105L377 137.1V135.808L335.461 94.192L335.458 94.194ZM335.63 97.183C335.67 97.609 335.716 98.0327 335.768 98.454C335.768 98.545 335.768 98.637 335.768 98.73L374.291 137.319L375.589 137.212L335.633 97.181L335.63 97.183ZM335.73 100.104C335.709 100.529 335.679 100.969 335.635 101.418L371.694 137.533L372.991 137.426L335.738 100.1L335.73 100.104ZM335.483 102.674C335.426 103.074 335.357 103.474 335.278 103.874L369.096 137.746L370.393 137.639L335.491 102.672L335.483 102.674ZM335.016 105.021C334.922 105.386 334.817 105.75 334.702 106.114L366.498 137.96L367.795 137.853L335.023 105.019L335.016 105.021ZM334.333 107.153C334.204 107.486 334.063 107.815 333.911 108.139L363.899 138.173L365.197 138.066L334.34 107.151L334.333 107.153ZM333.435 109.071C333.269 109.371 333.094 109.662 332.906 109.949L361.302 138.387L362.6 138.28L333.444 109.069L333.435 109.071ZM332.321 110.771C332.121 111.033 331.908 111.289 331.68 111.538L358.704 138.6L360.002 138.494L332.33 110.769L332.321 110.771ZM330.985 112.249L357.396 138.709L356.099 138.816L330.239 112.9C330.505 112.69 330.757 112.473 330.994 112.248L330.985 112.249ZM329.421 113.499L354.807 138.92L353.51 139.028L328.566 114.038C328.855 113.871 329.145 113.692 329.431 113.497L329.421 113.499ZM327.633 114.524L352.208 139.135L350.91 139.242L326.656 114.942C326.986 114.82 327.316 114.682 327.646 114.526L327.633 114.524ZM325.58 115.284L349.611 139.348L348.313 139.455L324.444 115.542C324.824 115.475 325.206 115.389 325.59 115.282L325.58 115.284ZM323.194 115.709L347.014 139.562L345.716 139.669L321.851 115.762C322.294 115.762 322.75 115.747 323.203 115.707L323.194 115.709ZM320.357 115.684L344.416 139.776L343.118 139.883L318.708 115.432C319.234 115.537 319.787 115.624 320.363 115.682L320.357 115.684ZM316.818 114.954L341.817 139.989L340.52 140.096L314.568 114.091C315.304 114.426 316.06 114.713 316.832 114.952L316.818 114.954ZM311.572 112.5L339.22 140.2L337.923 140.307L308.997 111.333C309.872 111.69 310.73 112.08 311.572 112.504V112.5ZM306.773 110.509L336.618 140.409L335.32 140.516L304.773 109.917C305.447 110.096 306.112 110.296 306.769 110.517L306.773 110.509ZM302.932 109.477L334.023 140.629L332.725 140.736L301.214 109.167C301.791 109.257 302.364 109.361 302.933 109.48L302.932 109.477ZM299.592 108.948C299.081 108.892 298.568 108.847 298.053 108.814L330.126 140.95L331.424 140.843L299.593 108.952L299.592 108.948ZM296.583 108.748C296.118 108.737 295.648 108.737 295.174 108.748L327.528 141.164L328.826 141.057L296.585 108.757L296.583 108.748ZM293.816 108.792C293.491 108.809 293.166 108.832 292.841 108.859C292.73 108.868 292.62 108.88 292.508 108.891L324.931 141.378L326.228 141.271L293.817 108.8L293.816 108.792ZM291.24 109.028C290.828 109.081 290.419 109.14 290.012 109.207L322.333 141.591L323.63 141.484L291.24 109.033V109.028ZM288.822 109.422C288.435 109.5 288.048 109.581 287.665 109.672L319.734 141.8L321.032 141.693L288.823 109.427L288.822 109.422ZM286.541 109.954C286.175 110.053 285.811 110.157 285.449 110.267L317.136 142.018L318.434 141.911L286.542 109.959L286.541 109.954ZM284.384 110.61C284.036 110.727 283.69 110.85 283.346 110.978L314.539 142.232L315.837 142.125L284.384 110.615V110.61ZM282.338 111.376C282.005 111.509 281.677 111.65 281.354 111.798L311.94 142.445L313.237 142.338L282.339 111.381L282.338 111.376ZM280.392 112.244C280.077 112.396 279.765 112.552 279.455 112.712L309.343 142.659L310.64 142.552L280.396 112.252L280.392 112.244ZM278.542 113.206C278.243 113.374 277.946 113.546 277.652 113.723L306.746 142.873L308.043 142.766L278.544 113.211L278.542 113.206ZM276.783 114.26C276.498 114.443 276.214 114.628 275.935 114.818L304.147 143.086L305.445 142.979L276.786 114.264L276.783 114.26ZM275.106 115.397C274.835 115.597 274.567 115.797 274.301 115.997L301.55 143.297L302.848 143.191L275.108 115.4L275.106 115.397ZM273.515 116.62L300.251 143.407L298.953 143.514L272.754 117.266C273.005 117.048 273.26 116.834 273.519 116.624L273.515 116.62ZM272.003 117.92L297.647 143.62L296.35 143.727L271.278 118.6C271.517 118.37 271.76 118.144 272.005 117.921L272.003 117.92ZM270.57 119.3L295.052 143.834L293.755 143.941L269.885 120.027C270.111 119.784 270.34 119.543 270.572 119.306L270.57 119.3ZM269.217 120.761L292.457 144.047L291.159 144.154L268.572 121.526C268.785 121.27 269.001 121.017 269.221 120.767L269.217 120.761ZM267.942 122.299L289.862 144.261L288.564 144.368L267.335 123.1C267.534 122.833 267.737 122.567 267.944 122.3L267.942 122.299ZM266.744 123.919L287.256 144.469L285.958 144.576L266.179 124.761C266.364 124.478 266.552 124.197 266.744 123.919ZM265.633 125.619L284.658 144.679L283.36 144.786L265.108 126.51C265.279 126.213 265.454 125.919 265.633 125.627V125.619ZM264.606 127.406L282.065 144.9L280.768 145.007L264.135 128.343C264.29 128.031 264.448 127.72 264.613 127.414L264.606 127.406ZM263.672 129.287L279.466 145.115L278.169 145.221L263.244 130.27C263.384 129.942 263.529 129.618 263.678 129.295L263.672 129.287ZM262.831 131.261L276.865 145.321L275.567 145.428L262.456 132.3C262.578 131.955 262.704 131.613 262.836 131.273L262.831 131.261ZM262.096 133.342C261.983 133.7 261.872 134.06 261.77 134.422L272.972 145.649L274.27 145.542L262.1 133.35L262.096 133.342ZM261.475 135.535C261.38 135.914 261.292 136.295 261.21 136.678L270.37 145.854L271.668 145.747L261.475 135.534V135.535ZM260.976 137.853C260.904 138.253 260.841 138.662 260.783 139.069L267.77 146.069L269.068 145.962L260.975 137.854L260.976 137.853ZM260.626 140.32C260.581 140.75 260.544 141.183 260.514 141.62L265.178 146.29L266.475 146.183L260.631 140.328L260.626 140.32ZM260.447 142.955C260.432 143.418 260.43 143.883 260.432 144.349L262.581 146.5L263.878 146.393L260.452 142.96L260.447 142.955ZM260.472 145.797L261.27 146.597L260.519 146.659C260.505 146.378 260.491 146.094 260.478 145.806L260.472 145.797Z" fill="#148943"/>
<path fill-rule="evenodd" clip-rule="evenodd" d="M376.999 64.1744C376.218 64.1297 375.431 64.1074 374.637 64.1074C363.82 64.1076 353.416 68.2661 345.569 75.7254C337.723 83.1848 333.032 93.3762 332.465 104.198C332.427 104.931 332.408 105.67 332.408 106.413C332.408 106.964 332.422 107.513 332.443 108.061C332.143 112.09 330.846 118.261 325.948 121.47C318.293 126.497 310.099 120.777 310.099 120.777C305.06 117.231 299.149 115.132 293.006 114.708C286.862 114.283 280.72 115.549 275.242 118.368C269.765 121.187 265.161 125.453 261.928 130.704C258.695 135.955 256.955 141.991 256.898 148.16H376.999V64.1744Z" fill="#148943"/>
<path fill-rule="evenodd" clip-rule="evenodd" d="M377 102.276C369.732 102.045 362.5 103.39 355.799 106.219C344.229 111.078 334.883 120.085 329.588 131.479C328.97 132.809 328.401 134.198 327.831 135.587C325.84 140.44 323.845 145.306 319.476 148.165H321.009C324.864 145.139 326.758 140.525 328.646 135.922C329.207 134.552 329.77 133.183 330.389 131.848C335.589 120.652 344.771 111.802 356.139 107.028C362.732 104.244 369.849 102.923 377 103.156V102.276ZM303.316 148.164C301.229 146.875 299.39 145.221 297.886 143.282L297.862 143.252C293.829 137.613 288.42 133.104 282.152 130.156C275.884 127.207 268.967 125.918 262.06 126.411C255.153 126.903 248.487 129.162 242.7 132.97C236.912 136.778 232.195 142.01 229 148.164H229.991C233.166 142.206 237.805 137.157 243.472 133.498C249.138 129.838 255.642 127.688 262.37 127.251C269.097 126.814 275.825 128.104 281.915 131C288.006 133.896 293.257 138.301 297.173 143.799C297.181 143.811 297.19 143.822 297.199 143.833C298.491 145.491 300.018 146.95 301.733 148.164H303.316Z" fill="#148943"/>
</g>
<g opacity="0.2">
<path fill-rule="evenodd" clip-rule="evenodd" d="M-24 85.1649C-23.7165 85.1489 -23.4341 85.1289 -23.1496 85.1079L-24 84.2559V85.1649ZM-21.863 84.9889L-24 82.8469V81.4389L-20.6063 84.8359C-21.0242 84.8919 -21.4431 84.9429 -21.863 84.9889ZM-19.3886 84.6509L-24 80.0309V78.6229L-18.1948 84.4379C-18.5907 84.5146 -18.9886 84.5856 -19.3886 84.6509ZM-17.03 84.1979C-16.6473 84.1133 -16.2674 84.0246 -15.8901 83.9319L-24 75.8059V77.2139L-17.03 84.1979ZM-14.7761 83.6389C-14.4115 83.5383 -14.0482 83.4329 -13.6862 83.3229L-24 72.9899V74.3979L-14.7761 83.6389ZM-12.6191 82.9829C-12.2691 82.8669 -11.9211 82.7463 -11.5751 82.6209L-24 70.1739V71.5829L-12.6211 82.9829H-12.6191ZM-10.553 82.2379C-10.2169 82.1046 -9.88423 81.9713 -9.55484 81.8379L-24 67.3569V68.7649L-10.553 82.2379ZM-8.56967 81.4089C-8.24627 81.2643 -7.92553 81.1159 -7.60746 80.9639L-24 64.5409V65.9489L-8.56967 81.4089ZM-6.66421 80.5009C-6.35412 80.3443 -6.04636 80.1836 -5.74093 80.0189L-24 61.7249V63.1329L-6.66421 80.5009ZM-4.83361 79.5179C-4.5355 79.3493 -4.23938 79.1766 -3.94526 78.9999L-24 58.9079V60.3169L-4.83561 79.5169L-4.83361 79.5179ZM-3.07488 78.4649L-24 57.5009V56.0929L-2.22147 77.9109C-2.50361 78.0989 -2.78808 78.2836 -3.07488 78.4649ZM-1.38502 77.3419L-24 54.6829V53.2749L-0.563545 76.7549C-0.835041 76.9549 -1.10953 77.1506 -1.38502 77.3419ZM0.238962 76.1529L-24 51.8649V50.4559L1.0275 75.5329C0.766649 75.7429 0.503804 75.9496 0.238962 76.1529ZM1.79906 74.8979L-24 49.0499V47.6429L2.55067 74.2429C2.3018 74.4636 2.05026 74.6806 1.79607 74.8939L1.79906 74.8979ZM3.29628 73.5799L-24 46.2349V44.8259L4.01794 72.8959C3.77905 73.1259 3.5375 73.3536 3.29329 73.5789L3.29628 73.5799ZM4.72862 72.1989L-24 43.4179V42.0099L5.41734 71.4829C5.1891 71.7236 4.95853 71.9619 4.72563 72.1979L4.72862 72.1989ZM6.09708 70.7539L-24 40.6019V39.1949L6.75486 70.0069C6.5366 70.2576 6.31634 70.5063 6.09408 70.7529L6.09708 70.7539ZM7.40365 69.2459L-24 37.7859V36.3769L8.02849 68.4649C7.82221 68.7263 7.6126 68.9856 7.39966 69.2429L7.40365 69.2459ZM8.63936 67.6719L-24 34.9649V33.5649L9.23824 66.8649C9.0426 67.1376 8.84298 67.4076 8.63936 67.6749V67.6719ZM9.81617 66.0349L-24 32.1529V30.7449L10.3831 65.1919C10.1988 65.4753 10.0108 65.7563 9.81916 66.0349H9.81617ZM10.9351 64.3329L-24 29.3329V27.9249L11.4601 63.4549C11.2864 63.7489 11.1098 64.0413 10.9301 64.3319L10.9351 64.3329ZM11.9732 62.5649L-24 26.5199V25.1119L12.4672 61.6479C12.3055 61.9546 12.1392 62.2586 11.9682 62.5599L11.9732 62.5649ZM12.9444 60.7209L-24 23.7039V22.2949L13.4025 59.7649C13.2534 60.0829 13.1004 60.3993 12.9434 60.7139L12.9444 60.7209ZM13.8427 58.8039C13.9871 58.4766 14.1272 58.1473 14.2629 57.8159L-24 19.4789V20.8879L13.8407 58.7989L13.8427 58.8039ZM14.6612 56.8039C14.7943 56.4626 14.9207 56.1196 15.0405 55.7749L-24 16.6649V18.0709L14.6602 56.8029L14.6612 56.8039ZM15.3968 54.7239C15.5133 54.3679 15.6247 54.0103 15.7312 53.6509L-24 13.8469V15.2549L15.3948 54.7229L15.3968 54.7239ZM16.0426 52.5549C16.1424 52.1819 16.2422 51.8099 16.3291 51.4339L-24 11.0299V12.4379L16.0406 52.5539L16.0426 52.5549ZM16.5896 50.2869C16.6734 49.8969 16.7493 49.5049 16.8221 49.1109L-24 8.2139V9.6219L16.5876 50.2859L16.5896 50.2869ZM17.0268 47.9079C17.0907 47.4979 17.1485 47.0869 17.2014 46.6739L-24 5.3979V6.8059L17.0238 47.9059L17.0268 47.9079ZM17.3452 45.4079C17.3871 44.9759 17.425 44.5439 17.455 44.1079L-24 2.5819V3.9889L17.3422 45.4089L17.3452 45.4079ZM17.5238 42.7709C17.5408 42.3119 17.5498 41.8529 17.5528 41.3919L-24 -0.235103V1.1729L17.5228 42.7729L17.5238 42.7709ZM17.5418 39.9709C17.5418 39.8929 17.5418 39.8149 17.5418 39.7369C17.5298 39.3283 17.5122 38.9183 17.4889 38.5069L-23.8892 -2.9401L-24 -2.9351V-1.6431L17.5388 39.9729L17.5418 39.9709ZM17.3701 36.9819C17.3295 36.5559 17.2836 36.1323 17.2324 35.7109C17.2324 35.6199 17.2324 35.5279 17.2324 35.4349L-21.291 -3.1541L-22.5886 -3.0471L17.3671 36.9839L17.3701 36.9819ZM17.2703 34.0609C17.2913 33.6359 17.3212 33.1959 17.3651 32.7469L-18.6939 -3.3681L-19.9914 -3.2611L17.2623 34.0649L17.2703 34.0609ZM17.5169 31.4909C17.5738 31.0909 17.6426 30.6909 17.7225 30.2909L-16.0957 -3.5811L-17.3933 -3.4741L17.5089 31.4929L17.5169 31.4909ZM17.984 29.1439C18.0778 28.7793 18.1826 28.4149 18.2984 28.0509L-13.4975 -3.7951L-14.7951 -3.6881L17.977 29.1459L17.984 29.1439ZM18.6667 27.0119C18.7958 26.6786 18.9366 26.3499 19.0889 26.0259L-10.8993 -4.0081L-12.1969 -3.9011L18.6597 27.0139L18.6667 27.0119ZM19.5651 25.0939C19.7307 24.7939 19.9064 24.5029 20.0941 24.2159L-8.30217 -4.2221L-9.59976 -4.1151L19.5561 25.0959L19.5651 25.0939ZM20.679 23.3939C20.8786 23.1319 21.0922 22.8763 21.3198 22.6269L-5.70399 -4.4351L-7.00158 -4.3291L20.67 23.3959L20.679 23.3939ZM22.0145 21.9159L-4.39642 -4.5441L-3.09883 -4.6511L22.7611 21.2649C22.4949 21.4749 22.2431 21.6923 22.0055 21.9169L22.0145 21.9159ZM23.5786 20.6659L-1.80724 -4.7551L-0.509645 -4.8631L24.434 20.1269C24.1445 20.2939 23.8551 20.4729 23.5686 20.6679L23.5786 20.6659ZM25.3673 19.6409L0.791935 -4.9701L2.08952 -5.0771L26.3445 19.2229C26.0141 19.3449 25.6837 19.4829 25.3543 19.6389L25.3673 19.6409ZM27.4205 18.8809L3.38911 -5.1831L4.6867 -5.2901L28.5563 18.6229C28.1764 18.6896 27.7944 18.7763 27.4105 18.8829L27.4205 18.8809ZM29.806 18.4559L5.98628 -5.3971L7.28387 -5.5041L31.1485 18.4029C30.7064 18.4029 30.2502 18.4179 29.797 18.4579L29.806 18.4559ZM32.6428 18.4809L8.58446 -5.6111L9.88205 -5.7181L34.2917 18.7329C33.7657 18.6279 33.2127 18.5409 32.6368 18.4829L32.6428 18.4809ZM36.1822 19.2109L11.1826 -5.8241L12.4802 -5.9311L38.432 20.0739C37.6964 19.7392 36.9402 19.4516 36.1682 19.2129L36.1822 19.2109ZM41.4284 21.6649L13.7798 -6.0351L15.0774 -6.1421L44.0026 22.8319C43.1276 22.4753 42.2695 22.0849 41.4284 21.6609V21.6649ZM46.2265 23.6559L16.382 -6.2441L17.6796 -6.3511L48.2268 24.2479C47.5534 24.0686 46.888 23.8686 46.2305 23.6479L46.2265 23.6559ZM50.0684 24.6879L18.9771 -6.4641L20.2747 -6.5711L51.7862 24.9979C51.2086 24.9079 50.6357 24.8036 50.0674 24.6849L50.0684 24.6879ZM53.4082 25.2169C53.9186 25.2729 54.4316 25.3176 54.9473 25.3509L22.8739 -6.7851L21.5763 -6.6781L53.4072 25.2129L53.4082 25.2169ZM56.4166 25.4169C56.8824 25.4276 57.3522 25.4276 57.826 25.4169L25.4721 -6.9991L24.1745 -6.8921L56.4146 25.4079L56.4166 25.4169ZM59.1844 25.3729C59.5092 25.3556 59.8339 25.3333 60.1586 25.3059C60.2704 25.2969 60.3802 25.2849 60.492 25.2739L28.0693 -7.2131L26.7717 -7.1061L59.1834 25.3649L59.1844 25.3729ZM61.7597 25.1369C62.1716 25.0843 62.5811 25.0246 62.9884 24.9579L30.6674 -7.4261L29.3698 -7.3191L61.7597 25.1319V25.1369ZM64.1782 24.7429C64.5654 24.6649 64.9517 24.5839 65.335 24.4929L33.2656 -7.6351L31.968 -7.5281L64.1772 24.7379L64.1782 24.7429ZM66.4589 24.2109C66.8249 24.1123 67.1889 24.0079 67.5509 23.8979L35.8638 -7.8531L34.5662 -7.7461L66.4579 24.2059L66.4589 24.2109ZM68.6159 23.5549C68.9639 23.4376 69.31 23.3149 69.654 23.1869L38.4609 -8.0671L37.1634 -7.9601L68.6159 23.5499V23.5549ZM70.6621 22.7889C70.9948 22.6556 71.3229 22.5149 71.6463 22.3669L41.0601 -8.2801L39.7625 -8.1731L70.6611 22.7839L70.6621 22.7889ZM72.6075 21.9209C72.9229 21.7689 73.2353 21.6129 73.5448 21.4529L43.6573 -8.4941L42.3597 -8.3871L72.6035 21.9129L72.6075 21.9209ZM74.4581 20.9589C74.7568 20.7909 75.0536 20.6186 75.3484 20.4419L46.2545 -8.7081L44.9569 -8.6011L74.4561 20.9539L74.4581 20.9589ZM76.2168 19.9049C76.5023 19.7219 76.7857 19.5369 77.0652 19.3469L48.8526 -8.9211L47.5551 -8.8141L76.2138 19.9009L76.2168 19.9049ZM77.8937 18.7679C78.1652 18.5679 78.4327 18.3679 78.6992 18.1679L51.4498 -9.1321L50.1522 -9.0261L77.8917 18.7649L77.8937 18.7679ZM79.4847 17.5449L52.7494 -9.2421L54.047 -9.3491L80.2463 16.8989C79.9948 17.1169 79.7396 17.3309 79.4807 17.5409L79.4847 17.5449ZM80.9969 16.2449L55.3526 -9.4551L56.6502 -9.5621L81.7216 15.5649C81.483 15.7949 81.2405 16.0209 80.9949 16.2439L80.9969 16.2449ZM82.4302 14.8649L57.9477 -9.6691L59.2453 -9.7761L83.115 14.1379C82.8894 14.3813 82.6605 14.6216 82.4283 14.8589L82.4302 14.8649ZM83.7827 13.4039L60.5429 -9.8821L61.8405 -9.9891L84.4275 12.6389C84.2153 12.8949 83.999 13.1479 83.7787 13.3979L83.7827 13.4039ZM85.0584 11.8659L63.1381 -10.0961L64.4357 -10.2031L85.6652 11.0649C85.4656 11.3316 85.2627 11.5983 85.0564 11.8649L85.0584 11.8659ZM86.2561 10.2459L65.7443 -10.3041L67.0418 -10.4111L86.8211 9.4039C86.6361 9.68723 86.4478 9.9679 86.2561 10.2459ZM87.3671 8.5459L68.3424 -10.5141L69.64 -10.6211L87.8921 7.6549C87.7211 7.95156 87.5461 8.2459 87.3671 8.5379V8.5459ZM88.3942 6.7589L70.9346 -10.7351L72.2322 -10.8421L88.8653 5.8219C88.7096 6.1339 88.5519 6.4449 88.3872 6.7509L88.3942 6.7589ZM89.3284 4.8779L73.5338 -10.9501L74.8314 -11.0561L89.7556 3.8949C89.6159 4.2229 89.4712 4.5469 89.3224 4.8699L89.3284 4.8779ZM90.1689 2.9039L76.1349 -11.1561L77.4325 -11.2631L90.5442 1.8649C90.4224 2.20956 90.2956 2.5519 90.1639 2.8919L90.1689 2.9039ZM90.9035 0.822896C91.0173 0.464896 91.1281 0.104902 91.2299 -0.257098L80.0277 -11.4841L78.7301 -11.3771L90.8995 0.8149L90.9035 0.822896ZM91.5253 -1.3701C91.6198 -1.74877 91.708 -2.12977 91.7899 -2.5131L82.6299 -11.6891L81.3323 -11.5821L91.5253 -1.3701ZM92.0244 -3.6881C92.0963 -4.0881 92.1592 -4.4971 92.2171 -4.9041L85.23 -11.9041L83.9325 -11.7971L92.0254 -3.6891L92.0244 -3.6881ZM92.3738 -6.1551C92.419 -6.5851 92.4563 -7.01844 92.4856 -7.4551L87.8222 -12.1251L86.5246 -12.0181L92.3688 -6.1631L92.3738 -6.1551ZM92.5534 -8.7901C92.5684 -9.2531 92.5704 -9.7181 92.5684 -10.1841L90.4194 -12.3351L89.1218 -12.2281L92.5484 -8.7951L92.5534 -8.7901ZM92.5285 -11.6321L91.73 -12.4321L92.4806 -12.4941C92.4952 -12.2134 92.5092 -11.9291 92.5225 -11.6411L92.5285 -11.6321Z" fill="#148943"/>
<path fill-rule="evenodd" clip-rule="evenodd" d="M-24 69.9909C-23.2195 70.0356 -22.4322 70.0579 -21.6384 70.0579C-10.8215 70.0577 -0.416971 65.8992 7.4297 58.4398C15.2764 50.9805 19.9669 40.789 20.5343 29.9669C20.5722 29.2336 20.5911 28.4952 20.5911 27.7519C20.5911 27.2009 20.5772 26.6519 20.5562 26.1039C20.8557 22.0749 22.1532 15.9039 27.0511 12.6949C34.7059 7.66786 42.8997 13.3879 42.8997 13.3879C47.9389 16.934 53.8497 19.0327 59.9932 19.4573C66.1366 19.8819 72.2791 18.6161 77.7565 15.7968C83.234 12.9775 87.8382 8.7119 91.0713 3.46112C94.3045 -1.78965 96.0437 -7.8259 96.1008 -13.9951H-24V69.9909Z" fill="#148943"/>
<path fill-rule="evenodd" clip-rule="evenodd" d="M-24 31.889C-16.7321 32.1205 -9.50011 30.7755 -2.79939 27.946C8.7709 23.0873 18.1169 14.0805 23.4119 2.68602C24.0298 1.35602 24.5987 -0.032986 25.1686 -1.42199C27.1599 -6.27499 29.1552 -11.141 33.5241 -14H31.991C28.1361 -10.974 26.2416 -6.35998 24.3542 -1.75698C23.7932 -0.386985 23.2302 0.982018 22.6114 2.31702C17.4107 13.5129 8.22894 22.363 -3.13876 27.137C-9.73215 29.9207 -16.8488 31.2416 -24 31.009V31.889ZM49.6841 -13.999C51.7705 -12.7095 53.6095 -11.0561 55.114 -9.11699L55.138 -9.08698C59.1713 -3.44809 64.5801 1.06082 70.848 4.0092C77.1158 6.95757 84.0335 8.24698 90.9404 7.75431C97.8473 7.26163 104.513 5.00332 110.3 1.19501C116.088 -2.61331 120.805 -7.84447 124 -13.999H123.009C119.834 -8.0405 115.195 -2.99239 109.528 0.667347C103.862 4.32708 97.3577 6.4773 90.6303 6.9144C83.9028 7.3515 77.1754 6.06101 71.0849 3.16512C64.9945 0.269243 59.7426 -4.13618 55.8267 -9.63398C55.8187 -9.64598 55.8097 -9.65698 55.8007 -9.66798C54.509 -11.326 52.9816 -12.7851 51.2671 -13.999H49.6841Z" fill="#148943"/>
</g>
</g>
</g>
<path d="M224.878 45.63L225.658 41.43C226.898 41.43 228.078 41.39 229.198 41.31C230.318 41.23 231.348 41.13 232.288 41.01C233.248 40.89 234.078 40.76 234.778 40.62C235.498 40.48 236.048 40.35 236.428 40.23C237.108 40.01 237.688 39.74 238.168 39.42C238.648 39.1 239.018 38.74 239.278 38.34C239.538 37.94 239.668 37.54 239.668 37.14C239.668 36.86 239.618 36.58 239.518 36.3C239.418 36.02 239.278 35.76 239.098 35.52C238.938 35.28 238.738 35.09 238.498 34.95C238.278 34.79 238.048 34.71 237.808 34.71C237.488 34.71 237.168 34.83 236.848 35.07C236.548 35.31 236.298 35.63 236.098 36.03C235.918 36.41 235.828 36.84 235.828 37.32C235.828 37.66 235.928 38.02 236.128 38.4C236.328 38.78 236.608 39.15 236.968 39.51C237.348 39.85 237.778 40.15 238.258 40.41L234.268 41.94C233.828 41.52 233.408 41.09 233.008 40.65C232.628 40.19 232.308 39.68 232.048 39.12C231.808 38.56 231.688 37.93 231.688 37.23C231.688 36.31 231.868 35.46 232.228 34.68C232.608 33.88 233.098 33.18 233.698 32.58C234.318 31.98 234.988 31.52 235.708 31.2C236.448 30.86 237.178 30.69 237.898 30.69C239.058 30.69 240.078 31 240.958 31.62C241.838 32.22 242.528 33 243.028 33.96C243.548 34.92 243.808 35.93 243.808 36.99C243.808 37.93 243.628 38.77 243.268 39.51C242.908 40.25 242.418 40.9 241.798 41.46C241.198 42 240.528 42.48 239.788 42.9C239.068 43.32 238.338 43.68 237.598 43.98C237.078 44.2 236.358 44.41 235.438 44.61C234.538 44.81 233.498 44.98 232.318 45.12C231.158 45.28 229.938 45.4 228.658 45.48C227.378 45.58 226.118 45.63 224.878 45.63ZM245.578 45.15C244.418 45.15 243.278 45.09 242.158 44.97C241.038 44.85 239.998 44.67 239.038 44.43C238.098 44.19 237.278 43.9 236.578 43.56L238.648 40.32C239.248 40.48 239.948 40.61 240.748 40.71C241.568 40.79 242.418 40.85 243.298 40.89C244.198 40.93 245.058 40.95 245.878 40.95C246.638 40.95 247.178 41.15 247.498 41.55C247.838 41.93 248.008 42.41 248.008 42.99C248.008 43.61 247.798 44.13 247.378 44.55C246.958 44.95 246.358 45.15 245.578 45.15ZM224.878 45.63C222.718 45.63 220.888 45.46 219.388 45.12C217.908 44.8 216.698 44.34 215.758 43.74C214.838 43.12 214.168 42.4 213.748 41.58C213.328 40.76 213.118 39.86 213.118 38.88C213.118 38.24 213.168 37.6 213.268 36.96C213.388 36.3 213.528 35.66 213.688 35.04C213.868 34.42 214.028 33.86 214.168 33.36L217.918 34.23C217.838 34.59 217.748 34.98 217.648 35.4C217.548 35.82 217.468 36.23 217.408 36.63C217.348 37.01 217.318 37.36 217.318 37.68C217.318 38.42 217.578 39.08 218.098 39.66C218.638 40.22 219.518 40.66 220.738 40.98C221.958 41.28 223.598 41.43 225.658 41.43L226.258 44.67L224.878 45.63ZM237.928 27.9C237.308 27.9 236.778 27.69 236.338 27.27C235.918 26.85 235.708 26.33 235.708 25.71C235.708 25.09 235.918 24.56 236.338 24.12C236.778 23.68 237.308 23.46 237.928 23.46C238.528 23.46 239.038 23.68 239.458 24.12C239.898 24.56 240.118 25.09 240.118 25.71C240.118 26.33 239.898 26.85 239.458 27.27C239.038 27.69 238.528 27.9 237.928 27.9ZM275.705 45.15C274.685 45.15 273.705 45.06 272.765 44.88C271.825 44.68 270.975 44.42 270.215 44.1C269.475 43.78 268.865 43.42 268.385 43.02L271.085 40.11C271.805 40.41 272.545 40.63 273.305 40.77C274.065 40.89 274.965 40.95 276.005 40.95C276.765 40.95 277.305 41.15 277.625 41.55C277.965 41.93 278.135 42.41 278.135 42.99C278.135 43.61 277.925 44.13 277.505 44.55C277.085 44.95 276.485 45.15 275.705 45.15ZM261.155 45.54C259.295 45.54 257.745 45.46 256.505 45.3C255.285 45.14 254.295 44.91 253.535 44.61C252.775 44.31 252.175 43.95 251.735 43.53C251.295 43.11 250.935 42.65 250.655 42.15L251.495 41.91C250.995 42.87 250.425 43.58 249.785 44.04C249.145 44.5 248.475 44.8 247.775 44.94C247.075 45.08 246.355 45.15 245.615 45.15L245.915 40.95C246.535 40.95 247.025 40.85 247.385 40.65C247.745 40.45 248.035 40.12 248.255 39.66C248.495 39.2 248.715 38.59 248.915 37.83C249.115 37.07 249.355 36.14 249.635 35.04L253.445 35.97C253.305 36.51 253.185 36.98 253.085 37.38C253.005 37.78 252.935 38.13 252.875 38.43C252.835 38.71 252.815 38.94 252.815 39.12C252.815 39.5 252.905 39.84 253.085 40.14C253.265 40.42 253.615 40.65 254.135 40.83C254.655 40.99 255.415 41.12 256.415 41.22C257.435 41.3 258.765 41.34 260.405 41.34C262.145 41.34 263.595 41.28 264.755 41.16C265.915 41.02 266.835 40.83 267.515 40.59C268.215 40.33 268.715 40.02 269.015 39.66C269.315 39.28 269.465 38.85 269.465 38.37C269.465 37.99 269.375 37.64 269.195 37.32C269.035 36.98 268.765 36.7 268.385 36.48C268.005 36.26 267.515 36.15 266.915 36.15C266.195 36.15 265.465 36.33 264.725 36.69C264.005 37.03 263.295 37.49 262.595 38.07C261.895 38.63 261.225 39.26 260.585 39.96C259.965 40.66 259.405 41.36 258.905 42.06L254.405 41.55C255.185 40.29 256.065 39.08 257.045 37.92C258.025 36.76 259.075 35.74 260.195 34.86C261.315 33.96 262.475 33.25 263.675 32.73C264.875 32.21 266.095 31.95 267.335 31.95C268.675 31.95 269.815 32.21 270.755 32.73C271.695 33.25 272.415 33.97 272.915 34.89C273.415 35.81 273.665 36.87 273.665 38.07C273.665 39.53 273.245 40.82 272.405 41.94C271.585 43.06 270.255 43.94 268.415 44.58C266.595 45.22 264.175 45.54 261.155 45.54ZM275.732 45.15L276.032 40.95C276.952 40.95 277.612 40.86 278.012 40.68C278.412 40.48 278.652 40.12 278.732 39.6C278.812 39.06 278.832 38.28 278.792 37.26L278.252 23.04H282.482L283.082 37.56C283.122 38.72 283.072 39.77 282.932 40.71C282.812 41.63 282.502 42.42 282.002 43.08C281.522 43.74 280.772 44.25 279.752 44.61C278.752 44.97 277.412 45.15 275.732 45.15ZM287.039 45L286.409 23.04H290.609L291.239 45H287.039Z" fill="#454545"/>
<path d="M182.651 102.93L181.121 99.21C182.181 98.85 183.151 98.43 184.031 97.95C184.931 97.47 185.711 96.94 186.371 96.36C187.031 95.78 187.541 95.15 187.901 94.47C188.261 93.77 188.441 93.02 188.441 92.22C188.441 91.38 188.251 90.46 187.871 89.46C187.491 88.46 187.031 87.44 186.491 86.4L190.421 84.51C190.781 85.13 191.091 85.8 191.351 86.52C191.631 87.22 191.861 87.85 192.041 88.41C192.221 88.97 192.341 89.35 192.401 89.55C192.681 90.51 193.061 91.15 193.541 91.47C194.041 91.79 194.841 91.95 195.941 91.95C196.701 91.95 197.241 92.15 197.561 92.55C197.901 92.93 198.071 93.41 198.071 93.99C198.071 94.61 197.861 95.13 197.441 95.55C197.021 95.95 196.421 96.15 195.641 96.15C194.821 96.15 194.101 96.03 193.481 95.79C192.861 95.55 192.361 95.2 191.981 94.74C191.621 94.28 191.391 93.74 191.291 93.12L192.401 93.75C192.281 94.81 191.931 95.81 191.351 96.75C190.791 97.71 190.061 98.59 189.161 99.39C188.261 100.19 187.251 100.89 186.131 101.49C185.011 102.09 183.851 102.57 182.651 102.93ZM195.677 96.15L195.977 91.95C196.637 91.95 197.177 91.9 197.597 91.8C198.017 91.68 198.357 91.43 198.617 91.05C198.897 90.65 199.137 90.06 199.337 89.28C199.557 88.48 199.797 87.4 200.057 86.04L203.957 86.76C203.877 87.2 203.767 87.75 203.627 88.41C203.507 89.07 203.447 89.64 203.447 90.12C203.447 90.5 203.517 90.83 203.657 91.11C203.817 91.37 204.077 91.58 204.437 91.74C204.817 91.88 205.337 91.95 205.997 91.95C206.517 91.95 206.957 91.9 207.317 91.8C207.697 91.68 208.017 91.43 208.277 91.05C208.557 90.65 208.797 90.04 208.997 89.22C209.217 88.38 209.427 87.25 209.627 85.83L213.587 86.46C213.507 86.92 213.427 87.41 213.347 87.93C213.267 88.45 213.197 88.93 213.137 89.37C213.077 89.81 213.047 90.17 213.047 90.45C213.047 90.71 213.117 90.96 213.257 91.2C213.417 91.42 213.697 91.6 214.097 91.74C214.517 91.88 215.097 91.95 215.837 91.95C216.737 91.95 217.397 91.76 217.817 91.38C218.257 90.98 218.477 90.38 218.477 89.58C218.477 89.12 218.467 88.63 218.447 88.11C218.427 87.57 218.387 86.97 218.327 86.31C218.287 85.63 218.207 84.86 218.087 84L221.957 83.7C222.097 85.42 222.257 86.82 222.437 87.9C222.617 88.98 222.857 89.82 223.157 90.42C223.477 91 223.897 91.4 224.417 91.62C224.957 91.84 225.657 91.95 226.517 91.95C227.277 91.95 227.817 92.15 228.137 92.55C228.477 92.93 228.647 93.41 228.647 93.99C228.647 94.61 228.437 95.13 228.017 95.55C227.617 95.95 227.017 96.15 226.217 96.15C225.677 96.15 225.117 96.1 224.537 96C223.957 95.92 223.397 95.75 222.857 95.49C222.317 95.21 221.837 94.81 221.417 94.29C220.997 93.77 220.667 93.08 220.427 92.22L220.967 92.4C220.687 93.4 220.307 94.17 219.827 94.71C219.347 95.25 218.757 95.63 218.057 95.85C217.357 96.05 216.517 96.15 215.537 96.15C214.637 96.15 213.837 96.03 213.137 95.79C212.437 95.55 211.877 95.16 211.457 94.62C211.057 94.06 210.847 93.31 210.827 92.37H211.847C211.447 93.49 210.987 94.32 210.467 94.86C209.947 95.4 209.317 95.75 208.577 95.91C207.837 96.07 206.907 96.15 205.787 96.15C205.107 96.15 204.437 96.08 203.777 95.94C203.117 95.78 202.527 95.43 202.007 94.89C201.487 94.33 201.107 93.45 200.867 92.25L202.487 92.19C202.067 93.37 201.517 94.24 200.837 94.8C200.177 95.36 199.417 95.73 198.557 95.91C197.697 96.07 196.737 96.15 195.677 96.15ZM211.067 77.58C210.567 77.58 210.127 77.39 209.747 77.01C209.387 76.63 209.207 76.18 209.207 75.66C209.207 75.14 209.387 74.7 209.747 74.34C210.127 73.98 210.567 73.8 211.067 73.8C211.587 73.8 212.027 73.98 212.387 74.34C212.747 74.7 212.927 75.14 212.927 75.66C212.927 76.18 212.747 76.63 212.387 77.01C212.027 77.39 211.587 77.58 211.067 77.58ZM208.667 81.54C208.167 81.54 207.727 81.35 207.347 80.97C206.987 80.59 206.807 80.14 206.807 79.62C206.807 79.1 206.987 78.66 207.347 78.3C207.727 77.94 208.167 77.76 208.667 77.76C209.187 77.76 209.627 77.94 209.987 78.3C210.347 78.66 210.527 79.1 210.527 79.62C210.527 80.14 210.347 80.59 209.987 80.97C209.627 81.35 209.187 81.54 208.667 81.54ZM213.317 81.54C212.817 81.54 212.377 81.35 211.997 80.97C211.637 80.59 211.457 80.14 211.457 79.62C211.457 79.1 211.637 78.66 211.997 78.3C212.377 77.94 212.817 77.76 213.317 77.76C213.837 77.76 214.277 77.94 214.637 78.3C214.997 78.66 215.177 79.1 215.177 79.62C215.177 80.14 214.997 80.59 214.637 80.97C214.277 81.35 213.837 81.54 213.317 81.54ZM226.233 96.15L226.533 91.95C227.473 91.95 228.193 91.94 228.693 91.92C229.213 91.9 229.603 91.88 229.863 91.86C230.123 91.82 230.343 91.79 230.523 91.77C230.323 91.57 230.063 91.28 229.743 90.9C229.423 90.52 229.133 90.03 228.873 89.43C228.633 88.83 228.513 88.11 228.513 87.27C228.513 86.05 228.823 84.98 229.443 84.06C230.083 83.14 230.943 82.42 232.023 81.9C233.103 81.38 234.313 81.12 235.653 81.12C236.293 81.12 236.883 81.16 237.423 81.24C237.983 81.32 238.543 81.44 239.103 81.6L238.443 85.59C238.043 85.49 237.623 85.41 237.183 85.35C236.743 85.29 236.353 85.26 236.013 85.26C235.353 85.26 234.773 85.37 234.273 85.59C233.793 85.79 233.413 86.08 233.133 86.46C232.873 86.82 232.743 87.26 232.743 87.78C232.743 88.12 232.803 88.44 232.923 88.74C233.063 89.04 233.233 89.31 233.433 89.55C233.633 89.79 233.853 90 234.093 90.18C234.333 90.36 234.563 90.51 234.783 90.63C235.023 90.73 235.223 90.8 235.383 90.84C235.883 90.7 236.313 90.58 236.673 90.48C237.053 90.36 237.413 90.25 237.753 90.15C238.113 90.03 238.503 89.88 238.923 89.7C239.343 89.52 239.863 89.3 240.483 89.04L241.833 93C240.153 93.82 238.513 94.46 236.913 94.92C235.313 95.38 233.653 95.7 231.933 95.88C230.213 96.06 228.313 96.15 226.233 96.15ZM250.158 95.16C250.158 94.7 250.198 94.16 250.278 93.54C250.358 92.92 250.508 92.22 250.728 91.44C250.948 90.64 251.278 89.75 251.718 88.77L255.408 90.06C255.188 90.68 254.998 91.25 254.838 91.77C254.678 92.27 254.558 92.74 254.478 93.18C254.398 93.6 254.358 94.02 254.358 94.44C254.358 95.1 254.498 95.69 254.778 96.21C255.078 96.75 255.508 97.2 256.068 97.56C256.628 97.94 257.308 98.23 258.108 98.43C258.928 98.63 259.868 98.73 260.928 98.73C262.028 98.73 263.008 98.68 263.868 98.58C264.748 98.48 265.488 98.33 266.088 98.13C266.708 97.93 267.178 97.67 267.498 97.35C267.818 97.05 267.978 96.7 267.978 96.3C267.978 96.12 267.908 95.95 267.768 95.79C267.648 95.63 267.438 95.46 267.138 95.28C266.858 95.1 266.478 94.91 265.998 94.71C265.538 94.51 264.978 94.29 264.318 94.05L265.308 89.82C266.168 90.18 266.978 90.5 267.738 90.78C268.518 91.04 269.258 91.26 269.958 91.44C270.658 91.6 271.318 91.73 271.938 91.83C272.558 91.91 273.138 91.95 273.678 91.95C274.438 91.95 274.978 92.15 275.298 92.55C275.618 92.93 275.778 93.41 275.778 93.99C275.778 94.61 275.568 95.13 275.148 95.55C274.728 95.95 274.138 96.15 273.378 96.15C273.218 96.15 273.058 96.15 272.898 96.15C272.758 96.15 272.608 96.15 272.448 96.15C272.308 96.15 272.158 96.15 271.998 96.15C272.038 96.35 272.058 96.52 272.058 96.66C272.058 96.82 272.058 96.97 272.058 97.11C272.058 97.77 271.828 98.44 271.368 99.12C270.928 99.8 270.238 100.43 269.298 101.01C268.358 101.59 267.158 102.05 265.698 102.39C264.258 102.75 262.538 102.93 260.538 102.93C258.378 102.93 256.518 102.65 254.958 102.09C253.418 101.55 252.228 100.7 251.388 99.54C250.568 98.4 250.158 96.94 250.158 95.16ZM263.478 109.89C262.898 109.89 262.398 109.68 261.978 109.26C261.578 108.86 261.378 108.38 261.378 107.82C261.378 107.24 261.578 106.74 261.978 106.32C262.398 105.9 262.898 105.69 263.478 105.69C264.038 105.69 264.518 105.9 264.918 106.32C265.318 106.74 265.518 107.24 265.518 107.82C265.518 108.38 265.318 108.86 264.918 109.26C264.518 109.68 264.038 109.89 263.478 109.89ZM258.288 109.89C257.708 109.89 257.208 109.68 256.788 109.26C256.388 108.86 256.188 108.38 256.188 107.82C256.188 107.24 256.388 106.74 256.788 106.32C257.208 105.9 257.708 105.69 258.288 105.69C258.848 105.69 259.328 105.9 259.728 106.32C260.128 106.74 260.328 107.24 260.328 107.82C260.328 108.38 260.128 108.86 259.728 109.26C259.328 109.68 258.848 109.89 258.288 109.89ZM273.372 96.15L273.672 91.95C274.552 91.95 275.242 91.89 275.742 91.77C276.262 91.65 276.632 91.43 276.852 91.11C277.072 90.77 277.182 90.29 277.182 89.67C277.182 89.11 277.102 88.44 276.942 87.66C276.802 86.88 276.612 86.07 276.372 85.23C276.132 84.39 275.892 83.62 275.652 82.92L279.792 81.78C280.032 82.46 280.272 83.25 280.512 84.15C280.752 85.05 280.952 85.98 281.112 86.94C281.292 87.88 281.382 88.79 281.382 89.67C281.382 90.77 281.242 91.7 280.962 92.46C280.682 93.2 280.292 93.82 279.792 94.32C279.312 94.8 278.732 95.18 278.052 95.46C277.392 95.72 276.662 95.9 275.862 96C275.062 96.1 274.232 96.15 273.372 96.15ZM277.692 79.29C277.072 79.29 276.542 79.08 276.102 78.66C275.682 78.24 275.472 77.72 275.472 77.1C275.472 76.48 275.682 75.95 276.102 75.51C276.542 75.07 277.072 74.85 277.692 74.85C278.292 74.85 278.802 75.07 279.222 75.51C279.662 75.95 279.882 76.48 279.882 77.1C279.882 77.72 279.662 78.24 279.222 78.66C278.802 79.08 278.292 79.29 277.692 79.29ZM292.404 96.15C290.544 96.15 289.104 95.96 288.084 95.58C287.084 95.2 286.384 94.61 285.984 93.81C285.584 92.99 285.354 91.96 285.294 90.72L284.664 74.04H288.864L289.494 88.71C289.534 89.63 289.634 90.32 289.794 90.78C289.954 91.24 290.254 91.55 290.694 91.71C291.154 91.87 291.824 91.95 292.704 91.95C293.464 91.95 294.004 92.15 294.324 92.55C294.664 92.93 294.834 93.41 294.834 93.99C294.834 94.61 294.624 95.13 294.204 95.55C293.784 95.95 293.184 96.15 292.404 96.15ZM292.444 96.15L292.744 91.95C293.464 91.95 294.084 91.88 294.604 91.74C295.124 91.6 295.564 91.32 295.924 90.9C296.284 90.46 296.584 89.82 296.824 88.98C297.084 88.14 297.314 87.02 297.514 85.62L301.444 86.28C301.404 86.58 301.344 86.93 301.264 87.33C301.204 87.73 301.144 88.14 301.084 88.56C301.044 88.96 301.024 89.34 301.024 89.7C301.024 90.06 301.094 90.38 301.234 90.66C301.374 90.94 301.594 91.18 301.894 91.38C302.214 91.56 302.624 91.7 303.124 91.8C303.644 91.9 304.274 91.95 305.014 91.95C305.774 91.95 306.314 92.15 306.634 92.55C306.954 92.93 307.114 93.41 307.114 93.99C307.114 94.61 306.904 95.13 306.484 95.55C306.084 95.95 305.494 96.15 304.714 96.15C303.814 96.15 302.994 96.08 302.254 95.94C301.534 95.8 300.904 95.57 300.364 95.25C299.844 94.91 299.414 94.47 299.074 93.93C298.754 93.37 298.554 92.69 298.474 91.89H299.914C299.554 92.85 299.094 93.62 298.534 94.2C297.994 94.76 297.384 95.18 296.704 95.46C296.024 95.74 295.314 95.92 294.574 96C293.854 96.1 293.144 96.15 292.444 96.15ZM299.674 78.9C299.174 78.9 298.734 78.71 298.354 78.33C297.994 77.95 297.814 77.5 297.814 76.98C297.814 76.46 297.994 76.02 298.354 75.66C298.734 75.3 299.174 75.12 299.674 75.12C300.194 75.12 300.634 75.3 300.994 75.66C301.354 76.02 301.534 76.46 301.534 76.98C301.534 77.5 301.354 77.95 300.994 78.33C300.634 78.71 300.194 78.9 299.674 78.9ZM297.274 82.86C296.774 82.86 296.334 82.67 295.954 82.29C295.594 81.91 295.414 81.46 295.414 80.94C295.414 80.42 295.594 79.98 295.954 79.62C296.334 79.26 296.774 79.08 297.274 79.08C297.794 79.08 298.234 79.26 298.594 79.62C298.954 79.98 299.134 80.42 299.134 80.94C299.134 81.46 298.954 81.91 298.594 82.29C298.234 82.67 297.794 82.86 297.274 82.86ZM301.924 82.86C301.424 82.86 300.984 82.67 300.604 82.29C300.244 81.91 300.064 81.46 300.064 80.94C300.064 80.42 300.244 79.98 300.604 79.62C300.984 79.26 301.424 79.08 301.924 79.08C302.444 79.08 302.884 79.26 303.244 79.62C303.604 79.98 303.784 80.42 303.784 80.94C303.784 81.46 303.604 81.91 303.244 82.29C302.884 82.67 302.444 82.86 301.924 82.86ZM304.72 96.15L305.02 91.95C305.94 91.95 306.6 91.86 307 91.68C307.4 91.48 307.64 91.12 307.72 90.6C307.8 90.06 307.82 89.28 307.78 88.26L307.24 74.04H311.47L312.07 88.56C312.11 89.72 312.06 90.77 311.92 91.71C311.8 92.63 311.49 93.42 310.99 94.08C310.51 94.74 309.76 95.25 308.74 95.61C307.74 95.97 306.4 96.15 304.72 96.15ZM316.026 96L315.396 74.04H319.596L320.226 96H316.026Z" fill="#F5B522"/>
<path d="M95.6266 50.6364V87H86.8553V58.8395H86.6422L78.5101 63.8111V56.2116L87.4767 50.6364H95.6266ZM103.665 87V80.679L116.929 69.0668C117.923 68.1671 118.77 67.3445 119.468 66.5987C120.166 65.8411 120.699 65.0836 121.066 64.326C121.433 63.5566 121.616 62.7221 121.616 61.8224C121.616 60.8163 121.397 59.9581 120.96 59.2479C120.522 58.5258 119.918 57.9695 119.148 57.5788C118.379 57.1882 117.497 56.9929 116.503 56.9929C115.497 56.9929 114.615 57.2 113.857 57.6143C113.1 58.0168 112.508 58.6027 112.082 59.3722C111.667 60.1416 111.46 61.0767 111.46 62.1776H103.133C103.133 59.7036 103.689 57.567 104.802 55.7678C105.915 53.9685 107.477 52.5836 109.489 51.6129C111.513 50.6304 113.863 50.1392 116.538 50.1392C119.296 50.1392 121.693 50.6009 123.729 51.5241C125.765 52.4474 127.34 53.7377 128.452 55.3949C129.577 57.0402 130.139 58.9519 130.139 61.13C130.139 62.5149 129.861 63.888 129.305 65.2493C128.748 66.6106 127.748 68.1139 126.304 69.7592C124.872 71.4046 122.836 73.3755 120.196 75.6719L115.846 79.6847V79.9155H130.583V87H103.665Z" fill="white"/>
</g>
<defs>
<filter id="filter0_d_20_252" x="61" y="24.6953" width="91.4453" height="91.4453" filterUnits="userSpaceOnUse" color-interpolation-filters="sRGB">
<feFlood flood-opacity="0" result="BackgroundImageFix"/>
<feColorMatrix in="SourceAlpha" type="matrix" values="0 0 0 0 0 0 0 0 0 0 0 0 0 0 0 0 0 0 127 0" result="hardAlpha"/>
<feOffset dy="4"/>
<feGaussianBlur stdDeviation="2"/>
<feComposite in2="hardAlpha" operator="out"/>
<feColorMatrix type="matrix" values="0 0 0 0 0 0 0 0 0 0 0 0 0 0 0 0 0 0 0.25 0"/>
<feBlend mode="normal" in2="BackgroundImageFix" result="effect1_dropShadow_20_252"/>
<feBlend mode="normal" in="SourceGraphic" in2="effect1_dropShadow_20_252" result="shape"/>
</filter>
<clipPath id="clip0_20_252">
<rect width="374" height="139" fill="white"/>
</clipPath>
</defs>
</svg>
