<svg width="374" height="139" viewBox="0 0 374 139" fill="none" xmlns="http://www.w3.org/2000/svg">
<g clip-path="url(#clip0_20_102)">
<mask id="mask0_20_102" style="mask-type:luminance" maskUnits="userSpaceOnUse" x="0" y="0" width="374" height="139">
<path d="M374 0H0V138.5H374V0Z" fill="white"/>
</mask>
<g mask="url(#mask0_20_102)">
<path d="M374 0H0V138.5H374V0Z" fill="white"/>
<path d="M374 0H0V138H374V0Z" fill="#F4F7FF"/>
<mask id="mask1_20_102" style="mask-type:luminance" maskUnits="userSpaceOnUse" x="0" y="0" width="374" height="139">
<path d="M373.799 0H0V138.5H373.799V0Z" fill="white"/>
</mask>
<g mask="url(#mask1_20_102)">
<g filter="url(#filter0_d_20_102)">
<path d="M106.723 104.141C127.557 104.141 144.446 87.252 144.446 66.4182C144.446 45.5844 127.557 28.6953 106.723 28.6953C85.8891 28.6953 69 45.5844 69 66.4182C69 87.252 85.8891 104.141 106.723 104.141Z" fill="#148943"/>
<path d="M106.723 106.141C128.661 106.141 146.446 88.3566 146.446 66.4182C146.446 44.4799 128.661 26.6953 106.723 26.6953C84.7845 26.6953 67 44.4799 67 66.4182C67 88.3566 84.7845 106.141 106.723 106.141Z" stroke="white" stroke-width="4"/>
</g>
<g opacity="0.2">
<path fill-rule="evenodd" clip-rule="evenodd" d="M377 49C376.717 49.016 376.434 49.036 376.15 49.057L377 49.909V49ZM374.863 49.176L377 51.318V52.726L373.606 49.329C374.024 49.273 374.443 49.222 374.863 49.176ZM372.389 49.514L377 54.134V55.542L371.195 49.727C371.591 49.6503 371.989 49.5793 372.389 49.514ZM370.03 49.967C369.647 50.0517 369.267 50.1403 368.89 50.233L377 58.359V56.951L370.03 49.967ZM367.776 50.526C367.411 50.6267 367.048 50.732 366.686 50.842L377 61.175V59.767L367.777 50.526H367.776ZM365.619 51.182C365.269 51.298 364.921 51.4187 364.575 51.544L377 63.991V62.582L365.621 51.182H365.619ZM363.553 51.927C363.217 52.0603 362.884 52.1937 362.555 52.327L377 66.808V65.4L363.553 51.927ZM361.57 52.756C361.246 52.9007 360.926 53.049 360.607 53.201L377 69.624V68.216L361.57 52.756ZM359.664 53.664C359.354 53.8207 359.046 53.9813 358.741 54.146L377 72.44V71.032L359.664 53.664ZM357.834 54.647C357.535 54.8157 357.239 54.9883 356.945 55.165L377 75.257V73.848L357.836 54.648L357.834 54.647ZM356.075 55.7L377 76.664V78.072L355.221 56.254C355.504 56.066 355.788 55.8813 356.075 55.7ZM354.385 56.823L377 79.482V80.89L353.564 57.41C353.835 57.21 354.109 57.0143 354.384 56.823H354.385ZM352.761 58.012L377 82.3V83.709L351.973 58.632C352.233 58.422 352.496 58.2153 352.761 58.012ZM351.201 59.267L377 85.115V86.522L350.449 59.922C350.698 59.7013 350.95 59.4843 351.204 59.271L351.201 59.267ZM349.704 60.585L377 87.93V89.339L348.982 61.269C349.221 61.039 349.462 60.8113 349.707 60.586L349.704 60.585ZM348.271 61.966L377 90.747V92.155L347.583 62.682C347.811 62.4413 348.041 62.203 348.274 61.967L348.271 61.966ZM346.903 63.411L377 93.563V94.97L346.245 64.158C346.463 63.9073 346.684 63.6587 346.906 63.412L346.903 63.411ZM345.596 64.919L377 96.379V97.788L344.972 65.7C345.178 65.4387 345.387 65.1793 345.6 64.922L345.596 64.919ZM344.361 66.493L377 99.2V100.6L343.762 67.3C343.957 67.0273 344.157 66.7573 344.361 66.49V66.493ZM343.184 68.13L377 102.012V103.42L342.617 68.973C342.801 68.6897 342.989 68.4087 343.181 68.13H343.184ZM342.065 69.832L377 104.832V106.24L341.54 70.71C341.714 70.416 341.89 70.1237 342.07 69.833L342.065 69.832ZM341.027 71.6L377 107.645V109.053L340.533 72.517C340.694 72.2103 340.861 71.9063 341.032 71.605L341.027 71.6ZM340.056 73.444L377 110.461V111.87L339.597 74.4C339.747 74.082 339.9 73.7657 340.057 73.451L340.056 73.444ZM339.157 75.361C339.013 75.6883 338.873 76.0177 338.737 76.349L377 114.686V113.277L339.159 75.366L339.157 75.361ZM338.339 77.361C338.206 77.7023 338.079 78.0453 337.96 78.39L377 117.5V116.094L338.34 77.362L338.339 77.361ZM337.603 79.441C337.487 79.797 337.375 80.1547 337.269 80.514L377 120.318V118.91L337.605 79.442L337.603 79.441ZM336.957 81.61C336.858 81.983 336.758 82.355 336.671 82.731L377 123.135V121.727L336.959 81.611L336.957 81.61ZM336.41 83.878C336.327 84.268 336.251 84.66 336.178 85.054L377 125.951V124.543L336.412 83.879L336.41 83.878ZM335.973 86.257C335.909 86.667 335.851 87.078 335.799 87.491L377 128.767V127.359L335.976 86.259L335.973 86.257ZM335.655 88.757C335.613 89.189 335.575 89.621 335.545 90.057L377 131.583V130.176L335.658 88.756L335.655 88.757ZM335.476 91.394C335.459 91.853 335.45 92.312 335.447 92.773L377 134.4V132.992L335.477 91.392L335.476 91.394ZM335.458 94.194C335.458 94.272 335.458 94.35 335.458 94.428C335.47 94.8367 335.488 95.2467 335.511 95.658L376.889 137.105L377 137.1V135.808L335.461 94.192L335.458 94.194ZM335.63 97.183C335.67 97.609 335.716 98.0327 335.768 98.454C335.768 98.545 335.768 98.637 335.768 98.73L374.291 137.319L375.589 137.212L335.633 97.181L335.63 97.183ZM335.73 100.104C335.709 100.529 335.679 100.969 335.635 101.418L371.694 137.533L372.991 137.426L335.738 100.1L335.73 100.104ZM335.483 102.674C335.426 103.074 335.357 103.474 335.278 103.874L369.096 137.746L370.393 137.639L335.491 102.672L335.483 102.674ZM335.016 105.021C334.922 105.386 334.817 105.75 334.702 106.114L366.498 137.96L367.795 137.853L335.023 105.019L335.016 105.021ZM334.333 107.153C334.204 107.486 334.063 107.815 333.911 108.139L363.899 138.173L365.197 138.066L334.34 107.151L334.333 107.153ZM333.435 109.071C333.269 109.371 333.094 109.662 332.906 109.949L361.302 138.387L362.6 138.28L333.444 109.069L333.435 109.071ZM332.321 110.771C332.121 111.033 331.908 111.289 331.68 111.538L358.704 138.6L360.002 138.494L332.33 110.769L332.321 110.771ZM330.985 112.249L357.396 138.709L356.099 138.816L330.239 112.9C330.505 112.69 330.757 112.473 330.994 112.248L330.985 112.249ZM329.421 113.499L354.807 138.92L353.51 139.028L328.566 114.038C328.855 113.871 329.145 113.692 329.431 113.497L329.421 113.499ZM327.633 114.524L352.208 139.135L350.91 139.242L326.656 114.942C326.986 114.82 327.316 114.682 327.646 114.526L327.633 114.524ZM325.58 115.284L349.611 139.348L348.313 139.455L324.444 115.542C324.824 115.475 325.206 115.389 325.59 115.282L325.58 115.284ZM323.194 115.709L347.014 139.562L345.716 139.669L321.851 115.762C322.294 115.762 322.75 115.747 323.203 115.707L323.194 115.709ZM320.357 115.684L344.416 139.776L343.118 139.883L318.708 115.432C319.234 115.537 319.787 115.624 320.363 115.682L320.357 115.684ZM316.818 114.954L341.817 139.989L340.52 140.096L314.568 114.091C315.304 114.426 316.06 114.713 316.832 114.952L316.818 114.954ZM311.572 112.5L339.22 140.2L337.923 140.307L308.997 111.333C309.872 111.69 310.73 112.08 311.572 112.504V112.5ZM306.773 110.509L336.618 140.409L335.32 140.516L304.773 109.917C305.447 110.096 306.112 110.296 306.769 110.517L306.773 110.509ZM302.932 109.477L334.023 140.629L332.725 140.736L301.214 109.167C301.791 109.257 302.364 109.361 302.933 109.48L302.932 109.477ZM299.592 108.948C299.081 108.892 298.568 108.847 298.053 108.814L330.126 140.95L331.424 140.843L299.593 108.952L299.592 108.948ZM296.583 108.748C296.118 108.737 295.648 108.737 295.174 108.748L327.528 141.164L328.826 141.057L296.585 108.757L296.583 108.748ZM293.816 108.792C293.491 108.809 293.166 108.832 292.841 108.859C292.73 108.868 292.62 108.88 292.508 108.891L324.931 141.378L326.228 141.271L293.817 108.8L293.816 108.792ZM291.24 109.028C290.828 109.081 290.419 109.14 290.012 109.207L322.333 141.591L323.63 141.484L291.24 109.033V109.028ZM288.822 109.422C288.435 109.5 288.048 109.581 287.665 109.672L319.734 141.8L321.032 141.693L288.823 109.427L288.822 109.422ZM286.541 109.954C286.175 110.053 285.811 110.157 285.449 110.267L317.136 142.018L318.434 141.911L286.542 109.959L286.541 109.954ZM284.384 110.61C284.036 110.727 283.69 110.85 283.346 110.978L314.539 142.232L315.837 142.125L284.384 110.615V110.61ZM282.338 111.376C282.005 111.509 281.677 111.65 281.354 111.798L311.94 142.445L313.237 142.338L282.339 111.381L282.338 111.376ZM280.392 112.244C280.077 112.396 279.765 112.552 279.455 112.712L309.343 142.659L310.64 142.552L280.396 112.252L280.392 112.244ZM278.542 113.206C278.243 113.374 277.946 113.546 277.652 113.723L306.746 142.873L308.043 142.766L278.544 113.211L278.542 113.206ZM276.783 114.26C276.498 114.443 276.214 114.628 275.935 114.818L304.147 143.086L305.445 142.979L276.786 114.264L276.783 114.26ZM275.106 115.397C274.835 115.597 274.567 115.797 274.301 115.997L301.55 143.297L302.848 143.191L275.108 115.4L275.106 115.397ZM273.515 116.62L300.251 143.407L298.953 143.514L272.754 117.266C273.005 117.048 273.26 116.834 273.519 116.624L273.515 116.62ZM272.003 117.92L297.647 143.62L296.35 143.727L271.278 118.6C271.517 118.37 271.76 118.144 272.005 117.921L272.003 117.92ZM270.57 119.3L295.052 143.834L293.755 143.941L269.885 120.027C270.111 119.784 270.34 119.543 270.572 119.306L270.57 119.3ZM269.217 120.761L292.457 144.047L291.159 144.154L268.572 121.526C268.785 121.27 269.001 121.017 269.221 120.767L269.217 120.761ZM267.942 122.299L289.862 144.261L288.564 144.368L267.335 123.1C267.534 122.833 267.737 122.567 267.944 122.3L267.942 122.299ZM266.744 123.919L287.256 144.469L285.958 144.576L266.179 124.761C266.364 124.478 266.552 124.197 266.744 123.919ZM265.633 125.619L284.658 144.679L283.36 144.786L265.108 126.51C265.279 126.213 265.454 125.919 265.633 125.627V125.619ZM264.606 127.406L282.065 144.9L280.768 145.007L264.135 128.343C264.29 128.031 264.448 127.72 264.613 127.414L264.606 127.406ZM263.672 129.287L279.466 145.115L278.169 145.221L263.244 130.27C263.384 129.942 263.529 129.618 263.678 129.295L263.672 129.287ZM262.831 131.261L276.865 145.321L275.567 145.428L262.456 132.3C262.578 131.955 262.704 131.613 262.836 131.273L262.831 131.261ZM262.096 133.342C261.983 133.7 261.872 134.06 261.77 134.422L272.972 145.649L274.27 145.542L262.1 133.35L262.096 133.342ZM261.475 135.535C261.38 135.914 261.292 136.295 261.21 136.678L270.37 145.854L271.668 145.747L261.475 135.534V135.535ZM260.976 137.853C260.904 138.253 260.841 138.662 260.783 139.069L267.77 146.069L269.068 145.962L260.975 137.854L260.976 137.853ZM260.626 140.32C260.581 140.75 260.544 141.183 260.514 141.62L265.178 146.29L266.475 146.183L260.631 140.328L260.626 140.32ZM260.447 142.955C260.432 143.418 260.43 143.883 260.432 144.349L262.581 146.5L263.878 146.393L260.452 142.96L260.447 142.955ZM260.472 145.797L261.27 146.597L260.519 146.659C260.505 146.378 260.491 146.094 260.478 145.806L260.472 145.797Z" fill="#148943"/>
<path fill-rule="evenodd" clip-rule="evenodd" d="M376.999 64.1744C376.218 64.1297 375.431 64.1074 374.637 64.1074C363.82 64.1076 353.416 68.2661 345.569 75.7254C337.723 83.1848 333.032 93.3762 332.465 104.198C332.427 104.931 332.408 105.67 332.408 106.413C332.408 106.964 332.422 107.513 332.443 108.061C332.143 112.09 330.846 118.261 325.948 121.47C318.293 126.497 310.099 120.777 310.099 120.777C305.06 117.231 299.149 115.132 293.006 114.708C286.862 114.283 280.72 115.549 275.242 118.368C269.765 121.187 265.161 125.453 261.928 130.704C258.695 135.955 256.955 141.991 256.898 148.16H376.999V64.1744Z" fill="#148943"/>
<path fill-rule="evenodd" clip-rule="evenodd" d="M377 102.276C369.732 102.045 362.5 103.39 355.799 106.219C344.229 111.078 334.883 120.085 329.588 131.479C328.97 132.809 328.401 134.198 327.831 135.587C325.84 140.44 323.845 145.306 319.476 148.165H321.009C324.864 145.139 326.758 140.525 328.646 135.922C329.207 134.552 329.77 133.183 330.389 131.848C335.589 120.652 344.771 111.802 356.139 107.028C362.732 104.244 369.849 102.923 377 103.156V102.276ZM303.316 148.164C301.229 146.875 299.39 145.221 297.886 143.282L297.862 143.252C293.829 137.613 288.42 133.104 282.152 130.156C275.884 127.207 268.967 125.918 262.06 126.411C255.153 126.903 248.487 129.162 242.7 132.97C236.912 136.778 232.195 142.01 229 148.164H229.991C233.166 142.206 237.805 137.157 243.472 133.498C249.138 129.838 255.642 127.688 262.37 127.251C269.097 126.814 275.825 128.104 281.915 131C288.006 133.896 293.257 138.301 297.173 143.799C297.181 143.811 297.19 143.822 297.199 143.833C298.491 145.491 300.018 146.95 301.733 148.164H303.316Z" fill="#148943"/>
</g>
<g opacity="0.2">
<path fill-rule="evenodd" clip-rule="evenodd" d="M-24 85.1649C-23.7165 85.1489 -23.4341 85.1289 -23.1496 85.1079L-24 84.2559V85.1649ZM-21.863 84.9889L-24 82.8469V81.4389L-20.6063 84.8359C-21.0242 84.8919 -21.4431 84.9429 -21.863 84.9889ZM-19.3886 84.6509L-24 80.0309V78.6229L-18.1948 84.4379C-18.5907 84.5146 -18.9886 84.5856 -19.3886 84.6509ZM-17.03 84.1979C-16.6473 84.1133 -16.2674 84.0246 -15.8901 83.9319L-24 75.8059V77.2139L-17.03 84.1979ZM-14.7761 83.6389C-14.4115 83.5383 -14.0482 83.4329 -13.6862 83.3229L-24 72.9899V74.3979L-14.7761 83.6389ZM-12.6191 82.9829C-12.2691 82.8669 -11.9211 82.7463 -11.5751 82.6209L-24 70.1739V71.5829L-12.6211 82.9829H-12.6191ZM-10.553 82.2379C-10.2169 82.1046 -9.88423 81.9713 -9.55484 81.8379L-24 67.3569V68.7649L-10.553 82.2379ZM-8.56967 81.4089C-8.24627 81.2643 -7.92553 81.1159 -7.60746 80.9639L-24 64.5409V65.9489L-8.56967 81.4089ZM-6.66421 80.5009C-6.35412 80.3443 -6.04636 80.1836 -5.74093 80.0189L-24 61.7249V63.1329L-6.66421 80.5009ZM-4.83361 79.5179C-4.5355 79.3493 -4.23938 79.1766 -3.94526 78.9999L-24 58.9079V60.3169L-4.83561 79.5169L-4.83361 79.5179ZM-3.07488 78.4649L-24 57.5009V56.0929L-2.22147 77.9109C-2.50361 78.0989 -2.78808 78.2836 -3.07488 78.4649ZM-1.38502 77.3419L-24 54.6829V53.2749L-0.563545 76.7549C-0.835041 76.9549 -1.10953 77.1506 -1.38502 77.3419ZM0.238962 76.1529L-24 51.8649V50.4559L1.0275 75.5329C0.766649 75.7429 0.503804 75.9496 0.238962 76.1529ZM1.79906 74.8979L-24 49.0499V47.6429L2.55067 74.2429C2.3018 74.4636 2.05026 74.6806 1.79607 74.8939L1.79906 74.8979ZM3.29628 73.5799L-24 46.2349V44.8259L4.01794 72.8959C3.77905 73.1259 3.5375 73.3536 3.29329 73.5789L3.29628 73.5799ZM4.72862 72.1989L-24 43.4179V42.0099L5.41734 71.4829C5.1891 71.7236 4.95853 71.9619 4.72563 72.1979L4.72862 72.1989ZM6.09708 70.7539L-24 40.6019V39.1949L6.75486 70.0069C6.5366 70.2576 6.31634 70.5063 6.09408 70.7529L6.09708 70.7539ZM7.40365 69.2459L-24 37.7859V36.3769L8.02849 68.4649C7.82221 68.7263 7.6126 68.9856 7.39966 69.2429L7.40365 69.2459ZM8.63936 67.6719L-24 34.9649V33.5649L9.23824 66.8649C9.0426 67.1376 8.84298 67.4076 8.63936 67.6749V67.6719ZM9.81617 66.0349L-24 32.1529V30.7449L10.3831 65.1919C10.1988 65.4753 10.0108 65.7563 9.81916 66.0349H9.81617ZM10.9351 64.3329L-24 29.3329V27.9249L11.4601 63.4549C11.2864 63.7489 11.1098 64.0413 10.9301 64.3319L10.9351 64.3329ZM11.9732 62.5649L-24 26.5199V25.1119L12.4672 61.6479C12.3055 61.9546 12.1392 62.2586 11.9682 62.5599L11.9732 62.5649ZM12.9444 60.7209L-24 23.7039V22.2949L13.4025 59.7649C13.2534 60.0829 13.1004 60.3993 12.9434 60.7139L12.9444 60.7209ZM13.8427 58.8039C13.9871 58.4766 14.1272 58.1473 14.2629 57.8159L-24 19.4789V20.8879L13.8407 58.7989L13.8427 58.8039ZM14.6612 56.8039C14.7943 56.4626 14.9207 56.1196 15.0405 55.7749L-24 16.6649V18.0709L14.6602 56.8029L14.6612 56.8039ZM15.3968 54.7239C15.5133 54.3679 15.6247 54.0103 15.7312 53.6509L-24 13.8469V15.2549L15.3948 54.7229L15.3968 54.7239ZM16.0426 52.5549C16.1424 52.1819 16.2422 51.8099 16.3291 51.4339L-24 11.0299V12.4379L16.0406 52.5539L16.0426 52.5549ZM16.5896 50.2869C16.6734 49.8969 16.7493 49.5049 16.8221 49.1109L-24 8.2139V9.6219L16.5876 50.2859L16.5896 50.2869ZM17.0268 47.9079C17.0907 47.4979 17.1485 47.0869 17.2014 46.6739L-24 5.3979V6.8059L17.0238 47.9059L17.0268 47.9079ZM17.3452 45.4079C17.3871 44.9759 17.425 44.5439 17.455 44.1079L-24 2.5819V3.9889L17.3422 45.4089L17.3452 45.4079ZM17.5238 42.7709C17.5408 42.3119 17.5498 41.8529 17.5528 41.3919L-24 -0.235103V1.1729L17.5228 42.7729L17.5238 42.7709ZM17.5418 39.9709C17.5418 39.8929 17.5418 39.8149 17.5418 39.7369C17.5298 39.3283 17.5122 38.9183 17.4889 38.5069L-23.8892 -2.9401L-24 -2.9351V-1.6431L17.5388 39.9729L17.5418 39.9709ZM17.3701 36.9819C17.3295 36.5559 17.2836 36.1323 17.2324 35.7109C17.2324 35.6199 17.2324 35.5279 17.2324 35.4349L-21.291 -3.1541L-22.5886 -3.0471L17.3671 36.9839L17.3701 36.9819ZM17.2703 34.0609C17.2913 33.6359 17.3212 33.1959 17.3651 32.7469L-18.6939 -3.3681L-19.9914 -3.2611L17.2623 34.0649L17.2703 34.0609ZM17.5169 31.4909C17.5738 31.0909 17.6426 30.6909 17.7225 30.2909L-16.0957 -3.5811L-17.3933 -3.4741L17.5089 31.4929L17.5169 31.4909ZM17.984 29.1439C18.0778 28.7793 18.1826 28.4149 18.2984 28.0509L-13.4975 -3.7951L-14.7951 -3.6881L17.977 29.1459L17.984 29.1439ZM18.6667 27.0119C18.7958 26.6786 18.9366 26.3499 19.0889 26.0259L-10.8993 -4.0081L-12.1969 -3.9011L18.6597 27.0139L18.6667 27.0119ZM19.5651 25.0939C19.7307 24.7939 19.9064 24.5029 20.0941 24.2159L-8.30217 -4.2221L-9.59976 -4.1151L19.5561 25.0959L19.5651 25.0939ZM20.679 23.3939C20.8786 23.1319 21.0922 22.8763 21.3198 22.6269L-5.70399 -4.4351L-7.00158 -4.3291L20.67 23.3959L20.679 23.3939ZM22.0145 21.9159L-4.39642 -4.5441L-3.09883 -4.6511L22.7611 21.2649C22.4949 21.4749 22.2431 21.6923 22.0055 21.9169L22.0145 21.9159ZM23.5786 20.6659L-1.80724 -4.7551L-0.509645 -4.8631L24.434 20.1269C24.1445 20.2939 23.8551 20.4729 23.5686 20.6679L23.5786 20.6659ZM25.3673 19.6409L0.791935 -4.9701L2.08952 -5.0771L26.3445 19.2229C26.0141 19.3449 25.6837 19.4829 25.3543 19.6389L25.3673 19.6409ZM27.4205 18.8809L3.38911 -5.1831L4.6867 -5.2901L28.5563 18.6229C28.1764 18.6896 27.7944 18.7763 27.4105 18.8829L27.4205 18.8809ZM29.806 18.4559L5.98628 -5.3971L7.28387 -5.5041L31.1485 18.4029C30.7064 18.4029 30.2502 18.4179 29.797 18.4579L29.806 18.4559ZM32.6428 18.4809L8.58446 -5.6111L9.88205 -5.7181L34.2917 18.7329C33.7657 18.6279 33.2127 18.5409 32.6368 18.4829L32.6428 18.4809ZM36.1822 19.2109L11.1826 -5.8241L12.4802 -5.9311L38.432 20.0739C37.6964 19.7392 36.9402 19.4516 36.1682 19.2129L36.1822 19.2109ZM41.4284 21.6649L13.7798 -6.0351L15.0774 -6.1421L44.0026 22.8319C43.1276 22.4753 42.2695 22.0849 41.4284 21.6609V21.6649ZM46.2265 23.6559L16.382 -6.2441L17.6796 -6.3511L48.2268 24.2479C47.5534 24.0686 46.888 23.8686 46.2305 23.6479L46.2265 23.6559ZM50.0684 24.6879L18.9771 -6.4641L20.2747 -6.5711L51.7862 24.9979C51.2086 24.9079 50.6357 24.8036 50.0674 24.6849L50.0684 24.6879ZM53.4082 25.2169C53.9186 25.2729 54.4316 25.3176 54.9473 25.3509L22.8739 -6.7851L21.5763 -6.6781L53.4072 25.2129L53.4082 25.2169ZM56.4166 25.4169C56.8824 25.4276 57.3522 25.4276 57.826 25.4169L25.4721 -6.9991L24.1745 -6.8921L56.4146 25.4079L56.4166 25.4169ZM59.1844 25.3729C59.5092 25.3556 59.8339 25.3333 60.1586 25.3059C60.2704 25.2969 60.3802 25.2849 60.492 25.2739L28.0693 -7.2131L26.7717 -7.1061L59.1834 25.3649L59.1844 25.3729ZM61.7597 25.1369C62.1716 25.0843 62.5811 25.0246 62.9884 24.9579L30.6674 -7.4261L29.3698 -7.3191L61.7597 25.1319V25.1369ZM64.1782 24.7429C64.5654 24.6649 64.9517 24.5839 65.335 24.4929L33.2656 -7.6351L31.968 -7.5281L64.1772 24.7379L64.1782 24.7429ZM66.4589 24.2109C66.8249 24.1123 67.1889 24.0079 67.5509 23.8979L35.8638 -7.8531L34.5662 -7.7461L66.4579 24.2059L66.4589 24.2109ZM68.6159 23.5549C68.9639 23.4376 69.31 23.3149 69.654 23.1869L38.4609 -8.0671L37.1634 -7.9601L68.6159 23.5499V23.5549ZM70.6621 22.7889C70.9948 22.6556 71.3229 22.5149 71.6463 22.3669L41.0601 -8.2801L39.7625 -8.1731L70.6611 22.7839L70.6621 22.7889ZM72.6075 21.9209C72.9229 21.7689 73.2353 21.6129 73.5448 21.4529L43.6573 -8.4941L42.3597 -8.3871L72.6035 21.9129L72.6075 21.9209ZM74.4581 20.9589C74.7568 20.7909 75.0536 20.6186 75.3484 20.4419L46.2545 -8.7081L44.9569 -8.6011L74.4561 20.9539L74.4581 20.9589ZM76.2168 19.9049C76.5023 19.7219 76.7857 19.5369 77.0652 19.3469L48.8526 -8.9211L47.5551 -8.8141L76.2138 19.9009L76.2168 19.9049ZM77.8937 18.7679C78.1652 18.5679 78.4327 18.3679 78.6992 18.1679L51.4498 -9.1321L50.1522 -9.0261L77.8917 18.7649L77.8937 18.7679ZM79.4847 17.5449L52.7494 -9.2421L54.047 -9.3491L80.2463 16.8989C79.9948 17.1169 79.7396 17.3309 79.4807 17.5409L79.4847 17.5449ZM80.9969 16.2449L55.3526 -9.4551L56.6502 -9.5621L81.7216 15.5649C81.483 15.7949 81.2405 16.0209 80.9949 16.2439L80.9969 16.2449ZM82.4302 14.8649L57.9477 -9.6691L59.2453 -9.7761L83.115 14.1379C82.8894 14.3813 82.6605 14.6216 82.4283 14.8589L82.4302 14.8649ZM83.7827 13.4039L60.5429 -9.8821L61.8405 -9.9891L84.4275 12.6389C84.2153 12.8949 83.999 13.1479 83.7787 13.3979L83.7827 13.4039ZM85.0584 11.8659L63.1381 -10.0961L64.4357 -10.2031L85.6652 11.0649C85.4656 11.3316 85.2627 11.5983 85.0564 11.8649L85.0584 11.8659ZM86.2561 10.2459L65.7443 -10.3041L67.0418 -10.4111L86.8211 9.4039C86.6361 9.68723 86.4478 9.9679 86.2561 10.2459ZM87.3671 8.5459L68.3424 -10.5141L69.64 -10.6211L87.8921 7.6549C87.7211 7.95156 87.5461 8.2459 87.3671 8.5379V8.5459ZM88.3942 6.7589L70.9346 -10.7351L72.2322 -10.8421L88.8653 5.8219C88.7096 6.1339 88.5519 6.4449 88.3872 6.7509L88.3942 6.7589ZM89.3284 4.8779L73.5338 -10.9501L74.8314 -11.0561L89.7556 3.8949C89.6159 4.2229 89.4712 4.5469 89.3224 4.8699L89.3284 4.8779ZM90.1689 2.9039L76.1349 -11.1561L77.4325 -11.2631L90.5442 1.8649C90.4224 2.20956 90.2956 2.5519 90.1639 2.8919L90.1689 2.9039ZM90.9035 0.822896C91.0173 0.464896 91.1281 0.104902 91.2299 -0.257098L80.0277 -11.4841L78.7301 -11.3771L90.8995 0.8149L90.9035 0.822896ZM91.5253 -1.3701C91.6198 -1.74877 91.708 -2.12977 91.7899 -2.5131L82.6299 -11.6891L81.3323 -11.5821L91.5253 -1.3701ZM92.0244 -3.6881C92.0963 -4.0881 92.1592 -4.4971 92.2171 -4.9041L85.23 -11.9041L83.9325 -11.7971L92.0254 -3.6891L92.0244 -3.6881ZM92.3738 -6.1551C92.419 -6.5851 92.4563 -7.01844 92.4856 -7.4551L87.8222 -12.1251L86.5246 -12.0181L92.3688 -6.1631L92.3738 -6.1551ZM92.5534 -8.7901C92.5684 -9.2531 92.5704 -9.7181 92.5684 -10.1841L90.4194 -12.3351L89.1218 -12.2281L92.5484 -8.7951L92.5534 -8.7901ZM92.5285 -11.6321L91.73 -12.4321L92.4806 -12.4941C92.4952 -12.2134 92.5092 -11.9291 92.5225 -11.6411L92.5285 -11.6321Z" fill="#148943"/>
<path fill-rule="evenodd" clip-rule="evenodd" d="M-24 69.9909C-23.2195 70.0356 -22.4322 70.0579 -21.6384 70.0579C-10.8215 70.0577 -0.416971 65.8992 7.4297 58.4398C15.2764 50.9805 19.9669 40.789 20.5343 29.9669C20.5722 29.2336 20.5911 28.4952 20.5911 27.7519C20.5911 27.2009 20.5772 26.6519 20.5562 26.1039C20.8557 22.0749 22.1532 15.9039 27.0511 12.6949C34.7059 7.66786 42.8997 13.3879 42.8997 13.3879C47.9389 16.934 53.8497 19.0327 59.9932 19.4573C66.1366 19.8819 72.2791 18.6161 77.7565 15.7968C83.234 12.9775 87.8382 8.7119 91.0713 3.46112C94.3045 -1.78965 96.0437 -7.8259 96.1008 -13.9951H-24V69.9909Z" fill="#148943"/>
<path fill-rule="evenodd" clip-rule="evenodd" d="M-24 31.889C-16.7321 32.1205 -9.50011 30.7755 -2.79939 27.946C8.7709 23.0873 18.1169 14.0805 23.4119 2.68602C24.0298 1.35602 24.5987 -0.032986 25.1686 -1.42199C27.1599 -6.27499 29.1552 -11.141 33.5241 -14H31.991C28.1361 -10.974 26.2416 -6.35998 24.3542 -1.75698C23.7932 -0.386985 23.2302 0.982018 22.6114 2.31702C17.4107 13.5129 8.22894 22.363 -3.13876 27.137C-9.73215 29.9207 -16.8488 31.2416 -24 31.009V31.889ZM49.6841 -13.999C51.7705 -12.7095 53.6095 -11.0561 55.114 -9.11699L55.138 -9.08698C59.1713 -3.44809 64.5801 1.06082 70.848 4.0092C77.1158 6.95757 84.0335 8.24698 90.9404 7.75431C97.8473 7.26163 104.513 5.00332 110.3 1.19501C116.088 -2.61331 120.805 -7.84447 124 -13.999H123.009C119.834 -8.0405 115.195 -2.99239 109.528 0.667347C103.862 4.32708 97.3577 6.4773 90.6303 6.9144C83.9028 7.3515 77.1754 6.06101 71.0849 3.16512C64.9945 0.269243 59.7426 -4.13618 55.8267 -9.63398C55.8187 -9.64598 55.8097 -9.65698 55.8007 -9.66798C54.509 -11.326 52.9816 -12.7851 51.2671 -13.999H49.6841Z" fill="#148943"/>
</g>
</g>
</g>
<path d="M224.878 45.63L225.658 41.43C226.898 41.43 228.078 41.39 229.198 41.31C230.318 41.23 231.348 41.13 232.288 41.01C233.248 40.89 234.078 40.76 234.778 40.62C235.498 40.48 236.048 40.35 236.428 40.23C237.108 40.01 237.688 39.74 238.168 39.42C238.648 39.1 239.018 38.74 239.278 38.34C239.538 37.94 239.668 37.54 239.668 37.14C239.668 36.86 239.618 36.58 239.518 36.3C239.418 36.02 239.278 35.76 239.098 35.52C238.938 35.28 238.738 35.09 238.498 34.95C238.278 34.79 238.048 34.71 237.808 34.71C237.488 34.71 237.168 34.83 236.848 35.07C236.548 35.31 236.298 35.63 236.098 36.03C235.918 36.41 235.828 36.84 235.828 37.32C235.828 37.66 235.928 38.02 236.128 38.4C236.328 38.78 236.608 39.15 236.968 39.51C237.348 39.85 237.778 40.15 238.258 40.41L234.268 41.94C233.828 41.52 233.408 41.09 233.008 40.65C232.628 40.19 232.308 39.68 232.048 39.12C231.808 38.56 231.688 37.93 231.688 37.23C231.688 36.31 231.868 35.46 232.228 34.68C232.608 33.88 233.098 33.18 233.698 32.58C234.318 31.98 234.988 31.52 235.708 31.2C236.448 30.86 237.178 30.69 237.898 30.69C239.058 30.69 240.078 31 240.958 31.62C241.838 32.22 242.528 33 243.028 33.96C243.548 34.92 243.808 35.93 243.808 36.99C243.808 37.93 243.628 38.77 243.268 39.51C242.908 40.25 242.418 40.9 241.798 41.46C241.198 42 240.528 42.48 239.788 42.9C239.068 43.32 238.338 43.68 237.598 43.98C237.078 44.2 236.358 44.41 235.438 44.61C234.538 44.81 233.498 44.98 232.318 45.12C231.158 45.28 229.938 45.4 228.658 45.48C227.378 45.58 226.118 45.63 224.878 45.63ZM245.578 45.15C244.418 45.15 243.278 45.09 242.158 44.97C241.038 44.85 239.998 44.67 239.038 44.43C238.098 44.19 237.278 43.9 236.578 43.56L238.648 40.32C239.248 40.48 239.948 40.61 240.748 40.71C241.568 40.79 242.418 40.85 243.298 40.89C244.198 40.93 245.058 40.95 245.878 40.95C246.638 40.95 247.178 41.15 247.498 41.55C247.838 41.93 248.008 42.41 248.008 42.99C248.008 43.61 247.798 44.13 247.378 44.55C246.958 44.95 246.358 45.15 245.578 45.15ZM224.878 45.63C222.718 45.63 220.888 45.46 219.388 45.12C217.908 44.8 216.698 44.34 215.758 43.74C214.838 43.12 214.168 42.4 213.748 41.58C213.328 40.76 213.118 39.86 213.118 38.88C213.118 38.24 213.168 37.6 213.268 36.96C213.388 36.3 213.528 35.66 213.688 35.04C213.868 34.42 214.028 33.86 214.168 33.36L217.918 34.23C217.838 34.59 217.748 34.98 217.648 35.4C217.548 35.82 217.468 36.23 217.408 36.63C217.348 37.01 217.318 37.36 217.318 37.68C217.318 38.42 217.578 39.08 218.098 39.66C218.638 40.22 219.518 40.66 220.738 40.98C221.958 41.28 223.598 41.43 225.658 41.43L226.258 44.67L224.878 45.63ZM237.928 27.9C237.308 27.9 236.778 27.69 236.338 27.27C235.918 26.85 235.708 26.33 235.708 25.71C235.708 25.09 235.918 24.56 236.338 24.12C236.778 23.68 237.308 23.46 237.928 23.46C238.528 23.46 239.038 23.68 239.458 24.12C239.898 24.56 240.118 25.09 240.118 25.71C240.118 26.33 239.898 26.85 239.458 27.27C239.038 27.69 238.528 27.9 237.928 27.9ZM275.705 45.15C274.685 45.15 273.705 45.06 272.765 44.88C271.825 44.68 270.975 44.42 270.215 44.1C269.475 43.78 268.865 43.42 268.385 43.02L271.085 40.11C271.805 40.41 272.545 40.63 273.305 40.77C274.065 40.89 274.965 40.95 276.005 40.95C276.765 40.95 277.305 41.15 277.625 41.55C277.965 41.93 278.135 42.41 278.135 42.99C278.135 43.61 277.925 44.13 277.505 44.55C277.085 44.95 276.485 45.15 275.705 45.15ZM261.155 45.54C259.295 45.54 257.745 45.46 256.505 45.3C255.285 45.14 254.295 44.91 253.535 44.61C252.775 44.31 252.175 43.95 251.735 43.53C251.295 43.11 250.935 42.65 250.655 42.15L251.495 41.91C250.995 42.87 250.425 43.58 249.785 44.04C249.145 44.5 248.475 44.8 247.775 44.94C247.075 45.08 246.355 45.15 245.615 45.15L245.915 40.95C246.535 40.95 247.025 40.85 247.385 40.65C247.745 40.45 248.035 40.12 248.255 39.66C248.495 39.2 248.715 38.59 248.915 37.83C249.115 37.07 249.355 36.14 249.635 35.04L253.445 35.97C253.305 36.51 253.185 36.98 253.085 37.38C253.005 37.78 252.935 38.13 252.875 38.43C252.835 38.71 252.815 38.94 252.815 39.12C252.815 39.5 252.905 39.84 253.085 40.14C253.265 40.42 253.615 40.65 254.135 40.83C254.655 40.99 255.415 41.12 256.415 41.22C257.435 41.3 258.765 41.34 260.405 41.34C262.145 41.34 263.595 41.28 264.755 41.16C265.915 41.02 266.835 40.83 267.515 40.59C268.215 40.33 268.715 40.02 269.015 39.66C269.315 39.28 269.465 38.85 269.465 38.37C269.465 37.99 269.375 37.64 269.195 37.32C269.035 36.98 268.765 36.7 268.385 36.48C268.005 36.26 267.515 36.15 266.915 36.15C266.195 36.15 265.465 36.33 264.725 36.69C264.005 37.03 263.295 37.49 262.595 38.07C261.895 38.63 261.225 39.26 260.585 39.96C259.965 40.66 259.405 41.36 258.905 42.06L254.405 41.55C255.185 40.29 256.065 39.08 257.045 37.92C258.025 36.76 259.075 35.74 260.195 34.86C261.315 33.96 262.475 33.25 263.675 32.73C264.875 32.21 266.095 31.95 267.335 31.95C268.675 31.95 269.815 32.21 270.755 32.73C271.695 33.25 272.415 33.97 272.915 34.89C273.415 35.81 273.665 36.87 273.665 38.07C273.665 39.53 273.245 40.82 272.405 41.94C271.585 43.06 270.255 43.94 268.415 44.58C266.595 45.22 264.175 45.54 261.155 45.54ZM275.732 45.15L276.032 40.95C276.952 40.95 277.612 40.86 278.012 40.68C278.412 40.48 278.652 40.12 278.732 39.6C278.812 39.06 278.832 38.28 278.792 37.26L278.252 23.04H282.482L283.082 37.56C283.122 38.72 283.072 39.77 282.932 40.71C282.812 41.63 282.502 42.42 282.002 43.08C281.522 43.74 280.772 44.25 279.752 44.61C278.752 44.97 277.412 45.15 275.732 45.15ZM287.039 45L286.409 23.04H290.609L291.239 45H287.039Z" fill="#454545"/>
<path d="M205.381 102.96C203.941 102.96 202.641 102.79 201.481 102.45C200.321 102.13 199.321 101.64 198.481 100.98C197.641 100.32 196.991 99.5 196.531 98.52C196.091 97.56 195.871 96.44 195.871 95.16C195.871 94.7 195.911 94.16 195.991 93.54C196.071 92.92 196.221 92.22 196.441 91.44C196.661 90.64 196.991 89.75 197.431 88.77L201.121 90.06C200.901 90.68 200.711 91.25 200.551 91.77C200.391 92.27 200.271 92.74 200.191 93.18C200.111 93.6 200.071 94.02 200.071 94.44C200.071 95.22 200.251 95.94 200.611 96.6C200.971 97.26 201.551 97.78 202.351 98.16C203.151 98.56 204.201 98.76 205.501 98.76C206.701 98.76 207.701 98.62 208.501 98.34C209.301 98.08 209.931 97.71 210.391 97.23C210.851 96.77 211.181 96.23 211.381 95.61C211.581 94.99 211.681 94.32 211.681 93.6C211.681 93.04 211.611 92.41 211.471 91.71C211.351 91.01 211.171 90.25 210.931 89.43C210.691 88.59 210.421 87.71 210.121 86.79L214.321 85.71C214.521 86.47 214.681 87.12 214.801 87.66C214.941 88.2 215.061 88.65 215.161 89.01C215.261 89.35 215.341 89.63 215.401 89.85C215.601 90.45 215.841 90.91 216.121 91.23C216.421 91.53 216.751 91.73 217.111 91.83C217.491 91.93 217.911 91.98 218.371 91.98C218.751 91.98 219.101 91.92 219.421 91.8C219.741 91.68 220.031 91.43 220.291 91.05C220.571 90.65 220.821 90.04 221.041 89.22C221.261 88.4 221.461 87.27 221.641 85.83L225.601 86.46C225.521 86.92 225.441 87.41 225.361 87.93C225.281 88.45 225.211 88.94 225.151 89.4C225.091 89.84 225.061 90.2 225.061 90.48C225.061 90.74 225.131 90.98 225.271 91.2C225.431 91.42 225.711 91.6 226.111 91.74C226.511 91.88 227.081 91.95 227.821 91.95C228.361 91.95 228.831 91.9 229.231 91.8C229.631 91.68 229.941 91.47 230.161 91.17C230.381 90.85 230.491 90.4 230.491 89.82C230.491 89.32 230.411 88.72 230.251 88.02C230.091 87.3 229.881 86.52 229.621 85.68C229.381 84.84 229.101 83.98 228.781 83.1L233.011 81.84C233.331 82.7 233.611 83.62 233.851 84.6C234.111 85.56 234.311 86.5 234.451 87.42C234.611 88.32 234.691 89.11 234.691 89.79C234.691 90.85 234.531 91.78 234.211 92.58C233.911 93.38 233.461 94.05 232.861 94.59C232.281 95.11 231.571 95.5 230.731 95.76C229.891 96.02 228.951 96.15 227.911 96.15C227.151 96.15 226.451 96.07 225.811 95.91C225.191 95.73 224.651 95.48 224.191 95.16C223.751 94.84 223.411 94.45 223.171 93.99C222.931 93.51 222.821 92.97 222.841 92.37H223.861C223.561 93.47 223.151 94.29 222.631 94.83C222.111 95.37 221.531 95.73 220.891 95.91C220.251 96.07 219.601 96.15 218.941 96.15C218.421 96.15 217.921 96.1 217.441 96C216.961 95.9 216.521 95.74 216.121 95.52C215.741 95.28 215.411 94.97 215.131 94.59C214.851 94.19 214.661 93.71 214.561 93.15L215.671 94.35C215.631 95.71 215.361 96.92 214.861 97.98C214.361 99.04 213.661 99.94 212.761 100.68C211.881 101.42 210.811 101.98 209.551 102.36C208.311 102.76 206.921 102.96 205.381 102.96ZM237.244 94.8L238.714 90.99C239.454 91.31 240.164 91.55 240.844 91.71C241.524 91.87 242.204 91.95 242.884 91.95C243.584 91.95 244.164 91.89 244.624 91.77C245.104 91.63 245.464 91.43 245.704 91.17C245.944 90.91 246.064 90.6 246.064 90.24C246.064 89.9 245.954 89.43 245.734 88.83C245.534 88.23 245.164 87.45 244.624 86.49C244.084 85.51 243.294 84.3 242.254 82.86L245.824 80.49C246.784 81.85 247.614 83.18 248.314 84.48C249.014 85.76 249.554 86.96 249.934 88.08C250.334 89.18 250.534 90.15 250.534 90.99C250.534 92.03 250.254 92.94 249.694 93.72C249.154 94.48 248.344 95.08 247.264 95.52C246.204 95.96 244.894 96.18 243.334 96.18C242.754 96.18 242.104 96.13 241.384 96.03C240.664 95.93 239.934 95.78 239.194 95.58C238.474 95.38 237.824 95.12 237.244 94.8ZM261.202 96.15C259.342 96.15 257.902 95.96 256.882 95.58C255.882 95.2 255.182 94.61 254.782 93.81C254.382 92.99 254.152 91.96 254.092 90.72L253.462 74.04H257.662L258.292 88.71C258.332 89.63 258.432 90.32 258.592 90.78C258.752 91.24 259.052 91.55 259.492 91.71C259.952 91.87 260.622 91.95 261.502 91.95C262.262 91.95 262.802 92.15 263.122 92.55C263.462 92.93 263.632 93.41 263.632 93.99C263.632 94.61 263.422 95.13 263.002 95.55C262.582 95.95 261.982 96.15 261.202 96.15ZM261.243 96.15L261.543 91.95C262.203 91.95 262.743 91.9 263.163 91.8C263.583 91.68 263.923 91.43 264.183 91.05C264.463 90.65 264.703 90.06 264.903 89.28C265.123 88.48 265.363 87.4 265.623 86.04L269.523 86.76C269.443 87.2 269.333 87.75 269.193 88.41C269.073 89.07 269.013 89.64 269.013 90.12C269.013 90.5 269.083 90.83 269.223 91.11C269.383 91.37 269.643 91.58 270.003 91.74C270.383 91.88 270.903 91.95 271.563 91.95C272.083 91.95 272.523 91.9 272.883 91.8C273.263 91.68 273.583 91.43 273.843 91.05C274.123 90.65 274.363 90.04 274.563 89.22C274.783 88.38 274.993 87.25 275.193 85.83L279.153 86.46C279.073 86.92 278.993 87.41 278.913 87.93C278.833 88.45 278.763 88.93 278.703 89.37C278.643 89.81 278.613 90.17 278.613 90.45C278.613 90.71 278.683 90.96 278.823 91.2C278.983 91.42 279.263 91.6 279.663 91.74C280.083 91.88 280.663 91.95 281.403 91.95C282.303 91.95 282.963 91.76 283.383 91.38C283.823 90.98 284.043 90.38 284.043 89.58C284.043 89.12 284.033 88.63 284.013 88.11C283.993 87.57 283.953 86.97 283.893 86.31C283.853 85.63 283.773 84.86 283.653 84L287.523 83.7C287.663 85.42 287.823 86.82 288.003 87.9C288.183 88.98 288.423 89.82 288.723 90.42C289.043 91 289.463 91.4 289.983 91.62C290.523 91.84 291.223 91.95 292.083 91.95C292.843 91.95 293.383 92.15 293.703 92.55C294.043 92.93 294.213 93.41 294.213 93.99C294.213 94.61 294.003 95.13 293.583 95.55C293.183 95.95 292.583 96.15 291.783 96.15C291.243 96.15 290.683 96.1 290.103 96C289.523 95.92 288.963 95.75 288.423 95.49C287.883 95.21 287.403 94.81 286.983 94.29C286.563 93.77 286.233 93.08 285.993 92.22L286.533 92.4C286.253 93.4 285.873 94.17 285.393 94.71C284.913 95.25 284.323 95.63 283.623 95.85C282.923 96.05 282.083 96.15 281.103 96.15C280.203 96.15 279.403 96.03 278.703 95.79C278.003 95.55 277.443 95.16 277.023 94.62C276.623 94.06 276.413 93.31 276.393 92.37H277.413C277.013 93.49 276.553 94.32 276.033 94.86C275.513 95.4 274.883 95.75 274.143 95.91C273.403 96.07 272.473 96.15 271.353 96.15C270.673 96.15 270.003 96.08 269.343 95.94C268.683 95.78 268.093 95.43 267.573 94.89C267.053 94.33 266.673 93.45 266.433 92.25L268.053 92.19C267.633 93.37 267.083 94.24 266.403 94.8C265.743 95.36 264.983 95.73 264.123 95.91C263.263 96.07 262.303 96.15 261.243 96.15ZM291.8 96.15L292.1 91.95C293.02 91.95 293.68 91.86 294.08 91.68C294.48 91.48 294.72 91.12 294.8 90.6C294.88 90.06 294.9 89.28 294.86 88.26L294.32 74.04H298.55L299.15 88.56C299.19 89.72 299.14 90.77 299 91.71C298.88 92.63 298.57 93.42 298.07 94.08C297.59 94.74 296.84 95.25 295.82 95.61C294.82 95.97 293.48 96.15 291.8 96.15ZM303.106 96L302.476 74.04H306.676L307.306 96H303.106Z" fill="#F5B522"/>
<path d="M105.972 88.5369C103.824 88.5369 101.766 88.1918 99.7975 87.5014C97.8287 86.7983 96.0773 85.6861 94.5432 84.1648C93.0091 82.6307 91.801 80.6236 90.9189 78.1435C90.0368 75.6506 89.6022 72.6143 89.615 69.0348C89.6278 65.8004 90.0241 62.8984 90.8039 60.3288C91.5837 57.7464 92.6959 55.554 94.1405 53.7514C95.5979 51.9489 97.3366 50.5746 99.3564 49.6285C101.389 48.6697 103.658 48.1903 106.164 48.1903C108.913 48.1903 111.335 48.7273 113.432 49.8011C115.541 50.8622 117.229 52.294 118.494 54.0966C119.76 55.8864 120.508 57.8807 120.738 60.0795H111.399C111.118 58.8395 110.498 57.8999 109.539 57.2607C108.593 56.6087 107.468 56.2827 106.164 56.2827C103.761 56.2827 101.964 57.3246 100.775 59.4084C99.5993 61.4922 98.9985 64.2791 98.9729 67.7692H99.2222C99.7591 66.593 100.533 65.5831 101.543 64.7393C102.552 63.8956 103.709 63.25 105.013 62.8026C106.33 62.3423 107.724 62.1122 109.194 62.1122C111.546 62.1122 113.623 62.6555 115.426 63.7422C117.229 64.8288 118.641 66.3182 119.664 68.2102C120.687 70.0895 121.192 72.2436 121.179 74.6726C121.192 77.4084 120.552 79.8246 119.261 81.9212C117.97 84.005 116.18 85.6286 113.892 86.7919C111.616 87.9553 108.976 88.5369 105.972 88.5369ZM105.915 81.25C107.078 81.25 108.12 80.9751 109.04 80.4254C109.961 79.8757 110.683 79.1278 111.207 78.1818C111.731 77.2358 111.987 76.1683 111.974 74.9794C111.987 73.7777 111.731 72.7102 111.207 71.777C110.696 70.8437 109.98 70.1023 109.06 69.5526C108.152 69.0028 107.11 68.728 105.934 68.728C105.077 68.728 104.278 68.8878 103.537 69.2074C102.795 69.527 102.15 69.9744 101.6 70.5497C101.063 71.1122 100.641 71.777 100.334 72.544C100.028 73.2983 99.8678 74.1165 99.855 74.9986C99.8678 76.1619 100.136 77.2166 100.66 78.1626C101.185 79.1087 101.9 79.8629 102.808 80.4254C103.716 80.9751 104.751 81.25 105.915 81.25Z" fill="white"/>
</g>
<defs>
<filter id="filter0_d_20_102" x="61" y="24.6953" width="91.4453" height="91.4453" filterUnits="userSpaceOnUse" color-interpolation-filters="sRGB">
<feFlood flood-opacity="0" result="BackgroundImageFix"/>
<feColorMatrix in="SourceAlpha" type="matrix" values="0 0 0 0 0 0 0 0 0 0 0 0 0 0 0 0 0 0 127 0" result="hardAlpha"/>
<feOffset dy="4"/>
<feGaussianBlur stdDeviation="2"/>
<feComposite in2="hardAlpha" operator="out"/>
<feColorMatrix type="matrix" values="0 0 0 0 0 0 0 0 0 0 0 0 0 0 0 0 0 0 0.25 0"/>
<feBlend mode="normal" in2="BackgroundImageFix" result="effect1_dropShadow_20_102"/>
<feBlend mode="normal" in="SourceGraphic" in2="effect1_dropShadow_20_102" result="shape"/>
</filter>
<clipPath id="clip0_20_102">
<rect width="374" height="139" fill="white"/>
</clipPath>
</defs>
</svg>
