<svg width="374" height="139" viewBox="0 0 374 139" fill="none" xmlns="http://www.w3.org/2000/svg">
<g clip-path="url(#clip0_8_662)">
<rect width="374" height="138.5" fill="white"/>
<rect width="374" height="138" fill="url(#paint0_linear_8_662)"/>
<g clip-path="url(#clip1_8_662)">
<g style="mix-blend-mode:exclusion">
<g opacity="0.2">
<path fill-rule="evenodd" clip-rule="evenodd" d="M-14 85.165C-13.7146 85.149 -13.4303 85.129 -13.1439 85.108L-14 84.256V85.165ZM-11.8486 84.989L-14 82.847V81.439L-10.5834 84.836C-11.0041 84.892 -11.4258 84.943 -11.8486 84.989ZM-9.35744 84.651L-14 80.031V78.623L-8.15559 84.438C-8.5542 84.5146 -8.95481 84.5856 -9.35744 84.651ZM-6.98289 84.198C-6.59768 84.1133 -6.21515 84.0246 -5.8353 83.932L-14 75.806V77.214L-6.98289 84.198ZM-4.71385 83.639C-4.34673 83.5383 -3.98095 83.433 -3.61651 83.323L-14 72.99V74.398L-4.71485 83.639H-4.71385ZM-2.54228 82.983C-2.1899 82.867 -1.83953 82.7463 -1.49116 82.621L-14 70.174V71.583L-2.54429 82.983H-2.54228ZM-0.462158 82.238C-0.123845 82.1046 0.211118 81.9713 0.542732 81.838L-14 67.357V68.765L-0.462158 82.238ZM1.53456 81.409C1.86014 81.2643 2.18305 81.116 2.50327 80.964L-14 64.541V65.949L1.53456 81.409V81.409ZM3.45289 80.501C3.76508 80.3443 4.07492 80.1836 4.38241 80.019L-14 61.725V63.133L3.45289 80.501V80.501ZM5.29586 79.518C5.59599 79.3493 5.8941 79.1766 6.19021 79L-14 58.908V60.317L5.29385 79.517L5.29586 79.518ZM7.06648 78.465L-14 57.501V56.093L7.92566 77.911C7.64161 78.099 7.35521 78.2836 7.06648 78.465V78.465ZM8.76775 77.342L-14 54.683V53.275L9.59478 76.755C9.32145 76.955 9.04611 77.1506 8.76876 77.342H8.76775ZM10.4027 76.153L-14 51.865V50.456L11.1966 75.533C10.934 75.743 10.6693 75.9496 10.4027 76.153V76.153ZM11.9734 74.898L-14 49.05V47.643L12.73 74.243C12.4795 74.4636 12.2262 74.6806 11.9703 74.894L11.9734 74.898ZM13.4807 73.58L-14 46.235V44.826L14.2072 72.896C13.9667 73.126 13.7235 73.3536 13.4777 73.579L13.4807 73.58ZM14.9227 72.199L-14 43.418V42.01L15.6161 71.483C15.3863 71.7236 15.1542 71.962 14.9197 72.198L14.9227 72.199ZM16.3004 70.754L-14 40.602V39.195L16.9626 70.007C16.7429 70.2576 16.5211 70.5063 16.2974 70.753L16.3004 70.754ZM17.6158 69.246L-14 37.786V36.377L18.2449 68.465C18.0372 68.7263 17.8262 68.9856 17.6118 69.243L17.6158 69.246ZM18.8599 67.672L-14 34.965L-14 33.565L19.4628 66.865C19.2658 67.1376 19.0649 67.4076 18.8599 67.675V67.672ZM20.0446 66.035L-14 32.153V30.745L20.6154 65.192C20.4298 65.4753 20.2406 65.7563 20.0476 66.035H20.0446ZM21.1711 64.333L-14 29.333V27.925L21.6997 63.455C21.5248 63.749 21.347 64.0413 21.1661 64.332L21.1711 64.333ZM22.2162 62.565L-14 26.52V25.112L22.7136 61.648C22.5508 61.9546 22.3833 62.2586 22.2112 62.56L22.2162 62.565ZM23.1939 60.721L-14 23.704V22.295L23.6552 59.765C23.5051 60.083 23.351 60.3993 23.1929 60.714L23.1939 60.721ZM24.0983 58.804C24.2437 58.4766 24.3847 58.1473 24.5214 57.816L-14 19.479L-14 20.888L24.0963 58.799L24.0983 58.804ZM24.9224 56.804C25.0563 56.4626 25.1836 56.1196 25.3042 55.775L-14 16.665V18.071L24.9214 56.803L24.9224 56.804ZM25.663 54.724C25.7802 54.368 25.8924 54.0103 25.9996 53.651L-14 13.847V15.255L25.661 54.723L25.663 54.724ZM26.3131 52.555C26.4136 52.182 26.5141 51.81 26.6015 51.434L-14 11.03V12.438L26.3111 52.554L26.3131 52.555ZM26.8638 50.287C26.9482 49.897 27.0246 49.505 27.0979 49.111L-14 8.21398V9.62198L26.8618 50.286L26.8638 50.287ZM27.3039 47.908C27.3683 47.498 27.4265 47.087 27.4798 46.674L-14 5.39798L-14 6.80598L27.3009 47.906L27.3039 47.908ZM27.6245 45.408C27.6667 44.976 27.7049 44.544 27.735 44.108L-14 2.58198V3.98898L27.6215 45.409L27.6245 45.408ZM27.8044 42.771C27.8215 42.312 27.8305 41.853 27.8335 41.392L-14 -0.235023V1.17298L27.8034 42.773L27.8044 42.771ZM27.8225 39.971C27.8225 39.893 27.8225 39.815 27.8225 39.737C27.8104 39.3283 27.7927 38.9183 27.7692 38.507L-13.8885 -2.94003L-14 -2.93502V-1.64302L27.8195 39.973L27.8225 39.971ZM27.6496 36.982C27.6088 36.556 27.5625 36.1323 27.511 35.711C27.511 35.62 27.511 35.528 27.511 35.435L-11.2728 -3.15402L-12.5791 -3.04702L27.6466 36.984L27.6496 36.982ZM27.5491 34.061C27.5702 33.636 27.6004 33.196 27.6446 32.747L-8.65804 -3.36802L-9.96439 -3.26102L27.5411 34.065L27.5491 34.061ZM27.7973 31.491C27.8546 31.091 27.924 30.691 28.0044 30.291L-6.04231 -3.58102L-7.34867 -3.47402L27.7893 31.493L27.7973 31.491ZM28.2676 29.144C28.3621 28.7793 28.4676 28.415 28.5842 28.051L-3.42658 -3.79502L-4.73294 -3.68802L28.2606 29.146L28.2676 29.144ZM28.955 27.012C29.0849 26.6786 29.2266 26.35 29.38 26.026L-0.810854 -4.00802L-2.11721 -3.90102L28.9479 27.014L28.955 27.012ZM29.8594 25.094C30.0262 24.794 30.2031 24.503 30.392 24.216L1.80387 -4.22202L0.497512 -4.11502L29.8503 25.096L29.8594 25.094ZM30.9808 23.394C31.1818 23.132 31.3969 22.8763 31.626 22.627L4.4196 -4.43502L3.11324 -4.32903L30.9718 23.396L30.9808 23.394ZM32.3254 21.916L5.736 -4.54402L7.04236 -4.65102L33.077 21.265C32.8091 21.475 32.5555 21.6923 32.3163 21.917L32.3254 21.916ZM33.9 20.666L8.34268 -4.75502L9.64904 -4.86302L34.7612 20.127C34.4698 20.294 34.1784 20.473 33.89 20.668L33.9 20.666ZM35.7008 19.641L10.9594 -4.97002L12.2658 -5.07702L36.6846 19.223C36.352 19.345 36.0194 19.483 35.6877 19.639L35.7008 19.641ZM37.7679 18.881L13.5741 -5.18302L14.8805 -5.29002L38.9114 18.623C38.5289 18.6896 38.1444 18.7763 37.7578 18.883L37.7679 18.881ZM40.1695 18.456L16.1889 -5.39702L17.4952 -5.50402L41.5211 18.403C41.076 18.403 40.6167 18.418 40.1605 18.458L40.1695 18.456ZM43.0254 18.481L18.8046 -5.61102L20.1109 -5.71803L44.6855 18.733C44.1559 18.628 43.5992 18.541 43.0194 18.483L43.0254 18.481ZM46.5888 19.211L21.4203 -5.82402L22.7267 -5.93102L48.8538 20.074C48.1132 19.7392 47.352 19.4516 46.5747 19.213L46.5888 19.211ZM51.8705 21.665L24.035 -6.03502L25.3414 -6.14202L54.4621 22.832C53.5811 22.4753 52.7173 22.085 51.8705 21.661V21.665ZM56.701 23.656L26.6548 -6.24402L27.9611 -6.35102L58.7148 24.248C58.0368 24.0686 57.3669 23.8686 56.705 23.648L56.701 23.656ZM60.5688 24.688L29.2675 -6.46402L30.5739 -6.57102L62.2982 24.998C61.7167 24.908 61.1399 24.8036 60.5678 24.685L60.5688 24.688ZM63.9312 25.217C64.445 25.273 64.9615 25.3176 65.4807 25.351L33.1906 -6.78502L31.8842 -6.67802L63.9302 25.213L63.9312 25.217ZM66.9599 25.417C67.4289 25.4276 67.9018 25.4276 68.3788 25.417L35.8063 -6.99902L34.5 -6.89202L66.9579 25.408L66.9599 25.417ZM69.7465 25.373C70.0734 25.3556 70.4003 25.3333 70.7272 25.306C70.8398 25.297 70.9503 25.285 71.0629 25.274L38.421 -7.21302L37.1147 -7.10603L69.7455 25.365L69.7465 25.373ZM72.3391 25.137C72.7538 25.0843 73.1661 25.0246 73.5761 24.958L41.0368 -7.42603L39.7304 -7.31902L72.3391 25.132V25.137ZM74.7739 24.743C75.1638 24.665 75.5527 24.584 75.9386 24.493L43.6525 -7.63503L42.3461 -7.52802L74.7729 24.738L74.7739 24.743ZM77.0701 24.211C77.4386 24.1123 77.805 24.008 78.1694 23.898L46.2682 -7.85302L44.9619 -7.74603L77.0691 24.206L77.0701 24.211ZM79.2417 23.555C79.592 23.4376 79.9404 23.315 80.2868 23.187L48.8829 -8.06702L47.5766 -7.96002L79.2417 23.55V23.555ZM81.3017 22.789C81.6367 22.6556 81.9669 22.515 82.2925 22.367L51.4997 -8.28002L50.1933 -8.17302L81.3007 22.784L81.3017 22.789ZM83.2602 21.921C83.5778 21.769 83.8923 21.613 84.2038 21.453L54.1144 -8.49402L52.808 -8.38702L83.2562 21.913L83.2602 21.921ZM85.1233 20.959C85.4241 20.791 85.7229 20.6186 86.0196 20.442L56.7291 -8.70802L55.4228 -8.60102L85.1213 20.954L85.1233 20.959ZM86.8939 19.905C87.1813 19.722 87.4667 19.537 87.7481 19.347L59.3449 -8.92102L58.0385 -8.81402L86.8909 19.901L86.8939 19.905ZM88.5821 18.768C88.8554 18.568 89.1248 18.368 89.3931 18.168L61.9596 -9.13202L60.6532 -9.02602L88.5801 18.765L88.5821 18.768ZM90.1839 17.545L63.2679 -9.24202L64.5743 -9.34902L90.9506 16.899C90.6974 17.117 90.4405 17.331 90.1799 17.541L90.1839 17.545ZM91.7063 16.245L65.8887 -9.45502L67.1951 -9.56202L92.4359 15.565C92.1957 15.795 91.9515 16.021 91.7043 16.244L91.7063 16.245ZM93.1493 14.865L68.5014 -9.66902L69.8078 -9.77602L93.8387 14.138C93.6116 14.3813 93.3811 14.6216 93.1473 14.859L93.1493 14.865ZM94.511 13.404L71.1141 -9.88202L72.4205 -9.98902L95.1601 12.639C94.9464 12.895 94.7287 13.148 94.5069 13.398L94.511 13.404ZM95.7952 11.866L73.7268 -10.096L75.0332 -10.203L96.4062 11.065C96.2052 11.3316 96.0009 11.5983 95.7932 11.865L95.7952 11.866ZM97.0011 10.246L76.3506 -10.304L77.657 -10.411L97.5698 9.40398C97.3836 9.68731 97.194 9.96798 97.0011 10.246ZM98.1195 8.54597L78.9663 -10.514L80.2727 -10.621L98.6481 7.65498C98.4759 7.95164 98.2997 8.24598 98.1195 8.53798V8.54597ZM99.1536 6.75898L81.576 -10.735L82.8824 -10.842L99.6279 5.82198C99.4711 6.13398 99.3123 6.44498 99.1465 6.75098L99.1536 6.75898ZM100.094 4.87798L84.1928 -10.95L85.4991 -11.056L100.524 3.89498C100.384 4.22298 100.238 4.54698 100.088 4.86998L100.094 4.87798ZM100.94 2.90398L86.8115 -11.156L88.1179 -11.263L101.318 1.86497C101.195 2.20964 101.068 2.55198 100.935 2.89198L100.94 2.90398ZM101.68 0.822975C101.794 0.464975 101.906 0.104981 102.008 -0.257019L90.7306 -11.484L89.4242 -11.377L101.676 0.81498L101.68 0.822975ZM102.306 -1.37003C102.401 -1.74869 102.49 -2.12969 102.572 -2.51302L93.3503 -11.689L92.044 -11.582L102.306 -1.36902V-1.37003ZM102.808 -3.68802C102.881 -4.08802 102.944 -4.49702 103.002 -4.90402L95.9681 -11.904L94.6617 -11.797L102.809 -3.68902L102.808 -3.68802ZM103.16 -6.15502C103.206 -6.58502 103.243 -7.01836 103.273 -7.45502L98.5778 -12.125L97.2714 -12.018L103.155 -6.16302L103.16 -6.15502ZM103.341 -8.79002C103.356 -9.25302 103.358 -9.71802 103.356 -10.184L101.192 -12.335L99.8861 -12.228L103.336 -8.79502L103.341 -8.79002ZM103.316 -11.632L102.512 -12.432L103.268 -12.494C103.282 -12.2134 103.296 -11.929 103.31 -11.641L103.316 -11.632Z" fill="#6D6D6D"/>
<path fill-rule="evenodd" clip-rule="evenodd" d="M-14 69.991C-13.2142 70.0357 -12.4217 70.058 -11.6225 70.058C-0.732443 70.0578 9.74234 65.8993 17.642 58.4399C25.5417 50.9806 30.264 40.7891 30.8351 29.967V29.967C30.8733 29.2337 30.8924 28.4953 30.8924 27.752C30.8924 27.201 30.8783 26.652 30.8572 26.104C31.1587 22.075 32.4651 15.904 37.3961 12.695C45.1026 7.66798 53.3517 13.388 53.3517 13.388C58.4249 16.9341 64.3757 19.0328 70.5606 19.4574C76.7456 19.882 82.9296 18.6162 88.4441 15.7969C93.9585 12.9776 98.5938 8.71202 101.849 3.46124C105.104 -1.78953 106.855 -7.82578 106.912 -13.995L-14 -13.995L-14 69.991Z" fill="#676767"/>
<path fill-rule="evenodd" clip-rule="evenodd" d="M-14 31.889C-6.68302 32.1205 0.597831 30.7754 7.34382 27.946C18.9923 23.0873 28.4014 14.0805 33.7322 2.68596C34.3543 1.35596 34.927 -0.0330466 35.5008 -1.42205C37.5056 -6.27505 39.5144 -11.141 43.9128 -14H42.3693C38.4884 -10.974 36.5811 -6.36005 34.6808 -1.75705C34.1161 -0.387046 33.5493 0.981957 32.9263 2.31696C27.6905 13.5129 18.4467 22.363 7.00216 27.137C0.36422 29.9206 -6.80055 31.2416 -14 31.009L-14 31.889ZM60.1819 -13.999C62.2824 -12.7096 64.1339 -11.0562 65.6485 -9.11705L65.6726 -9.08704C69.7332 -3.44815 75.1786 1.06076 81.4888 4.00913C87.799 6.95751 94.7634 8.24692 101.717 7.75425C108.671 7.26157 115.381 5.00326 121.208 1.19495C127.035 -2.61337 131.783 -7.84453 135 -13.999H134.002C130.806 -8.04056 126.135 -2.99245 120.431 0.667286C114.726 4.32702 108.178 6.47724 101.405 6.91434C94.6319 7.35144 87.859 6.06094 81.7274 3.16506C75.5958 0.269183 70.3084 -4.13624 66.366 -9.63404V-9.63404C66.358 -9.64604 66.3489 -9.65705 66.3399 -9.66805C65.0395 -11.326 63.5017 -12.7852 61.7757 -13.999H60.1819Z" fill="#6D6D6D"/>
</g>
</g>
<g style="mix-blend-mode:exclusion">
<g opacity="0.2">
<path fill-rule="evenodd" clip-rule="evenodd" d="M387 52.9999C386.715 53.016 386.43 53.0362 386.144 53.0573L387 53.9151V52.9999ZM384.849 53.1771L387 55.3336V56.7511L383.583 53.3312C384.004 53.2748 384.426 53.2234 384.849 53.1771ZM382.357 53.5174L387 58.1686V59.5861L381.156 53.7319C381.554 53.6547 381.955 53.5832 382.357 53.5174ZM379.983 53.9735C379.598 54.0587 379.215 54.148 378.835 54.2413L387 62.4222V61.0047L379.983 53.9735ZM377.714 54.5362C377.347 54.6376 376.981 54.7436 376.616 54.8544L387 65.2572V63.8397L377.715 54.5362H377.714ZM375.542 55.1967C375.19 55.3135 374.839 55.4349 374.491 55.5611L387 68.0922V66.6737L375.544 55.1967H375.542ZM373.462 55.9467C373.124 56.0809 372.789 56.2152 372.457 56.3494L387 70.9283V69.5107L373.462 55.9467ZM371.465 56.7813C371.14 56.927 370.817 57.0763 370.497 57.2293L387 73.7633V72.3458L371.465 56.7813V56.7813ZM369.547 57.6955C369.235 57.8532 368.925 58.0149 368.618 58.1807L387 76.5983V75.1808L369.547 57.6955V57.6955ZM367.704 58.6851C367.404 58.8549 367.106 59.0287 366.81 59.2066L387 79.4343V78.0158L367.706 58.6861L367.704 58.6851ZM365.933 59.7452L387 80.8508V82.2684L365.074 60.303C365.358 60.1137 365.645 59.9278 365.933 59.7452V59.7452ZM364.232 60.8758L387 83.6879V85.1054L363.405 61.4668C363.679 61.2654 363.954 61.0684 364.231 60.8758H364.232ZM362.597 62.0728L387 86.5249V87.9434L361.803 62.697C362.066 62.4856 362.331 62.2775 362.597 62.0728V62.0728ZM361.027 63.3363L387 89.3589V90.7755L360.27 63.9957C360.52 63.7736 360.774 63.5551 361.03 63.3403L361.027 63.3363ZM359.519 64.6632L387 92.193V93.6115L358.793 65.3518C359.033 65.1203 359.276 64.8911 359.522 64.6642L359.519 64.6632ZM358.077 66.0535L387 95.029V96.4465L357.384 66.7744C357.614 66.5321 357.846 66.2921 358.08 66.0545L358.077 66.0535ZM356.7 67.5083L387 97.864V99.2805L356.037 68.2604C356.257 68.008 356.479 67.7576 356.703 67.5093L356.7 67.5083ZM355.384 69.0265L387 100.699V102.118L354.755 69.8128C354.963 69.5497 355.174 69.2886 355.388 69.0295L355.384 69.0265ZM354.14 70.6111L387 103.539V104.949L353.537 71.4236C353.734 71.1491 353.935 70.8772 354.14 70.6081V70.6111ZM352.955 72.2592L387 106.37V107.788L352.385 73.1079C352.57 72.8226 352.759 72.5397 352.952 72.2592H352.955ZM351.829 73.9727L387 109.209V110.627L351.3 74.8566C351.475 74.5606 351.653 74.2663 351.834 73.9737L351.829 73.9727ZM350.784 75.7526L387 112.041V113.459L350.286 76.6758C350.449 76.3671 350.617 76.061 350.789 75.7577L350.784 75.7526ZM349.806 77.6091L387 114.876V116.295L349.345 78.5716C349.495 78.2514 349.649 77.9329 349.807 77.6161L349.806 77.6091ZM348.902 79.539C348.756 79.8686 348.615 80.2001 348.479 80.5337L387 119.13V117.711L348.904 79.5441L348.902 79.539ZM348.078 81.5526C347.944 81.8962 347.816 82.2415 347.696 82.5885L387 121.963V120.547L348.079 81.5536L348.078 81.5526ZM347.337 83.6466C347.22 84.005 347.108 84.3651 347 84.7269L387 124.8V123.382L347.339 83.6476L347.337 83.6466ZM346.687 85.8303C346.586 86.2058 346.486 86.5803 346.398 86.9588L387 127.636V126.218L346.689 85.8313L346.687 85.8303ZM346.136 88.1136C346.052 88.5062 345.975 88.9009 345.902 89.2975L387 130.471V129.053L346.138 88.1146L346.136 88.1136ZM345.696 90.5087C345.632 90.9214 345.573 91.3352 345.52 91.751L387 133.306V131.888L345.699 90.5107L345.696 90.5087ZM345.375 93.0256C345.333 93.4605 345.295 93.8954 345.265 94.3343L387 136.141V134.724L345.378 93.0245L345.375 93.0256ZM345.196 95.6804C345.179 96.1425 345.169 96.6046 345.166 97.0687L387 138.977V137.559L345.197 95.6784L345.196 95.6804ZM345.177 98.4993C345.177 98.5778 345.177 98.6563 345.177 98.7349C345.19 99.1463 345.207 99.5591 345.231 99.9732L386.888 141.7L387 141.695V140.394L345.181 98.4973L345.177 98.4993ZM345.35 101.508C345.391 101.937 345.437 102.364 345.489 102.788C345.489 102.88 345.489 102.972 345.489 103.066L384.273 141.916L385.579 141.808L345.353 101.506L345.35 101.508ZM345.451 104.449C345.43 104.877 345.4 105.32 345.355 105.772L381.658 142.131L382.964 142.023L345.459 104.445L345.451 104.449ZM345.203 107.037C345.145 107.439 345.076 107.842 344.996 108.245L379.042 142.346L380.349 142.238L345.211 107.035L345.203 107.037ZM344.732 109.399C344.638 109.767 344.532 110.133 344.416 110.5L376.427 142.561L377.733 142.453L344.739 109.397L344.732 109.399ZM344.045 111.546C343.915 111.881 343.773 112.212 343.62 112.539L373.811 142.775L375.117 142.668L344.052 111.544L344.045 111.546ZM343.141 113.477C342.974 113.779 342.797 114.072 342.608 114.361L371.196 142.991L372.502 142.883L343.15 113.475L343.141 113.477ZM342.019 115.188C341.818 115.452 341.603 115.709 341.374 115.96L368.58 143.205L369.887 143.099L342.028 115.186L342.019 115.188ZM340.675 116.676L367.264 143.315L365.958 143.423L339.923 117.332C340.191 117.12 340.444 116.901 340.684 116.675L340.675 116.676ZM339.1 117.935L364.657 143.527L363.351 143.636L338.239 118.477C338.53 118.309 338.822 118.129 339.11 117.933L339.1 117.935ZM337.299 118.967L362.041 143.744L360.734 143.852L336.315 119.387C336.648 119.265 336.981 119.126 337.312 118.969L337.299 118.967ZM335.232 119.732L359.426 143.958L358.119 144.066L334.089 119.992C334.471 119.924 334.856 119.837 335.242 119.73L335.232 119.732ZM332.83 120.16L356.811 144.174L355.505 144.282L331.479 120.213C331.924 120.213 332.383 120.198 332.839 120.158L332.83 120.16ZM329.975 120.134L354.195 144.389L352.889 144.497L328.314 119.881C328.844 119.986 329.401 120.074 329.981 120.132L329.975 120.134ZM326.411 119.4L351.58 144.604L350.273 144.711L324.146 118.531C324.887 118.868 325.648 119.157 326.425 119.398L326.411 119.4ZM321.129 116.929L348.965 144.816L347.659 144.924L318.538 115.754C319.419 116.113 320.283 116.506 321.129 116.933V116.929ZM316.299 114.925L346.345 145.027L345.039 145.134L314.285 114.329C314.963 114.509 315.633 114.71 316.295 114.933L316.299 114.925ZM312.431 113.886L343.732 145.248L342.426 145.356L310.702 113.573C311.283 113.664 311.86 113.769 312.432 113.889L312.431 113.886ZM309.069 113.353C308.555 113.297 308.038 113.252 307.519 113.218L339.809 145.571L341.116 145.463L309.07 113.357L309.069 113.353ZM306.04 113.152C305.571 113.141 305.098 113.141 304.621 113.152L337.194 145.787L338.5 145.679L306.042 113.161L306.04 113.152ZM303.254 113.196C302.927 113.213 302.6 113.236 302.273 113.263C302.16 113.272 302.05 113.285 301.937 113.296L334.579 146.002L335.885 145.894L303.255 113.204L303.254 113.196ZM300.661 113.434C300.246 113.487 299.834 113.547 299.424 113.614L331.963 146.217L333.27 146.109L300.661 113.439V113.434ZM298.226 113.83C297.836 113.909 297.447 113.99 297.061 114.082L329.347 146.427L330.654 146.319L298.227 113.835L298.226 113.83ZM295.93 114.366C295.561 114.465 295.195 114.57 294.831 114.681L326.732 146.646L328.038 146.539L295.931 114.371L295.93 114.366ZM293.758 115.026C293.408 115.144 293.06 115.268 292.713 115.397L324.117 146.862L325.423 146.754L293.758 115.031V115.026ZM291.698 115.797C291.363 115.932 291.033 116.073 290.707 116.222L321.5 147.076L322.807 146.969L291.699 115.802L291.698 115.797ZM289.74 116.671C289.422 116.824 289.108 116.981 288.796 117.142L318.886 147.292L320.192 147.184L289.744 116.679L289.74 116.671ZM287.877 117.64C287.576 117.809 287.277 117.982 286.98 118.16L316.271 147.507L317.577 147.399L287.879 117.645L287.877 117.64ZM286.106 118.701C285.819 118.885 285.533 119.071 285.252 119.263L313.655 147.722L314.961 147.614L286.109 118.705L286.106 118.701ZM284.418 119.846C284.145 120.047 283.875 120.248 283.607 120.45L311.04 147.934L312.347 147.827L284.42 119.849L284.418 119.846ZM282.816 121.077L309.732 148.045L308.426 148.153L282.049 121.727C282.303 121.508 282.559 121.292 282.82 121.081L282.816 121.077ZM281.294 122.386L307.111 148.259L305.805 148.367L280.564 123.07C280.804 122.839 281.048 122.611 281.296 122.387L281.294 122.386ZM279.851 123.775L304.499 148.475L303.192 148.582L279.161 124.507C279.388 124.262 279.619 124.02 279.853 123.781L279.851 123.775ZM278.489 125.246L301.886 148.689L300.579 148.797L277.84 126.016C278.054 125.758 278.271 125.504 278.493 125.252L278.489 125.246ZM277.205 126.794L299.273 148.905L297.967 149.012L276.594 127.601C276.795 127.332 276.999 127.064 277.207 126.795L277.205 126.794ZM275.999 128.425L296.649 149.114L295.343 149.222L275.43 129.273C275.616 128.988 275.806 128.705 275.999 128.425ZM274.88 130.137L294.034 149.325L292.727 149.433L274.352 131.034C274.524 130.735 274.7 130.439 274.88 130.145V130.137ZM273.846 131.936L291.424 149.548L290.118 149.656L273.372 132.879C273.529 132.565 273.688 132.252 273.853 131.944L273.846 131.936ZM272.906 133.829L288.807 149.764L287.501 149.871L272.476 134.819C272.616 134.489 272.762 134.163 272.912 133.837L272.906 133.829ZM272.06 135.817L286.188 149.972L284.882 150.079L271.682 136.863C271.804 136.516 271.932 136.171 272.065 135.829L272.06 135.817ZM271.32 137.912C271.206 138.272 271.094 138.635 270.992 138.999L282.269 150.302L283.576 150.194L271.324 137.92L271.32 137.912ZM270.694 140.12C270.599 140.501 270.51 140.884 270.428 141.27L279.65 150.508L280.956 150.401L270.694 140.119V140.12ZM270.192 142.453C270.119 142.856 270.056 143.268 269.998 143.677L277.032 150.725L278.338 150.617L270.191 142.454L270.192 142.453ZM269.84 144.937C269.794 145.37 269.757 145.806 269.727 146.246L274.422 150.947L275.729 150.84L269.845 144.945L269.84 144.937ZM269.659 147.59C269.644 148.056 269.642 148.524 269.644 148.993L271.807 151.159L273.114 151.051L269.664 147.595L269.659 147.59ZM269.684 150.451L270.488 151.256L269.732 151.319C269.718 151.036 269.704 150.75 269.69 150.46L269.684 150.451Z" fill="#6D6D6D"/>
<path fill-rule="evenodd" clip-rule="evenodd" d="M387 68.2764C386.214 68.2315 385.422 68.209 384.622 68.209C373.732 68.2092 363.258 72.3958 355.358 79.9055C347.458 87.4153 342.736 97.6756 342.165 108.571V108.571C342.127 109.309 342.108 110.052 342.108 110.801C342.108 111.356 342.122 111.908 342.143 112.46C341.841 116.516 340.535 122.729 335.604 125.96C327.897 131.021 319.648 125.262 319.648 125.262C314.575 121.692 308.624 119.579 302.439 119.151C296.254 118.724 290.07 119.998 284.556 122.837C279.041 125.675 274.406 129.969 271.151 135.256C267.896 140.542 266.145 146.619 266.088 152.83H387V68.2764Z" fill="#676767"/>
<path fill-rule="evenodd" clip-rule="evenodd" d="M387 106.636C379.683 106.403 372.402 107.757 365.656 110.606C354.008 115.497 344.599 124.565 339.268 136.036C338.646 137.375 338.073 138.774 337.499 140.172C335.494 145.058 333.486 149.957 329.087 152.835H330.631C334.512 149.788 336.419 145.143 338.319 140.509C338.884 139.13 339.451 137.752 340.074 136.408C345.31 125.136 354.553 116.226 365.998 111.42C372.636 108.617 379.801 107.288 387 107.522V106.636ZM312.818 152.834C310.718 151.536 308.866 149.871 307.351 147.919L307.327 147.889C303.267 142.212 297.821 137.672 291.511 134.704C285.201 131.736 278.237 130.438 271.283 130.934C264.329 131.43 257.619 133.703 251.792 137.537C245.965 141.371 241.217 146.638 238 152.834H238.998C242.194 146.835 246.865 141.753 252.569 138.068C258.274 134.384 264.822 132.219 271.595 131.779C278.368 131.339 285.141 132.638 291.273 135.554C297.404 138.469 302.692 142.904 306.634 148.439V148.439C306.642 148.451 306.651 148.463 306.66 148.474C307.961 150.143 309.498 151.612 311.224 152.834H312.818Z" fill="#6D6D6D"/>
</g>
</g>
<g filter="url(#filter0_d_8_662)">
<circle cx="187" cy="82" r="34" fill="#223F99"/>
<circle cx="187" cy="82" r="36" stroke="#FFCB57" stroke-width="4"/>
</g>
<path d="M167.859 102H174.184V61.905H162.744V67.625H167.859V102ZM182.797 81.43C182.797 93.09 185.877 101.89 197.097 101.89C208.317 101.89 211.397 93.09 211.397 81.43C211.397 69.99 208.317 61.19 197.097 61.19C185.877 61.19 182.797 69.99 182.797 81.43ZM205.237 81.43C205.237 89.295 204.412 96.17 197.097 96.17C189.782 96.17 188.957 89.295 188.957 81.43C188.957 73.95 189.782 66.91 197.097 66.91C204.412 66.91 205.237 73.95 205.237 81.43Z" fill="#FFCB57"/>
<path d="M167.859 102H166.859V103H167.859V102ZM174.184 102V103H175.184V102H174.184ZM174.184 61.905H175.184V60.905H174.184V61.905ZM162.744 61.905V60.905H161.744V61.905H162.744ZM162.744 67.625H161.744V68.625H162.744V67.625ZM167.859 67.625H168.859V66.625H167.859V67.625ZM167.859 103H174.184V101H167.859V103ZM175.184 102V61.905H173.184V102H175.184ZM174.184 60.905H162.744V62.905H174.184V60.905ZM161.744 61.905V67.625H163.744V61.905H161.744ZM162.744 68.625H167.859V66.625H162.744V68.625ZM166.859 67.625V102H168.859V67.625H166.859ZM181.797 81.43C181.797 87.3098 182.566 92.6484 184.88 96.5432C187.25 100.533 191.17 102.89 197.097 102.89V100.89C191.805 100.89 188.574 98.8468 186.599 95.5218C184.568 92.1016 183.797 87.2102 183.797 81.43H181.797ZM197.097 102.89C203.025 102.89 206.944 100.533 209.314 96.5432C211.628 92.6484 212.397 87.3098 212.397 81.43H210.397C210.397 87.2102 209.626 92.1016 207.595 95.5218C205.62 98.8468 202.39 100.89 197.097 100.89V102.89ZM212.397 81.43C212.397 75.6579 211.627 70.3738 209.313 66.5065C206.942 62.5459 203.024 60.19 197.097 60.19V62.19C202.39 62.19 205.622 64.2341 207.597 67.5335C209.627 70.9262 210.397 75.7621 210.397 81.43H212.397ZM197.097 60.19C191.17 60.19 187.252 62.5459 184.882 66.5065C182.567 70.3738 181.797 75.6579 181.797 81.43H183.797C183.797 75.7621 184.567 70.9262 186.598 67.5335C188.572 64.2341 191.804 62.19 197.097 62.19V60.19ZM204.237 81.43C204.237 85.376 204.021 88.8715 202.986 91.3663C202.48 92.5885 201.795 93.5196 200.885 94.1513C199.978 94.7805 198.764 95.17 197.097 95.17V97.17C199.087 97.17 200.72 96.7001 202.025 95.7945C203.327 94.8914 204.22 93.6121 204.834 92.1325C206.04 89.2235 206.237 85.349 206.237 81.43H204.237ZM197.097 95.17C195.43 95.17 194.216 94.7805 193.309 94.1513C192.399 93.5196 191.715 92.5885 191.208 91.3663C190.173 88.8715 189.957 85.376 189.957 81.43H187.957C187.957 85.349 188.154 89.2235 189.36 92.1325C189.974 93.6121 190.868 94.8914 192.169 95.7945C193.474 96.7001 195.107 97.17 197.097 97.17V95.17ZM189.957 81.43C189.957 77.6807 190.172 74.238 191.207 71.7489C191.715 70.5278 192.401 69.5865 193.314 68.9452C194.222 68.3074 195.435 67.91 197.097 67.91V65.91C195.102 65.91 193.468 66.3926 192.164 67.3086C190.865 68.221 189.973 69.5072 189.361 70.9811C188.154 73.882 187.957 77.6993 187.957 81.43H189.957ZM197.097 67.91C198.76 67.91 199.972 68.3074 200.88 68.9452C201.793 69.5865 202.479 70.5278 202.987 71.7489C204.022 74.238 204.237 77.6807 204.237 81.43H206.237C206.237 77.6993 206.04 73.882 204.834 70.9811C204.221 69.5072 203.329 68.221 202.03 67.3086C200.726 66.3926 199.092 65.91 197.097 65.91V67.91Z" fill="white"/>
<path d="M225.231 37.5045L224.236 35.0865C224.925 34.8525 225.556 34.5795 226.128 34.2675C226.713 33.9555 227.22 33.611 227.649 33.234C228.078 32.857 228.409 32.4475 228.643 32.0055C228.877 31.5505 228.994 31.063 228.994 30.543C228.994 29.997 228.871 29.399 228.624 28.749C228.377 28.099 228.078 27.436 227.727 26.76L230.281 25.5315C230.515 25.9345 230.717 26.37 230.886 26.838C231.068 27.293 231.217 27.7025 231.334 28.0665C231.451 28.4305 231.529 28.6775 231.568 28.8075C231.75 29.4315 231.997 29.8475 232.309 30.0555C232.634 30.2635 233.154 30.3675 233.869 30.3675C234.363 30.3675 234.714 30.4975 234.922 30.7575C235.143 31.0045 235.254 31.3165 235.254 31.6935C235.254 32.0965 235.117 32.4345 234.844 32.7075C234.571 32.9675 234.181 33.0975 233.674 33.0975C233.141 33.0975 232.673 33.0195 232.27 32.8635C231.867 32.7075 231.542 32.48 231.295 32.181C231.061 31.882 230.912 31.531 230.847 31.128L231.568 31.5375C231.49 32.2265 231.263 32.8765 230.886 33.4875C230.522 34.1115 230.047 34.6835 229.462 35.2035C228.877 35.7235 228.221 36.1785 227.493 36.5685C226.765 36.9585 226.011 37.2705 225.231 37.5045ZM233.698 33.0975L233.893 30.3675C234.322 30.3675 234.673 30.335 234.946 30.27C235.219 30.192 235.44 30.0295 235.609 29.7825C235.791 29.5225 235.947 29.139 236.077 28.632C236.22 28.112 236.376 27.41 236.545 26.526L239.08 26.994C239.041 27.189 238.995 27.4165 238.943 27.6765C238.891 27.9365 238.846 28.203 238.807 28.476C238.768 28.736 238.748 28.97 238.748 29.178C238.748 29.542 238.865 29.8345 239.099 30.0555C239.333 30.2635 239.775 30.3675 240.425 30.3675C240.75 30.3675 241.03 30.335 241.264 30.27C241.511 30.192 241.719 30.0295 241.888 29.7825C242.07 29.5225 242.226 29.126 242.356 28.593C242.499 28.047 242.635 27.3125 242.765 26.3895L245.339 26.799C245.287 27.098 245.235 27.4165 245.183 27.7545C245.131 28.0925 245.086 28.4045 245.047 28.6905C245.008 28.9765 244.988 29.2105 244.988 29.3925C244.988 29.5615 245.034 29.724 245.125 29.88C245.229 30.023 245.411 30.14 245.671 30.231C245.944 30.322 246.327 30.3675 246.821 30.3675C247.172 30.3675 247.471 30.322 247.718 30.231C247.978 30.14 248.173 29.9905 248.303 29.7825C248.446 29.5745 248.518 29.3015 248.518 28.9635C248.518 28.4825 248.407 27.852 248.186 27.072C247.965 26.292 247.705 25.473 247.406 24.615L250.156 23.796C250.364 24.355 250.546 24.953 250.702 25.59C250.871 26.214 251.001 26.825 251.092 27.423C251.196 28.008 251.248 28.5215 251.248 28.9635C251.248 29.6265 251.144 30.218 250.936 30.738C250.728 31.245 250.435 31.674 250.058 32.025C249.681 32.376 249.233 32.6425 248.713 32.8245C248.193 33.0065 247.621 33.0975 246.997 33.0975C246.243 33.0975 245.625 33.026 245.144 32.883C244.663 32.727 244.293 32.4735 244.033 32.1225C243.786 31.7585 243.623 31.2645 243.545 30.6405H244.208C243.935 31.4075 243.63 31.9665 243.292 32.3175C242.954 32.6555 242.551 32.87 242.083 32.961C241.628 33.052 241.056 33.0975 240.367 33.0975C239.938 33.0975 239.496 33.052 239.041 32.961C238.599 32.857 238.202 32.623 237.851 32.259C237.5 31.895 237.24 31.3295 237.071 30.5625L238.124 30.5235C237.851 31.2905 237.494 31.856 237.052 32.22C236.623 32.584 236.129 32.8245 235.57 32.9415C235.011 33.0455 234.387 33.0975 233.698 33.0975ZM243.896 21.027C243.571 21.027 243.285 20.9035 243.038 20.6565C242.804 20.4095 242.687 20.117 242.687 19.779C242.687 19.441 242.804 19.155 243.038 18.921C243.285 18.687 243.571 18.57 243.896 18.57C244.234 18.57 244.52 18.687 244.754 18.921C244.988 19.155 245.105 19.441 245.105 19.779C245.105 20.117 244.988 20.4095 244.754 20.6565C244.52 20.9035 244.234 21.027 243.896 21.027ZM242.336 23.601C242.011 23.601 241.725 23.4775 241.478 23.2305C241.244 22.9835 241.127 22.691 241.127 22.353C241.127 22.015 241.244 21.729 241.478 21.495C241.725 21.261 242.011 21.144 242.336 21.144C242.674 21.144 242.96 21.261 243.194 21.495C243.428 21.729 243.545 22.015 243.545 22.353C243.545 22.691 243.428 22.9835 243.194 23.2305C242.96 23.4775 242.674 23.601 242.336 23.601ZM245.359 23.601C245.034 23.601 244.748 23.4775 244.501 23.2305C244.267 22.9835 244.15 22.691 244.15 22.353C244.15 22.015 244.267 21.729 244.501 21.495C244.748 21.261 245.034 21.144 245.359 21.144C245.697 21.144 245.983 21.261 246.217 21.495C246.451 21.729 246.568 22.015 246.568 22.353C246.568 22.691 246.451 22.9835 246.217 23.2305C245.983 23.4775 245.697 23.601 245.359 23.601ZM258.408 33.0975C257.199 33.0975 256.263 32.974 255.6 32.727C254.95 32.48 254.495 32.0965 254.235 31.5765C253.975 31.0435 253.826 30.374 253.787 29.568L253.377 18.726H256.107L256.517 28.2615C256.543 28.8595 256.608 29.308 256.712 29.607C256.816 29.906 257.011 30.1075 257.297 30.2115C257.596 30.3155 258.031 30.3675 258.603 30.3675C259.097 30.3675 259.448 30.4975 259.656 30.7575C259.877 31.0045 259.988 31.3165 259.988 31.6935C259.988 32.0965 259.851 32.4345 259.578 32.7075C259.305 32.9675 258.915 33.0975 258.408 33.0975ZM258.357 33.0975L258.552 30.3675C259.462 30.3675 260.281 30.309 261.009 30.192C261.737 30.062 262.374 29.893 262.92 29.685C263.479 29.477 263.94 29.2365 264.304 28.9635C264.681 28.6905 264.961 28.4045 265.143 28.1055C265.338 27.7935 265.435 27.488 265.435 27.189C265.435 27.02 265.39 26.864 265.299 26.721C265.221 26.565 265.084 26.4415 264.889 26.3505C264.694 26.2465 264.428 26.1945 264.09 26.1945C263.921 26.1945 263.719 26.214 263.485 26.253C263.251 26.292 263.017 26.3505 262.783 26.4285C262.549 26.4935 262.328 26.5845 262.12 26.7015C262.393 26.9095 262.692 27.176 263.017 27.501C263.342 27.813 263.667 28.1445 263.992 28.4955C264.317 28.8335 264.597 29.165 264.831 29.49C265.104 29.607 265.403 29.724 265.728 29.841C266.066 29.945 266.43 30.036 266.82 30.114C267.21 30.192 267.619 30.257 268.048 30.309C268.477 30.348 268.919 30.3675 269.374 30.3675C269.868 30.3675 270.219 30.4975 270.427 30.7575C270.648 31.0045 270.759 31.3165 270.759 31.6935C270.759 32.0965 270.622 32.4345 270.349 32.7075C270.076 32.9675 269.686 33.0975 269.179 33.0975C268.139 33.0975 267.216 33.0195 266.41 32.8635C265.604 32.6945 264.883 32.454 264.246 32.142C263.622 31.817 263.037 31.427 262.491 30.972C262.335 30.699 262.114 30.4065 261.828 30.0945C261.555 29.7695 261.262 29.4575 260.95 29.1585C260.651 28.8595 260.378 28.6125 260.131 28.4175C260.066 28.3655 259.988 28.229 259.897 28.008C259.819 27.774 259.748 27.5335 259.683 27.2865C259.618 27.0265 259.585 26.8445 259.585 26.7405C259.585 26.4415 259.722 26.123 259.995 25.785C260.281 25.447 260.658 25.135 261.126 24.849C261.607 24.55 262.133 24.3095 262.705 24.1275C263.29 23.9325 263.882 23.835 264.48 23.835C265.286 23.835 265.955 23.9585 266.488 24.2055C267.034 24.4395 267.444 24.771 267.717 25.2C267.99 25.616 268.126 26.1035 268.126 26.6625C268.126 27.2865 267.99 27.9105 267.717 28.5345C267.444 29.1455 267.041 29.724 266.508 30.27C265.988 30.816 265.331 31.3035 264.538 31.7325C263.758 32.1485 262.848 32.48 261.808 32.727C260.781 32.974 259.631 33.0975 258.357 33.0975ZM269.194 33.0975L269.389 30.3675C269.987 30.3675 270.416 30.309 270.676 30.192C270.936 30.062 271.092 29.828 271.144 29.49C271.196 29.139 271.209 28.632 271.183 27.969L270.832 18.726H273.581L273.971 28.164C273.997 28.918 273.965 29.6005 273.874 30.2115C273.796 30.8095 273.594 31.323 273.269 31.752C272.957 32.181 272.47 32.5125 271.807 32.7465C271.157 32.9805 270.286 33.0975 269.194 33.0975ZM276.543 33L276.133 18.726H278.863L279.273 33H276.543ZM284.135 32.454C284.135 32.155 284.161 31.804 284.213 31.401C284.265 30.998 284.363 30.543 284.506 30.036C284.649 29.516 284.863 28.9375 285.149 28.3005L287.548 29.139C287.405 29.542 287.281 29.9125 287.177 30.2505C287.073 30.5755 286.995 30.881 286.943 31.167C286.891 31.44 286.865 31.713 286.865 31.986C286.865 32.376 286.95 32.74 287.119 33.078C287.288 33.416 287.541 33.7085 287.879 33.9555C288.217 34.2155 288.633 34.417 289.127 34.56C289.634 34.703 290.219 34.7745 290.882 34.7745C291.636 34.7745 292.299 34.703 292.871 34.56C293.456 34.43 293.944 34.2545 294.334 34.0335C294.737 33.8255 295.042 33.6045 295.25 33.3705C295.458 33.1365 295.562 32.922 295.562 32.727C295.562 32.571 295.452 32.4345 295.231 32.3175C295.023 32.2005 294.743 32.0835 294.392 31.9665C294.054 31.8365 293.69 31.6935 293.3 31.5375C292.923 31.3815 292.559 31.1865 292.208 30.9525C291.87 30.7185 291.591 30.4325 291.37 30.0945C291.162 29.7565 291.058 29.347 291.058 28.866C291.058 28.372 291.188 27.8325 291.448 27.2475C291.708 26.6495 292.078 26.084 292.559 25.551C293.04 25.005 293.612 24.563 294.275 24.225C294.951 23.874 295.692 23.6985 296.498 23.6985C297.07 23.6985 297.59 23.7895 298.058 23.9715C298.539 24.1535 298.942 24.3615 299.267 24.5955L298.253 26.877C297.98 26.695 297.688 26.5585 297.376 26.4675C297.064 26.3635 296.765 26.3115 296.479 26.3115C296.115 26.3115 295.764 26.383 295.426 26.526C295.101 26.669 294.808 26.8575 294.548 27.0915C294.301 27.3125 294.106 27.553 293.963 27.813C293.82 28.073 293.749 28.32 293.749 28.554C293.749 28.788 293.859 28.996 294.08 29.178C294.314 29.347 294.613 29.5095 294.977 29.6655C295.341 29.8085 295.725 29.958 296.128 30.114C296.531 30.27 296.914 30.4455 297.278 30.6405C297.642 30.8355 297.935 31.0695 298.156 31.3425C298.39 31.6155 298.507 31.947 298.507 32.337C298.507 32.896 298.331 33.4745 297.98 34.0725C297.642 34.6835 297.135 35.249 296.459 35.769C295.783 36.289 294.951 36.705 293.963 37.017C292.988 37.342 291.857 37.5045 290.57 37.5045C289.634 37.5045 288.776 37.394 287.996 37.173C287.216 36.965 286.534 36.6465 285.949 36.2175C285.377 35.8015 284.928 35.275 284.603 34.638C284.291 34.014 284.135 33.286 284.135 32.454ZM300.755 37.485L300.19 34.755C301.113 34.638 301.919 34.495 302.608 34.326C303.297 34.17 303.875 33.949 304.343 33.663C304.811 33.377 305.162 32.987 305.396 32.493C305.63 31.986 305.747 31.336 305.747 30.543C305.747 29.776 305.63 29.165 305.396 28.71C305.162 28.255 304.85 28.0275 304.46 28.0275C304.187 28.0275 303.96 28.125 303.778 28.32C303.596 28.502 303.459 28.723 303.368 28.983C303.29 29.23 303.251 29.451 303.251 29.646C303.251 29.763 303.284 29.8865 303.349 30.0165C303.414 30.1465 303.557 30.257 303.778 30.348C303.999 30.439 304.343 30.491 304.811 30.504C305.292 30.517 305.942 30.4715 306.761 30.3675H310.037C310.531 30.3675 310.882 30.4975 311.09 30.7575C311.311 31.0045 311.422 31.3165 311.422 31.6935C311.422 32.0965 311.285 32.4345 311.012 32.7075C310.739 32.9675 310.349 33.0975 309.842 33.0975H304.48C303.661 33.0975 302.959 33 302.374 32.805C301.789 32.61 301.34 32.298 301.028 31.869C300.716 31.427 300.56 30.842 300.56 30.114C300.56 29.529 300.658 28.944 300.853 28.359C301.061 27.774 301.347 27.241 301.711 26.76C302.075 26.266 302.497 25.876 302.978 25.59C303.472 25.291 304.005 25.1415 304.577 25.1415C305.357 25.1415 306.04 25.382 306.625 25.863C307.21 26.344 307.665 26.981 307.99 27.774C308.328 28.567 308.497 29.4315 308.497 30.3675C308.497 31.8365 308.185 33.0845 307.561 34.1115C306.937 35.1385 306.046 35.9315 304.889 36.4905C303.732 37.0625 302.354 37.394 300.755 37.485ZM309.87 33.0975L310.065 30.3675C310.533 30.3675 310.936 30.322 311.274 30.231C311.612 30.14 311.898 29.958 312.132 29.685C312.366 29.399 312.561 28.983 312.717 28.437C312.886 27.891 313.035 27.163 313.165 26.253L315.72 26.682C315.694 26.877 315.655 27.1045 315.603 27.3645C315.564 27.6245 315.525 27.891 315.486 28.164C315.46 28.424 315.447 28.671 315.447 28.905C315.447 29.139 315.492 29.347 315.583 29.529C315.674 29.711 315.817 29.867 316.012 29.997C316.22 30.114 316.487 30.205 316.812 30.27C317.15 30.335 317.559 30.3675 318.04 30.3675C318.534 30.3675 318.885 30.4975 319.093 30.7575C319.301 31.0045 319.405 31.3165 319.405 31.6935C319.405 32.0965 319.269 32.4345 318.996 32.7075C318.736 32.9675 318.352 33.0975 317.845 33.0975C317.26 33.0975 316.727 33.052 316.246 32.961C315.778 32.87 315.369 32.7205 315.018 32.5125C314.68 32.2915 314.4 32.0055 314.179 31.6545C313.971 31.2905 313.841 30.8485 313.789 30.3285H314.725C314.491 30.9525 314.192 31.453 313.828 31.83C313.477 32.194 313.081 32.467 312.639 32.649C312.197 32.831 311.735 32.948 311.254 33C310.786 33.065 310.325 33.0975 309.87 33.0975ZM316.129 24.498C315.752 24.498 315.427 24.368 315.154 24.108C314.894 23.835 314.764 23.5165 314.764 23.1525C314.764 22.7755 314.894 22.4505 315.154 22.1775C315.427 21.9045 315.752 21.768 316.129 21.768C316.493 21.768 316.805 21.9045 317.065 22.1775C317.325 22.4505 317.455 22.7755 317.455 23.1525C317.455 23.5165 317.325 23.835 317.065 24.108C316.805 24.368 316.493 24.498 316.129 24.498ZM312.756 24.4785C312.379 24.4785 312.054 24.3485 311.781 24.0885C311.521 23.8155 311.391 23.497 311.391 23.133C311.391 22.756 311.521 22.431 311.781 22.158C312.054 21.885 312.379 21.7485 312.756 21.7485C313.12 21.7485 313.432 21.885 313.692 22.158C313.952 22.431 314.082 22.756 314.082 23.133C314.082 23.497 313.952 23.8155 313.692 24.0885C313.432 24.3485 313.12 24.4785 312.756 24.4785ZM317.849 33.0975L318.044 30.3675C318.473 30.3675 318.824 30.335 319.097 30.27C319.37 30.192 319.591 30.0295 319.76 29.7825C319.942 29.5225 320.098 29.139 320.228 28.632C320.371 28.112 320.527 27.41 320.696 26.526L323.231 26.994C323.179 27.28 323.107 27.6375 323.016 28.0665C322.938 28.4955 322.899 28.866 322.899 29.178C322.899 29.425 322.945 29.6395 323.036 29.8215C323.14 29.9905 323.309 30.127 323.543 30.231C323.79 30.322 324.128 30.3675 324.557 30.3675C324.895 30.3675 325.181 30.335 325.415 30.27C325.662 30.192 325.87 30.0295 326.039 29.7825C326.221 29.5225 326.377 29.126 326.507 28.593C326.65 28.047 326.786 27.3125 326.916 26.3895L329.49 26.799C329.438 27.098 329.386 27.4165 329.334 27.7545C329.282 28.0925 329.237 28.4045 329.198 28.6905C329.159 28.9765 329.139 29.2105 329.139 29.3925C329.139 29.5615 329.185 29.724 329.276 29.88C329.38 30.023 329.562 30.14 329.822 30.231C330.095 30.322 330.472 30.3675 330.953 30.3675C331.538 30.3675 331.967 30.244 332.24 29.997C332.526 29.737 332.669 29.347 332.669 28.827C332.669 28.528 332.662 28.2095 332.649 27.8715C332.636 27.5205 332.61 27.1305 332.571 26.7015C332.545 26.2595 332.493 25.759 332.415 25.2L334.931 25.005C335.022 26.123 335.126 27.033 335.243 27.735C335.36 28.437 335.516 28.983 335.711 29.373C335.919 29.75 336.192 30.01 336.53 30.153C336.881 30.296 337.336 30.3675 337.895 30.3675C338.389 30.3675 338.74 30.4975 338.948 30.7575C339.169 31.0045 339.279 31.3165 339.279 31.6935C339.279 32.0965 339.143 32.4345 338.87 32.7075C338.61 32.9675 338.22 33.0975 337.7 33.0975C337.349 33.0975 336.985 33.065 336.608 33C336.231 32.948 335.867 32.8375 335.516 32.6685C335.165 32.4865 334.853 32.2265 334.58 31.8885C334.307 31.5505 334.092 31.102 333.936 30.543L334.287 30.66C334.105 31.31 333.858 31.8105 333.546 32.1615C333.234 32.5125 332.851 32.7595 332.396 32.9025C331.941 33.0325 331.395 33.0975 330.758 33.0975C330.173 33.0975 329.653 33.0195 329.198 32.8635C328.743 32.7075 328.379 32.454 328.106 32.103C327.846 31.739 327.709 31.2515 327.696 30.6405H328.359C328.099 31.3685 327.8 31.908 327.462 32.259C327.124 32.61 326.715 32.8375 326.234 32.9415C325.753 33.0455 325.148 33.0975 324.42 33.0975C323.978 33.0975 323.543 33.052 323.114 32.961C322.685 32.857 322.301 32.6295 321.963 32.2785C321.625 31.9145 321.378 31.3425 321.222 30.5625L322.275 30.5235C322.002 31.2905 321.645 31.856 321.203 32.22C320.774 32.584 320.28 32.8245 319.721 32.9415C319.162 33.0455 318.538 33.0975 317.849 33.0975ZM337.71 33.0975L337.905 30.3675C338.23 30.3675 338.477 30.3025 338.646 30.1725C338.815 30.0425 338.984 29.815 339.153 29.49C339.322 29.165 339.556 28.723 339.855 28.164C340.18 27.54 340.518 27.02 340.869 26.604C341.22 26.175 341.571 25.837 341.922 25.59C342.286 25.33 342.644 25.148 342.995 25.044C343.359 24.927 343.716 24.8685 344.067 24.8685C344.548 24.8685 344.997 24.9725 345.413 25.1805C345.842 25.3755 346.251 25.72 346.641 26.214C347.031 26.695 347.402 27.358 347.753 28.203C348 28.788 348.247 29.2365 348.494 29.5485C348.741 29.8605 348.994 30.075 349.254 30.192C349.527 30.309 349.8 30.3675 350.073 30.3675C350.567 30.3675 350.918 30.4975 351.126 30.7575C351.334 31.0045 351.438 31.3165 351.438 31.6935C351.438 32.0965 351.302 32.4345 351.029 32.7075C350.756 32.9675 350.372 33.0975 349.878 33.0975C349.241 33.0975 348.663 32.9935 348.143 32.7855C347.623 32.5775 347.213 32.2655 346.914 31.8495L347.48 31.4205C347.363 31.6935 347.187 31.9795 346.953 32.2785C346.732 32.5775 346.44 32.831 346.076 33.039C345.725 33.247 345.302 33.351 344.808 33.351C344.483 33.351 344.1 33.286 343.658 33.156C343.229 33.039 342.78 32.8375 342.312 32.5515C341.857 32.2525 341.435 31.8495 341.045 31.3425C340.798 31.7975 340.525 32.155 340.226 32.415C339.927 32.662 339.576 32.8375 339.173 32.9415C338.77 33.0455 338.282 33.0975 337.71 33.0975ZM342.176 29.0415C342.306 29.2365 342.462 29.4315 342.644 29.6265C342.826 29.8215 343.027 29.997 343.248 30.153C343.469 30.296 343.703 30.413 343.95 30.504C344.21 30.595 344.464 30.6405 344.711 30.6405C344.971 30.6405 345.185 30.543 345.354 30.348C345.523 30.14 345.53 29.8345 345.374 29.4315C345.309 29.2625 345.218 29.074 345.101 28.866C344.997 28.645 344.873 28.437 344.73 28.242C344.6 28.047 344.451 27.8845 344.282 27.7545C344.126 27.6245 343.963 27.5595 343.794 27.5595C343.625 27.5595 343.45 27.6115 343.268 27.7155C343.086 27.8195 342.904 27.982 342.722 28.203C342.54 28.411 342.358 28.6905 342.176 29.0415ZM349.879 33.0975L350.074 30.3675C350.672 30.3675 351.101 30.309 351.361 30.192C351.621 30.062 351.777 29.828 351.829 29.49C351.881 29.139 351.894 28.632 351.868 27.969L351.517 18.726H354.266L354.656 28.164C354.682 28.918 354.65 29.6005 354.559 30.2115C354.481 30.8095 354.279 31.323 353.954 31.752C353.642 32.181 353.155 32.5125 352.492 32.7465C351.842 32.9805 350.971 33.0975 349.879 33.0975ZM357.228 33L356.818 18.726H359.548L359.958 33H357.228Z" fill="#223F99"/>
<path d="M19.74 102.9V106.02H15.98V117H12.06V106.02H8.34V102.9H19.74ZM31.9103 111.26C31.9103 111.567 31.8903 111.873 31.8503 112.18H24.4303C24.4703 112.793 24.637 113.253 24.9303 113.56C25.237 113.853 25.6236 114 26.0903 114C26.7436 114 27.2103 113.707 27.4903 113.12H31.6703C31.497 113.893 31.157 114.587 30.6503 115.2C30.157 115.8 29.5303 116.273 28.7703 116.62C28.0103 116.967 27.1703 117.14 26.2503 117.14C25.1436 117.14 24.157 116.907 23.2903 116.44C22.437 115.973 21.7636 115.307 21.2703 114.44C20.7903 113.573 20.5503 112.553 20.5503 111.38C20.5503 110.207 20.7903 109.193 21.2703 108.34C21.7503 107.473 22.417 106.807 23.2703 106.34C24.137 105.873 25.1303 105.64 26.2503 105.64C27.357 105.64 28.337 105.867 29.1903 106.32C30.0436 106.773 30.7103 107.427 31.1903 108.28C31.6703 109.12 31.9103 110.113 31.9103 111.26ZM27.9103 110.28C27.9103 109.8 27.7503 109.427 27.4303 109.16C27.1103 108.88 26.7103 108.74 26.2303 108.74C25.7503 108.74 25.357 108.873 25.0503 109.14C24.7436 109.393 24.5436 109.773 24.4503 110.28H27.9103ZM40.8545 105.68C42.1479 105.68 43.1745 106.113 43.9345 106.98C44.6945 107.833 45.0745 108.993 45.0745 110.46V117H41.1545V110.98C41.1545 110.34 40.9879 109.84 40.6545 109.48C40.3212 109.107 39.8745 108.92 39.3145 108.92C38.7279 108.92 38.2679 109.107 37.9345 109.48C37.6012 109.84 37.4345 110.34 37.4345 110.98V117H33.5145V105.78H37.4345V107.38C37.7812 106.873 38.2479 106.467 38.8345 106.16C39.4212 105.84 40.0945 105.68 40.8545 105.68ZM53.8455 113.66V117H52.1455C49.2788 117 47.8455 115.58 47.8455 112.74V109.04H46.4655V105.78H47.8455V103.06H51.7855V105.78H53.8255V109.04H51.7855V112.8C51.7855 113.107 51.8521 113.327 51.9855 113.46C52.1321 113.593 52.3721 113.66 52.7055 113.66H53.8455ZM63.0234 105.68C64.3034 105.68 65.3168 106.113 66.0634 106.98C66.8234 107.833 67.2034 108.993 67.2034 110.46V117H63.2834V110.98C63.2834 110.34 63.1168 109.84 62.7834 109.48C62.4501 109.107 62.0034 108.92 61.4434 108.92C60.8568 108.92 60.3968 109.107 60.0634 109.48C59.7301 109.84 59.5634 110.34 59.5634 110.98V117H55.6434V102.2H59.5634V107.38C59.9101 106.873 60.3768 106.467 60.9634 106.16C61.5634 105.84 62.2501 105.68 63.0234 105.68ZM77.1025 114H81.4825V117H73.1825V102.9H77.1025V114ZM93.7267 111.26C93.7267 111.567 93.7067 111.873 93.6667 112.18H86.2467C86.2867 112.793 86.4534 113.253 86.7467 113.56C87.0534 113.853 87.4401 114 87.9067 114C88.5601 114 89.0267 113.707 89.3067 113.12H93.4867C93.3134 113.893 92.9734 114.587 92.4667 115.2C91.9734 115.8 91.3467 116.273 90.5867 116.62C89.8267 116.967 88.9867 117.14 88.0667 117.14C86.9601 117.14 85.9734 116.907 85.1067 116.44C84.2534 115.973 83.5801 115.307 83.0867 114.44C82.6067 113.573 82.3667 112.553 82.3667 111.38C82.3667 110.207 82.6067 109.193 83.0867 108.34C83.5667 107.473 84.2334 106.807 85.0867 106.34C85.9534 105.873 86.9467 105.64 88.0667 105.64C89.1734 105.64 90.1534 105.867 91.0067 106.32C91.8601 106.773 92.5267 107.427 93.0067 108.28C93.4867 109.12 93.7267 110.113 93.7267 111.26ZM89.7267 110.28C89.7267 109.8 89.5667 109.427 89.2467 109.16C88.9267 108.88 88.5267 108.74 88.0467 108.74C87.5667 108.74 87.1734 108.873 86.8667 109.14C86.5601 109.393 86.3601 109.773 86.2667 110.28H89.7267ZM100.711 113.3L102.811 105.78H106.991L103.131 117H98.2509L94.3909 105.78H98.5709L100.711 113.3ZM119.039 111.26C119.039 111.567 119.019 111.873 118.979 112.18H111.559C111.599 112.793 111.766 113.253 112.059 113.56C112.366 113.853 112.753 114 113.219 114C113.873 114 114.339 113.707 114.619 113.12H118.799C118.626 113.893 118.286 114.587 117.779 115.2C117.286 115.8 116.659 116.273 115.899 116.62C115.139 116.967 114.299 117.14 113.379 117.14C112.273 117.14 111.286 116.907 110.419 116.44C109.566 115.973 108.893 115.307 108.399 114.44C107.919 113.573 107.679 112.553 107.679 111.38C107.679 110.207 107.919 109.193 108.399 108.34C108.879 107.473 109.546 106.807 110.399 106.34C111.266 105.873 112.259 105.64 113.379 105.64C114.486 105.64 115.466 105.867 116.319 106.32C117.173 106.773 117.839 107.427 118.319 108.28C118.799 109.12 119.039 110.113 119.039 111.26ZM115.039 110.28C115.039 109.8 114.879 109.427 114.559 109.16C114.239 108.88 113.839 108.74 113.359 108.74C112.879 108.74 112.486 108.873 112.179 109.14C111.873 109.393 111.673 109.773 111.579 110.28H115.039ZM124.563 102.2V117H120.643V102.2H124.563Z" fill="#223F99"/>
</g>
</g>
<defs>
<filter id="filter0_d_8_662" x="145" y="44" width="84" height="84" filterUnits="userSpaceOnUse" color-interpolation-filters="sRGB">
<feFlood flood-opacity="0" result="BackgroundImageFix"/>
<feColorMatrix in="SourceAlpha" type="matrix" values="0 0 0 0 0 0 0 0 0 0 0 0 0 0 0 0 0 0 127 0" result="hardAlpha"/>
<feOffset dy="4"/>
<feGaussianBlur stdDeviation="2"/>
<feComposite in2="hardAlpha" operator="out"/>
<feColorMatrix type="matrix" values="0 0 0 0 0 0 0 0 0 0 0 0 0 0 0 0 0 0 0.25 0"/>
<feBlend mode="normal" in2="BackgroundImageFix" result="effect1_dropShadow_8_662"/>
<feBlend mode="normal" in="SourceGraphic" in2="effect1_dropShadow_8_662" result="shape"/>
</filter>
<linearGradient id="paint0_linear_8_662" x1="39" y1="-127.5" x2="320" y2="185" gradientUnits="userSpaceOnUse">
<stop stop-color="#E6E6E6"/>
<stop offset="1" stop-color="#D9D9D9" stop-opacity="0"/>
</linearGradient>
<clipPath id="clip0_8_662">
<rect width="374" height="138.5" fill="white"/>
</clipPath>
<clipPath id="clip1_8_662">
<rect width="373.799" height="138.5" fill="white"/>
</clipPath>
</defs>
</svg>
