<svg width="374" height="140" viewBox="0 0 374 140" fill="none" xmlns="http://www.w3.org/2000/svg">
<g clip-path="url(#clip0_2549_496)">
<mask id="mask0_2549_496" style="mask-type:luminance" maskUnits="userSpaceOnUse" x="0" y="0" width="374" height="140">
<path d="M374 0.5H0V139.5H374V0.5Z" fill="white"/>
</mask>
<g mask="url(#mask0_2549_496)">
<mask id="mask1_2549_496" style="mask-type:luminance" maskUnits="userSpaceOnUse" x="0" y="0" width="374" height="139">
<path d="M374 0.5H0V139H374V0.5Z" fill="white"/>
</mask>
<g mask="url(#mask1_2549_496)">
<path d="M374 0.5H0V139H374V0.5Z" fill="white"/>
<path d="M374 0.5H0V138.5H374V0.5Z" fill="#F4F7FF"/>
<mask id="mask2_2549_496" style="mask-type:luminance" maskUnits="userSpaceOnUse" x="0" y="0" width="374" height="139">
<path d="M373.799 0.5H0V139H373.799V0.5Z" fill="white"/>
</mask>
<g mask="url(#mask2_2549_496)">
<g filter="url(#filter0_d_2549_496)">
<path d="M106.723 104.641C127.557 104.641 144.446 87.752 144.446 66.9182C144.446 46.0844 127.557 29.1953 106.723 29.1953C85.8891 29.1953 69 46.0844 69 66.9182C69 87.752 85.8891 104.641 106.723 104.641Z" fill="#148943"/>
<path d="M106.723 106.641C128.661 106.641 146.446 88.8566 146.446 66.9182C146.446 44.9799 128.661 27.1953 106.723 27.1953C84.7845 27.1953 67 44.9799 67 66.9182C67 88.8566 84.7845 106.641 106.723 106.641Z" stroke="white" stroke-width="4"/>
</g>
<g opacity="0.2">
<path fill-rule="evenodd" clip-rule="evenodd" d="M377 49.5C376.717 49.516 376.434 49.536 376.15 49.557L377 50.409V49.5ZM374.863 49.676L377 51.818V53.226L373.606 49.829C374.024 49.773 374.443 49.722 374.863 49.676ZM372.389 50.014L377 54.634V56.042L371.195 50.227C371.591 50.1503 371.989 50.0793 372.389 50.014ZM370.03 50.467C369.647 50.5517 369.267 50.6403 368.89 50.733L377 58.859V57.451L370.03 50.467ZM367.776 51.026C367.411 51.1267 367.048 51.232 366.686 51.342L377 61.675V60.267L367.777 51.026H367.776ZM365.619 51.682C365.269 51.798 364.921 51.9187 364.575 52.044L377 64.491V63.082L365.621 51.682H365.619ZM363.553 52.427C363.217 52.5603 362.884 52.6937 362.555 52.827L377 67.308V65.9L363.553 52.427ZM361.57 53.256C361.246 53.4007 360.926 53.549 360.607 53.701L377 70.124V68.716L361.57 53.256ZM359.664 54.164C359.354 54.3207 359.046 54.4813 358.741 54.646L377 72.94V71.532L359.664 54.164ZM357.834 55.147C357.535 55.3157 357.239 55.4883 356.945 55.665L377 75.757V74.348L357.836 55.148L357.834 55.147ZM356.075 56.2L377 77.164V78.572L355.221 56.754C355.504 56.566 355.788 56.3813 356.075 56.2ZM354.385 57.323L377 79.982V81.39L353.564 57.91C353.835 57.71 354.109 57.5143 354.384 57.323H354.385ZM352.761 58.512L377 82.8V84.209L351.973 59.132C352.233 58.922 352.496 58.7153 352.761 58.512ZM351.201 59.767L377 85.615V87.022L350.449 60.422C350.698 60.2013 350.95 59.9843 351.204 59.771L351.201 59.767ZM349.704 61.085L377 88.43V89.839L348.982 61.769C349.221 61.539 349.462 61.3113 349.707 61.086L349.704 61.085ZM348.271 62.466L377 91.247V92.655L347.583 63.182C347.811 62.9413 348.041 62.703 348.274 62.467L348.271 62.466ZM346.903 63.911L377 94.063V95.47L346.245 64.658C346.463 64.4073 346.684 64.1587 346.906 63.912L346.903 63.911ZM345.596 65.419L377 96.879V98.288L344.972 66.2C345.178 65.9387 345.387 65.6793 345.6 65.422L345.596 65.419ZM344.361 66.993L377 99.7V101.1L343.762 67.8C343.957 67.5273 344.157 67.2573 344.361 66.99V66.993ZM343.184 68.63L377 102.512V103.92L342.617 69.473C342.801 69.1897 342.989 68.9087 343.181 68.63H343.184ZM342.065 70.332L377 105.332V106.74L341.54 71.21C341.714 70.916 341.89 70.6237 342.07 70.333L342.065 70.332ZM341.027 72.1L377 108.145V109.553L340.533 73.017C340.694 72.7103 340.861 72.4063 341.032 72.105L341.027 72.1ZM340.056 73.944L377 110.961V112.37L339.597 74.9C339.747 74.582 339.9 74.2657 340.057 73.951L340.056 73.944ZM339.157 75.861C339.013 76.1883 338.873 76.5177 338.737 76.849L377 115.186V113.777L339.159 75.866L339.157 75.861ZM338.339 77.861C338.206 78.2023 338.079 78.5453 337.96 78.89L377 118V116.594L338.34 77.862L338.339 77.861ZM337.603 79.941C337.487 80.297 337.375 80.6547 337.269 81.014L377 120.818V119.41L337.605 79.942L337.603 79.941ZM336.957 82.11C336.858 82.483 336.758 82.855 336.671 83.231L377 123.635V122.227L336.959 82.111L336.957 82.11ZM336.41 84.378C336.327 84.768 336.251 85.16 336.178 85.554L377 126.451V125.043L336.412 84.379L336.41 84.378ZM335.973 86.757C335.909 87.167 335.851 87.578 335.799 87.991L377 129.267V127.859L335.976 86.759L335.973 86.757ZM335.655 89.257C335.613 89.689 335.575 90.121 335.545 90.557L377 132.083V130.676L335.658 89.256L335.655 89.257ZM335.476 91.894C335.459 92.353 335.45 92.812 335.447 93.273L377 134.9V133.492L335.477 91.892L335.476 91.894ZM335.458 94.694C335.458 94.772 335.458 94.85 335.458 94.928C335.47 95.3367 335.488 95.7467 335.511 96.158L376.889 137.605L377 137.6V136.308L335.461 94.692L335.458 94.694ZM335.63 97.683C335.67 98.109 335.716 98.5327 335.768 98.954C335.768 99.045 335.768 99.137 335.768 99.23L374.291 137.819L375.589 137.712L335.633 97.681L335.63 97.683ZM335.73 100.604C335.709 101.029 335.679 101.469 335.635 101.918L371.694 138.033L372.991 137.926L335.738 100.6L335.73 100.604ZM335.483 103.174C335.426 103.574 335.357 103.974 335.278 104.374L369.096 138.246L370.393 138.139L335.491 103.172L335.483 103.174ZM335.016 105.521C334.922 105.886 334.817 106.25 334.702 106.614L366.498 138.46L367.795 138.353L335.023 105.519L335.016 105.521ZM334.333 107.653C334.204 107.986 334.063 108.315 333.911 108.639L363.899 138.673L365.197 138.566L334.34 107.651L334.333 107.653ZM333.435 109.571C333.269 109.871 333.094 110.162 332.906 110.449L361.302 138.887L362.6 138.78L333.444 109.569L333.435 109.571ZM332.321 111.271C332.121 111.533 331.908 111.789 331.68 112.038L358.704 139.1L360.002 138.994L332.33 111.269L332.321 111.271ZM330.985 112.749L357.396 139.209L356.099 139.316L330.239 113.4C330.505 113.19 330.757 112.973 330.994 112.748L330.985 112.749ZM329.421 113.999L354.807 139.42L353.51 139.528L328.566 114.538C328.855 114.371 329.145 114.192 329.431 113.997L329.421 113.999ZM327.633 115.024L352.208 139.635L350.91 139.742L326.656 115.442C326.986 115.32 327.316 115.182 327.646 115.026L327.633 115.024ZM325.58 115.784L349.611 139.848L348.313 139.955L324.444 116.042C324.824 115.975 325.206 115.889 325.59 115.782L325.58 115.784ZM323.194 116.209L347.014 140.062L345.716 140.169L321.851 116.262C322.294 116.262 322.75 116.247 323.203 116.207L323.194 116.209ZM320.357 116.184L344.416 140.276L343.118 140.383L318.708 115.932C319.234 116.037 319.787 116.124 320.363 116.182L320.357 116.184ZM316.818 115.454L341.817 140.489L340.52 140.596L314.568 114.591C315.304 114.926 316.06 115.213 316.832 115.452L316.818 115.454ZM311.572 113L339.22 140.7L337.923 140.807L308.997 111.833C309.872 112.19 310.73 112.58 311.572 113.004V113ZM306.773 111.009L336.618 140.909L335.32 141.016L304.773 110.417C305.447 110.596 306.112 110.796 306.769 111.017L306.773 111.009ZM302.932 109.977L334.023 141.129L332.725 141.236L301.214 109.667C301.791 109.757 302.364 109.861 302.933 109.98L302.932 109.977ZM299.592 109.448C299.081 109.392 298.568 109.347 298.053 109.314L330.126 141.45L331.424 141.343L299.593 109.452L299.592 109.448ZM296.583 109.248C296.118 109.237 295.648 109.237 295.174 109.248L327.528 141.664L328.826 141.557L296.585 109.257L296.583 109.248ZM293.816 109.292C293.491 109.309 293.166 109.332 292.841 109.359C292.73 109.368 292.62 109.38 292.508 109.391L324.931 141.878L326.228 141.771L293.817 109.3L293.816 109.292ZM291.24 109.528C290.828 109.581 290.419 109.64 290.012 109.707L322.333 142.091L323.63 141.984L291.24 109.533V109.528ZM288.822 109.922C288.435 110 288.048 110.081 287.665 110.172L319.734 142.3L321.032 142.193L288.823 109.927L288.822 109.922ZM286.541 110.454C286.175 110.553 285.811 110.657 285.449 110.767L317.136 142.518L318.434 142.411L286.542 110.459L286.541 110.454ZM284.384 111.11C284.036 111.227 283.69 111.35 283.346 111.478L314.539 142.732L315.837 142.625L284.384 111.115V111.11ZM282.338 111.876C282.005 112.009 281.677 112.15 281.354 112.298L311.94 142.945L313.237 142.838L282.339 111.881L282.338 111.876ZM280.392 112.744C280.077 112.896 279.765 113.052 279.455 113.212L309.343 143.159L310.64 143.052L280.396 112.752L280.392 112.744ZM278.542 113.706C278.243 113.874 277.946 114.046 277.652 114.223L306.746 143.373L308.043 143.266L278.544 113.711L278.542 113.706ZM276.783 114.76C276.498 114.943 276.214 115.128 275.935 115.318L304.147 143.586L305.445 143.479L276.786 114.764L276.783 114.76ZM275.106 115.897C274.835 116.097 274.567 116.297 274.301 116.497L301.55 143.797L302.848 143.691L275.108 115.9L275.106 115.897ZM273.515 117.12L300.251 143.907L298.953 144.014L272.754 117.766C273.005 117.548 273.26 117.334 273.519 117.124L273.515 117.12ZM272.003 118.42L297.647 144.12L296.35 144.227L271.278 119.1C271.517 118.87 271.76 118.644 272.005 118.421L272.003 118.42ZM270.57 119.8L295.052 144.334L293.755 144.441L269.885 120.527C270.111 120.284 270.34 120.043 270.572 119.806L270.57 119.8ZM269.217 121.261L292.457 144.547L291.159 144.654L268.572 122.026C268.785 121.77 269.001 121.517 269.221 121.267L269.217 121.261ZM267.942 122.799L289.862 144.761L288.564 144.868L267.335 123.6C267.534 123.333 267.737 123.067 267.944 122.8L267.942 122.799ZM266.744 124.419L287.256 144.969L285.958 145.076L266.179 125.261C266.364 124.978 266.552 124.697 266.744 124.419ZM265.633 126.119L284.658 145.179L283.36 145.286L265.108 127.01C265.279 126.713 265.454 126.419 265.633 126.127V126.119ZM264.606 127.906L282.065 145.4L280.768 145.507L264.135 128.843C264.29 128.531 264.448 128.22 264.613 127.914L264.606 127.906ZM263.672 129.787L279.466 145.615L278.169 145.721L263.244 130.77C263.384 130.442 263.529 130.118 263.678 129.795L263.672 129.787ZM262.831 131.761L276.865 145.821L275.567 145.928L262.456 132.8C262.578 132.455 262.704 132.113 262.836 131.773L262.831 131.761ZM262.096 133.842C261.983 134.2 261.872 134.56 261.77 134.922L272.972 146.149L274.27 146.042L262.1 133.85L262.096 133.842ZM261.475 136.035C261.38 136.414 261.292 136.795 261.21 137.178L270.37 146.354L271.668 146.247L261.475 136.034V136.035ZM260.976 138.353C260.904 138.753 260.841 139.162 260.783 139.569L267.77 146.569L269.068 146.462L260.975 138.354L260.976 138.353ZM260.626 140.82C260.581 141.25 260.544 141.683 260.514 142.12L265.178 146.79L266.475 146.683L260.631 140.828L260.626 140.82ZM260.447 143.455C260.432 143.918 260.43 144.383 260.432 144.849L262.581 147L263.878 146.893L260.452 143.46L260.447 143.455ZM260.472 146.297L261.27 147.097L260.519 147.159C260.505 146.878 260.491 146.594 260.478 146.306L260.472 146.297Z" fill="#148943"/>
<path fill-rule="evenodd" clip-rule="evenodd" d="M376.999 64.6744C376.218 64.6297 375.431 64.6074 374.637 64.6074C363.82 64.6076 353.416 68.7661 345.569 76.2254C337.723 83.6848 333.032 93.8762 332.465 104.698C332.427 105.431 332.408 106.17 332.408 106.913C332.408 107.464 332.422 108.013 332.443 108.561C332.143 112.59 330.846 118.761 325.948 121.97C318.293 126.997 310.099 121.277 310.099 121.277C305.06 117.731 299.149 115.632 293.006 115.208C286.862 114.783 280.72 116.049 275.242 118.868C269.765 121.687 265.161 125.953 261.928 131.204C258.695 136.455 256.955 142.491 256.898 148.66H376.999V64.6744Z" fill="#148943"/>
<path fill-rule="evenodd" clip-rule="evenodd" d="M377 102.776C369.732 102.545 362.5 103.89 355.799 106.719C344.229 111.578 334.883 120.585 329.588 131.979C328.97 133.309 328.401 134.698 327.831 136.087C325.84 140.94 323.845 145.806 319.476 148.665H321.009C324.864 145.639 326.758 141.025 328.646 136.422C329.207 135.052 329.77 133.683 330.389 132.348C335.589 121.152 344.771 112.302 356.139 107.528C362.732 104.744 369.849 103.423 377 103.656V102.776ZM303.316 148.664C301.229 147.375 299.39 145.721 297.886 143.782L297.862 143.752C293.829 138.113 288.42 133.604 282.152 130.656C275.884 127.707 268.967 126.418 262.06 126.911C255.153 127.403 248.487 129.662 242.7 133.47C236.912 137.278 232.195 142.51 229 148.664H229.991C233.166 142.706 237.805 137.657 243.472 133.998C249.138 130.338 255.642 128.188 262.37 127.751C269.097 127.314 275.825 128.604 281.915 131.5C288.006 134.396 293.257 138.801 297.173 144.299C297.181 144.311 297.19 144.322 297.199 144.333C298.491 145.991 300.018 147.45 301.733 148.664H303.316Z" fill="#148943"/>
</g>
<g opacity="0.2">
<path fill-rule="evenodd" clip-rule="evenodd" d="M-24 85.6649C-23.7165 85.6489 -23.4341 85.6289 -23.1496 85.6079L-24 84.7559V85.6649ZM-21.863 85.4889L-24 83.3469V81.9389L-20.6063 85.3359C-21.0242 85.3919 -21.4431 85.4429 -21.863 85.4889ZM-19.3886 85.1509L-24 80.5309V79.1229L-18.1948 84.9379C-18.5907 85.0146 -18.9886 85.0856 -19.3886 85.1509ZM-17.03 84.6979C-16.6473 84.6133 -16.2674 84.5246 -15.8901 84.4319L-24 76.3059V77.7139L-17.03 84.6979ZM-14.7761 84.1389C-14.4115 84.0383 -14.0482 83.9329 -13.6862 83.8229L-24 73.4899V74.8979L-14.7761 84.1389ZM-12.6191 83.4829C-12.2691 83.3669 -11.9211 83.2463 -11.5751 83.1209L-24 70.6739V72.0829L-12.6211 83.4829H-12.6191ZM-10.553 82.7379C-10.2169 82.6046 -9.88423 82.4713 -9.55484 82.3379L-24 67.8569V69.2649L-10.553 82.7379ZM-8.56967 81.9089C-8.24627 81.7643 -7.92553 81.6159 -7.60746 81.4639L-24 65.0409V66.4489L-8.56967 81.9089ZM-6.66421 81.0009C-6.35412 80.8443 -6.04636 80.6836 -5.74093 80.5189L-24 62.2249V63.6329L-6.66421 81.0009ZM-4.83361 80.0179C-4.5355 79.8493 -4.23938 79.6766 -3.94526 79.4999L-24 59.4079V60.8169L-4.83561 80.0169L-4.83361 80.0179ZM-3.07488 78.9649L-24 58.0009V56.5929L-2.22147 78.4109C-2.50361 78.5989 -2.78808 78.7836 -3.07488 78.9649ZM-1.38502 77.8419L-24 55.1829V53.7749L-0.563545 77.2549C-0.835041 77.4549 -1.10953 77.6506 -1.38502 77.8419ZM0.238962 76.6529L-24 52.3649V50.9559L1.0275 76.0329C0.766649 76.2429 0.503804 76.4496 0.238962 76.6529ZM1.79906 75.3979L-24 49.5499V48.1429L2.55067 74.7429C2.3018 74.9636 2.05026 75.1806 1.79607 75.3939L1.79906 75.3979ZM3.29628 74.0799L-24 46.7349V45.3259L4.01794 73.3959C3.77905 73.6259 3.5375 73.8536 3.29329 74.0789L3.29628 74.0799ZM4.72862 72.6989L-24 43.9179V42.5099L5.41734 71.9829C5.1891 72.2236 4.95853 72.4619 4.72563 72.6979L4.72862 72.6989ZM6.09708 71.2539L-24 41.1019V39.6949L6.75486 70.5069C6.5366 70.7576 6.31634 71.0063 6.09408 71.2529L6.09708 71.2539ZM7.40365 69.7459L-24 38.2859V36.8769L8.02849 68.9649C7.82221 69.2263 7.6126 69.4856 7.39966 69.7429L7.40365 69.7459ZM8.63936 68.1719L-24 35.4649V34.0649L9.23824 67.3649C9.0426 67.6376 8.84298 67.9076 8.63936 68.1749V68.1719ZM9.81617 66.5349L-24 32.6529V31.2449L10.3831 65.6919C10.1988 65.9753 10.0108 66.2563 9.81916 66.5349H9.81617ZM10.9351 64.8329L-24 29.8329V28.4249L11.4601 63.9549C11.2864 64.2489 11.1098 64.5413 10.9301 64.8319L10.9351 64.8329ZM11.9732 63.0649L-24 27.0199V25.6119L12.4672 62.1479C12.3055 62.4546 12.1392 62.7586 11.9682 63.0599L11.9732 63.0649ZM12.9444 61.2209L-24 24.2039V22.7949L13.4025 60.2649C13.2534 60.5829 13.1004 60.8993 12.9434 61.2139L12.9444 61.2209ZM13.8427 59.3039C13.9871 58.9766 14.1272 58.6473 14.2629 58.3159L-24 19.9789V21.3879L13.8407 59.2989L13.8427 59.3039ZM14.6612 57.3039C14.7943 56.9626 14.9207 56.6196 15.0405 56.2749L-24 17.1649V18.5709L14.6602 57.3029L14.6612 57.3039ZM15.3968 55.2239C15.5133 54.8679 15.6247 54.5103 15.7312 54.1509L-24 14.3469V15.7549L15.3948 55.2229L15.3968 55.2239ZM16.0426 53.0549C16.1424 52.6819 16.2422 52.3099 16.3291 51.9339L-24 11.5299V12.9379L16.0406 53.0539L16.0426 53.0549ZM16.5896 50.7869C16.6734 50.3969 16.7493 50.0049 16.8221 49.6109L-24 8.7139V10.1219L16.5876 50.7859L16.5896 50.7869ZM17.0268 48.4079C17.0907 47.9979 17.1485 47.5869 17.2014 47.1739L-24 5.8979V7.3059L17.0238 48.4059L17.0268 48.4079ZM17.3452 45.9079C17.3871 45.4759 17.425 45.0439 17.455 44.6079L-24 3.0819V4.4889L17.3422 45.9089L17.3452 45.9079ZM17.5238 43.2709C17.5408 42.8119 17.5498 42.3529 17.5528 41.8919L-24 0.264894V1.6729L17.5228 43.2729L17.5238 43.2709ZM17.5418 40.4709C17.5418 40.3929 17.5418 40.3149 17.5418 40.2369C17.5298 39.8283 17.5122 39.4183 17.4889 39.0069L-23.8892 -2.4401L-24 -2.4351V-1.1431L17.5388 40.4729L17.5418 40.4709ZM17.3701 37.4819C17.3295 37.0559 17.2836 36.6323 17.2324 36.2109C17.2324 36.1199 17.2324 36.0279 17.2324 35.9349L-21.291 -2.6541L-22.5886 -2.5471L17.3671 37.4839L17.3701 37.4819ZM17.2703 34.5609C17.2913 34.1359 17.3212 33.6959 17.3651 33.2469L-18.6939 -2.8681L-19.9914 -2.7611L17.2623 34.5649L17.2703 34.5609ZM17.5169 31.9909C17.5738 31.5909 17.6426 31.1909 17.7225 30.7909L-16.0957 -3.0811L-17.3933 -2.9741L17.5089 31.9929L17.5169 31.9909ZM17.984 29.6439C18.0778 29.2793 18.1826 28.9149 18.2984 28.5509L-13.4975 -3.2951L-14.7951 -3.1881L17.977 29.6459L17.984 29.6439ZM18.6667 27.5119C18.7958 27.1786 18.9366 26.8499 19.0889 26.5259L-10.8993 -3.5081L-12.1969 -3.4011L18.6597 27.5139L18.6667 27.5119ZM19.5651 25.5939C19.7307 25.2939 19.9064 25.0029 20.0941 24.7159L-8.30217 -3.7221L-9.59976 -3.6151L19.5561 25.5959L19.5651 25.5939ZM20.679 23.8939C20.8786 23.6319 21.0922 23.3763 21.3198 23.1269L-5.70399 -3.9351L-7.00158 -3.8291L20.67 23.8959L20.679 23.8939ZM22.0145 22.4159L-4.39642 -4.0441L-3.09883 -4.1511L22.7611 21.7649C22.4949 21.9749 22.2431 22.1923 22.0055 22.4169L22.0145 22.4159ZM23.5786 21.1659L-1.80724 -4.2551L-0.509645 -4.3631L24.434 20.6269C24.1445 20.7939 23.8551 20.9729 23.5686 21.1679L23.5786 21.1659ZM25.3673 20.1409L0.791935 -4.4701L2.08952 -4.5771L26.3445 19.7229C26.0141 19.8449 25.6837 19.9829 25.3543 20.1389L25.3673 20.1409ZM27.4205 19.3809L3.38911 -4.6831L4.6867 -4.7901L28.5563 19.1229C28.1764 19.1896 27.7944 19.2763 27.4105 19.3829L27.4205 19.3809ZM29.806 18.9559L5.98628 -4.8971L7.28387 -5.0041L31.1485 18.9029C30.7064 18.9029 30.2502 18.9179 29.797 18.9579L29.806 18.9559ZM32.6428 18.9809L8.58446 -5.1111L9.88205 -5.2181L34.2917 19.2329C33.7657 19.1279 33.2127 19.0409 32.6368 18.9829L32.6428 18.9809ZM36.1822 19.7109L11.1826 -5.3241L12.4802 -5.4311L38.432 20.5739C37.6964 20.2392 36.9402 19.9516 36.1682 19.7129L36.1822 19.7109ZM41.4284 22.1649L13.7798 -5.5351L15.0774 -5.6421L44.0026 23.3319C43.1276 22.9753 42.2695 22.5849 41.4284 22.1609V22.1649ZM46.2265 24.1559L16.382 -5.7441L17.6796 -5.8511L48.2268 24.7479C47.5534 24.5686 46.888 24.3686 46.2305 24.1479L46.2265 24.1559ZM50.0684 25.1879L18.9771 -5.9641L20.2747 -6.0711L51.7862 25.4979C51.2086 25.4079 50.6357 25.3036 50.0674 25.1849L50.0684 25.1879ZM53.4082 25.7169C53.9186 25.7729 54.4316 25.8176 54.9473 25.8509L22.8739 -6.2851L21.5763 -6.1781L53.4072 25.7129L53.4082 25.7169ZM56.4166 25.9169C56.8824 25.9276 57.3522 25.9276 57.826 25.9169L25.4721 -6.4991L24.1745 -6.3921L56.4146 25.9079L56.4166 25.9169ZM59.1844 25.8729C59.5092 25.8556 59.8339 25.8333 60.1586 25.8059C60.2704 25.7969 60.3802 25.7849 60.492 25.7739L28.0693 -6.7131L26.7717 -6.6061L59.1834 25.8649L59.1844 25.8729ZM61.7597 25.6369C62.1716 25.5843 62.5811 25.5246 62.9884 25.4579L30.6674 -6.9261L29.3698 -6.8191L61.7597 25.6319V25.6369ZM64.1782 25.2429C64.5654 25.1649 64.9517 25.0839 65.335 24.9929L33.2656 -7.1351L31.968 -7.0281L64.1772 25.2379L64.1782 25.2429ZM66.4589 24.7109C66.8249 24.6123 67.1889 24.5079 67.5509 24.3979L35.8638 -7.3531L34.5662 -7.2461L66.4579 24.7059L66.4589 24.7109ZM68.6159 24.0549C68.9639 23.9376 69.31 23.8149 69.654 23.6869L38.4609 -7.5671L37.1634 -7.4601L68.6159 24.0499V24.0549ZM70.6621 23.2889C70.9948 23.1556 71.3229 23.0149 71.6463 22.8669L41.0601 -7.7801L39.7625 -7.6731L70.6611 23.2839L70.6621 23.2889ZM72.6075 22.4209C72.9229 22.2689 73.2353 22.1129 73.5448 21.9529L43.6573 -7.9941L42.3597 -7.8871L72.6035 22.4129L72.6075 22.4209ZM74.4581 21.4589C74.7568 21.2909 75.0536 21.1186 75.3484 20.9419L46.2545 -8.2081L44.9569 -8.1011L74.4561 21.4539L74.4581 21.4589ZM76.2168 20.4049C76.5023 20.2219 76.7857 20.0369 77.0652 19.8469L48.8526 -8.4211L47.5551 -8.3141L76.2138 20.4009L76.2168 20.4049ZM77.8937 19.2679C78.1652 19.0679 78.4327 18.8679 78.6992 18.6679L51.4498 -8.6321L50.1522 -8.5261L77.8917 19.2649L77.8937 19.2679ZM79.4847 18.0449L52.7494 -8.7421L54.047 -8.8491L80.2463 17.3989C79.9948 17.6169 79.7396 17.8309 79.4807 18.0409L79.4847 18.0449ZM80.9969 16.7449L55.3526 -8.9551L56.6502 -9.0621L81.7216 16.0649C81.483 16.2949 81.2405 16.5209 80.9949 16.7439L80.9969 16.7449ZM82.4302 15.3649L57.9477 -9.1691L59.2453 -9.2761L83.115 14.6379C82.8894 14.8813 82.6605 15.1216 82.4283 15.3589L82.4302 15.3649ZM83.7827 13.9039L60.5429 -9.3821L61.8405 -9.4891L84.4275 13.1389C84.2153 13.3949 83.999 13.6479 83.7787 13.8979L83.7827 13.9039ZM85.0584 12.3659L63.1381 -9.5961L64.4357 -9.7031L85.6652 11.5649C85.4656 11.8316 85.2627 12.0983 85.0564 12.3649L85.0584 12.3659ZM86.2561 10.7459L65.7443 -9.8041L67.0418 -9.9111L86.8211 9.9039C86.6361 10.1872 86.4478 10.4679 86.2561 10.7459ZM87.3671 9.0459L68.3424 -10.0141L69.64 -10.1211L87.8921 8.1549C87.7211 8.45156 87.5461 8.7459 87.3671 9.0379V9.0459ZM88.3942 7.2589L70.9346 -10.2351L72.2322 -10.3421L88.8653 6.3219C88.7096 6.6339 88.5519 6.9449 88.3872 7.2509L88.3942 7.2589ZM89.3284 5.3779L73.5338 -10.4501L74.8314 -10.5561L89.7556 4.3949C89.6159 4.7229 89.4712 5.0469 89.3224 5.3699L89.3284 5.3779ZM90.1689 3.4039L76.1349 -10.6561L77.4325 -10.7631L90.5442 2.3649C90.4224 2.70956 90.2956 3.0519 90.1639 3.3919L90.1689 3.4039ZM90.9035 1.32289C91.0173 0.964893 91.1281 0.604899 91.2299 0.242899L80.0277 -10.9841L78.7301 -10.8771L90.8995 1.3149L90.9035 1.32289ZM91.5253 -0.870103C91.6198 -1.24877 91.708 -1.62977 91.7899 -2.0131L82.6299 -11.1891L81.3323 -11.0821L91.5253 -0.870103ZM92.0244 -3.1881C92.0963 -3.5881 92.1592 -3.9971 92.2171 -4.4041L85.23 -11.4041L83.9325 -11.2971L92.0254 -3.1891L92.0244 -3.1881ZM92.3738 -5.6551C92.419 -6.0851 92.4563 -6.51844 92.4856 -6.9551L87.8222 -11.6251L86.5246 -11.5181L92.3688 -5.6631L92.3738 -5.6551ZM92.5534 -8.2901C92.5684 -8.7531 92.5704 -9.2181 92.5684 -9.6841L90.4194 -11.8351L89.1218 -11.7281L92.5484 -8.2951L92.5534 -8.2901ZM92.5285 -11.1321L91.73 -11.9321L92.4806 -11.9941C92.4952 -11.7134 92.5092 -11.4291 92.5225 -11.1411L92.5285 -11.1321Z" fill="#148943"/>
<path fill-rule="evenodd" clip-rule="evenodd" d="M-24 70.4909C-23.2195 70.5356 -22.4322 70.5579 -21.6384 70.5579C-10.8215 70.5577 -0.416972 66.3992 7.4297 58.9398C15.2764 51.4805 19.9669 41.289 20.5343 30.4669C20.5722 29.7336 20.5911 28.9952 20.5911 28.2519C20.5911 27.7009 20.5772 27.1519 20.5562 26.6039C20.8557 22.5749 22.1532 16.4039 27.0511 13.1949C34.7059 8.16786 42.8997 13.8879 42.8997 13.8879C47.9389 17.434 53.8497 19.5327 59.9932 19.9573C66.1366 20.3819 72.2791 19.1161 77.7565 16.2968C83.234 13.4775 87.8382 9.2119 91.0713 3.96112C94.3045 -1.28965 96.0437 -7.3259 96.1008 -13.4951H-24V70.4909Z" fill="#148943"/>
<path fill-rule="evenodd" clip-rule="evenodd" d="M-24 32.389C-16.7321 32.6205 -9.50011 31.2755 -2.79939 28.446C8.7709 23.5873 18.1169 14.5805 23.4119 3.18602C24.0298 1.85602 24.5987 0.467014 25.1686 -0.92199C27.1599 -5.77499 29.1552 -10.641 33.5241 -13.5H31.991C28.1361 -10.474 26.2416 -5.85998 24.3542 -1.25698C23.7932 0.113015 23.2302 1.48202 22.6114 2.81702C17.4107 14.0129 8.22894 22.863 -3.13876 27.637C-9.73215 30.4207 -16.8488 31.7416 -24 31.509V32.389ZM49.6841 -13.499C51.7705 -12.2095 53.6095 -10.5561 55.114 -8.61699L55.138 -8.58698C59.1713 -2.94809 64.5801 1.56082 70.848 4.5092C77.1158 7.45757 84.0335 8.74698 90.9404 8.25431C97.8473 7.76163 104.513 5.50332 110.3 1.69501C116.088 -2.11331 120.805 -7.34447 124 -13.499H123.009C119.834 -7.5405 115.195 -2.49239 109.528 1.16735C103.862 4.82708 97.3577 6.9773 90.6303 7.4144C83.9028 7.8515 77.1754 6.56101 71.0849 3.66512C64.9945 0.769242 59.7426 -3.63618 55.8267 -9.13398C55.8187 -9.14598 55.8097 -9.15698 55.8007 -9.16798C54.509 -10.826 52.9816 -12.2851 51.2671 -13.499H49.6841Z" fill="#148943"/>
</g>
</g>
</g>
<path d="M209.868 103.43L208.338 99.71C209.398 99.35 210.368 98.93 211.248 98.45C212.148 97.97 212.928 97.44 213.588 96.86C214.248 96.28 214.758 95.65 215.118 94.97C215.478 94.27 215.658 93.52 215.658 92.72C215.658 91.88 215.468 90.96 215.088 89.96C214.708 88.96 214.248 87.94 213.708 86.9L217.638 85.01C217.998 85.63 218.308 86.3 218.568 87.02C218.848 87.72 219.078 88.35 219.258 88.91C219.438 89.47 219.558 89.85 219.618 90.05C219.898 91.01 220.278 91.65 220.758 91.97C221.258 92.29 222.058 92.45 223.158 92.45C223.918 92.45 224.458 92.65 224.778 93.05C225.118 93.43 225.288 93.91 225.288 94.49C225.288 95.11 225.078 95.63 224.658 96.05C224.238 96.45 223.638 96.65 222.858 96.65C222.038 96.65 221.318 96.53 220.698 96.29C220.078 96.05 219.578 95.7 219.198 95.24C218.838 94.78 218.608 94.24 218.508 93.62L219.618 94.25C219.498 95.31 219.148 96.31 218.568 97.25C218.008 98.21 217.278 99.09 216.378 99.89C215.478 100.69 214.468 101.39 213.348 101.99C212.228 102.59 211.068 103.07 209.868 103.43ZM222.894 96.65L223.194 92.45C223.854 92.45 224.394 92.4 224.814 92.3C225.234 92.18 225.574 91.93 225.834 91.55C226.114 91.15 226.354 90.56 226.554 89.78C226.774 88.98 227.014 87.9 227.274 86.54L231.174 87.26C231.114 87.56 231.044 87.91 230.964 88.31C230.884 88.71 230.814 89.12 230.754 89.54C230.694 89.94 230.664 90.3 230.664 90.62C230.664 91.18 230.844 91.63 231.204 91.97C231.564 92.29 232.244 92.45 233.244 92.45C233.744 92.45 234.174 92.4 234.534 92.3C234.914 92.18 235.234 91.93 235.494 91.55C235.774 91.15 236.014 90.54 236.214 89.72C236.434 88.88 236.644 87.75 236.844 86.33L240.804 86.96C240.724 87.42 240.644 87.91 240.564 88.43C240.484 88.95 240.414 89.43 240.354 89.87C240.294 90.31 240.264 90.67 240.264 90.95C240.264 91.21 240.334 91.46 240.474 91.7C240.634 91.92 240.914 92.1 241.314 92.24C241.734 92.38 242.324 92.45 243.084 92.45C243.624 92.45 244.084 92.38 244.464 92.24C244.864 92.1 245.164 91.87 245.364 91.55C245.584 91.23 245.694 90.81 245.694 90.29C245.694 89.55 245.524 88.58 245.184 87.38C244.844 86.18 244.444 84.92 243.984 83.6L248.214 82.34C248.534 83.2 248.814 84.12 249.054 85.1C249.314 86.06 249.514 87 249.654 87.92C249.814 88.82 249.894 89.61 249.894 90.29C249.894 91.31 249.734 92.22 249.414 93.02C249.094 93.8 248.644 94.46 248.064 95C247.484 95.54 246.794 95.95 245.994 96.23C245.194 96.51 244.314 96.65 243.354 96.65C242.194 96.65 241.244 96.54 240.504 96.32C239.764 96.08 239.194 95.69 238.794 95.15C238.414 94.59 238.164 93.83 238.044 92.87H239.064C238.644 94.05 238.174 94.91 237.654 95.45C237.134 95.97 236.514 96.3 235.794 96.44C235.094 96.58 234.214 96.65 233.154 96.65C232.494 96.65 231.814 96.58 231.114 96.44C230.434 96.28 229.824 95.92 229.284 95.36C228.744 94.8 228.344 93.93 228.084 92.75L229.704 92.69C229.284 93.87 228.734 94.74 228.054 95.3C227.394 95.86 226.634 96.23 225.774 96.41C224.914 96.57 223.954 96.65 222.894 96.65ZM238.584 78.08C238.084 78.08 237.644 77.89 237.264 77.51C236.904 77.13 236.724 76.68 236.724 76.16C236.724 75.64 236.904 75.2 237.264 74.84C237.644 74.48 238.084 74.3 238.584 74.3C239.104 74.3 239.544 74.48 239.904 74.84C240.264 75.2 240.444 75.64 240.444 76.16C240.444 76.68 240.264 77.13 239.904 77.51C239.544 77.89 239.104 78.08 238.584 78.08ZM236.184 82.04C235.684 82.04 235.244 81.85 234.864 81.47C234.504 81.09 234.324 80.64 234.324 80.12C234.324 79.6 234.504 79.16 234.864 78.8C235.244 78.44 235.684 78.26 236.184 78.26C236.704 78.26 237.144 78.44 237.504 78.8C237.864 79.16 238.044 79.6 238.044 80.12C238.044 80.64 237.864 81.09 237.504 81.47C237.144 81.85 236.704 82.04 236.184 82.04ZM240.834 82.04C240.334 82.04 239.894 81.85 239.514 81.47C239.154 81.09 238.974 80.64 238.974 80.12C238.974 79.6 239.154 79.16 239.514 78.8C239.894 78.44 240.334 78.26 240.834 78.26C241.354 78.26 241.794 78.44 242.154 78.8C242.514 79.16 242.694 79.6 242.694 80.12C242.694 80.64 242.514 81.09 242.154 81.47C241.794 81.85 241.354 82.04 240.834 82.04ZM260.909 96.65C259.049 96.65 257.609 96.46 256.589 96.08C255.589 95.7 254.889 95.11 254.489 94.31C254.089 93.49 253.859 92.46 253.799 91.22L253.169 74.54H257.369L257.999 89.21C258.039 90.13 258.139 90.82 258.299 91.28C258.459 91.74 258.759 92.05 259.199 92.21C259.659 92.37 260.329 92.45 261.209 92.45C261.969 92.45 262.509 92.65 262.829 93.05C263.169 93.43 263.339 93.91 263.339 94.49C263.339 95.11 263.129 95.63 262.709 96.05C262.289 96.45 261.689 96.65 260.909 96.65ZM260.83 96.65L261.13 92.45C262.53 92.45 263.79 92.36 264.91 92.18C266.03 91.98 267.01 91.72 267.85 91.4C268.71 91.08 269.42 90.71 269.98 90.29C270.56 89.87 270.99 89.43 271.27 88.97C271.57 88.49 271.72 88.02 271.72 87.56C271.72 87.3 271.65 87.06 271.51 86.84C271.39 86.6 271.18 86.41 270.88 86.27C270.58 86.11 270.17 86.03 269.65 86.03C269.39 86.03 269.08 86.06 268.72 86.12C268.36 86.18 268 86.27 267.64 86.39C267.28 86.49 266.94 86.63 266.62 86.81C267.04 87.13 267.5 87.54 268 88.04C268.5 88.52 269 89.03 269.5 89.57C270 90.09 270.43 90.6 270.79 91.1C271.21 91.28 271.67 91.46 272.17 91.64C272.69 91.8 273.25 91.94 273.85 92.06C274.45 92.18 275.08 92.28 275.74 92.36C276.4 92.42 277.08 92.45 277.78 92.45C278.54 92.45 279.08 92.65 279.4 93.05C279.74 93.43 279.91 93.91 279.91 94.49C279.91 95.11 279.7 95.63 279.28 96.05C278.86 96.45 278.26 96.65 277.48 96.65C275.88 96.65 274.46 96.53 273.22 96.29C271.98 96.03 270.87 95.66 269.89 95.18C268.93 94.68 268.03 94.08 267.19 93.38C266.95 92.96 266.61 92.51 266.17 92.03C265.75 91.53 265.3 91.05 264.82 90.59C264.36 90.13 263.94 89.75 263.56 89.45C263.46 89.37 263.34 89.16 263.2 88.82C263.08 88.46 262.97 88.09 262.87 87.71C262.77 87.31 262.72 87.03 262.72 86.87C262.72 86.41 262.93 85.92 263.35 85.4C263.79 84.88 264.37 84.4 265.09 83.96C265.83 83.5 266.64 83.13 267.52 82.85C268.42 82.55 269.33 82.4 270.25 82.4C271.49 82.4 272.52 82.59 273.34 82.97C274.18 83.33 274.81 83.84 275.23 84.5C275.65 85.14 275.86 85.89 275.86 86.75C275.86 87.71 275.65 88.67 275.23 89.63C274.81 90.57 274.19 91.46 273.37 92.3C272.57 93.14 271.56 93.89 270.34 94.55C269.14 95.19 267.74 95.7 266.14 96.08C264.56 96.46 262.79 96.65 260.83 96.65ZM277.503 96.65L277.803 92.45C278.723 92.45 279.383 92.36 279.783 92.18C280.183 91.98 280.423 91.62 280.503 91.1C280.583 90.56 280.603 89.78 280.563 88.76L280.023 74.54H284.253L284.853 89.06C284.893 90.22 284.843 91.27 284.703 92.21C284.583 93.13 284.273 93.92 283.773 94.58C283.293 95.24 282.543 95.75 281.523 96.11C280.523 96.47 279.183 96.65 277.503 96.65ZM288.809 96.5L288.179 74.54H292.379L293.009 96.5H288.809Z" fill="#F5B522"/>
<path d="M94.8444 51.1364V87.5H86.0731V59.3395H85.86L77.7279 64.3111V56.7116L86.6945 51.1364H94.8444ZM117.922 88.3878C114.75 88.3878 112.016 87.6361 109.719 86.1328C107.423 84.6177 105.653 82.4455 104.41 79.6165C103.167 76.7756 102.552 73.3606 102.564 69.3714C102.575 65.3823 103.197 61.9969 104.428 59.2152C105.671 56.4216 107.435 54.2969 109.719 52.8409C112.016 51.3731 114.75 50.6392 117.922 50.6392C121.095 50.6392 123.829 51.3731 126.125 52.8409C128.434 54.2969 130.209 56.4216 131.452 59.2152C132.695 62.0088 133.311 65.3942 133.299 69.3714C133.299 73.3724 132.677 76.7933 131.434 79.6342C130.191 82.4751 128.422 84.6473 126.125 86.1506C123.841 87.642 121.107 88.3878 117.922 88.3878ZM117.922 81.1967C119.816 81.1967 121.349 80.232 122.521 78.3026C123.693 76.3613 124.273 73.3842 124.261 69.3714C124.261 66.7436 123.995 64.5774 123.462 62.8729C122.929 61.1565 122.19 59.8781 121.243 59.0376C120.296 58.1972 119.189 57.777 117.922 57.777C116.04 57.777 114.519 58.7299 113.359 60.6357C112.199 62.5296 111.613 65.4415 111.601 69.3714C111.589 72.0348 111.844 74.2424 112.365 75.9943C112.897 77.7462 113.643 79.0542 114.602 79.9183C115.561 80.7706 116.668 81.1967 117.922 81.1967Z" fill="white"/>
</g>
<path d="M187.832 52.104C187.832 51.6133 187.875 51.0373 187.96 50.376C188.045 49.7147 188.205 48.968 188.44 48.136C188.675 47.2827 189.027 46.3333 189.496 45.288L193.432 46.664C193.197 47.3253 192.995 47.9333 192.824 48.488C192.653 49.0213 192.525 49.5227 192.44 49.992C192.355 50.44 192.312 50.888 192.312 51.336C192.312 51.976 192.451 52.5733 192.728 53.128C193.005 53.6827 193.421 54.1627 193.976 54.568C194.531 54.9947 195.213 55.3253 196.024 55.56C196.856 55.7947 197.816 55.912 198.904 55.912C200.141 55.912 201.229 55.7947 202.168 55.56C203.128 55.3467 203.928 55.0587 204.568 54.696C205.229 54.3547 205.731 53.992 206.072 53.608C206.413 53.224 206.584 52.872 206.584 52.552C206.584 52.296 206.403 52.072 206.04 51.88C205.699 51.688 205.24 51.496 204.664 51.304C204.109 51.0907 203.512 50.856 202.872 50.6C202.253 50.344 201.656 50.024 201.08 49.64C200.525 49.256 200.067 48.7867 199.704 48.232C199.363 47.6773 199.192 47.0053 199.192 46.216C199.192 45.4053 199.405 44.52 199.832 43.56C200.259 42.5787 200.867 41.6507 201.656 40.776C202.445 39.88 203.384 39.1547 204.472 38.6C205.581 38.024 206.797 37.736 208.12 37.736C209.059 37.736 209.912 37.8853 210.68 38.184C211.469 38.4827 212.131 38.824 212.664 39.208L211 42.952C210.552 42.6533 210.072 42.4293 209.56 42.28C209.048 42.1093 208.557 42.024 208.088 42.024C207.491 42.024 206.915 42.1413 206.36 42.376C205.827 42.6107 205.347 42.92 204.92 43.304C204.515 43.6667 204.195 44.0613 203.96 44.488C203.725 44.9147 203.608 45.32 203.608 45.704C203.608 46.088 203.789 46.4293 204.152 46.728C204.536 47.0053 205.027 47.272 205.624 47.528C206.221 47.7627 206.851 48.008 207.512 48.264C208.173 48.52 208.803 48.808 209.4 49.128C209.997 49.448 210.477 49.832 210.84 50.28C211.224 50.728 211.416 51.272 211.416 51.912C211.416 52.8293 211.128 53.7787 210.552 54.76C209.997 55.7627 209.165 56.6907 208.056 57.544C206.947 58.3973 205.581 59.08 203.96 59.592C202.36 60.1253 200.504 60.392 198.392 60.392C196.856 60.392 195.448 60.2107 194.168 59.848C192.888 59.5067 191.768 58.984 190.808 58.28C189.869 57.5973 189.133 56.7333 188.6 55.688C188.088 54.664 187.832 53.4693 187.832 52.104ZM215.105 60.36L214.177 55.88C215.692 55.688 217.015 55.4533 218.145 55.176C219.276 54.92 220.225 54.5573 220.993 54.088C221.761 53.6187 222.337 52.9787 222.721 52.168C223.105 51.336 223.297 50.2693 223.297 48.968C223.297 47.7093 223.105 46.7067 222.721 45.96C222.337 45.2133 221.825 44.84 221.185 44.84C220.737 44.84 220.364 45 220.065 45.32C219.767 45.6187 219.543 45.9813 219.393 46.408C219.265 46.8133 219.201 47.176 219.201 47.496C219.201 47.688 219.255 47.8907 219.361 48.104C219.468 48.3173 219.703 48.4987 220.065 48.648C220.428 48.7973 220.993 48.8827 221.761 48.904C222.551 48.9253 223.617 48.8507 224.961 48.68H230.337C231.148 48.68 231.724 48.8933 232.065 49.32C232.428 49.7253 232.609 50.2373 232.609 50.856C232.609 51.5173 232.385 52.072 231.937 52.52C231.489 52.9467 230.849 53.16 230.017 53.16H221.217C219.873 53.16 218.721 53 217.761 52.68C216.801 52.36 216.065 51.848 215.553 51.144C215.041 50.4187 214.785 49.4587 214.785 48.264C214.785 47.304 214.945 46.344 215.265 45.384C215.607 44.424 216.076 43.5493 216.673 42.76C217.271 41.9493 217.964 41.3093 218.753 40.84C219.564 40.3493 220.439 40.104 221.377 40.104C222.657 40.104 223.777 40.4987 224.737 41.288C225.697 42.0773 226.444 43.1227 226.977 44.424C227.532 45.7253 227.809 47.144 227.809 48.68C227.809 51.0907 227.297 53.1387 226.273 54.824C225.249 56.5093 223.788 57.8107 221.889 58.728C219.991 59.6667 217.729 60.2107 215.105 60.36ZM230.062 53.16L230.383 48.68C231.151 48.68 231.812 48.6053 232.367 48.456C232.921 48.3067 233.391 48.008 233.775 47.56C234.159 47.0907 234.479 46.408 234.735 45.512C235.012 44.616 235.257 43.4213 235.471 41.928L239.663 42.632C239.62 42.952 239.556 43.3253 239.47 43.752C239.407 44.1787 239.343 44.616 239.279 45.064C239.236 45.4907 239.215 45.896 239.215 46.28C239.215 46.664 239.289 47.0053 239.439 47.304C239.588 47.6027 239.823 47.8587 240.143 48.072C240.484 48.264 240.921 48.4133 241.455 48.52C242.009 48.6267 242.681 48.68 243.471 48.68C244.281 48.68 244.857 48.8933 245.199 49.32C245.54 49.7253 245.711 50.2373 245.711 50.856C245.711 51.5173 245.487 52.072 245.039 52.52C244.612 52.9467 243.983 53.16 243.151 53.16C242.191 53.16 241.316 53.0853 240.527 52.936C239.759 52.7867 239.087 52.5413 238.51 52.2C237.956 51.8373 237.497 51.368 237.135 50.792C236.793 50.1947 236.58 49.4693 236.495 48.616H238.031C237.647 49.64 237.156 50.4613 236.559 51.08C235.983 51.6773 235.332 52.1253 234.607 52.424C233.881 52.7227 233.124 52.9147 232.335 53C231.567 53.1067 230.809 53.16 230.062 53.16ZM240.335 39.048C239.716 39.048 239.183 38.8347 238.735 38.408C238.308 37.96 238.095 37.4373 238.095 36.84C238.095 36.2213 238.308 35.688 238.735 35.24C239.183 34.792 239.716 34.568 240.335 34.568C240.932 34.568 241.444 34.792 241.871 35.24C242.297 35.688 242.511 36.2213 242.511 36.84C242.511 37.4373 242.297 37.96 241.871 38.408C241.444 38.8347 240.932 39.048 240.335 39.048ZM234.799 39.016C234.18 39.016 233.647 38.8027 233.199 38.376C232.772 37.928 232.559 37.4053 232.559 36.808C232.559 36.1893 232.772 35.656 233.199 35.208C233.647 34.76 234.18 34.536 234.799 34.536C235.396 34.536 235.908 34.76 236.335 35.208C236.761 35.656 236.975 36.1893 236.975 36.808C236.975 37.4053 236.761 37.928 236.335 38.376C235.908 38.8027 235.396 39.016 234.799 39.016ZM243.156 53.16L243.476 48.68C244.18 48.68 244.756 48.6267 245.204 48.52C245.652 48.392 246.015 48.1253 246.292 47.72C246.591 47.2933 246.847 46.664 247.06 45.832C247.295 44.9787 247.551 43.8267 247.828 42.376L251.988 43.144C251.903 43.6133 251.786 44.2 251.636 44.904C251.508 45.608 251.444 46.216 251.444 46.728C251.444 47.1333 251.519 47.4853 251.668 47.784C251.839 48.0613 252.116 48.2853 252.5 48.456C252.906 48.6053 253.46 48.68 254.164 48.68C254.719 48.68 255.188 48.6267 255.572 48.52C255.978 48.392 256.319 48.1253 256.596 47.72C256.895 47.2933 257.151 46.6427 257.364 45.768C257.599 44.872 257.823 43.6667 258.036 42.152L262.26 42.824C262.175 43.3147 262.09 43.8373 262.004 44.392C261.919 44.9467 261.844 45.4587 261.78 45.928C261.716 46.3973 261.684 46.7813 261.684 47.08C261.684 47.3573 261.759 47.624 261.908 47.88C262.079 48.1147 262.378 48.3067 262.804 48.456C263.252 48.6053 263.871 48.68 264.66 48.68C265.62 48.68 266.324 48.4773 266.772 48.072C267.242 47.6453 267.476 47.0053 267.476 46.152C267.476 45.6613 267.466 45.1387 267.444 44.584C267.423 44.008 267.38 43.368 267.316 42.664C267.274 41.9387 267.188 41.1173 267.06 40.2L271.188 39.88C271.338 41.7147 271.508 43.208 271.7 44.36C271.892 45.512 272.148 46.408 272.468 47.048C272.81 47.6667 273.258 48.0933 273.812 48.328C274.388 48.5627 275.135 48.68 276.052 48.68C276.863 48.68 277.439 48.8933 277.78 49.32C278.143 49.7253 278.324 50.2373 278.324 50.856C278.324 51.5173 278.1 52.072 277.652 52.52C277.226 52.9467 276.586 53.16 275.732 53.16C275.156 53.16 274.559 53.1067 273.94 53C273.322 52.9147 272.724 52.7333 272.148 52.456C271.572 52.1573 271.06 51.7307 270.612 51.176C270.164 50.6213 269.812 49.8853 269.556 48.968L270.132 49.16C269.834 50.2267 269.428 51.048 268.916 51.624C268.404 52.2 267.775 52.6053 267.028 52.84C266.282 53.0533 265.386 53.16 264.34 53.16C263.38 53.16 262.527 53.032 261.78 52.776C261.034 52.52 260.436 52.104 259.988 51.528C259.562 50.9307 259.338 50.1307 259.316 49.128H260.404C259.978 50.3227 259.487 51.208 258.932 51.784C258.378 52.36 257.706 52.7333 256.916 52.904C256.127 53.0747 255.135 53.16 253.94 53.16C253.215 53.16 252.5 53.0853 251.796 52.936C251.092 52.7653 250.463 52.392 249.908 51.816C249.354 51.2187 248.948 50.28 248.692 49L250.42 48.936C249.972 50.1947 249.386 51.1227 248.66 51.72C247.956 52.3173 247.146 52.712 246.228 52.904C245.311 53.0747 244.287 53.16 243.156 53.16ZM275.75 53.16L276.07 48.68C276.603 48.68 277.009 48.5733 277.286 48.36C277.563 48.1467 277.841 47.7733 278.118 47.24C278.395 46.7067 278.779 45.9813 279.27 45.064C279.803 44.04 280.358 43.1867 280.934 42.504C281.51 41.8 282.086 41.2453 282.662 40.84C283.259 40.4133 283.846 40.1147 284.422 39.944C285.019 39.752 285.606 39.656 286.182 39.656C286.971 39.656 287.707 39.8267 288.39 40.168C289.094 40.488 289.766 41.0533 290.406 41.864C291.046 42.6533 291.654 43.7413 292.23 45.128C292.635 46.088 293.041 46.824 293.446 47.336C293.851 47.848 294.267 48.2 294.694 48.392C295.142 48.584 295.59 48.68 296.038 48.68C296.849 48.68 297.425 48.8933 297.766 49.32C298.107 49.7253 298.278 50.2373 298.278 50.856C298.278 51.5173 298.054 52.072 297.606 52.52C297.158 52.9467 296.529 53.16 295.718 53.16C294.673 53.16 293.723 52.9893 292.87 52.648C292.017 52.3067 291.345 51.7947 290.854 51.112L291.782 50.408C291.59 50.856 291.302 51.3253 290.918 51.816C290.555 52.3067 290.075 52.7227 289.478 53.064C288.902 53.4053 288.209 53.576 287.398 53.576C286.865 53.576 286.235 53.4693 285.51 53.256C284.806 53.064 284.07 52.7333 283.302 52.264C282.555 51.7733 281.862 51.112 281.222 50.28C280.817 51.0267 280.369 51.6133 279.878 52.04C279.387 52.4453 278.811 52.7333 278.15 52.904C277.489 53.0747 276.689 53.16 275.75 53.16ZM283.078 46.504C283.291 46.824 283.547 47.144 283.846 47.464C284.145 47.784 284.475 48.072 284.838 48.328C285.201 48.5627 285.585 48.7547 285.99 48.904C286.417 49.0533 286.833 49.128 287.238 49.128C287.665 49.128 288.017 48.968 288.294 48.648C288.571 48.3067 288.582 47.8053 288.326 47.144C288.219 46.8667 288.07 46.5573 287.878 46.216C287.707 45.8533 287.505 45.512 287.27 45.192C287.057 44.872 286.811 44.6053 286.534 44.392C286.278 44.1787 286.011 44.072 285.734 44.072C285.457 44.072 285.169 44.1573 284.87 44.328C284.571 44.4987 284.273 44.7653 283.974 45.128C283.675 45.4693 283.377 45.928 283.078 46.504ZM295.719 53.16L296.039 48.68C297.02 48.68 297.724 48.584 298.151 48.392C298.577 48.1787 298.833 47.7947 298.919 47.24C299.004 46.664 299.025 45.832 298.983 44.744L298.407 29.576H302.919L303.559 45.064C303.601 46.3013 303.548 47.4213 303.399 48.424C303.271 49.4053 302.94 50.248 302.407 50.952C301.895 51.656 301.095 52.2 300.007 52.584C298.94 52.968 297.511 53.16 295.719 53.16ZM307.779 53L307.107 29.576H311.587L312.259 53H307.779Z" fill="#454545"/>
</g>
<defs>
<filter id="filter0_d_2549_496" x="61" y="25.1953" width="91.446" height="91.4457" filterUnits="userSpaceOnUse" color-interpolation-filters="sRGB">
<feFlood flood-opacity="0" result="BackgroundImageFix"/>
<feColorMatrix in="SourceAlpha" type="matrix" values="0 0 0 0 0 0 0 0 0 0 0 0 0 0 0 0 0 0 127 0" result="hardAlpha"/>
<feOffset dy="4"/>
<feGaussianBlur stdDeviation="2"/>
<feComposite in2="hardAlpha" operator="out"/>
<feColorMatrix type="matrix" values="0 0 0 0 0 0 0 0 0 0 0 0 0 0 0 0 0 0 0.25 0"/>
<feBlend mode="normal" in2="BackgroundImageFix" result="effect1_dropShadow_2549_496"/>
<feBlend mode="normal" in="SourceGraphic" in2="effect1_dropShadow_2549_496" result="shape"/>
</filter>
<clipPath id="clip0_2549_496">
<rect width="374" height="139" fill="white" transform="translate(0 0.5)"/>
</clipPath>
</defs>
</svg>
