<svg width="374" height="139" viewBox="0 0 374 139" fill="none" xmlns="http://www.w3.org/2000/svg">
<g clip-path="url(#clip0_8_803)">
<rect width="374" height="138.5" fill="white"/>
<rect width="374" height="138" fill="url(#paint0_linear_8_803)"/>
<g clip-path="url(#clip1_8_803)">
<g style="mix-blend-mode:exclusion">
<g opacity="0.2">
<path fill-rule="evenodd" clip-rule="evenodd" d="M-14 85.165C-13.7146 85.149 -13.4302 85.129 -13.1438 85.108L-14 84.256V85.165ZM-11.8485 84.989L-14 82.847V81.439L-10.5834 84.836C-11.0041 84.892 -11.4258 84.943 -11.8485 84.989ZM-9.35741 84.651L-14 80.031V78.623L-8.15556 84.438C-8.55417 84.5146 -8.95478 84.5856 -9.35741 84.651ZM-6.98286 84.198C-6.59765 84.1133 -6.21512 84.0246 -5.83527 83.932L-14 75.806V77.214L-6.98286 84.198ZM-4.71381 83.639C-4.3467 83.5383 -3.98092 83.433 -3.61648 83.323L-14 72.99V74.398L-4.71482 83.639H-4.71381ZM-2.54225 82.983C-2.18987 82.867 -1.8395 82.7463 -1.49113 82.621L-14 70.174V71.583L-2.54426 82.983H-2.54225ZM-0.462127 82.238C-0.123814 82.1046 0.211149 81.9713 0.542763 81.838L-14 67.357V68.765L-0.462127 82.238ZM1.53459 81.409C1.86017 81.2643 2.18308 81.116 2.5033 80.964L-14 64.541V65.949L1.53459 81.409V81.409ZM3.45292 80.501C3.76511 80.3443 4.07495 80.1836 4.38244 80.019L-14 61.725V63.133L3.45292 80.501V80.501ZM5.29589 79.518C5.59602 79.3493 5.89413 79.1766 6.19024 79L-14 58.908V60.317L5.29388 79.517L5.29589 79.518ZM7.06651 78.465L-14 57.501V56.093L7.92569 77.911C7.64164 78.099 7.35524 78.2836 7.06651 78.465V78.465ZM8.76778 77.342L-14 54.683V53.275L9.59481 76.755C9.32148 76.955 9.04614 77.1506 8.76879 77.342H8.76778ZM10.4027 76.153L-14 51.865V50.456L11.1966 75.533C10.934 75.743 10.6694 75.9496 10.4027 76.153V76.153ZM11.9734 74.898L-14 49.05V47.643L12.7301 74.243C12.4795 74.4636 12.2263 74.6806 11.9704 74.894L11.9734 74.898ZM13.4807 73.58L-14 46.235V44.826L14.2073 72.896C13.9667 73.126 13.7236 73.3536 13.4777 73.579L13.4807 73.58ZM14.9227 72.199L-14 43.418V42.01L15.6161 71.483C15.3863 71.7236 15.1542 71.962 14.9197 72.198L14.9227 72.199ZM16.3004 70.754L-14 40.602V39.195L16.9627 70.007C16.7429 70.2576 16.5212 70.5063 16.2974 70.753L16.3004 70.754ZM17.6158 69.246L-14 37.786V36.377L18.2449 68.465C18.0372 68.7263 17.8262 68.9856 17.6118 69.243L17.6158 69.246ZM18.8599 67.672L-14 34.965L-14 33.565L19.4628 66.865C19.2659 67.1376 19.0649 67.4076 18.8599 67.675V67.672ZM20.0447 66.035L-14 32.153V30.745L20.6154 65.192C20.4299 65.4753 20.2406 65.7563 20.0477 66.035H20.0447ZM21.1711 64.333L-14 29.333V27.925L21.6997 63.455C21.5249 63.749 21.347 64.0413 21.1661 64.332L21.1711 64.333ZM22.2162 62.565L-14 26.52V25.112L22.7136 61.648C22.5508 61.9546 22.3834 62.2586 22.2112 62.56L22.2162 62.565ZM23.194 60.721L-14 23.704V22.295L23.6552 59.765C23.5052 60.083 23.3511 60.3993 23.193 60.714L23.194 60.721ZM24.0984 58.804C24.2438 58.4766 24.3848 58.1473 24.5214 57.816L-14 19.479L-14 20.888L24.0964 58.799L24.0984 58.804ZM24.9224 56.804C25.0564 56.4626 25.1837 56.1196 25.3042 55.775L-14 16.665V18.071L24.9214 56.803L24.9224 56.804ZM25.663 54.724C25.7802 54.368 25.8924 54.0103 25.9996 53.651L-14 13.847V15.255L25.661 54.723L25.663 54.724ZM26.3132 52.555C26.4136 52.182 26.5141 51.81 26.6016 51.434L-14 11.03V12.438L26.3111 52.554L26.3132 52.555ZM26.8638 50.287C26.9482 49.897 27.0246 49.505 27.098 49.111L-14 8.21398V9.62198L26.8618 50.286L26.8638 50.287ZM27.304 47.908C27.3683 47.498 27.4266 47.087 27.4798 46.674L-14 5.39798L-14 6.80598L27.301 47.906L27.304 47.908ZM27.6245 45.408C27.6667 44.976 27.7049 44.544 27.7351 44.108L-14 2.58198V3.98898L27.6215 45.409L27.6245 45.408ZM27.8044 42.771C27.8215 42.312 27.8305 41.853 27.8336 41.392L-14 -0.235023V1.17298L27.8034 42.773L27.8044 42.771ZM27.8225 39.971C27.8225 39.893 27.8225 39.815 27.8225 39.737C27.8104 39.3283 27.7927 38.9183 27.7692 38.507L-13.8885 -2.94003L-14 -2.93502V-1.64302L27.8195 39.973L27.8225 39.971ZM27.6497 36.982C27.6088 36.556 27.5626 36.1323 27.511 35.711C27.511 35.62 27.511 35.528 27.511 35.435L-11.2727 -3.15402L-12.5791 -3.04702L27.6466 36.984L27.6497 36.982ZM27.5492 34.061C27.5703 33.636 27.6004 33.196 27.6446 32.747L-8.65801 -3.36802L-9.96436 -3.26102L27.5411 34.065L27.5492 34.061ZM27.7974 31.491C27.8547 31.091 27.924 30.691 28.0044 30.291L-6.04228 -3.58102L-7.34864 -3.47402L27.7893 31.493L27.7974 31.491ZM28.2677 29.144C28.3621 28.7793 28.4676 28.415 28.5842 28.051L-3.42655 -3.79502L-4.73291 -3.68802L28.2606 29.146L28.2677 29.144ZM28.955 27.012C29.085 26.6786 29.2267 26.35 29.3801 26.026L-0.810824 -4.00802L-2.11718 -3.90102L28.948 27.014L28.955 27.012ZM29.8594 25.094C30.0262 24.794 30.2031 24.503 30.392 24.216L1.8039 -4.22202L0.497542 -4.11502L29.8504 25.096L29.8594 25.094ZM30.9809 23.394C31.1818 23.132 31.3969 22.8763 31.626 22.627L4.41963 -4.43502L3.11327 -4.32903L30.9718 23.396L30.9809 23.394ZM32.3254 21.916L5.73603 -4.54402L7.04239 -4.65102L33.0771 21.265C32.8091 21.475 32.5555 21.6923 32.3164 21.917L32.3254 21.916ZM33.9001 20.666L8.34271 -4.75502L9.64907 -4.86302L34.7613 20.127C34.4698 20.294 34.1784 20.473 33.89 20.668L33.9001 20.666ZM35.7008 19.641L10.9594 -4.97002L12.2658 -5.07702L36.6846 19.223C36.352 19.345 36.0194 19.483 35.6878 19.639L35.7008 19.641ZM37.7679 18.881L13.5742 -5.18302L14.8805 -5.29002L38.9115 18.623C38.5289 18.6896 38.1444 18.7763 37.7578 18.883L37.7679 18.881ZM40.1696 18.456L16.1889 -5.39702L17.4952 -5.50402L41.5212 18.403C41.076 18.403 40.6168 18.418 40.1605 18.458L40.1696 18.456ZM43.0255 18.481L18.8046 -5.61102L20.111 -5.71803L44.6856 18.733C44.156 18.628 43.5993 18.541 43.0194 18.483L43.0255 18.481ZM46.5888 19.211L21.4203 -5.82402L22.7267 -5.93102L48.8538 20.074C48.1132 19.7392 47.352 19.4516 46.5747 19.213L46.5888 19.211ZM51.8705 21.665L24.0351 -6.03502L25.3414 -6.14202L54.4621 22.832C53.5812 22.4753 52.7173 22.085 51.8705 21.661V21.665ZM56.701 23.656L26.6548 -6.24402L27.9612 -6.35102L58.7148 24.248C58.0369 24.0686 57.3669 23.8686 56.705 23.648L56.701 23.656ZM60.5688 24.688L29.2675 -6.46402L30.5739 -6.57102L62.2983 24.998C61.7168 24.908 61.14 24.8036 60.5678 24.685L60.5688 24.688ZM63.9312 25.217C64.445 25.273 64.9615 25.3176 65.4807 25.351L33.1906 -6.78502L31.8843 -6.67802L63.9302 25.213L63.9312 25.217ZM66.9599 25.417C67.4289 25.4276 67.9018 25.4276 68.3788 25.417L35.8063 -6.99902L34.5 -6.89202L66.9579 25.408L66.9599 25.417ZM69.7465 25.373C70.0734 25.3556 70.4003 25.3333 70.7273 25.306C70.8398 25.297 70.9504 25.285 71.0629 25.274L38.4211 -7.21302L37.1147 -7.10603L69.7455 25.365L69.7465 25.373ZM72.3391 25.137C72.7538 25.0843 73.1661 25.0246 73.5761 24.958L41.0368 -7.42603L39.7304 -7.31902L72.3391 25.132V25.137ZM74.774 24.743C75.1639 24.665 75.5527 24.584 75.9386 24.493L43.6525 -7.63503L42.3462 -7.52802L74.773 24.738L74.774 24.743ZM77.0701 24.211C77.4386 24.1123 77.805 24.008 78.1695 23.898L46.2683 -7.85302L44.9619 -7.74603L77.0691 24.206L77.0701 24.211ZM79.2417 23.555C79.5921 23.4376 79.9404 23.315 80.2868 23.187L48.883 -8.06702L47.5766 -7.96002L79.2417 23.55V23.555ZM81.3017 22.789C81.6367 22.6556 81.967 22.515 82.2925 22.367L51.4997 -8.28002L50.1934 -8.17302L81.3007 22.784L81.3017 22.789ZM83.2603 21.921C83.5778 21.769 83.8923 21.613 84.2038 21.453L54.1144 -8.49402L52.8081 -8.38702L83.2562 21.913L83.2603 21.921ZM85.1233 20.959C85.4241 20.791 85.7229 20.6186 86.0197 20.442L56.7292 -8.70802L55.4228 -8.60102L85.1213 20.954L85.1233 20.959ZM86.8939 19.905C87.1813 19.722 87.4667 19.537 87.7481 19.347L59.3449 -8.92102L58.0385 -8.81402L86.8909 19.901L86.8939 19.905ZM88.5821 18.768C88.8555 18.568 89.1248 18.368 89.3931 18.168L61.9596 -9.13202L60.6532 -9.02602L88.5801 18.765L88.5821 18.768ZM90.1839 17.545L63.268 -9.24202L64.5743 -9.34902L90.9507 16.899C90.6974 17.117 90.4405 17.331 90.1799 17.541L90.1839 17.545ZM91.7063 16.245L65.8887 -9.45502L67.1951 -9.56202L92.4359 15.565C92.1957 15.795 91.9515 16.021 91.7043 16.244L91.7063 16.245ZM93.1494 14.865L68.5014 -9.66902L69.8078 -9.77602L93.8387 14.138C93.6116 14.3813 93.3812 14.6216 93.1474 14.859L93.1494 14.865ZM94.511 13.404L71.1141 -9.88202L72.4205 -9.98902L95.1602 12.639C94.9464 12.895 94.7287 13.148 94.507 13.398L94.511 13.404ZM95.7952 11.866L73.7269 -10.096L75.0332 -10.203L96.4062 11.065C96.2052 11.3316 96.0009 11.5983 95.7932 11.865L95.7952 11.866ZM97.0011 10.246L76.3506 -10.304L77.657 -10.411L97.5699 9.40398C97.3836 9.68731 97.194 9.96798 97.0011 10.246ZM98.1196 8.54597L78.9664 -10.514L80.2727 -10.621L98.6481 7.65498C98.476 7.95164 98.2998 8.24598 98.1196 8.53798V8.54597ZM99.1536 6.75898L81.5761 -10.735L82.8824 -10.842L99.6279 5.82198C99.4711 6.13398 99.3124 6.44498 99.1466 6.75098L99.1536 6.75898ZM100.094 4.87798L84.1928 -10.95L85.4991 -11.056L100.524 3.89498C100.384 4.22298 100.238 4.54698 100.088 4.86998L100.094 4.87798ZM100.94 2.90398L86.8115 -11.156L88.1179 -11.263L101.318 1.86497C101.196 2.20964 101.068 2.55198 100.935 2.89198L100.94 2.90398ZM101.68 0.822975C101.794 0.464975 101.906 0.104981 102.008 -0.257019L90.7306 -11.484L89.4242 -11.377L101.676 0.81498L101.68 0.822975ZM102.306 -1.37003C102.401 -1.74869 102.49 -2.12969 102.572 -2.51302L93.3503 -11.689L92.044 -11.582L102.306 -1.36902V-1.37003ZM102.808 -3.68802C102.881 -4.08802 102.944 -4.49702 103.002 -4.90402L95.9681 -11.904L94.6617 -11.797L102.809 -3.68902L102.808 -3.68802ZM103.16 -6.15502C103.206 -6.58502 103.243 -7.01836 103.273 -7.45502L98.5778 -12.125L97.2714 -12.018L103.155 -6.16302L103.16 -6.15502ZM103.341 -8.79002C103.356 -9.25302 103.358 -9.71802 103.356 -10.184L101.193 -12.335L99.8861 -12.228L103.336 -8.79502L103.341 -8.79002ZM103.316 -11.632L102.512 -12.432L103.268 -12.494C103.282 -12.2134 103.296 -11.929 103.31 -11.641L103.316 -11.632Z" fill="#6D6D6D"/>
<path fill-rule="evenodd" clip-rule="evenodd" d="M-14 69.991C-13.2142 70.0357 -12.4217 70.058 -11.6224 70.058C-0.732413 70.0578 9.74237 65.8993 17.6421 58.4399C25.5417 50.9806 30.264 40.7891 30.8352 29.967V29.967C30.8733 29.2337 30.8924 28.4953 30.8924 27.752C30.8924 27.201 30.8784 26.652 30.8573 26.104C31.1587 22.075 32.4651 15.904 37.3961 12.695C45.1026 7.66798 53.3517 13.388 53.3517 13.388C58.425 16.9341 64.3757 19.0328 70.5607 19.4574C76.7457 19.882 82.9296 18.6162 88.4441 15.7969C93.9586 12.9776 98.5938 8.71202 101.849 3.46124C105.104 -1.78953 106.855 -7.82578 106.912 -13.995L-14 -13.995L-14 69.991Z" fill="#676767"/>
<path fill-rule="evenodd" clip-rule="evenodd" d="M-14 31.889C-6.68299 32.1205 0.597862 30.7754 7.34386 27.946C18.9923 23.0873 28.4015 14.0805 33.7323 2.68596C34.3543 1.35596 34.9271 -0.0330466 35.5009 -1.42205C37.5056 -6.27505 39.5144 -11.141 43.9128 -14H42.3693C38.4884 -10.974 36.5811 -6.36005 34.6809 -1.75705C34.1161 -0.387046 33.5494 0.981957 32.9263 2.31696C27.6905 13.5129 18.4467 22.363 7.00219 27.137C0.364251 29.9206 -6.80052 31.2416 -14 31.009L-14 31.889ZM60.182 -13.999C62.2825 -12.7096 64.1339 -11.0562 65.6486 -9.11705L65.6727 -9.08704C69.7332 -3.44815 75.1786 1.06076 81.4888 4.00913C87.7991 6.95751 94.7634 8.24692 101.717 7.75425C108.671 7.26157 115.381 5.00326 121.208 1.19495C127.035 -2.61337 131.783 -7.84453 135 -13.999H134.002C130.806 -8.04056 126.135 -2.99245 120.431 0.667286C114.726 4.32702 108.178 6.47724 101.405 6.91434C94.6319 7.35144 87.859 6.06094 81.7274 3.16506C75.5958 0.269183 70.3085 -4.13624 66.366 -9.63404V-9.63404C66.358 -9.64604 66.349 -9.65705 66.3399 -9.66805C65.0395 -11.326 63.5017 -12.7852 61.7757 -13.999H60.182Z" fill="#6D6D6D"/>
</g>
</g>
<g style="mix-blend-mode:exclusion">
<g opacity="0.2">
<path fill-rule="evenodd" clip-rule="evenodd" d="M387 52.9999C386.715 53.016 386.43 53.0362 386.144 53.0573L387 53.9151V52.9999ZM384.849 53.1771L387 55.3336V56.7511L383.583 53.3312C384.004 53.2748 384.426 53.2234 384.849 53.1771ZM382.357 53.5174L387 58.1686V59.5861L381.156 53.7319C381.554 53.6547 381.955 53.5832 382.357 53.5174ZM379.983 53.9735C379.598 54.0587 379.215 54.148 378.835 54.2413L387 62.4222V61.0047L379.983 53.9735ZM377.714 54.5362C377.347 54.6376 376.981 54.7436 376.616 54.8544L387 65.2572V63.8397L377.715 54.5362H377.714ZM375.542 55.1967C375.19 55.3135 374.839 55.4349 374.491 55.5611L387 68.0922V66.6737L375.544 55.1967H375.542ZM373.462 55.9467C373.124 56.0809 372.789 56.2152 372.457 56.3494L387 70.9283V69.5107L373.462 55.9467ZM371.465 56.7813C371.14 56.927 370.817 57.0763 370.497 57.2293L387 73.7633V72.3458L371.465 56.7813V56.7813ZM369.547 57.6955C369.235 57.8532 368.925 58.0149 368.618 58.1807L387 76.5983V75.1808L369.547 57.6955V57.6955ZM367.704 58.6851C367.404 58.8549 367.106 59.0287 366.81 59.2066L387 79.4343V78.0158L367.706 58.6861L367.704 58.6851ZM365.933 59.7452L387 80.8508V82.2684L365.074 60.303C365.358 60.1137 365.645 59.9278 365.933 59.7452V59.7452ZM364.232 60.8758L387 83.6879V85.1054L363.405 61.4668C363.679 61.2654 363.954 61.0684 364.231 60.8758H364.232ZM362.597 62.0728L387 86.5249V87.9434L361.803 62.697C362.066 62.4856 362.331 62.2775 362.597 62.0728V62.0728ZM361.027 63.3363L387 89.3589V90.7755L360.27 63.9957C360.52 63.7736 360.774 63.5551 361.03 63.3403L361.027 63.3363ZM359.519 64.6632L387 92.193V93.6115L358.793 65.3518C359.033 65.1203 359.276 64.8911 359.522 64.6642L359.519 64.6632ZM358.077 66.0535L387 95.029V96.4465L357.384 66.7744C357.614 66.5321 357.846 66.2921 358.08 66.0545L358.077 66.0535ZM356.7 67.5083L387 97.864V99.2805L356.037 68.2604C356.257 68.008 356.479 67.7576 356.703 67.5093L356.7 67.5083ZM355.384 69.0265L387 100.699V102.118L354.755 69.8128C354.963 69.5497 355.174 69.2886 355.388 69.0295L355.384 69.0265ZM354.14 70.6111L387 103.539V104.949L353.537 71.4236C353.734 71.1491 353.935 70.8772 354.14 70.6081V70.6111ZM352.955 72.2592L387 106.37V107.788L352.385 73.1079C352.57 72.8226 352.759 72.5397 352.952 72.2592H352.955ZM351.829 73.9727L387 109.209V110.627L351.3 74.8566C351.475 74.5606 351.653 74.2663 351.834 73.9737L351.829 73.9727ZM350.784 75.7526L387 112.041V113.459L350.286 76.6758C350.449 76.3671 350.617 76.061 350.789 75.7577L350.784 75.7526ZM349.806 77.6091L387 114.876V116.295L349.345 78.5716C349.495 78.2514 349.649 77.9329 349.807 77.6161L349.806 77.6091ZM348.902 79.539C348.756 79.8686 348.615 80.2001 348.479 80.5337L387 119.13V117.711L348.904 79.5441L348.902 79.539ZM348.078 81.5526C347.944 81.8962 347.816 82.2415 347.696 82.5885L387 121.963V120.547L348.079 81.5536L348.078 81.5526ZM347.337 83.6466C347.22 84.005 347.108 84.3651 347 84.7269L387 124.8V123.382L347.339 83.6476L347.337 83.6466ZM346.687 85.8303C346.586 86.2058 346.486 86.5803 346.398 86.9588L387 127.636V126.218L346.689 85.8313L346.687 85.8303ZM346.136 88.1136C346.052 88.5062 345.975 88.9009 345.902 89.2975L387 130.471V129.053L346.138 88.1146L346.136 88.1136ZM345.696 90.5087C345.632 90.9214 345.573 91.3352 345.52 91.751L387 133.306V131.888L345.699 90.5107L345.696 90.5087ZM345.375 93.0256C345.333 93.4605 345.295 93.8954 345.265 94.3343L387 136.141V134.724L345.378 93.0245L345.375 93.0256ZM345.196 95.6804C345.179 96.1425 345.169 96.6046 345.166 97.0687L387 138.977V137.559L345.197 95.6784L345.196 95.6804ZM345.177 98.4993C345.177 98.5778 345.177 98.6563 345.177 98.7349C345.19 99.1463 345.207 99.5591 345.231 99.9732L386.888 141.7L387 141.695V140.394L345.181 98.4973L345.177 98.4993ZM345.35 101.508C345.391 101.937 345.437 102.364 345.489 102.788C345.489 102.88 345.489 102.972 345.489 103.066L384.273 141.916L385.579 141.808L345.353 101.506L345.35 101.508ZM345.451 104.449C345.43 104.877 345.4 105.32 345.355 105.772L381.658 142.131L382.964 142.023L345.459 104.445L345.451 104.449ZM345.203 107.037C345.145 107.439 345.076 107.842 344.996 108.245L379.042 142.346L380.349 142.238L345.211 107.035L345.203 107.037ZM344.732 109.399C344.638 109.767 344.532 110.133 344.416 110.5L376.427 142.561L377.733 142.453L344.739 109.397L344.732 109.399ZM344.045 111.546C343.915 111.881 343.773 112.212 343.62 112.539L373.811 142.775L375.117 142.668L344.052 111.544L344.045 111.546ZM343.141 113.477C342.974 113.779 342.797 114.072 342.608 114.361L371.196 142.991L372.502 142.883L343.15 113.475L343.141 113.477ZM342.019 115.188C341.818 115.452 341.603 115.709 341.374 115.96L368.58 143.205L369.887 143.099L342.028 115.186L342.019 115.188ZM340.675 116.676L367.264 143.315L365.958 143.423L339.923 117.332C340.191 117.12 340.444 116.901 340.684 116.675L340.675 116.676ZM339.1 117.935L364.657 143.527L363.351 143.636L338.239 118.477C338.53 118.309 338.822 118.129 339.11 117.933L339.1 117.935ZM337.299 118.967L362.041 143.744L360.734 143.852L336.315 119.387C336.648 119.265 336.981 119.126 337.312 118.969L337.299 118.967ZM335.232 119.732L359.426 143.958L358.119 144.066L334.089 119.992C334.471 119.924 334.856 119.837 335.242 119.73L335.232 119.732ZM332.83 120.16L356.811 144.174L355.505 144.282L331.479 120.213C331.924 120.213 332.383 120.198 332.839 120.158L332.83 120.16ZM329.975 120.134L354.195 144.389L352.889 144.497L328.314 119.881C328.844 119.986 329.401 120.074 329.981 120.132L329.975 120.134ZM326.411 119.4L351.58 144.604L350.273 144.711L324.146 118.531C324.887 118.868 325.648 119.157 326.425 119.398L326.411 119.4ZM321.129 116.929L348.965 144.816L347.659 144.924L318.538 115.754C319.419 116.113 320.283 116.506 321.129 116.933V116.929ZM316.299 114.925L346.345 145.027L345.039 145.134L314.285 114.329C314.963 114.509 315.633 114.71 316.295 114.933L316.299 114.925ZM312.431 113.886L343.732 145.248L342.426 145.356L310.702 113.573C311.283 113.664 311.86 113.769 312.432 113.889L312.431 113.886ZM309.069 113.353C308.555 113.297 308.038 113.252 307.519 113.218L339.809 145.571L341.116 145.463L309.07 113.357L309.069 113.353ZM306.04 113.152C305.571 113.141 305.098 113.141 304.621 113.152L337.194 145.787L338.5 145.679L306.042 113.161L306.04 113.152ZM303.254 113.196C302.927 113.213 302.6 113.236 302.273 113.263C302.16 113.272 302.05 113.285 301.937 113.296L334.579 146.002L335.885 145.894L303.255 113.204L303.254 113.196ZM300.661 113.434C300.246 113.487 299.834 113.547 299.424 113.614L331.963 146.217L333.27 146.109L300.661 113.439V113.434ZM298.226 113.83C297.836 113.909 297.447 113.99 297.061 114.082L329.347 146.427L330.654 146.319L298.227 113.835L298.226 113.83ZM295.93 114.366C295.561 114.465 295.195 114.57 294.831 114.681L326.732 146.646L328.038 146.539L295.931 114.371L295.93 114.366ZM293.758 115.026C293.408 115.144 293.06 115.268 292.713 115.397L324.117 146.862L325.423 146.754L293.758 115.031V115.026ZM291.698 115.797C291.363 115.932 291.033 116.073 290.707 116.222L321.5 147.076L322.807 146.969L291.699 115.802L291.698 115.797ZM289.74 116.671C289.422 116.824 289.108 116.981 288.796 117.142L318.886 147.292L320.192 147.184L289.744 116.679L289.74 116.671ZM287.877 117.64C287.576 117.809 287.277 117.982 286.98 118.16L316.271 147.507L317.577 147.399L287.879 117.645L287.877 117.64ZM286.106 118.701C285.819 118.885 285.533 119.071 285.252 119.263L313.655 147.722L314.961 147.614L286.109 118.705L286.106 118.701ZM284.418 119.846C284.145 120.047 283.875 120.248 283.607 120.45L311.04 147.934L312.347 147.827L284.42 119.849L284.418 119.846ZM282.816 121.077L309.732 148.045L308.426 148.153L282.049 121.727C282.303 121.508 282.559 121.292 282.82 121.081L282.816 121.077ZM281.294 122.386L307.111 148.259L305.805 148.367L280.564 123.07C280.804 122.839 281.048 122.611 281.296 122.387L281.294 122.386ZM279.851 123.775L304.499 148.475L303.192 148.582L279.161 124.507C279.388 124.262 279.619 124.02 279.853 123.781L279.851 123.775ZM278.489 125.246L301.886 148.689L300.579 148.797L277.84 126.016C278.054 125.758 278.271 125.504 278.493 125.252L278.489 125.246ZM277.205 126.794L299.273 148.905L297.967 149.012L276.594 127.601C276.795 127.332 276.999 127.064 277.207 126.795L277.205 126.794ZM275.999 128.425L296.649 149.114L295.343 149.222L275.43 129.273C275.616 128.988 275.806 128.705 275.999 128.425ZM274.88 130.137L294.034 149.325L292.727 149.433L274.352 131.034C274.524 130.735 274.7 130.439 274.88 130.145V130.137ZM273.846 131.936L291.424 149.548L290.118 149.656L273.372 132.879C273.529 132.565 273.688 132.252 273.853 131.944L273.846 131.936ZM272.906 133.829L288.807 149.764L287.501 149.871L272.476 134.819C272.616 134.489 272.762 134.163 272.912 133.837L272.906 133.829ZM272.06 135.817L286.188 149.972L284.882 150.079L271.682 136.863C271.804 136.516 271.932 136.171 272.065 135.829L272.06 135.817ZM271.32 137.912C271.206 138.272 271.094 138.635 270.992 138.999L282.269 150.302L283.576 150.194L271.324 137.92L271.32 137.912ZM270.694 140.12C270.599 140.501 270.51 140.884 270.428 141.27L279.65 150.508L280.956 150.401L270.694 140.119V140.12ZM270.192 142.453C270.119 142.856 270.056 143.268 269.998 143.677L277.032 150.725L278.338 150.617L270.191 142.454L270.192 142.453ZM269.84 144.937C269.794 145.37 269.757 145.806 269.727 146.246L274.422 150.947L275.729 150.84L269.845 144.945L269.84 144.937ZM269.659 147.59C269.644 148.056 269.642 148.524 269.644 148.993L271.807 151.159L273.114 151.051L269.664 147.595L269.659 147.59ZM269.684 150.451L270.488 151.256L269.732 151.319C269.718 151.036 269.704 150.75 269.69 150.46L269.684 150.451Z" fill="#6D6D6D"/>
<path fill-rule="evenodd" clip-rule="evenodd" d="M387 68.2764C386.214 68.2315 385.422 68.209 384.622 68.209C373.732 68.2092 363.258 72.3958 355.358 79.9055C347.458 87.4153 342.736 97.6756 342.165 108.571V108.571C342.127 109.309 342.108 110.052 342.108 110.801C342.108 111.356 342.122 111.908 342.143 112.46C341.841 116.516 340.535 122.729 335.604 125.96C327.897 131.021 319.648 125.262 319.648 125.262C314.575 121.692 308.624 119.579 302.439 119.151C296.254 118.724 290.07 119.998 284.556 122.837C279.041 125.675 274.406 129.969 271.151 135.256C267.896 140.542 266.145 146.619 266.088 152.83H387V68.2764Z" fill="#676767"/>
<path fill-rule="evenodd" clip-rule="evenodd" d="M387 106.636C379.683 106.403 372.402 107.757 365.656 110.606C354.008 115.497 344.599 124.565 339.268 136.036C338.646 137.375 338.073 138.774 337.499 140.172C335.494 145.058 333.486 149.957 329.087 152.835H330.631C334.512 149.788 336.419 145.143 338.319 140.509C338.884 139.13 339.451 137.752 340.074 136.408C345.31 125.136 354.553 116.226 365.998 111.42C372.636 108.617 379.801 107.288 387 107.522V106.636ZM312.818 152.834C310.718 151.536 308.866 149.871 307.351 147.919L307.327 147.889C303.267 142.212 297.821 137.672 291.511 134.704C285.201 131.736 278.237 130.438 271.283 130.934C264.329 131.43 257.619 133.703 251.792 137.537C245.965 141.371 241.217 146.638 238 152.834H238.998C242.194 146.835 246.865 141.753 252.569 138.068C258.274 134.384 264.822 132.219 271.595 131.779C278.368 131.339 285.141 132.638 291.273 135.554C297.404 138.469 302.692 142.904 306.634 148.439V148.439C306.642 148.451 306.651 148.463 306.66 148.474C307.961 150.143 309.498 151.612 311.224 152.834H312.818Z" fill="#6D6D6D"/>
</g>
</g>
<g filter="url(#filter0_d_8_803)">
<circle cx="187" cy="82" r="34" fill="#223F99"/>
<circle cx="187" cy="82" r="36" stroke="#FFCB57" stroke-width="4"/>
</g>
<path d="M175.861 102H182.186V61.905H170.746V67.625H175.861V102ZM195.09 102H201.415V61.905H189.975V67.625H195.09V102Z" fill="#FFCB57"/>
<path d="M175.861 102H174.861V103H175.861V102ZM182.186 102V103H183.186V102H182.186ZM182.186 61.905H183.186V60.905H182.186V61.905ZM170.746 61.905V60.905H169.746V61.905H170.746ZM170.746 67.625H169.746V68.625H170.746V67.625ZM175.861 67.625H176.861V66.625H175.861V67.625ZM175.861 103H182.186V101H175.861V103ZM183.186 102V61.905H181.186V102H183.186ZM182.186 60.905H170.746V62.905H182.186V60.905ZM169.746 61.905V67.625H171.746V61.905H169.746ZM170.746 68.625H175.861V66.625H170.746V68.625ZM174.861 67.625V102H176.861V67.625H174.861ZM195.09 102H194.09V103H195.09V102ZM201.415 102V103H202.415V102H201.415ZM201.415 61.905H202.415V60.905H201.415V61.905ZM189.975 61.905V60.905H188.975V61.905H189.975ZM189.975 67.625H188.975V68.625H189.975V67.625ZM195.09 67.625H196.09V66.625H195.09V67.625ZM195.09 103H201.415V101H195.09V103ZM202.415 102V61.905H200.415V102H202.415ZM201.415 60.905H189.975V62.905H201.415V60.905ZM188.975 61.905V67.625H190.975V61.905H188.975ZM189.975 68.625H195.09V66.625H189.975V68.625ZM194.09 67.625V102H196.09V67.625H194.09Z" fill="white"/>
<path d="M222.576 32.454C222.576 32.155 222.602 31.804 222.654 31.401C222.706 30.998 222.804 30.543 222.947 30.036C223.09 29.516 223.304 28.9375 223.59 28.3005L225.989 29.139C225.846 29.542 225.722 29.9125 225.618 30.2505C225.514 30.5755 225.436 30.881 225.384 31.167C225.332 31.44 225.306 31.713 225.306 31.986C225.306 32.376 225.391 32.74 225.56 33.078C225.729 33.416 225.982 33.7085 226.32 33.9555C226.658 34.2155 227.074 34.417 227.568 34.56C228.075 34.703 228.66 34.7745 229.323 34.7745C230.077 34.7745 230.74 34.703 231.312 34.56C231.897 34.43 232.385 34.2545 232.775 34.0335C233.178 33.8255 233.483 33.6045 233.691 33.3705C233.899 33.1365 234.003 32.922 234.003 32.727C234.003 32.571 233.893 32.4345 233.672 32.3175C233.464 32.2005 233.184 32.0835 232.833 31.9665C232.495 31.8365 232.131 31.6935 231.741 31.5375C231.364 31.3815 231 31.1865 230.649 30.9525C230.311 30.7185 230.032 30.4325 229.811 30.0945C229.603 29.7565 229.499 29.347 229.499 28.866C229.499 28.372 229.629 27.8325 229.889 27.2475C230.149 26.6495 230.519 26.084 231 25.551C231.481 25.005 232.053 24.563 232.716 24.225C233.392 23.874 234.133 23.6985 234.939 23.6985C235.511 23.6985 236.031 23.7895 236.499 23.9715C236.98 24.1535 237.383 24.3615 237.708 24.5955L236.694 26.877C236.421 26.695 236.129 26.5585 235.817 26.4675C235.505 26.3635 235.206 26.3115 234.92 26.3115C234.556 26.3115 234.205 26.383 233.867 26.526C233.542 26.669 233.249 26.8575 232.989 27.0915C232.742 27.3125 232.547 27.553 232.404 27.813C232.261 28.073 232.19 28.32 232.19 28.554C232.19 28.788 232.3 28.996 232.521 29.178C232.755 29.347 233.054 29.5095 233.418 29.6655C233.782 29.8085 234.166 29.958 234.569 30.114C234.972 30.27 235.355 30.4455 235.719 30.6405C236.083 30.8355 236.376 31.0695 236.597 31.3425C236.831 31.6155 236.948 31.947 236.948 32.337C236.948 32.896 236.772 33.4745 236.421 34.0725C236.083 34.6835 235.576 35.249 234.9 35.769C234.224 36.289 233.392 36.705 232.404 37.017C231.429 37.342 230.298 37.5045 229.011 37.5045C228.075 37.5045 227.217 37.394 226.437 37.173C225.657 36.965 224.975 36.6465 224.39 36.2175C223.818 35.8015 223.369 35.275 223.044 34.638C222.732 34.014 222.576 33.286 222.576 32.454ZM230.786 42.0285C230.409 42.0285 230.084 41.892 229.811 41.619C229.551 41.359 229.421 41.047 229.421 40.683C229.421 40.306 229.551 39.981 229.811 39.708C230.084 39.435 230.409 39.2985 230.786 39.2985C231.15 39.2985 231.462 39.435 231.722 39.708C231.982 39.981 232.112 40.306 232.112 40.683C232.112 41.047 231.982 41.359 231.722 41.619C231.462 41.892 231.15 42.0285 230.786 42.0285ZM227.412 42.0285C227.035 42.0285 226.71 41.892 226.437 41.619C226.177 41.359 226.047 41.047 226.047 40.683C226.047 40.306 226.177 39.981 226.437 39.708C226.71 39.435 227.035 39.2985 227.412 39.2985C227.776 39.2985 228.088 39.435 228.348 39.708C228.608 39.981 228.738 40.306 228.738 40.683C228.738 41.047 228.608 41.359 228.348 41.619C228.088 41.892 227.776 42.0285 227.412 42.0285ZM238.767 32.22L239.722 29.7435C240.203 29.9515 240.665 30.1075 241.107 30.2115C241.549 30.3155 241.991 30.3675 242.433 30.3675C242.888 30.3675 243.265 30.3285 243.564 30.2505C243.876 30.1595 244.11 30.0295 244.266 29.8605C244.422 29.6915 244.5 29.49 244.5 29.256C244.5 29.035 244.428 28.7295 244.285 28.3395C244.155 27.9495 243.915 27.4425 243.564 26.8185C243.213 26.1815 242.699 25.395 242.023 24.459L244.344 22.9185C244.968 23.8025 245.507 24.667 245.962 25.512C246.417 26.344 246.768 27.124 247.015 27.852C247.275 28.567 247.405 29.1975 247.405 29.7435C247.405 30.4195 247.223 31.011 246.859 31.518C246.508 32.012 245.982 32.402 245.28 32.688C244.591 32.974 243.739 33.117 242.725 33.117C242.348 33.117 241.926 33.0845 241.458 33.0195C240.99 32.9545 240.515 32.857 240.034 32.727C239.566 32.597 239.144 32.428 238.767 32.22ZM254.339 33.0975C253.13 33.0975 252.194 32.974 251.531 32.727C250.881 32.48 250.426 32.0965 250.166 31.5765C249.906 31.0435 249.757 30.374 249.718 29.568L249.308 18.726H252.038L252.448 28.2615C252.474 28.8595 252.539 29.308 252.643 29.607C252.747 29.906 252.942 30.1075 253.228 30.2115C253.527 30.3155 253.962 30.3675 254.534 30.3675C255.028 30.3675 255.379 30.4975 255.587 30.7575C255.808 31.0045 255.919 31.3165 255.919 31.6935C255.919 32.0965 255.782 32.4345 255.509 32.7075C255.236 32.9675 254.846 33.0975 254.339 33.0975ZM267.119 33.0975C266.521 33.0975 265.962 33.052 265.442 32.961C264.935 32.87 264.467 32.714 264.038 32.493C263.609 32.259 263.225 31.9405 262.887 31.5375C262.562 31.1345 262.289 30.6275 262.068 30.0165L263.609 28.788C263.843 29.204 264.129 29.529 264.467 29.763C264.805 29.984 265.208 30.14 265.676 30.231C266.144 30.322 266.69 30.3675 267.314 30.3675C267.808 30.3675 268.159 30.4975 268.367 30.7575C268.575 31.0045 268.679 31.3165 268.679 31.6935C268.679 32.0965 268.542 32.4345 268.269 32.7075C268.009 32.9675 267.626 33.0975 267.119 33.0975ZM254.366 33.0975L254.561 30.3675C255.263 30.3675 255.958 30.3285 256.647 30.2505C257.336 30.1725 258.006 30.0555 258.656 29.8995C259.306 29.7435 259.923 29.542 260.508 29.295C261.106 29.048 261.665 28.749 262.185 28.398C261.795 28.164 261.373 27.9625 260.918 27.7935C260.463 27.6245 259.975 27.501 259.455 27.423C258.948 27.332 258.409 27.2865 257.837 27.2865C257.629 27.2865 257.408 27.293 257.174 27.306C256.953 27.319 256.725 27.345 256.491 27.384C256.257 27.41 256.023 27.449 255.789 27.501L255.399 24.8295C255.776 24.7255 256.173 24.654 256.589 24.615C257.018 24.563 257.395 24.537 257.72 24.537C258.422 24.537 259.065 24.615 259.65 24.771C260.248 24.927 260.794 25.122 261.288 25.356C261.795 25.59 262.263 25.824 262.692 26.058C263.134 26.292 263.55 26.487 263.94 26.643C264.343 26.799 264.733 26.877 265.11 26.877H265.832L266.144 29.4705C265.585 29.4965 265.058 29.607 264.564 29.802C264.083 29.984 263.602 30.218 263.121 30.504C262.653 30.777 262.146 31.063 261.6 31.362C261.067 31.661 260.463 31.9405 259.787 32.2005C259.111 32.4605 258.331 32.675 257.447 32.844C256.563 33.013 255.536 33.0975 254.366 33.0975ZM267.125 33.0975L267.32 30.3675C267.918 30.3675 268.347 30.309 268.607 30.192C268.867 30.062 269.023 29.828 269.075 29.49C269.127 29.139 269.14 28.632 269.114 27.969L268.763 18.726H271.512L271.902 28.164C271.928 28.918 271.896 29.6005 271.805 30.2115C271.727 30.8095 271.525 31.323 271.2 31.752C270.888 32.181 270.401 32.5125 269.738 32.7465C269.088 32.9805 268.217 33.0975 267.125 33.0975ZM274.474 33L274.064 18.726H276.794L277.204 33H274.474ZM282.066 32.454C282.066 32.155 282.092 31.804 282.144 31.401C282.196 30.998 282.294 30.543 282.437 30.036C282.58 29.516 282.794 28.9375 283.08 28.3005L285.479 29.139C285.336 29.542 285.212 29.9125 285.108 30.2505C285.004 30.5755 284.926 30.881 284.874 31.167C284.822 31.44 284.796 31.713 284.796 31.986C284.796 32.376 284.881 32.74 285.05 33.078C285.219 33.416 285.472 33.7085 285.81 33.9555C286.148 34.2155 286.564 34.417 287.058 34.56C287.565 34.703 288.15 34.7745 288.813 34.7745C289.567 34.7745 290.23 34.703 290.802 34.56C291.387 34.43 291.875 34.2545 292.265 34.0335C292.668 33.8255 292.973 33.6045 293.181 33.3705C293.389 33.1365 293.493 32.922 293.493 32.727C293.493 32.571 293.383 32.4345 293.162 32.3175C292.954 32.2005 292.674 32.0835 292.323 31.9665C291.985 31.8365 291.621 31.6935 291.231 31.5375C290.854 31.3815 290.49 31.1865 290.139 30.9525C289.801 30.7185 289.522 30.4325 289.301 30.0945C289.093 29.7565 288.989 29.347 288.989 28.866C288.989 28.372 289.119 27.8325 289.379 27.2475C289.639 26.6495 290.009 26.084 290.49 25.551C290.971 25.005 291.543 24.563 292.206 24.225C292.882 23.874 293.623 23.6985 294.429 23.6985C295.001 23.6985 295.521 23.7895 295.989 23.9715C296.47 24.1535 296.873 24.3615 297.198 24.5955L296.184 26.877C295.911 26.695 295.619 26.5585 295.307 26.4675C294.995 26.3635 294.696 26.3115 294.41 26.3115C294.046 26.3115 293.695 26.383 293.357 26.526C293.032 26.669 292.739 26.8575 292.479 27.0915C292.232 27.3125 292.037 27.553 291.894 27.813C291.751 28.073 291.68 28.32 291.68 28.554C291.68 28.788 291.79 28.996 292.011 29.178C292.245 29.347 292.544 29.5095 292.908 29.6655C293.272 29.8085 293.656 29.958 294.059 30.114C294.462 30.27 294.845 30.4455 295.209 30.6405C295.573 30.8355 295.866 31.0695 296.087 31.3425C296.321 31.6155 296.438 31.947 296.438 32.337C296.438 32.896 296.262 33.4745 295.911 34.0725C295.573 34.6835 295.066 35.249 294.39 35.769C293.714 36.289 292.882 36.705 291.894 37.017C290.919 37.342 289.788 37.5045 288.501 37.5045C287.565 37.5045 286.707 37.394 285.927 37.173C285.147 36.965 284.465 36.6465 283.88 36.2175C283.308 35.8015 282.859 35.275 282.534 34.638C282.222 34.014 282.066 33.286 282.066 32.454ZM298.686 37.485L298.12 34.755C299.043 34.638 299.849 34.495 300.538 34.326C301.227 34.17 301.806 33.949 302.274 33.663C302.742 33.377 303.093 32.987 303.327 32.493C303.561 31.986 303.678 31.336 303.678 30.543C303.678 29.776 303.561 29.165 303.327 28.71C303.093 28.255 302.781 28.0275 302.391 28.0275C302.118 28.0275 301.89 28.125 301.708 28.32C301.526 28.502 301.39 28.723 301.299 28.983C301.221 29.23 301.182 29.451 301.182 29.646C301.182 29.763 301.214 29.8865 301.279 30.0165C301.344 30.1465 301.487 30.257 301.708 30.348C301.929 30.439 302.274 30.491 302.742 30.504C303.223 30.517 303.873 30.4715 304.692 30.3675H307.968C308.462 30.3675 308.813 30.4975 309.021 30.7575C309.242 31.0045 309.352 31.3165 309.352 31.6935C309.352 32.0965 309.216 32.4345 308.943 32.7075C308.67 32.9675 308.28 33.0975 307.773 33.0975H302.41C301.591 33.0975 300.889 33 300.304 32.805C299.719 32.61 299.271 32.298 298.959 31.869C298.647 31.427 298.491 30.842 298.491 30.114C298.491 29.529 298.588 28.944 298.783 28.359C298.991 27.774 299.277 27.241 299.641 26.76C300.005 26.266 300.428 25.876 300.909 25.59C301.403 25.291 301.936 25.1415 302.508 25.1415C303.288 25.1415 303.97 25.382 304.555 25.863C305.14 26.344 305.595 26.981 305.92 27.774C306.258 28.567 306.427 29.4315 306.427 30.3675C306.427 31.8365 306.115 33.0845 305.491 34.1115C304.867 35.1385 303.977 35.9315 302.82 36.4905C301.663 37.0625 300.285 37.394 298.686 37.485ZM307.801 33.0975L307.996 30.3675C308.464 30.3675 308.867 30.322 309.205 30.231C309.543 30.14 309.829 29.958 310.063 29.685C310.297 29.399 310.492 28.983 310.648 28.437C310.817 27.891 310.966 27.163 311.096 26.253L313.651 26.682C313.625 26.877 313.586 27.1045 313.534 27.3645C313.495 27.6245 313.456 27.891 313.417 28.164C313.391 28.424 313.378 28.671 313.378 28.905C313.378 29.139 313.423 29.347 313.514 29.529C313.605 29.711 313.748 29.867 313.943 29.997C314.151 30.114 314.418 30.205 314.743 30.27C315.081 30.335 315.49 30.3675 315.971 30.3675C316.465 30.3675 316.816 30.4975 317.024 30.7575C317.232 31.0045 317.336 31.3165 317.336 31.6935C317.336 32.0965 317.2 32.4345 316.927 32.7075C316.667 32.9675 316.283 33.0975 315.776 33.0975C315.191 33.0975 314.658 33.052 314.177 32.961C313.709 32.87 313.3 32.7205 312.949 32.5125C312.611 32.2915 312.331 32.0055 312.11 31.6545C311.902 31.2905 311.772 30.8485 311.72 30.3285H312.656C312.422 30.9525 312.123 31.453 311.759 31.83C311.408 32.194 311.012 32.467 310.57 32.649C310.128 32.831 309.666 32.948 309.185 33C308.717 33.065 308.256 33.0975 307.801 33.0975ZM314.06 24.498C313.683 24.498 313.358 24.368 313.085 24.108C312.825 23.835 312.695 23.5165 312.695 23.1525C312.695 22.7755 312.825 22.4505 313.085 22.1775C313.358 21.9045 313.683 21.768 314.06 21.768C314.424 21.768 314.736 21.9045 314.996 22.1775C315.256 22.4505 315.386 22.7755 315.386 23.1525C315.386 23.5165 315.256 23.835 314.996 24.108C314.736 24.368 314.424 24.498 314.06 24.498ZM310.687 24.4785C310.31 24.4785 309.985 24.3485 309.712 24.0885C309.452 23.8155 309.322 23.497 309.322 23.133C309.322 22.756 309.452 22.431 309.712 22.158C309.985 21.885 310.31 21.7485 310.687 21.7485C311.051 21.7485 311.363 21.885 311.623 22.158C311.883 22.431 312.013 22.756 312.013 23.133C312.013 23.497 311.883 23.8155 311.623 24.0885C311.363 24.3485 311.051 24.4785 310.687 24.4785ZM315.78 33.0975L315.975 30.3675C316.404 30.3675 316.755 30.335 317.028 30.27C317.301 30.192 317.522 30.0295 317.691 29.7825C317.873 29.5225 318.029 29.139 318.159 28.632C318.302 28.112 318.458 27.41 318.627 26.526L321.162 26.994C321.11 27.28 321.038 27.6375 320.947 28.0665C320.869 28.4955 320.83 28.866 320.83 29.178C320.83 29.425 320.876 29.6395 320.967 29.8215C321.071 29.9905 321.24 30.127 321.474 30.231C321.721 30.322 322.059 30.3675 322.488 30.3675C322.826 30.3675 323.112 30.335 323.346 30.27C323.593 30.192 323.801 30.0295 323.97 29.7825C324.152 29.5225 324.308 29.126 324.438 28.593C324.581 28.047 324.717 27.3125 324.847 26.3895L327.421 26.799C327.369 27.098 327.317 27.4165 327.265 27.7545C327.213 28.0925 327.168 28.4045 327.129 28.6905C327.09 28.9765 327.07 29.2105 327.07 29.3925C327.07 29.5615 327.116 29.724 327.207 29.88C327.311 30.023 327.493 30.14 327.753 30.231C328.026 30.322 328.403 30.3675 328.884 30.3675C329.469 30.3675 329.898 30.244 330.171 29.997C330.457 29.737 330.6 29.347 330.6 28.827C330.6 28.528 330.593 28.2095 330.58 27.8715C330.567 27.5205 330.541 27.1305 330.502 26.7015C330.476 26.2595 330.424 25.759 330.346 25.2L332.862 25.005C332.953 26.123 333.057 27.033 333.174 27.735C333.291 28.437 333.447 28.983 333.642 29.373C333.85 29.75 334.123 30.01 334.461 30.153C334.812 30.296 335.267 30.3675 335.826 30.3675C336.32 30.3675 336.671 30.4975 336.879 30.7575C337.1 31.0045 337.21 31.3165 337.21 31.6935C337.21 32.0965 337.074 32.4345 336.801 32.7075C336.541 32.9675 336.151 33.0975 335.631 33.0975C335.28 33.0975 334.916 33.065 334.539 33C334.162 32.948 333.798 32.8375 333.447 32.6685C333.096 32.4865 332.784 32.2265 332.511 31.8885C332.238 31.5505 332.023 31.102 331.867 30.543L332.218 30.66C332.036 31.31 331.789 31.8105 331.477 32.1615C331.165 32.5125 330.782 32.7595 330.327 32.9025C329.872 33.0325 329.326 33.0975 328.689 33.0975C328.104 33.0975 327.584 33.0195 327.129 32.8635C326.674 32.7075 326.31 32.454 326.037 32.103C325.777 31.739 325.64 31.2515 325.627 30.6405H326.29C326.03 31.3685 325.731 31.908 325.393 32.259C325.055 32.61 324.646 32.8375 324.165 32.9415C323.684 33.0455 323.079 33.0975 322.351 33.0975C321.909 33.0975 321.474 33.052 321.045 32.961C320.616 32.857 320.232 32.6295 319.894 32.2785C319.556 31.9145 319.309 31.3425 319.153 30.5625L320.206 30.5235C319.933 31.2905 319.576 31.856 319.134 32.22C318.705 32.584 318.211 32.8245 317.652 32.9415C317.093 33.0455 316.469 33.0975 315.78 33.0975ZM335.641 33.0975L335.836 30.3675C336.161 30.3675 336.408 30.3025 336.577 30.1725C336.746 30.0425 336.915 29.815 337.084 29.49C337.253 29.165 337.487 28.723 337.786 28.164C338.111 27.54 338.449 27.02 338.8 26.604C339.151 26.175 339.502 25.837 339.853 25.59C340.217 25.33 340.575 25.148 340.926 25.044C341.29 24.927 341.647 24.8685 341.998 24.8685C342.479 24.8685 342.928 24.9725 343.344 25.1805C343.773 25.3755 344.182 25.72 344.572 26.214C344.962 26.695 345.333 27.358 345.684 28.203C345.931 28.788 346.178 29.2365 346.425 29.5485C346.672 29.8605 346.925 30.075 347.185 30.192C347.458 30.309 347.731 30.3675 348.004 30.3675C348.498 30.3675 348.849 30.4975 349.057 30.7575C349.265 31.0045 349.369 31.3165 349.369 31.6935C349.369 32.0965 349.233 32.4345 348.96 32.7075C348.687 32.9675 348.303 33.0975 347.809 33.0975C347.172 33.0975 346.594 32.9935 346.074 32.7855C345.554 32.5775 345.144 32.2655 344.845 31.8495L345.411 31.4205C345.294 31.6935 345.118 31.9795 344.884 32.2785C344.663 32.5775 344.371 32.831 344.007 33.039C343.656 33.247 343.233 33.351 342.739 33.351C342.414 33.351 342.031 33.286 341.589 33.156C341.16 33.039 340.711 32.8375 340.243 32.5515C339.788 32.2525 339.366 31.8495 338.976 31.3425C338.729 31.7975 338.456 32.155 338.157 32.415C337.858 32.662 337.507 32.8375 337.104 32.9415C336.701 33.0455 336.213 33.0975 335.641 33.0975ZM340.107 29.0415C340.237 29.2365 340.393 29.4315 340.575 29.6265C340.757 29.8215 340.958 29.997 341.179 30.153C341.4 30.296 341.634 30.413 341.881 30.504C342.141 30.595 342.395 30.6405 342.642 30.6405C342.902 30.6405 343.116 30.543 343.285 30.348C343.454 30.14 343.461 29.8345 343.305 29.4315C343.24 29.2625 343.149 29.074 343.032 28.866C342.928 28.645 342.804 28.437 342.661 28.242C342.531 28.047 342.382 27.8845 342.213 27.7545C342.057 27.6245 341.894 27.5595 341.725 27.5595C341.556 27.5595 341.381 27.6115 341.199 27.7155C341.017 27.8195 340.835 27.982 340.653 28.203C340.471 28.411 340.289 28.6905 340.107 29.0415ZM347.81 33.0975L348.005 30.3675C348.603 30.3675 349.032 30.309 349.292 30.192C349.552 30.062 349.708 29.828 349.76 29.49C349.812 29.139 349.825 28.632 349.799 27.969L349.448 18.726H352.197L352.587 28.164C352.613 28.918 352.581 29.6005 352.49 30.2115C352.412 30.8095 352.21 31.323 351.885 31.752C351.573 32.181 351.086 32.5125 350.423 32.7465C349.773 32.9805 348.902 33.0975 347.81 33.0975ZM355.159 33L354.749 18.726H357.479L357.889 33H355.159ZM271.064 66.5045L270.07 64.0865C270.759 63.8525 271.389 63.5795 271.961 63.2675C272.546 62.9555 273.053 62.611 273.482 62.234C273.911 61.857 274.243 61.4475 274.477 61.0055C274.711 60.5505 274.828 60.063 274.828 59.543C274.828 58.997 274.704 58.399 274.457 57.749C274.21 57.099 273.911 56.436 273.56 55.76L276.115 54.5315C276.349 54.9345 276.55 55.37 276.719 55.838C276.901 56.293 277.051 56.7025 277.168 57.0665C277.285 57.4305 277.363 57.6775 277.402 57.8075C277.584 58.4315 277.831 58.8475 278.143 59.0555C278.468 59.2635 278.988 59.3675 279.703 59.3675C280.197 59.3675 280.548 59.4975 280.756 59.7575C280.977 60.0045 281.087 60.3165 281.087 60.6935C281.087 61.0965 280.951 61.4345 280.678 61.7075C280.405 61.9675 280.015 62.0975 279.508 62.0975C278.975 62.0975 278.507 62.0195 278.104 61.8635C277.701 61.7075 277.376 61.48 277.129 61.181C276.895 60.882 276.745 60.531 276.68 60.128L277.402 60.5375C277.324 61.2265 277.096 61.8765 276.719 62.4875C276.355 63.1115 275.881 63.6835 275.296 64.2035C274.711 64.7235 274.054 65.1785 273.326 65.5685C272.598 65.9585 271.844 66.2705 271.064 66.5045ZM279.531 62.0975L279.726 59.3675C280.155 59.3675 280.506 59.335 280.779 59.27C281.052 59.192 281.273 59.0295 281.442 58.7825C281.624 58.5225 281.78 58.139 281.91 57.632C282.053 57.112 282.209 56.41 282.378 55.526L284.913 55.994C284.861 56.28 284.79 56.6375 284.699 57.0665C284.621 57.4955 284.582 57.866 284.582 58.178C284.582 58.425 284.627 58.6395 284.718 58.8215C284.822 58.9905 284.991 59.127 285.225 59.231C285.472 59.322 285.81 59.3675 286.239 59.3675C286.577 59.3675 286.863 59.335 287.097 59.27C287.344 59.192 287.552 59.0295 287.721 58.7825C287.903 58.5225 288.059 58.126 288.189 57.593C288.332 57.047 288.469 56.3125 288.599 55.3895L291.173 55.799C291.121 56.098 291.069 56.4165 291.017 56.7545C290.965 57.0925 290.919 57.4045 290.88 57.6905C290.841 57.9765 290.822 58.2105 290.822 58.3925C290.822 58.5615 290.867 58.724 290.958 58.88C291.062 59.023 291.244 59.14 291.504 59.231C291.777 59.322 292.154 59.3675 292.635 59.3675C293.22 59.3675 293.649 59.244 293.922 58.997C294.208 58.737 294.351 58.347 294.351 57.827C294.351 57.528 294.345 57.2095 294.332 56.8715C294.319 56.5205 294.293 56.1305 294.254 55.7015C294.228 55.2595 294.176 54.759 294.098 54.2L296.613 54.005C296.704 55.123 296.808 56.033 296.925 56.735C297.042 57.437 297.198 57.983 297.393 58.373C297.601 58.75 297.874 59.01 298.212 59.153C298.563 59.296 299.018 59.3675 299.577 59.3675C300.071 59.3675 300.422 59.4975 300.63 59.7575C300.851 60.0045 300.962 60.3165 300.962 60.6935C300.962 61.0965 300.825 61.4345 300.552 61.7075C300.292 61.9675 299.902 62.0975 299.382 62.0975C299.031 62.0975 298.667 62.065 298.29 62C297.913 61.948 297.549 61.8375 297.198 61.6685C296.847 61.4865 296.535 61.2265 296.262 60.8885C295.989 60.5505 295.775 60.102 295.619 59.543L295.97 59.66C295.788 60.31 295.541 60.8105 295.229 61.1615C294.917 61.5125 294.533 61.7595 294.078 61.9025C293.623 62.0325 293.077 62.0975 292.44 62.0975C291.855 62.0975 291.335 62.0195 290.88 61.8635C290.425 61.7075 290.061 61.454 289.788 61.103C289.528 60.739 289.392 60.2515 289.379 59.6405H290.042C289.782 60.3685 289.483 60.908 289.145 61.259C288.807 61.61 288.397 61.8375 287.916 61.9415C287.435 62.0455 286.831 62.0975 286.103 62.0975C285.661 62.0975 285.225 62.052 284.796 61.961C284.367 61.857 283.984 61.6295 283.646 61.2785C283.308 60.9145 283.061 60.3425 282.905 59.5625L283.958 59.5235C283.685 60.2905 283.327 60.856 282.885 61.22C282.456 61.584 281.962 61.8245 281.403 61.9415C280.844 62.0455 280.22 62.0975 279.531 62.0975ZM289.535 50.027C289.21 50.027 288.924 49.9035 288.677 49.6565C288.443 49.4095 288.326 49.117 288.326 48.779C288.326 48.441 288.443 48.155 288.677 47.921C288.924 47.687 289.21 47.57 289.535 47.57C289.873 47.57 290.159 47.687 290.393 47.921C290.627 48.155 290.744 48.441 290.744 48.779C290.744 49.117 290.627 49.4095 290.393 49.6565C290.159 49.9035 289.873 50.027 289.535 50.027ZM287.975 52.601C287.65 52.601 287.364 52.4775 287.117 52.2305C286.883 51.9835 286.766 51.691 286.766 51.353C286.766 51.015 286.883 50.729 287.117 50.495C287.364 50.261 287.65 50.144 287.975 50.144C288.313 50.144 288.599 50.261 288.833 50.495C289.067 50.729 289.184 51.015 289.184 51.353C289.184 51.691 289.067 51.9835 288.833 52.2305C288.599 52.4775 288.313 52.601 287.975 52.601ZM290.997 52.601C290.672 52.601 290.386 52.4775 290.139 52.2305C289.905 51.9835 289.788 51.691 289.788 51.353C289.788 51.015 289.905 50.729 290.139 50.495C290.386 50.261 290.672 50.144 290.997 50.144C291.335 50.144 291.621 50.261 291.855 50.495C292.089 50.729 292.206 51.015 292.206 51.353C292.206 51.691 292.089 51.9835 291.855 52.2305C291.621 52.4775 291.335 52.601 290.997 52.601ZM299.393 62.0975L299.588 59.3675C300.199 59.3675 300.667 59.361 300.992 59.348C301.33 59.335 301.584 59.322 301.753 59.309C301.922 59.283 302.065 59.2635 302.182 59.2505C302.052 59.1205 301.883 58.932 301.675 58.685C301.467 58.438 301.278 58.1195 301.109 57.7295C300.953 57.3395 300.875 56.8715 300.875 56.3255C300.875 55.5325 301.077 54.837 301.48 54.239C301.896 53.641 302.455 53.173 303.157 52.835C303.859 52.497 304.645 52.328 305.516 52.328C305.932 52.328 306.316 52.354 306.667 52.406C307.031 52.458 307.395 52.536 307.759 52.64L307.33 55.2335C307.07 55.1685 306.797 55.1165 306.511 55.0775C306.225 55.0385 305.971 55.019 305.75 55.019C305.321 55.019 304.944 55.0905 304.619 55.2335C304.307 55.3635 304.06 55.552 303.878 55.799C303.709 56.033 303.625 56.319 303.625 56.657C303.625 56.878 303.664 57.086 303.742 57.281C303.833 57.476 303.943 57.6515 304.073 57.8075C304.203 57.9635 304.346 58.1 304.502 58.217C304.658 58.334 304.808 58.4315 304.951 58.5095C305.107 58.5745 305.237 58.62 305.341 58.646C305.666 58.555 305.945 58.477 306.179 58.412C306.426 58.334 306.66 58.2625 306.881 58.1975C307.115 58.1195 307.369 58.022 307.642 57.905C307.915 57.788 308.253 57.645 308.656 57.476L309.533 60.05C308.441 60.583 307.375 60.999 306.335 61.298C305.295 61.597 304.216 61.805 303.098 61.922C301.98 62.039 300.745 62.0975 299.393 62.0975Z" fill="#223F99"/>
<path d="M12.788 106.588V108.773H17.063V111.604H12.788V114.017H17.633V117H9.064V103.605H17.633V106.588H12.788ZM23.1972 102.94V117H19.4732V102.94H23.1972ZM35.5019 111.547C35.5019 111.838 35.4829 112.13 35.4449 112.421H28.3959C28.4339 113.004 28.5922 113.441 28.8709 113.732C29.1622 114.011 29.5296 114.15 29.9729 114.15C30.5936 114.15 31.0369 113.871 31.3029 113.314H35.2739C35.1092 114.049 34.7862 114.707 34.3049 115.29C33.8362 115.86 33.2409 116.31 32.5189 116.639C31.7969 116.968 30.9989 117.133 30.1249 117.133C29.0736 117.133 28.1362 116.911 27.3129 116.468C26.5022 116.025 25.8626 115.391 25.3939 114.568C24.9379 113.745 24.7099 112.776 24.7099 111.661C24.7099 110.546 24.9379 109.584 25.3939 108.773C25.8499 107.95 26.4832 107.316 27.2939 106.873C28.1172 106.43 29.0609 106.208 30.1249 106.208C31.1762 106.208 32.1072 106.423 32.9179 106.854C33.7286 107.285 34.3619 107.905 34.8179 108.716C35.2739 109.514 35.5019 110.458 35.5019 111.547ZM31.7019 110.616C31.7019 110.16 31.5499 109.805 31.2459 109.552C30.9419 109.286 30.5619 109.153 30.1059 109.153C29.6499 109.153 29.2762 109.28 28.9849 109.533C28.6936 109.774 28.5036 110.135 28.4149 110.616H31.7019ZM42.1369 113.485L44.1319 106.341H48.1029L44.4359 117H39.7999L36.1329 106.341H40.1039L42.1369 113.485ZM59.5488 111.547C59.5488 111.838 59.5298 112.13 59.4918 112.421H52.4428C52.4808 113.004 52.6391 113.441 52.9178 113.732C53.2091 114.011 53.5764 114.15 54.0198 114.15C54.6404 114.15 55.0838 113.871 55.3498 113.314H59.3208C59.1561 114.049 58.8331 114.707 58.3518 115.29C57.8831 115.86 57.2878 116.31 56.5658 116.639C55.8438 116.968 55.0458 117.133 54.1718 117.133C53.1204 117.133 52.1831 116.911 51.3598 116.468C50.5491 116.025 49.9094 115.391 49.4408 114.568C48.9848 113.745 48.7568 112.776 48.7568 111.661C48.7568 110.546 48.9848 109.584 49.4408 108.773C49.8968 107.95 50.5301 107.316 51.3408 106.873C52.1641 106.43 53.1078 106.208 54.1718 106.208C55.2231 106.208 56.1541 106.423 56.9648 106.854C57.7754 107.285 58.4088 107.905 58.8648 108.716C59.3208 109.514 59.5488 110.458 59.5488 111.547ZM55.7488 110.616C55.7488 110.16 55.5968 109.805 55.2928 109.552C54.9888 109.286 54.6088 109.153 54.1528 109.153C53.6968 109.153 53.3231 109.28 53.0318 109.533C52.7404 109.774 52.5504 110.135 52.4618 110.616H55.7488ZM68.0458 106.246C69.2745 106.246 70.2498 106.658 70.9718 107.481C71.6938 108.292 72.0548 109.394 72.0548 110.787V117H68.3308V111.281C68.3308 110.673 68.1725 110.198 67.8558 109.856C67.5391 109.501 67.1148 109.324 66.5828 109.324C66.0255 109.324 65.5885 109.501 65.2718 109.856C64.9551 110.198 64.7968 110.673 64.7968 111.281V117H61.0728V106.341H64.7968V107.861C65.1261 107.38 65.5695 106.993 66.1268 106.702C66.6841 106.398 67.3238 106.246 68.0458 106.246ZM80.3872 113.827V117H78.7722C76.0488 117 74.6872 115.651 74.6872 112.953V109.438H73.3762V106.341H74.6872V103.757H78.4302V106.341H80.3682V109.438H78.4302V113.01C78.4302 113.301 78.4935 113.51 78.6202 113.637C78.7595 113.764 78.9875 113.827 79.3042 113.827H80.3872ZM89.1063 106.246C90.3223 106.246 91.2849 106.658 91.9943 107.481C92.7163 108.292 93.0773 109.394 93.0773 110.787V117H89.3533V111.281C89.3533 110.673 89.1949 110.198 88.8783 109.856C88.5616 109.501 88.1373 109.324 87.6053 109.324C87.0479 109.324 86.6109 109.501 86.2943 109.856C85.9776 110.198 85.8193 110.673 85.8193 111.281V117H82.0953V102.94H85.8193V107.861C86.1486 107.38 86.5919 106.993 87.1493 106.702C87.7193 106.398 88.3716 106.246 89.1063 106.246ZM102.481 114.15H106.642V117H98.7574V103.605H102.481V114.15ZM118.274 111.547C118.274 111.838 118.255 112.13 118.217 112.421H111.168C111.206 113.004 111.365 113.441 111.643 113.732C111.935 114.011 112.302 114.15 112.745 114.15C113.366 114.15 113.809 113.871 114.075 113.314H118.046C117.882 114.049 117.559 114.707 117.077 115.29C116.609 115.86 116.013 116.31 115.291 116.639C114.569 116.968 113.771 117.133 112.897 117.133C111.846 117.133 110.909 116.911 110.085 116.468C109.275 116.025 108.635 115.391 108.166 114.568C107.71 113.745 107.482 112.776 107.482 111.661C107.482 110.546 107.71 109.584 108.166 108.773C108.622 107.95 109.256 107.316 110.066 106.873C110.89 106.43 111.833 106.208 112.897 106.208C113.949 106.208 114.88 106.423 115.69 106.854C116.501 107.285 117.134 107.905 117.59 108.716C118.046 109.514 118.274 110.458 118.274 111.547ZM114.474 110.616C114.474 110.16 114.322 109.805 114.018 109.552C113.714 109.286 113.334 109.153 112.878 109.153C112.422 109.153 112.049 109.28 111.757 109.533C111.466 109.774 111.276 110.135 111.187 110.616H114.474ZM124.909 113.485L126.904 106.341H130.875L127.208 117H122.572L118.905 106.341H122.876L124.909 113.485ZM142.321 111.547C142.321 111.838 142.302 112.13 142.264 112.421H135.215C135.253 113.004 135.412 113.441 135.69 113.732C135.982 114.011 136.349 114.15 136.792 114.15C137.413 114.15 137.856 113.871 138.122 113.314H142.093C141.929 114.049 141.606 114.707 141.124 115.29C140.656 115.86 140.06 116.31 139.338 116.639C138.616 116.968 137.818 117.133 136.944 117.133C135.893 117.133 134.956 116.911 134.132 116.468C133.322 116.025 132.682 115.391 132.213 114.568C131.757 113.745 131.529 112.776 131.529 111.661C131.529 110.546 131.757 109.584 132.213 108.773C132.669 107.95 133.303 107.316 134.113 106.873C134.937 106.43 135.88 106.208 136.944 106.208C137.996 106.208 138.927 106.423 139.737 106.854C140.548 107.285 141.181 107.905 141.637 108.716C142.093 109.514 142.321 110.458 142.321 111.547ZM138.521 110.616C138.521 110.16 138.369 109.805 138.065 109.552C137.761 109.286 137.381 109.153 136.925 109.153C136.469 109.153 136.096 109.28 135.804 109.533C135.513 109.774 135.323 110.135 135.234 110.616H138.521ZM147.569 102.94V117H143.845V102.94H147.569Z" fill="#223F99"/>
</g>
</g>
<defs>
<filter id="filter0_d_8_803" x="145" y="44" width="84" height="84" filterUnits="userSpaceOnUse" color-interpolation-filters="sRGB">
<feFlood flood-opacity="0" result="BackgroundImageFix"/>
<feColorMatrix in="SourceAlpha" type="matrix" values="0 0 0 0 0 0 0 0 0 0 0 0 0 0 0 0 0 0 127 0" result="hardAlpha"/>
<feOffset dy="4"/>
<feGaussianBlur stdDeviation="2"/>
<feComposite in2="hardAlpha" operator="out"/>
<feColorMatrix type="matrix" values="0 0 0 0 0 0 0 0 0 0 0 0 0 0 0 0 0 0 0.25 0"/>
<feBlend mode="normal" in2="BackgroundImageFix" result="effect1_dropShadow_8_803"/>
<feBlend mode="normal" in="SourceGraphic" in2="effect1_dropShadow_8_803" result="shape"/>
</filter>
<linearGradient id="paint0_linear_8_803" x1="39" y1="-127.5" x2="320" y2="185" gradientUnits="userSpaceOnUse">
<stop stop-color="#E6E6E6"/>
<stop offset="1" stop-color="#D9D9D9" stop-opacity="0"/>
</linearGradient>
<clipPath id="clip0_8_803">
<rect width="374" height="138.5" fill="white"/>
</clipPath>
<clipPath id="clip1_8_803">
<rect width="373.799" height="138.5" fill="white"/>
</clipPath>
</defs>
</svg>
