<svg width="374" height="139" viewBox="0 0 374 139" fill="none" xmlns="http://www.w3.org/2000/svg">
<g clip-path="url(#clip0_8_850)">
<rect width="374" height="138.5" fill="white"/>
<rect width="374" height="138" fill="url(#paint0_linear_8_850)"/>
<g clip-path="url(#clip1_8_850)">
<g style="mix-blend-mode:exclusion">
<g opacity="0.2">
<path fill-rule="evenodd" clip-rule="evenodd" d="M-14 85.165C-13.7146 85.149 -13.4302 85.129 -13.1438 85.108L-14 84.256V85.165ZM-11.8485 84.989L-14 82.847V81.439L-10.5834 84.836C-11.0041 84.892 -11.4258 84.943 -11.8485 84.989ZM-9.35741 84.651L-14 80.031V78.623L-8.15556 84.438C-8.55417 84.5146 -8.95478 84.5856 -9.35741 84.651ZM-6.98286 84.198C-6.59765 84.1133 -6.21512 84.0246 -5.83527 83.932L-14 75.806V77.214L-6.98286 84.198ZM-4.71381 83.639C-4.3467 83.5383 -3.98092 83.433 -3.61648 83.323L-14 72.99V74.398L-4.71482 83.639H-4.71381ZM-2.54225 82.983C-2.18987 82.867 -1.8395 82.7463 -1.49113 82.621L-14 70.174V71.583L-2.54426 82.983H-2.54225ZM-0.462127 82.238C-0.123814 82.1046 0.211149 81.9713 0.542763 81.838L-14 67.357V68.765L-0.462127 82.238ZM1.53459 81.409C1.86017 81.2643 2.18308 81.116 2.5033 80.964L-14 64.541V65.949L1.53459 81.409V81.409ZM3.45292 80.501C3.76511 80.3443 4.07495 80.1836 4.38244 80.019L-14 61.725V63.133L3.45292 80.501V80.501ZM5.29589 79.518C5.59602 79.3493 5.89413 79.1766 6.19024 79L-14 58.908V60.317L5.29388 79.517L5.29589 79.518ZM7.06651 78.465L-14 57.501V56.093L7.92569 77.911C7.64164 78.099 7.35524 78.2836 7.06651 78.465V78.465ZM8.76778 77.342L-14 54.683V53.275L9.59481 76.755C9.32148 76.955 9.04614 77.1506 8.76879 77.342H8.76778ZM10.4027 76.153L-14 51.865V50.456L11.1966 75.533C10.934 75.743 10.6694 75.9496 10.4027 76.153V76.153ZM11.9734 74.898L-14 49.05V47.643L12.7301 74.243C12.4795 74.4636 12.2263 74.6806 11.9704 74.894L11.9734 74.898ZM13.4807 73.58L-14 46.235V44.826L14.2073 72.896C13.9667 73.126 13.7236 73.3536 13.4777 73.579L13.4807 73.58ZM14.9227 72.199L-14 43.418V42.01L15.6161 71.483C15.3863 71.7236 15.1542 71.962 14.9197 72.198L14.9227 72.199ZM16.3004 70.754L-14 40.602V39.195L16.9627 70.007C16.7429 70.2576 16.5212 70.5063 16.2974 70.753L16.3004 70.754ZM17.6158 69.246L-14 37.786V36.377L18.2449 68.465C18.0372 68.7263 17.8262 68.9856 17.6118 69.243L17.6158 69.246ZM18.8599 67.672L-14 34.965L-14 33.565L19.4628 66.865C19.2659 67.1376 19.0649 67.4076 18.8599 67.675V67.672ZM20.0447 66.035L-14 32.153V30.745L20.6154 65.192C20.4299 65.4753 20.2406 65.7563 20.0477 66.035H20.0447ZM21.1711 64.333L-14 29.333V27.925L21.6997 63.455C21.5249 63.749 21.347 64.0413 21.1661 64.332L21.1711 64.333ZM22.2162 62.565L-14 26.52V25.112L22.7136 61.648C22.5508 61.9546 22.3834 62.2586 22.2112 62.56L22.2162 62.565ZM23.194 60.721L-14 23.704V22.295L23.6552 59.765C23.5052 60.083 23.3511 60.3993 23.193 60.714L23.194 60.721ZM24.0984 58.804C24.2438 58.4766 24.3848 58.1473 24.5214 57.816L-14 19.479L-14 20.888L24.0964 58.799L24.0984 58.804ZM24.9224 56.804C25.0564 56.4626 25.1837 56.1196 25.3042 55.775L-14 16.665V18.071L24.9214 56.803L24.9224 56.804ZM25.663 54.724C25.7802 54.368 25.8924 54.0103 25.9996 53.651L-14 13.847V15.255L25.661 54.723L25.663 54.724ZM26.3132 52.555C26.4136 52.182 26.5141 51.81 26.6016 51.434L-14 11.03V12.438L26.3111 52.554L26.3132 52.555ZM26.8638 50.287C26.9482 49.897 27.0246 49.505 27.098 49.111L-14 8.21398V9.62198L26.8618 50.286L26.8638 50.287ZM27.304 47.908C27.3683 47.498 27.4266 47.087 27.4798 46.674L-14 5.39798L-14 6.80598L27.301 47.906L27.304 47.908ZM27.6245 45.408C27.6667 44.976 27.7049 44.544 27.7351 44.108L-14 2.58198V3.98898L27.6215 45.409L27.6245 45.408ZM27.8044 42.771C27.8215 42.312 27.8305 41.853 27.8336 41.392L-14 -0.235023V1.17298L27.8034 42.773L27.8044 42.771ZM27.8225 39.971C27.8225 39.893 27.8225 39.815 27.8225 39.737C27.8104 39.3283 27.7927 38.9183 27.7692 38.507L-13.8885 -2.94003L-14 -2.93502V-1.64302L27.8195 39.973L27.8225 39.971ZM27.6497 36.982C27.6088 36.556 27.5626 36.1323 27.511 35.711C27.511 35.62 27.511 35.528 27.511 35.435L-11.2727 -3.15402L-12.5791 -3.04702L27.6466 36.984L27.6497 36.982ZM27.5492 34.061C27.5703 33.636 27.6004 33.196 27.6446 32.747L-8.65801 -3.36802L-9.96436 -3.26102L27.5411 34.065L27.5492 34.061ZM27.7974 31.491C27.8547 31.091 27.924 30.691 28.0044 30.291L-6.04228 -3.58102L-7.34864 -3.47402L27.7893 31.493L27.7974 31.491ZM28.2677 29.144C28.3621 28.7793 28.4676 28.415 28.5842 28.051L-3.42655 -3.79502L-4.73291 -3.68802L28.2606 29.146L28.2677 29.144ZM28.955 27.012C29.085 26.6786 29.2267 26.35 29.3801 26.026L-0.810824 -4.00802L-2.11718 -3.90102L28.948 27.014L28.955 27.012ZM29.8594 25.094C30.0262 24.794 30.2031 24.503 30.392 24.216L1.8039 -4.22202L0.497542 -4.11502L29.8504 25.096L29.8594 25.094ZM30.9809 23.394C31.1818 23.132 31.3969 22.8763 31.626 22.627L4.41963 -4.43502L3.11327 -4.32903L30.9718 23.396L30.9809 23.394ZM32.3254 21.916L5.73603 -4.54402L7.04239 -4.65102L33.0771 21.265C32.8091 21.475 32.5555 21.6923 32.3164 21.917L32.3254 21.916ZM33.9001 20.666L8.34271 -4.75502L9.64907 -4.86302L34.7613 20.127C34.4698 20.294 34.1784 20.473 33.89 20.668L33.9001 20.666ZM35.7008 19.641L10.9594 -4.97002L12.2658 -5.07702L36.6846 19.223C36.352 19.345 36.0194 19.483 35.6878 19.639L35.7008 19.641ZM37.7679 18.881L13.5742 -5.18302L14.8805 -5.29002L38.9115 18.623C38.5289 18.6896 38.1444 18.7763 37.7578 18.883L37.7679 18.881ZM40.1696 18.456L16.1889 -5.39702L17.4952 -5.50402L41.5212 18.403C41.076 18.403 40.6168 18.418 40.1605 18.458L40.1696 18.456ZM43.0255 18.481L18.8046 -5.61102L20.111 -5.71803L44.6856 18.733C44.156 18.628 43.5993 18.541 43.0194 18.483L43.0255 18.481ZM46.5888 19.211L21.4203 -5.82402L22.7267 -5.93102L48.8538 20.074C48.1132 19.7392 47.352 19.4516 46.5747 19.213L46.5888 19.211ZM51.8705 21.665L24.0351 -6.03502L25.3414 -6.14202L54.4621 22.832C53.5812 22.4753 52.7173 22.085 51.8705 21.661V21.665ZM56.701 23.656L26.6548 -6.24402L27.9612 -6.35102L58.7148 24.248C58.0369 24.0686 57.3669 23.8686 56.705 23.648L56.701 23.656ZM60.5688 24.688L29.2675 -6.46402L30.5739 -6.57102L62.2983 24.998C61.7168 24.908 61.14 24.8036 60.5678 24.685L60.5688 24.688ZM63.9312 25.217C64.445 25.273 64.9615 25.3176 65.4807 25.351L33.1906 -6.78502L31.8843 -6.67802L63.9302 25.213L63.9312 25.217ZM66.9599 25.417C67.4289 25.4276 67.9018 25.4276 68.3788 25.417L35.8063 -6.99902L34.5 -6.89202L66.9579 25.408L66.9599 25.417ZM69.7465 25.373C70.0734 25.3556 70.4003 25.3333 70.7273 25.306C70.8398 25.297 70.9504 25.285 71.0629 25.274L38.4211 -7.21302L37.1147 -7.10603L69.7455 25.365L69.7465 25.373ZM72.3391 25.137C72.7538 25.0843 73.1661 25.0246 73.5761 24.958L41.0368 -7.42603L39.7304 -7.31902L72.3391 25.132V25.137ZM74.774 24.743C75.1639 24.665 75.5527 24.584 75.9386 24.493L43.6525 -7.63503L42.3462 -7.52802L74.773 24.738L74.774 24.743ZM77.0701 24.211C77.4386 24.1123 77.805 24.008 78.1695 23.898L46.2683 -7.85302L44.9619 -7.74603L77.0691 24.206L77.0701 24.211ZM79.2417 23.555C79.5921 23.4376 79.9404 23.315 80.2868 23.187L48.883 -8.06702L47.5766 -7.96002L79.2417 23.55V23.555ZM81.3017 22.789C81.6367 22.6556 81.967 22.515 82.2925 22.367L51.4997 -8.28002L50.1934 -8.17302L81.3007 22.784L81.3017 22.789ZM83.2603 21.921C83.5778 21.769 83.8923 21.613 84.2038 21.453L54.1144 -8.49402L52.8081 -8.38702L83.2562 21.913L83.2603 21.921ZM85.1233 20.959C85.4241 20.791 85.7229 20.6186 86.0197 20.442L56.7292 -8.70802L55.4228 -8.60102L85.1213 20.954L85.1233 20.959ZM86.8939 19.905C87.1813 19.722 87.4667 19.537 87.7481 19.347L59.3449 -8.92102L58.0385 -8.81402L86.8909 19.901L86.8939 19.905ZM88.5821 18.768C88.8555 18.568 89.1248 18.368 89.3931 18.168L61.9596 -9.13202L60.6532 -9.02602L88.5801 18.765L88.5821 18.768ZM90.1839 17.545L63.268 -9.24202L64.5743 -9.34902L90.9507 16.899C90.6974 17.117 90.4405 17.331 90.1799 17.541L90.1839 17.545ZM91.7063 16.245L65.8887 -9.45502L67.1951 -9.56202L92.4359 15.565C92.1957 15.795 91.9515 16.021 91.7043 16.244L91.7063 16.245ZM93.1494 14.865L68.5014 -9.66902L69.8078 -9.77602L93.8387 14.138C93.6116 14.3813 93.3812 14.6216 93.1474 14.859L93.1494 14.865ZM94.511 13.404L71.1141 -9.88202L72.4205 -9.98902L95.1602 12.639C94.9464 12.895 94.7287 13.148 94.507 13.398L94.511 13.404ZM95.7952 11.866L73.7269 -10.096L75.0332 -10.203L96.4062 11.065C96.2052 11.3316 96.0009 11.5983 95.7932 11.865L95.7952 11.866ZM97.0011 10.246L76.3506 -10.304L77.657 -10.411L97.5699 9.40398C97.3836 9.68731 97.194 9.96798 97.0011 10.246ZM98.1196 8.54597L78.9664 -10.514L80.2727 -10.621L98.6481 7.65498C98.476 7.95164 98.2998 8.24598 98.1196 8.53798V8.54597ZM99.1536 6.75898L81.5761 -10.735L82.8824 -10.842L99.6279 5.82198C99.4711 6.13398 99.3124 6.44498 99.1466 6.75098L99.1536 6.75898ZM100.094 4.87798L84.1928 -10.95L85.4991 -11.056L100.524 3.89498C100.384 4.22298 100.238 4.54698 100.088 4.86998L100.094 4.87798ZM100.94 2.90398L86.8115 -11.156L88.1179 -11.263L101.318 1.86497C101.196 2.20964 101.068 2.55198 100.935 2.89198L100.94 2.90398ZM101.68 0.822975C101.794 0.464975 101.906 0.104981 102.008 -0.257019L90.7306 -11.484L89.4242 -11.377L101.676 0.81498L101.68 0.822975ZM102.306 -1.37003C102.401 -1.74869 102.49 -2.12969 102.572 -2.51302L93.3503 -11.689L92.044 -11.582L102.306 -1.36902V-1.37003ZM102.808 -3.68802C102.881 -4.08802 102.944 -4.49702 103.002 -4.90402L95.9681 -11.904L94.6617 -11.797L102.809 -3.68902L102.808 -3.68802ZM103.16 -6.15502C103.206 -6.58502 103.243 -7.01836 103.273 -7.45502L98.5778 -12.125L97.2714 -12.018L103.155 -6.16302L103.16 -6.15502ZM103.341 -8.79002C103.356 -9.25302 103.358 -9.71802 103.356 -10.184L101.193 -12.335L99.8861 -12.228L103.336 -8.79502L103.341 -8.79002ZM103.316 -11.632L102.512 -12.432L103.268 -12.494C103.282 -12.2134 103.296 -11.929 103.31 -11.641L103.316 -11.632Z" fill="#6D6D6D"/>
<path fill-rule="evenodd" clip-rule="evenodd" d="M-14 69.991C-13.2142 70.0357 -12.4217 70.058 -11.6224 70.058C-0.732413 70.0578 9.74237 65.8993 17.6421 58.4399C25.5417 50.9806 30.264 40.7891 30.8352 29.967V29.967C30.8733 29.2337 30.8924 28.4953 30.8924 27.752C30.8924 27.201 30.8784 26.652 30.8573 26.104C31.1587 22.075 32.4651 15.904 37.3961 12.695C45.1026 7.66798 53.3517 13.388 53.3517 13.388C58.425 16.9341 64.3757 19.0328 70.5607 19.4574C76.7457 19.882 82.9296 18.6162 88.4441 15.7969C93.9586 12.9776 98.5938 8.71202 101.849 3.46124C105.104 -1.78953 106.855 -7.82578 106.912 -13.995L-14 -13.995L-14 69.991Z" fill="#676767"/>
<path fill-rule="evenodd" clip-rule="evenodd" d="M-14 31.889C-6.68299 32.1205 0.597862 30.7754 7.34386 27.946C18.9923 23.0873 28.4015 14.0805 33.7323 2.68596C34.3543 1.35596 34.9271 -0.0330466 35.5009 -1.42205C37.5056 -6.27505 39.5144 -11.141 43.9128 -14H42.3693C38.4884 -10.974 36.5811 -6.36005 34.6809 -1.75705C34.1161 -0.387046 33.5494 0.981957 32.9263 2.31696C27.6905 13.5129 18.4467 22.363 7.00219 27.137C0.364251 29.9206 -6.80052 31.2416 -14 31.009L-14 31.889ZM60.182 -13.999C62.2825 -12.7096 64.1339 -11.0562 65.6486 -9.11705L65.6727 -9.08704C69.7332 -3.44815 75.1786 1.06076 81.4888 4.00913C87.7991 6.95751 94.7634 8.24692 101.717 7.75425C108.671 7.26157 115.381 5.00326 121.208 1.19495C127.035 -2.61337 131.783 -7.84453 135 -13.999H134.002C130.806 -8.04056 126.135 -2.99245 120.431 0.667286C114.726 4.32702 108.178 6.47724 101.405 6.91434C94.6319 7.35144 87.859 6.06094 81.7274 3.16506C75.5958 0.269183 70.3085 -4.13624 66.366 -9.63404V-9.63404C66.358 -9.64604 66.349 -9.65705 66.3399 -9.66805C65.0395 -11.326 63.5017 -12.7852 61.7757 -13.999H60.182Z" fill="#6D6D6D"/>
</g>
</g>
<g style="mix-blend-mode:exclusion">
<g opacity="0.2">
<path fill-rule="evenodd" clip-rule="evenodd" d="M387 52.9999C386.715 53.016 386.43 53.0362 386.144 53.0573L387 53.9151V52.9999ZM384.849 53.1771L387 55.3336V56.7511L383.583 53.3312C384.004 53.2748 384.426 53.2234 384.849 53.1771ZM382.357 53.5174L387 58.1686V59.5861L381.156 53.7319C381.554 53.6547 381.955 53.5832 382.357 53.5174ZM379.983 53.9735C379.598 54.0587 379.215 54.148 378.835 54.2413L387 62.4222V61.0047L379.983 53.9735ZM377.714 54.5362C377.347 54.6376 376.981 54.7436 376.616 54.8544L387 65.2572V63.8397L377.715 54.5362H377.714ZM375.542 55.1967C375.19 55.3135 374.839 55.4349 374.491 55.5611L387 68.0922V66.6737L375.544 55.1967H375.542ZM373.462 55.9467C373.124 56.0809 372.789 56.2152 372.457 56.3494L387 70.9283V69.5107L373.462 55.9467ZM371.465 56.7813C371.14 56.927 370.817 57.0763 370.497 57.2293L387 73.7633V72.3458L371.465 56.7813V56.7813ZM369.547 57.6955C369.235 57.8532 368.925 58.0149 368.618 58.1807L387 76.5983V75.1808L369.547 57.6955V57.6955ZM367.704 58.6851C367.404 58.8549 367.106 59.0287 366.81 59.2066L387 79.4343V78.0158L367.706 58.6861L367.704 58.6851ZM365.933 59.7452L387 80.8508V82.2684L365.074 60.303C365.358 60.1137 365.645 59.9278 365.933 59.7452V59.7452ZM364.232 60.8758L387 83.6879V85.1054L363.405 61.4668C363.679 61.2654 363.954 61.0684 364.231 60.8758H364.232ZM362.597 62.0728L387 86.5249V87.9434L361.803 62.697C362.066 62.4856 362.331 62.2775 362.597 62.0728V62.0728ZM361.027 63.3363L387 89.3589V90.7755L360.27 63.9957C360.52 63.7736 360.774 63.5551 361.03 63.3403L361.027 63.3363ZM359.519 64.6632L387 92.193V93.6115L358.793 65.3518C359.033 65.1203 359.276 64.8911 359.522 64.6642L359.519 64.6632ZM358.077 66.0535L387 95.029V96.4465L357.384 66.7744C357.614 66.5321 357.846 66.2921 358.08 66.0545L358.077 66.0535ZM356.7 67.5083L387 97.864V99.2805L356.037 68.2604C356.257 68.008 356.479 67.7576 356.703 67.5093L356.7 67.5083ZM355.384 69.0265L387 100.699V102.118L354.755 69.8128C354.963 69.5497 355.174 69.2886 355.388 69.0295L355.384 69.0265ZM354.14 70.6111L387 103.539V104.949L353.537 71.4236C353.734 71.1491 353.935 70.8772 354.14 70.6081V70.6111ZM352.955 72.2592L387 106.37V107.788L352.385 73.1079C352.57 72.8226 352.759 72.5397 352.952 72.2592H352.955ZM351.829 73.9727L387 109.209V110.627L351.3 74.8566C351.475 74.5606 351.653 74.2663 351.834 73.9737L351.829 73.9727ZM350.784 75.7526L387 112.041V113.459L350.286 76.6758C350.449 76.3671 350.617 76.061 350.789 75.7577L350.784 75.7526ZM349.806 77.6091L387 114.876V116.295L349.345 78.5716C349.495 78.2514 349.649 77.9329 349.807 77.6161L349.806 77.6091ZM348.902 79.539C348.756 79.8686 348.615 80.2001 348.479 80.5337L387 119.13V117.711L348.904 79.5441L348.902 79.539ZM348.078 81.5526C347.944 81.8962 347.816 82.2415 347.696 82.5885L387 121.963V120.547L348.079 81.5536L348.078 81.5526ZM347.337 83.6466C347.22 84.005 347.108 84.3651 347 84.7269L387 124.8V123.382L347.339 83.6476L347.337 83.6466ZM346.687 85.8303C346.586 86.2058 346.486 86.5803 346.398 86.9588L387 127.636V126.218L346.689 85.8313L346.687 85.8303ZM346.136 88.1136C346.052 88.5062 345.975 88.9009 345.902 89.2975L387 130.471V129.053L346.138 88.1146L346.136 88.1136ZM345.696 90.5087C345.632 90.9214 345.573 91.3352 345.52 91.751L387 133.306V131.888L345.699 90.5107L345.696 90.5087ZM345.375 93.0256C345.333 93.4605 345.295 93.8954 345.265 94.3343L387 136.141V134.724L345.378 93.0245L345.375 93.0256ZM345.196 95.6804C345.179 96.1425 345.169 96.6046 345.166 97.0687L387 138.977V137.559L345.197 95.6784L345.196 95.6804ZM345.177 98.4993C345.177 98.5778 345.177 98.6563 345.177 98.7349C345.19 99.1463 345.207 99.5591 345.231 99.9732L386.888 141.7L387 141.695V140.394L345.181 98.4973L345.177 98.4993ZM345.35 101.508C345.391 101.937 345.437 102.364 345.489 102.788C345.489 102.88 345.489 102.972 345.489 103.066L384.273 141.916L385.579 141.808L345.353 101.506L345.35 101.508ZM345.451 104.449C345.43 104.877 345.4 105.32 345.355 105.772L381.658 142.131L382.964 142.023L345.459 104.445L345.451 104.449ZM345.203 107.037C345.145 107.439 345.076 107.842 344.996 108.245L379.042 142.346L380.349 142.238L345.211 107.035L345.203 107.037ZM344.732 109.399C344.638 109.767 344.532 110.133 344.416 110.5L376.427 142.561L377.733 142.453L344.739 109.397L344.732 109.399ZM344.045 111.546C343.915 111.881 343.773 112.212 343.62 112.539L373.811 142.775L375.117 142.668L344.052 111.544L344.045 111.546ZM343.141 113.477C342.974 113.779 342.797 114.072 342.608 114.361L371.196 142.991L372.502 142.883L343.15 113.475L343.141 113.477ZM342.019 115.188C341.818 115.452 341.603 115.709 341.374 115.96L368.58 143.205L369.887 143.099L342.028 115.186L342.019 115.188ZM340.675 116.676L367.264 143.315L365.958 143.423L339.923 117.332C340.191 117.12 340.444 116.901 340.684 116.675L340.675 116.676ZM339.1 117.935L364.657 143.527L363.351 143.636L338.239 118.477C338.53 118.309 338.822 118.129 339.11 117.933L339.1 117.935ZM337.299 118.967L362.041 143.744L360.734 143.852L336.315 119.387C336.648 119.265 336.981 119.126 337.312 118.969L337.299 118.967ZM335.232 119.732L359.426 143.958L358.119 144.066L334.089 119.992C334.471 119.924 334.856 119.837 335.242 119.73L335.232 119.732ZM332.83 120.16L356.811 144.174L355.505 144.282L331.479 120.213C331.924 120.213 332.383 120.198 332.839 120.158L332.83 120.16ZM329.975 120.134L354.195 144.389L352.889 144.497L328.314 119.881C328.844 119.986 329.401 120.074 329.981 120.132L329.975 120.134ZM326.411 119.4L351.58 144.604L350.273 144.711L324.146 118.531C324.887 118.868 325.648 119.157 326.425 119.398L326.411 119.4ZM321.129 116.929L348.965 144.816L347.659 144.924L318.538 115.754C319.419 116.113 320.283 116.506 321.129 116.933V116.929ZM316.299 114.925L346.345 145.027L345.039 145.134L314.285 114.329C314.963 114.509 315.633 114.71 316.295 114.933L316.299 114.925ZM312.431 113.886L343.732 145.248L342.426 145.356L310.702 113.573C311.283 113.664 311.86 113.769 312.432 113.889L312.431 113.886ZM309.069 113.353C308.555 113.297 308.038 113.252 307.519 113.218L339.809 145.571L341.116 145.463L309.07 113.357L309.069 113.353ZM306.04 113.152C305.571 113.141 305.098 113.141 304.621 113.152L337.194 145.787L338.5 145.679L306.042 113.161L306.04 113.152ZM303.254 113.196C302.927 113.213 302.6 113.236 302.273 113.263C302.16 113.272 302.05 113.285 301.937 113.296L334.579 146.002L335.885 145.894L303.255 113.204L303.254 113.196ZM300.661 113.434C300.246 113.487 299.834 113.547 299.424 113.614L331.963 146.217L333.27 146.109L300.661 113.439V113.434ZM298.226 113.83C297.836 113.909 297.447 113.99 297.061 114.082L329.347 146.427L330.654 146.319L298.227 113.835L298.226 113.83ZM295.93 114.366C295.561 114.465 295.195 114.57 294.831 114.681L326.732 146.646L328.038 146.539L295.931 114.371L295.93 114.366ZM293.758 115.026C293.408 115.144 293.06 115.268 292.713 115.397L324.117 146.862L325.423 146.754L293.758 115.031V115.026ZM291.698 115.797C291.363 115.932 291.033 116.073 290.707 116.222L321.5 147.076L322.807 146.969L291.699 115.802L291.698 115.797ZM289.74 116.671C289.422 116.824 289.108 116.981 288.796 117.142L318.886 147.292L320.192 147.184L289.744 116.679L289.74 116.671ZM287.877 117.64C287.576 117.809 287.277 117.982 286.98 118.16L316.271 147.507L317.577 147.399L287.879 117.645L287.877 117.64ZM286.106 118.701C285.819 118.885 285.533 119.071 285.252 119.263L313.655 147.722L314.961 147.614L286.109 118.705L286.106 118.701ZM284.418 119.846C284.145 120.047 283.875 120.248 283.607 120.45L311.04 147.934L312.347 147.827L284.42 119.849L284.418 119.846ZM282.816 121.077L309.732 148.045L308.426 148.153L282.049 121.727C282.303 121.508 282.559 121.292 282.82 121.081L282.816 121.077ZM281.294 122.386L307.111 148.259L305.805 148.367L280.564 123.07C280.804 122.839 281.048 122.611 281.296 122.387L281.294 122.386ZM279.851 123.775L304.499 148.475L303.192 148.582L279.161 124.507C279.388 124.262 279.619 124.02 279.853 123.781L279.851 123.775ZM278.489 125.246L301.886 148.689L300.579 148.797L277.84 126.016C278.054 125.758 278.271 125.504 278.493 125.252L278.489 125.246ZM277.205 126.794L299.273 148.905L297.967 149.012L276.594 127.601C276.795 127.332 276.999 127.064 277.207 126.795L277.205 126.794ZM275.999 128.425L296.649 149.114L295.343 149.222L275.43 129.273C275.616 128.988 275.806 128.705 275.999 128.425ZM274.88 130.137L294.034 149.325L292.727 149.433L274.352 131.034C274.524 130.735 274.7 130.439 274.88 130.145V130.137ZM273.846 131.936L291.424 149.548L290.118 149.656L273.372 132.879C273.529 132.565 273.688 132.252 273.853 131.944L273.846 131.936ZM272.906 133.829L288.807 149.764L287.501 149.871L272.476 134.819C272.616 134.489 272.762 134.163 272.912 133.837L272.906 133.829ZM272.06 135.817L286.188 149.972L284.882 150.079L271.682 136.863C271.804 136.516 271.932 136.171 272.065 135.829L272.06 135.817ZM271.32 137.912C271.206 138.272 271.094 138.635 270.992 138.999L282.269 150.302L283.576 150.194L271.324 137.92L271.32 137.912ZM270.694 140.12C270.599 140.501 270.51 140.884 270.428 141.27L279.65 150.508L280.956 150.401L270.694 140.119V140.12ZM270.192 142.453C270.119 142.856 270.056 143.268 269.998 143.677L277.032 150.725L278.338 150.617L270.191 142.454L270.192 142.453ZM269.84 144.937C269.794 145.37 269.757 145.806 269.727 146.246L274.422 150.947L275.729 150.84L269.845 144.945L269.84 144.937ZM269.659 147.59C269.644 148.056 269.642 148.524 269.644 148.993L271.807 151.159L273.114 151.051L269.664 147.595L269.659 147.59ZM269.684 150.451L270.488 151.256L269.732 151.319C269.718 151.036 269.704 150.75 269.69 150.46L269.684 150.451Z" fill="#6D6D6D"/>
<path fill-rule="evenodd" clip-rule="evenodd" d="M387 68.2764C386.214 68.2315 385.422 68.209 384.622 68.209C373.732 68.2092 363.258 72.3958 355.358 79.9055C347.458 87.4153 342.736 97.6756 342.165 108.571V108.571C342.127 109.309 342.108 110.052 342.108 110.801C342.108 111.356 342.122 111.908 342.143 112.46C341.841 116.516 340.535 122.729 335.604 125.96C327.897 131.021 319.648 125.262 319.648 125.262C314.575 121.692 308.624 119.579 302.439 119.151C296.254 118.724 290.07 119.998 284.556 122.837C279.041 125.675 274.406 129.969 271.151 135.256C267.896 140.542 266.145 146.619 266.088 152.83H387V68.2764Z" fill="#676767"/>
<path fill-rule="evenodd" clip-rule="evenodd" d="M387 106.636C379.683 106.403 372.402 107.757 365.656 110.606C354.008 115.497 344.599 124.565 339.268 136.036C338.646 137.375 338.073 138.774 337.499 140.172C335.494 145.058 333.486 149.957 329.087 152.835H330.631C334.512 149.788 336.419 145.143 338.319 140.509C338.884 139.13 339.451 137.752 340.074 136.408C345.31 125.136 354.553 116.226 365.998 111.42C372.636 108.617 379.801 107.288 387 107.522V106.636ZM312.818 152.834C310.718 151.536 308.866 149.871 307.351 147.919L307.327 147.889C303.267 142.212 297.821 137.672 291.511 134.704C285.201 131.736 278.237 130.438 271.283 130.934C264.329 131.43 257.619 133.703 251.792 137.537C245.965 141.371 241.217 146.638 238 152.834H238.998C242.194 146.835 246.865 141.753 252.569 138.068C258.274 134.384 264.822 132.219 271.595 131.779C278.368 131.339 285.141 132.638 291.273 135.554C297.404 138.469 302.692 142.904 306.634 148.439V148.439C306.642 148.451 306.651 148.463 306.66 148.474C307.961 150.143 309.498 151.612 311.224 152.834H312.818Z" fill="#6D6D6D"/>
</g>
</g>
<g filter="url(#filter0_d_8_850)">
<circle cx="175" cy="82" r="34" fill="#223F99"/>
<circle cx="175" cy="82" r="36" stroke="#FFCB57" stroke-width="4"/>
</g>
<path d="M157.604 102H163.929V61.905H152.489V67.625H157.604V102ZM172.048 101.45H198.778V96.225H181.343C187.778 90.34 197.678 82.915 197.678 73.18C197.678 65.975 193.058 61.08 184.918 61.08C177.823 61.08 172.213 65.315 171.993 74.005H178.043C178.208 69.495 180.573 66.415 184.973 66.415C189.648 66.415 191.463 69.275 191.463 73.455C191.463 81.32 181.508 88.58 172.048 96.885V101.45Z" fill="#FFCB57"/>
<path d="M157.604 102H156.604V103H157.604V102ZM163.929 102V103H164.929V102H163.929ZM163.929 61.905H164.929V60.905H163.929V61.905ZM152.489 61.905V60.905H151.489V61.905H152.489ZM152.489 67.625H151.489V68.625H152.489V67.625ZM157.604 67.625H158.604V66.625H157.604V67.625ZM157.604 103H163.929V101H157.604V103ZM164.929 102V61.905H162.929V102H164.929ZM163.929 60.905H152.489V62.905H163.929V60.905ZM151.489 61.905V67.625H153.489V61.905H151.489ZM152.489 68.625H157.604V66.625H152.489V68.625ZM156.604 67.625V102H158.604V67.625H156.604ZM172.048 101.45H171.048V102.45H172.048V101.45ZM198.778 101.45V102.45H199.778V101.45H198.778ZM198.778 96.225H199.778V95.225H198.778V96.225ZM181.343 96.225L180.668 95.4871L178.767 97.225H181.343V96.225ZM171.993 74.005L170.993 73.9797L170.967 75.005H171.993V74.005ZM178.043 74.005V75.005H179.007L179.042 74.0416L178.043 74.005ZM172.048 96.885L171.388 96.1335L171.048 96.4322V96.885H172.048ZM172.048 102.45H198.778V100.45H172.048V102.45ZM199.778 101.45V96.225H197.778V101.45H199.778ZM198.778 95.225H181.343V97.225H198.778V95.225ZM182.018 96.9629C185.176 94.0744 189.35 90.6678 192.681 86.7987C196.024 82.9165 198.678 78.3988 198.678 73.18H196.678C196.678 77.6962 194.382 81.7585 191.165 85.4938C187.938 89.2422 183.944 92.4906 180.668 95.4871L182.018 96.9629ZM198.678 73.18C198.678 69.3605 197.449 66.0592 195.049 63.7131C192.651 61.3681 189.189 60.08 184.918 60.08V62.08C188.786 62.08 191.704 63.2394 193.651 65.1431C195.597 67.0458 196.678 69.7945 196.678 73.18H198.678ZM184.918 60.08C181.175 60.08 177.737 61.1989 175.198 63.5499C172.649 65.9098 171.109 69.4153 170.993 73.9797L172.992 74.0303C173.097 69.9047 174.472 66.9477 176.556 65.0175C178.651 63.0786 181.565 62.08 184.918 62.08V60.08ZM171.993 75.005H178.043V73.005H171.993V75.005ZM179.042 74.0416C179.119 71.9413 179.704 70.2881 180.674 69.1756C181.623 68.086 183.025 67.415 184.973 67.415V65.415C182.52 65.415 180.54 66.284 179.166 67.8619C177.811 69.4169 177.132 71.5587 177.043 73.9684L179.042 74.0416ZM184.973 67.415C187.098 67.415 188.404 68.0559 189.205 69.0102C190.033 69.997 190.463 71.4876 190.463 73.455H192.463C192.463 71.2424 191.985 69.213 190.737 67.7248C189.461 66.2041 187.523 65.415 184.973 65.415V67.415ZM190.463 73.455C190.463 76.972 188.225 80.5045 184.58 84.3136C180.949 88.1081 176.17 91.9356 171.388 96.1335L172.707 97.6365C177.386 93.5294 182.314 89.5744 186.025 85.6964C189.722 81.833 192.463 77.803 192.463 73.455H190.463ZM171.048 96.885V101.45H173.048V96.885H171.048Z" fill="white"/>
<path d="M231.618 32.454C231.618 32.155 231.644 31.804 231.696 31.401C231.748 30.998 231.845 30.543 231.988 30.036C232.131 29.516 232.346 28.9375 232.632 28.3005L235.03 29.139C234.887 29.542 234.764 29.9125 234.66 30.2505C234.556 30.5755 234.478 30.881 234.426 31.167C234.374 31.44 234.348 31.713 234.348 31.986C234.348 32.415 234.439 32.7985 234.621 33.1365C234.816 33.4875 235.095 33.78 235.459 34.014C235.823 34.261 236.265 34.4495 236.785 34.5795C237.318 34.7095 237.929 34.7745 238.618 34.7745C239.333 34.7745 239.97 34.742 240.529 34.677C241.101 34.612 241.582 34.5145 241.972 34.3845C242.375 34.2545 242.681 34.0855 242.889 33.8775C243.097 33.6825 243.201 33.455 243.201 33.195C243.201 33.078 243.155 32.9675 243.064 32.8635C242.986 32.7595 242.85 32.649 242.655 32.532C242.473 32.415 242.226 32.2915 241.914 32.1615C241.615 32.0315 241.251 31.8885 240.822 31.7325L241.465 28.983C242.024 29.217 242.551 29.425 243.045 29.607C243.552 29.776 244.033 29.919 244.488 30.036C244.943 30.14 245.372 30.2245 245.775 30.2895C246.178 30.3415 246.555 30.3675 246.906 30.3675C247.4 30.3675 247.751 30.4975 247.959 30.7575C248.167 31.0045 248.271 31.3165 248.271 31.6935C248.271 32.0965 248.134 32.4345 247.861 32.7075C247.588 32.9675 247.205 33.0975 246.711 33.0975C246.607 33.0975 246.503 33.0975 246.399 33.0975C246.308 33.0975 246.21 33.0975 246.106 33.0975C246.015 33.0975 245.918 33.0975 245.814 33.0975C245.84 33.2275 245.853 33.338 245.853 33.429C245.853 33.533 245.853 33.6305 245.853 33.7215C245.853 34.1505 245.703 34.586 245.404 35.028C245.118 35.47 244.67 35.8795 244.059 36.2565C243.448 36.6335 242.668 36.9325 241.719 37.1535C240.783 37.3875 239.665 37.5045 238.365 37.5045C236.961 37.5045 235.752 37.3225 234.738 36.9585C233.737 36.6075 232.963 36.055 232.417 35.301C231.884 34.56 231.618 33.611 231.618 32.454ZM240.276 42.0285C239.899 42.0285 239.574 41.892 239.301 41.619C239.041 41.359 238.911 41.047 238.911 40.683C238.911 40.306 239.041 39.981 239.301 39.708C239.574 39.435 239.899 39.2985 240.276 39.2985C240.64 39.2985 240.952 39.435 241.212 39.708C241.472 39.981 241.602 40.306 241.602 40.683C241.602 41.047 241.472 41.359 241.212 41.619C240.952 41.892 240.64 42.0285 240.276 42.0285ZM236.902 42.0285C236.525 42.0285 236.2 41.892 235.927 41.619C235.667 41.359 235.537 41.047 235.537 40.683C235.537 40.306 235.667 39.981 235.927 39.708C236.2 39.435 236.525 39.2985 236.902 39.2985C237.266 39.2985 237.578 39.435 237.838 39.708C238.098 39.981 238.228 40.306 238.228 40.683C238.228 41.047 238.098 41.359 237.838 41.619C237.578 41.892 237.266 42.0285 236.902 42.0285ZM246.707 33.0975L246.902 30.3675C247.474 30.3675 247.923 30.3285 248.248 30.2505C248.586 30.1725 248.826 30.0295 248.969 29.8215C249.112 29.6005 249.184 29.2885 249.184 28.8855C249.184 28.5215 249.132 28.086 249.028 27.579C248.937 27.072 248.813 26.5455 248.657 25.9995C248.501 25.4535 248.345 24.953 248.189 24.498L250.88 23.757C251.036 24.199 251.192 24.7125 251.348 25.2975C251.504 25.8825 251.634 26.487 251.738 27.111C251.855 27.722 251.914 28.3135 251.914 28.8855C251.914 29.6005 251.823 30.205 251.641 30.699C251.459 31.18 251.205 31.583 250.88 31.908C250.568 32.22 250.191 32.467 249.749 32.649C249.32 32.818 248.846 32.935 248.326 33C247.806 33.065 247.266 33.0975 246.707 33.0975ZM249.515 22.1385C249.112 22.1385 248.768 22.002 248.482 21.729C248.209 21.456 248.072 21.118 248.072 20.715C248.072 20.312 248.209 19.9675 248.482 19.6815C248.768 19.3955 249.112 19.2525 249.515 19.2525C249.905 19.2525 250.237 19.3955 250.51 19.6815C250.796 19.9675 250.939 20.312 250.939 20.715C250.939 21.118 250.796 21.456 250.51 21.729C250.237 22.002 249.905 22.1385 249.515 22.1385ZM259.077 33.0975C257.868 33.0975 256.932 32.974 256.269 32.727C255.619 32.48 255.164 32.0965 254.904 31.5765C254.644 31.0435 254.495 30.374 254.456 29.568L254.046 18.726H256.776L257.186 28.2615C257.212 28.8595 257.277 29.308 257.381 29.607C257.485 29.906 257.68 30.1075 257.966 30.2115C258.265 30.3155 258.7 30.3675 259.272 30.3675C259.766 30.3675 260.117 30.4975 260.325 30.7575C260.546 31.0045 260.657 31.3165 260.657 31.6935C260.657 32.0965 260.52 32.4345 260.247 32.7075C259.974 32.9675 259.584 33.0975 259.077 33.0975ZM259.104 33.0975L259.299 30.3675C259.767 30.3675 260.17 30.322 260.508 30.231C260.846 30.14 261.132 29.958 261.366 29.685C261.6 29.399 261.795 28.983 261.951 28.437C262.12 27.891 262.27 27.163 262.4 26.253L264.954 26.682C264.928 26.877 264.889 27.1045 264.837 27.3645C264.798 27.6245 264.759 27.891 264.72 28.164C264.694 28.424 264.681 28.671 264.681 28.905C264.681 29.139 264.727 29.347 264.818 29.529C264.909 29.711 265.052 29.867 265.247 29.997C265.455 30.114 265.721 30.205 266.046 30.27C266.384 30.335 266.794 30.3675 267.275 30.3675C267.769 30.3675 268.12 30.4975 268.328 30.7575C268.536 31.0045 268.64 31.3165 268.64 31.6935C268.64 32.0965 268.503 32.4345 268.23 32.7075C267.97 32.9675 267.587 33.0975 267.08 33.0975C266.495 33.0975 265.962 33.052 265.481 32.961C265.013 32.87 264.603 32.7205 264.252 32.5125C263.914 32.2915 263.635 32.0055 263.414 31.6545C263.206 31.2905 263.076 30.8485 263.024 30.3285H263.96C263.726 30.9525 263.427 31.453 263.063 31.83C262.712 32.194 262.315 32.467 261.873 32.649C261.431 32.831 260.97 32.948 260.489 33C260.021 33.065 259.559 33.0975 259.104 33.0975ZM263.804 21.885C263.479 21.885 263.193 21.7615 262.946 21.5145C262.712 21.2675 262.595 20.975 262.595 20.637C262.595 20.299 262.712 20.013 262.946 19.779C263.193 19.545 263.479 19.428 263.804 19.428C264.142 19.428 264.428 19.545 264.662 19.779C264.896 20.013 265.013 20.299 265.013 20.637C265.013 20.975 264.896 21.2675 264.662 21.5145C264.428 21.7615 264.142 21.885 263.804 21.885ZM262.244 24.459C261.919 24.459 261.633 24.3355 261.386 24.0885C261.152 23.8415 261.035 23.549 261.035 23.211C261.035 22.873 261.152 22.587 261.386 22.353C261.633 22.119 261.919 22.002 262.244 22.002C262.582 22.002 262.868 22.119 263.102 22.353C263.336 22.587 263.453 22.873 263.453 23.211C263.453 23.549 263.336 23.8415 263.102 24.0885C262.868 24.3355 262.582 24.459 262.244 24.459ZM265.266 24.459C264.941 24.459 264.655 24.3355 264.408 24.0885C264.174 23.8415 264.057 23.549 264.057 23.211C264.057 22.873 264.174 22.587 264.408 22.353C264.655 22.119 264.941 22.002 265.266 22.002C265.604 22.002 265.89 22.119 266.124 22.353C266.358 22.587 266.475 22.873 266.475 23.211C266.475 23.549 266.358 23.8415 266.124 24.0885C265.89 24.3355 265.604 24.459 265.266 24.459ZM267.083 33.0975L267.278 30.3675C267.876 30.3675 268.305 30.309 268.565 30.192C268.825 30.062 268.981 29.828 269.033 29.49C269.085 29.139 269.098 28.632 269.072 27.969L268.721 18.726H271.471L271.861 28.164C271.887 28.918 271.854 29.6005 271.763 30.2115C271.685 30.8095 271.484 31.323 271.159 31.752C270.847 32.181 270.359 32.5125 269.696 32.7465C269.046 32.9805 268.175 33.0975 267.083 33.0975ZM274.432 33L274.023 18.726H276.753L277.162 33H274.432ZM282.025 32.454C282.025 32.155 282.051 31.804 282.103 31.401C282.155 30.998 282.252 30.543 282.395 30.036C282.538 29.516 282.753 28.9375 283.039 28.3005L285.437 29.139C285.294 29.542 285.171 29.9125 285.067 30.2505C284.963 30.5755 284.885 30.881 284.833 31.167C284.781 31.44 284.755 31.713 284.755 31.986C284.755 32.376 284.839 32.74 285.008 33.078C285.177 33.416 285.431 33.7085 285.769 33.9555C286.107 34.2155 286.523 34.417 287.017 34.56C287.524 34.703 288.109 34.7745 288.772 34.7745C289.526 34.7745 290.189 34.703 290.761 34.56C291.346 34.43 291.833 34.2545 292.223 34.0335C292.626 33.8255 292.932 33.6045 293.14 33.3705C293.348 33.1365 293.452 32.922 293.452 32.727C293.452 32.571 293.341 32.4345 293.12 32.3175C292.912 32.2005 292.633 32.0835 292.282 31.9665C291.944 31.8365 291.58 31.6935 291.19 31.5375C290.813 31.3815 290.449 31.1865 290.098 30.9525C289.76 30.7185 289.48 30.4325 289.259 30.0945C289.051 29.7565 288.947 29.347 288.947 28.866C288.947 28.372 289.077 27.8325 289.337 27.2475C289.597 26.6495 289.968 26.084 290.449 25.551C290.93 25.005 291.502 24.563 292.165 24.225C292.841 23.874 293.582 23.6985 294.388 23.6985C294.96 23.6985 295.48 23.7895 295.948 23.9715C296.429 24.1535 296.832 24.3615 297.157 24.5955L296.143 26.877C295.87 26.695 295.577 26.5585 295.265 26.4675C294.953 26.3635 294.654 26.3115 294.368 26.3115C294.004 26.3115 293.653 26.383 293.315 26.526C292.99 26.669 292.698 26.8575 292.438 27.0915C292.191 27.3125 291.996 27.553 291.853 27.813C291.71 28.073 291.638 28.32 291.638 28.554C291.638 28.788 291.749 28.996 291.97 29.178C292.204 29.347 292.503 29.5095 292.867 29.6655C293.231 29.8085 293.614 29.958 294.017 30.114C294.42 30.27 294.804 30.4455 295.168 30.6405C295.532 30.8355 295.824 31.0695 296.045 31.3425C296.279 31.6155 296.396 31.947 296.396 32.337C296.396 32.896 296.221 33.4745 295.87 34.0725C295.532 34.6835 295.025 35.249 294.349 35.769C293.673 36.289 292.841 36.705 291.853 37.017C290.878 37.342 289.747 37.5045 288.46 37.5045C287.524 37.5045 286.666 37.394 285.886 37.173C285.106 36.965 284.423 36.6465 283.838 36.2175C283.266 35.8015 282.818 35.275 282.493 34.638C282.181 34.014 282.025 33.286 282.025 32.454ZM298.644 37.485L298.079 34.755C299.002 34.638 299.808 34.495 300.497 34.326C301.186 34.17 301.764 33.949 302.232 33.663C302.7 33.377 303.051 32.987 303.285 32.493C303.519 31.986 303.636 31.336 303.636 30.543C303.636 29.776 303.519 29.165 303.285 28.71C303.051 28.255 302.739 28.0275 302.349 28.0275C302.076 28.0275 301.849 28.125 301.667 28.32C301.485 28.502 301.348 28.723 301.257 28.983C301.179 29.23 301.14 29.451 301.14 29.646C301.14 29.763 301.173 29.8865 301.238 30.0165C301.303 30.1465 301.446 30.257 301.667 30.348C301.888 30.439 302.232 30.491 302.7 30.504C303.181 30.517 303.831 30.4715 304.65 30.3675H307.926C308.42 30.3675 308.771 30.4975 308.979 30.7575C309.2 31.0045 309.311 31.3165 309.311 31.6935C309.311 32.0965 309.174 32.4345 308.901 32.7075C308.628 32.9675 308.238 33.0975 307.731 33.0975H302.369C301.55 33.0975 300.848 33 300.263 32.805C299.678 32.61 299.229 32.298 298.917 31.869C298.605 31.427 298.449 30.842 298.449 30.114C298.449 29.529 298.547 28.944 298.742 28.359C298.95 27.774 299.236 27.241 299.6 26.76C299.964 26.266 300.386 25.876 300.867 25.59C301.361 25.291 301.894 25.1415 302.466 25.1415C303.246 25.1415 303.929 25.382 304.514 25.863C305.099 26.344 305.554 26.981 305.879 27.774C306.217 28.567 306.386 29.4315 306.386 30.3675C306.386 31.8365 306.074 33.0845 305.45 34.1115C304.826 35.1385 303.935 35.9315 302.778 36.4905C301.621 37.0625 300.243 37.394 298.644 37.485ZM307.759 33.0975L307.954 30.3675C308.422 30.3675 308.825 30.322 309.163 30.231C309.501 30.14 309.787 29.958 310.021 29.685C310.255 29.399 310.45 28.983 310.606 28.437C310.775 27.891 310.924 27.163 311.054 26.253L313.609 26.682C313.583 26.877 313.544 27.1045 313.492 27.3645C313.453 27.6245 313.414 27.891 313.375 28.164C313.349 28.424 313.336 28.671 313.336 28.905C313.336 29.139 313.381 29.347 313.472 29.529C313.563 29.711 313.706 29.867 313.901 29.997C314.109 30.114 314.376 30.205 314.701 30.27C315.039 30.335 315.448 30.3675 315.929 30.3675C316.423 30.3675 316.774 30.4975 316.982 30.7575C317.19 31.0045 317.294 31.3165 317.294 31.6935C317.294 32.0965 317.158 32.4345 316.885 32.7075C316.625 32.9675 316.241 33.0975 315.734 33.0975C315.149 33.0975 314.616 33.052 314.135 32.961C313.667 32.87 313.258 32.7205 312.907 32.5125C312.569 32.2915 312.289 32.0055 312.068 31.6545C311.86 31.2905 311.73 30.8485 311.678 30.3285H312.614C312.38 30.9525 312.081 31.453 311.717 31.83C311.366 32.194 310.97 32.467 310.528 32.649C310.086 32.831 309.624 32.948 309.143 33C308.675 33.065 308.214 33.0975 307.759 33.0975ZM314.018 24.498C313.641 24.498 313.316 24.368 313.043 24.108C312.783 23.835 312.653 23.5165 312.653 23.1525C312.653 22.7755 312.783 22.4505 313.043 22.1775C313.316 21.9045 313.641 21.768 314.018 21.768C314.382 21.768 314.694 21.9045 314.954 22.1775C315.214 22.4505 315.344 22.7755 315.344 23.1525C315.344 23.5165 315.214 23.835 314.954 24.108C314.694 24.368 314.382 24.498 314.018 24.498ZM310.645 24.4785C310.268 24.4785 309.943 24.3485 309.67 24.0885C309.41 23.8155 309.28 23.497 309.28 23.133C309.28 22.756 309.41 22.431 309.67 22.158C309.943 21.885 310.268 21.7485 310.645 21.7485C311.009 21.7485 311.321 21.885 311.581 22.158C311.841 22.431 311.971 22.756 311.971 23.133C311.971 23.497 311.841 23.8155 311.581 24.0885C311.321 24.3485 311.009 24.4785 310.645 24.4785ZM315.738 33.0975L315.933 30.3675C316.362 30.3675 316.713 30.335 316.986 30.27C317.259 30.192 317.48 30.0295 317.649 29.7825C317.831 29.5225 317.987 29.139 318.117 28.632C318.26 28.112 318.416 27.41 318.585 26.526L321.12 26.994C321.068 27.28 320.996 27.6375 320.905 28.0665C320.827 28.4955 320.788 28.866 320.788 29.178C320.788 29.425 320.834 29.6395 320.925 29.8215C321.029 29.9905 321.198 30.127 321.432 30.231C321.679 30.322 322.017 30.3675 322.446 30.3675C322.784 30.3675 323.07 30.335 323.304 30.27C323.551 30.192 323.759 30.0295 323.928 29.7825C324.11 29.5225 324.266 29.126 324.396 28.593C324.539 28.047 324.675 27.3125 324.805 26.3895L327.379 26.799C327.327 27.098 327.275 27.4165 327.223 27.7545C327.171 28.0925 327.126 28.4045 327.087 28.6905C327.048 28.9765 327.028 29.2105 327.028 29.3925C327.028 29.5615 327.074 29.724 327.165 29.88C327.269 30.023 327.451 30.14 327.711 30.231C327.984 30.322 328.361 30.3675 328.842 30.3675C329.427 30.3675 329.856 30.244 330.129 29.997C330.415 29.737 330.558 29.347 330.558 28.827C330.558 28.528 330.551 28.2095 330.538 27.8715C330.525 27.5205 330.499 27.1305 330.46 26.7015C330.434 26.2595 330.382 25.759 330.304 25.2L332.82 25.005C332.911 26.123 333.015 27.033 333.132 27.735C333.249 28.437 333.405 28.983 333.6 29.373C333.808 29.75 334.081 30.01 334.419 30.153C334.77 30.296 335.225 30.3675 335.784 30.3675C336.278 30.3675 336.629 30.4975 336.837 30.7575C337.058 31.0045 337.168 31.3165 337.168 31.6935C337.168 32.0965 337.032 32.4345 336.759 32.7075C336.499 32.9675 336.109 33.0975 335.589 33.0975C335.238 33.0975 334.874 33.065 334.497 33C334.12 32.948 333.756 32.8375 333.405 32.6685C333.054 32.4865 332.742 32.2265 332.469 31.8885C332.196 31.5505 331.981 31.102 331.825 30.543L332.176 30.66C331.994 31.31 331.747 31.8105 331.435 32.1615C331.123 32.5125 330.74 32.7595 330.285 32.9025C329.83 33.0325 329.284 33.0975 328.647 33.0975C328.062 33.0975 327.542 33.0195 327.087 32.8635C326.632 32.7075 326.268 32.454 325.995 32.103C325.735 31.739 325.598 31.2515 325.585 30.6405H326.248C325.988 31.3685 325.689 31.908 325.351 32.259C325.013 32.61 324.604 32.8375 324.123 32.9415C323.642 33.0455 323.037 33.0975 322.309 33.0975C321.867 33.0975 321.432 33.052 321.003 32.961C320.574 32.857 320.19 32.6295 319.852 32.2785C319.514 31.9145 319.267 31.3425 319.111 30.5625L320.164 30.5235C319.891 31.2905 319.534 31.856 319.092 32.22C318.663 32.584 318.169 32.8245 317.61 32.9415C317.051 33.0455 316.427 33.0975 315.738 33.0975ZM335.6 33.0975L335.795 30.3675C336.12 30.3675 336.367 30.3025 336.536 30.1725C336.705 30.0425 336.874 29.815 337.043 29.49C337.212 29.165 337.446 28.723 337.745 28.164C338.07 27.54 338.408 27.02 338.759 26.604C339.11 26.175 339.461 25.837 339.812 25.59C340.176 25.33 340.533 25.148 340.884 25.044C341.248 24.927 341.606 24.8685 341.957 24.8685C342.438 24.8685 342.886 24.9725 343.302 25.1805C343.731 25.3755 344.141 25.72 344.531 26.214C344.921 26.695 345.291 27.358 345.642 28.203C345.889 28.788 346.136 29.2365 346.383 29.5485C346.63 29.8605 346.884 30.075 347.144 30.192C347.417 30.309 347.69 30.3675 347.963 30.3675C348.457 30.3675 348.808 30.4975 349.016 30.7575C349.224 31.0045 349.328 31.3165 349.328 31.6935C349.328 32.0965 349.191 32.4345 348.918 32.7075C348.645 32.9675 348.262 33.0975 347.768 33.0975C347.131 33.0975 346.552 32.9935 346.032 32.7855C345.512 32.5775 345.103 32.2655 344.804 31.8495L345.369 31.4205C345.252 31.6935 345.077 31.9795 344.843 32.2785C344.622 32.5775 344.329 32.831 343.965 33.039C343.614 33.247 343.192 33.351 342.698 33.351C342.373 33.351 341.989 33.286 341.547 33.156C341.118 33.039 340.67 32.8375 340.202 32.5515C339.747 32.2525 339.324 31.8495 338.934 31.3425C338.687 31.7975 338.414 32.155 338.115 32.415C337.816 32.662 337.465 32.8375 337.062 32.9415C336.659 33.0455 336.172 33.0975 335.6 33.0975ZM340.065 29.0415C340.195 29.2365 340.351 29.4315 340.533 29.6265C340.715 29.8215 340.917 29.997 341.138 30.153C341.359 30.296 341.593 30.413 341.84 30.504C342.1 30.595 342.353 30.6405 342.6 30.6405C342.86 30.6405 343.075 30.543 343.244 30.348C343.413 30.14 343.419 29.8345 343.263 29.4315C343.198 29.2625 343.107 29.074 342.99 28.866C342.886 28.645 342.763 28.437 342.62 28.242C342.49 28.047 342.34 27.8845 342.171 27.7545C342.015 27.6245 341.853 27.5595 341.684 27.5595C341.515 27.5595 341.339 27.6115 341.157 27.7155C340.975 27.8195 340.793 27.982 340.611 28.203C340.429 28.411 340.247 28.6905 340.065 29.0415ZM347.768 33.0975L347.963 30.3675C348.561 30.3675 348.99 30.309 349.25 30.192C349.51 30.062 349.666 29.828 349.718 29.49C349.77 29.139 349.783 28.632 349.757 27.969L349.406 18.726H352.156L352.546 28.164C352.572 28.918 352.539 29.6005 352.448 30.2115C352.37 30.8095 352.169 31.323 351.844 31.752C351.532 32.181 351.044 32.5125 350.381 32.7465C349.731 32.9805 348.86 33.0975 347.768 33.0975ZM355.117 33L354.708 18.726H357.438L357.847 33H355.117ZM275.564 66.5045L274.57 64.0865C275.259 63.8525 275.889 63.5795 276.461 63.2675C277.046 62.9555 277.553 62.611 277.982 62.234C278.411 61.857 278.743 61.4475 278.977 61.0055C279.211 60.5505 279.328 60.063 279.328 59.543C279.328 58.997 279.204 58.399 278.957 57.749C278.71 57.099 278.411 56.436 278.06 55.76L280.615 54.5315C280.849 54.9345 281.05 55.37 281.219 55.838C281.401 56.293 281.551 56.7025 281.668 57.0665C281.785 57.4305 281.863 57.6775 281.902 57.8075C282.084 58.4315 282.331 58.8475 282.643 59.0555C282.968 59.2635 283.488 59.3675 284.203 59.3675C284.697 59.3675 285.048 59.4975 285.256 59.7575C285.477 60.0045 285.587 60.3165 285.587 60.6935C285.587 61.0965 285.451 61.4345 285.178 61.7075C284.905 61.9675 284.515 62.0975 284.008 62.0975C283.475 62.0975 283.007 62.0195 282.604 61.8635C282.201 61.7075 281.876 61.48 281.629 61.181C281.395 60.882 281.245 60.531 281.18 60.128L281.902 60.5375C281.824 61.2265 281.596 61.8765 281.219 62.4875C280.855 63.1115 280.381 63.6835 279.796 64.2035C279.211 64.7235 278.554 65.1785 277.826 65.5685C277.098 65.9585 276.344 66.2705 275.564 66.5045ZM284.031 62.0975L284.226 59.3675C284.655 59.3675 285.006 59.335 285.279 59.27C285.552 59.192 285.773 59.0295 285.942 58.7825C286.124 58.5225 286.28 58.139 286.41 57.632C286.553 57.112 286.709 56.41 286.878 55.526L289.413 55.994C289.361 56.28 289.29 56.6375 289.199 57.0665C289.121 57.4955 289.082 57.866 289.082 58.178C289.082 58.425 289.127 58.6395 289.218 58.8215C289.322 58.9905 289.491 59.127 289.725 59.231C289.972 59.322 290.31 59.3675 290.739 59.3675C291.077 59.3675 291.363 59.335 291.597 59.27C291.844 59.192 292.052 59.0295 292.221 58.7825C292.403 58.5225 292.559 58.126 292.689 57.593C292.832 57.047 292.969 56.3125 293.099 55.3895L295.673 55.799C295.621 56.098 295.569 56.4165 295.517 56.7545C295.465 57.0925 295.419 57.4045 295.38 57.6905C295.341 57.9765 295.322 58.2105 295.322 58.3925C295.322 58.5615 295.367 58.724 295.458 58.88C295.562 59.023 295.744 59.14 296.004 59.231C296.277 59.322 296.654 59.3675 297.135 59.3675C297.72 59.3675 298.149 59.244 298.422 58.997C298.708 58.737 298.851 58.347 298.851 57.827C298.851 57.528 298.845 57.2095 298.832 56.8715C298.819 56.5205 298.793 56.1305 298.754 55.7015C298.728 55.2595 298.676 54.759 298.598 54.2L301.113 54.005C301.204 55.123 301.308 56.033 301.425 56.735C301.542 57.437 301.698 57.983 301.893 58.373C302.101 58.75 302.374 59.01 302.712 59.153C303.063 59.296 303.518 59.3675 304.077 59.3675C304.571 59.3675 304.922 59.4975 305.13 59.7575C305.351 60.0045 305.462 60.3165 305.462 60.6935C305.462 61.0965 305.325 61.4345 305.052 61.7075C304.792 61.9675 304.402 62.0975 303.882 62.0975C303.531 62.0975 303.167 62.065 302.79 62C302.413 61.948 302.049 61.8375 301.698 61.6685C301.347 61.4865 301.035 61.2265 300.762 60.8885C300.489 60.5505 300.275 60.102 300.119 59.543L300.47 59.66C300.288 60.31 300.041 60.8105 299.729 61.1615C299.417 61.5125 299.033 61.7595 298.578 61.9025C298.123 62.0325 297.577 62.0975 296.94 62.0975C296.355 62.0975 295.835 62.0195 295.38 61.8635C294.925 61.7075 294.561 61.454 294.288 61.103C294.028 60.739 293.892 60.2515 293.879 59.6405H294.542C294.282 60.3685 293.983 60.908 293.645 61.259C293.307 61.61 292.897 61.8375 292.416 61.9415C291.935 62.0455 291.331 62.0975 290.603 62.0975C290.161 62.0975 289.725 62.052 289.296 61.961C288.867 61.857 288.484 61.6295 288.146 61.2785C287.808 60.9145 287.561 60.3425 287.405 59.5625L288.458 59.5235C288.185 60.2905 287.827 60.856 287.385 61.22C286.956 61.584 286.462 61.8245 285.903 61.9415C285.344 62.0455 284.72 62.0975 284.031 62.0975ZM294.035 50.027C293.71 50.027 293.424 49.9035 293.177 49.6565C292.943 49.4095 292.826 49.117 292.826 48.779C292.826 48.441 292.943 48.155 293.177 47.921C293.424 47.687 293.71 47.57 294.035 47.57C294.373 47.57 294.659 47.687 294.893 47.921C295.127 48.155 295.244 48.441 295.244 48.779C295.244 49.117 295.127 49.4095 294.893 49.6565C294.659 49.9035 294.373 50.027 294.035 50.027ZM292.475 52.601C292.15 52.601 291.864 52.4775 291.617 52.2305C291.383 51.9835 291.266 51.691 291.266 51.353C291.266 51.015 291.383 50.729 291.617 50.495C291.864 50.261 292.15 50.144 292.475 50.144C292.813 50.144 293.099 50.261 293.333 50.495C293.567 50.729 293.684 51.015 293.684 51.353C293.684 51.691 293.567 51.9835 293.333 52.2305C293.099 52.4775 292.813 52.601 292.475 52.601ZM295.497 52.601C295.172 52.601 294.886 52.4775 294.639 52.2305C294.405 51.9835 294.288 51.691 294.288 51.353C294.288 51.015 294.405 50.729 294.639 50.495C294.886 50.261 295.172 50.144 295.497 50.144C295.835 50.144 296.121 50.261 296.355 50.495C296.589 50.729 296.706 51.015 296.706 51.353C296.706 51.691 296.589 51.9835 296.355 52.2305C296.121 52.4775 295.835 52.601 295.497 52.601ZM303.893 62.0975L304.088 59.3675C304.699 59.3675 305.167 59.361 305.492 59.348C305.83 59.335 306.084 59.322 306.253 59.309C306.422 59.283 306.565 59.2635 306.682 59.2505C306.552 59.1205 306.383 58.932 306.175 58.685C305.967 58.438 305.778 58.1195 305.609 57.7295C305.453 57.3395 305.375 56.8715 305.375 56.3255C305.375 55.5325 305.577 54.837 305.98 54.239C306.396 53.641 306.955 53.173 307.657 52.835C308.359 52.497 309.145 52.328 310.016 52.328C310.432 52.328 310.816 52.354 311.167 52.406C311.531 52.458 311.895 52.536 312.259 52.64L311.83 55.2335C311.57 55.1685 311.297 55.1165 311.011 55.0775C310.725 55.0385 310.471 55.019 310.25 55.019C309.821 55.019 309.444 55.0905 309.119 55.2335C308.807 55.3635 308.56 55.552 308.378 55.799C308.209 56.033 308.125 56.319 308.125 56.657C308.125 56.878 308.164 57.086 308.242 57.281C308.333 57.476 308.443 57.6515 308.573 57.8075C308.703 57.9635 308.846 58.1 309.002 58.217C309.158 58.334 309.308 58.4315 309.451 58.5095C309.607 58.5745 309.737 58.62 309.841 58.646C310.166 58.555 310.445 58.477 310.679 58.412C310.926 58.334 311.16 58.2625 311.381 58.1975C311.615 58.1195 311.869 58.022 312.142 57.905C312.415 57.788 312.753 57.645 313.156 57.476L314.033 60.05C312.941 60.583 311.875 60.999 310.835 61.298C309.795 61.597 308.716 61.805 307.598 61.922C306.48 62.039 305.245 62.0975 303.893 62.0975Z" fill="#223F99"/>
<path d="M19.153 103.605V106.569H15.581V117H11.857V106.569H8.323V103.605H19.153ZM36.2818 106.341L33.5648 117H29.3848L27.9028 110.54L26.3638 117H22.2028L19.5048 106.341H23.2098L24.4068 113.409L25.9838 106.341H29.9738L31.6078 113.428L32.7858 106.341H36.2818ZM47.5253 111.547C47.5253 111.838 47.5063 112.13 47.4683 112.421H40.4193C40.4573 113.004 40.6157 113.441 40.8943 113.732C41.1857 114.011 41.553 114.15 41.9963 114.15C42.617 114.15 43.0603 113.871 43.3263 113.314H47.2973C47.1327 114.049 46.8097 114.707 46.3283 115.29C45.8597 115.86 45.2643 116.31 44.5423 116.639C43.8203 116.968 43.0223 117.133 42.1483 117.133C41.097 117.133 40.1597 116.911 39.3363 116.468C38.5257 116.025 37.886 115.391 37.4173 114.568C36.9613 113.745 36.7333 112.776 36.7333 111.661C36.7333 110.546 36.9613 109.584 37.4173 108.773C37.8733 107.95 38.5067 107.316 39.3173 106.873C40.1407 106.43 41.0843 106.208 42.1483 106.208C43.1997 106.208 44.1307 106.423 44.9413 106.854C45.752 107.285 46.3853 107.905 46.8413 108.716C47.2973 109.514 47.5253 110.458 47.5253 111.547ZM43.7253 110.616C43.7253 110.16 43.5733 109.805 43.2693 109.552C42.9653 109.286 42.5853 109.153 42.1293 109.153C41.6733 109.153 41.2997 109.28 41.0083 109.533C40.717 109.774 40.527 110.135 40.4383 110.616H43.7253ZM52.7734 102.94V117H49.0494V102.94H52.7734ZM60.0051 113.485L62.0001 106.341H65.9711L62.3041 117H57.6681L54.0011 106.341H57.9721L60.0051 113.485ZM77.4169 111.547C77.4169 111.838 77.3979 112.13 77.3599 112.421H70.3109C70.3489 113.004 70.5073 113.441 70.7859 113.732C71.0773 114.011 71.4446 114.15 71.8879 114.15C72.5086 114.15 72.9519 113.871 73.2179 113.314H77.1889C77.0243 114.049 76.7013 114.707 76.2199 115.29C75.7513 115.86 75.1559 116.31 74.4339 116.639C73.7119 116.968 72.9139 117.133 72.0399 117.133C70.9886 117.133 70.0513 116.911 69.2279 116.468C68.4173 116.025 67.7776 115.391 67.3089 114.568C66.8529 113.745 66.6249 112.776 66.6249 111.661C66.6249 110.546 66.8529 109.584 67.3089 108.773C67.7649 107.95 68.3983 107.316 69.2089 106.873C70.0323 106.43 70.9759 106.208 72.0399 106.208C73.0913 106.208 74.0223 106.423 74.8329 106.854C75.6436 107.285 76.2769 107.905 76.7329 108.716C77.1889 109.514 77.4169 110.458 77.4169 111.547ZM73.6169 110.616C73.6169 110.16 73.4649 109.805 73.1609 109.552C72.8569 109.286 72.4769 109.153 72.0209 109.153C71.5649 109.153 71.1913 109.28 70.8999 109.533C70.6086 109.774 70.4186 110.135 70.3299 110.616H73.6169ZM86.3017 114.15H90.4627V117H82.5777V103.605H86.3017V114.15ZM102.095 111.547C102.095 111.838 102.076 112.13 102.038 112.421H94.9887C95.0267 113.004 95.185 113.441 95.4637 113.732C95.755 114.011 96.1223 114.15 96.5657 114.15C97.1863 114.15 97.6297 113.871 97.8957 113.314H101.867C101.702 114.049 101.379 114.707 100.898 115.29C100.429 115.86 99.8337 116.31 99.1117 116.639C98.3897 116.968 97.5917 117.133 96.7177 117.133C95.6663 117.133 94.729 116.911 93.9057 116.468C93.095 116.025 92.4553 115.391 91.9867 114.568C91.5307 113.745 91.3027 112.776 91.3027 111.661C91.3027 110.546 91.5307 109.584 91.9867 108.773C92.4427 107.95 93.076 107.316 93.8867 106.873C94.71 106.43 95.6537 106.208 96.7177 106.208C97.769 106.208 98.7 106.423 99.5107 106.854C100.321 107.285 100.955 107.905 101.411 108.716C101.867 109.514 102.095 110.458 102.095 111.547ZM98.2947 110.616C98.2947 110.16 98.1427 109.805 97.8387 109.552C97.5347 109.286 97.1547 109.153 96.6987 109.153C96.2427 109.153 95.869 109.28 95.5777 109.533C95.2863 109.774 95.0963 110.135 95.0077 110.616H98.2947ZM108.73 113.485L110.725 106.341H114.696L111.029 117H106.393L102.726 106.341H106.697L108.73 113.485ZM126.142 111.547C126.142 111.838 126.123 112.13 126.085 112.421H119.036C119.074 113.004 119.232 113.441 119.511 113.732C119.802 114.011 120.169 114.15 120.613 114.15C121.233 114.15 121.677 113.871 121.943 113.314H125.914C125.749 114.049 125.426 114.707 124.945 115.29C124.476 115.86 123.881 116.31 123.159 116.639C122.437 116.968 121.639 117.133 120.765 117.133C119.713 117.133 118.776 116.911 117.953 116.468C117.142 116.025 116.502 115.391 116.034 114.568C115.578 113.745 115.35 112.776 115.35 111.661C115.35 110.546 115.578 109.584 116.034 108.773C116.49 107.95 117.123 107.316 117.934 106.873C118.757 106.43 119.701 106.208 120.765 106.208C121.816 106.208 122.747 106.423 123.558 106.854C124.368 107.285 125.002 107.905 125.458 108.716C125.914 109.514 126.142 110.458 126.142 111.547ZM122.342 110.616C122.342 110.16 122.19 109.805 121.886 109.552C121.582 109.286 121.202 109.153 120.746 109.153C120.29 109.153 119.916 109.28 119.625 109.533C119.333 109.774 119.143 110.135 119.055 110.616H122.342ZM131.39 102.94V117H127.666V102.94H131.39Z" fill="#223F99"/>
</g>
</g>
<defs>
<filter id="filter0_d_8_850" x="133" y="44" width="84" height="84" filterUnits="userSpaceOnUse" color-interpolation-filters="sRGB">
<feFlood flood-opacity="0" result="BackgroundImageFix"/>
<feColorMatrix in="SourceAlpha" type="matrix" values="0 0 0 0 0 0 0 0 0 0 0 0 0 0 0 0 0 0 127 0" result="hardAlpha"/>
<feOffset dy="4"/>
<feGaussianBlur stdDeviation="2"/>
<feComposite in2="hardAlpha" operator="out"/>
<feColorMatrix type="matrix" values="0 0 0 0 0 0 0 0 0 0 0 0 0 0 0 0 0 0 0.25 0"/>
<feBlend mode="normal" in2="BackgroundImageFix" result="effect1_dropShadow_8_850"/>
<feBlend mode="normal" in="SourceGraphic" in2="effect1_dropShadow_8_850" result="shape"/>
</filter>
<linearGradient id="paint0_linear_8_850" x1="39" y1="-127.5" x2="320" y2="185" gradientUnits="userSpaceOnUse">
<stop stop-color="#E6E6E6"/>
<stop offset="1" stop-color="#D9D9D9" stop-opacity="0"/>
</linearGradient>
<clipPath id="clip0_8_850">
<rect width="374" height="138.5" fill="white"/>
</clipPath>
<clipPath id="clip1_8_850">
<rect width="373.799" height="138.5" fill="white"/>
</clipPath>
</defs>
</svg>
