<svg width="374" height="139" viewBox="0 0 374 139" fill="none" xmlns="http://www.w3.org/2000/svg">
<g clip-path="url(#clip0_14_30)">
<mask id="mask0_14_30" style="mask-type:luminance" maskUnits="userSpaceOnUse" x="0" y="0" width="374" height="139">
<path d="M374 0H0V138.5H374V0Z" fill="white"/>
</mask>
<g mask="url(#mask0_14_30)">
<path d="M374 0H0V138.5H374V0Z" fill="white"/>
<path d="M374 0H0V138H374V0Z" fill="#F4F7FF"/>
<mask id="mask1_14_30" style="mask-type:luminance" maskUnits="userSpaceOnUse" x="0" y="0" width="374" height="139">
<path d="M373.799 0H0V138.5H373.799V0Z" fill="white"/>
</mask>
<g mask="url(#mask1_14_30)">
<g filter="url(#filter0_d_14_30)">
<path d="M106.723 104.141C127.557 104.141 144.446 87.252 144.446 66.4182C144.446 45.5844 127.557 28.6953 106.723 28.6953C85.8891 28.6953 69 45.5844 69 66.4182C69 87.252 85.8891 104.141 106.723 104.141Z" fill="#148943"/>
<path d="M106.723 106.141C128.661 106.141 146.446 88.3566 146.446 66.4182C146.446 44.4799 128.661 26.6953 106.723 26.6953C84.7845 26.6953 67 44.4799 67 66.4182C67 88.3566 84.7845 106.141 106.723 106.141Z" stroke="white" stroke-width="4"/>
</g>
<g opacity="0.2">
<path fill-rule="evenodd" clip-rule="evenodd" d="M377 49C376.717 49.016 376.434 49.036 376.15 49.057L377 49.909V49ZM374.863 49.176L377 51.318V52.726L373.606 49.329C374.024 49.273 374.443 49.222 374.863 49.176ZM372.389 49.514L377 54.134V55.542L371.195 49.727C371.591 49.6503 371.989 49.5793 372.389 49.514ZM370.03 49.967C369.647 50.0517 369.267 50.1403 368.89 50.233L377 58.359V56.951L370.03 49.967ZM367.776 50.526C367.411 50.6267 367.048 50.732 366.686 50.842L377 61.175V59.767L367.777 50.526H367.776ZM365.619 51.182C365.269 51.298 364.921 51.4187 364.575 51.544L377 63.991V62.582L365.621 51.182H365.619ZM363.553 51.927C363.217 52.0603 362.884 52.1937 362.555 52.327L377 66.808V65.4L363.553 51.927ZM361.57 52.756C361.246 52.9007 360.926 53.049 360.607 53.201L377 69.624V68.216L361.57 52.756ZM359.664 53.664C359.354 53.8207 359.046 53.9813 358.741 54.146L377 72.44V71.032L359.664 53.664ZM357.834 54.647C357.535 54.8157 357.239 54.9883 356.945 55.165L377 75.257V73.848L357.836 54.648L357.834 54.647ZM356.075 55.7L377 76.664V78.072L355.221 56.254C355.504 56.066 355.788 55.8813 356.075 55.7ZM354.385 56.823L377 79.482V80.89L353.564 57.41C353.835 57.21 354.109 57.0143 354.384 56.823H354.385ZM352.761 58.012L377 82.3V83.709L351.973 58.632C352.233 58.422 352.496 58.2153 352.761 58.012ZM351.201 59.267L377 85.115V86.522L350.449 59.922C350.698 59.7013 350.95 59.4843 351.204 59.271L351.201 59.267ZM349.704 60.585L377 87.93V89.339L348.982 61.269C349.221 61.039 349.462 60.8113 349.707 60.586L349.704 60.585ZM348.271 61.966L377 90.747V92.155L347.583 62.682C347.811 62.4413 348.041 62.203 348.274 61.967L348.271 61.966ZM346.903 63.411L377 93.563V94.97L346.245 64.158C346.463 63.9073 346.684 63.6587 346.906 63.412L346.903 63.411ZM345.596 64.919L377 96.379V97.788L344.972 65.7C345.178 65.4387 345.387 65.1793 345.6 64.922L345.596 64.919ZM344.361 66.493L377 99.2V100.6L343.762 67.3C343.957 67.0273 344.157 66.7573 344.361 66.49V66.493ZM343.184 68.13L377 102.012V103.42L342.617 68.973C342.801 68.6897 342.989 68.4087 343.181 68.13H343.184ZM342.065 69.832L377 104.832V106.24L341.54 70.71C341.714 70.416 341.89 70.1237 342.07 69.833L342.065 69.832ZM341.027 71.6L377 107.645V109.053L340.533 72.517C340.694 72.2103 340.861 71.9063 341.032 71.605L341.027 71.6ZM340.056 73.444L377 110.461V111.87L339.597 74.4C339.747 74.082 339.9 73.7657 340.057 73.451L340.056 73.444ZM339.157 75.361C339.013 75.6883 338.873 76.0177 338.737 76.349L377 114.686V113.277L339.159 75.366L339.157 75.361ZM338.339 77.361C338.206 77.7023 338.079 78.0453 337.96 78.39L377 117.5V116.094L338.34 77.362L338.339 77.361ZM337.603 79.441C337.487 79.797 337.375 80.1547 337.269 80.514L377 120.318V118.91L337.605 79.442L337.603 79.441ZM336.957 81.61C336.858 81.983 336.758 82.355 336.671 82.731L377 123.135V121.727L336.959 81.611L336.957 81.61ZM336.41 83.878C336.327 84.268 336.251 84.66 336.178 85.054L377 125.951V124.543L336.412 83.879L336.41 83.878ZM335.973 86.257C335.909 86.667 335.851 87.078 335.799 87.491L377 128.767V127.359L335.976 86.259L335.973 86.257ZM335.655 88.757C335.613 89.189 335.575 89.621 335.545 90.057L377 131.583V130.176L335.658 88.756L335.655 88.757ZM335.476 91.394C335.459 91.853 335.45 92.312 335.447 92.773L377 134.4V132.992L335.477 91.392L335.476 91.394ZM335.458 94.194C335.458 94.272 335.458 94.35 335.458 94.428C335.47 94.8367 335.488 95.2467 335.511 95.658L376.889 137.105L377 137.1V135.808L335.461 94.192L335.458 94.194ZM335.63 97.183C335.67 97.609 335.716 98.0327 335.768 98.454C335.768 98.545 335.768 98.637 335.768 98.73L374.291 137.319L375.589 137.212L335.633 97.181L335.63 97.183ZM335.73 100.104C335.709 100.529 335.679 100.969 335.635 101.418L371.694 137.533L372.991 137.426L335.738 100.1L335.73 100.104ZM335.483 102.674C335.426 103.074 335.357 103.474 335.278 103.874L369.096 137.746L370.393 137.639L335.491 102.672L335.483 102.674ZM335.016 105.021C334.922 105.386 334.817 105.75 334.702 106.114L366.498 137.96L367.795 137.853L335.023 105.019L335.016 105.021ZM334.333 107.153C334.204 107.486 334.063 107.815 333.911 108.139L363.899 138.173L365.197 138.066L334.34 107.151L334.333 107.153ZM333.435 109.071C333.269 109.371 333.094 109.662 332.906 109.949L361.302 138.387L362.6 138.28L333.444 109.069L333.435 109.071ZM332.321 110.771C332.121 111.033 331.908 111.289 331.68 111.538L358.704 138.6L360.002 138.494L332.33 110.769L332.321 110.771ZM330.985 112.249L357.396 138.709L356.099 138.816L330.239 112.9C330.505 112.69 330.757 112.473 330.994 112.248L330.985 112.249ZM329.421 113.499L354.807 138.92L353.51 139.028L328.566 114.038C328.855 113.871 329.145 113.692 329.431 113.497L329.421 113.499ZM327.633 114.524L352.208 139.135L350.91 139.242L326.656 114.942C326.986 114.82 327.316 114.682 327.646 114.526L327.633 114.524ZM325.58 115.284L349.611 139.348L348.313 139.455L324.444 115.542C324.824 115.475 325.206 115.389 325.59 115.282L325.58 115.284ZM323.194 115.709L347.014 139.562L345.716 139.669L321.851 115.762C322.294 115.762 322.75 115.747 323.203 115.707L323.194 115.709ZM320.357 115.684L344.416 139.776L343.118 139.883L318.708 115.432C319.234 115.537 319.787 115.624 320.363 115.682L320.357 115.684ZM316.818 114.954L341.817 139.989L340.52 140.096L314.568 114.091C315.304 114.426 316.06 114.713 316.832 114.952L316.818 114.954ZM311.572 112.5L339.22 140.2L337.923 140.307L308.997 111.333C309.872 111.69 310.73 112.08 311.572 112.504V112.5ZM306.773 110.509L336.618 140.409L335.32 140.516L304.773 109.917C305.447 110.096 306.112 110.296 306.769 110.517L306.773 110.509ZM302.932 109.477L334.023 140.629L332.725 140.736L301.214 109.167C301.791 109.257 302.364 109.361 302.933 109.48L302.932 109.477ZM299.592 108.948C299.081 108.892 298.568 108.847 298.053 108.814L330.126 140.95L331.424 140.843L299.593 108.952L299.592 108.948ZM296.583 108.748C296.118 108.737 295.648 108.737 295.174 108.748L327.528 141.164L328.826 141.057L296.585 108.757L296.583 108.748ZM293.816 108.792C293.491 108.809 293.166 108.832 292.841 108.859C292.73 108.868 292.62 108.88 292.508 108.891L324.931 141.378L326.228 141.271L293.817 108.8L293.816 108.792ZM291.24 109.028C290.828 109.081 290.419 109.14 290.012 109.207L322.333 141.591L323.63 141.484L291.24 109.033V109.028ZM288.822 109.422C288.435 109.5 288.048 109.581 287.665 109.672L319.734 141.8L321.032 141.693L288.823 109.427L288.822 109.422ZM286.541 109.954C286.175 110.053 285.811 110.157 285.449 110.267L317.136 142.018L318.434 141.911L286.542 109.959L286.541 109.954ZM284.384 110.61C284.036 110.727 283.69 110.85 283.346 110.978L314.539 142.232L315.837 142.125L284.384 110.615V110.61ZM282.338 111.376C282.005 111.509 281.677 111.65 281.354 111.798L311.94 142.445L313.237 142.338L282.339 111.381L282.338 111.376ZM280.392 112.244C280.077 112.396 279.765 112.552 279.455 112.712L309.343 142.659L310.64 142.552L280.396 112.252L280.392 112.244ZM278.542 113.206C278.243 113.374 277.946 113.546 277.652 113.723L306.746 142.873L308.043 142.766L278.544 113.211L278.542 113.206ZM276.783 114.26C276.498 114.443 276.214 114.628 275.935 114.818L304.147 143.086L305.445 142.979L276.786 114.264L276.783 114.26ZM275.106 115.397C274.835 115.597 274.567 115.797 274.301 115.997L301.55 143.297L302.848 143.191L275.108 115.4L275.106 115.397ZM273.515 116.62L300.251 143.407L298.953 143.514L272.754 117.266C273.005 117.048 273.26 116.834 273.519 116.624L273.515 116.62ZM272.003 117.92L297.647 143.62L296.35 143.727L271.278 118.6C271.517 118.37 271.76 118.144 272.005 117.921L272.003 117.92ZM270.57 119.3L295.052 143.834L293.755 143.941L269.885 120.027C270.111 119.784 270.34 119.543 270.572 119.306L270.57 119.3ZM269.217 120.761L292.457 144.047L291.159 144.154L268.572 121.526C268.785 121.27 269.001 121.017 269.221 120.767L269.217 120.761ZM267.942 122.299L289.862 144.261L288.564 144.368L267.335 123.1C267.534 122.833 267.737 122.567 267.944 122.3L267.942 122.299ZM266.744 123.919L287.256 144.469L285.958 144.576L266.179 124.761C266.364 124.478 266.552 124.197 266.744 123.919ZM265.633 125.619L284.658 144.679L283.36 144.786L265.108 126.51C265.279 126.213 265.454 125.919 265.633 125.627V125.619ZM264.606 127.406L282.065 144.9L280.768 145.007L264.135 128.343C264.29 128.031 264.448 127.72 264.613 127.414L264.606 127.406ZM263.672 129.287L279.466 145.115L278.169 145.221L263.244 130.27C263.384 129.942 263.529 129.618 263.678 129.295L263.672 129.287ZM262.831 131.261L276.865 145.321L275.567 145.428L262.456 132.3C262.578 131.955 262.704 131.613 262.836 131.273L262.831 131.261ZM262.096 133.342C261.983 133.7 261.872 134.06 261.77 134.422L272.972 145.649L274.27 145.542L262.1 133.35L262.096 133.342ZM261.475 135.535C261.38 135.914 261.292 136.295 261.21 136.678L270.37 145.854L271.668 145.747L261.475 135.534V135.535ZM260.976 137.853C260.904 138.253 260.841 138.662 260.783 139.069L267.77 146.069L269.068 145.962L260.975 137.854L260.976 137.853ZM260.626 140.32C260.581 140.75 260.544 141.183 260.514 141.62L265.178 146.29L266.475 146.183L260.631 140.328L260.626 140.32ZM260.447 142.955C260.432 143.418 260.43 143.883 260.432 144.349L262.581 146.5L263.878 146.393L260.452 142.96L260.447 142.955ZM260.472 145.797L261.27 146.597L260.519 146.659C260.505 146.378 260.491 146.094 260.478 145.806L260.472 145.797Z" fill="#148943"/>
<path fill-rule="evenodd" clip-rule="evenodd" d="M377 64.1744C376.219 64.1297 375.432 64.1074 374.638 64.1074C363.821 64.1076 353.417 68.2661 345.57 75.7254C337.724 83.1848 333.033 93.3762 332.466 104.198C332.428 104.931 332.409 105.67 332.409 106.413C332.409 106.964 332.423 107.513 332.444 108.061C332.144 112.09 330.847 118.261 325.949 121.47C318.294 126.497 310.1 120.777 310.1 120.777C305.061 117.231 299.15 115.132 293.007 114.708C286.863 114.283 280.721 115.549 275.243 118.368C269.766 121.187 265.162 125.453 261.929 130.704C258.696 135.955 256.956 141.991 256.899 148.16H377V64.1744Z" fill="#148943"/>
<path fill-rule="evenodd" clip-rule="evenodd" d="M377 102.276C369.732 102.045 362.5 103.39 355.799 106.219C344.229 111.078 334.883 120.085 329.588 131.479C328.97 132.809 328.401 134.198 327.831 135.587C325.84 140.44 323.845 145.306 319.476 148.165H321.009C324.864 145.139 326.758 140.525 328.646 135.922C329.207 134.552 329.77 133.183 330.389 131.848C335.589 120.652 344.771 111.802 356.139 107.028C362.732 104.244 369.849 102.923 377 103.156V102.276ZM303.316 148.164C301.229 146.875 299.39 145.221 297.886 143.282L297.862 143.252C293.829 137.613 288.42 133.104 282.152 130.156C275.884 127.207 268.967 125.918 262.06 126.411C255.153 126.903 248.487 129.162 242.7 132.97C236.912 136.778 232.195 142.01 229 148.164H229.991C233.166 142.206 237.805 137.157 243.472 133.498C249.138 129.838 255.642 127.688 262.37 127.251C269.097 126.814 275.825 128.104 281.915 131C288.006 133.896 293.257 138.301 297.173 143.799C297.181 143.811 297.19 143.822 297.199 143.833C298.491 145.491 300.018 146.95 301.733 148.164H303.316Z" fill="#148943"/>
</g>
<g opacity="0.2">
<path fill-rule="evenodd" clip-rule="evenodd" d="M-24 85.1649C-23.7165 85.1489 -23.4341 85.1289 -23.1496 85.1079L-24 84.2559V85.1649ZM-21.863 84.9889L-24 82.8469V81.4389L-20.6063 84.8359C-21.0242 84.8919 -21.4431 84.9429 -21.863 84.9889ZM-19.3886 84.6509L-24 80.0309V78.6229L-18.1948 84.4379C-18.5907 84.5146 -18.9886 84.5856 -19.3886 84.6509ZM-17.03 84.1979C-16.6473 84.1133 -16.2674 84.0246 -15.8901 83.9319L-24 75.8059V77.2139L-17.03 84.1979ZM-14.7761 83.6389C-14.4115 83.5383 -14.0482 83.4329 -13.6862 83.3229L-24 72.9899V74.3979L-14.7761 83.6389ZM-12.6191 82.9829C-12.2691 82.8669 -11.9211 82.7463 -11.5751 82.6209L-24 70.1739V71.5829L-12.6211 82.9829H-12.6191ZM-10.553 82.2379C-10.2169 82.1046 -9.88423 81.9713 -9.55484 81.8379L-24 67.3569V68.7649L-10.553 82.2379ZM-8.56967 81.4089C-8.24627 81.2643 -7.92553 81.1159 -7.60746 80.9639L-24 64.5409V65.9489L-8.56967 81.4089ZM-6.66421 80.5009C-6.35412 80.3443 -6.04636 80.1836 -5.74093 80.0189L-24 61.7249V63.1329L-6.66421 80.5009ZM-4.83361 79.5179C-4.5355 79.3493 -4.23938 79.1766 -3.94526 78.9999L-24 58.9079V60.3169L-4.83561 79.5169L-4.83361 79.5179ZM-3.07488 78.4649L-24 57.5009V56.0929L-2.22147 77.9109C-2.50361 78.0989 -2.78808 78.2836 -3.07488 78.4649ZM-1.38502 77.3419L-24 54.6829V53.2749L-0.563545 76.7549C-0.835041 76.9549 -1.10953 77.1506 -1.38502 77.3419ZM0.238962 76.1529L-24 51.8649V50.4559L1.0275 75.5329C0.766649 75.7429 0.503804 75.9496 0.238962 76.1529ZM1.79906 74.8979L-24 49.0499V47.6429L2.55067 74.2429C2.3018 74.4636 2.05026 74.6806 1.79607 74.8939L1.79906 74.8979ZM3.29628 73.5799L-24 46.2349V44.8259L4.01794 72.8959C3.77905 73.1259 3.5375 73.3536 3.29329 73.5789L3.29628 73.5799ZM4.72862 72.1989L-24 43.4179V42.0099L5.41734 71.4829C5.1891 71.7236 4.95853 71.9619 4.72563 72.1979L4.72862 72.1989ZM6.09708 70.7539L-24 40.6019V39.1949L6.75486 70.0069C6.5366 70.2576 6.31634 70.5063 6.09408 70.7529L6.09708 70.7539ZM7.40365 69.2459L-24 37.7859V36.3769L8.02849 68.4649C7.82221 68.7263 7.6126 68.9856 7.39966 69.2429L7.40365 69.2459ZM8.63936 67.6719L-24 34.9649V33.5649L9.23824 66.8649C9.0426 67.1376 8.84298 67.4076 8.63936 67.6749V67.6719ZM9.81617 66.0349L-24 32.1529V30.7449L10.3831 65.1919C10.1988 65.4753 10.0108 65.7563 9.81916 66.0349H9.81617ZM10.9351 64.3329L-24 29.3329V27.9249L11.4601 63.4549C11.2864 63.7489 11.1098 64.0413 10.9301 64.3319L10.9351 64.3329ZM11.9732 62.5649L-24 26.5199V25.1119L12.4672 61.6479C12.3055 61.9546 12.1392 62.2586 11.9682 62.5599L11.9732 62.5649ZM12.9444 60.7209L-24 23.7039V22.2949L13.4025 59.7649C13.2534 60.0829 13.1004 60.3993 12.9434 60.7139L12.9444 60.7209ZM13.8427 58.8039C13.9871 58.4766 14.1272 58.1473 14.2629 57.8159L-24 19.4789V20.8879L13.8407 58.7989L13.8427 58.8039ZM14.6612 56.8039C14.7943 56.4626 14.9207 56.1196 15.0405 55.7749L-24 16.6649V18.0709L14.6602 56.8029L14.6612 56.8039ZM15.3968 54.7239C15.5133 54.3679 15.6247 54.0103 15.7312 53.6509L-24 13.8469V15.2549L15.3948 54.7229L15.3968 54.7239ZM16.0426 52.5549C16.1424 52.1819 16.2422 51.8099 16.3291 51.4339L-24 11.0299V12.4379L16.0406 52.5539L16.0426 52.5549ZM16.5896 50.2869C16.6734 49.8969 16.7493 49.5049 16.8221 49.1109L-24 8.2139V9.6219L16.5876 50.2859L16.5896 50.2869ZM17.0268 47.9079C17.0907 47.4979 17.1485 47.0869 17.2014 46.6739L-24 5.3979V6.8059L17.0238 47.9059L17.0268 47.9079ZM17.3452 45.4079C17.3871 44.9759 17.425 44.5439 17.455 44.1079L-24 2.5819V3.9889L17.3422 45.4089L17.3452 45.4079ZM17.5238 42.7709C17.5408 42.3119 17.5498 41.8529 17.5528 41.3919L-24 -0.235103V1.1729L17.5228 42.7729L17.5238 42.7709ZM17.5418 39.9709C17.5418 39.8929 17.5418 39.8149 17.5418 39.7369C17.5298 39.3283 17.5122 38.9183 17.4889 38.5069L-23.8892 -2.9401L-24 -2.9351V-1.6431L17.5388 39.9729L17.5418 39.9709ZM17.3701 36.9819C17.3295 36.5559 17.2836 36.1323 17.2324 35.7109C17.2324 35.6199 17.2324 35.5279 17.2324 35.4349L-21.291 -3.1541L-22.5886 -3.0471L17.3671 36.9839L17.3701 36.9819ZM17.2703 34.0609C17.2913 33.6359 17.3212 33.1959 17.3651 32.7469L-18.6939 -3.3681L-19.9914 -3.2611L17.2623 34.0649L17.2703 34.0609ZM17.5169 31.4909C17.5738 31.0909 17.6426 30.6909 17.7225 30.2909L-16.0957 -3.5811L-17.3933 -3.4741L17.5089 31.4929L17.5169 31.4909ZM17.984 29.1439C18.0778 28.7793 18.1826 28.4149 18.2984 28.0509L-13.4975 -3.7951L-14.7951 -3.6881L17.977 29.1459L17.984 29.1439ZM18.6667 27.0119C18.7958 26.6786 18.9366 26.3499 19.0889 26.0259L-10.8993 -4.0081L-12.1969 -3.9011L18.6597 27.0139L18.6667 27.0119ZM19.5651 25.0939C19.7307 24.7939 19.9064 24.5029 20.0941 24.2159L-8.30217 -4.2221L-9.59976 -4.1151L19.5561 25.0959L19.5651 25.0939ZM20.679 23.3939C20.8786 23.1319 21.0922 22.8763 21.3198 22.6269L-5.70399 -4.4351L-7.00158 -4.3291L20.67 23.3959L20.679 23.3939ZM22.0145 21.9159L-4.39642 -4.5441L-3.09883 -4.6511L22.7611 21.2649C22.4949 21.4749 22.2431 21.6923 22.0055 21.9169L22.0145 21.9159ZM23.5786 20.6659L-1.80724 -4.7551L-0.509645 -4.8631L24.434 20.1269C24.1445 20.2939 23.8551 20.4729 23.5686 20.6679L23.5786 20.6659ZM25.3673 19.6409L0.791935 -4.9701L2.08952 -5.0771L26.3445 19.2229C26.0141 19.3449 25.6837 19.4829 25.3543 19.6389L25.3673 19.6409ZM27.4205 18.8809L3.38911 -5.1831L4.6867 -5.2901L28.5563 18.6229C28.1764 18.6896 27.7944 18.7763 27.4105 18.8829L27.4205 18.8809ZM29.806 18.4559L5.98628 -5.3971L7.28387 -5.5041L31.1485 18.4029C30.7064 18.4029 30.2502 18.4179 29.797 18.4579L29.806 18.4559ZM32.6428 18.4809L8.58446 -5.6111L9.88205 -5.7181L34.2917 18.7329C33.7657 18.6279 33.2127 18.5409 32.6368 18.4829L32.6428 18.4809ZM36.1822 19.2109L11.1826 -5.8241L12.4802 -5.9311L38.432 20.0739C37.6964 19.7392 36.9402 19.4516 36.1682 19.2129L36.1822 19.2109ZM41.4284 21.6649L13.7798 -6.0351L15.0774 -6.1421L44.0026 22.8319C43.1276 22.4753 42.2695 22.0849 41.4284 21.6609V21.6649ZM46.2265 23.6559L16.382 -6.2441L17.6796 -6.3511L48.2268 24.2479C47.5534 24.0686 46.888 23.8686 46.2305 23.6479L46.2265 23.6559ZM50.0684 24.6879L18.9771 -6.4641L20.2747 -6.5711L51.7862 24.9979C51.2086 24.9079 50.6357 24.8036 50.0674 24.6849L50.0684 24.6879ZM53.4082 25.2169C53.9186 25.2729 54.4316 25.3176 54.9473 25.3509L22.8739 -6.7851L21.5763 -6.6781L53.4072 25.2129L53.4082 25.2169ZM56.4166 25.4169C56.8824 25.4276 57.3522 25.4276 57.826 25.4169L25.4721 -6.9991L24.1745 -6.8921L56.4146 25.4079L56.4166 25.4169ZM59.1844 25.3729C59.5092 25.3556 59.8339 25.3333 60.1586 25.3059C60.2704 25.2969 60.3802 25.2849 60.492 25.2739L28.0693 -7.2131L26.7717 -7.1061L59.1834 25.3649L59.1844 25.3729ZM61.7597 25.1369C62.1716 25.0843 62.5811 25.0246 62.9884 24.9579L30.6674 -7.4261L29.3698 -7.3191L61.7597 25.1319V25.1369ZM64.1782 24.7429C64.5654 24.6649 64.9517 24.5839 65.335 24.4929L33.2656 -7.6351L31.968 -7.5281L64.1772 24.7379L64.1782 24.7429ZM66.4589 24.2109C66.8249 24.1123 67.1889 24.0079 67.5509 23.8979L35.8638 -7.8531L34.5662 -7.7461L66.4579 24.2059L66.4589 24.2109ZM68.6159 23.5549C68.9639 23.4376 69.31 23.3149 69.654 23.1869L38.4609 -8.0671L37.1634 -7.9601L68.6159 23.5499V23.5549ZM70.6621 22.7889C70.9948 22.6556 71.3229 22.5149 71.6463 22.3669L41.0601 -8.2801L39.7625 -8.1731L70.6611 22.7839L70.6621 22.7889ZM72.6075 21.9209C72.9229 21.7689 73.2353 21.6129 73.5448 21.4529L43.6573 -8.4941L42.3597 -8.3871L72.6035 21.9129L72.6075 21.9209ZM74.4581 20.9589C74.7568 20.7909 75.0536 20.6186 75.3484 20.4419L46.2545 -8.7081L44.9569 -8.6011L74.4561 20.9539L74.4581 20.9589ZM76.2168 19.9049C76.5023 19.7219 76.7857 19.5369 77.0652 19.3469L48.8526 -8.9211L47.5551 -8.8141L76.2138 19.9009L76.2168 19.9049ZM77.8937 18.7679C78.1652 18.5679 78.4327 18.3679 78.6992 18.1679L51.4498 -9.1321L50.1522 -9.0261L77.8917 18.7649L77.8937 18.7679ZM79.4847 17.5449L52.7494 -9.2421L54.047 -9.3491L80.2463 16.8989C79.9948 17.1169 79.7396 17.3309 79.4807 17.5409L79.4847 17.5449ZM80.9969 16.2449L55.3526 -9.4551L56.6502 -9.5621L81.7216 15.5649C81.483 15.7949 81.2405 16.0209 80.9949 16.2439L80.9969 16.2449ZM82.4302 14.8649L57.9477 -9.6691L59.2453 -9.7761L83.115 14.1379C82.8894 14.3813 82.6605 14.6216 82.4283 14.8589L82.4302 14.8649ZM83.7827 13.4039L60.5429 -9.8821L61.8405 -9.9891L84.4275 12.6389C84.2153 12.8949 83.999 13.1479 83.7787 13.3979L83.7827 13.4039ZM85.0584 11.8659L63.1381 -10.0961L64.4357 -10.2031L85.6652 11.0649C85.4656 11.3316 85.2627 11.5983 85.0564 11.8649L85.0584 11.8659ZM86.2561 10.2459L65.7443 -10.3041L67.0418 -10.4111L86.8211 9.4039C86.6361 9.68723 86.4478 9.9679 86.2561 10.2459ZM87.3671 8.5459L68.3424 -10.5141L69.64 -10.6211L87.8921 7.6549C87.7211 7.95156 87.5461 8.2459 87.3671 8.5379V8.5459ZM88.3942 6.7589L70.9346 -10.7351L72.2322 -10.8421L88.8653 5.8219C88.7096 6.1339 88.5519 6.4449 88.3872 6.7509L88.3942 6.7589ZM89.3284 4.8779L73.5338 -10.9501L74.8314 -11.0561L89.7556 3.8949C89.6159 4.2229 89.4712 4.5469 89.3224 4.8699L89.3284 4.8779ZM90.1689 2.9039L76.1349 -11.1561L77.4325 -11.2631L90.5442 1.8649C90.4224 2.20956 90.2956 2.5519 90.1639 2.8919L90.1689 2.9039ZM90.9035 0.822896C91.0173 0.464896 91.1281 0.104902 91.2299 -0.257098L80.0277 -11.4841L78.7301 -11.3771L90.8995 0.8149L90.9035 0.822896ZM91.5253 -1.3701C91.6198 -1.74877 91.708 -2.12977 91.7899 -2.5131L82.6299 -11.6891L81.3323 -11.5821L91.5253 -1.3701ZM92.0244 -3.6881C92.0963 -4.0881 92.1592 -4.4971 92.2171 -4.9041L85.23 -11.9041L83.9325 -11.7971L92.0254 -3.6891L92.0244 -3.6881ZM92.3738 -6.1551C92.419 -6.5851 92.4563 -7.01844 92.4856 -7.4551L87.8222 -12.1251L86.5246 -12.0181L92.3688 -6.1631L92.3738 -6.1551ZM92.5534 -8.7901C92.5684 -9.2531 92.5704 -9.7181 92.5684 -10.1841L90.4194 -12.3351L89.1218 -12.2281L92.5484 -8.7951L92.5534 -8.7901ZM92.5285 -11.6321L91.73 -12.4321L92.4806 -12.4941C92.4952 -12.2134 92.5092 -11.9291 92.5225 -11.6411L92.5285 -11.6321Z" fill="#148943"/>
<path fill-rule="evenodd" clip-rule="evenodd" d="M-24 69.9909C-23.2195 70.0356 -22.4322 70.0579 -21.6384 70.0579C-10.8215 70.0577 -0.416971 65.8992 7.4297 58.4398C15.2764 50.9805 19.9669 40.789 20.5343 29.9669C20.5722 29.2336 20.5911 28.4952 20.5911 27.7519C20.5911 27.2009 20.5772 26.6519 20.5562 26.1039C20.8557 22.0749 22.1532 15.9039 27.0511 12.6949C34.7059 7.66786 42.8997 13.3879 42.8997 13.3879C47.9389 16.934 53.8497 19.0327 59.9932 19.4573C66.1366 19.8819 72.2791 18.6161 77.7565 15.7968C83.234 12.9775 87.8382 8.7119 91.0713 3.46112C94.3045 -1.78965 96.0437 -7.8259 96.1008 -13.9951H-24V69.9909Z" fill="#148943"/>
<path fill-rule="evenodd" clip-rule="evenodd" d="M-24 31.889C-16.7321 32.1205 -9.50011 30.7755 -2.79939 27.946C8.7709 23.0873 18.1169 14.0805 23.4119 2.68602C24.0298 1.35602 24.5987 -0.032986 25.1686 -1.42199C27.1599 -6.27499 29.1552 -11.141 33.5241 -14H31.991C28.1361 -10.974 26.2416 -6.35998 24.3542 -1.75698C23.7932 -0.386985 23.2302 0.982018 22.6114 2.31702C17.4107 13.5129 8.22894 22.363 -3.13876 27.137C-9.73215 29.9207 -16.8488 31.2416 -24 31.009V31.889ZM49.6841 -13.999C51.7705 -12.7095 53.6095 -11.0561 55.114 -9.11699L55.138 -9.08698C59.1713 -3.44809 64.5801 1.06082 70.848 4.0092C77.1158 6.95757 84.0335 8.24698 90.9404 7.75431C97.8473 7.26163 104.513 5.00332 110.3 1.19501C116.088 -2.61331 120.805 -7.84447 124 -13.999H123.009C119.834 -8.0405 115.195 -2.99239 109.528 0.667347C103.862 4.32708 97.3577 6.4773 90.6303 6.9144C83.9028 7.3515 77.1754 6.06101 71.0849 3.16512C64.9945 0.269243 59.7426 -4.13618 55.8267 -9.63398C55.8187 -9.64598 55.8097 -9.65698 55.8007 -9.66798C54.509 -11.326 52.9816 -12.7851 51.2671 -13.999H49.6841Z" fill="#148943"/>
</g>
</g>
</g>
<path d="M197.179 54.216C197.179 53.7867 197.217 53.2827 197.291 52.704C197.366 52.1253 197.506 51.472 197.711 50.744C197.917 49.9973 198.225 49.1667 198.635 48.252L202.079 49.456C201.874 50.0347 201.697 50.5667 201.547 51.052C201.398 51.5187 201.286 51.9573 201.211 52.368C201.137 52.76 201.099 53.152 201.099 53.544C201.099 54.104 201.221 54.6267 201.463 55.112C201.706 55.5973 202.07 56.0173 202.555 56.372C203.041 56.7453 203.638 57.0347 204.347 57.24C205.075 57.4453 205.915 57.548 206.867 57.548C207.95 57.548 208.902 57.4453 209.723 57.24C210.563 57.0533 211.263 56.8013 211.823 56.484C212.402 56.1853 212.841 55.868 213.139 55.532C213.438 55.196 213.587 54.888 213.587 54.608C213.587 54.384 213.429 54.188 213.111 54.02C212.813 53.852 212.411 53.684 211.907 53.516C211.422 53.3293 210.899 53.124 210.339 52.9C209.798 52.676 209.275 52.396 208.771 52.06C208.286 51.724 207.885 51.3133 207.567 50.828C207.269 50.3427 207.119 49.7547 207.119 49.064C207.119 48.3547 207.306 47.58 207.679 46.74C208.053 45.8813 208.585 45.0693 209.275 44.304C209.966 43.52 210.787 42.8853 211.739 42.4C212.71 41.896 213.774 41.644 214.931 41.644C215.753 41.644 216.499 41.7747 217.171 42.036C217.862 42.2973 218.441 42.596 218.907 42.932L217.451 46.208C217.059 45.9467 216.639 45.7507 216.191 45.62C215.743 45.4707 215.314 45.396 214.903 45.396C214.381 45.396 213.877 45.4987 213.391 45.704C212.925 45.9093 212.505 46.18 212.131 46.516C211.777 46.8333 211.497 47.1787 211.291 47.552C211.086 47.9253 210.983 48.28 210.983 48.616C210.983 48.952 211.142 49.2507 211.459 49.512C211.795 49.7547 212.225 49.988 212.747 50.212C213.27 50.4173 213.821 50.632 214.399 50.856C214.978 51.08 215.529 51.332 216.051 51.612C216.574 51.892 216.994 52.228 217.311 52.62C217.647 53.012 217.815 53.488 217.815 54.048C217.815 54.8507 217.563 55.6813 217.059 56.54C216.574 57.4173 215.846 58.2293 214.875 58.976C213.905 59.7227 212.71 60.32 211.291 60.768C209.891 61.2347 208.267 61.468 206.419 61.468C205.075 61.468 203.843 61.3093 202.723 60.992C201.603 60.6933 200.623 60.236 199.783 59.62C198.962 59.0227 198.318 58.2667 197.851 57.352C197.403 56.456 197.179 55.4107 197.179 54.216ZM221.043 61.44L220.231 57.52C221.557 57.352 222.714 57.1467 223.703 56.904C224.693 56.68 225.523 56.3627 226.195 55.952C226.867 55.5413 227.371 54.9813 227.707 54.272C228.043 53.544 228.211 52.6107 228.211 51.472C228.211 50.3707 228.043 49.4933 227.707 48.84C227.371 48.1867 226.923 47.86 226.363 47.86C225.971 47.86 225.645 48 225.383 48.28C225.122 48.5413 224.926 48.8587 224.795 49.232C224.683 49.5867 224.627 49.904 224.627 50.184C224.627 50.352 224.674 50.5293 224.767 50.716C224.861 50.9027 225.066 51.0613 225.383 51.192C225.701 51.3227 226.195 51.3973 226.867 51.416C227.558 51.4347 228.491 51.3693 229.667 51.22H234.371C235.081 51.22 235.585 51.4067 235.883 51.78C236.201 52.1347 236.359 52.5827 236.359 53.124C236.359 53.7027 236.163 54.188 235.771 54.58C235.379 54.9533 234.819 55.14 234.091 55.14H226.391C225.215 55.14 224.207 55 223.367 54.72C222.527 54.44 221.883 53.992 221.435 53.376C220.987 52.7413 220.763 51.9013 220.763 50.856C220.763 50.016 220.903 49.176 221.183 48.336C221.482 47.496 221.893 46.7307 222.415 46.04C222.938 45.3307 223.545 44.7707 224.235 44.36C224.945 43.9307 225.71 43.716 226.531 43.716C227.651 43.716 228.631 44.0613 229.471 44.752C230.311 45.4427 230.965 46.3573 231.431 47.496C231.917 48.6347 232.159 49.876 232.159 51.22C232.159 53.3293 231.711 55.1213 230.815 56.596C229.919 58.0707 228.641 59.2093 226.979 60.012C225.318 60.8333 223.339 61.3093 221.043 61.44ZM234.131 55.14L234.411 51.22C235.083 51.22 235.662 51.1547 236.147 51.024C236.632 50.8933 237.043 50.632 237.379 50.24C237.715 49.8293 237.995 49.232 238.219 48.448C238.462 47.664 238.676 46.6187 238.863 45.312L242.531 45.928C242.494 46.208 242.438 46.5347 242.363 46.908C242.307 47.2813 242.251 47.664 242.195 48.056C242.158 48.4293 242.139 48.784 242.139 49.12C242.139 49.456 242.204 49.7547 242.335 50.016C242.466 50.2773 242.671 50.5013 242.951 50.688C243.25 50.856 243.632 50.9867 244.099 51.08C244.584 51.1733 245.172 51.22 245.863 51.22C246.572 51.22 247.076 51.4067 247.375 51.78C247.674 52.1347 247.823 52.5827 247.823 53.124C247.823 53.7027 247.627 54.188 247.235 54.58C246.862 54.9533 246.311 55.14 245.583 55.14C244.743 55.14 243.978 55.0747 243.287 54.944C242.615 54.8133 242.027 54.5987 241.523 54.3C241.038 53.9827 240.636 53.572 240.319 53.068C240.02 52.5453 239.834 51.9107 239.759 51.164H241.103C240.767 52.06 240.338 52.7787 239.815 53.32C239.311 53.8427 238.742 54.2347 238.107 54.496C237.472 54.7573 236.81 54.9253 236.119 55C235.447 55.0933 234.784 55.14 234.131 55.14ZM243.119 42.792C242.578 42.792 242.111 42.6053 241.719 42.232C241.346 41.84 241.159 41.3827 241.159 40.86C241.159 40.3187 241.346 39.852 241.719 39.46C242.111 39.068 242.578 38.872 243.119 38.872C243.642 38.872 244.09 39.068 244.463 39.46C244.836 39.852 245.023 40.3187 245.023 40.86C245.023 41.3827 244.836 41.84 244.463 42.232C244.09 42.6053 243.642 42.792 243.119 42.792ZM238.275 42.764C237.734 42.764 237.267 42.5773 236.875 42.204C236.502 41.812 236.315 41.3547 236.315 40.832C236.315 40.2907 236.502 39.824 236.875 39.432C237.267 39.04 237.734 38.844 238.275 38.844C238.798 38.844 239.246 39.04 239.619 39.432C239.992 39.824 240.179 40.2907 240.179 40.832C240.179 41.3547 239.992 41.812 239.619 42.204C239.246 42.5773 238.798 42.764 238.275 42.764ZM245.588 55.14L245.868 51.22C246.484 51.22 246.988 51.1733 247.38 51.08C247.772 50.968 248.089 50.7347 248.332 50.38C248.593 50.0067 248.817 49.456 249.004 48.728C249.209 47.9813 249.433 46.9733 249.676 45.704L253.316 46.376C253.241 46.7867 253.139 47.3 253.008 47.916C252.896 48.532 252.84 49.064 252.84 49.512C252.84 49.8667 252.905 50.1747 253.036 50.436C253.185 50.6787 253.428 50.8747 253.764 51.024C254.119 51.1547 254.604 51.22 255.22 51.22C255.705 51.22 256.116 51.1733 256.452 51.08C256.807 50.968 257.105 50.7347 257.348 50.38C257.609 50.0067 257.833 49.4373 258.02 48.672C258.225 47.888 258.421 46.8333 258.608 45.508L262.304 46.096C262.229 46.5253 262.155 46.9827 262.08 47.468C262.005 47.9533 261.94 48.4013 261.884 48.812C261.828 49.2227 261.8 49.5587 261.8 49.82C261.8 50.0627 261.865 50.296 261.996 50.52C262.145 50.7253 262.407 50.8933 262.78 51.024C263.172 51.1547 263.713 51.22 264.404 51.22C265.244 51.22 265.86 51.0427 266.252 50.688C266.663 50.3147 266.868 49.7547 266.868 49.008C266.868 48.5787 266.859 48.1213 266.84 47.636C266.821 47.132 266.784 46.572 266.728 45.956C266.691 45.3213 266.616 44.6027 266.504 43.8L270.116 43.52C270.247 45.1253 270.396 46.432 270.564 47.44C270.732 48.448 270.956 49.232 271.236 49.792C271.535 50.3333 271.927 50.7067 272.412 50.912C272.916 51.1173 273.569 51.22 274.372 51.22C275.081 51.22 275.585 51.4067 275.884 51.78C276.201 52.1347 276.36 52.5827 276.36 53.124C276.36 53.7027 276.164 54.188 275.772 54.58C275.399 54.9533 274.839 55.14 274.092 55.14C273.588 55.14 273.065 55.0933 272.524 55C271.983 54.9253 271.46 54.7667 270.956 54.524C270.452 54.2627 270.004 53.8893 269.612 53.404C269.22 52.9187 268.912 52.2747 268.688 51.472L269.192 51.64C268.931 52.5733 268.576 53.292 268.128 53.796C267.68 54.3 267.129 54.6547 266.476 54.86C265.823 55.0467 265.039 55.14 264.124 55.14C263.284 55.14 262.537 55.028 261.884 54.804C261.231 54.58 260.708 54.216 260.316 53.712C259.943 53.1893 259.747 52.4893 259.728 51.612H260.68C260.307 52.6573 259.877 53.432 259.392 53.936C258.907 54.44 258.319 54.7667 257.628 54.916C256.937 55.0653 256.069 55.14 255.024 55.14C254.389 55.14 253.764 55.0747 253.148 54.944C252.532 54.7947 251.981 54.468 251.496 53.964C251.011 53.4413 250.656 52.62 250.432 51.5L251.944 51.444C251.552 52.5453 251.039 53.3573 250.404 53.88C249.788 54.4027 249.079 54.748 248.276 54.916C247.473 55.0653 246.577 55.14 245.588 55.14ZM274.107 55.14L274.387 51.22C274.854 51.22 275.209 51.1267 275.451 50.94C275.694 50.7533 275.937 50.4267 276.179 49.96C276.422 49.4933 276.758 48.8587 277.187 48.056C277.654 47.16 278.139 46.4133 278.643 45.816C279.147 45.2 279.651 44.7147 280.155 44.36C280.678 43.9867 281.191 43.7253 281.695 43.576C282.218 43.408 282.731 43.324 283.235 43.324C283.926 43.324 284.57 43.4733 285.167 43.772C285.783 44.052 286.371 44.5467 286.931 45.256C287.491 45.9467 288.023 46.8987 288.527 48.112C288.882 48.952 289.237 49.596 289.591 50.044C289.946 50.492 290.31 50.8 290.683 50.968C291.075 51.136 291.467 51.22 291.859 51.22C292.569 51.22 293.073 51.4067 293.371 51.78C293.67 52.1347 293.819 52.5827 293.819 53.124C293.819 53.7027 293.623 54.188 293.231 54.58C292.839 54.9533 292.289 55.14 291.579 55.14C290.665 55.14 289.834 54.9907 289.087 54.692C288.341 54.3933 287.753 53.9453 287.323 53.348L288.135 52.732C287.967 53.124 287.715 53.5347 287.379 53.964C287.062 54.3933 286.642 54.7573 286.119 55.056C285.615 55.3547 285.009 55.504 284.299 55.504C283.833 55.504 283.282 55.4107 282.647 55.224C282.031 55.056 281.387 54.7667 280.715 54.356C280.062 53.9267 279.455 53.348 278.895 52.62C278.541 53.2733 278.149 53.7867 277.719 54.16C277.29 54.5147 276.786 54.7667 276.207 54.916C275.629 55.0653 274.929 55.14 274.107 55.14ZM280.519 49.316C280.706 49.596 280.93 49.876 281.191 50.156C281.453 50.436 281.742 50.688 282.059 50.912C282.377 51.1173 282.713 51.2853 283.067 51.416C283.441 51.5467 283.805 51.612 284.159 51.612C284.533 51.612 284.841 51.472 285.083 51.192C285.326 50.8933 285.335 50.4547 285.111 49.876C285.018 49.6333 284.887 49.3627 284.719 49.064C284.57 48.7467 284.393 48.448 284.187 48.168C284.001 47.888 283.786 47.6547 283.543 47.468C283.319 47.2813 283.086 47.188 282.843 47.188C282.601 47.188 282.349 47.2627 282.087 47.412C281.826 47.5613 281.565 47.7947 281.303 48.112C281.042 48.4107 280.781 48.812 280.519 49.316ZM291.58 55.14L291.86 51.22C292.719 51.22 293.335 51.136 293.708 50.968C294.081 50.7813 294.305 50.4453 294.38 49.96C294.455 49.456 294.473 48.728 294.436 47.776L293.932 34.504H297.88L298.44 48.056C298.477 49.1387 298.431 50.1187 298.3 50.996C298.188 51.8547 297.899 52.592 297.432 53.208C296.984 53.824 296.284 54.3 295.332 54.636C294.399 54.972 293.148 55.14 291.58 55.14ZM302.133 55L301.545 34.504H305.465L306.053 55H302.133Z" fill="#454545"/>
<path d="M190.097 94.216C190.097 93.7867 190.134 93.2827 190.209 92.704C190.284 92.1253 190.424 91.472 190.629 90.744C190.834 89.9973 191.142 89.1667 191.553 88.252L194.997 89.456C194.792 90.0347 194.614 90.5667 194.465 91.052C194.316 91.5187 194.204 91.9573 194.129 92.368C194.054 92.76 194.017 93.152 194.017 93.544C194.017 94.16 194.148 94.7107 194.409 95.196C194.689 95.7 195.09 96.12 195.613 96.456C196.136 96.8107 196.77 97.0813 197.517 97.268C198.282 97.4547 199.16 97.548 200.149 97.548C201.176 97.548 202.09 97.5013 202.893 97.408C203.714 97.3147 204.405 97.1747 204.965 96.988C205.544 96.8013 205.982 96.5587 206.281 96.26C206.58 95.98 206.729 95.6533 206.729 95.28C206.729 95.112 206.664 94.9533 206.533 94.804C206.421 94.6547 206.225 94.496 205.945 94.328C205.684 94.16 205.329 93.9827 204.881 93.796C204.452 93.6093 203.929 93.404 203.313 93.18L204.237 89.232C205.04 89.568 205.796 89.8667 206.505 90.128C207.233 90.3707 207.924 90.576 208.577 90.744C209.23 90.8933 209.846 91.0147 210.425 91.108C211.004 91.1827 211.545 91.22 212.049 91.22C212.758 91.22 213.262 91.4067 213.561 91.78C213.86 92.1347 214.009 92.5827 214.009 93.124C214.009 93.7027 213.813 94.188 213.421 94.58C213.029 94.9533 212.478 95.14 211.769 95.14C211.62 95.14 211.47 95.14 211.321 95.14C211.19 95.14 211.05 95.14 210.901 95.14C210.77 95.14 210.63 95.14 210.481 95.14C210.518 95.3267 210.537 95.4853 210.537 95.616C210.537 95.7653 210.537 95.9053 210.537 96.036C210.537 96.652 210.322 97.2773 209.893 97.912C209.482 98.5467 208.838 99.1347 207.961 99.676C207.084 100.217 205.964 100.647 204.601 100.964C203.257 101.3 201.652 101.468 199.785 101.468C197.769 101.468 196.033 101.207 194.577 100.684C193.14 100.18 192.029 99.3867 191.245 98.304C190.48 97.24 190.097 95.8773 190.097 94.216ZM202.529 107.964C201.988 107.964 201.521 107.768 201.129 107.376C200.756 107.003 200.569 106.555 200.569 106.032C200.569 105.491 200.756 105.024 201.129 104.632C201.521 104.24 201.988 104.044 202.529 104.044C203.052 104.044 203.5 104.24 203.873 104.632C204.246 105.024 204.433 105.491 204.433 106.032C204.433 106.555 204.246 107.003 203.873 107.376C203.5 107.768 203.052 107.964 202.529 107.964ZM197.685 107.964C197.144 107.964 196.677 107.768 196.285 107.376C195.912 107.003 195.725 106.555 195.725 106.032C195.725 105.491 195.912 105.024 196.285 104.632C196.677 104.24 197.144 104.044 197.685 104.044C198.208 104.044 198.656 104.24 199.029 104.632C199.402 105.024 199.589 105.491 199.589 106.032C199.589 106.555 199.402 107.003 199.029 107.376C198.656 107.768 198.208 107.964 197.685 107.964ZM211.764 95.14L212.044 91.22C212.66 91.22 213.164 91.1733 213.556 91.08C213.948 90.968 214.265 90.7347 214.508 90.38C214.769 90.0067 214.993 89.456 215.18 88.728C215.385 87.9813 215.609 86.9733 215.852 85.704L219.492 86.376C219.417 86.7867 219.314 87.3 219.184 87.916C219.072 88.532 219.016 89.064 219.016 89.512C219.016 89.8667 219.081 90.1747 219.212 90.436C219.361 90.6787 219.604 90.8747 219.94 91.024C220.294 91.1547 220.78 91.22 221.396 91.22C221.881 91.22 222.292 91.1733 222.628 91.08C222.982 90.968 223.281 90.7347 223.524 90.38C223.785 90.0067 224.009 89.4373 224.196 88.672C224.401 87.888 224.597 86.8333 224.784 85.508L228.48 86.096C228.405 86.5253 228.33 86.9827 228.256 87.468C228.181 87.9533 228.116 88.4013 228.06 88.812C228.004 89.2227 227.976 89.5587 227.976 89.82C227.976 90.0627 228.041 90.296 228.172 90.52C228.321 90.7253 228.582 90.8933 228.956 91.024C229.348 91.1547 229.889 91.22 230.58 91.22C231.42 91.22 232.036 91.0427 232.428 90.688C232.838 90.3147 233.044 89.7547 233.044 89.008C233.044 88.5787 233.034 88.1213 233.016 87.636C232.997 87.132 232.96 86.572 232.904 85.956C232.866 85.3213 232.792 84.6027 232.68 83.8L236.292 83.52C236.422 85.1253 236.572 86.432 236.74 87.44C236.908 88.448 237.132 89.232 237.412 89.792C237.71 90.3333 238.102 90.7067 238.588 90.912C239.092 91.1173 239.745 91.22 240.548 91.22C241.257 91.22 241.761 91.4067 242.06 91.78C242.377 92.1347 242.536 92.5827 242.536 93.124C242.536 93.7027 242.34 94.188 241.948 94.58C241.574 94.9533 241.014 95.14 240.268 95.14C239.764 95.14 239.241 95.0933 238.7 95C238.158 94.9253 237.636 94.7667 237.132 94.524C236.628 94.2627 236.18 93.8893 235.788 93.404C235.396 92.9187 235.088 92.2747 234.864 91.472L235.368 91.64C235.106 92.5733 234.752 93.292 234.304 93.796C233.856 94.3 233.305 94.6547 232.652 94.86C231.998 95.0467 231.214 95.14 230.3 95.14C229.46 95.14 228.713 95.028 228.06 94.804C227.406 94.58 226.884 94.216 226.492 93.712C226.118 93.1893 225.922 92.4893 225.904 91.612H226.856C226.482 92.6573 226.053 93.432 225.568 93.936C225.082 94.44 224.494 94.7667 223.804 94.916C223.113 95.0653 222.245 95.14 221.2 95.14C220.565 95.14 219.94 95.0747 219.324 94.944C218.708 94.7947 218.157 94.468 217.672 93.964C217.186 93.4413 216.832 92.62 216.608 91.5L218.12 91.444C217.728 92.5453 217.214 93.3573 216.58 93.88C215.964 94.4027 215.254 94.748 214.452 94.916C213.649 95.0653 212.753 95.14 211.764 95.14ZM240.283 95.14L240.563 91.22C241.235 91.22 241.814 91.1547 242.299 91.024C242.785 90.8933 243.195 90.632 243.531 90.24C243.867 89.8293 244.147 89.232 244.371 88.448C244.614 87.664 244.829 86.6187 245.015 85.312L248.683 85.928C248.646 86.208 248.59 86.5347 248.515 86.908C248.459 87.2813 248.403 87.664 248.347 88.056C248.31 88.4293 248.291 88.784 248.291 89.12C248.291 89.456 248.357 89.7547 248.487 90.016C248.618 90.2773 248.823 90.5013 249.103 90.688C249.402 90.856 249.785 90.9867 250.251 91.08C250.737 91.1733 251.325 91.22 252.015 91.22C252.725 91.22 253.229 91.4067 253.527 91.78C253.826 92.1347 253.975 92.5827 253.975 93.124C253.975 93.7027 253.779 94.188 253.387 94.58C253.014 94.9533 252.463 95.14 251.735 95.14C250.895 95.14 250.13 95.0747 249.439 94.944C248.767 94.8133 248.179 94.5987 247.675 94.3C247.19 93.9827 246.789 93.572 246.471 93.068C246.173 92.5453 245.986 91.9107 245.911 91.164H247.255C246.919 92.06 246.49 92.7787 245.967 93.32C245.463 93.8427 244.894 94.2347 244.259 94.496C243.625 94.7573 242.962 94.9253 242.271 95C241.599 95.0933 240.937 95.14 240.283 95.14ZM248.095 101.636C247.554 101.636 247.087 101.44 246.695 101.048C246.322 100.675 246.135 100.227 246.135 99.704C246.135 99.1627 246.322 98.696 246.695 98.304C247.087 97.912 247.554 97.716 248.095 97.716C248.618 97.716 249.066 97.912 249.439 98.304C249.813 98.696 249.999 99.1627 249.999 99.704C249.999 100.227 249.813 100.675 249.439 101.048C249.066 101.44 248.618 101.636 248.095 101.636ZM243.251 101.636C242.71 101.636 242.243 101.44 241.851 101.048C241.478 100.675 241.291 100.227 241.291 99.704C241.291 99.1627 241.478 98.696 241.851 98.304C242.243 97.912 242.71 97.716 243.251 97.716C243.774 97.716 244.222 97.912 244.595 98.304C244.969 98.696 245.155 99.1627 245.155 99.704C245.155 100.227 244.969 100.675 244.595 101.048C244.222 101.44 243.774 101.636 243.251 101.636ZM251.74 95.14L252.02 91.22C252.636 91.22 253.14 91.1733 253.532 91.08C253.924 90.968 254.242 90.7347 254.484 90.38C254.746 90.0067 254.97 89.456 255.156 88.728C255.362 87.9813 255.586 86.9733 255.828 85.704L259.468 86.376C259.412 86.656 259.347 86.9827 259.272 87.356C259.198 87.7293 259.132 88.112 259.076 88.504C259.02 88.8773 258.992 89.2133 258.992 89.512C258.992 90.0347 259.16 90.4547 259.496 90.772C259.832 91.0707 260.467 91.22 261.4 91.22C261.867 91.22 262.268 91.1733 262.604 91.08C262.959 90.968 263.258 90.7347 263.5 90.38C263.762 90.0067 263.986 89.4373 264.172 88.672C264.378 87.888 264.574 86.8333 264.76 85.508L268.456 86.096C268.382 86.5253 268.307 86.9827 268.232 87.468C268.158 87.9533 268.092 88.4013 268.036 88.812C267.98 89.2227 267.952 89.5587 267.952 89.82C267.952 90.0627 268.018 90.296 268.148 90.52C268.298 90.7253 268.559 90.8933 268.932 91.024C269.324 91.1547 269.875 91.22 270.584 91.22C271.088 91.22 271.518 91.1547 271.872 91.024C272.246 90.8933 272.526 90.6787 272.712 90.38C272.918 90.0813 273.02 89.6893 273.02 89.204C273.02 88.5133 272.862 87.608 272.544 86.488C272.227 85.368 271.854 84.192 271.424 82.96L275.372 81.784C275.671 82.5867 275.932 83.4453 276.156 84.36C276.399 85.256 276.586 86.1333 276.716 86.992C276.866 87.832 276.94 88.5693 276.94 89.204C276.94 90.156 276.791 91.0053 276.492 91.752C276.194 92.48 275.774 93.096 275.232 93.6C274.691 94.104 274.047 94.4867 273.3 94.748C272.554 95.0093 271.732 95.14 270.836 95.14C269.754 95.14 268.867 95.0373 268.176 94.832C267.486 94.608 266.954 94.244 266.58 93.74C266.226 93.2173 265.992 92.508 265.88 91.612H266.832C266.44 92.7133 266.002 93.516 265.516 94.02C265.031 94.5053 264.452 94.8133 263.78 94.944C263.127 95.0747 262.306 95.14 261.316 95.14C260.7 95.14 260.066 95.0747 259.412 94.944C258.778 94.7947 258.208 94.4587 257.704 93.936C257.2 93.4133 256.827 92.6013 256.584 91.5L258.096 91.444C257.704 92.5453 257.191 93.3573 256.556 93.88C255.94 94.4027 255.231 94.748 254.428 94.916C253.626 95.0653 252.73 95.14 251.74 95.14ZM287.166 95.14C285.43 95.14 284.086 94.9627 283.134 94.608C282.2 94.2533 281.547 93.7027 281.174 92.956C280.8 92.1907 280.586 91.2293 280.53 90.072L279.998 76.464H283.918L284.45 88.196C284.487 89.0547 284.58 89.6987 284.73 90.128C284.879 90.5573 285.159 90.8467 285.57 90.996C285.999 91.1453 286.624 91.22 287.446 91.22C288.155 91.22 288.659 91.4067 288.958 91.78C289.275 92.1347 289.434 92.5827 289.434 93.124C289.434 93.7027 289.238 94.188 288.846 94.58C288.454 94.9533 287.894 95.14 287.166 95.14ZM279.186 74.672L278.71 72.712C279.363 72.6 279.848 72.5067 280.166 72.432C280.502 72.3573 280.856 72.2733 281.23 72.18L280.95 72.88C280.464 72.712 279.998 72.3853 279.55 71.9C279.12 71.396 278.906 70.8267 278.906 70.192C278.906 69.52 279.055 68.9787 279.354 68.568C279.652 68.1573 280.035 67.8587 280.502 67.672C280.968 67.4853 281.454 67.392 281.958 67.392C282.238 67.392 282.499 67.4107 282.742 67.448C283.003 67.4853 283.236 67.5413 283.442 67.616L283.218 69.632C283.031 69.5947 282.844 69.5573 282.658 69.52C282.471 69.4827 282.266 69.464 282.042 69.464C281.799 69.464 281.575 69.548 281.37 69.716C281.183 69.8653 281.09 70.052 281.09 70.276C281.09 70.5933 281.202 70.8733 281.426 71.116C281.65 71.3587 281.911 71.5547 282.21 71.704C282.527 71.8347 282.788 71.9093 282.994 71.928L281.454 72.096C281.958 71.9653 282.434 71.8347 282.882 71.704C283.33 71.5547 283.75 71.4053 284.142 71.256L284.702 73.132C284.235 73.3 283.684 73.4867 283.05 73.692C282.434 73.8787 281.79 74.056 281.118 74.224C280.464 74.392 279.82 74.5413 279.186 74.672ZM287.205 95.14L287.485 91.22C288.157 91.22 288.736 91.1547 289.221 91.024C289.706 90.8933 290.117 90.632 290.453 90.24C290.789 89.8293 291.069 89.232 291.293 88.448C291.536 87.664 291.75 86.6187 291.937 85.312L295.605 85.928C295.568 86.208 295.512 86.5347 295.437 86.908C295.381 87.2813 295.325 87.664 295.269 88.056C295.232 88.4293 295.213 88.784 295.213 89.12C295.213 89.456 295.278 89.7547 295.409 90.016C295.54 90.2773 295.745 90.5013 296.025 90.688C296.324 90.856 296.706 90.9867 297.173 91.08C297.658 91.1733 298.246 91.22 298.937 91.22C299.646 91.22 300.15 91.4067 300.449 91.78C300.748 92.1347 300.897 92.5827 300.897 93.124C300.897 93.7027 300.701 94.188 300.309 94.58C299.936 94.9533 299.385 95.14 298.657 95.14C297.817 95.14 297.052 95.0747 296.361 94.944C295.689 94.8133 295.101 94.5987 294.597 94.3C294.112 93.9827 293.71 93.572 293.393 93.068C293.094 92.5453 292.908 91.9107 292.833 91.164H294.177C293.841 92.06 293.412 92.7787 292.889 93.32C292.385 93.8427 291.816 94.2347 291.181 94.496C290.546 94.7573 289.884 94.9253 289.193 95C288.521 95.0933 287.858 95.14 287.205 95.14ZM296.193 82.792C295.652 82.792 295.185 82.6053 294.793 82.232C294.42 81.84 294.233 81.3827 294.233 80.86C294.233 80.3187 294.42 79.852 294.793 79.46C295.185 79.068 295.652 78.872 296.193 78.872C296.716 78.872 297.164 79.068 297.537 79.46C297.91 79.852 298.097 80.3187 298.097 80.86C298.097 81.3827 297.91 81.84 297.537 82.232C297.164 82.6053 296.716 82.792 296.193 82.792ZM291.349 82.764C290.808 82.764 290.341 82.5773 289.949 82.204C289.576 81.812 289.389 81.3547 289.389 80.832C289.389 80.2907 289.576 79.824 289.949 79.432C290.341 79.04 290.808 78.844 291.349 78.844C291.872 78.844 292.32 79.04 292.693 79.432C293.066 79.824 293.253 80.2907 293.253 80.832C293.253 81.3547 293.066 81.812 292.693 82.204C292.32 82.5773 291.872 82.764 291.349 82.764ZM298.662 95.14L298.942 91.22C299.801 91.22 300.417 91.136 300.79 90.968C301.163 90.7813 301.387 90.4453 301.462 89.96C301.537 89.456 301.555 88.728 301.518 87.776L301.014 74.504H304.962L305.522 88.056C305.559 89.1387 305.513 90.1187 305.382 90.996C305.27 91.8547 304.981 92.592 304.514 93.208C304.066 93.824 303.366 94.3 302.414 94.636C301.481 94.972 300.23 95.14 298.662 95.14ZM309.215 95L308.627 74.504H312.547L313.135 95H309.215Z" fill="#F5B522"/>
<path d="M97.4219 85V53H119.266V59.2812H105.156V65.8437H117.875V72.1406H105.156V85H97.4219Z" fill="white"/>
</g>
<defs>
<filter id="filter0_d_14_30" x="61" y="24.6953" width="91.4458" height="91.4453" filterUnits="userSpaceOnUse" color-interpolation-filters="sRGB">
<feFlood flood-opacity="0" result="BackgroundImageFix"/>
<feColorMatrix in="SourceAlpha" type="matrix" values="0 0 0 0 0 0 0 0 0 0 0 0 0 0 0 0 0 0 127 0" result="hardAlpha"/>
<feOffset dy="4"/>
<feGaussianBlur stdDeviation="2"/>
<feComposite in2="hardAlpha" operator="out"/>
<feColorMatrix type="matrix" values="0 0 0 0 0 0 0 0 0 0 0 0 0 0 0 0 0 0 0.25 0"/>
<feBlend mode="normal" in2="BackgroundImageFix" result="effect1_dropShadow_14_30"/>
<feBlend mode="normal" in="SourceGraphic" in2="effect1_dropShadow_14_30" result="shape"/>
</filter>
<clipPath id="clip0_14_30">
<rect width="374" height="139" fill="white"/>
</clipPath>
</defs>
</svg>
