<svg width="374" height="139" viewBox="0 0 374 139" fill="none" xmlns="http://www.w3.org/2000/svg">
<g clip-path="url(#clip0_13_493)">
<rect width="374" height="138.5" fill="white"/>
<rect width="374" height="138" fill="#F4F7FF"/>
<g clip-path="url(#clip1_13_493)">
<g filter="url(#filter0_d_13_493)">
<circle cx="106.723" cy="66.4181" r="37.7229" fill="#148943"/>
<circle cx="106.723" cy="66.4181" r="39.7229" stroke="white" stroke-width="4"/>
</g>
<path d="M92.8647 57.06H99.5247C99.9447 54 102.165 51.12 106.965 51.12C111.645 51.12 114.105 53.64 114.105 57.42C114.105 62.1 110.325 63.9 104.145 63.96H102.525V69.6H104.085C111.225 69.6 114.945 71.58 114.945 77.34C114.945 81.42 112.425 84.54 107.325 84.54C102.165 84.54 99.1647 81.42 98.8647 77.34H92.2647C92.6847 85.92 99.1047 90.24 107.385 90.24C116.505 90.24 121.425 84.96 121.425 78C121.425 71.94 118.485 68.16 113.925 66.78V66.54C117.345 65.4 120.645 61.86 120.645 56.64C120.645 50.28 115.905 45.24 107.205 45.24C99.2247 45.24 93.3447 49.5 92.8647 57.06Z" fill="white"/>
<path d="M92.8647 57.06L91.8667 56.9966L91.7992 58.06H92.8647V57.06ZM99.5247 57.06V58.06H100.397L100.515 57.196L99.5247 57.06ZM104.145 63.96V64.96L104.154 64.96L104.145 63.96ZM102.525 63.96V62.96H101.525V63.96H102.525ZM102.525 69.6H101.525V70.6H102.525V69.6ZM98.8647 77.34L99.862 77.2667L99.7939 76.34H98.8647V77.34ZM92.2647 77.34V76.34H91.2146L91.2659 77.3889L92.2647 77.34ZM113.925 66.78H112.925V67.5222L113.635 67.7371L113.925 66.78ZM113.925 66.54L113.608 65.5913L112.925 65.8192V66.54H113.925ZM92.8647 58.06H99.5247V56.06H92.8647V58.06ZM100.515 57.196C100.699 55.8551 101.271 54.5991 102.276 53.681C103.272 52.7718 104.774 52.12 106.965 52.12V50.12C104.355 50.12 102.347 50.9082 100.928 52.204C99.5185 53.4909 98.7699 55.2049 98.534 56.924L100.515 57.196ZM106.965 52.12C109.131 52.12 110.648 52.7018 111.613 53.5889C112.569 54.467 113.105 55.7535 113.105 57.42H115.105C115.105 55.3065 114.411 53.443 112.966 52.1161C111.532 50.7982 109.478 50.12 106.965 50.12V52.12ZM113.105 57.42C113.105 59.432 112.324 60.7173 110.923 61.5677C109.437 62.4701 107.164 62.9306 104.135 62.96L104.154 64.96C107.305 64.9294 110.013 64.4599 111.961 63.2773C113.995 62.0427 115.105 60.088 115.105 57.42H113.105ZM104.145 62.96H102.525V64.96H104.145V62.96ZM101.525 63.96V69.6H103.525V63.96H101.525ZM102.525 70.6H104.085V68.6H102.525V70.6ZM104.085 70.6C107.607 70.6 110.07 71.0973 111.638 72.142C113.112 73.1253 113.945 74.7014 113.945 77.34H115.945C115.945 74.2186 114.917 71.9247 112.747 70.4779C110.669 69.0927 107.703 68.6 104.085 68.6V70.6ZM113.945 77.34C113.945 79.176 113.381 80.7039 112.334 81.7691C111.293 82.829 109.666 83.54 107.325 83.54V85.54C110.083 85.54 112.267 84.691 113.761 83.1709C115.249 81.6561 115.945 79.584 115.945 77.34H113.945ZM107.325 83.54C104.95 83.54 103.162 82.8258 101.941 81.7269C100.72 80.6274 99.9952 79.0775 99.862 77.2667L97.8674 77.4133C98.0342 79.6825 98.959 81.7326 100.603 83.2131C102.248 84.6942 104.539 85.54 107.325 85.54V83.54ZM98.8647 76.34H92.2647V78.34H98.8647V76.34ZM91.2659 77.3889C91.4887 81.9405 93.3175 85.442 96.2528 87.7886C99.1661 90.1176 103.081 91.24 107.385 91.24V89.24C103.409 89.24 99.9733 88.2024 97.5016 86.2264C95.0519 84.268 93.4607 81.3195 93.2635 77.2911L91.2659 77.3889ZM107.385 91.24C112.137 91.24 115.909 89.8617 118.503 87.4644C121.103 85.0625 122.425 81.7236 122.425 78H120.425C120.425 81.2364 119.287 84.0175 117.146 85.9956C115 87.9783 111.753 89.24 107.385 89.24V91.24ZM122.425 78C122.425 74.8077 121.649 72.1378 120.205 70.0637C118.759 67.9852 116.687 66.5711 114.214 65.8229L113.635 67.7371C115.723 68.3689 117.401 69.5348 118.564 71.2063C119.73 72.8822 120.425 75.1322 120.425 78H122.425ZM114.925 66.78V66.54H112.925V66.78H114.925ZM114.241 67.4887C118.044 66.221 121.645 62.3166 121.645 56.64H119.645C119.645 61.4034 116.646 64.579 113.608 65.5913L114.241 67.4887ZM121.645 56.64C121.645 53.2016 120.357 50.0735 117.858 47.8133C115.364 45.5581 111.747 44.24 107.205 44.24V46.24C111.363 46.24 114.465 47.4419 116.516 49.2967C118.562 51.1464 119.645 53.7184 119.645 56.64H121.645ZM107.205 44.24C103.044 44.24 99.3432 45.3506 96.5998 47.5323C93.8388 49.728 92.1236 52.9506 91.8667 56.9966L93.8627 57.1234C94.0858 53.6094 95.5506 50.922 97.8446 49.0977C100.156 47.2594 103.385 46.24 107.205 46.24V44.24Z" fill="white"/>
<path d="M212.205 99.63L212.985 95.43C214.425 95.43 215.805 95.36 217.125 95.22C218.465 95.08 219.735 94.8 220.935 94.38C222.155 93.96 223.295 93.34 224.355 92.52C225.415 91.7 226.375 90.6 227.235 89.22L230.595 90.75C230.475 91.13 230.375 91.5 230.295 91.86C230.215 92.2 230.175 92.48 230.175 92.7C230.175 93.16 230.285 93.56 230.505 93.9C230.745 94.24 231.145 94.5 231.705 94.68C232.265 94.86 233.035 94.95 234.015 94.95C234.775 94.95 235.315 95.15 235.635 95.55C235.955 95.93 236.115 96.41 236.115 96.99C236.115 97.61 235.905 98.13 235.485 98.55C235.085 98.95 234.495 99.15 233.715 99.15C232.335 99.15 231.135 98.96 230.115 98.58C229.115 98.2 228.325 97.67 227.745 96.99C227.185 96.29 226.855 95.49 226.755 94.59L227.955 94.71C227.235 95.57 226.335 96.31 225.255 96.93C224.195 97.55 222.985 98.06 221.625 98.46C220.285 98.86 218.815 99.15 217.215 99.33C215.635 99.53 213.965 99.63 212.205 99.63ZM212.175 99.63C210.015 99.63 208.185 99.46 206.685 99.12C205.205 98.8 203.995 98.34 203.055 97.74C202.135 97.12 201.465 96.4 201.045 95.58C200.625 94.76 200.415 93.86 200.415 92.88C200.415 92.24 200.465 91.6 200.565 90.96C200.685 90.3 200.825 89.66 200.985 89.04C201.165 88.42 201.325 87.86 201.465 87.36L205.215 88.23C205.135 88.59 205.045 88.98 204.945 89.4C204.845 89.82 204.765 90.23 204.705 90.63C204.645 91.01 204.615 91.36 204.615 91.68C204.615 92.42 204.875 93.08 205.395 93.66C205.935 94.22 206.815 94.66 208.035 94.98C209.255 95.28 210.895 95.43 212.955 95.43L213.555 98.67L212.175 99.63ZM215.355 81.9C214.855 81.9 214.415 81.71 214.035 81.33C213.675 80.95 213.495 80.5 213.495 79.98C213.495 79.46 213.675 79.02 214.035 78.66C214.415 78.3 214.855 78.12 215.355 78.12C215.875 78.12 216.315 78.3 216.675 78.66C217.035 79.02 217.215 79.46 217.215 79.98C217.215 80.5 217.035 80.95 216.675 81.33C216.315 81.71 215.875 81.9 215.355 81.9ZM212.955 85.86C212.455 85.86 212.015 85.67 211.635 85.29C211.275 84.91 211.095 84.46 211.095 83.94C211.095 83.42 211.275 82.98 211.635 82.62C212.015 82.26 212.455 82.08 212.955 82.08C213.475 82.08 213.915 82.26 214.275 82.62C214.635 82.98 214.815 83.42 214.815 83.94C214.815 84.46 214.635 84.91 214.275 85.29C213.915 85.67 213.475 85.86 212.955 85.86ZM217.605 85.86C217.105 85.86 216.665 85.67 216.285 85.29C215.925 84.91 215.745 84.46 215.745 83.94C215.745 83.42 215.925 82.98 216.285 82.62C216.665 82.26 217.105 82.08 217.605 82.08C218.125 82.08 218.565 82.26 218.925 82.62C219.285 82.98 219.465 83.42 219.465 83.94C219.465 84.46 219.285 84.91 218.925 85.29C218.565 85.67 218.125 85.86 217.605 85.86ZM233.703 99.15L234.003 94.95C234.923 94.95 235.583 94.86 235.983 94.68C236.383 94.48 236.623 94.12 236.703 93.6C236.783 93.06 236.803 92.28 236.763 91.26L236.223 77.04H240.453L241.053 91.56C241.093 92.72 241.043 93.77 240.903 94.71C240.783 95.63 240.473 96.42 239.973 97.08C239.493 97.74 238.743 98.25 237.723 98.61C236.723 98.97 235.383 99.15 233.703 99.15ZM252.119 99.15C250.259 99.15 248.819 98.96 247.799 98.58C246.799 98.2 246.099 97.61 245.699 96.81C245.299 95.99 245.069 94.96 245.009 93.72L244.379 77.04H248.579L249.209 91.71C249.249 92.63 249.349 93.32 249.509 93.78C249.669 94.24 249.969 94.55 250.409 94.71C250.869 94.87 251.539 94.95 252.419 94.95C253.179 94.95 253.719 95.15 254.039 95.55C254.379 95.93 254.549 96.41 254.549 96.99C254.549 97.61 254.339 98.13 253.919 98.55C253.499 98.95 252.899 99.15 252.119 99.15ZM252.16 99.15L252.46 94.95C253.18 94.95 253.8 94.88 254.32 94.74C254.84 94.6 255.28 94.32 255.64 93.9C256 93.46 256.3 92.82 256.54 91.98C256.8 91.14 257.03 90.02 257.23 88.62L261.16 89.28C261.12 89.58 261.06 89.93 260.98 90.33C260.92 90.73 260.86 91.14 260.8 91.56C260.76 91.96 260.74 92.34 260.74 92.7C260.74 93.06 260.81 93.38 260.95 93.66C261.09 93.94 261.31 94.18 261.61 94.38C261.93 94.56 262.34 94.7 262.84 94.8C263.36 94.9 263.99 94.95 264.73 94.95C265.49 94.95 266.03 95.15 266.35 95.55C266.67 95.93 266.83 96.41 266.83 96.99C266.83 97.61 266.62 98.13 266.2 98.55C265.8 98.95 265.21 99.15 264.43 99.15C263.53 99.15 262.71 99.08 261.97 98.94C261.25 98.8 260.62 98.57 260.08 98.25C259.56 97.91 259.13 97.47 258.79 96.93C258.47 96.37 258.27 95.69 258.19 94.89H259.63C259.27 95.85 258.81 96.62 258.25 97.2C257.71 97.76 257.1 98.18 256.42 98.46C255.74 98.74 255.03 98.92 254.29 99C253.57 99.1 252.86 99.15 252.16 99.15ZM259.39 81.9C258.89 81.9 258.45 81.71 258.07 81.33C257.71 80.95 257.53 80.5 257.53 79.98C257.53 79.46 257.71 79.02 258.07 78.66C258.45 78.3 258.89 78.12 259.39 78.12C259.91 78.12 260.35 78.3 260.71 78.66C261.07 79.02 261.25 79.46 261.25 79.98C261.25 80.5 261.07 80.95 260.71 81.33C260.35 81.71 259.91 81.9 259.39 81.9ZM256.99 85.86C256.49 85.86 256.05 85.67 255.67 85.29C255.31 84.91 255.13 84.46 255.13 83.94C255.13 83.42 255.31 82.98 255.67 82.62C256.05 82.26 256.49 82.08 256.99 82.08C257.51 82.08 257.95 82.26 258.31 82.62C258.67 82.98 258.85 83.42 258.85 83.94C258.85 84.46 258.67 84.91 258.31 85.29C257.95 85.67 257.51 85.86 256.99 85.86ZM261.64 85.86C261.14 85.86 260.7 85.67 260.32 85.29C259.96 84.91 259.78 84.46 259.78 83.94C259.78 83.42 259.96 82.98 260.32 82.62C260.7 82.26 261.14 82.08 261.64 82.08C262.16 82.08 262.6 82.26 262.96 82.62C263.32 82.98 263.5 83.42 263.5 83.94C263.5 84.46 263.32 84.91 262.96 85.29C262.6 85.67 262.16 85.86 261.64 85.86ZM264.436 99.15L264.736 94.95C265.656 94.95 266.316 94.86 266.716 94.68C267.116 94.48 267.356 94.12 267.436 93.6C267.516 93.06 267.536 92.28 267.496 91.26L266.956 77.04H271.186L271.786 91.56C271.826 92.72 271.776 93.77 271.636 94.71C271.516 95.63 271.206 96.42 270.706 97.08C270.226 97.74 269.476 98.25 268.456 98.61C267.456 98.97 266.116 99.15 264.436 99.15ZM275.742 99L275.112 77.04H279.312L279.942 99H275.742Z" fill="#F5B522"/>
<path d="M184.312 53.16C184.312 52.7 184.352 52.16 184.432 51.54C184.512 50.92 184.662 50.22 184.882 49.44C185.102 48.64 185.432 47.75 185.872 46.77L189.562 48.06C189.342 48.68 189.152 49.25 188.992 49.77C188.832 50.27 188.712 50.74 188.632 51.18C188.552 51.6 188.512 52.02 188.512 52.44C188.512 53.04 188.642 53.6 188.902 54.12C189.162 54.64 189.552 55.09 190.072 55.47C190.592 55.87 191.232 56.18 191.992 56.4C192.772 56.62 193.672 56.73 194.692 56.73C195.852 56.73 196.872 56.62 197.752 56.4C198.652 56.2 199.402 55.93 200.002 55.59C200.622 55.27 201.092 54.93 201.412 54.57C201.732 54.21 201.892 53.88 201.892 53.58C201.892 53.34 201.722 53.13 201.382 52.95C201.062 52.77 200.632 52.59 200.092 52.41C199.572 52.21 199.012 51.99 198.412 51.75C197.832 51.51 197.272 51.21 196.732 50.85C196.212 50.49 195.782 50.05 195.442 49.53C195.122 49.01 194.962 48.38 194.962 47.64C194.962 46.88 195.162 46.05 195.562 45.15C195.962 44.23 196.532 43.36 197.272 42.54C198.012 41.7 198.892 41.02 199.912 40.5C200.952 39.96 202.092 39.69 203.332 39.69C204.212 39.69 205.012 39.83 205.732 40.11C206.472 40.39 207.092 40.71 207.592 41.07L206.032 44.58C205.612 44.3 205.162 44.09 204.682 43.95C204.202 43.79 203.742 43.71 203.302 43.71C202.742 43.71 202.202 43.82 201.682 44.04C201.182 44.26 200.732 44.55 200.332 44.91C199.952 45.25 199.652 45.62 199.432 46.02C199.212 46.42 199.102 46.8 199.102 47.16C199.102 47.52 199.272 47.84 199.612 48.12C199.972 48.38 200.432 48.63 200.992 48.87C201.552 49.09 202.142 49.32 202.762 49.56C203.382 49.8 203.972 50.07 204.532 50.37C205.092 50.67 205.542 51.03 205.882 51.45C206.242 51.87 206.422 52.38 206.422 52.98C206.422 53.84 206.152 54.73 205.612 55.65C205.092 56.59 204.312 57.46 203.272 58.26C202.232 59.06 200.952 59.7 199.432 60.18C197.932 60.68 196.192 60.93 194.212 60.93C192.772 60.93 191.452 60.76 190.252 60.42C189.052 60.1 188.002 59.61 187.102 58.95C186.222 58.31 185.532 57.5 185.032 56.52C184.552 55.56 184.312 54.44 184.312 53.16ZM209.881 60.9L209.011 56.7C210.431 56.52 211.671 56.3 212.731 56.04C213.791 55.8 214.681 55.46 215.401 55.02C216.121 54.58 216.661 53.98 217.021 53.22C217.381 52.44 217.561 51.44 217.561 50.22C217.561 49.04 217.381 48.1 217.021 47.4C216.661 46.7 216.181 46.35 215.581 46.35C215.161 46.35 214.811 46.5 214.531 46.8C214.251 47.08 214.041 47.42 213.901 47.82C213.781 48.2 213.721 48.54 213.721 48.84C213.721 49.02 213.771 49.21 213.871 49.41C213.971 49.61 214.191 49.78 214.531 49.92C214.871 50.06 215.401 50.14 216.121 50.16C216.861 50.18 217.861 50.11 219.121 49.95H224.161C224.921 49.95 225.461 50.15 225.781 50.55C226.121 50.93 226.291 51.41 226.291 51.99C226.291 52.61 226.081 53.13 225.661 53.55C225.241 53.95 224.641 54.15 223.861 54.15H215.611C214.351 54.15 213.271 54 212.371 53.7C211.471 53.4 210.781 52.92 210.301 52.26C209.821 51.58 209.581 50.68 209.581 49.56C209.581 48.66 209.731 47.76 210.031 46.86C210.351 45.96 210.791 45.14 211.351 44.4C211.911 43.64 212.561 43.04 213.301 42.6C214.061 42.14 214.881 41.91 215.761 41.91C216.961 41.91 218.011 42.28 218.911 43.02C219.811 43.76 220.511 44.74 221.011 45.96C221.531 47.18 221.791 48.51 221.791 49.95C221.791 52.21 221.311 54.13 220.351 55.71C219.391 57.29 218.021 58.51 216.241 59.37C214.461 60.25 212.341 60.76 209.881 60.9ZM223.903 54.15L224.203 49.95C224.923 49.95 225.543 49.88 226.063 49.74C226.583 49.6 227.023 49.32 227.383 48.9C227.743 48.46 228.043 47.82 228.283 46.98C228.543 46.14 228.773 45.02 228.973 43.62L232.903 44.28C232.863 44.58 232.803 44.93 232.723 45.33C232.663 45.73 232.603 46.14 232.543 46.56C232.503 46.96 232.483 47.34 232.483 47.7C232.483 48.06 232.553 48.38 232.693 48.66C232.833 48.94 233.053 49.18 233.353 49.38C233.673 49.56 234.083 49.7 234.583 49.8C235.103 49.9 235.733 49.95 236.473 49.95C237.233 49.95 237.773 50.15 238.093 50.55C238.413 50.93 238.573 51.41 238.573 51.99C238.573 52.61 238.363 53.13 237.943 53.55C237.543 53.95 236.953 54.15 236.173 54.15C235.273 54.15 234.453 54.08 233.713 53.94C232.993 53.8 232.363 53.57 231.823 53.25C231.303 52.91 230.873 52.47 230.533 51.93C230.213 51.37 230.013 50.69 229.933 49.89H231.373C231.013 50.85 230.553 51.62 229.993 52.2C229.453 52.76 228.843 53.18 228.163 53.46C227.483 53.74 226.773 53.92 226.033 54C225.313 54.1 224.603 54.15 223.903 54.15ZM233.533 40.92C232.953 40.92 232.453 40.72 232.033 40.32C231.633 39.9 231.433 39.41 231.433 38.85C231.433 38.27 231.633 37.77 232.033 37.35C232.453 36.93 232.953 36.72 233.533 36.72C234.093 36.72 234.573 36.93 234.973 37.35C235.373 37.77 235.573 38.27 235.573 38.85C235.573 39.41 235.373 39.9 234.973 40.32C234.573 40.72 234.093 40.92 233.533 40.92ZM228.343 40.89C227.763 40.89 227.263 40.69 226.843 40.29C226.443 39.87 226.243 39.38 226.243 38.82C226.243 38.24 226.443 37.74 226.843 37.32C227.263 36.9 227.763 36.69 228.343 36.69C228.903 36.69 229.383 36.9 229.783 37.32C230.183 37.74 230.383 38.24 230.383 38.82C230.383 39.38 230.183 39.87 229.783 40.29C229.383 40.69 228.903 40.89 228.343 40.89ZM236.179 54.15L236.479 49.95C237.139 49.95 237.679 49.9 238.099 49.8C238.519 49.68 238.859 49.43 239.119 49.05C239.399 48.65 239.639 48.06 239.839 47.28C240.059 46.48 240.299 45.4 240.559 44.04L244.459 44.76C244.379 45.2 244.269 45.75 244.129 46.41C244.009 47.07 243.949 47.64 243.949 48.12C243.949 48.5 244.019 48.83 244.159 49.11C244.319 49.37 244.579 49.58 244.939 49.74C245.319 49.88 245.839 49.95 246.499 49.95C247.019 49.95 247.459 49.9 247.819 49.8C248.199 49.68 248.519 49.43 248.779 49.05C249.059 48.65 249.299 48.04 249.499 47.22C249.719 46.38 249.929 45.25 250.129 43.83L254.089 44.46C254.009 44.92 253.929 45.41 253.849 45.93C253.769 46.45 253.699 46.93 253.639 47.37C253.579 47.81 253.549 48.17 253.549 48.45C253.549 48.71 253.619 48.96 253.759 49.2C253.919 49.42 254.199 49.6 254.599 49.74C255.019 49.88 255.599 49.95 256.339 49.95C257.239 49.95 257.899 49.76 258.319 49.38C258.759 48.98 258.979 48.38 258.979 47.58C258.979 47.12 258.969 46.63 258.949 46.11C258.929 45.57 258.889 44.97 258.829 44.31C258.789 43.63 258.709 42.86 258.589 42L262.459 41.7C262.599 43.42 262.759 44.82 262.939 45.9C263.119 46.98 263.359 47.82 263.659 48.42C263.979 49 264.399 49.4 264.919 49.62C265.459 49.84 266.159 49.95 267.019 49.95C267.779 49.95 268.319 50.15 268.639 50.55C268.979 50.93 269.149 51.41 269.149 51.99C269.149 52.61 268.939 53.13 268.519 53.55C268.119 53.95 267.519 54.15 266.719 54.15C266.179 54.15 265.619 54.1 265.039 54C264.459 53.92 263.899 53.75 263.359 53.49C262.819 53.21 262.339 52.81 261.919 52.29C261.499 51.77 261.169 51.08 260.929 50.22L261.469 50.4C261.189 51.4 260.809 52.17 260.329 52.71C259.849 53.25 259.259 53.63 258.559 53.85C257.859 54.05 257.019 54.15 256.039 54.15C255.139 54.15 254.339 54.03 253.639 53.79C252.939 53.55 252.379 53.16 251.959 52.62C251.559 52.06 251.349 51.31 251.329 50.37H252.349C251.949 51.49 251.489 52.32 250.969 52.86C250.449 53.4 249.819 53.75 249.079 53.91C248.339 54.07 247.409 54.15 246.289 54.15C245.609 54.15 244.939 54.08 244.279 53.94C243.619 53.78 243.029 53.43 242.509 52.89C241.989 52.33 241.609 51.45 241.369 50.25L242.989 50.19C242.569 51.37 242.019 52.24 241.339 52.8C240.679 53.36 239.919 53.73 239.059 53.91C238.199 54.07 237.239 54.15 236.179 54.15ZM266.735 54.15L267.035 49.95C267.535 49.95 267.915 49.85 268.175 49.65C268.435 49.45 268.695 49.1 268.955 48.6C269.215 48.1 269.575 47.42 270.035 46.56C270.535 45.6 271.055 44.8 271.595 44.16C272.135 43.5 272.675 42.98 273.215 42.6C273.775 42.2 274.325 41.92 274.865 41.76C275.425 41.58 275.975 41.49 276.515 41.49C277.255 41.49 277.945 41.65 278.585 41.97C279.245 42.27 279.875 42.8 280.475 43.56C281.075 44.3 281.645 45.32 282.185 46.62C282.565 47.52 282.945 48.21 283.325 48.69C283.705 49.17 284.095 49.5 284.495 49.68C284.915 49.86 285.335 49.95 285.755 49.95C286.515 49.95 287.055 50.15 287.375 50.55C287.695 50.93 287.855 51.41 287.855 51.99C287.855 52.61 287.645 53.13 287.225 53.55C286.805 53.95 286.215 54.15 285.455 54.15C284.475 54.15 283.585 53.99 282.785 53.67C281.985 53.35 281.355 52.87 280.895 52.23L281.765 51.57C281.585 51.99 281.315 52.43 280.955 52.89C280.615 53.35 280.165 53.74 279.605 54.06C279.065 54.38 278.415 54.54 277.655 54.54C277.155 54.54 276.565 54.44 275.885 54.24C275.225 54.06 274.535 53.75 273.815 53.31C273.115 52.85 272.465 52.23 271.865 51.45C271.485 52.15 271.065 52.7 270.605 53.1C270.145 53.48 269.605 53.75 268.985 53.91C268.365 54.07 267.615 54.15 266.735 54.15ZM273.605 47.91C273.805 48.21 274.045 48.51 274.325 48.81C274.605 49.11 274.915 49.38 275.255 49.62C275.595 49.84 275.955 50.02 276.335 50.16C276.735 50.3 277.125 50.37 277.505 50.37C277.905 50.37 278.235 50.22 278.495 49.92C278.755 49.6 278.765 49.13 278.525 48.51C278.425 48.25 278.285 47.96 278.105 47.64C277.945 47.3 277.755 46.98 277.535 46.68C277.335 46.38 277.105 46.13 276.845 45.93C276.605 45.73 276.355 45.63 276.095 45.63C275.835 45.63 275.565 45.71 275.285 45.87C275.005 46.03 274.725 46.28 274.445 46.62C274.165 46.94 273.885 47.37 273.605 47.91ZM285.456 54.15L285.756 49.95C286.676 49.95 287.336 49.86 287.736 49.68C288.136 49.48 288.376 49.12 288.456 48.6C288.536 48.06 288.556 47.28 288.516 46.26L287.976 32.04H292.206L292.806 46.56C292.846 47.72 292.796 48.77 292.656 49.71C292.536 50.63 292.226 51.42 291.726 52.08C291.246 52.74 290.496 53.25 289.476 53.61C288.476 53.97 287.136 54.15 285.456 54.15ZM296.762 54L296.132 32.04H300.332L300.962 54H296.762Z" fill="#454545"/>
<g opacity="0.2">
<path fill-rule="evenodd" clip-rule="evenodd" d="M377 49C376.717 49.016 376.434 49.036 376.15 49.057L377 49.909V49ZM374.863 49.176L377 51.318V52.726L373.606 49.329C374.024 49.273 374.443 49.222 374.863 49.176ZM372.389 49.514L377 54.134V55.542L371.195 49.727C371.591 49.6503 371.989 49.5793 372.389 49.514ZM370.03 49.967C369.647 50.0517 369.267 50.1403 368.89 50.233L377 58.359V56.951L370.03 49.967ZM367.776 50.526C367.411 50.6267 367.048 50.732 366.686 50.842L377 61.175V59.767L367.777 50.526H367.776ZM365.619 51.182C365.269 51.298 364.921 51.4187 364.575 51.544L377 63.991V62.582L365.621 51.182H365.619ZM363.553 51.927C363.217 52.0603 362.884 52.1937 362.555 52.327L377 66.808V65.4L363.553 51.927ZM361.57 52.756C361.246 52.9007 360.926 53.049 360.607 53.201L377 69.624V68.216L361.57 52.756V52.756ZM359.664 53.664C359.354 53.8207 359.046 53.9813 358.741 54.146L377 72.44V71.032L359.664 53.664V53.664ZM357.834 54.647C357.535 54.8157 357.239 54.9883 356.945 55.165L377 75.257V73.848L357.836 54.648L357.834 54.647ZM356.075 55.7L377 76.664V78.072L355.221 56.254C355.504 56.066 355.788 55.8813 356.075 55.7V55.7ZM354.385 56.823L377 79.482V80.89L353.564 57.41C353.835 57.21 354.109 57.0143 354.384 56.823H354.385ZM352.761 58.012L377 82.3V83.709L351.973 58.632C352.233 58.422 352.496 58.2153 352.761 58.012V58.012ZM351.201 59.267L377 85.115V86.522L350.449 59.922C350.698 59.7013 350.95 59.4843 351.204 59.271L351.201 59.267ZM349.704 60.585L377 87.93V89.339L348.982 61.269C349.221 61.039 349.462 60.8113 349.707 60.586L349.704 60.585ZM348.271 61.966L377 90.747V92.155L347.583 62.682C347.811 62.4413 348.041 62.203 348.274 61.967L348.271 61.966ZM346.903 63.411L377 93.563V94.97L346.245 64.158C346.463 63.9073 346.684 63.6587 346.906 63.412L346.903 63.411ZM345.596 64.919L377 96.379V97.788L344.972 65.7C345.178 65.4387 345.387 65.1793 345.6 64.922L345.596 64.919ZM344.361 66.493L377 99.2V100.6L343.762 67.3C343.957 67.0273 344.157 66.7573 344.361 66.49V66.493ZM343.184 68.13L377 102.012V103.42L342.617 68.973C342.801 68.6897 342.989 68.4087 343.181 68.13H343.184ZM342.065 69.832L377 104.832V106.24L341.54 70.71C341.714 70.416 341.89 70.1237 342.07 69.833L342.065 69.832ZM341.027 71.6L377 107.645V109.053L340.533 72.517C340.694 72.2103 340.861 71.9063 341.032 71.605L341.027 71.6ZM340.056 73.444L377 110.461V111.87L339.597 74.4C339.747 74.082 339.9 73.7657 340.057 73.451L340.056 73.444ZM339.157 75.361C339.013 75.6883 338.873 76.0177 338.737 76.349L377 114.686V113.277L339.159 75.366L339.157 75.361ZM338.339 77.361C338.206 77.7023 338.079 78.0453 337.96 78.39L377 117.5V116.094L338.34 77.362L338.339 77.361ZM337.603 79.441C337.487 79.797 337.375 80.1547 337.269 80.514L377 120.318V118.91L337.605 79.442L337.603 79.441ZM336.957 81.61C336.858 81.983 336.758 82.355 336.671 82.731L377 123.135V121.727L336.959 81.611L336.957 81.61ZM336.41 83.878C336.327 84.268 336.251 84.66 336.178 85.054L377 125.951V124.543L336.412 83.879L336.41 83.878ZM335.973 86.257C335.909 86.667 335.851 87.078 335.799 87.491L377 128.767V127.359L335.976 86.259L335.973 86.257ZM335.655 88.757C335.613 89.189 335.575 89.621 335.545 90.057L377 131.583V130.176L335.658 88.756L335.655 88.757ZM335.476 91.394C335.459 91.853 335.45 92.312 335.447 92.773L377 134.4V132.992L335.477 91.392L335.476 91.394ZM335.458 94.194C335.458 94.272 335.458 94.35 335.458 94.428C335.47 94.8367 335.488 95.2467 335.511 95.658L376.889 137.105L377 137.1V135.808L335.461 94.192L335.458 94.194ZM335.63 97.183C335.67 97.609 335.716 98.0327 335.768 98.454C335.768 98.545 335.768 98.637 335.768 98.73L374.291 137.319L375.589 137.212L335.633 97.181L335.63 97.183ZM335.73 100.104C335.709 100.529 335.679 100.969 335.635 101.418L371.694 137.533L372.991 137.426L335.738 100.1L335.73 100.104ZM335.483 102.674C335.426 103.074 335.357 103.474 335.278 103.874L369.096 137.746L370.393 137.639L335.491 102.672L335.483 102.674ZM335.016 105.021C334.922 105.386 334.817 105.75 334.702 106.114L366.498 137.96L367.795 137.853L335.023 105.019L335.016 105.021ZM334.333 107.153C334.204 107.486 334.063 107.815 333.911 108.139L363.899 138.173L365.197 138.066L334.34 107.151L334.333 107.153ZM333.435 109.071C333.269 109.371 333.094 109.662 332.906 109.949L361.302 138.387L362.6 138.28L333.444 109.069L333.435 109.071ZM332.321 110.771C332.121 111.033 331.908 111.289 331.68 111.538L358.704 138.6L360.002 138.494L332.33 110.769L332.321 110.771ZM330.985 112.249L357.396 138.709L356.099 138.816L330.239 112.9C330.505 112.69 330.757 112.473 330.994 112.248L330.985 112.249ZM329.421 113.499L354.807 138.92L353.51 139.028L328.566 114.038C328.855 113.871 329.145 113.692 329.431 113.497L329.421 113.499ZM327.633 114.524L352.208 139.135L350.91 139.242L326.656 114.942C326.986 114.82 327.316 114.682 327.646 114.526L327.633 114.524ZM325.58 115.284L349.611 139.348L348.313 139.455L324.444 115.542C324.824 115.475 325.206 115.389 325.59 115.282L325.58 115.284ZM323.194 115.709L347.014 139.562L345.716 139.669L321.851 115.762C322.294 115.762 322.75 115.747 323.203 115.707L323.194 115.709ZM320.357 115.684L344.416 139.776L343.118 139.883L318.708 115.432C319.234 115.537 319.787 115.624 320.363 115.682L320.357 115.684ZM316.818 114.954L341.817 139.989L340.52 140.096L314.568 114.091C315.304 114.426 316.06 114.713 316.832 114.952L316.818 114.954ZM311.572 112.5L339.22 140.2L337.923 140.307L308.997 111.333C309.872 111.69 310.73 112.08 311.572 112.504V112.5ZM306.773 110.509L336.618 140.409L335.32 140.516L304.773 109.917C305.447 110.096 306.112 110.296 306.769 110.517L306.773 110.509ZM302.932 109.477L334.023 140.629L332.725 140.736L301.214 109.167C301.791 109.257 302.364 109.361 302.933 109.48L302.932 109.477ZM299.592 108.948C299.081 108.892 298.568 108.847 298.053 108.814L330.126 140.95L331.424 140.843L299.593 108.952L299.592 108.948ZM296.583 108.748C296.118 108.737 295.648 108.737 295.174 108.748L327.528 141.164L328.826 141.057L296.585 108.757L296.583 108.748ZM293.816 108.792C293.491 108.809 293.166 108.832 292.841 108.859C292.73 108.868 292.62 108.88 292.508 108.891L324.931 141.378L326.228 141.271L293.817 108.8L293.816 108.792ZM291.24 109.028C290.828 109.081 290.419 109.14 290.012 109.207L322.333 141.591L323.63 141.484L291.24 109.033V109.028ZM288.822 109.422C288.435 109.5 288.048 109.581 287.665 109.672L319.734 141.8L321.032 141.693L288.823 109.427L288.822 109.422ZM286.541 109.954C286.175 110.053 285.811 110.157 285.449 110.267L317.136 142.018L318.434 141.911L286.542 109.959L286.541 109.954ZM284.384 110.61C284.036 110.727 283.69 110.85 283.346 110.978L314.539 142.232L315.837 142.125L284.384 110.615V110.61ZM282.338 111.376C282.005 111.509 281.677 111.65 281.354 111.798L311.94 142.445L313.237 142.338L282.339 111.381L282.338 111.376ZM280.392 112.244C280.077 112.396 279.765 112.552 279.455 112.712L309.343 142.659L310.64 142.552L280.396 112.252L280.392 112.244ZM278.542 113.206C278.243 113.374 277.946 113.546 277.652 113.723L306.746 142.873L308.043 142.766L278.544 113.211L278.542 113.206ZM276.783 114.26C276.498 114.443 276.214 114.628 275.935 114.818L304.147 143.086L305.445 142.979L276.786 114.264L276.783 114.26ZM275.106 115.397C274.835 115.597 274.567 115.797 274.301 115.997L301.55 143.297L302.848 143.191L275.108 115.4L275.106 115.397ZM273.515 116.62L300.251 143.407L298.953 143.514L272.754 117.266C273.005 117.048 273.26 116.834 273.519 116.624L273.515 116.62ZM272.003 117.92L297.647 143.62L296.35 143.727L271.278 118.6C271.517 118.37 271.76 118.144 272.005 117.921L272.003 117.92ZM270.57 119.3L295.052 143.834L293.755 143.941L269.885 120.027C270.111 119.784 270.34 119.543 270.572 119.306L270.57 119.3ZM269.217 120.761L292.457 144.047L291.159 144.154L268.572 121.526C268.785 121.27 269.001 121.017 269.221 120.767L269.217 120.761ZM267.942 122.299L289.862 144.261L288.564 144.368L267.335 123.1C267.534 122.833 267.737 122.567 267.944 122.3L267.942 122.299ZM266.744 123.919L287.256 144.469L285.958 144.576L266.179 124.761C266.364 124.478 266.552 124.197 266.744 123.919ZM265.633 125.619L284.658 144.679L283.36 144.786L265.108 126.51C265.279 126.213 265.454 125.919 265.633 125.627V125.619ZM264.606 127.406L282.065 144.9L280.768 145.007L264.135 128.343C264.29 128.031 264.448 127.72 264.613 127.414L264.606 127.406ZM263.672 129.287L279.466 145.115L278.169 145.221L263.244 130.27C263.384 129.942 263.529 129.618 263.678 129.295L263.672 129.287ZM262.831 131.261L276.865 145.321L275.567 145.428L262.456 132.3C262.578 131.955 262.704 131.613 262.836 131.273L262.831 131.261ZM262.096 133.342C261.983 133.7 261.872 134.06 261.77 134.422L272.972 145.649L274.27 145.542L262.1 133.35L262.096 133.342ZM261.475 135.535C261.38 135.914 261.292 136.295 261.21 136.678L270.37 145.854L271.668 145.747L261.475 135.534V135.535ZM260.976 137.853C260.904 138.253 260.841 138.662 260.783 139.069L267.77 146.069L269.068 145.962L260.975 137.854L260.976 137.853ZM260.626 140.32C260.581 140.75 260.544 141.183 260.514 141.62L265.178 146.29L266.475 146.183L260.631 140.328L260.626 140.32ZM260.447 142.955C260.432 143.418 260.43 143.883 260.432 144.349L262.581 146.5L263.878 146.393L260.452 142.96L260.447 142.955ZM260.472 145.797L261.27 146.597L260.519 146.659C260.505 146.378 260.491 146.094 260.478 145.806L260.472 145.797Z" fill="#148943"/>
<path fill-rule="evenodd" clip-rule="evenodd" d="M377 64.1741C376.219 64.1294 375.432 64.1071 374.638 64.1071C363.821 64.1073 353.417 68.2658 345.57 75.7251C337.724 83.1845 333.033 93.3759 332.466 104.198V104.198C332.428 104.931 332.409 105.67 332.409 106.413C332.409 106.964 332.423 107.513 332.444 108.061C332.144 112.09 330.847 118.261 325.949 121.47C318.294 126.497 310.1 120.777 310.1 120.777C305.061 117.231 299.15 115.132 293.007 114.708C286.863 114.283 280.721 115.549 275.243 118.368C269.766 121.187 265.162 125.453 261.929 130.704C258.696 135.955 256.956 141.991 256.899 148.16H377V64.1741Z" fill="#148943"/>
<path fill-rule="evenodd" clip-rule="evenodd" d="M377 102.276C369.732 102.045 362.5 103.39 355.799 106.219C344.229 111.078 334.883 120.085 329.588 131.479C328.97 132.809 328.401 134.198 327.831 135.587C325.84 140.44 323.845 145.306 319.476 148.165H321.009C324.864 145.139 326.758 140.525 328.646 135.922C329.207 134.552 329.77 133.183 330.389 131.848C335.589 120.652 344.771 111.802 356.139 107.028C362.732 104.244 369.849 102.923 377 103.156V102.276ZM303.316 148.164C301.229 146.875 299.39 145.221 297.886 143.282L297.862 143.252C293.829 137.613 288.42 133.104 282.152 130.156C275.884 127.207 268.967 125.918 262.06 126.411C255.153 126.903 248.487 129.162 242.7 132.97C236.912 136.778 232.195 142.01 229 148.164H229.991C233.166 142.206 237.805 137.157 243.472 133.498C249.138 129.838 255.642 127.688 262.37 127.251C269.097 126.814 275.825 128.104 281.915 131C288.006 133.896 293.257 138.301 297.173 143.799V143.799C297.181 143.811 297.19 143.822 297.199 143.833C298.491 145.491 300.018 146.95 301.733 148.164H303.316Z" fill="#148943"/>
</g>
<g opacity="0.2">
<path fill-rule="evenodd" clip-rule="evenodd" d="M-24 85.165C-23.7165 85.149 -23.4341 85.129 -23.1496 85.108L-24 84.256V85.165ZM-21.863 84.989L-24 82.847V81.439L-20.6063 84.836C-21.0242 84.892 -21.4431 84.943 -21.863 84.989ZM-19.3886 84.651L-24 80.031V78.623L-18.1948 84.438C-18.5907 84.5147 -18.9886 84.5857 -19.3886 84.651ZM-17.03 84.198C-16.6473 84.1134 -16.2674 84.0247 -15.8901 83.932L-24 75.806V77.214L-17.03 84.198ZM-14.7761 83.639C-14.4115 83.5384 -14.0482 83.433 -13.6862 83.323L-24 72.99V74.398L-14.7771 83.639H-14.7761ZM-12.6191 82.983C-12.2691 82.867 -11.9211 82.7464 -11.5751 82.621L-24 70.174V71.583L-12.6211 82.983H-12.6191ZM-10.553 82.238C-10.2169 82.1047 -9.88423 81.9714 -9.55484 81.838L-24 67.357V68.765L-10.553 82.238ZM-8.56967 81.409C-8.24627 81.2644 -7.92553 81.116 -7.60746 80.964L-24 64.541V65.949L-8.56967 81.409V81.409ZM-6.66421 80.501C-6.35412 80.3444 -6.04636 80.1837 -5.74093 80.019L-24 61.725V63.133L-6.66421 80.501V80.501ZM-4.83361 79.518C-4.5355 79.3494 -4.23938 79.1767 -3.94526 79L-24 58.908V60.317L-4.83561 79.517L-4.83361 79.518ZM-3.07488 78.465L-24 57.501V56.093L-2.22147 77.911C-2.50361 78.099 -2.78808 78.2837 -3.07488 78.465V78.465ZM-1.38502 77.342L-24 54.683V53.275L-0.563546 76.755C-0.835042 76.955 -1.10853 77.1507 -1.38402 77.342H-1.38502ZM0.238963 76.153L-24 51.865V50.456L1.0275 75.533C0.766649 75.743 0.503805 75.9497 0.238963 76.153V76.153ZM1.79906 74.898L-24 49.05V47.643L2.55067 74.243C2.3018 74.4637 2.05026 74.6807 1.79607 74.894L1.79906 74.898ZM3.29628 73.58L-24 46.235V44.826L4.01794 72.896C3.77905 73.126 3.5375 73.3537 3.29329 73.579L3.29628 73.58ZM4.72862 72.199L-24 43.418V42.01L5.41734 71.483C5.1891 71.7237 4.95853 71.962 4.72563 72.198L4.72862 72.199ZM6.09708 70.754L-24 40.602V39.195L6.75486 70.007C6.5366 70.2577 6.31634 70.5064 6.09408 70.753L6.09708 70.754ZM7.40365 69.246L-24 37.786V36.377L8.02849 68.465C7.82221 68.7264 7.6126 68.9857 7.39966 69.243L7.40365 69.246ZM8.63936 67.672L-24 34.965V33.565L9.23824 66.865C9.0426 67.1377 8.84298 67.4077 8.63936 67.675V67.672ZM9.81617 66.035L-24 32.153V30.745L10.3831 65.192C10.1988 65.4754 10.0108 65.7564 9.81916 66.035H9.81617ZM10.9351 64.333L-24 29.333V27.925L11.4601 63.455C11.2864 63.749 11.1098 64.0414 10.9301 64.332L10.9351 64.333ZM11.9732 62.565L-24 26.52V25.112L12.4672 61.648C12.3055 61.9547 12.1392 62.2587 11.9682 62.56L11.9732 62.565ZM12.9444 60.721L-24 23.704V22.295L13.4025 59.765C13.2534 60.083 13.1004 60.3994 12.9434 60.714L12.9444 60.721ZM13.8427 58.804C13.9871 58.4767 14.1272 58.1474 14.2629 57.816L-24 19.479V20.888L13.8407 58.799L13.8427 58.804ZM14.6612 56.804C14.7943 56.4627 14.9207 56.1197 15.0405 55.775L-24 16.665V18.071L14.6602 56.803L14.6612 56.804ZM15.3968 54.724C15.5133 54.368 15.6247 54.0104 15.7312 53.651L-24 13.847V15.255L15.3948 54.723L15.3968 54.724ZM16.0426 52.555C16.1424 52.182 16.2422 51.81 16.3291 51.434L-24 11.03V12.438L16.0406 52.554L16.0426 52.555ZM16.5896 50.287C16.6734 49.897 16.7493 49.505 16.8221 49.111L-24 8.21404V9.62204L16.5876 50.286L16.5896 50.287ZM17.0268 47.908C17.0907 47.498 17.1485 47.087 17.2014 46.674L-24 5.39804V6.80604L17.0238 47.906L17.0268 47.908ZM17.3452 45.408C17.3871 44.976 17.425 44.544 17.455 44.108L-24 2.58204V3.98904L17.3422 45.409L17.3452 45.408ZM17.5238 42.771C17.5408 42.312 17.5498 41.853 17.5528 41.392L-24 -0.234962V1.17304L17.5228 42.773L17.5238 42.771ZM17.5418 39.971C17.5418 39.893 17.5418 39.815 17.5418 39.737C17.5298 39.3284 17.5122 38.9184 17.4889 38.507L-23.8892 -2.93996L-24 -2.93496V-1.64296L17.5388 39.973L17.5418 39.971ZM17.3701 36.982C17.3295 36.556 17.2836 36.1324 17.2324 35.711C17.2324 35.62 17.2324 35.528 17.2324 35.435L-21.291 -3.15396L-22.5886 -3.04696L17.3671 36.984L17.3701 36.982ZM17.2703 34.061C17.2913 33.636 17.3212 33.196 17.3651 32.747L-18.6939 -3.36796L-19.9914 -3.26096L17.2623 34.065L17.2703 34.061ZM17.5169 31.491C17.5738 31.091 17.6426 30.691 17.7225 30.291L-16.0957 -3.58096L-17.3933 -3.47396L17.5089 31.493L17.5169 31.491ZM17.984 29.144C18.0778 28.7794 18.1826 28.415 18.2984 28.051L-13.4975 -3.79496L-14.7951 -3.68796L17.977 29.146L17.984 29.144ZM18.6667 27.012C18.7958 26.6787 18.9366 26.35 19.0889 26.026L-10.8993 -4.00796L-12.1969 -3.90096L18.6597 27.014L18.6667 27.012ZM19.5651 25.094C19.7307 24.794 19.9064 24.503 20.0941 24.216L-8.30217 -4.22196L-9.59976 -4.11496L19.5561 25.096L19.5651 25.094ZM20.679 23.394C20.8786 23.132 21.0922 22.8764 21.3198 22.627L-5.70399 -4.43496L-7.00158 -4.32896L20.67 23.396L20.679 23.394ZM22.0145 21.916L-4.39642 -4.54396L-3.09883 -4.65096L22.7611 21.265C22.4949 21.475 22.2431 21.6924 22.0055 21.917L22.0145 21.916ZM23.5786 20.666L-1.80724 -4.75496L-0.509646 -4.86296L24.434 20.127C24.1445 20.294 23.8551 20.473 23.5686 20.668L23.5786 20.666ZM25.3673 19.641L0.791935 -4.96996L2.08952 -5.07696L26.3445 19.223C26.0141 19.345 25.6837 19.483 25.3543 19.639L25.3673 19.641ZM27.4205 18.881L3.38911 -5.18296L4.6867 -5.28996L28.5563 18.623C28.1764 18.6897 27.7944 18.7764 27.4105 18.883L27.4205 18.881ZM29.806 18.456L5.98628 -5.39696L7.28387 -5.50396L31.1485 18.403C30.7064 18.403 30.2502 18.418 29.797 18.458L29.806 18.456ZM32.6428 18.481L8.58446 -5.61096L9.88205 -5.71796L34.2917 18.733C33.7657 18.628 33.2127 18.541 32.6368 18.483L32.6428 18.481ZM36.1822 19.211L11.1826 -5.82396L12.4802 -5.93096L38.432 20.074C37.6964 19.7393 36.9402 19.4517 36.1682 19.213L36.1822 19.211ZM41.4284 21.665L13.7798 -6.03496L15.0774 -6.14196L44.0026 22.832C43.1276 22.4754 42.2695 22.085 41.4284 21.661V21.665ZM46.2265 23.656L16.382 -6.24396L17.6796 -6.35096L48.2268 24.248C47.5534 24.0687 46.888 23.8687 46.2305 23.648L46.2265 23.656ZM50.0684 24.688L18.9771 -6.46396L20.2747 -6.57096L51.7862 24.998C51.2086 24.908 50.6357 24.8037 50.0674 24.685L50.0684 24.688ZM53.4082 25.217C53.9186 25.273 54.4316 25.3177 54.9473 25.351L22.8739 -6.78496L21.5763 -6.67796L53.4072 25.213L53.4082 25.217ZM56.4166 25.417C56.8824 25.4277 57.3522 25.4277 57.826 25.417L25.4721 -6.99896L24.1745 -6.89196L56.4146 25.408L56.4166 25.417ZM59.1844 25.373C59.5092 25.3557 59.8339 25.3334 60.1586 25.306C60.2704 25.297 60.3802 25.285 60.492 25.274L28.0693 -7.21296L26.7717 -7.10596L59.1834 25.365L59.1844 25.373ZM61.7597 25.137C62.1716 25.0844 62.5811 25.0247 62.9884 24.958L30.6674 -7.42596L29.3698 -7.31896L61.7597 25.132V25.137ZM64.1782 24.743C64.5654 24.665 64.9517 24.584 65.335 24.493L33.2656 -7.63496L31.968 -7.52796L64.1772 24.738L64.1782 24.743ZM66.4589 24.211C66.8249 24.1124 67.1889 24.008 67.5509 23.898L35.8638 -7.85296L34.5662 -7.74596L66.4579 24.206L66.4589 24.211ZM68.6159 23.555C68.9639 23.4377 69.31 23.315 69.654 23.187L38.4609 -8.06696L37.1634 -7.95996L68.6159 23.55V23.555ZM70.6621 22.789C70.9948 22.6557 71.3229 22.515 71.6463 22.367L41.0601 -8.27996L39.7625 -8.17296L70.6611 22.784L70.6621 22.789ZM72.6075 21.921C72.9229 21.769 73.2353 21.613 73.5448 21.453L43.6573 -8.49396L42.3597 -8.38696L72.6035 21.913L72.6075 21.921ZM74.4581 20.959C74.7568 20.791 75.0536 20.6187 75.3484 20.442L46.2545 -8.70796L44.9569 -8.60096L74.4561 20.954L74.4581 20.959ZM76.2168 19.905C76.5023 19.722 76.7857 19.537 77.0652 19.347L48.8526 -8.92096L47.5551 -8.81396L76.2138 19.901L76.2168 19.905ZM77.8937 18.768C78.1652 18.568 78.4327 18.368 78.6992 18.168L51.4498 -9.13196L50.1522 -9.02596L77.8917 18.765L77.8937 18.768ZM79.4847 17.545L52.7494 -9.24196L54.047 -9.34896L80.2463 16.899C79.9948 17.117 79.7396 17.331 79.4807 17.541L79.4847 17.545ZM80.9969 16.245L55.3526 -9.45496L56.6502 -9.56196L81.7216 15.565C81.483 15.795 81.2405 16.021 80.9949 16.244L80.9969 16.245ZM82.4302 14.865L57.9477 -9.66896L59.2453 -9.77596L83.115 14.138C82.8894 14.3814 82.6605 14.6217 82.4283 14.859L82.4302 14.865ZM83.7827 13.404L60.5429 -9.88196L61.8405 -9.98896L84.4275 12.639C84.2153 12.895 83.999 13.148 83.7787 13.398L83.7827 13.404ZM85.0584 11.866L63.1381 -10.096L64.4357 -10.203L85.6652 11.065C85.4656 11.3317 85.2627 11.5984 85.0564 11.865L85.0584 11.866ZM86.2561 10.246L65.7443 -10.304L67.0418 -10.411L86.8211 9.40404C86.6361 9.68737 86.4478 9.96804 86.2561 10.246ZM87.3671 8.54604L68.3424 -10.514L69.64 -10.621L87.8921 7.65504C87.7211 7.9517 87.5461 8.24604 87.3671 8.53804V8.54604ZM88.3942 6.75904L70.9346 -10.735L72.2322 -10.842L88.8653 5.82204C88.7096 6.13404 88.5519 6.44504 88.3872 6.75104L88.3942 6.75904ZM89.3284 4.87804L73.5338 -10.95L74.8314 -11.056L89.7556 3.89504C89.6159 4.22304 89.4712 4.54704 89.3224 4.87004L89.3284 4.87804ZM90.1689 2.90404L76.1349 -11.156L77.4325 -11.263L90.5442 1.86504C90.4224 2.2097 90.2956 2.55204 90.1639 2.89204L90.1689 2.90404ZM90.9035 0.823036C91.0173 0.465036 91.1281 0.105042 91.2299 -0.256958L80.0277 -11.484L78.7301 -11.377L90.8995 0.815041L90.9035 0.823036ZM91.5253 -1.36996C91.6198 -1.74863 91.708 -2.12963 91.7899 -2.51296L82.6299 -11.689L81.3323 -11.582L91.5253 -1.36896V-1.36996ZM92.0244 -3.68796C92.0963 -4.08796 92.1592 -4.49696 92.2171 -4.90396L85.23 -11.904L83.9325 -11.797L92.0254 -3.68896L92.0244 -3.68796ZM92.3738 -6.15496C92.419 -6.58496 92.4563 -7.0183 92.4856 -7.45496L87.8222 -12.125L86.5246 -12.018L92.3688 -6.16296L92.3738 -6.15496ZM92.5534 -8.78996C92.5684 -9.25296 92.5704 -9.71796 92.5684 -10.184L90.4194 -12.335L89.1218 -12.228L92.5484 -8.79496L92.5534 -8.78996ZM92.5285 -11.632L91.73 -12.432L92.4806 -12.494C92.4952 -12.2133 92.5092 -11.929 92.5225 -11.641L92.5285 -11.632Z" fill="#148943"/>
<path fill-rule="evenodd" clip-rule="evenodd" d="M-24 69.991C-23.2195 70.0357 -22.4322 70.058 -21.6384 70.058C-10.8215 70.0578 -0.41697 65.8993 7.4297 58.4399C15.2764 50.9806 19.9669 40.7891 20.5343 29.967V29.967C20.5722 29.2337 20.5911 28.4953 20.5911 27.752C20.5911 27.201 20.5772 26.652 20.5562 26.104C20.8557 22.075 22.1532 15.904 27.0511 12.695C34.7059 7.66798 42.8997 13.388 42.8997 13.388C47.9389 16.9341 53.8497 19.0328 59.9932 19.4574C66.1366 19.882 72.2791 18.6162 77.7565 15.7969C83.234 12.9776 87.8382 8.71202 91.0713 3.46124C94.3045 -1.78953 96.0437 -7.82578 96.1008 -13.995H-24V69.991Z" fill="#148943"/>
<path fill-rule="evenodd" clip-rule="evenodd" d="M-24 31.889C-16.7321 32.1205 -9.50011 30.7755 -2.79939 27.946C8.7709 23.0873 18.1169 14.0805 23.4119 2.68602C24.0298 1.35602 24.5987 -0.0329856 25.1686 -1.42199C27.1599 -6.27499 29.1552 -11.141 33.5241 -14H31.991C28.1361 -10.974 26.2416 -6.35998 24.3542 -1.75698C23.7932 -0.386985 23.2302 0.982018 22.6114 2.31702C17.4107 13.5129 8.22894 22.363 -3.13876 27.137C-9.73215 29.9207 -16.8488 31.2416 -24 31.009L-24 31.889ZM49.6841 -13.999C51.7705 -12.7095 53.6095 -11.0561 55.114 -9.11699L55.138 -9.08698C59.1713 -3.44809 64.5801 1.06082 70.848 4.0092C77.1158 6.95757 84.0335 8.24698 90.9404 7.75431C97.8473 7.26163 104.513 5.00332 110.3 1.19501C116.088 -2.61331 120.805 -7.84447 124 -13.999H123.009C119.834 -8.0405 115.195 -2.99239 109.528 0.667347C103.862 4.32708 97.3577 6.4773 90.6303 6.9144C83.9028 7.3515 77.1754 6.06101 71.0849 3.16512C64.9945 0.269244 59.7426 -4.13618 55.8267 -9.63398V-9.63398C55.8187 -9.64598 55.8097 -9.65698 55.8007 -9.66798C54.509 -11.326 52.9816 -12.7851 51.2671 -13.999H49.6841Z" fill="#148943"/>
</g>
</g>
</g>
<defs>
<filter id="filter0_d_13_493" x="61" y="24.6952" width="91.4458" height="91.4458" filterUnits="userSpaceOnUse" color-interpolation-filters="sRGB">
<feFlood flood-opacity="0" result="BackgroundImageFix"/>
<feColorMatrix in="SourceAlpha" type="matrix" values="0 0 0 0 0 0 0 0 0 0 0 0 0 0 0 0 0 0 127 0" result="hardAlpha"/>
<feOffset dy="4"/>
<feGaussianBlur stdDeviation="2"/>
<feComposite in2="hardAlpha" operator="out"/>
<feColorMatrix type="matrix" values="0 0 0 0 0 0 0 0 0 0 0 0 0 0 0 0 0 0 0.25 0"/>
<feBlend mode="normal" in2="BackgroundImageFix" result="effect1_dropShadow_13_493"/>
<feBlend mode="normal" in="SourceGraphic" in2="effect1_dropShadow_13_493" result="shape"/>
</filter>
<clipPath id="clip0_13_493">
<rect width="374" height="138.5" fill="white"/>
</clipPath>
<clipPath id="clip1_13_493">
<rect width="373.799" height="138.5" fill="white"/>
</clipPath>
</defs>
</svg>
