<svg width="374" height="139" viewBox="0 0 374 139" fill="none" xmlns="http://www.w3.org/2000/svg">
<g clip-path="url(#clip0_8_521)">
<rect width="374" height="138.5" fill="white"/>
<rect width="374" height="138" fill="url(#paint0_linear_8_521)"/>
<g clip-path="url(#clip1_8_521)">
<g style="mix-blend-mode:exclusion">
<g opacity="0.2">
<path fill-rule="evenodd" clip-rule="evenodd" d="M-14 85.165C-13.7146 85.149 -13.4302 85.129 -13.1438 85.108L-14 84.256V85.165ZM-11.8485 84.989L-14 82.847V81.439L-10.5834 84.836C-11.0041 84.892 -11.4258 84.943 -11.8485 84.989ZM-9.35741 84.651L-14 80.031V78.623L-8.15556 84.438C-8.55417 84.5147 -8.95478 84.5857 -9.35741 84.651ZM-6.98286 84.198C-6.59765 84.1133 -6.21512 84.0247 -5.83527 83.932L-14 75.806V77.214L-6.98286 84.198ZM-4.71381 83.639C-4.3467 83.5383 -3.98092 83.433 -3.61648 83.323L-14 72.99V74.398L-4.71482 83.639H-4.71381ZM-2.54225 82.983C-2.18987 82.867 -1.8395 82.7463 -1.49113 82.621L-14 70.174V71.583L-2.54426 82.983H-2.54225ZM-0.462127 82.238C-0.123814 82.1047 0.211149 81.9713 0.542763 81.838L-14 67.357V68.765L-0.462127 82.238ZM1.53459 81.409C1.86017 81.2643 2.18308 81.116 2.5033 80.964L-14 64.541V65.949L1.53459 81.409V81.409ZM3.45292 80.501C3.76511 80.3443 4.07495 80.1837 4.38244 80.019L-14 61.725V63.133L3.45292 80.501V80.501ZM5.29589 79.518C5.59602 79.3493 5.89413 79.1767 6.19024 79L-14 58.908V60.317L5.29388 79.517L5.29589 79.518ZM7.06651 78.465L-14 57.501V56.093L7.92569 77.911C7.64164 78.099 7.35524 78.2837 7.06651 78.465V78.465ZM8.76778 77.342L-14 54.683V53.275L9.59481 76.755C9.32148 76.955 9.04614 77.1507 8.76879 77.342H8.76778ZM10.4027 76.153L-14 51.865V50.456L11.1966 75.533C10.934 75.743 10.6694 75.9497 10.4027 76.153V76.153ZM11.9734 74.898L-14 49.05V47.643L12.7301 74.243C12.4795 74.4637 12.2263 74.6807 11.9704 74.894L11.9734 74.898ZM13.4807 73.58L-14 46.235V44.826L14.2073 72.896C13.9667 73.126 13.7236 73.3537 13.4777 73.579L13.4807 73.58ZM14.9227 72.199L-14 43.418V42.01L15.6161 71.483C15.3863 71.7237 15.1542 71.962 14.9197 72.198L14.9227 72.199ZM16.3004 70.754L-14 40.602V39.195L16.9627 70.007C16.7429 70.2577 16.5212 70.5063 16.2974 70.753L16.3004 70.754ZM17.6158 69.246L-14 37.786V36.377L18.2449 68.465C18.0372 68.7263 17.8262 68.9857 17.6118 69.243L17.6158 69.246ZM18.8599 67.672L-14 34.965L-14 33.565L19.4628 66.865C19.2659 67.1377 19.0649 67.4077 18.8599 67.675V67.672ZM20.0447 66.035L-14 32.153V30.745L20.6154 65.192C20.4299 65.4753 20.2406 65.7563 20.0477 66.035H20.0447ZM21.1711 64.333L-14 29.333V27.925L21.6997 63.455C21.5249 63.749 21.347 64.0413 21.1661 64.332L21.1711 64.333ZM22.2162 62.565L-14 26.52V25.112L22.7136 61.648C22.5508 61.9547 22.3834 62.2587 22.2112 62.56L22.2162 62.565ZM23.194 60.721L-14 23.704V22.295L23.6552 59.765C23.5052 60.083 23.3511 60.3993 23.193 60.714L23.194 60.721ZM24.0984 58.804C24.2438 58.4767 24.3848 58.1473 24.5214 57.816L-14 19.479L-14 20.888L24.0964 58.799L24.0984 58.804ZM24.9224 56.804C25.0564 56.4627 25.1837 56.1197 25.3042 55.775L-14 16.665V18.071L24.9214 56.803L24.9224 56.804ZM25.663 54.724C25.7802 54.368 25.8924 54.0103 25.9996 53.651L-14 13.847V15.255L25.661 54.723L25.663 54.724ZM26.3132 52.555C26.4136 52.182 26.5141 51.81 26.6016 51.434L-14 11.03V12.438L26.3111 52.554L26.3132 52.555ZM26.8638 50.287C26.9482 49.897 27.0246 49.505 27.098 49.111L-14 8.21401V9.62201L26.8618 50.286L26.8638 50.287ZM27.304 47.908C27.3683 47.498 27.4266 47.087 27.4798 46.674L-14 5.39801L-14 6.80601L27.301 47.906L27.304 47.908ZM27.6245 45.408C27.6667 44.976 27.7049 44.544 27.7351 44.108L-14 2.58201V3.98901L27.6215 45.409L27.6245 45.408ZM27.8044 42.771C27.8215 42.312 27.8305 41.853 27.8336 41.392L-14 -0.234993V1.17301L27.8034 42.773L27.8044 42.771ZM27.8225 39.971C27.8225 39.893 27.8225 39.815 27.8225 39.737C27.8104 39.3283 27.7927 38.9183 27.7692 38.507L-13.8885 -2.93999L-14 -2.93499V-1.64299L27.8195 39.973L27.8225 39.971ZM27.6497 36.982C27.6088 36.556 27.5626 36.1323 27.511 35.711C27.511 35.62 27.511 35.528 27.511 35.435L-11.2727 -3.15399L-12.5791 -3.04699L27.6466 36.984L27.6497 36.982ZM27.5492 34.061C27.5703 33.636 27.6004 33.196 27.6446 32.747L-8.65801 -3.36799L-9.96436 -3.26099L27.5411 34.065L27.5492 34.061ZM27.7974 31.491C27.8547 31.091 27.924 30.691 28.0044 30.291L-6.04228 -3.58099L-7.34864 -3.47399L27.7893 31.493L27.7974 31.491ZM28.2677 29.144C28.3621 28.7793 28.4676 28.415 28.5842 28.051L-3.42655 -3.79499L-4.73291 -3.68799L28.2606 29.146L28.2677 29.144ZM28.955 27.012C29.085 26.6787 29.2267 26.35 29.3801 26.026L-0.810824 -4.00799L-2.11718 -3.90099L28.948 27.014L28.955 27.012ZM29.8594 25.094C30.0262 24.794 30.2031 24.503 30.392 24.216L1.8039 -4.22199L0.497542 -4.11499L29.8504 25.096L29.8594 25.094ZM30.9809 23.394C31.1818 23.132 31.3969 22.8763 31.626 22.627L4.41963 -4.43499L3.11327 -4.32899L30.9718 23.396L30.9809 23.394ZM32.3254 21.916L5.73603 -4.54399L7.04239 -4.65099L33.0771 21.265C32.8091 21.475 32.5555 21.6923 32.3164 21.917L32.3254 21.916ZM33.9001 20.666L8.34271 -4.75499L9.64907 -4.86299L34.7613 20.127C34.4698 20.294 34.1784 20.473 33.89 20.668L33.9001 20.666ZM35.7008 19.641L10.9594 -4.96999L12.2658 -5.07699L36.6846 19.223C36.352 19.345 36.0194 19.483 35.6878 19.639L35.7008 19.641ZM37.7679 18.881L13.5742 -5.18299L14.8805 -5.28999L38.9115 18.623C38.5289 18.6897 38.1444 18.7763 37.7578 18.883L37.7679 18.881ZM40.1696 18.456L16.1889 -5.39699L17.4952 -5.50399L41.5212 18.403C41.076 18.403 40.6168 18.418 40.1605 18.458L40.1696 18.456ZM43.0255 18.481L18.8046 -5.61099L20.111 -5.71799L44.6856 18.733C44.156 18.628 43.5993 18.541 43.0194 18.483L43.0255 18.481ZM46.5888 19.211L21.4203 -5.82399L22.7267 -5.93099L48.8538 20.074C48.1132 19.7392 47.352 19.4517 46.5747 19.213L46.5888 19.211ZM51.8705 21.665L24.0351 -6.03499L25.3414 -6.14199L54.4621 22.832C53.5812 22.4753 52.7173 22.085 51.8705 21.661V21.665ZM56.701 23.656L26.6548 -6.24399L27.9612 -6.35099L58.7148 24.248C58.0369 24.0687 57.3669 23.8687 56.705 23.648L56.701 23.656ZM60.5688 24.688L29.2675 -6.46399L30.5739 -6.57099L62.2983 24.998C61.7168 24.908 61.14 24.8037 60.5678 24.685L60.5688 24.688ZM63.9312 25.217C64.445 25.273 64.9615 25.3177 65.4807 25.351L33.1906 -6.78499L31.8843 -6.67799L63.9302 25.213L63.9312 25.217ZM66.9599 25.417C67.4289 25.4277 67.9018 25.4277 68.3788 25.417L35.8063 -6.99899L34.5 -6.89199L66.9579 25.408L66.9599 25.417ZM69.7465 25.373C70.0734 25.3557 70.4003 25.3333 70.7273 25.306C70.8398 25.297 70.9504 25.285 71.0629 25.274L38.4211 -7.21299L37.1147 -7.106L69.7455 25.365L69.7465 25.373ZM72.3391 25.137C72.7538 25.0843 73.1661 25.0247 73.5761 24.958L41.0368 -7.42599L39.7304 -7.31899L72.3391 25.132V25.137ZM74.774 24.743C75.1639 24.665 75.5527 24.584 75.9386 24.493L43.6525 -7.63499L42.3462 -7.52799L74.773 24.738L74.774 24.743ZM77.0701 24.211C77.4386 24.1123 77.805 24.008 78.1695 23.898L46.2683 -7.85299L44.9619 -7.74599L77.0691 24.206L77.0701 24.211ZM79.2417 23.555C79.5921 23.4377 79.9404 23.315 80.2868 23.187L48.883 -8.06699L47.5766 -7.95999L79.2417 23.55V23.555ZM81.3017 22.789C81.6367 22.6557 81.967 22.515 82.2925 22.367L51.4997 -8.27999L50.1934 -8.17299L81.3007 22.784L81.3017 22.789ZM83.2603 21.921C83.5778 21.769 83.8923 21.613 84.2038 21.453L54.1144 -8.49399L52.8081 -8.38699L83.2562 21.913L83.2603 21.921ZM85.1233 20.959C85.4241 20.791 85.7229 20.6187 86.0197 20.442L56.7292 -8.70799L55.4228 -8.60099L85.1213 20.954L85.1233 20.959ZM86.8939 19.905C87.1813 19.722 87.4667 19.537 87.7481 19.347L59.3449 -8.92099L58.0385 -8.81399L86.8909 19.901L86.8939 19.905ZM88.5821 18.768C88.8555 18.568 89.1248 18.368 89.3931 18.168L61.9596 -9.13199L60.6532 -9.02599L88.5801 18.765L88.5821 18.768ZM90.1839 17.545L63.268 -9.24199L64.5743 -9.34899L90.9507 16.899C90.6974 17.117 90.4405 17.331 90.1799 17.541L90.1839 17.545ZM91.7063 16.245L65.8887 -9.45499L67.1951 -9.56199L92.4359 15.565C92.1957 15.795 91.9515 16.021 91.7043 16.244L91.7063 16.245ZM93.1494 14.865L68.5014 -9.66899L69.8078 -9.77599L93.8387 14.138C93.6116 14.3813 93.3812 14.6217 93.1474 14.859L93.1494 14.865ZM94.511 13.404L71.1141 -9.88199L72.4205 -9.98899L95.1602 12.639C94.9464 12.895 94.7287 13.148 94.507 13.398L94.511 13.404ZM95.7952 11.866L73.7269 -10.096L75.0332 -10.203L96.4062 11.065C96.2052 11.3317 96.0009 11.5983 95.7932 11.865L95.7952 11.866ZM97.0011 10.246L76.3506 -10.304L77.657 -10.411L97.5699 9.40401C97.3836 9.68734 97.194 9.96801 97.0011 10.246ZM98.1196 8.54601L78.9664 -10.514L80.2727 -10.621L98.6481 7.65501C98.476 7.95167 98.2998 8.24601 98.1196 8.53801V8.54601ZM99.1536 6.75901L81.5761 -10.735L82.8824 -10.842L99.6279 5.82201C99.4711 6.13401 99.3124 6.44501 99.1466 6.75101L99.1536 6.75901ZM100.094 4.87801L84.1928 -10.95L85.4991 -11.056L100.524 3.89501C100.384 4.22301 100.238 4.54701 100.088 4.87001L100.094 4.87801ZM100.94 2.90401L86.8115 -11.156L88.1179 -11.263L101.318 1.86501C101.196 2.20967 101.068 2.55201 100.935 2.89201L100.94 2.90401ZM101.68 0.823006C101.794 0.465006 101.906 0.105011 102.008 -0.256989L90.7306 -11.484L89.4242 -11.377L101.676 0.81501L101.68 0.823006ZM102.306 -1.37C102.401 -1.74866 102.49 -2.12966 102.572 -2.51299L93.3503 -11.689L92.044 -11.582L102.306 -1.36899V-1.37ZM102.808 -3.68799C102.881 -4.08799 102.944 -4.49699 103.002 -4.90399L95.9681 -11.904L94.6617 -11.797L102.809 -3.68899L102.808 -3.68799ZM103.16 -6.15499C103.206 -6.58499 103.243 -7.01833 103.273 -7.45499L98.5778 -12.125L97.2714 -12.018L103.155 -6.16299L103.16 -6.15499ZM103.341 -8.78999C103.356 -9.25299 103.358 -9.71799 103.356 -10.184L101.193 -12.335L99.8861 -12.228L103.336 -8.79499L103.341 -8.78999ZM103.316 -11.632L102.512 -12.432L103.268 -12.494C103.282 -12.2133 103.296 -11.929 103.31 -11.641L103.316 -11.632Z" fill="#6D6D6D"/>
<path fill-rule="evenodd" clip-rule="evenodd" d="M-14 69.991C-13.2142 70.0357 -12.4217 70.058 -11.6224 70.058C-0.732413 70.0578 9.74237 65.8993 17.6421 58.4399C25.5417 50.9806 30.264 40.7891 30.8352 29.967V29.967C30.8733 29.2337 30.8924 28.4953 30.8924 27.752C30.8924 27.201 30.8784 26.652 30.8573 26.104C31.1587 22.075 32.4651 15.904 37.3961 12.695C45.1026 7.66802 53.3517 13.388 53.3517 13.388C58.425 16.9341 64.3757 19.0329 70.5607 19.4574C76.7457 19.882 82.9296 18.6162 88.4441 15.7969C93.9586 12.9776 98.5938 8.71205 101.849 3.46127C105.104 -1.7895 106.855 -7.82575 106.912 -13.995L-14 -13.995L-14 69.991Z" fill="#676767"/>
<path fill-rule="evenodd" clip-rule="evenodd" d="M-14 31.889C-6.68299 32.1205 0.597862 30.7755 7.34386 27.946C18.9923 23.0873 28.4015 14.0805 33.7323 2.68602C34.3543 1.35602 34.9271 -0.0329856 35.5009 -1.42199C37.5056 -6.27499 39.5144 -11.141 43.9128 -14H42.3693C38.4884 -10.974 36.5811 -6.35998 34.6809 -1.75698C34.1161 -0.386985 33.5494 0.982018 32.9263 2.31702C27.6905 13.5129 18.4467 22.363 7.00219 27.137C0.364251 29.9207 -6.80052 31.2416 -14 31.009L-14 31.889ZM60.182 -13.999C62.2825 -12.7095 64.1339 -11.0561 65.6486 -9.11699L65.6727 -9.08698C69.7332 -3.44809 75.1786 1.06082 81.4888 4.0092C87.7991 6.95757 94.7634 8.24698 101.717 7.75431C108.671 7.26163 115.381 5.00332 121.208 1.19501C127.035 -2.61331 131.783 -7.84447 135 -13.999H134.002C130.806 -8.0405 126.135 -2.99239 120.431 0.667347C114.726 4.32708 108.178 6.4773 101.405 6.9144C94.6319 7.3515 87.859 6.06101 81.7274 3.16512C75.5958 0.269244 70.3085 -4.13618 66.366 -9.63398V-9.63398C66.358 -9.64598 66.349 -9.65698 66.3399 -9.66798C65.0395 -11.326 63.5017 -12.7851 61.7757 -13.999H60.182Z" fill="#6D6D6D"/>
</g>
</g>
<g style="mix-blend-mode:exclusion">
<g opacity="0.2">
<path fill-rule="evenodd" clip-rule="evenodd" d="M387 53C386.715 53.0161 386.43 53.0362 386.144 53.0574L387 53.9151V53ZM384.849 53.1772L387 55.3337V56.7512L383.583 53.3312C384.004 53.2748 384.426 53.2235 384.849 53.1772ZM382.357 53.5175L387 58.1687V59.5862L381.156 53.7319C381.554 53.6547 381.955 53.5832 382.357 53.5175ZM379.983 53.9735C379.598 54.0588 379.215 54.148 378.835 54.2413L387 62.4222V61.0047L379.983 53.9735ZM377.714 54.5363C377.347 54.6377 376.981 54.7437 376.616 54.8544L387 65.2573V63.8397L377.715 54.5363H377.714ZM375.542 55.1967C375.19 55.3135 374.839 55.435 374.491 55.5612L387 68.0923V66.6738L375.544 55.1967H375.542ZM373.462 55.9468C373.124 56.081 372.789 56.2152 372.457 56.3495L387 70.9283V69.5108L373.462 55.9468ZM371.465 56.7814C371.14 56.927 370.817 57.0764 370.497 57.2294L387 73.7633V72.3458L371.465 56.7814V56.7814ZM369.547 57.6955C369.235 57.8532 368.925 58.015 368.618 58.1808L387 76.5984V75.1809L369.547 57.6955V57.6955ZM367.704 58.6852C367.404 58.855 367.106 59.0288 366.81 59.2067L387 79.4344V78.0159L367.706 58.6862L367.704 58.6852ZM365.933 59.7453L387 80.8509V82.2684L365.074 60.303C365.358 60.1137 365.645 59.9278 365.933 59.7453V59.7453ZM364.232 60.8759L387 83.6879V85.1055L363.405 61.4668C363.679 61.2655 363.954 61.0685 364.231 60.8759H364.232ZM362.597 62.0729L387 86.525V87.9435L361.803 62.6971C362.066 62.4857 362.331 62.2776 362.597 62.0729V62.0729ZM361.027 63.3364L387 89.359V90.7755L360.27 63.9958C360.52 63.7736 360.774 63.5552 361.03 63.3404L361.027 63.3364ZM359.519 64.6633L387 92.193V93.6115L358.793 65.3519C359.033 65.1203 359.276 64.8911 359.522 64.6643L359.519 64.6633ZM358.077 66.0536L387 95.0291V96.4466L357.384 66.7744C357.614 66.5321 357.846 66.2922 358.08 66.0546L358.077 66.0536ZM356.7 67.5084L387 97.8641V99.2806L356.037 68.2604C356.257 68.0081 356.479 67.7577 356.703 67.5094L356.7 67.5084ZM355.384 69.0266L387 100.699V102.118L354.755 69.8128C354.963 69.5497 355.174 69.2886 355.388 69.0296L355.384 69.0266ZM354.14 70.6112L387 103.539V104.949L353.537 71.4236C353.734 71.1491 353.935 70.8773 354.14 70.6082V70.6112ZM352.955 72.2592L387 106.37V107.788L352.385 73.1079C352.57 72.8227 352.759 72.5398 352.952 72.2592H352.955ZM351.829 73.9728L387 109.209V110.627L351.3 74.8567C351.475 74.5607 351.653 74.2664 351.834 73.9738L351.829 73.9728ZM350.784 75.7527L387 112.041V113.459L350.286 76.6759C350.449 76.3672 350.617 76.0611 350.789 75.7577L350.784 75.7527ZM349.806 77.6092L387 114.876V116.295L349.345 78.5716C349.495 78.2515 349.649 77.933 349.807 77.6162L349.806 77.6092ZM348.902 79.5391C348.756 79.8687 348.615 80.2002 348.479 80.5338L387 119.13V117.711L348.904 79.5441L348.902 79.5391ZM348.078 81.5526C347.944 81.8963 347.816 82.2416 347.696 82.5886L387 121.963V120.547L348.079 81.5536L348.078 81.5526ZM347.337 83.6467C347.22 84.0051 347.108 84.3652 347 84.7269L387 124.8V123.382L347.339 83.6477L347.337 83.6467ZM346.687 85.8303C346.586 86.2058 346.486 86.5804 346.398 86.9589L387 127.636V126.218L346.689 85.8313L346.687 85.8303ZM346.136 88.1136C346.052 88.5063 345.975 88.9009 345.902 89.2976L387 130.471V129.053L346.138 88.1147L346.136 88.1136ZM345.696 90.5087C345.632 90.9215 345.573 91.3353 345.52 91.7511L387 133.306V131.888L345.699 90.5107L345.696 90.5087ZM345.375 93.0256C345.333 93.4605 345.295 93.8955 345.265 94.3344L387 136.141V134.724L345.378 93.0246L345.375 93.0256ZM345.196 95.6804C345.179 96.1425 345.169 96.6046 345.166 97.0687L387 138.977V137.559L345.197 95.6784L345.196 95.6804ZM345.177 98.4994C345.177 98.5779 345.177 98.6564 345.177 98.7349C345.19 99.1464 345.207 99.5591 345.231 99.9732L386.888 141.7L387 141.695V140.395L345.181 98.4973L345.177 98.4994ZM345.35 101.509C345.391 101.937 345.437 102.364 345.489 102.788C345.489 102.88 345.489 102.972 345.489 103.066L384.273 141.916L385.579 141.808L345.353 101.507L345.35 101.509ZM345.451 104.449C345.43 104.877 345.4 105.32 345.355 105.772L381.658 142.131L382.964 142.023L345.459 104.445L345.451 104.449ZM345.203 107.037C345.145 107.439 345.076 107.842 344.996 108.245L379.042 142.346L380.349 142.238L345.211 107.035L345.203 107.037ZM344.732 109.4C344.638 109.767 344.532 110.133 344.416 110.5L376.427 142.561L377.733 142.453L344.739 109.397L344.732 109.4ZM344.045 111.546C343.915 111.881 343.773 112.212 343.62 112.539L373.811 142.775L375.117 142.668L344.052 111.544L344.045 111.546ZM343.141 113.477C342.974 113.779 342.797 114.072 342.608 114.361L371.196 142.991L372.502 142.883L343.15 113.475L343.141 113.477ZM342.019 115.188C341.818 115.452 341.603 115.71 341.374 115.961L368.58 143.205L369.887 143.099L342.028 115.186L342.019 115.188ZM340.675 116.676L367.264 143.315L365.958 143.423L339.923 117.332C340.191 117.12 340.444 116.902 340.684 116.675L340.675 116.676ZM339.1 117.935L364.657 143.528L363.351 143.636L338.239 118.477C338.53 118.309 338.822 118.129 339.11 117.933L339.1 117.935ZM337.299 118.967L362.041 143.744L360.734 143.852L336.315 119.388C336.648 119.265 336.981 119.126 337.312 118.969L337.299 118.967ZM335.232 119.732L359.426 143.958L358.119 144.066L334.089 119.992C334.471 119.924 334.856 119.837 335.242 119.73L335.232 119.732ZM332.83 120.16L356.811 144.174L355.505 144.282L331.479 120.213C331.924 120.213 332.383 120.198 332.839 120.158L332.83 120.16ZM329.975 120.135L354.195 144.389L352.889 144.497L328.314 119.881C328.844 119.987 329.401 120.074 329.981 120.133L329.975 120.135ZM326.411 119.4L351.58 144.604L350.273 144.711L324.146 118.531C324.887 118.868 325.648 119.157 326.425 119.398L326.411 119.4ZM321.129 116.929L348.965 144.816L347.659 144.924L318.538 115.754C319.419 116.113 320.283 116.506 321.129 116.933V116.929ZM316.299 114.925L346.345 145.027L345.039 145.134L314.285 114.329C314.963 114.509 315.633 114.71 316.295 114.933L316.299 114.925ZM312.431 113.886L343.732 145.248L342.426 145.356L310.702 113.574C311.283 113.664 311.86 113.769 312.432 113.889L312.431 113.886ZM309.069 113.353C308.555 113.297 308.038 113.252 307.519 113.218L339.809 145.571L341.116 145.464L309.07 113.357L309.069 113.353ZM306.04 113.152C305.571 113.141 305.098 113.141 304.621 113.152L337.194 145.787L338.5 145.679L306.042 113.161L306.04 113.152ZM303.254 113.196C302.927 113.213 302.6 113.236 302.273 113.263C302.16 113.272 302.05 113.285 301.937 113.296L334.579 146.002L335.885 145.894L303.255 113.204L303.254 113.196ZM300.661 113.434C300.246 113.487 299.834 113.547 299.424 113.614L331.963 146.217L333.27 146.109L300.661 113.439V113.434ZM298.226 113.83C297.836 113.909 297.447 113.99 297.061 114.082L329.347 146.427L330.654 146.319L298.227 113.835L298.226 113.83ZM295.93 114.366C295.561 114.465 295.195 114.57 294.831 114.681L326.732 146.646L328.038 146.539L295.931 114.371L295.93 114.366ZM293.758 115.026C293.408 115.144 293.06 115.268 292.713 115.397L324.117 146.862L325.423 146.754L293.758 115.031V115.026ZM291.698 115.797C291.363 115.932 291.033 116.073 290.707 116.222L321.5 147.076L322.807 146.969L291.699 115.802L291.698 115.797ZM289.74 116.671C289.422 116.824 289.108 116.981 288.796 117.142L318.886 147.292L320.192 147.184L289.744 116.679L289.74 116.671ZM287.877 117.64C287.576 117.809 287.277 117.982 286.98 118.16L316.271 147.507L317.577 147.4L287.879 117.645L287.877 117.64ZM286.106 118.701C285.819 118.885 285.533 119.071 285.252 119.263L313.655 147.722L314.961 147.614L286.109 118.705L286.106 118.701ZM284.418 119.846C284.145 120.047 283.875 120.248 283.607 120.45L311.04 147.934L312.347 147.827L284.42 119.849L284.418 119.846ZM282.816 121.077L309.732 148.045L308.426 148.153L282.049 121.727C282.303 121.508 282.559 121.292 282.82 121.081L282.816 121.077ZM281.294 122.386L307.111 148.259L305.805 148.367L280.564 123.07C280.804 122.839 281.048 122.611 281.296 122.387L281.294 122.386ZM279.851 123.775L304.499 148.475L303.192 148.582L279.161 124.507C279.388 124.262 279.619 124.02 279.853 123.781L279.851 123.775ZM278.489 125.246L301.886 148.689L300.579 148.797L277.84 126.016C278.054 125.758 278.271 125.504 278.493 125.252L278.489 125.246ZM277.205 126.794L299.273 148.905L297.967 149.012L276.594 127.601C276.795 127.332 276.999 127.064 277.207 126.795L277.205 126.794ZM275.999 128.425L296.649 149.114L295.343 149.222L275.43 129.273C275.616 128.988 275.806 128.705 275.999 128.425ZM274.88 130.137L294.034 149.325L292.727 149.433L274.352 131.034C274.524 130.735 274.7 130.439 274.88 130.145V130.137ZM273.846 131.936L291.424 149.548L290.118 149.656L273.372 132.879C273.529 132.565 273.688 132.252 273.853 131.944L273.846 131.936ZM272.906 133.829L288.807 149.764L287.501 149.871L272.476 134.819C272.616 134.489 272.762 134.163 272.912 133.838L272.906 133.829ZM272.06 135.817L286.188 149.972L284.882 150.08L271.682 136.863C271.804 136.516 271.932 136.171 272.065 135.829L272.06 135.817ZM271.32 137.912C271.206 138.272 271.094 138.635 270.992 138.999L282.269 150.302L283.576 150.194L271.324 137.92L271.32 137.912ZM270.694 140.12C270.599 140.501 270.51 140.884 270.428 141.27L279.65 150.508L280.956 150.401L270.694 140.119V140.12ZM270.192 142.453C270.119 142.856 270.056 143.268 269.998 143.678L277.032 150.725L278.338 150.617L270.191 142.454L270.192 142.453ZM269.84 144.937C269.794 145.37 269.757 145.806 269.727 146.246L274.422 150.947L275.729 150.84L269.845 144.945L269.84 144.937ZM269.659 147.59C269.644 148.056 269.642 148.524 269.644 148.993L271.807 151.159L273.114 151.051L269.664 147.595L269.659 147.59ZM269.684 150.451L270.488 151.256L269.732 151.319C269.718 151.036 269.704 150.75 269.69 150.46L269.684 150.451Z" fill="#6D6D6D"/>
<path fill-rule="evenodd" clip-rule="evenodd" d="M387 68.2765C386.214 68.2316 385.422 68.2091 384.622 68.2091C373.732 68.2093 363.258 72.3959 355.358 79.9056C347.458 87.4154 342.736 97.6757 342.165 108.571V108.571C342.127 109.309 342.108 110.053 342.108 110.801C342.108 111.356 342.122 111.908 342.143 112.46C341.841 116.516 340.535 122.729 335.604 125.96C327.897 131.021 319.648 125.262 319.648 125.262C314.575 121.692 308.624 119.579 302.439 119.152C296.254 118.724 290.07 119.998 284.556 122.837C279.041 125.675 274.406 129.97 271.151 135.256C267.896 140.542 266.145 146.619 266.088 152.83H387V68.2765Z" fill="#676767"/>
<path fill-rule="evenodd" clip-rule="evenodd" d="M387 106.636C379.683 106.403 372.402 107.757 365.656 110.606C354.008 115.497 344.599 124.565 339.268 136.036C338.646 137.375 338.073 138.774 337.499 140.172C335.494 145.058 333.486 149.957 329.087 152.835H330.631C334.512 149.789 336.419 145.143 338.319 140.509C338.884 139.13 339.451 137.752 340.074 136.408C345.31 125.136 354.553 116.226 365.998 111.42C372.636 108.618 379.801 107.288 387 107.522V106.636ZM312.818 152.834C310.718 151.536 308.866 149.871 307.351 147.919L307.327 147.889C303.267 142.212 297.821 137.672 291.511 134.704C285.201 131.736 278.237 130.438 271.283 130.934C264.329 131.43 257.619 133.703 251.792 137.537C245.965 141.371 241.217 146.638 238 152.834H238.998C242.194 146.835 246.865 141.753 252.569 138.069C258.274 134.384 264.822 132.219 271.595 131.779C278.368 131.339 285.141 132.638 291.273 135.554C297.404 138.469 302.692 142.905 306.634 148.44V148.44C306.642 148.452 306.651 148.463 306.66 148.474C307.961 150.143 309.498 151.612 311.224 152.834H312.818Z" fill="#6D6D6D"/>
</g>
</g>
<g filter="url(#filter0_d_8_521)">
<circle cx="187" cy="83" r="34" fill="#223F99"/>
<circle cx="187" cy="83" r="36" stroke="#FFCB57" stroke-width="4"/>
</g>
<path d="M174.312 62.07V67.405H194.662L179.207 102H185.532L200.822 66.745V62.07H174.312Z" fill="#FFCB57"/>
<path d="M174.312 62.07V61.07H173.312V62.07H174.312ZM174.312 67.405H173.312V68.405H174.312V67.405ZM194.662 67.405L195.575 67.8129L196.204 66.405H194.662V67.405ZM179.207 102L178.294 101.592L177.665 103H179.207V102ZM185.532 102V103H186.188L186.449 102.398L185.532 102ZM200.822 66.745L201.739 67.1429L201.822 66.9525V66.745H200.822ZM200.822 62.07H201.822V61.07H200.822V62.07ZM173.312 62.07V67.405H175.312V62.07H173.312ZM174.312 68.405H194.662V66.405H174.312V68.405ZM193.749 66.9971L178.294 101.592L180.12 102.408L195.575 67.8129L193.749 66.9971ZM179.207 103H185.532V101H179.207V103ZM186.449 102.398L201.739 67.1429L199.904 66.3471L184.614 101.602L186.449 102.398ZM201.822 66.745V62.07H199.822V66.745H201.822ZM200.822 61.07H174.312V63.07H200.822V61.07Z" fill="white"/>
<path d="M232.171 40.683C231.313 40.683 230.507 40.592 229.753 40.41C228.999 40.228 228.336 39.9485 227.764 39.5715C227.205 39.1945 226.763 38.707 226.438 38.109C226.126 37.511 225.97 36.8025 225.97 35.9835C225.97 35.1385 226.145 34.391 226.496 33.741C226.847 33.104 227.296 32.545 227.842 32.064C228.388 31.57 228.966 31.128 229.577 30.738C230.201 30.335 230.786 29.9515 231.332 29.5875C231.878 29.2235 232.327 28.853 232.678 28.476C233.029 28.086 233.204 27.657 233.204 27.189C233.204 27.02 233.159 26.864 233.068 26.721C232.99 26.565 232.853 26.4415 232.658 26.3505C232.476 26.2465 232.216 26.1945 231.878 26.1945C231.657 26.1945 231.43 26.2205 231.196 26.2725C230.962 26.3115 230.734 26.37 230.513 26.448C230.292 26.513 230.084 26.5975 229.889 26.7015C230.227 26.9745 230.559 27.28 230.884 27.618C231.222 27.943 231.527 28.2615 231.8 28.5735C232.086 28.8725 232.307 29.1325 232.463 29.3535C232.762 29.5095 233.087 29.6525 233.438 29.7825C233.789 29.8995 234.16 30.0035 234.55 30.0945C234.953 30.1855 235.369 30.257 235.798 30.309C236.227 30.348 236.669 30.3675 237.124 30.3675C237.618 30.3675 237.969 30.4975 238.177 30.7575C238.385 31.0045 238.489 31.3165 238.489 31.6935C238.489 32.0965 238.352 32.4345 238.079 32.7075C237.806 32.9675 237.423 33.0975 236.929 33.0975C235.85 33.0975 234.927 33.0195 234.16 32.8635C233.406 32.7075 232.723 32.4735 232.112 32.1615C231.514 31.8365 230.897 31.44 230.26 30.972C230.104 30.699 229.876 30.4 229.577 30.075C229.278 29.737 228.973 29.4185 228.661 29.1195C228.362 28.8205 228.108 28.5865 227.9 28.4175C227.861 28.3785 227.796 28.2485 227.705 28.0275C227.614 27.7935 227.53 27.5465 227.452 27.2865C227.387 27.0265 227.354 26.8445 227.354 26.7405C227.354 26.4805 227.478 26.188 227.725 25.863C227.972 25.525 228.316 25.2065 228.758 24.9075C229.213 24.5955 229.74 24.342 230.338 24.147C230.936 23.939 231.586 23.835 232.288 23.835C233.562 23.835 234.478 24.108 235.037 24.654C235.609 25.187 235.895 25.876 235.895 26.721C235.895 27.501 235.72 28.1965 235.369 28.8075C235.031 29.4185 234.589 29.9775 234.043 30.4845C233.497 30.9915 232.918 31.4595 232.307 31.8885C231.709 32.3175 231.137 32.7335 230.591 33.1365C230.045 33.5525 229.597 33.9685 229.246 34.3845C228.908 34.8135 228.739 35.275 228.739 35.769C228.739 36.185 228.843 36.5295 229.051 36.8025C229.272 37.0885 229.551 37.316 229.889 37.485C230.227 37.654 230.598 37.771 231.001 37.836C231.417 37.914 231.82 37.953 232.21 37.953C232.613 37.953 233.029 37.9205 233.458 37.8555C233.9 37.7905 234.355 37.6865 234.823 37.5435C235.304 37.4135 235.798 37.2445 236.305 37.0365L237.124 39.3765C236.63 39.6365 236.103 39.864 235.544 40.059C234.985 40.267 234.42 40.423 233.848 40.527C233.276 40.631 232.717 40.683 232.171 40.683ZM236.935 33.0975L237.13 30.3675C237.702 30.3675 238.151 30.3285 238.476 30.2505C238.814 30.1725 239.054 30.0295 239.197 29.8215C239.34 29.6005 239.412 29.2885 239.412 28.8855C239.412 28.5215 239.36 28.086 239.256 27.579C239.165 27.072 239.041 26.5455 238.885 25.9995C238.729 25.4535 238.573 24.953 238.417 24.498L241.108 23.757C241.264 24.199 241.42 24.7125 241.576 25.2975C241.732 25.8825 241.862 26.487 241.966 27.111C242.083 27.722 242.142 28.3135 242.142 28.8855C242.142 29.6005 242.051 30.205 241.869 30.699C241.687 31.18 241.433 31.583 241.108 31.908C240.796 32.22 240.419 32.467 239.977 32.649C239.548 32.818 239.074 32.935 238.554 33C238.034 33.065 237.494 33.0975 236.935 33.0975ZM239.334 37.5825C238.957 37.5825 238.632 37.4525 238.359 37.1925C238.099 36.9325 237.969 36.614 237.969 36.237C237.969 35.86 238.099 35.5285 238.359 35.2425C238.632 34.9695 238.957 34.833 239.334 34.833C239.711 34.833 240.029 34.9695 240.289 35.2425C240.562 35.5285 240.699 35.86 240.699 36.237C240.699 36.614 240.562 36.9325 240.289 37.1925C240.029 37.4525 239.711 37.5825 239.334 37.5825ZM249.306 33.0975C248.097 33.0975 247.161 32.974 246.498 32.727C245.848 32.48 245.393 32.0965 245.133 31.5765C244.873 31.0435 244.723 30.374 244.684 29.568L244.275 18.726H247.005L247.414 28.2615C247.44 28.8595 247.505 29.308 247.609 29.607C247.713 29.906 247.908 30.1075 248.194 30.2115C248.493 30.3155 248.929 30.3675 249.501 30.3675C249.995 30.3675 250.346 30.4975 250.554 30.7575C250.775 31.0045 250.885 31.3165 250.885 31.6935C250.885 32.0965 250.749 32.4345 250.476 32.7075C250.203 32.9675 249.813 33.0975 249.306 33.0975ZM249.332 33.0975L249.527 30.3675C249.956 30.3675 250.307 30.335 250.58 30.27C250.853 30.192 251.074 30.0295 251.243 29.7825C251.425 29.5225 251.581 29.139 251.711 28.632C251.854 28.112 252.01 27.41 252.179 26.526L254.714 26.994C254.662 27.28 254.591 27.6375 254.5 28.0665C254.422 28.4955 254.383 28.866 254.383 29.178C254.383 29.425 254.428 29.6395 254.519 29.8215C254.623 29.9905 254.792 30.127 255.026 30.231C255.273 30.322 255.611 30.3675 256.04 30.3675C256.378 30.3675 256.664 30.335 256.898 30.27C257.145 30.192 257.353 30.0295 257.522 29.7825C257.704 29.5225 257.86 29.126 257.99 28.593C258.133 28.047 258.27 27.3125 258.4 26.3895L260.974 26.799C260.922 27.098 260.87 27.4165 260.818 27.7545C260.766 28.0925 260.72 28.4045 260.681 28.6905C260.642 28.9765 260.623 29.2105 260.623 29.3925C260.623 29.5615 260.668 29.724 260.759 29.88C260.863 30.023 261.045 30.14 261.305 30.231C261.578 30.322 261.955 30.3675 262.436 30.3675C263.021 30.3675 263.45 30.244 263.723 29.997C264.009 29.737 264.152 29.347 264.152 28.827C264.152 28.528 264.146 28.2095 264.133 27.8715C264.12 27.5205 264.094 27.1305 264.055 26.7015C264.029 26.2595 263.977 25.759 263.899 25.2L266.414 25.005C266.505 26.123 266.609 27.033 266.726 27.735C266.843 28.437 266.999 28.983 267.194 29.373C267.402 29.75 267.675 30.01 268.013 30.153C268.364 30.296 268.819 30.3675 269.378 30.3675C269.872 30.3675 270.223 30.4975 270.431 30.7575C270.652 31.0045 270.763 31.3165 270.763 31.6935C270.763 32.0965 270.626 32.4345 270.353 32.7075C270.093 32.9675 269.703 33.0975 269.183 33.0975C268.832 33.0975 268.468 33.065 268.091 33C267.714 32.948 267.35 32.8375 266.999 32.6685C266.648 32.4865 266.336 32.2265 266.063 31.8885C265.79 31.5505 265.576 31.102 265.42 30.543L265.771 30.66C265.589 31.31 265.342 31.8105 265.03 32.1615C264.718 32.5125 264.334 32.7595 263.879 32.9025C263.424 33.0325 262.878 33.0975 262.241 33.0975C261.656 33.0975 261.136 33.0195 260.681 32.8635C260.226 32.7075 259.862 32.454 259.589 32.103C259.329 31.739 259.193 31.2515 259.18 30.6405H259.843C259.583 31.3685 259.284 31.908 258.946 32.259C258.608 32.61 258.198 32.8375 257.717 32.9415C257.236 33.0455 256.632 33.0975 255.904 33.0975C255.462 33.0975 255.026 33.052 254.597 32.961C254.168 32.857 253.785 32.6295 253.447 32.2785C253.109 31.9145 252.862 31.3425 252.706 30.5625L253.759 30.5235C253.486 31.2905 253.128 31.856 252.686 32.22C252.257 32.584 251.763 32.8245 251.204 32.9415C250.645 33.0455 250.021 33.0975 249.332 33.0975ZM269.194 33.0975L269.389 30.3675C269.987 30.3675 270.416 30.309 270.676 30.192C270.936 30.062 271.092 29.828 271.144 29.49C271.196 29.139 271.209 28.632 271.183 27.969L270.832 18.726H273.581L273.971 28.164C273.997 28.918 273.965 29.6005 273.874 30.2115C273.796 30.8095 273.594 31.323 273.269 31.752C272.957 32.181 272.47 32.5125 271.807 32.7465C271.157 32.9805 270.286 33.0975 269.194 33.0975ZM276.543 33L276.133 18.726H278.863L279.273 33H276.543ZM284.135 32.454C284.135 32.155 284.161 31.804 284.213 31.401C284.265 30.998 284.363 30.543 284.506 30.036C284.649 29.516 284.863 28.9375 285.149 28.3005L287.548 29.139C287.405 29.542 287.281 29.9125 287.177 30.2505C287.073 30.5755 286.995 30.881 286.943 31.167C286.891 31.44 286.865 31.713 286.865 31.986C286.865 32.376 286.95 32.74 287.119 33.078C287.288 33.416 287.541 33.7085 287.879 33.9555C288.217 34.2155 288.633 34.417 289.127 34.56C289.634 34.703 290.219 34.7745 290.882 34.7745C291.636 34.7745 292.299 34.703 292.871 34.56C293.456 34.43 293.944 34.2545 294.334 34.0335C294.737 33.8255 295.042 33.6045 295.25 33.3705C295.458 33.1365 295.562 32.922 295.562 32.727C295.562 32.571 295.452 32.4345 295.231 32.3175C295.023 32.2005 294.743 32.0835 294.392 31.9665C294.054 31.8365 293.69 31.6935 293.3 31.5375C292.923 31.3815 292.559 31.1865 292.208 30.9525C291.87 30.7185 291.591 30.4325 291.37 30.0945C291.162 29.7565 291.058 29.347 291.058 28.866C291.058 28.372 291.188 27.8325 291.448 27.2475C291.708 26.6495 292.078 26.084 292.559 25.551C293.04 25.005 293.612 24.563 294.275 24.225C294.951 23.874 295.692 23.6985 296.498 23.6985C297.07 23.6985 297.59 23.7895 298.058 23.9715C298.539 24.1535 298.942 24.3615 299.267 24.5955L298.253 26.877C297.98 26.695 297.688 26.5585 297.376 26.4675C297.064 26.3635 296.765 26.3115 296.479 26.3115C296.115 26.3115 295.764 26.383 295.426 26.526C295.101 26.669 294.808 26.8575 294.548 27.0915C294.301 27.3125 294.106 27.553 293.963 27.813C293.82 28.073 293.749 28.32 293.749 28.554C293.749 28.788 293.859 28.996 294.08 29.178C294.314 29.347 294.613 29.5095 294.977 29.6655C295.341 29.8085 295.725 29.958 296.128 30.114C296.531 30.27 296.914 30.4455 297.278 30.6405C297.642 30.8355 297.935 31.0695 298.156 31.3425C298.39 31.6155 298.507 31.947 298.507 32.337C298.507 32.896 298.331 33.4745 297.98 34.0725C297.642 34.6835 297.135 35.249 296.459 35.769C295.783 36.289 294.951 36.705 293.963 37.017C292.988 37.342 291.857 37.5045 290.57 37.5045C289.634 37.5045 288.776 37.394 287.996 37.173C287.216 36.965 286.534 36.6465 285.949 36.2175C285.377 35.8015 284.928 35.275 284.603 34.638C284.291 34.014 284.135 33.286 284.135 32.454ZM300.755 37.485L300.19 34.755C301.113 34.638 301.919 34.495 302.608 34.326C303.297 34.17 303.875 33.949 304.343 33.663C304.811 33.377 305.162 32.987 305.396 32.493C305.63 31.986 305.747 31.336 305.747 30.543C305.747 29.776 305.63 29.165 305.396 28.71C305.162 28.255 304.85 28.0275 304.46 28.0275C304.187 28.0275 303.96 28.125 303.778 28.32C303.596 28.502 303.459 28.723 303.368 28.983C303.29 29.23 303.251 29.451 303.251 29.646C303.251 29.763 303.284 29.8865 303.349 30.0165C303.414 30.1465 303.557 30.257 303.778 30.348C303.999 30.439 304.343 30.491 304.811 30.504C305.292 30.517 305.942 30.4715 306.761 30.3675H310.037C310.531 30.3675 310.882 30.4975 311.09 30.7575C311.311 31.0045 311.422 31.3165 311.422 31.6935C311.422 32.0965 311.285 32.4345 311.012 32.7075C310.739 32.9675 310.349 33.0975 309.842 33.0975H304.48C303.661 33.0975 302.959 33 302.374 32.805C301.789 32.61 301.34 32.298 301.028 31.869C300.716 31.427 300.56 30.842 300.56 30.114C300.56 29.529 300.658 28.944 300.853 28.359C301.061 27.774 301.347 27.241 301.711 26.76C302.075 26.266 302.497 25.876 302.978 25.59C303.472 25.291 304.005 25.1415 304.577 25.1415C305.357 25.1415 306.04 25.382 306.625 25.863C307.21 26.344 307.665 26.981 307.99 27.774C308.328 28.567 308.497 29.4315 308.497 30.3675C308.497 31.8365 308.185 33.0845 307.561 34.1115C306.937 35.1385 306.046 35.9315 304.889 36.4905C303.732 37.0625 302.354 37.394 300.755 37.485ZM309.87 33.0975L310.065 30.3675C310.533 30.3675 310.936 30.322 311.274 30.231C311.612 30.14 311.898 29.958 312.132 29.685C312.366 29.399 312.561 28.983 312.717 28.437C312.886 27.891 313.035 27.163 313.165 26.253L315.72 26.682C315.694 26.877 315.655 27.1045 315.603 27.3645C315.564 27.6245 315.525 27.891 315.486 28.164C315.46 28.424 315.447 28.671 315.447 28.905C315.447 29.139 315.492 29.347 315.583 29.529C315.674 29.711 315.817 29.867 316.012 29.997C316.22 30.114 316.487 30.205 316.812 30.27C317.15 30.335 317.559 30.3675 318.04 30.3675C318.534 30.3675 318.885 30.4975 319.093 30.7575C319.301 31.0045 319.405 31.3165 319.405 31.6935C319.405 32.0965 319.269 32.4345 318.996 32.7075C318.736 32.9675 318.352 33.0975 317.845 33.0975C317.26 33.0975 316.727 33.052 316.246 32.961C315.778 32.87 315.369 32.7205 315.018 32.5125C314.68 32.2915 314.4 32.0055 314.179 31.6545C313.971 31.2905 313.841 30.8485 313.789 30.3285H314.725C314.491 30.9525 314.192 31.453 313.828 31.83C313.477 32.194 313.081 32.467 312.639 32.649C312.197 32.831 311.735 32.948 311.254 33C310.786 33.065 310.325 33.0975 309.87 33.0975ZM316.129 24.498C315.752 24.498 315.427 24.368 315.154 24.108C314.894 23.835 314.764 23.5165 314.764 23.1525C314.764 22.7755 314.894 22.4505 315.154 22.1775C315.427 21.9045 315.752 21.768 316.129 21.768C316.493 21.768 316.805 21.9045 317.065 22.1775C317.325 22.4505 317.455 22.7755 317.455 23.1525C317.455 23.5165 317.325 23.835 317.065 24.108C316.805 24.368 316.493 24.498 316.129 24.498ZM312.756 24.4785C312.379 24.4785 312.054 24.3485 311.781 24.0885C311.521 23.8155 311.391 23.497 311.391 23.133C311.391 22.756 311.521 22.431 311.781 22.158C312.054 21.885 312.379 21.7485 312.756 21.7485C313.12 21.7485 313.432 21.885 313.692 22.158C313.952 22.431 314.082 22.756 314.082 23.133C314.082 23.497 313.952 23.8155 313.692 24.0885C313.432 24.3485 313.12 24.4785 312.756 24.4785ZM317.849 33.0975L318.044 30.3675C318.473 30.3675 318.824 30.335 319.097 30.27C319.37 30.192 319.591 30.0295 319.76 29.7825C319.942 29.5225 320.098 29.139 320.228 28.632C320.371 28.112 320.527 27.41 320.696 26.526L323.231 26.994C323.179 27.28 323.107 27.6375 323.016 28.0665C322.938 28.4955 322.899 28.866 322.899 29.178C322.899 29.425 322.945 29.6395 323.036 29.8215C323.14 29.9905 323.309 30.127 323.543 30.231C323.79 30.322 324.128 30.3675 324.557 30.3675C324.895 30.3675 325.181 30.335 325.415 30.27C325.662 30.192 325.87 30.0295 326.039 29.7825C326.221 29.5225 326.377 29.126 326.507 28.593C326.65 28.047 326.786 27.3125 326.916 26.3895L329.49 26.799C329.438 27.098 329.386 27.4165 329.334 27.7545C329.282 28.0925 329.237 28.4045 329.198 28.6905C329.159 28.9765 329.139 29.2105 329.139 29.3925C329.139 29.5615 329.185 29.724 329.276 29.88C329.38 30.023 329.562 30.14 329.822 30.231C330.095 30.322 330.472 30.3675 330.953 30.3675C331.538 30.3675 331.967 30.244 332.24 29.997C332.526 29.737 332.669 29.347 332.669 28.827C332.669 28.528 332.662 28.2095 332.649 27.8715C332.636 27.5205 332.61 27.1305 332.571 26.7015C332.545 26.2595 332.493 25.759 332.415 25.2L334.931 25.005C335.022 26.123 335.126 27.033 335.243 27.735C335.36 28.437 335.516 28.983 335.711 29.373C335.919 29.75 336.192 30.01 336.53 30.153C336.881 30.296 337.336 30.3675 337.895 30.3675C338.389 30.3675 338.74 30.4975 338.948 30.7575C339.169 31.0045 339.279 31.3165 339.279 31.6935C339.279 32.0965 339.143 32.4345 338.87 32.7075C338.61 32.9675 338.22 33.0975 337.7 33.0975C337.349 33.0975 336.985 33.065 336.608 33C336.231 32.948 335.867 32.8375 335.516 32.6685C335.165 32.4865 334.853 32.2265 334.58 31.8885C334.307 31.5505 334.092 31.102 333.936 30.543L334.287 30.66C334.105 31.31 333.858 31.8105 333.546 32.1615C333.234 32.5125 332.851 32.7595 332.396 32.9025C331.941 33.0325 331.395 33.0975 330.758 33.0975C330.173 33.0975 329.653 33.0195 329.198 32.8635C328.743 32.7075 328.379 32.454 328.106 32.103C327.846 31.739 327.709 31.2515 327.696 30.6405H328.359C328.099 31.3685 327.8 31.908 327.462 32.259C327.124 32.61 326.715 32.8375 326.234 32.9415C325.753 33.0455 325.148 33.0975 324.42 33.0975C323.978 33.0975 323.543 33.052 323.114 32.961C322.685 32.857 322.301 32.6295 321.963 32.2785C321.625 31.9145 321.378 31.3425 321.222 30.5625L322.275 30.5235C322.002 31.2905 321.645 31.856 321.203 32.22C320.774 32.584 320.28 32.8245 319.721 32.9415C319.162 33.0455 318.538 33.0975 317.849 33.0975ZM337.71 33.0975L337.905 30.3675C338.23 30.3675 338.477 30.3025 338.646 30.1725C338.815 30.0425 338.984 29.815 339.153 29.49C339.322 29.165 339.556 28.723 339.855 28.164C340.18 27.54 340.518 27.02 340.869 26.604C341.22 26.175 341.571 25.837 341.922 25.59C342.286 25.33 342.644 25.148 342.995 25.044C343.359 24.927 343.716 24.8685 344.067 24.8685C344.548 24.8685 344.997 24.9725 345.413 25.1805C345.842 25.3755 346.251 25.72 346.641 26.214C347.031 26.695 347.402 27.358 347.753 28.203C348 28.788 348.247 29.2365 348.494 29.5485C348.741 29.8605 348.994 30.075 349.254 30.192C349.527 30.309 349.8 30.3675 350.073 30.3675C350.567 30.3675 350.918 30.4975 351.126 30.7575C351.334 31.0045 351.438 31.3165 351.438 31.6935C351.438 32.0965 351.302 32.4345 351.029 32.7075C350.756 32.9675 350.372 33.0975 349.878 33.0975C349.241 33.0975 348.663 32.9935 348.143 32.7855C347.623 32.5775 347.213 32.2655 346.914 31.8495L347.48 31.4205C347.363 31.6935 347.187 31.9795 346.953 32.2785C346.732 32.5775 346.44 32.831 346.076 33.039C345.725 33.247 345.302 33.351 344.808 33.351C344.483 33.351 344.1 33.286 343.658 33.156C343.229 33.039 342.78 32.8375 342.312 32.5515C341.857 32.2525 341.435 31.8495 341.045 31.3425C340.798 31.7975 340.525 32.155 340.226 32.415C339.927 32.662 339.576 32.8375 339.173 32.9415C338.77 33.0455 338.282 33.0975 337.71 33.0975ZM342.176 29.0415C342.306 29.2365 342.462 29.4315 342.644 29.6265C342.826 29.8215 343.027 29.997 343.248 30.153C343.469 30.296 343.703 30.413 343.95 30.504C344.21 30.595 344.464 30.6405 344.711 30.6405C344.971 30.6405 345.185 30.543 345.354 30.348C345.523 30.14 345.53 29.8345 345.374 29.4315C345.309 29.2625 345.218 29.074 345.101 28.866C344.997 28.645 344.873 28.437 344.73 28.242C344.6 28.047 344.451 27.8845 344.282 27.7545C344.126 27.6245 343.963 27.5595 343.794 27.5595C343.625 27.5595 343.45 27.6115 343.268 27.7155C343.086 27.8195 342.904 27.982 342.722 28.203C342.54 28.411 342.358 28.6905 342.176 29.0415ZM349.879 33.0975L350.074 30.3675C350.672 30.3675 351.101 30.309 351.361 30.192C351.621 30.062 351.777 29.828 351.829 29.49C351.881 29.139 351.894 28.632 351.868 27.969L351.517 18.726H354.266L354.656 28.164C354.682 28.918 354.65 29.6005 354.559 30.2115C354.481 30.8095 354.279 31.323 353.954 31.752C353.642 32.181 353.155 32.5125 352.492 32.7465C351.842 32.9805 350.971 33.0975 349.879 33.0975ZM357.228 33L356.818 18.726H359.548L359.958 33H357.228Z" fill="#223F99"/>
<path d="M14.118 117.133C12.56 117.133 11.2807 116.766 10.28 116.031C9.27933 115.284 8.741 114.22 8.665 112.839H12.636C12.674 113.308 12.8133 113.65 13.054 113.865C13.2947 114.08 13.605 114.188 13.985 114.188C14.327 114.188 14.6057 114.106 14.821 113.941C15.049 113.764 15.163 113.523 15.163 113.219C15.163 112.826 14.9793 112.522 14.612 112.307C14.2447 112.092 13.6493 111.851 12.826 111.585C11.952 111.294 11.2427 111.015 10.698 110.749C10.166 110.47 9.69733 110.071 9.292 109.552C8.89933 109.02 8.703 108.33 8.703 107.481C8.703 106.62 8.91833 105.885 9.349 105.277C9.77967 104.656 10.375 104.188 11.135 103.871C11.895 103.554 12.7563 103.396 13.719 103.396C15.277 103.396 16.5183 103.763 17.443 104.498C18.3803 105.22 18.8807 106.24 18.944 107.557H14.897C14.8843 107.152 14.7577 106.848 14.517 106.645C14.289 106.442 13.9913 106.341 13.624 106.341C13.3453 106.341 13.1173 106.423 12.94 106.588C12.7627 106.753 12.674 106.987 12.674 107.291C12.674 107.544 12.769 107.766 12.959 107.956C13.1617 108.133 13.4087 108.292 13.7 108.431C13.9913 108.558 14.422 108.722 14.992 108.925C15.8407 109.216 16.5373 109.508 17.082 109.799C17.6393 110.078 18.1143 110.477 18.507 110.996C18.9123 111.503 19.115 112.149 19.115 112.934C19.115 113.732 18.9123 114.448 18.507 115.081C18.1143 115.714 17.538 116.215 16.778 116.582C16.0307 116.949 15.144 117.133 14.118 117.133ZM31.0302 111.547C31.0302 111.838 31.0112 112.13 30.9732 112.421H23.9242C23.9622 113.004 24.1206 113.441 24.3992 113.732C24.6906 114.011 25.0579 114.15 25.5012 114.15C26.1219 114.15 26.5652 113.871 26.8312 113.314H30.8022C30.6376 114.049 30.3146 114.707 29.8332 115.29C29.3646 115.86 28.7692 116.31 28.0472 116.639C27.3252 116.968 26.5272 117.133 25.6532 117.133C24.6019 117.133 23.6646 116.911 22.8412 116.468C22.0306 116.025 21.3909 115.391 20.9222 114.568C20.4662 113.745 20.2382 112.776 20.2382 111.661C20.2382 110.546 20.4662 109.584 20.9222 108.773C21.3782 107.95 22.0116 107.316 22.8222 106.873C23.6456 106.43 24.5892 106.208 25.6532 106.208C26.7046 106.208 27.6356 106.423 28.4462 106.854C29.2569 107.285 29.8902 107.905 30.3462 108.716C30.8022 109.514 31.0302 110.458 31.0302 111.547ZM27.2302 110.616C27.2302 110.16 27.0782 109.805 26.7742 109.552C26.4702 109.286 26.0902 109.153 25.6342 109.153C25.1782 109.153 24.8046 109.28 24.5132 109.533C24.2219 109.774 24.0319 110.135 23.9432 110.616H27.2302ZM37.6652 113.485L39.6602 106.341H43.6312L39.9642 117H35.3282L31.6612 106.341H35.6322L37.6652 113.485ZM55.0771 111.547C55.0771 111.838 55.0581 112.13 55.0201 112.421H47.9711C48.0091 113.004 48.1674 113.441 48.4461 113.732C48.7374 114.011 49.1048 114.15 49.5481 114.15C50.1688 114.15 50.6121 113.871 50.8781 113.314H54.8491C54.6844 114.049 54.3614 114.707 53.8801 115.29C53.4114 115.86 52.8161 116.31 52.0941 116.639C51.3721 116.968 50.5741 117.133 49.7001 117.133C48.6488 117.133 47.7114 116.911 46.8881 116.468C46.0774 116.025 45.4378 115.391 44.9691 114.568C44.5131 113.745 44.2851 112.776 44.2851 111.661C44.2851 110.546 44.5131 109.584 44.9691 108.773C45.4251 107.95 46.0584 107.316 46.8691 106.873C47.6924 106.43 48.6361 106.208 49.7001 106.208C50.7514 106.208 51.6824 106.423 52.4931 106.854C53.3038 107.285 53.9371 107.905 54.3931 108.716C54.8491 109.514 55.0771 110.458 55.0771 111.547ZM51.2771 110.616C51.2771 110.16 51.1251 109.805 50.8211 109.552C50.5171 109.286 50.1371 109.153 49.6811 109.153C49.2251 109.153 48.8514 109.28 48.5601 109.533C48.2688 109.774 48.0788 110.135 47.9901 110.616H51.2771ZM63.5741 106.246C64.8028 106.246 65.7781 106.658 66.5001 107.481C67.2221 108.292 67.5831 109.394 67.5831 110.787V117H63.8591V111.281C63.8591 110.673 63.7008 110.198 63.3841 109.856C63.0674 109.501 62.6431 109.324 62.1111 109.324C61.5538 109.324 61.1168 109.501 60.8001 109.856C60.4834 110.198 60.3251 110.673 60.3251 111.281V117H56.6011V106.341H60.3251V107.861C60.6544 107.38 61.0978 106.993 61.6551 106.702C62.2124 106.398 62.8521 106.246 63.5741 106.246ZM75.9155 113.827V117H74.3005C71.5772 117 70.2155 115.651 70.2155 112.953V109.438H68.9045V106.341H70.2155V103.757H73.9585V106.341H75.8965V109.438H73.9585V113.01C73.9585 113.301 74.0218 113.51 74.1485 113.637C74.2878 113.764 74.5158 113.827 74.8325 113.827H75.9155ZM84.6346 106.246C85.8506 106.246 86.8132 106.658 87.5226 107.481C88.2446 108.292 88.6056 109.394 88.6056 110.787V117H84.8816V111.281C84.8816 110.673 84.7232 110.198 84.4066 109.856C84.0899 109.501 83.6656 109.324 83.1336 109.324C82.5762 109.324 82.1392 109.501 81.8226 109.856C81.5059 110.198 81.3476 110.673 81.3476 111.281V117H77.6236V102.94H81.3476V107.861C81.6769 107.38 82.1202 106.993 82.6776 106.702C83.2476 106.398 83.8999 106.246 84.6346 106.246ZM98.0097 114.15H102.171V117H94.2857V103.605H98.0097V114.15ZM113.803 111.547C113.803 111.838 113.784 112.13 113.746 112.421H106.697C106.735 113.004 106.893 113.441 107.172 113.732C107.463 114.011 107.83 114.15 108.274 114.15C108.894 114.15 109.338 113.871 109.604 113.314H113.575C113.41 114.049 113.087 114.707 112.606 115.29C112.137 115.86 111.542 116.31 110.82 116.639C110.098 116.968 109.3 117.133 108.426 117.133C107.374 117.133 106.437 116.911 105.614 116.468C104.803 116.025 104.163 115.391 103.695 114.568C103.239 113.745 103.011 112.776 103.011 111.661C103.011 110.546 103.239 109.584 103.695 108.773C104.151 107.95 104.784 107.316 105.595 106.873C106.418 106.43 107.362 106.208 108.426 106.208C109.477 106.208 110.408 106.423 111.219 106.854C112.029 107.285 112.663 107.905 113.119 108.716C113.575 109.514 113.803 110.458 113.803 111.547ZM110.003 110.616C110.003 110.16 109.851 109.805 109.547 109.552C109.243 109.286 108.863 109.153 108.407 109.153C107.951 109.153 107.577 109.28 107.286 109.533C106.994 109.774 106.804 110.135 106.716 110.616H110.003ZM120.438 113.485L122.433 106.341H126.404L122.737 117H118.101L114.434 106.341H118.405L120.438 113.485ZM137.85 111.547C137.85 111.838 137.831 112.13 137.793 112.421H130.744C130.782 113.004 130.94 113.441 131.219 113.732C131.51 114.011 131.877 114.15 132.321 114.15C132.941 114.15 133.385 113.871 133.651 113.314H137.622C137.457 114.049 137.134 114.707 136.653 115.29C136.184 115.86 135.589 116.31 134.867 116.639C134.145 116.968 133.347 117.133 132.473 117.133C131.421 117.133 130.484 116.911 129.661 116.468C128.85 116.025 128.21 115.391 127.742 114.568C127.286 113.745 127.058 112.776 127.058 111.661C127.058 110.546 127.286 109.584 127.742 108.773C128.198 107.95 128.831 107.316 129.642 106.873C130.465 106.43 131.409 106.208 132.473 106.208C133.524 106.208 134.455 106.423 135.266 106.854C136.076 107.285 136.71 107.905 137.166 108.716C137.622 109.514 137.85 110.458 137.85 111.547ZM134.05 110.616C134.05 110.16 133.898 109.805 133.594 109.552C133.29 109.286 132.91 109.153 132.454 109.153C131.998 109.153 131.624 109.28 131.333 109.533C131.041 109.774 130.851 110.135 130.763 110.616H134.05ZM143.098 102.94V117H139.374V102.94H143.098Z" fill="#223F99"/>
</g>
</g>
<defs>
<filter id="filter0_d_8_521" x="145" y="45" width="84" height="84" filterUnits="userSpaceOnUse" color-interpolation-filters="sRGB">
<feFlood flood-opacity="0" result="BackgroundImageFix"/>
<feColorMatrix in="SourceAlpha" type="matrix" values="0 0 0 0 0 0 0 0 0 0 0 0 0 0 0 0 0 0 127 0" result="hardAlpha"/>
<feOffset dy="4"/>
<feGaussianBlur stdDeviation="2"/>
<feComposite in2="hardAlpha" operator="out"/>
<feColorMatrix type="matrix" values="0 0 0 0 0 0 0 0 0 0 0 0 0 0 0 0 0 0 0.25 0"/>
<feBlend mode="normal" in2="BackgroundImageFix" result="effect1_dropShadow_8_521"/>
<feBlend mode="normal" in="SourceGraphic" in2="effect1_dropShadow_8_521" result="shape"/>
</filter>
<linearGradient id="paint0_linear_8_521" x1="39" y1="-127.5" x2="320" y2="185" gradientUnits="userSpaceOnUse">
<stop stop-color="#E6E6E6"/>
<stop offset="1" stop-color="#D9D9D9" stop-opacity="0"/>
</linearGradient>
<clipPath id="clip0_8_521">
<rect width="374" height="138.5" fill="white"/>
</clipPath>
<clipPath id="clip1_8_521">
<rect width="373.799" height="138.5" fill="white"/>
</clipPath>
</defs>
</svg>
