<svg xmlns="http://www.w3.org/2000/svg" xmlns:xlink="http://www.w3.org/1999/xlink" width="372.8" height="137" viewBox="0 0 372.8 137">
  <defs>
    <filter id="bg" x="136.3" y="-73" width="389" height="346" filterUnits="userSpaceOnUse">
      <feOffset dx="32" dy="49" input="SourceAlpha"/>
      <feGaussianBlur stdDeviation="40" result="blur"/>
      <feFlood flood-color="#223f99" flood-opacity="0.2"/>
      <feComposite operator="in" in2="blur"/>
      <feComposite in="SourceGraphic"/>
    </filter>
    <clipPath id="clip-path">
      <path id="Background" d="M14,0H358.8a14,14,0,0,1,14,14V137a0,0,0,0,1,0,0H0a0,0,0,0,1,0,0V14A14,14,0,0,1,14,0Z" fill="#e9faf0"/>
    </clipPath>
    <clipPath id="clip-path-2">
      <g transform="matrix(1, 0, 0, 1, 0, 0)" filter="url(#bg)">
        <path id="bg-2" data-name="bg" d="M0,0H134a14,14,0,0,1,14,14v91a0,0,0,0,1,0,0H0a0,0,0,0,1,0,0V0A0,0,0,0,1,0,0Z" transform="translate(316.07)" fill="#223f99" stroke="#223f99" stroke-miterlimit="10" stroke-width="1"/>
      </g>
    </clipPath>
    <linearGradient id="linear-gradient" x1="0.35" y1="0.558" x2="1.122" y2="0.391" gradientUnits="objectBoundingBox">
      <stop offset="0" stop-color="#42803b" stop-opacity="0"/>
      <stop offset="0.211" stop-color="#77a372" stop-opacity="0.282"/>
      <stop offset="0.422" stop-color="#a7c3a3" stop-opacity="0.533"/>
      <stop offset="0.614" stop-color="#ccddcb" stop-opacity="0.733"/>
      <stop offset="0.78" stop-color="#e8efe7" stop-opacity="0.878"/>
      <stop offset="0.915" stop-color="#f8faf8" stop-opacity="0.969"/>
      <stop offset="1" stop-color="#fff"/>
    </linearGradient>
    <linearGradient id="linear-gradient-2" x1="0.44" y1="0.4" x2="0.145" y2="1.194" gradientUnits="objectBoundingBox">
      <stop offset="0" stop-color="#6e2983" stop-opacity="0"/>
      <stop offset="0.096" stop-color="#76368a" stop-opacity="0.063"/>
      <stop offset="0.282" stop-color="#8e589e" stop-opacity="0.224"/>
      <stop offset="0.541" stop-color="#b38fbe" stop-opacity="0.482"/>
      <stop offset="0.858" stop-color="#e6dbea" stop-opacity="0.835"/>
      <stop offset="1" stop-color="#fff"/>
    </linearGradient>
  </defs>
  <g id="Group_68453" data-name="Group 68453" transform="translate(-936.94 -141.5)">
    <g id="vector" transform="translate(936.94 141.5)" clip-path="url(#clip-path)">
      <path id="Background-2" data-name="Background" d="M14,0H358.8a14,14,0,0,1,14,14V137a0,0,0,0,1,0,0H0a0,0,0,0,1,0,0V14A14,14,0,0,1,14,0Z" fill="#e9faf0"/>
      <g id="bg-3" data-name="bg" transform="translate(-91.269 -1.5)" clip-path="url(#clip-path-2)" style="mix-blend-mode: exclusion;isolation: isolate">
        <g id="Group_63860" data-name="Group 63860" transform="translate(464.069 99.164) rotate(180)" opacity="0.2">
          <path id="Path_99111" data-name="Path 99111" d="M0,0C.284.016.567.036.852.057L0,.909V0ZM2.141.176,0,2.318V3.726L3.4.329Q2.772.245,2.141.176ZM4.62.514,0,5.134V6.542L5.816.727Q5.221.612,4.62.514ZM6.983.967q.575.127,1.142.266L0,9.359V7.951L6.983.967Zm2.258.559q.548.151,1.092.316L0,12.175V10.767L9.24,1.526Zm2.161.656q.526.174,1.046.362L0,14.991V13.582l11.4-11.4Zm2.07.745q.505.2,1,.4L0,17.808V16.4L13.472,2.927Zm1.987.829q.486.217.964.445L0,20.624V19.216L15.459,3.756Zm1.909.908q.466.235.925.482L0,23.44V22.032L17.368,4.664Zm1.834.983q.448.253.89.518L0,26.257V24.848l19.2-19.2ZM20.964,6.7,0,27.664v1.408L21.819,7.254q-.424-.282-.855-.554Zm1.693,1.123L0,30.482v1.408L23.48,8.41q-.408-.3-.822-.587Zm1.627,1.189L0,33.3v1.409L25.074,9.632q-.392-.315-.79-.62Zm1.563,1.255L0,36.115v1.407l26.6-26.6q-.374-.331-.756-.651Zm1.5,1.318L0,38.93v1.409l28.07-28.07q-.359-.345-.726-.683Zm1.435,1.381L0,41.747v1.408L29.472,13.682q-.343-.361-.693-.715Zm1.371,1.445L0,44.563v1.407L30.812,15.158q-.328-.376-.662-.746Zm1.309,1.508L0,47.379v1.409L32.088,16.7q-.31-.392-.63-.778ZM32.7,17.493,0,50.2V51.6L33.3,18.3q-.294-.409-.6-.81Zm1.179,1.637L0,53.012V54.42L34.447,19.973q-.277-.425-.565-.843ZM35,20.832l-35,35v1.408L35.526,21.71q-.261-.441-.531-.877ZM36.04,22.6,0,58.645v1.408L36.535,23.517q-.243-.46-.5-.912Zm.973,1.844L0,61.461V62.87L37.472,25.4q-.224-.477-.46-.949Zm.9,1.917q.217.491.421.988L0,65.686V64.277L37.911,26.366Zm.82,2q.2.512.38,1.029L0,68.5V67.094L38.732,28.362Zm.737,2.08q.175.534.335,1.073L0,71.318V69.91L39.468,30.442Zm.647,2.169c.1.373.2.745.287,1.121L0,74.135V72.727L40.115,32.611Zm.548,2.268c.084.39.16.782.233,1.176L0,76.951V75.543L40.663,34.879Zm.438,2.379c.064.41.122.821.175,1.234L0,79.767V78.359l41.1-41.1Zm.319,2.5c.042.432.08.864.11,1.3L0,82.583V81.176L41.419,39.756Zm.179,2.637c.017.459.026.918.029,1.379L0,85.4V83.992l41.6-41.6Zm.018,2.8c0,.078,0,.156,0,.234h0v0q-.018.613-.053,1.23L.111,88.105,0,88.1V86.808L41.616,45.192Zm-.172,2.989q-.061.639-.138,1.271c0,.091,0,.183,0,.276L2.714,88.319l-1.3-.107L41.444,48.181Zm-.1,2.921c.021.425.051.865.095,1.314L5.316,88.533l-1.3-.107L41.339,51.1Zm.247,2.57c.057.4.126.8.206,1.2L7.919,88.746l-1.3-.107L41.586,53.672Zm.468,2.347q.141.547.315,1.093L10.522,88.96l-1.3-.107L42.055,56.019Zm.684,2.132q.194.5.423.986L13.125,89.173l-1.3-.107L42.739,58.151Zm.9,1.918c.166.3.342.591.53.878L15.727,89.387l-1.3-.107L43.637,60.069Zm1.116,1.7q.3.393.642.767L18.33,89.6l-1.3-.106L44.753,61.769Zm1.338,1.478-26.46,26.46,1.3.107L46.848,63.9q-.4-.315-.757-.652Zm1.567,1.25L22.234,89.92l1.3.108,24.99-24.99c-.29-.167-.58-.346-.867-.541Zm1.792,1.025L24.838,90.135l1.3.107,24.3-24.3c-.331-.122-.662-.26-.992-.416Zm2.057.76L27.44,90.348l1.3.107L52.654,66.542q-.571-.1-1.148-.26Zm2.39.425L30.042,90.562l1.3.107L55.251,66.762c-.443,0-.9-.015-1.354-.055Zm2.842-.025L32.645,90.776l1.3.107L58.4,66.432c-.527.105-1.081.192-1.658.25Zm3.546-.73L35.248,90.989l1.3.107,26-26.005a19.1,19.1,0,0,1-2.268.861ZM65.55,63.5l-27.7,27.7,1.3.107L68.129,62.333q-1.315.535-2.579,1.171Zm4.807-1.991-29.9,29.9,1.3.107L72.361,60.917q-1.012.269-2,.6Zm3.849-1.032L43.057,91.629l1.3.107,31.57-31.569q-.868.135-1.722.313Zm3.346-.529q.767-.084,1.542-.134L46.961,91.95l-1.3-.107L77.551,59.952Zm3.014-.2q.7-.016,1.412,0L49.564,92.164l-1.3-.107,32.3-32.3Zm2.773.044q.488.026.976.067c.112.009.222.021.334.032L52.166,92.378l-1.3-.107L83.338,59.8Zm2.58.236q.619.079,1.231.179L54.769,92.591l-1.3-.107,32.45-32.451Zm2.423.394c.388.078.775.159,1.159.25L57.372,92.8l-1.3-.107L88.341,60.427Zm2.285.532q.55.148,1.094.313L59.975,93.018l-1.3-.107L90.626,60.959Zm2.161.656q.523.176,1.04.368L62.577,93.232l-1.3-.107,31.511-31.51Zm2.05.766q.5.2.986.422L65.181,93.445l-1.3-.107L94.837,62.381Zm1.949.868q.474.228.939.468L67.783,93.659l-1.3-.107,30.3-30.3Zm1.854.962q.449.252.892.517L70.385,93.873l-1.3-.107L98.639,64.211Zm1.762,1.054c.286.183.57.368.85.558L72.988,94.086l-1.3-.107L100.4,65.264Zm1.68,1.137c.272.2.54.4.807.6l-27.3,27.3-1.3-.106L102.081,66.4Zm1.594,1.223L76.892,94.407l1.3.107,26.248-26.248q-.378-.327-.767-.642Zm1.515,1.3L79.5,94.62l1.3.107L105.918,69.6c-.239-.23-.482-.456-.728-.679Zm1.436,1.38L82.1,94.834l1.3.107,23.914-23.914q-.339-.365-.688-.721Zm1.355,1.461L84.7,95.047l1.3.107,22.629-22.628q-.319-.384-.65-.759Zm1.278,1.538L87.3,95.261l1.3.107L109.869,74.1q-.3-.4-.61-.8Zm1.2,1.62-20.55,20.55,1.3.107,19.816-19.815q-.278-.425-.566-.842Zm1.113,1.7-19.06,19.06,1.3.107L112.1,77.51q-.257-.445-.526-.883Zm1.029,1.787L95.111,95.9l1.3.107,16.664-16.664c-.156-.312-.314-.623-.479-.929Zm.936,1.881L97.715,96.115l1.3.106,14.952-14.951c-.14-.328-.285-.652-.434-.975Zm.842,1.974-14.06,14.06,1.3.107L114.757,83.3q-.183-.517-.381-1.027Zm.736,2.081c.114.358.225.718.327,1.08L104.221,96.649l-1.3-.107L115.113,84.35Zm.623,2.193q.142.568.265,1.143l-9.177,9.176-1.3-.107,10.212-10.213Zm.5,2.318c.072.4.135.809.193,1.216l-7,7-1.3-.107,8.108-8.108Zm.35,2.467q.068.645.112,1.3L112.03,97.29l-1.3-.107,5.855-5.855Zm.18,2.635c.015.463.017.928.015,1.394L114.632,97.5l-1.3-.107,3.433-3.433Zm-.025,2.842-.8.8.752.062Q116.719,97.238,116.739,96.806Z" transform="translate(0)" fill="#92adff" fill-rule="evenodd"/>
          <path id="Path_99112" data-name="Path 99112" d="M0,.067Q1.173,0,2.366,0A42.31,42.31,0,0,1,44.617,40.091h0v0q.057,1.1.057,2.215c0,.551-.014,1.1-.035,1.648.3,4.029,1.6,10.2,6.507,13.409,7.669,5.027,15.878-.693,15.878-.693v0a33.847,33.847,0,0,1,53.3,27.383H0Z" transform="translate(0 15.107)" fill="#1f3887" fill-rule="evenodd"/>
          <path id="Path_99113" data-name="Path 99113" d="M0,.026A50.551,50.551,0,0,1,21.24,3.969,50.5,50.5,0,0,1,47.5,29.229c.619,1.33,1.189,2.719,1.76,4.108,1.995,4.853,3.994,9.719,8.371,12.578H56.095c-3.862-3.026-5.76-7.64-7.651-12.243-.562-1.37-1.126-2.739-1.746-4.074A49.608,49.608,0,0,0,20.9,4.778,49.669,49.669,0,0,0,0,.906V.026ZM73.821,45.914a20.566,20.566,0,0,0,5.44-4.882l.024-.03a40.582,40.582,0,0,1,68.99,4.912h-.993a39.681,39.681,0,0,0-67.307-4.365h0c-.008.012-.017.023-.026.034a21.509,21.509,0,0,1-4.542,4.331Z" transform="translate(0 53.25)" fill="#92adff" fill-rule="evenodd"/>
        </g>
      </g>
    </g>
    <g id="letter" transform="translate(855.354 -8.244)">
      <g id="Group_63829" data-name="Group 63829" transform="translate(232.627 184.194)">
        <g id="Group_63828" data-name="Group 63828">
          <g id="Group_63825" data-name="Group 63825">
            <g id="Group_63822" data-name="Group 63822">
              <path id="Path_99078" data-name="Path 99078" d="M307.669,222.039c0,23.031-16.542,37.952-42.171,37.952H243.35a10.722,10.722,0,0,1-10.723-10.722V194.916a10.723,10.723,0,0,1,10.723-10.722h23.121C291.451,184.194,307.669,199.008,307.669,222.039Zm-25.627.215c0-11.244-6.378-18.6-16.11-18.6h-8.219V240.53h9.407C276.206,240.53,282.042,233.392,282.042,222.255Z" transform="translate(-232.627 -184.194)" fill="#2ecc71"/>
            </g>
          </g>
          <g id="Group_63827" data-name="Group 63827" transform="translate(0.662 10.722)" style="mix-blend-mode: overlay;isolation: isolate">
            <g id="Group_63826" data-name="Group 63826">
              <path id="Path_99080" data-name="Path 99080" d="M305.976,217.639a38.278,38.278,0,0,1-4.135,18.555A33.787,33.787,0,0,1,288.2,249.6a45.991,45.991,0,0,1-18.537,5.178l-4.827.183-4.774.019-9.548.037L245.736,255l-2.388-.008a10.974,10.974,0,0,1-2.551-.278A10.153,10.153,0,0,1,233.509,248a14.715,14.715,0,0,1-.483-4.964l.019-4.774.081-9.548.237-19.1.416-19.1.415,19.1.236,19.1.081,9.548.019,4.774a13.321,13.321,0,0,0,.446,4.484,8.568,8.568,0,0,0,6.189,5.617,9.158,9.158,0,0,0,2.184.215l2.388-.008,4.774-.017,9.548.037,4.774.019,4.715-.139a46.8,46.8,0,0,0,18.04-4.789,32.818,32.818,0,0,0,13.534-12.662A39.088,39.088,0,0,0,305.976,217.639Z" transform="translate(-233.017 -190.516)" fill="#21d96c"/>
            </g>
          </g>
        </g>
      </g>
      <path id="Path_99081" data-name="Path 99081" d="M262.3,190.275A20.235,20.235,0,0,1,277.56,207.4" transform="translate(20.654 4.232)" fill="none" stroke="#fff" stroke-miterlimit="10" stroke-width="1"/>
      <path id="Path_99082" data-name="Path 99082" d="M237.394,194.1v19.2" transform="translate(3.318 6.893)" fill="none" stroke="#fff" stroke-miterlimit="10" stroke-width="1"/>
      <path id="Path_99083" data-name="Path 99083" d="M235.062,203.958a34.623,34.623,0,0,1,.775-9.677c.858-3.132,2.749-6.131,5.661-7.571a15.545,15.545,0,0,1,5.858-1.265,102.952,102.952,0,0,1,19.994.824c9.082,1.143,18.364,3.127,25.848,8.393s12.791,14.505,11.064,23.492a10.409,10.409,0,0,1-2.023,4.733,11.631,11.631,0,0,1-5.463,3.278c-2.485.819-5.247,1.292-7.683.336a9.954,9.954,0,0,1-5.056-5.266,51.131,51.131,0,0,1-2.3-7.111c-1.464-4.9-3.975-9.82-8.385-12.409-3.188-1.874-7-2.315-10.686-2.59-2.022-.149-4.284-.185-5.793,1.17a6.554,6.554,0,0,0-1.764,3.779c-.845,4.533-.171,9.416-2.1,13.6a12.228,12.228,0,0,1-15.364,5.885,5.268,5.268,0,0,1-2.256-1.635,6.776,6.776,0,0,1-.877-3.84q-.2-7.609-.4-15.219" transform="translate(1.038 0.742)" fill="rgba(46,204,113,0.44)" style="mix-blend-mode: overlay;isolation: isolate"/>
      <path id="Path_99084" data-name="Path 99084" d="M257.653,223.364a19.065,19.065,0,0,0,11.763-1.328c3.424-1.647,6.175-4.442,9.531-6.222s7.947-2.293,10.612.417a7.227,7.227,0,0,1,1.632,6.585,12.323,12.323,0,0,1-3.612,5.97c-4.482,4.367-10.839,6.287-17.058,6.984s-12.518.322-18.754.863c-3.1.27-6.226.765-9.306.312s-6.2-2.056-7.513-4.876c-1.565-3.35-.037-7.6,2.9-9.848s6.916-2.758,10.569-2.179a41.121,41.121,0,0,1,10.435,3.662" transform="translate(1.18 20.978)" fill="url(#linear-gradient)" style="mix-blend-mode: overlay;isolation: isolate"/>
      <path id="Path_99085" data-name="Path 99085" d="M236.292,213.368,236.124,233c-.019,2.195.1,4.708,1.813,6.087a7.294,7.294,0,0,0,4.109,1.182q8.853.692,17.736.882c3.455.073,7.13.031,10.045-1.821s4.5-6.205,2.3-8.866c-1.7-2.057-4.732-2.245-7.4-2.273l-5.836-.059a5.158,5.158,0,0,1-2.4-.412c-1.46-.778-1.811-2.678-2-4.323l-.885-7.827a13.275,13.275,0,0,0-1.04-4.465,8.935,8.935,0,0,0-5.892-4.321,26.505,26.505,0,0,0-7.493-.47c-1.163.039-2.525.185-3.126,1.182a3.526,3.526,0,0,0-.327,1.915l.1,5.754" transform="translate(2.157 15.354)" fill="url(#linear-gradient-2)" style="mix-blend-mode: overlay;isolation: isolate"/>
    </g>
  </g>
</svg>
