<svg xmlns="http://www.w3.org/2000/svg" xmlns:xlink="http://www.w3.org/1999/xlink" width="372.8" height="137" viewBox="0 0 372.8 137">
  <defs>
    <filter id="bg" x="136.3" y="-71" width="389" height="346" filterUnits="userSpaceOnUse">
      <feOffset dx="32" dy="49" input="SourceAlpha"/>
      <feGaussianBlur stdDeviation="40" result="blur"/>
      <feFlood flood-color="#223f99" flood-opacity="0.2"/>
      <feComposite operator="in" in2="blur"/>
      <feComposite in="SourceGraphic"/>
    </filter>
    <clipPath id="clip-path">
      <path id="Background" d="M14,0H358.8a14,14,0,0,1,14,14V137a0,0,0,0,1,0,0H0a0,0,0,0,1,0,0V14A14,14,0,0,1,14,0Z" fill="#fcf5eb"/>
    </clipPath>
    <clipPath id="clip-path-2">
      <g transform="matrix(1, 0, 0, 1, 0, 0)" filter="url(#bg)">
        <path id="bg-2" data-name="bg" d="M0,0H134a14,14,0,0,1,14,14v91a0,0,0,0,1,0,0H0a0,0,0,0,1,0,0V0A0,0,0,0,1,0,0Z" transform="translate(316.07)" fill="#223f99" stroke="#223f99" stroke-miterlimit="10" stroke-width="1"/>
      </g>
    </clipPath>
    <linearGradient id="linear-gradient" x1="0.587" y1="0.893" x2="0.393" y2="0.401" gradientUnits="objectBoundingBox">
      <stop offset="0" stop-color="#fff"/>
      <stop offset="0.085" stop-color="#faf8fb" stop-opacity="0.969"/>
      <stop offset="0.22" stop-color="#ede5f0" stop-opacity="0.878"/>
      <stop offset="0.386" stop-color="#d8c6de" stop-opacity="0.733"/>
      <stop offset="0.578" stop-color="#bb9bc5" stop-opacity="0.533"/>
      <stop offset="0.789" stop-color="#9665a5" stop-opacity="0.282"/>
      <stop offset="1" stop-color="#6e2983" stop-opacity="0"/>
    </linearGradient>
    <linearGradient id="linear-gradient-2" x1="0.34" y1="0.934" x2="0.577" y2="0.459" xlink:href="#linear-gradient"/>
  </defs>
  <g id="Group_68456" data-name="Group 68456" transform="translate(-936.94 -141.5)">
    <g id="vector" transform="translate(936.94 141.5)" clip-path="url(#clip-path)">
      <path id="Background-2" data-name="Background" d="M14,0H358.8a14,14,0,0,1,14,14V137a0,0,0,0,1,0,0H0a0,0,0,0,1,0,0V14A14,14,0,0,1,14,0Z" fill="#fcf5eb"/>
      <g id="bg-3" data-name="bg" transform="translate(-91.269 0.5)" clip-path="url(#clip-path-2)" style="mix-blend-mode: exclusion;isolation: isolate">
        <g id="Group_63859" data-name="Group 63859" transform="translate(464.069 99.164) rotate(180)" opacity="0.2">
          <path id="Path_99108" data-name="Path 99108" d="M0,0C.284.016.567.036.852.057L0,.909V0ZM2.141.176,0,2.318V3.726L3.4.329Q2.772.245,2.141.176ZM4.62.514,0,5.134V6.542L5.816.727Q5.221.612,4.62.514ZM6.983.967q.575.127,1.142.266L0,9.359V7.951L6.983.967Zm2.258.559q.548.151,1.092.316L0,12.175V10.767L9.24,1.526Zm2.161.656q.526.174,1.046.362L0,14.991V13.582l11.4-11.4Zm2.07.745q.505.2,1,.4L0,17.808V16.4L13.472,2.927Zm1.987.829q.486.217.964.445L0,20.624V19.216L15.459,3.756Zm1.909.908q.466.235.925.482L0,23.44V22.032L17.368,4.664Zm1.834.983q.448.253.89.518L0,26.257V24.848l19.2-19.2ZM20.964,6.7,0,27.664v1.408L21.819,7.254q-.424-.282-.855-.554Zm1.693,1.123L0,30.482v1.408L23.48,8.41q-.408-.3-.822-.587Zm1.627,1.189L0,33.3v1.409L25.074,9.632q-.392-.315-.79-.62Zm1.563,1.255L0,36.115v1.407l26.6-26.6q-.374-.331-.756-.651Zm1.5,1.318L0,38.93v1.409l28.07-28.07q-.359-.345-.726-.683Zm1.435,1.381L0,41.747v1.408L29.472,13.682q-.343-.361-.693-.715Zm1.371,1.445L0,44.563v1.407L30.812,15.158q-.328-.376-.662-.746Zm1.309,1.508L0,47.379v1.409L32.088,16.7q-.31-.392-.63-.778ZM32.7,17.493,0,50.2V51.6L33.3,18.3q-.294-.409-.6-.81Zm1.179,1.637L0,53.012V54.42L34.447,19.973q-.277-.425-.565-.843ZM35,20.832l-35,35v1.408L35.526,21.71q-.261-.441-.531-.877ZM36.04,22.6,0,58.645v1.408L36.535,23.517q-.243-.46-.5-.912Zm.973,1.844L0,61.461V62.87L37.472,25.4q-.224-.477-.46-.949Zm.9,1.917q.217.491.421.988L0,65.686V64.277L37.911,26.366Zm.82,2q.2.512.38,1.029L0,68.5V67.094L38.732,28.362Zm.737,2.08q.175.534.335,1.073L0,71.318V69.91L39.468,30.442Zm.647,2.169c.1.373.2.745.287,1.121L0,74.135V72.727L40.115,32.611Zm.548,2.268c.084.39.16.782.233,1.176L0,76.951V75.543L40.663,34.879Zm.438,2.379c.064.41.122.821.175,1.234L0,79.767V78.359l41.1-41.1Zm.319,2.5c.042.432.08.864.11,1.3L0,82.583V81.176L41.419,39.756Zm.179,2.637c.017.459.026.918.029,1.379L0,85.4V83.992l41.6-41.6Zm.018,2.8c0,.078,0,.156,0,.234h0v0q-.018.613-.053,1.23L.111,88.105,0,88.1V86.808L41.616,45.192Zm-.172,2.989q-.061.639-.138,1.271c0,.091,0,.183,0,.276L2.714,88.319l-1.3-.107L41.444,48.181Zm-.1,2.921c.021.425.051.865.095,1.314L5.316,88.533l-1.3-.107L41.339,51.1Zm.247,2.57c.057.4.126.8.206,1.2L7.919,88.746l-1.3-.107L41.586,53.672Zm.468,2.347q.141.547.315,1.093L10.522,88.96l-1.3-.107L42.055,56.019Zm.684,2.132q.194.5.423.986L13.125,89.173l-1.3-.107L42.739,58.151Zm.9,1.918c.166.3.342.591.53.878L15.727,89.387l-1.3-.107L43.637,60.069Zm1.116,1.7q.3.393.642.767L18.33,89.6l-1.3-.106L44.753,61.769Zm1.338,1.478-26.46,26.46,1.3.107L46.848,63.9q-.4-.315-.757-.652Zm1.567,1.25L22.234,89.92l1.3.108,24.99-24.99c-.29-.167-.58-.346-.867-.541Zm1.792,1.025L24.838,90.135l1.3.107,24.3-24.3c-.331-.122-.662-.26-.992-.416Zm2.057.76L27.44,90.348l1.3.107L52.654,66.542q-.571-.1-1.148-.26Zm2.39.425L30.042,90.562l1.3.107L55.251,66.762c-.443,0-.9-.015-1.354-.055Zm2.842-.025L32.645,90.776l1.3.107L58.4,66.432c-.527.105-1.081.192-1.658.25Zm3.546-.73L35.248,90.989l1.3.107,26-26.005a19.1,19.1,0,0,1-2.268.861ZM65.55,63.5l-27.7,27.7,1.3.107L68.129,62.333q-1.315.535-2.579,1.171Zm4.807-1.991-29.9,29.9,1.3.107L72.361,60.917q-1.012.269-2,.6Zm3.849-1.032L43.057,91.629l1.3.107,31.57-31.569q-.868.135-1.722.313Zm3.346-.529q.767-.084,1.542-.134L46.961,91.95l-1.3-.107L77.551,59.952Zm3.014-.2q.7-.016,1.412,0L49.564,92.164l-1.3-.107,32.3-32.3Zm2.773.044q.488.026.976.067c.112.009.222.021.334.032L52.166,92.378l-1.3-.107L83.338,59.8Zm2.58.236q.619.079,1.231.179L54.769,92.591l-1.3-.107,32.45-32.451Zm2.423.394c.388.078.775.159,1.159.25L57.372,92.8l-1.3-.107L88.341,60.427Zm2.285.532q.55.148,1.094.313L59.975,93.018l-1.3-.107L90.626,60.959Zm2.161.656q.523.176,1.04.368L62.577,93.232l-1.3-.107,31.511-31.51Zm2.05.766q.5.2.986.422L65.181,93.445l-1.3-.107L94.837,62.381Zm1.949.868q.474.228.939.468L67.783,93.659l-1.3-.107,30.3-30.3Zm1.854.962q.449.252.892.517L70.385,93.873l-1.3-.107L98.639,64.211Zm1.762,1.054c.286.183.57.368.85.558L72.988,94.086l-1.3-.107L100.4,65.264Zm1.68,1.137c.272.2.54.4.807.6l-27.3,27.3-1.3-.106L102.081,66.4Zm1.594,1.223L76.892,94.407l1.3.107,26.248-26.248q-.378-.327-.767-.642Zm1.515,1.3L79.5,94.62l1.3.107L105.918,69.6c-.239-.23-.482-.456-.728-.679Zm1.436,1.38L82.1,94.834l1.3.107,23.914-23.914q-.339-.365-.688-.721Zm1.355,1.461L84.7,95.047l1.3.107,22.629-22.628q-.319-.384-.65-.759Zm1.278,1.538L87.3,95.261l1.3.107L109.869,74.1q-.3-.4-.61-.8Zm1.2,1.62-20.55,20.55,1.3.107,19.816-19.815q-.278-.425-.566-.842Zm1.113,1.7-19.06,19.06,1.3.107L112.1,77.51q-.257-.445-.526-.883Zm1.029,1.787L95.111,95.9l1.3.107,16.664-16.664c-.156-.312-.314-.623-.479-.929Zm.936,1.881L97.715,96.115l1.3.106,14.952-14.951c-.14-.328-.285-.652-.434-.975Zm.842,1.974-14.06,14.06,1.3.107L114.757,83.3q-.183-.517-.381-1.027Zm.736,2.081c.114.358.225.718.327,1.08L104.221,96.649l-1.3-.107L115.113,84.35Zm.623,2.193q.142.568.265,1.143l-9.177,9.176-1.3-.107,10.212-10.213Zm.5,2.318c.072.4.135.809.193,1.216l-7,7-1.3-.107,8.108-8.108Zm.35,2.467q.068.645.112,1.3L112.03,97.29l-1.3-.107,5.855-5.855Zm.18,2.635c.015.463.017.928.015,1.394L114.632,97.5l-1.3-.107,3.433-3.433Zm-.025,2.842-.8.8.752.062Q116.719,97.238,116.739,96.806Z" transform="translate(0)" fill="#92adff" fill-rule="evenodd"/>
          <path id="Path_99109" data-name="Path 99109" d="M0,.067Q1.173,0,2.366,0A42.31,42.31,0,0,1,44.617,40.091h0v0q.057,1.1.057,2.215c0,.551-.014,1.1-.035,1.648.3,4.029,1.6,10.2,6.507,13.409,7.669,5.027,15.878-.693,15.878-.693v0a33.847,33.847,0,0,1,53.3,27.383H0Z" transform="translate(0 15.107)" fill="#1f3887" fill-rule="evenodd"/>
          <path id="Path_99110" data-name="Path 99110" d="M0,.026A50.551,50.551,0,0,1,21.24,3.969,50.5,50.5,0,0,1,47.5,29.229c.619,1.33,1.189,2.719,1.76,4.108,1.995,4.853,3.994,9.719,8.371,12.578H56.095c-3.862-3.026-5.76-7.64-7.651-12.243-.562-1.37-1.126-2.739-1.746-4.074A49.608,49.608,0,0,0,20.9,4.778,49.669,49.669,0,0,0,0,.906V.026ZM73.821,45.914a20.566,20.566,0,0,0,5.44-4.882l.024-.03a40.582,40.582,0,0,1,68.99,4.912h-.993a39.681,39.681,0,0,0-67.307-4.365h0c-.008.012-.017.023-.026.034a21.509,21.509,0,0,1-4.542,4.331Z" transform="translate(0 53.25)" fill="#92adff" fill-rule="evenodd"/>
        </g>
      </g>
    </g>
    <g id="letter" transform="translate(927.945 -8.244)">
      <g id="Group_63820" data-name="Group 63820" transform="translate(141.762 184.194)">
        <g id="Group_63814" data-name="Group 63814">
          <g id="Group_63813" data-name="Group 63813">
            <path id="Union_6" data-name="Union 6" d="M-699.376-1625.347a6.1,6.1,0,0,1-1.8-4.362v-5.862h-6.352a6.1,6.1,0,0,1-4.362-1.8,6.1,6.1,0,0,1-1.8-4.362,6.207,6.207,0,0,1,6.165-6.166h6.352v-6.353a6.207,6.207,0,0,1,6.166-6.165,6.207,6.207,0,0,1,6.166,6.165v6.353h5.862a6.206,6.206,0,0,1,6.166,6.166,6.206,6.206,0,0,1-6.166,6.165h-5.862v5.862a6.206,6.206,0,0,1-6.165,6.166A6.1,6.1,0,0,1-699.376-1625.347Z" transform="translate(789.903 1677.903)" fill="#dcb04c"/>
          </g>
        </g>
        <g id="Group_63858" data-name="Group 63858" transform="translate(-319.622 -240.762)">
          <g id="Group_63787" data-name="Group 63787" transform="translate(302.781 240.762)">
            <g id="Group_63786" data-name="Group 63786">
              <g id="Group_63783" data-name="Group 63783">
                <path id="Path_99040" data-name="Path 99040" d="M332.076,247.471l13.739,32.865,13.74-32.865a10.919,10.919,0,0,1,10.074-6.709h8.3a10.921,10.921,0,0,1,10.921,10.921v53.955a10.921,10.921,0,0,1-10.921,10.921h0a10.92,10.92,0,0,1-10.919-10.921v-30.6l-10.3,27.124A10.922,10.922,0,0,1,346.5,309.2H345.13a10.92,10.92,0,0,1-10.209-7.044l-10.3-27.124v30.6A10.922,10.922,0,0,1,313.7,316.559h0a10.922,10.922,0,0,1-10.921-10.921V251.683A10.922,10.922,0,0,1,313.7,240.762H322A10.922,10.922,0,0,1,332.076,247.471Z" transform="translate(-302.781 -240.762)" fill="#dcb04c"/>
              </g>
            </g>
            <path id="Path_99042" data-name="Path 99042" d="M386.933,301.37a9.545,9.545,0,0,1-19.089,0v-30.6l-2.663-.488-10.3,27.124a9.591,9.591,0,0,1-8.922,6.156h-1.366a9.6,9.6,0,0,1-8.923-6.156l-10.3-27.124-2.663.488v30.6a9.545,9.545,0,0,1-19.089,0V247.415" transform="translate(-302.243 -236.494)" fill="none" stroke="#fff" stroke-miterlimit="10" stroke-width="1" opacity="0.33"/>
          </g>
          <path id="Path_99043" data-name="Path 99043" d="M315.557,244.86a23.755,23.755,0,0,1,5.209,9.59" transform="translate(8.196 2.629)" fill="none" stroke="#fff" stroke-miterlimit="10" stroke-width="1"/>
          <path id="Path_99044" data-name="Path 99044" d="M350.34,244.663a15.54,15.54,0,0,1,3.368,10.931" transform="translate(30.51 2.503)" fill="none" stroke="#fff" stroke-miterlimit="10" stroke-width="1"/>
          <path id="Path_99045" data-name="Path 99045" d="M335.72,271.231a70.143,70.143,0,0,1-3.367,9.654" transform="translate(18.971 19.546)" fill="none" stroke="#fff" stroke-miterlimit="10" stroke-width="1"/>
          <path id="Path_99046" data-name="Path 99046" d="M352.364,275.231a29.674,29.674,0,0,1-.818,9.332" transform="translate(31.283 22.112)" fill="none" stroke="#fff" stroke-miterlimit="10" stroke-width="1"/>
          <path id="Path_99047" data-name="Path 99047" d="M303.8,274.524q-.364-10.681.269-21.364a12.98,12.98,0,0,1,1.074-5.24c1.916-3.707,6.642-4.746,10.772-5.338,3.35-.481,7.021-.878,9.9.911,3.063,1.907,4.271,5.7,5.251,9.169.732,2.594,1.445,5.466.273,7.892-1.136,2.356-3.753,3.61-6.28,4.278s-5.2.947-7.518,2.165c-4.082,2.144-6.4,6.855-10.593,8.776a3.007,3.007,0,0,1-2.39.259c-.76-.325-1.174-1.446-.57-2.011" transform="translate(0.567 0.906)" opacity="0.53" fill="url(#linear-gradient)" style="mix-blend-mode: overlay;isolation: isolate"/>
          <path id="Path_99048" data-name="Path 99048" d="M343.1,246.631q-5.038,9.783-9.46,19.864c-1.164,2.658-2.257,5.89-.632,8.293,1.08,1.6,3.047,2.292,4.882,2.881,1.793.575,3.864,1.111,5.456.11a11.149,11.149,0,0,0,2.379-2.763c.767-.952,2.014-1.77,3.155-1.33,1.571.6,1.5,2.812,1.236,4.473a48.558,48.558,0,0,0-.616,7.971,5.333,5.333,0,0,0,.783,3.283,4.011,4.011,0,0,0,1.978,1.264,7.032,7.032,0,0,0,6.049-.89c2.072-1.426,3.206-3.848,4.972-5.64.855-.868,1.855-1.586,2.677-2.484,2.122-2.318,2.838-5.571,3.271-8.684a72.937,72.937,0,0,0,.637-12.973,29.207,29.207,0,0,0-2.2-11.07c-1.582-3.442-4.424-6.458-8.063-7.5-3.406-.977-7.063-.156-10.407,1.014-2.649.927-5.66,2.71-5.586,5.517" transform="translate(18.861 0.154)" opacity="0.53" fill="url(#linear-gradient-2)" style="mix-blend-mode: overlay;isolation: isolate"/>
        </g>
      </g>
    </g>
  </g>
</svg>
