<svg xmlns="http://www.w3.org/2000/svg" xmlns:xlink="http://www.w3.org/1999/xlink" width="373.799" height="138.5" viewBox="0 0 373.799 138.5">
  <defs>
    <filter id="bg" x="137.299" y="-71.5" width="389" height="346" filterUnits="userSpaceOnUse">
      <feOffset dx="32" dy="49" input="SourceAlpha"/>
      <feGaussianBlur stdDeviation="40" result="blur"/>
      <feFlood flood-color="#223f99" flood-opacity="0.2"/>
      <feComposite operator="in" in2="blur"/>
      <feComposite in="SourceGraphic"/>
    </filter>
    <clipPath id="clip-path">
      <g transform="matrix(1, 0, 0, 1, 0, 0)" filter="url(#bg)">
        <path id="bg-2" data-name="bg" d="M0,0H134a14,14,0,0,1,14,14v91a0,0,0,0,1,0,0H0a0,0,0,0,1,0,0V0A0,0,0,0,1,0,0Z" transform="translate(316.07)" fill="#223f99" stroke="#223f99" stroke-miterlimit="10" stroke-width="1"/>
      </g>
    </clipPath>
    <linearGradient id="linear-gradient" y1="0.5" x2="1" y2="0.5" gradientUnits="objectBoundingBox">
      <stop offset="0" stop-color="#6e2983" stop-opacity="0"/>
      <stop offset="0.211" stop-color="#9665a5" stop-opacity="0.282"/>
      <stop offset="0.422" stop-color="#bb9bc5" stop-opacity="0.533"/>
      <stop offset="0.614" stop-color="#d8c6de" stop-opacity="0.733"/>
      <stop offset="0.78" stop-color="#ede5f0" stop-opacity="0.878"/>
      <stop offset="0.915" stop-color="#faf8fb" stop-opacity="0.969"/>
      <stop offset="1" stop-color="#fff"/>
    </linearGradient>
    <linearGradient id="linear-gradient-2" x1="0.291" y1="0.515" x2="0.99" y2="0.401" xlink:href="#linear-gradient"/>
    <linearGradient id="linear-gradient-3" x1="0.5" y1="0.535" x2="0.5" y2="1.112" xlink:href="#linear-gradient"/>
  </defs>
  <g id="Group_68451" data-name="Group 68451" transform="translate(-936.94 -140)">
    <g id="Group_68450" data-name="Group 68450">
      <path id="Background" d="M14,0H358.8a14,14,0,0,1,14,14V137a0,0,0,0,1,0,0H0a0,0,0,0,1,0,0V14A14,14,0,0,1,14,0Z" transform="translate(936.94 141.5)" fill="#fef4f5"/>
      <g id="bg-3" data-name="bg" transform="translate(846.671 140)" clip-path="url(#clip-path)" style="mix-blend-mode: exclusion;isolation: isolate">
        <g id="Group_63757" data-name="Group 63757" transform="translate(464.069 99.164) rotate(180)" opacity="0.2">
          <path id="Path_95332" data-name="Path 95332" d="M0,0C.284.016.567.036.852.057L0,.909V0ZM2.141.176,0,2.318V3.726L3.4.329Q2.772.245,2.141.176ZM4.62.514,0,5.134V6.542L5.816.727Q5.221.612,4.62.514ZM6.983.967q.575.127,1.142.266L0,9.359V7.951L6.983.967Zm2.258.559q.548.151,1.092.316L0,12.175V10.767L9.24,1.526Zm2.161.656q.526.174,1.046.362L0,14.991V13.582l11.4-11.4Zm2.07.745q.505.2,1,.4L0,17.808V16.4L13.472,2.927Zm1.987.829q.486.217.964.445L0,20.624V19.216L15.459,3.756Zm1.909.908q.466.235.925.482L0,23.44V22.032L17.368,4.664Zm1.834.983q.448.253.89.518L0,26.257V24.848l19.2-19.2ZM20.964,6.7,0,27.664v1.408L21.819,7.254q-.424-.282-.855-.554Zm1.693,1.123L0,30.482v1.408L23.48,8.41q-.408-.3-.822-.587Zm1.627,1.189L0,33.3v1.409L25.074,9.632q-.392-.315-.79-.62Zm1.563,1.255L0,36.115v1.407l26.6-26.6q-.374-.331-.756-.651Zm1.5,1.318L0,38.93v1.409l28.07-28.07q-.359-.345-.726-.683Zm1.435,1.381L0,41.747v1.408L29.472,13.682q-.343-.361-.693-.715Zm1.371,1.445L0,44.563v1.407L30.812,15.158q-.328-.376-.662-.746Zm1.309,1.508L0,47.379v1.409L32.088,16.7q-.31-.392-.63-.778ZM32.7,17.493,0,50.2V51.6L33.3,18.3q-.294-.409-.6-.81Zm1.179,1.637L0,53.012V54.42L34.447,19.973q-.277-.425-.565-.843ZM35,20.832l-35,35v1.408L35.526,21.71q-.261-.441-.531-.877ZM36.04,22.6,0,58.645v1.408L36.535,23.517q-.243-.46-.5-.912Zm.973,1.844L0,61.461V62.87L37.472,25.4q-.224-.477-.46-.949Zm.9,1.917q.217.491.421.988L0,65.686V64.277L37.911,26.366Zm.82,2q.2.512.38,1.029L0,68.5V67.094L38.732,28.362Zm.737,2.08q.175.534.335,1.073L0,71.318V69.91L39.468,30.442Zm.647,2.169c.1.373.2.745.287,1.121L0,74.135V72.727L40.115,32.611Zm.548,2.268c.084.39.16.782.233,1.176L0,76.951V75.543L40.663,34.879Zm.438,2.379c.064.41.122.821.175,1.234L0,79.767V78.359l41.1-41.1Zm.319,2.5c.042.432.08.864.11,1.3L0,82.583V81.176L41.419,39.756Zm.179,2.637c.017.459.026.918.029,1.379L0,85.4V83.992l41.6-41.6Zm.018,2.8c0,.078,0,.156,0,.234h0v0q-.018.613-.053,1.23L.111,88.105,0,88.1V86.808L41.616,45.192Zm-.172,2.989q-.061.639-.138,1.271c0,.091,0,.183,0,.276L2.714,88.319l-1.3-.107L41.444,48.181Zm-.1,2.921c.021.425.051.865.095,1.314L5.316,88.533l-1.3-.107L41.339,51.1Zm.247,2.57c.057.4.126.8.206,1.2L7.919,88.746l-1.3-.107L41.586,53.672Zm.468,2.347q.141.547.315,1.093L10.522,88.96l-1.3-.107L42.055,56.019Zm.684,2.132q.194.5.423.986L13.125,89.173l-1.3-.107L42.739,58.151Zm.9,1.918c.166.3.342.591.53.878L15.727,89.387l-1.3-.107L43.637,60.069Zm1.116,1.7q.3.393.642.767L18.33,89.6l-1.3-.106L44.753,61.769Zm1.338,1.478-26.46,26.46,1.3.107L46.848,63.9q-.4-.315-.757-.652Zm1.567,1.25L22.234,89.92l1.3.108,24.99-24.99c-.29-.167-.58-.346-.867-.541Zm1.792,1.025L24.838,90.135l1.3.107,24.3-24.3c-.331-.122-.662-.26-.992-.416Zm2.057.76L27.44,90.348l1.3.107L52.654,66.542q-.571-.1-1.148-.26Zm2.39.425L30.042,90.562l1.3.107L55.251,66.762c-.443,0-.9-.015-1.354-.055Zm2.842-.025L32.645,90.776l1.3.107L58.4,66.432c-.527.105-1.081.192-1.658.25Zm3.546-.73L35.248,90.989l1.3.107,26-26.005a19.1,19.1,0,0,1-2.268.861ZM65.55,63.5l-27.7,27.7,1.3.107L68.129,62.333q-1.315.535-2.579,1.171Zm4.807-1.991-29.9,29.9,1.3.107L72.361,60.917q-1.012.269-2,.6Zm3.849-1.032L43.057,91.629l1.3.107,31.57-31.569q-.868.135-1.722.313Zm3.346-.529q.767-.084,1.542-.134L46.961,91.95l-1.3-.107L77.551,59.952Zm3.014-.2q.7-.016,1.412,0L49.564,92.164l-1.3-.107,32.3-32.3Zm2.773.044q.488.026.976.067c.112.009.222.021.334.032L52.166,92.378l-1.3-.107L83.338,59.8Zm2.58.236q.619.079,1.231.179L54.769,92.591l-1.3-.107,32.45-32.451Zm2.423.394c.388.078.775.159,1.159.25L57.372,92.8l-1.3-.107L88.341,60.427Zm2.285.532q.55.148,1.094.313L59.975,93.018l-1.3-.107L90.626,60.959Zm2.161.656q.523.176,1.04.368L62.577,93.232l-1.3-.107,31.511-31.51Zm2.05.766q.5.2.986.422L65.181,93.445l-1.3-.107L94.837,62.381Zm1.949.868q.474.228.939.468L67.783,93.659l-1.3-.107,30.3-30.3Zm1.854.962q.449.252.892.517L70.385,93.873l-1.3-.107L98.639,64.211Zm1.762,1.054c.286.183.57.368.85.558L72.988,94.086l-1.3-.107L100.4,65.264Zm1.68,1.137c.272.2.54.4.807.6l-27.3,27.3-1.3-.106L102.081,66.4Zm1.594,1.223L76.892,94.407l1.3.107,26.248-26.248q-.378-.327-.767-.642Zm1.515,1.3L79.5,94.62l1.3.107L105.918,69.6c-.239-.23-.482-.456-.728-.679Zm1.436,1.38L82.1,94.834l1.3.107,23.914-23.914q-.339-.365-.688-.721Zm1.355,1.461L84.7,95.047l1.3.107,22.629-22.628q-.319-.384-.65-.759Zm1.278,1.538L87.3,95.261l1.3.107L109.869,74.1q-.3-.4-.61-.8Zm1.2,1.62-20.55,20.55,1.3.107,19.816-19.815q-.278-.425-.566-.842Zm1.113,1.7-19.06,19.06,1.3.107L112.1,77.51q-.257-.445-.526-.883Zm1.029,1.787L95.111,95.9l1.3.107,16.664-16.664c-.156-.312-.314-.623-.479-.929Zm.936,1.881L97.715,96.115l1.3.106,14.952-14.951c-.14-.328-.285-.652-.434-.975Zm.842,1.974-14.06,14.06,1.3.107L114.757,83.3q-.183-.517-.381-1.027Zm.736,2.081c.114.358.225.718.327,1.08L104.221,96.649l-1.3-.107L115.113,84.35Zm.623,2.193q.142.568.265,1.143l-9.177,9.176-1.3-.107,10.212-10.213Zm.5,2.318c.072.4.135.809.193,1.216l-7,7-1.3-.107,8.108-8.108Zm.35,2.467q.068.645.112,1.3L112.03,97.29l-1.3-.107,5.855-5.855Zm.18,2.635c.015.463.017.928.015,1.394L114.632,97.5l-1.3-.107,3.433-3.433Zm-.025,2.842-.8.8.752.062Q116.719,97.238,116.739,96.806Z" transform="translate(0)" fill="#92adff" fill-rule="evenodd"/>
          <path id="Path_95333" data-name="Path 95333" d="M0,.067Q1.173,0,2.366,0A42.31,42.31,0,0,1,44.617,40.091h0v0q.057,1.1.057,2.215c0,.551-.014,1.1-.035,1.648.3,4.029,1.6,10.2,6.507,13.409,7.669,5.027,15.878-.693,15.878-.693v0a33.847,33.847,0,0,1,53.3,27.383H0Z" transform="translate(0 15.107)" fill="#1f3887" fill-rule="evenodd"/>
          <path id="Path_95334" data-name="Path 95334" d="M0,.026A50.551,50.551,0,0,1,21.24,3.969,50.5,50.5,0,0,1,47.5,29.229c.619,1.33,1.189,2.719,1.76,4.108,1.995,4.853,3.994,9.719,8.371,12.578H56.095c-3.862-3.026-5.76-7.64-7.651-12.243-.562-1.37-1.126-2.739-1.746-4.074A49.608,49.608,0,0,0,20.9,4.778,49.669,49.669,0,0,0,0,.906V.026ZM73.821,45.914a20.566,20.566,0,0,0,5.44-4.882l.024-.03a40.582,40.582,0,0,1,68.99,4.912h-.993a39.681,39.681,0,0,0-67.307-4.365h0c-.008.012-.017.023-.026.034a21.509,21.509,0,0,1-4.542,4.331Z" transform="translate(0 53.25)" fill="#92adff" fill-rule="evenodd"/>
        </g>
      </g>
    </g>
    <g id="letter" transform="translate(946.219 -8.244)">
      <g id="Group_63820" data-name="Group 63820" transform="translate(141.762 184.194)">
        <g id="Group_63814" data-name="Group 63814">
          <g id="Group_63813" data-name="Group 63813">
            <path id="Path_99068" data-name="Path 99068" d="M210.209,203.331c0,7.462-4.974,13.841-12.76,16.22,9.083,2.055,15.031,9.624,15.031,19.139,0,12.976-12,21.3-30.493,21.3H151.624a9.862,9.862,0,0,1-9.862-9.86V194.054a9.862,9.862,0,0,1,9.862-9.86h28.524C198.422,184.194,210.209,191.763,210.209,203.331Zm-25.736,4.543c0-3.244-2.269-5.3-5.731-5.3h-12v10.813h12C182.2,213.388,184.473,211.226,184.473,207.875Zm1.947,27.68c0-3.351-3.027-5.514-7.678-5.514h-12v11.57h12C183.392,241.61,186.42,239.231,186.42,235.554Z" transform="translate(-141.762 -184.194)" fill="#dc3545"/>
            <g id="Group_63812" data-name="Group 63812" transform="translate(0.637 9.86)" style="mix-blend-mode: overlay;isolation: isolate">
              <g id="Group_63811" data-name="Group 63811">
                <path id="Path_99069" data-name="Path 99069" d="M210.8,234.644a16.4,16.4,0,0,1-1.944,8.434,19.159,19.159,0,0,1-5.9,6.475,28.147,28.147,0,0,1-7.962,3.738,41.511,41.511,0,0,1-8.631,1.672,86.383,86.383,0,0,1-8.738.293l-8.69.037-17.378.076a9.463,9.463,0,0,1-4.572-1.121,9.362,9.362,0,0,1-3.431-3.231,9.069,9.069,0,0,1-1.4-4.491c-.036-1.521,0-2.917,0-4.381.041-5.793.017-11.587.119-17.38l.237-17.378c.141-5.793.224-11.587.415-17.38.192,5.793.275,11.587.415,17.38l.237,17.378c.1,5.793.078,11.587.119,17.38.015,1.431-.007,2.934.039,4.306a7.454,7.454,0,0,0,1.185,3.7,7.655,7.655,0,0,0,6.635,3.526l17.378.076,8.69.037c2.907,0,5.785.093,8.629-.122a40.3,40.3,0,0,0,8.437-1.4,27.552,27.552,0,0,0,7.8-3.4,18.5,18.5,0,0,0,5.97-6.007A16.94,16.94,0,0,0,210.8,234.644Z" transform="translate(-142.138 -190.008)" fill="#fff"/>
              </g>
            </g>
          </g>
        </g>
        <g id="Group_63819" data-name="Group 63819">
          <g id="Group_63818" data-name="Group 63818" style="mix-blend-mode: overlay;isolation: isolate">
            <g id="Group_63817" data-name="Group 63817">
              <g id="Group_63816" data-name="Group 63816" transform="translate(0.637 9.86)" style="mix-blend-mode: overlay;isolation: isolate">
                <g id="Group_63815" data-name="Group 63815">
                  <path id="Path_99071" data-name="Path 99071" d="M210.8,234.644a16.4,16.4,0,0,1-1.944,8.434,19.159,19.159,0,0,1-5.9,6.475,28.147,28.147,0,0,1-7.962,3.738,41.511,41.511,0,0,1-8.631,1.672,86.383,86.383,0,0,1-8.738.293l-8.69.037-17.378.076a9.463,9.463,0,0,1-4.572-1.121,9.362,9.362,0,0,1-3.431-3.231,9.069,9.069,0,0,1-1.4-4.491c-.036-1.521,0-2.917,0-4.381.041-5.793.017-11.587.119-17.38l.237-17.378c.141-5.793.224-11.587.415-17.38.192,5.793.275,11.587.415,17.38l.237,17.378c.1,5.793.078,11.587.119,17.38.015,1.431-.007,2.934.039,4.306a7.454,7.454,0,0,0,1.185,3.7,7.655,7.655,0,0,0,6.635,3.526l17.378.076,8.69.037c2.907,0,5.785.093,8.629-.122a40.3,40.3,0,0,0,8.437-1.4,27.552,27.552,0,0,0,7.8-3.4,18.5,18.5,0,0,0,5.97-6.007A16.94,16.94,0,0,0,210.8,234.644Z" transform="translate(-142.138 -190.008)" fill="#fe6888"/>
                </g>
              </g>
            </g>
          </g>
        </g>
      </g>
      <path id="Path_99072" data-name="Path 99072" d="M151.983,187.5a6.085,6.085,0,0,0-4.345,4.27,17.885,17.885,0,0,0-.5,6.343" transform="translate(3.702 2.3)" fill="none" stroke="#fff" stroke-miterlimit="10" stroke-width="1"/>
      <path id="Path_99073" data-name="Path 99073" d="M173.846,208.19a11.418,11.418,0,0,1,7.469,4.474,16.038,16.038,0,0,1,3.059,8.276" transform="translate(22.329 16.7)" fill="none" stroke="#fff" stroke-miterlimit="10" stroke-width="1"/>
      <path id="Path_99074" data-name="Path 99074" d="M175.117,189.963a7.173,7.173,0,0,1,5.441,6.3" transform="translate(23.213 4.015)" fill="none" stroke="#fff" stroke-miterlimit="10" stroke-width="1"/>
      <path id="Path_99075" data-name="Path 99075" d="M142.755,195.223l1.384,16.383a17.823,17.823,0,0,0,1.37,6.456c1.871,3.794,6.312,5.8,10.542,5.848s8.3-1.516,12.15-3.277,7.644-3.755,11.778-4.645c4.189-.9,8.534-.633,12.8-1.028s8.736-1.613,11.6-4.8a12.641,12.641,0,0,0,1.91-13.01,17.085,17.085,0,0,0-9.911-9.134,38.528,38.528,0,0,0-10.34-1.9c-12.126-1.018-24.388-1.235-36.417.612a9.1,9.1,0,0,0-3.833,1.219c-2.449,1.677-2.769,5.1-2.854,8.069" transform="translate(0.691 0.799)" fill="url(#linear-gradient)" style="mix-blend-mode: overlay;isolation: isolate"/>
      <path id="Path_99076" data-name="Path 99076" d="M169.108,211.157a8.335,8.335,0,0,1,6.148,13.4,12.593,12.593,0,0,1-5.831,3.853,6.831,6.831,0,0,0-2.276,1.114,3.872,3.872,0,0,0-.521,4.683,7.654,7.654,0,0,0,3.923,3.1,15.432,15.432,0,0,0,21.286-14.634,15.961,15.961,0,0,0-4.733-10.866,16.5,16.5,0,0,0-16.435-3.816,3.411,3.411,0,0,0-1.989,1.331,1.365,1.365,0,0,0,.66,1.994" transform="translate(16.927 16.013)" fill="url(#linear-gradient-2)" style="mix-blend-mode: overlay;isolation: isolate"/>
      <path id="Path_99077" data-name="Path 99077" d="M144.763,213.439q-.552,7.736-.4,15.5c.047,2.383.187,4.9,1.516,6.882,2.452,3.646,7.644,3.855,12.034,3.684l27.439-1.077a48.045,48.045,0,0,0,7.533-.692c4.813-.96,9.633-3.806,11.251-8.437s-1.509-10.786-6.416-10.871c-4.6-.08-7.689,4.481-11.443,7.147-5.12,3.638-11.853,3.789-18.135,3.8a5.806,5.806,0,0,1-2.829-.471,4.783,4.783,0,0,1-2.042-3.516c-.9-5.1,1.279-10.759-1.153-15.331a8.877,8.877,0,0,0-10.566-3.967,9.253,9.253,0,0,0-5.7,9.835" transform="translate(1.786 14.899)" fill="url(#linear-gradient-3)" style="mix-blend-mode: overlay;isolation: isolate"/>
    </g>
  </g>
</svg>
