<svg width="40" height="40" viewBox="0 0 40 40" fill="none" xmlns="http://www.w3.org/2000/svg">
    <rect width="40" height="40" rx="20" fill="#75db0f"/>
    <path d="M19.323 29.7511C18.764 29.7511 18.215 29.5542 17.765 29.1732L14.074 26.046C13.849 25.855 13.562 25.7501 13.266 25.7501H11.499C10.259 25.7501 9.24902 24.7411 9.24902 23.5001V16.5011C9.24902 15.2601 10.259 14.2511 11.499 14.2511H13.266C13.562 14.2511 13.849 14.1462 14.075 13.9552L17.766 10.828C18.494 10.211 19.482 10.0781 20.347 10.4791C21.212 10.8801 21.749 11.7211 21.749 12.6751V27.328C21.749 28.282 21.212 29.123 20.347 29.524C20.018 29.676 19.669 29.7511 19.323 29.7511ZM11.5 15.7501C11.087 15.7501 10.75 16.0861 10.75 16.5001V23.4991C10.75 23.9131 11.087 24.2491 11.5 24.2491H13.267C13.917 24.2491 14.5479 24.48 15.0439 24.901L18.735 28.0282C19.014 28.2652 19.3819 28.317 19.7159 28.161C20.0499 28.006 20.249 27.694 20.249 27.326V12.6732C20.249 12.3052 20.0499 11.993 19.7159 11.838C19.3829 11.683 19.015 11.733 18.736 11.971L15.0439 15.098C14.5479 15.518 13.917 15.7501 13.267 15.7501H11.5ZM24.767 24.7711C26.046 23.4981 26.75 21.8031 26.75 20.0001C26.75 18.1971 26.046 16.5021 24.767 15.2291C24.473 14.9371 23.9981 14.937 23.7061 15.231C23.4131 15.524 23.415 16.0001 23.708 16.2921C24.702 17.2821 25.25 18.6001 25.25 20.0011C25.25 21.4021 24.702 22.72 23.708 23.71C23.415 24.002 23.4131 24.4771 23.7061 24.7711C23.8521 24.9181 24.0451 24.992 24.2371 24.992C24.4291 24.99 24.62 24.9171 24.767 24.7711ZM27.597 27.6012C29.63 25.5732 30.75 22.8731 30.75 20.0001C30.75 17.1271 29.63 14.427 27.597 12.399C27.303 12.106 26.828 12.107 26.536 12.4C26.244 12.693 26.244 13.168 26.538 13.461C28.287 15.205 29.25 17.5271 29.25 20.0001C29.25 22.4731 28.287 24.7942 26.538 26.5392C26.244 26.8321 26.244 27.3072 26.536 27.6002C26.682 27.7472 26.875 27.8202 27.067 27.8202C27.259 27.8202 27.45 27.7472 27.597 27.6012Z" fill="white"/>
</svg>
