<svg id="Layer_1" data-name="Layer 1" xmlns="http://www.w3.org/2000/svg" viewBox="0 0 958.78 383.8"><defs><style>.cls-1{fill:#f7e825;}.cls-2{fill:#231f20;}.cls-3{fill:#e62628;}.cls-4{fill:#223f99;}</style></defs><path class="cls-1" d="M7074.15,7148.14l-38.76,38.76a73.21,73.21,0,0,1-.2,12.86c-3,53-66.9,125-160.92,133.13-72.67,5.12-117.37-32.77-119.84-82.16-6.27-65,93.29-161.59,205.14-139.81.4.09.8.2,1.2.31L6978,7094l14.78-14.78a122.38,122.38,0,0,0-12.31-3.73c-148-28.86-279.75,98.94-271.43,185,3.25,65.36,62.38,115.49,158.56,108.7,124.42-10.81,208.92-106.08,213-176.16A90.82,90.82,0,0,0,7074.15,7148.14Z" transform="translate(-6707.01 -6987.67)"/><path class="cls-2" d="M6850.75,7371.48c-43.54,0-81.1-12.3-107.05-35.3a106,106,0,0,1-36.32-75.6c-3.7-38.23,20.19-85.8,62.34-124.08,58.92-53.52,137.83-76.95,211.08-62.66a124,124,0,0,1,12.55,3.8l2.48.89-34.57,34.57-.94-.26c-.37-.1-.74-.21-1.11-.29-54.41-10.6-113.11,6.85-157,46.68-31.17,28.3-48.86,63.31-46.16,91.34a77.33,77.33,0,0,0,26.5,55.17c21.52,19.08,54,28.13,91.56,25.49,98.23-8.53,156.6-83.21,159.38-131.57a72.72,72.72,0,0,0,.2-12.64l-.06-.76,41.06-41.06,1,2.3a92.78,92.78,0,0,1,6.53,45.71c-2.08,36.26-25.21,77.92-61.86,111.37-41.42,37.79-95.61,61.33-152.6,66.29C6862,7371.27,6856.32,7371.48,6850.75,7371.48Zm87.15-298.42c-59.24,0-119,23.28-165.94,65.91-41.38,37.59-64.86,84.09-61.25,121.37a102.73,102.73,0,0,0,35.21,73.34c28.59,25.35,71.76,37.37,121.58,33.86,56.23-4.89,109.73-28.12,150.61-65.42,36-32.88,58.74-73.69,60.78-109.18a89.82,89.82,0,0,0-5.35-41.83l-36.43,36.43a75.94,75.94,0,0,1-.26,12.38c-1.58,27.5-19.11,59.1-46.88,84.44-31.36,28.62-72.4,46.45-115.56,50.2-38.43,2.71-71.83-6.64-94-26.32a80.57,80.57,0,0,1-27.6-57.43c-2.8-29,15.3-65.05,47.24-94.05,44.63-40.54,104.4-58.28,159.88-47.48l.38.09,29.45-29.45c-3.36-1.14-6.65-2.1-9.63-2.82A219.8,219.8,0,0,0,6937.9,7073.06Z" transform="translate(-6707.01 -6987.67)"/><path class="cls-3" d="M7132.43,6987.67v53.91c0,17.94-.28,35.89.15,53.82.16,6.47-1.63,9.39-8,11.89-34,13.26-64.87,32.27-94.24,53.79-41.92,30.7-78.76,66.72-112,106.46-7.87,9.4-15.63,18.92-22.86,28.81-3.48,4.75-5.09,4.16-8.35-.05-19.34-25-40.23-48.59-65-68.56-3.44-2.78-10-4.41-9.38-8.74.44-3.14,6.34-5.57,9.88-8.22,10.42-7.85,21-15.49,31.26-23.56,3.71-2.91,5.77-3.13,8.85.9,8.94,11.73,18.4,23.08,27.52,34.67,2.61,3.32,4.1,4.26,7.09-.07a1055,1055,0,0,1,107.55-131.16c35.74-37.1,74.07-71.19,117.19-99.67A22.38,22.38,0,0,1,7132.43,6987.67Z" transform="translate(-6707.01 -6987.67)"/><path class="cls-4" d="M7146,7218.09v-81.53h21.48l16.92,29.91a231.86,231.86,0,0,1,13.32,28l.32,0a321.08,321.08,0,0,1-1.49-34.06v-23.77h16.92v81.53H7194.2l-17.47-31.4a297.15,297.15,0,0,1-14.17-28.8l-.4,0c.57,10.8.8,22.34.8,35.65v24.51Z" transform="translate(-6707.01 -6987.67)"/><path class="cls-4" d="M7281.46,7187.89c0,21.64-15.32,31.53-31.2,31.53-17.22,0-30.57-11.39-30.57-30.5s12.6-31.37,31.63-31.37C7269.42,7157.55,7281.46,7170,7281.46,7187.89Zm-42.8.61c0,10.1,4.27,17.77,12.11,17.77,7.18,0,11.72-7.18,11.72-17.86,0-8.73-3.36-17.71-11.7-17.71C7242,7170.7,7238.66,7179.73,7238.66,7188.5Z" transform="translate(-6707.01 -6987.67)"/><path class="cls-4" d="M7286.59,7177.8c0-7.38-.23-13.61-.49-18.92h16l.85,8.21h.39a21.4,21.4,0,0,1,18.29-9.54c12.09,0,21.19,8.07,21.19,25.5v35h-18.43v-32.81c0-7.63-2.72-12.85-9.36-12.85-5.07,0-8.07,3.54-9.34,6.95a13.19,13.19,0,0,0-.64,4.55v34.16h-18.43Z" transform="translate(-6707.01 -6987.67)"/><path class="cls-4" d="M7379.8,7180.17v12.25h-31.65v-12.25Z" transform="translate(-6707.01 -6987.67)"/><path class="cls-4" d="M7404.18,7197.16l-5.75,20.93h-19.06l24.88-81.53h24.12l25.38,81.53h-19.86l-6.27-20.93Zm20.71-13.74-5.08-17.32c-1.4-4.82-2.84-10.93-4.09-15.7h-.26c-1.2,4.79-2.43,11-3.73,15.72l-4.88,17.3Z" transform="translate(-6707.01 -6987.67)"/><path class="cls-4" d="M7458.57,7178.4c0-8.69-.16-14.42-.48-19.52h15.81l.68,11h.45c3-8.66,10.24-12.29,16-12.29a15.83,15.83,0,0,1,3.93.35v17.31a22.09,22.09,0,0,0-5-.52c-6.77,0-11.38,3.59-12.62,9.35a21.94,21.94,0,0,0-.34,4.09v30h-18.44Z" transform="translate(-6707.01 -6987.67)"/><path class="cls-4" d="M7534,7218.09l-1.09-5.88h-.39c-3.86,4.71-9.9,7.21-16.91,7.21-12.05,0-19.14-8.65-19.14-18.11,0-15.43,13.8-22.74,34.75-22.71v-.76c0-3.14-1.69-7.64-10.84-7.62a34,34,0,0,0-16.32,4.42l-3.39-11.78c4.13-2.36,12.2-5.31,23-5.31,19.71,0,25.95,11.65,25.95,25.55v20.65a85.94,85.94,0,0,0,.94,14.34Zm-2.23-28c-9.68-.05-17.17,2.28-17.17,9.33,0,4.77,3.12,7.09,7.3,7.09a10.06,10.06,0,0,0,9.53-6.8,11.67,11.67,0,0,0,.34-3.15Z" transform="translate(-6707.01 -6987.67)"/><path class="cls-4" d="M7557.49,7218.09c.26-3.92.48-11,.48-17.68v-68.2h18.41v33.73h.24c3.52-5.09,9.66-8.39,17.87-8.39,14.23,0,24.57,11.76,24.43,29.9,0,21.32-13.51,32-27.08,32-6.92,0-13.58-2.56-17.7-9.58h-.25l-.78,8.25Zm18.89-25.13a14.52,14.52,0,0,0,.33,3.23,11.25,11.25,0,0,0,10.83,8.77c7.82,0,12.7-6.09,12.7-16.74,0-9.21-4.12-16.47-12.67-16.47a11.28,11.28,0,0,0-10.81,9.08,16.11,16.11,0,0,0-.38,3.41Z" transform="translate(-6707.01 -6987.67)"/><path class="cls-4" d="M7624.37,7202.05a35.77,35.77,0,0,0,15.78,4.4c5.55,0,7.93-1.87,7.93-4.89s-1.89-4.55-8.69-6.84c-12.31-4.05-16.94-10.75-16.87-17.7,0-11.12,9.38-19.47,24.07-19.47a39.22,39.22,0,0,1,16.67,3.45l-3.2,12.68a30.11,30.11,0,0,0-12.83-3.34c-4.49,0-7.06,1.79-7.06,4.77s2.35,4.33,9.6,6.83c11.24,3.82,15.94,9.6,16,18.23,0,11-8.62,19.19-25.58,19.19-7.72,0-14.65-1.75-19.17-4.16Z" transform="translate(-6707.01 -6987.67)"/><path class="cls-2" d="M7146,7253.65h4.35v15.58H7158v3.64h-12Z" transform="translate(-6707.01 -6987.67)"/><path class="cls-2" d="M7164.26,7267.29c.13,1.8,1.91,2.65,3.94,2.65a11.51,11.51,0,0,0,3.84-.59l.58,2.94a13.46,13.46,0,0,1-5.05.88c-4.73,0-7.45-2.75-7.45-7.1,0-3.55,2.21-7.47,7-7.47,4.52,0,6.23,3.51,6.23,7a9,9,0,0,1-.15,1.72Zm5.1-3c0-1-.46-2.83-2.44-2.83a2.87,2.87,0,0,0-2.69,2.83Z" transform="translate(-6707.01 -6987.67)"/><path class="cls-2" d="M7184.63,7272.87l-.25-1.39h-.09a5,5,0,0,1-4,1.71,4.26,4.26,0,0,1-4.51-4.27c0-3.64,3.25-5.37,8.19-5.36v-.18c0-.74-.4-1.8-2.56-1.8a8,8,0,0,0-3.84,1.05l-.8-2.78a11.21,11.21,0,0,1,5.42-1.25c4.65,0,6.12,2.74,6.12,6v4.87a20.37,20.37,0,0,0,.22,3.38Zm-.52-6.6c-2.28,0-4,.54-4,2.2a1.56,1.56,0,0,0,1.72,1.67,2.38,2.38,0,0,0,2.25-1.6,3.05,3.05,0,0,0,.08-.74Z" transform="translate(-6707.01 -6987.67)"/><path class="cls-2" d="M7192.46,7263.51c0-2.05,0-3.4-.11-4.6h3.73l.16,2.58h.1a4.09,4.09,0,0,1,3.77-2.89,3.79,3.79,0,0,1,.93.08v4.08a5.5,5.5,0,0,0-1.18-.12,2.79,2.79,0,0,0-3,2.2,5.68,5.68,0,0,0-.08,1v7.06h-4.35Z" transform="translate(-6707.01 -6987.67)"/><path class="cls-2" d="M7204,7263.37c0-1.74-.06-3.21-.12-4.46h3.77l.2,1.94h.09a5,5,0,0,1,4.32-2.25c2.85,0,5,1.9,5,6v8.26h-4.34v-7.73c0-1.8-.65-3-2.21-3a2.33,2.33,0,0,0-2.2,1.63,3.17,3.17,0,0,0-.15,1.08v8.05H7204Z" transform="translate(-6707.01 -6987.67)"/><path class="cls-2" d="M7219.69,7276.28a46,46,0,0,0,2.08-8.11l4.41-.29a39,39,0,0,1-3.59,8.14Z" transform="translate(-6707.01 -6987.67)"/><path class="cls-2" d="M7236.15,7253.9a36.35,36.35,0,0,1,5.87-.4c2.66,0,4.59.52,5.88,1.55a5.58,5.58,0,0,1,2,4.45,6,6,0,0,1-1.76,4.55,9,9,0,0,1-6.24,2,10.27,10.27,0,0,1-1.49-.1v6.88h-4.3Zm4.3,8.72a6.21,6.21,0,0,0,1.45.12c2.31,0,3.73-1.17,3.73-3.12,0-1.77-1.21-2.82-3.4-2.82a9,9,0,0,0-1.78.14Z" transform="translate(-6707.01 -6987.67)"/><path class="cls-2" d="M7253,7263.51c0-2.05,0-3.4-.11-4.6h3.73l.15,2.58h.11a4.09,4.09,0,0,1,3.77-2.89,3.84,3.84,0,0,1,.93.08v4.08a5.5,5.5,0,0,0-1.18-.12,2.79,2.79,0,0,0-3,2.2,4.82,4.82,0,0,0-.08,1v7.06H7253Z" transform="translate(-6707.01 -6987.67)"/><path class="cls-2" d="M7272.21,7272.87l-.26-1.39h-.09a5,5,0,0,1-4,1.71,4.26,4.26,0,0,1-4.51-4.27c0-3.64,3.25-5.37,8.19-5.36v-.18c0-.74-.4-1.8-2.56-1.8a8,8,0,0,0-3.84,1.05l-.8-2.78a11.21,11.21,0,0,1,5.42-1.25c4.65,0,6.12,2.74,6.12,6v4.87a20.37,20.37,0,0,0,.22,3.38Zm-.53-6.6c-2.29,0-4.05.54-4.05,2.2a1.57,1.57,0,0,0,1.72,1.67,2.39,2.39,0,0,0,2.25-1.6,3.05,3.05,0,0,0,.08-.74Z" transform="translate(-6707.01 -6987.67)"/><path class="cls-2" d="M7290.51,7272.52a10.26,10.26,0,0,1-3.89.65c-4.51,0-7.38-2.76-7.38-7.14,0-4.09,2.79-7.42,8-7.42a10,10,0,0,1,3.31.55l-.68,3.22a5.87,5.87,0,0,0-2.42-.44,3.92,3.92,0,0,0,.07,7.84,6.52,6.52,0,0,0,2.5-.46Z" transform="translate(-6707.01 -6987.67)"/><path class="cls-2" d="M7298.91,7254.93v4H7302v3.2h-3.12v5.06c0,1.69.41,2.46,1.71,2.46a5.75,5.75,0,0,0,1.29-.13l0,3.3a9.21,9.21,0,0,1-2.81.37,4.55,4.55,0,0,1-3.27-1.21c-.81-.83-1.2-2.16-1.2-4.14v-5.71h-1.85v-3.2h1.85v-3Z" transform="translate(-6707.01 -6987.67)"/><path class="cls-2" d="M7309.72,7255a2.16,2.16,0,0,1-2.34,2.17,2.17,2.17,0,1,1,0-4.34A2.15,2.15,0,0,1,7309.72,7255Zm-4.47,17.84v-14h4.35v14Z" transform="translate(-6707.01 -6987.67)"/><path class="cls-2" d="M7313.76,7269.09a8.39,8.39,0,0,0,3.72,1c1.31,0,1.87-.44,1.87-1.15s-.44-1.08-2.05-1.62c-2.9-.95-4-2.53-4-4.17,0-2.62,2.22-4.59,5.68-4.59a9.24,9.24,0,0,1,3.93.81l-.75,3a7.14,7.14,0,0,0-3-.79c-1.06,0-1.66.42-1.66,1.13s.55,1,2.26,1.61c2.65.9,3.76,2.26,3.78,4.3,0,2.6-2,4.52-6,4.52a10,10,0,0,1-4.52-1Z" transform="translate(-6707.01 -6987.67)"/><path class="cls-2" d="M7330.21,7267.29c.13,1.8,1.91,2.65,3.94,2.65a11.51,11.51,0,0,0,3.84-.59l.59,2.94a13.56,13.56,0,0,1-5.06.88c-4.73,0-7.45-2.75-7.45-7.1,0-3.55,2.21-7.47,7-7.47,4.52,0,6.23,3.51,6.23,7a9,9,0,0,1-.15,1.72Zm5.1-3a2.52,2.52,0,0,0-2.44-2.83,2.87,2.87,0,0,0-2.69,2.83Z" transform="translate(-6707.01 -6987.67)"/><path class="cls-2" d="M7340.49,7276.28a47.82,47.82,0,0,0,2.08-8.11l4.41-.29a39,39,0,0,1-3.59,8.14Z" transform="translate(-6707.01 -6987.67)"/><path class="cls-2" d="M7368.37,7264.74h-7.08v4.57h7.91v3.56H7357v-19.22h11.84v3.56h-7.5v4h7.08Z" transform="translate(-6707.01 -6987.67)"/><path class="cls-2" d="M7372.76,7263.37c0-1.74-.05-3.21-.11-4.46h3.76l.21,1.94h.09a5,5,0,0,1,4.31-2.25c2.85,0,5,1.9,5,6v8.26h-4.35v-7.73c0-1.8-.64-3-2.21-3a2.34,2.34,0,0,0-2.2,1.63,3.17,3.17,0,0,0-.15,1.08v8.05h-4.35Z" transform="translate(-6707.01 -6987.67)"/><path class="cls-2" d="M7387.33,7275.45a4,4,0,0,0,2.56-.92c.63-.65.86-1.77.86-4.55v-11.07h4.35V7271c0,3-.67,4.89-2,6.1a8,8,0,0,1-5.39,1.7Zm7.88-20.42a2.16,2.16,0,0,1-2.34,2.17,2.17,2.17,0,1,1,2.34-2.17Z" transform="translate(-6707.01 -6987.67)"/><path class="cls-2" d="M7413,7265.75c0,5.1-3.62,7.44-7.36,7.44a6.84,6.84,0,0,1-7.21-7.2c0-4.5,3-7.39,7.46-7.39A6.78,6.78,0,0,1,7413,7265.75Zm-10.1.15c0,2.38,1,4.19,2.86,4.19,1.69,0,2.76-1.7,2.76-4.22,0-2.06-.79-4.17-2.76-4.17S7402.88,7263.83,7402.88,7265.9Z" transform="translate(-6707.01 -6987.67)"/><path class="cls-2" d="M7419.36,7258.91l2.09,6.86c.24.82.51,1.87.69,2.6h.1c.19-.76.41-1.79.62-2.6l1.72-6.86h4.63l-3.24,9.19c-2,5.54-3.34,7.76-4.92,9.15a7.64,7.64,0,0,1-4.17,1.91l-.93-3.66a6.14,6.14,0,0,0,1.88-.73,4.84,4.84,0,0,0,1.79-1.75,1.13,1.13,0,0,0,.24-.62,1.67,1.67,0,0,0-.19-.72l-5.11-12.77Z" transform="translate(-6707.01 -6987.67)"/><path class="cls-2" d="M7428.69,7276.28a47.82,47.82,0,0,0,2.08-8.11l4.41-.29a40.12,40.12,0,0,1-3.59,8.14Z" transform="translate(-6707.01 -6987.67)"/><path class="cls-2" d="M7452.93,7272.87l-.26-1.39h-.09a5,5,0,0,1-4,1.71,4.26,4.26,0,0,1-4.51-4.27c0-3.64,3.25-5.37,8.19-5.36v-.18c0-.74-.4-1.8-2.55-1.8a8,8,0,0,0-3.85,1.05l-.8-2.78a11.21,11.21,0,0,1,5.42-1.25c4.65,0,6.12,2.74,6.12,6v4.87a20.37,20.37,0,0,0,.22,3.38Zm-.53-6.6c-2.28,0-4,.54-4,2.2a1.57,1.57,0,0,0,1.72,1.67,2.37,2.37,0,0,0,2.25-1.6,2.63,2.63,0,0,0,.08-.74Z" transform="translate(-6707.01 -6987.67)"/><path class="cls-2" d="M7471.23,7272.52a10.2,10.2,0,0,1-3.88.65c-4.52,0-7.39-2.76-7.39-7.14,0-4.09,2.79-7.42,8-7.42a10.13,10.13,0,0,1,3.32.55l-.68,3.22a5.92,5.92,0,0,0-2.43-.44,3.92,3.92,0,0,0,.07,7.84,6.45,6.45,0,0,0,2.5-.46Z" transform="translate(-6707.01 -6987.67)"/><path class="cls-2" d="M7474.33,7252.62h4.35v8h.06a5,5,0,0,1,1.7-1.44,4.81,4.81,0,0,1,2.26-.55c2.77,0,4.89,1.92,4.89,6.13v8.14h-4.35v-7.67c0-1.83-.63-3.09-2.24-3.09a2.29,2.29,0,0,0-2.18,1.53,2.67,2.67,0,0,0-.14.95v8.28h-4.35Z" transform="translate(-6707.01 -6987.67)"/><path class="cls-2" d="M7496.23,7255a2.3,2.3,0,1,1-2.29-2.17A2.15,2.15,0,0,1,7496.23,7255Zm-4.47,17.84v-14h4.35v14Z" transform="translate(-6707.01 -6987.67)"/><path class="cls-2" d="M7503.64,7267.29c.12,1.8,1.91,2.65,3.93,2.65a11.47,11.47,0,0,0,3.84-.59l.59,2.94a13.56,13.56,0,0,1-5.06.88c-4.73,0-7.45-2.75-7.45-7.1,0-3.55,2.22-7.47,7-7.47,4.53,0,6.24,3.51,6.24,7a8.07,8.07,0,0,1-.16,1.72Zm5.09-3a2.52,2.52,0,0,0-2.43-2.83,2.88,2.88,0,0,0-2.7,2.83Z" transform="translate(-6707.01 -6987.67)"/><path class="cls-2" d="M7519.13,7258.91l1.88,6.49c.34,1.18.58,2.28.8,3.4h.09c.21-1.15.45-2.2.77-3.4l1.79-6.49H7529l-5.2,14h-4.33l-5.08-14Z" transform="translate(-6707.01 -6987.67)"/><path class="cls-2" d="M7534.64,7267.29c.13,1.8,1.91,2.65,3.94,2.65a11.51,11.51,0,0,0,3.84-.59l.58,2.94a13.46,13.46,0,0,1-5.05.88c-4.73,0-7.45-2.75-7.45-7.1,0-3.55,2.21-7.47,7-7.47,4.52,0,6.23,3.51,6.23,7a8.07,8.07,0,0,1-.16,1.72Zm5.1-3a2.52,2.52,0,0,0-2.44-2.83,2.88,2.88,0,0,0-2.7,2.83Z" transform="translate(-6707.01 -6987.67)"/><path class="cls-2" d="M7561.49,7272.87l-.26-1.39h-.09a5,5,0,0,1-4,1.71,4.26,4.26,0,0,1-4.51-4.27c0-3.64,3.25-5.37,8.2-5.36v-.18c0-.74-.4-1.8-2.56-1.8a8,8,0,0,0-3.85,1.05l-.8-2.78a11.26,11.26,0,0,1,5.43-1.25c4.65,0,6.12,2.74,6.12,6v4.87a20.37,20.37,0,0,0,.22,3.38Zm-.53-6.6c-2.28,0-4.05.54-4.05,2.2a1.57,1.57,0,0,0,1.73,1.67,2.36,2.36,0,0,0,2.24-1.6,2.63,2.63,0,0,0,.08-.74Z" transform="translate(-6707.01 -6987.67)"/><path class="cls-2" d="M7569.32,7263.37c0-1.74,0-3.21-.11-4.46H7573l.2,1.94h.09a5.07,5.07,0,0,1,4.31-2.25c2.86,0,5,1.9,5,6v8.26h-4.34v-7.73c0-1.8-.65-3-2.21-3a2.33,2.33,0,0,0-2.2,1.63,3.17,3.17,0,0,0-.15,1.08v8.05h-4.35Z" transform="translate(-6707.01 -6987.67)"/><path class="cls-2" d="M7600.27,7252.62v16.08c0,1.59,0,3.24.11,4.17h-3.86l-.18-2h-.06a4.88,4.88,0,0,1-4.37,2.36c-3.29,0-6-2.83-6-7.17,0-4.69,2.92-7.42,6.25-7.42a4.23,4.23,0,0,1,3.67,1.57h.06v-7.55Zm-4.34,12.22a4.21,4.21,0,0,0-.06-.79,2.58,2.58,0,0,0-2.52-2.12c-2,0-3,1.76-3,4s1.16,3.84,3,3.84a2.58,2.58,0,0,0,2.52-2.08,4.45,4.45,0,0,0,.09-1Z" transform="translate(-6707.01 -6987.67)"/><path class="cls-2" d="M7610.93,7263.6c0-1.83-.05-3.38-.11-4.69h3.77l.2,1.95h.06a5.39,5.39,0,0,1,4.65-2.26c3.05,0,5.8,2.65,5.8,7.11,0,5.09-3.24,7.48-6.35,7.48a4.32,4.32,0,0,1-3.62-1.6h-.06v6.93h-4.34Zm4.34,3.3a4.22,4.22,0,0,0,.09.9,2.64,2.64,0,0,0,2.54,2.06c1.87,0,3-1.58,3-3.95s-1-3.91-2.92-3.91a2.72,2.72,0,0,0-2.6,2.19,3.33,3.33,0,0,0-.1.78Z" transform="translate(-6707.01 -6987.67)"/><path class="cls-2" d="M7628.7,7252.62h4.35v20.25h-4.35Z" transform="translate(-6707.01 -6987.67)"/><path class="cls-2" d="M7645.21,7272.87l-.26-1.39h-.09a5,5,0,0,1-4,1.71,4.26,4.26,0,0,1-4.51-4.27c0-3.64,3.25-5.37,8.19-5.36v-.18c0-.74-.4-1.8-2.55-1.8a8,8,0,0,0-3.85,1.05l-.8-2.78a11.21,11.21,0,0,1,5.42-1.25c4.65,0,6.12,2.74,6.12,6v4.87a20.37,20.37,0,0,0,.22,3.38Zm-.53-6.6c-2.28,0-4.05.54-4.05,2.2a1.57,1.57,0,0,0,1.72,1.67,2.38,2.38,0,0,0,2.25-1.6,2.63,2.63,0,0,0,.08-.74Z" transform="translate(-6707.01 -6987.67)"/><path class="cls-2" d="M7655.94,7258.91l2.08,6.86c.24.82.51,1.87.7,2.6h.09c.19-.76.42-1.79.62-2.6l1.72-6.86h4.63l-3.23,9.19c-2,5.54-3.34,7.76-4.92,9.15a7.64,7.64,0,0,1-4.18,1.91l-.93-3.66a6.18,6.18,0,0,0,1.89-.73,5,5,0,0,0,1.79-1.75,1.13,1.13,0,0,0,.24-.62,1.84,1.84,0,0,0-.19-.72l-5.12-12.77Z" transform="translate(-6707.01 -6987.67)"/></svg>