<svg xmlns="http://www.w3.org/2000/svg" width="193.867" height="208.402" viewBox="0 0 193.867 208.402">
  <g id="Group_63865" data-name="Group 63865" transform="translate(-146.365 -70.985)">
    <g id="Group_63864" data-name="Group 63864" transform="translate(146.365 70.985)">
      <g id="Group_63863" data-name="Group 63863">
        <path id="Path_99114" data-name="Path 99114" d="M260.13,71.841c-8.672-1.515-13.879,3.022-13.879,3.022v0a23.859,23.859,0,0,0-8.466-3.324c-11.915-2.356-20.079,3.035-23.554,11.059a21.37,21.37,0,0,0-.772,14.087c.082.3.164.636.247,1.012,0,0,.663-3.994,1.934-5.986.5,2.518.917,6.263-.1,9.256-1.7,4.987.6,10.674,3.192,15.163s7.382,9.975,12.769,7.781,10.873-8.18,12.569-9.677c-3.562,8.32-12.662,11.618-12.662,11.618a19.5,19.5,0,0,1,0,13.1s15.247.2,15.247-1.955-.783-21.306,2.155-26.157a21.43,21.43,0,0,0,6.134-10.068c1.7-6.274,1.171-15.415-4.218-21.929,7.49-1.957,6.12,18,5.342,27.537-.8,9.776,3.244,9.215,3.664,10.153,1.182,2.635,1.8,7.182,2.693,6.085a9.723,9.723,0,0,0,2.494-5.287c.2-2.394,1.3-9.777,2.493-18.356S275.068,74.452,260.13,71.841Z" transform="translate(-148.914 -70.985)" fill="#041637"/>
        <path id="Path_99115" data-name="Path 99115" d="M247.948,124.618c-.1,5.6,1.387,9.99,11.042,12.448s14.043,4.037,14.57,9.655,5.266,23.874,5.793,39.146c0,0,14.921-28.613,20.538-36.863l7.1,3.769s-13.773,33.8-15,38.536S283.566,205.7,278.3,204.65s-14.483-16.15-16.808-38.62L247.615,148.3l-1.931-14.569Z" transform="translate(-150.186 -73.048)" fill="#041637"/>
        <path id="Path_99116" data-name="Path 99116" d="M231.54,141.513c-2.948,5.235-7.662,13.615-12.377,18.33s-3.4,13.1,0,21.477,13.358,13.882,6.024,38.5c0,0,18.858,2.8,36.668-5.062,0,0-8.5-18.494-1.5-48.229l1.5-13.759-17.309-15.19Z" transform="translate(-149.048 -73.547)" fill="#041637"/>
        <path id="Path_99117" data-name="Path 99117" d="M232.568,133.14c-.166,4.624-13.809,8.152-16.507,11.294s1.231,12.572,1.231,12.572a62.61,62.61,0,0,0,15.715-17.81C239.554,127.934,232.568,133.14,232.568,133.14Z" transform="translate(-149.01 -73.33)" fill="#041637"/>
        <path id="Path_99118" data-name="Path 99118" d="M217.7,189.334s.262,9.953,0,10.738-31.572,14.143-39.691,18.858l2.357,6.373s35.239-7.683,42.049-11.611S217.7,189.334,217.7,189.334Z" transform="translate(-147.582 -75.538)" fill="#041637"/>
        <g id="Group_63861" data-name="Group 63861" transform="translate(146.229 51.254)">
          <path id="Path_99119" data-name="Path 99119" d="M324.71,137.423a13.133,13.133,0,1,1-13.133-13.134A13.133,13.133,0,0,1,324.71,137.423Z" transform="translate(-298.444 -124.289)" fill="#223f99"/>
          <path id="Path_99120" data-name="Path 99120" d="M312.191,143.716a5.454,5.454,0,0,1-1.712-.034,6.075,6.075,0,0,1-1.66-.6,6.6,6.6,0,0,1-1.421-1.112,6.379,6.379,0,0,1-1.028-1.522,6.171,6.171,0,0,1-.526-1.787,7.028,7.028,0,0,1,.037-1.879,6.48,6.48,0,0,1,.614-1.791,6.156,6.156,0,0,1,2.646-2.659,6.6,6.6,0,0,1,1.8-.608,6.991,6.991,0,0,1,1.879-.037,6.108,6.108,0,0,1,1.787.525,6.389,6.389,0,0,1,1.523,1.029,6.6,6.6,0,0,1,1.112,1.421,6.092,6.092,0,0,1,.6,1.661,5.481,5.481,0,0,1,.033,1.712,5.787,5.787,0,0,0-3.745-4.67,5.177,5.177,0,0,0-6.607,6.606A5.781,5.781,0,0,0,312.191,143.716Z" transform="translate(-298.727 -124.572)" fill="#223f99"/>
        </g>
        <g id="Group_63862" data-name="Group 63862" transform="translate(0 133.474)">
          <circle id="Ellipse_7" data-name="Ellipse 7" cx="13.133" cy="13.133" r="13.133" transform="matrix(0.731, -0.682, 0.682, 0.731, 0, 17.913)" fill="#223f99"/>
          <path id="Path_99121" data-name="Path 99121" d="M165.757,234.871a5.455,5.455,0,0,1-1.712-.034,6.074,6.074,0,0,1-1.66-.6,6.593,6.593,0,0,1-1.42-1.112,6.356,6.356,0,0,1-1.029-1.522,6.137,6.137,0,0,1-.525-1.787,6.953,6.953,0,0,1,.037-1.879,6.45,6.45,0,0,1,.613-1.79,7.085,7.085,0,0,1,1.115-1.536,6.988,6.988,0,0,1,1.531-1.123,6.6,6.6,0,0,1,1.8-.608,6.954,6.954,0,0,1,1.879-.037,6.086,6.086,0,0,1,1.788.525,6.4,6.4,0,0,1,1.522,1.029,6.6,6.6,0,0,1,1.113,1.421,6.121,6.121,0,0,1,.6,1.661,5.454,5.454,0,0,1,.033,1.712,5.784,5.784,0,0,0-3.745-4.67,5.176,5.176,0,0,0-6.606,6.606A5.78,5.78,0,0,0,165.757,234.871Z" transform="translate(-146.865 -210.299)" fill="#223f99"/>
        </g>
        <path id="Path_99122" data-name="Path 99122" d="M225.5,223.03s14,5.286,36.668-1.991c0,0,12.5,9.491,6.507,25s-9.472,25.945-9.472,25.945l-27.8-.316S220.911,247.8,225.5,223.03Z" transform="translate(-149.365 -76.757)" fill="#041637"/>
      </g>
      <path id="Path_99123" data-name="Path 99123" d="M157.036,284.841S284.332,268.7,327.512,222.8C327.512,222.8,325.715,282.878,157.036,284.841Z" transform="translate(-146.775 -76.825)" fill="#041637"/>
      <path id="Path_99124" data-name="Path 99124" d="M215.115,285.792s77.909-6.045,127.762-38.264C342.877,247.528,324.82,290.678,215.115,285.792Z" transform="translate(-149.01 -77.776)" fill="#223f99"/>
    </g>
  </g>
</svg>
