<svg width="688" height="58" viewBox="0 0 688 58" fill="none" xmlns="http://www.w3.org/2000/svg">
<path d="M34.7715 45.844C34.9853 45.8271 35.2004 45.8545 35.4028 45.9244C35.6053 45.9942 35.7906 46.105 35.947 46.2496C37.4604 47.6694 38.9023 49.1622 40.4047 50.5955C41.0639 51.2256 41.8027 51.7746 42.7063 52.521C43.2556 52.2253 43.805 51.9089 44.3543 51.5718C45.5957 50.7956 46.9772 50.1439 47.8095 48.8458C47.2354 48.8458 46.7712 49.2055 46.1615 49.2136C45.4876 49.2347 44.8165 49.1185 44.1903 48.8723C43.564 48.6261 42.9962 48.2553 42.5223 47.783C41.2561 46.5823 40.0202 45.3491 38.7732 44.1348" fill="#EEC31A"/>
<path d="M42.7724 52.5751C40.8498 53.2458 39.0206 54.0841 37.0925 54.5033C34.9029 54.9837 32.6696 55.2455 30.4266 55.2848C25.4828 55.3552 20.9152 54.0111 16.68 51.4555C12.2925 48.8249 8.78495 44.9849 6.59189 40.411C4.45506 36.0678 3.77116 31.4596 4.2216 26.7081C4.48608 23.8489 5.2674 21.0592 6.52872 18.4706C7.69052 16.0638 9.04732 13.83 10.8738 11.8991C12.909 9.73563 16.0538 9.88166 17.8913 12.1452C19.2893 13.8679 19.1053 16.3234 17.6166 17.9676C15.0406 20.7691 13.5135 24.3526 13.288 28.1251C12.9474 33.0579 14.5569 37.3361 17.883 40.9383C19.9152 43.1181 22.5078 44.7168 25.3867 45.5654C28.4314 46.4965 31.6768 46.59 34.7717 45.8359C34.9855 45.819 35.2006 45.8464 35.403 45.9163C35.6055 45.9861 35.7908 46.0969 35.9472 46.2415C37.4606 47.6613 38.9025 49.1541 40.4049 50.5874C41.0806 51.2419 41.8386 51.8017 42.7724 52.5751Z" fill="#FCB415"/>
<path d="M45.9226 38.1474C48.2435 35.846 50.3364 33.7556 52.443 31.6813C57.3868 26.8135 62.3306 21.97 67.258 17.0941C68.6697 15.696 70.3259 15.1281 72.2155 15.7149C75.7394 16.8129 76.6622 20.9235 74.0228 23.5331C70.7681 26.7513 67.4942 29.9478 64.2313 33.1579C59.4055 37.904 54.5194 42.596 49.7788 47.426C47.4223 49.8302 44.217 49.4759 42.2312 47.426C38.3119 43.4019 34.2662 39.4969 30.2589 35.5539C28.2897 33.6149 28.2018 30.7375 30.0804 28.8877C31.9591 27.038 34.8649 27.0272 36.8562 28.9608C39.6174 31.6471 42.364 34.3514 45.0959 37.0738C45.3925 37.4155 45.6686 37.774 45.9226 38.1474Z" fill="#138944"/>
<path d="M29.968 3.16406C35.3018 3.20192 39.6991 4.31882 43.7502 6.64184C46.6973 8.32935 47.0022 12.0884 44.4122 14.214C42.9537 15.4147 40.9817 15.6176 39.1415 14.6034C36.0422 12.8663 32.4748 12.1109 28.9243 12.44C28.0097 12.5184 27.1033 12.7104 26.1942 12.8862C23.7223 13.3405 21.3465 11.9315 20.7587 9.64096C20.1105 7.1124 21.4234 4.7461 23.9502 4.00782C24.805 3.7563 25.6796 3.57539 26.565 3.46695C27.908 3.29387 29.2621 3.22085 29.968 3.16406Z" fill="#FCB415"/>
<path d="M55.2061 20.4016C55.2091 21.6272 54.72 22.8044 53.8455 23.6767C52.9709 24.5489 51.7817 25.0456 50.537 25.0584C47.8536 25.0801 45.5931 22.8057 45.6069 20.0824C45.6083 19.468 45.7326 18.86 45.9728 18.2929C46.2129 17.7258 46.5641 17.2108 47.0063 16.7774C47.4486 16.344 47.9732 16.0005 48.5502 15.7667C49.1273 15.5329 49.7454 15.4133 50.3694 15.4147C52.9704 15.4283 55.2061 17.7324 55.2061 20.4016Z" fill="#FCB415"/>
<path d="M95.5807 15.3661L96.1904 23.3087C96.2344 23.527 96.1942 23.7535 96.0778 23.9442C95.8922 24.0717 95.665 24.1266 95.4406 24.0984H95.1659C94.9364 24.1247 94.7048 24.0701 94.5122 23.9442C94.3739 23.761 94.3032 23.5369 94.3117 23.3087L93.7624 15.3823C93.7669 15.1278 93.7104 14.8758 93.5976 14.6467C93.546 14.5804 93.4781 14.5282 93.4002 14.4951C93.3223 14.4619 93.2371 14.449 93.1527 14.4574C93.0728 14.4512 92.9926 14.4663 92.9206 14.501C92.8487 14.5357 92.7875 14.5889 92.7435 14.6548C92.6278 14.8816 92.5596 15.129 92.5429 15.3823L91.6009 22.2784C91.5102 22.9761 91.3262 23.4548 91.0516 23.7117C90.7769 23.9686 90.3155 24.0984 89.6783 24.0984C89.1921 24.1347 88.71 23.9878 88.3297 23.6873C88.0331 23.4169 87.8381 22.9436 87.7447 22.2784L86.7916 15.3823C86.7746 15.1307 86.7035 14.8855 86.5829 14.6629C86.5375 14.5958 86.4751 14.5416 86.4019 14.5055C86.3287 14.4694 86.2472 14.4529 86.1654 14.4574C85.8157 14.4574 85.6179 14.7657 85.5722 15.3823L85.0228 23.3087C85.0377 23.5338 84.9694 23.7566 84.8306 23.9361C84.6356 24.0662 84.4 24.1237 84.1659 24.0984H83.905C83.6814 24.1267 83.4551 24.0718 83.2705 23.9442C83.1515 23.7545 83.1111 23.5269 83.1579 23.3087L83.7512 15.3661C83.8208 14.4736 84.0432 13.83 84.4186 13.4352C84.794 13.0403 85.3662 12.8438 86.1352 12.8456C86.8575 12.8456 87.3986 13.0376 87.7557 13.4271C88.1127 13.8165 88.3544 14.4628 88.4725 15.3661L89.2965 21.989C89.3088 22.1632 89.3506 22.3341 89.4201 22.4947C89.4503 22.5372 89.4922 22.5702 89.5409 22.5898C89.5896 22.6095 89.643 22.615 89.6948 22.6056C89.7417 22.6093 89.7889 22.6011 89.8317 22.5817C89.8745 22.5622 89.9115 22.5323 89.9392 22.4947C90.0087 22.3341 90.0505 22.1632 90.0628 21.989L90.8868 15.3661C91.0021 14.4736 91.2429 13.83 91.6091 13.4352C91.8197 13.2295 92.0725 13.0705 92.3505 12.9688C92.6286 12.8671 92.9255 12.8251 93.2214 12.8456C93.9986 12.8456 94.5727 13.0376 94.9462 13.4271C95.3197 13.8165 95.5065 14.4628 95.5807 15.3661Z" fill="#FCB415"/>
<path d="M99.3571 16.3613L100.73 21.8862C100.771 22.1334 100.88 22.3646 101.046 22.5542C101.227 22.6843 101.45 22.7449 101.672 22.7246C101.768 22.7297 101.863 22.7157 101.953 22.6837C102.042 22.6516 102.125 22.6021 102.194 22.538C102.352 22.3517 102.455 22.1262 102.491 21.8862L103.798 16.3613C103.829 16.1301 103.933 15.9143 104.095 15.7447C104.298 15.6222 104.536 15.5681 104.773 15.5905H105.001C105.325 15.5905 105.529 15.6419 105.611 15.7447C105.693 15.8474 105.693 16.053 105.611 16.3613L103.73 24.0984C103.439 25.2991 102.994 26.2005 102.395 26.8027C101.752 27.4294 100.902 27.8076 99.9998 27.8682C99.8212 27.8991 99.6374 27.8613 99.4862 27.7628C99.3335 27.6194 99.2364 27.4282 99.2116 27.2219L99.1566 26.9974C99.1259 26.9193 99.1118 26.8358 99.1151 26.7521C99.1184 26.6684 99.1391 26.5862 99.1759 26.5106C99.2998 26.3864 99.4686 26.3154 99.6455 26.3132C100.179 26.268 100.681 26.0492 101.074 25.6912C101.476 25.2458 101.759 24.7085 101.898 24.1281C101.643 24.2269 101.369 24.2685 101.096 24.2498C100.849 24.2692 100.602 24.2371 100.369 24.1555C100.136 24.074 99.923 23.9448 99.7444 23.7766C99.4478 23.4628 99.1951 22.8886 98.9863 22.0539L97.5224 16.3748C97.4437 16.0665 97.4437 15.8609 97.5224 15.7582C97.6012 15.6554 97.8044 15.604 98.1322 15.604H98.3601C98.5973 15.5816 98.8354 15.6357 99.0385 15.7582C99.2035 15.9234 99.3145 16.1334 99.3571 16.3613Z" fill="#FCB415"/>
<path d="M111.049 16.0178L110.893 15.8637C110.726 15.7434 110.611 15.5658 110.571 15.3661C110.598 15.1605 110.695 14.9699 110.846 14.8252L111.67 13.8489C112.274 13.1512 112.948 12.8024 113.692 12.8024C114.354 12.8024 114.84 12.9827 115.147 13.3432C115.455 13.711 115.609 14.2871 115.609 15.0767V23.3087C115.637 23.5327 115.581 23.7591 115.449 23.9443C115.261 24.0711 115.033 24.126 114.807 24.0984H114.581C114.354 24.1259 114.125 24.0711 113.936 23.9443C113.807 23.7582 113.752 23.5323 113.779 23.3087V15.6852C113.793 15.3445 113.775 15.0033 113.727 14.6657C113.692 14.544 113.593 14.4845 113.431 14.4845C113.269 14.4845 113.046 14.6738 112.733 15.0524L112.024 15.9556C111.84 16.1828 111.681 16.3018 111.555 16.3072C111.356 16.2748 111.176 16.1719 111.049 16.0178Z" fill="#FCB415"/>
<path d="M117.828 15.7609L117.773 15.7446C117.698 15.72 117.634 15.6702 117.593 15.6039C117.552 15.5376 117.536 15.4591 117.548 15.3823C117.548 14.9252 117.564 14.4682 117.6 14.0112C117.715 12.2624 118.122 11.387 118.819 11.3852C118.928 11.3801 119.037 11.4 119.136 11.4431C119.236 11.4863 119.324 11.5517 119.393 11.634C119.54 11.8227 119.614 12.0566 119.602 12.2939C119.554 12.8377 119.388 13.3651 119.116 13.8408C118.857 14.4243 118.56 14.9907 118.226 15.5364C118.103 15.7338 117.965 15.8068 117.828 15.7609Z" fill="#FCB415"/>
<path d="M120.456 23.1546V22.9328C120.43 22.7308 120.479 22.5262 120.594 22.3568C120.687 22.2703 120.868 22.2622 121.143 22.3298C121.972 22.5507 122.827 22.6608 123.686 22.657C124.11 22.6818 124.536 22.6267 124.939 22.4947C125.053 22.4489 125.151 22.3685 125.216 22.265C125.282 22.1616 125.313 22.0404 125.304 21.9187C125.309 21.8178 125.292 21.7169 125.253 21.6234C125.214 21.5299 125.155 21.446 125.079 21.3778C124.808 21.1714 124.51 21.0039 124.192 20.8802L122.308 20.0689C121.792 19.8742 121.335 19.5564 120.975 19.144C120.693 18.7287 120.555 18.2342 120.583 17.7351C120.583 16.9238 120.857 16.3478 121.385 15.9691C121.912 15.5905 122.758 15.4039 123.911 15.4039C124.594 15.3983 125.274 15.4848 125.933 15.6609C126.16 15.7049 126.371 15.8065 126.545 15.9556C126.649 16.1255 126.694 16.3237 126.675 16.5208V16.7264C126.704 16.9301 126.651 17.1371 126.526 17.3024C126.43 17.3862 126.252 17.3916 125.963 17.3024C125.288 17.1141 124.589 17.023 123.887 17.032C123.485 17.007 123.082 17.0632 122.703 17.1969C122.595 17.2404 122.504 17.3158 122.441 17.4127C122.379 17.5096 122.348 17.6232 122.354 17.7378C122.349 17.8268 122.362 17.916 122.392 18C122.422 18.0841 122.469 18.1614 122.53 18.2273C122.719 18.3942 122.938 18.5253 123.175 18.614L125.194 19.4713C125.749 19.6638 126.244 19.9946 126.631 20.4313C126.935 20.8575 127.086 21.3715 127.059 21.8917C127.059 22.703 126.784 23.3195 126.216 23.709C125.647 24.0984 124.76 24.2931 123.541 24.2931C122.736 24.2955 121.934 24.1974 121.154 24.001C120.943 23.9627 120.747 23.8693 120.585 23.7306C120.48 23.5575 120.435 23.3553 120.456 23.1546Z" fill="#FCB415"/>
<path d="M128.07 16.6344V16.464C128.052 16.2891 128.095 16.1133 128.193 15.9664C128.324 15.8504 128.488 15.7783 128.663 15.7609L129.586 15.5905L129.797 13.9679C129.802 13.7858 129.869 13.6105 129.987 13.4703C130.143 13.3745 130.326 13.3327 130.509 13.3513H130.737C130.914 13.3307 131.093 13.3728 131.242 13.4703C131.341 13.6168 131.384 13.7932 131.363 13.9679V15.5905H133.802C134.007 15.5681 134.213 15.6159 134.387 15.7257C134.509 15.8952 134.562 16.1037 134.535 16.3099V16.5154C134.562 16.7215 134.509 16.9301 134.387 17.0995C134.214 17.2107 134.007 17.2585 133.802 17.2348H131.363V21.129C131.363 22.1269 131.816 22.6218 132.736 22.6218C133.211 22.6271 133.686 22.5754 134.148 22.4677C134.439 22.4109 134.629 22.4217 134.722 22.5028C134.839 22.6673 134.887 22.8696 134.857 23.068V23.2736C134.876 23.4841 134.827 23.6954 134.717 23.8766C134.558 24.0211 134.357 24.1113 134.142 24.1335C133.677 24.2181 133.204 24.2634 132.731 24.2687C130.64 24.2687 129.594 23.2168 129.594 21.1128V17.2348H128.688C128.603 17.2601 128.513 17.2622 128.427 17.2411C128.341 17.2199 128.263 17.1761 128.2 17.1145C128.138 17.0529 128.093 16.9756 128.072 16.8911C128.05 16.8065 128.052 16.7178 128.078 16.6344H128.07Z" fill="#FCB415"/>
<path d="M140.753 22.1432V13.7354C140.726 13.5127 140.782 13.2878 140.91 13.1025C141.099 12.9762 141.328 12.9214 141.555 12.9484H141.781C142.008 12.9209 142.237 12.9757 142.426 13.1025C142.554 13.2878 142.61 13.5127 142.583 13.7354V21.7483C142.571 21.8383 142.581 21.9298 142.611 22.0155C142.641 22.1012 142.691 22.1788 142.758 22.242C142.824 22.3053 142.904 22.3525 142.992 22.3799C143.08 22.4074 143.173 22.4143 143.264 22.4001H146.974C147.084 22.3651 147.201 22.3605 147.312 22.3866C147.424 22.4127 147.527 22.4686 147.608 22.5482C147.69 22.6278 147.748 22.728 147.776 22.8378C147.803 22.9476 147.8 23.0628 147.765 23.1708V23.325C147.799 23.4322 147.802 23.5462 147.774 23.655C147.747 23.7637 147.69 23.8631 147.609 23.9425C147.529 24.0218 147.428 24.0783 147.318 24.1057C147.208 24.1332 147.092 24.1307 146.983 24.0984H142.739C142.042 24.0984 141.539 23.9442 141.226 23.636C140.913 23.3277 140.753 22.8301 140.753 22.1432Z" fill="#FCB415"/>
<path d="M155.947 18.2138V21.5428C155.947 22.4929 155.651 23.187 155.058 23.6251C154.464 24.0632 153.524 24.2841 152.237 24.2877C149.878 24.2877 148.699 23.407 148.699 21.6456C148.699 20.7441 148.992 20.0888 149.578 19.6795C150.164 19.2703 151.056 19.062 152.253 19.0548H154.176V18.2138C154.197 18.0181 154.163 17.8205 154.078 17.6423C153.994 17.464 153.861 17.3119 153.695 17.2023C153.377 17.0076 152.851 16.9103 152.119 16.9103C151.505 16.903 150.893 16.9547 150.289 17.0644C150.034 17.1104 149.864 17.0969 149.776 17.0211C149.688 16.9454 149.647 16.7805 149.647 16.5154V16.2747C149.627 16.0913 149.673 15.9068 149.776 15.7528C149.914 15.6311 150.088 15.5554 150.273 15.5365C150.849 15.4497 151.431 15.4045 152.014 15.4012C153.34 15.4012 154.328 15.6239 154.978 16.0692C155.621 16.5154 155.947 17.2294 155.947 18.2138ZM154.17 21.459V20.3935H152.248C151.787 20.3576 151.325 20.4513 150.916 20.6639C150.768 20.7703 150.652 20.9124 150.577 21.0763C150.502 21.2402 150.471 21.4205 150.487 21.5996C150.471 21.774 150.501 21.9495 150.575 22.1089C150.648 22.2682 150.763 22.4059 150.907 22.5083C151.302 22.7177 151.749 22.8115 152.196 22.7787C152.904 22.7787 153.41 22.6813 153.712 22.4866C154.014 22.2919 154.167 21.9485 154.17 21.4563V21.459Z" fill="#FCB415"/>
<path d="M159.449 18.7276V23.3249C159.482 23.4323 159.484 23.5464 159.456 23.655C159.428 23.7636 159.371 23.8627 159.29 23.942C159.21 24.0212 159.109 24.0776 158.999 24.1051C158.889 24.1326 158.773 24.1303 158.664 24.0984H158.439C158.329 24.1313 158.213 24.1343 158.102 24.1071C157.992 24.08 157.89 24.0236 157.81 23.9441C157.729 23.8646 157.672 23.765 157.644 23.6559C157.617 23.5468 157.62 23.4324 157.653 23.3249V18.7276C157.653 16.519 158.919 15.4147 161.452 15.4147C162.753 15.4147 163.706 15.6852 164.319 16.226C164.931 16.7669 165.234 17.608 165.234 18.7384V23.3357C165.266 23.4432 165.268 23.5572 165.24 23.6658C165.212 23.7744 165.155 23.8736 165.075 23.9528C164.994 24.032 164.894 24.0884 164.783 24.1159C164.673 24.1434 164.557 24.1411 164.448 24.1092H164.223C164.114 24.1421 163.997 24.1451 163.887 24.1179C163.776 24.0908 163.675 24.0344 163.594 23.9549C163.513 23.8754 163.456 23.7758 163.428 23.6667C163.401 23.5577 163.404 23.4432 163.437 23.3357V18.7384C163.437 18.1218 163.293 17.6873 163.003 17.4349C162.712 17.1834 162.179 17.059 161.452 17.059C160.724 17.059 160.174 17.1834 159.883 17.4349C159.592 17.6864 159.449 18.1191 159.449 18.7276Z" fill="#FCB415"/>
<path d="M174.484 18.4382V18.5924C174.484 20.6495 173.235 21.6789 170.738 21.6807C170.195 21.6569 169.652 21.6913 169.117 21.7835C169.012 21.8011 168.917 21.8559 168.85 21.9375C168.783 22.0191 168.748 22.122 168.752 22.227C168.752 22.4217 168.881 22.5542 169.134 22.6218C169.663 22.7113 170.201 22.7458 170.738 22.7246C172.237 22.7246 173.276 22.9049 173.855 23.2655C174.426 23.6224 174.712 24.2552 174.712 25.1585C174.712 26.1321 174.421 26.819 173.839 27.2192C173.256 27.6194 172.223 27.8196 170.738 27.8196C169.205 27.8196 168.149 27.6303 167.568 27.2517C166.991 26.8947 166.717 26.3051 166.717 25.5046C166.696 25.1603 166.77 24.8169 166.933 24.5114C167.096 24.2059 167.34 23.9499 167.64 23.7712C167.427 23.6507 167.253 23.4747 167.137 23.2628C167.02 23.0509 166.965 22.8112 166.978 22.5704C166.978 21.806 167.435 21.3147 168.351 21.0966C167.408 20.6495 166.937 19.8147 166.939 18.5924V18.4382C166.916 18.0136 166.994 17.5896 167.169 17.2006C167.343 16.8115 167.608 16.4684 167.942 16.199C168.608 15.6581 169.54 15.3922 170.738 15.4012C171.299 15.3913 171.858 15.483 172.386 15.6717L173.377 14.8306C173.507 14.6871 173.682 14.5916 173.874 14.5602C174.062 14.5881 174.233 14.6846 174.352 14.8306L174.512 14.9848C174.654 15.1038 174.75 15.2669 174.786 15.4472C174.775 15.5386 174.744 15.6267 174.697 15.7062C174.65 15.7857 174.587 15.8549 174.512 15.9096L173.797 16.6669C174.03 16.8992 174.212 17.1766 174.33 17.4815C174.448 17.7864 174.501 18.1122 174.484 18.4382ZM170.738 24.2363C170.208 24.2482 169.679 24.2247 169.153 24.166C168.721 24.3463 168.506 24.7123 168.508 25.264C168.486 25.4368 168.517 25.612 168.598 25.7669C168.679 25.9218 168.805 26.0491 168.961 26.1321C169.263 26.2727 169.853 26.3457 170.738 26.3457C171.622 26.3457 172.16 26.27 172.463 26.1212C172.765 25.9725 172.916 25.6777 172.916 25.2315C172.916 24.7853 172.77 24.5203 172.482 24.4202C172.193 24.3201 171.622 24.2363 170.738 24.2363ZM172.691 18.5924V18.4382C172.706 18.2276 172.673 18.0162 172.593 17.8202C172.513 17.6243 172.389 17.449 172.229 17.3078C171.922 17.0617 171.422 16.9373 170.738 16.9373C169.403 16.9373 168.735 17.4412 168.733 18.449V18.6032C168.713 18.8213 168.744 19.0409 168.823 19.2456C168.902 19.4503 169.027 19.6347 169.189 19.785C169.496 20.0284 170.013 20.1528 170.73 20.1528C171.446 20.1528 171.941 20.0284 172.237 19.785C172.398 19.6321 172.523 19.4456 172.601 19.2392C172.68 19.0329 172.71 18.8118 172.691 18.5924Z" fill="#FCB415"/>
<path d="M177.829 16.3613V20.9424C177.829 21.559 177.975 21.9935 178.266 22.2459C178.557 22.4983 179.079 22.6236 179.832 22.6218C180.577 22.6218 181.094 22.4965 181.383 22.2459C181.673 21.9953 181.819 21.5608 181.823 20.9424V16.3613C181.795 16.1437 181.851 15.9238 181.979 15.7447C182.162 15.6194 182.385 15.5645 182.606 15.5905H182.831C183.053 15.5641 183.277 15.619 183.46 15.7447C183.587 15.9243 183.643 16.1438 183.616 16.3613V20.9424C183.616 22.0728 183.309 22.913 182.694 23.4629C182.076 24.0037 181.125 24.2742 179.834 24.2742C177.302 24.2742 176.037 23.1591 176.039 20.9289V16.3613C176.011 16.1437 176.067 15.9238 176.195 15.7447C176.378 15.6194 176.6 15.5645 176.821 15.5905H177.047C177.268 15.5641 177.492 15.619 177.676 15.7447C177.802 15.9247 177.857 16.1441 177.829 16.3613Z" fill="#FCB415"/>
<path d="M192.274 18.2138V21.5428C192.274 22.4929 191.977 23.187 191.384 23.6251C190.79 24.0632 189.849 24.2841 188.56 24.2877C186.204 24.2877 185.025 23.407 185.025 21.6456C185.025 20.7441 185.318 20.0888 185.904 19.6795C186.49 19.2703 187.382 19.062 188.579 19.0548H190.502V18.2138C190.523 18.0181 190.489 17.8205 190.405 17.6423C190.32 17.464 190.187 17.3119 190.021 17.2023C189.703 17.0076 189.177 16.9103 188.445 16.9103C187.831 16.9029 187.219 16.9545 186.616 17.0644C186.36 17.1104 186.19 17.0969 186.102 17.0211C186.014 16.9454 185.97 16.7805 185.97 16.5154V16.2747C185.951 16.091 185.998 15.9064 186.102 15.7528C186.24 15.6316 186.413 15.556 186.596 15.5365C187.174 15.4498 187.757 15.4046 188.341 15.4012C189.664 15.4012 190.652 15.6239 191.304 16.0692C191.947 16.5154 192.274 17.2294 192.274 18.2138ZM190.497 21.459V20.3935H188.574C188.112 20.3587 187.65 20.4524 187.239 20.6639C187.093 20.771 186.977 20.9132 186.902 21.0771C186.828 21.2409 186.797 21.4208 186.813 21.5996C186.797 21.774 186.827 21.9495 186.901 22.1089C186.975 22.2682 187.089 22.4059 187.234 22.5083C187.628 22.7177 188.075 22.8115 188.522 22.7787C189.23 22.7787 189.736 22.6813 190.038 22.4866C190.34 22.2919 190.493 21.9485 190.497 21.4563V21.459Z" fill="#FCB415"/>
<path d="M201.351 18.4382V18.5924C201.351 20.6495 200.102 21.6789 197.605 21.6807C197.062 21.6569 196.519 21.6913 195.984 21.7835C195.879 21.8011 195.784 21.8559 195.717 21.9375C195.65 22.0191 195.615 22.122 195.619 22.227C195.619 22.4217 195.748 22.5542 196.001 22.6218C196.53 22.7113 197.068 22.7458 197.605 22.7246C199.101 22.7246 200.14 22.9049 200.722 23.2655C201.293 23.6224 201.579 24.2553 201.579 25.1585C201.579 26.1321 201.285 26.819 200.706 27.2192C200.126 27.6195 199.091 27.8196 197.605 27.8196C196.072 27.8196 195.016 27.6303 194.435 27.2517C193.855 26.8731 193.569 26.2844 193.578 25.4857C193.555 25.1409 193.63 24.7966 193.793 24.4907C193.957 24.1848 194.202 23.9293 194.504 23.7522C194.292 23.6318 194.118 23.4558 194.001 23.2439C193.884 23.032 193.829 22.7923 193.842 22.5515C193.842 21.7871 194.3 21.2958 195.215 21.0777C194.274 20.6305 193.803 19.7958 193.803 18.5734V18.4193C193.78 17.9947 193.859 17.5707 194.033 17.1817C194.207 16.7926 194.472 16.4495 194.806 16.1801C195.474 15.6392 196.406 15.3733 197.602 15.3823C198.163 15.3724 198.722 15.4641 199.25 15.6527L200.241 14.8117C200.371 14.6682 200.546 14.5727 200.739 14.5413C200.927 14.5692 201.097 14.6657 201.216 14.8117L201.376 14.9658C201.518 15.0849 201.615 15.248 201.65 15.4283C201.639 15.5197 201.609 15.6078 201.561 15.6873C201.514 15.7668 201.451 15.836 201.376 15.8907L200.662 16.6479C200.897 16.8822 201.081 17.1626 201.199 17.471C201.318 17.7794 201.37 18.1089 201.351 18.4382ZM197.605 24.2363C197.075 24.2482 196.546 24.2247 196.02 24.166C195.588 24.3463 195.373 24.7123 195.374 25.264C195.353 25.4371 195.385 25.6125 195.466 25.7675C195.547 25.9224 195.674 26.0494 195.83 26.1321C196.133 26.2727 196.723 26.3457 197.607 26.3457C198.492 26.3457 199.03 26.27 199.332 26.1212C199.634 25.9725 199.785 25.6777 199.785 25.2315C199.785 24.7853 199.64 24.5203 199.352 24.4202C199.063 24.3202 198.486 24.2363 197.605 24.2363ZM199.558 18.5924V18.4382C199.573 18.2277 199.539 18.0164 199.459 17.8206C199.379 17.6247 199.255 17.4494 199.096 17.3078C198.788 17.0617 198.289 16.9373 197.605 16.9373C196.27 16.9373 195.602 17.4412 195.6 18.449V18.6032C195.58 18.8234 195.611 19.0452 195.691 19.2519C195.771 19.4585 195.897 19.6445 196.061 19.7958C196.369 20.0392 196.885 20.1636 197.605 20.1636C198.324 20.1636 198.816 20.0392 199.113 19.7958C199.274 19.641 199.397 19.4524 199.474 19.244C199.551 19.0357 199.58 18.813 199.558 18.5924Z" fill="#FCB415"/>
<path d="M210.34 18.952C210.34 18.998 210.34 19.2495 210.305 19.7065C210.304 19.9373 210.225 20.1611 210.08 20.342C209.883 20.4659 209.65 20.5203 209.418 20.4962H204.573V20.8721C204.573 21.5031 204.768 21.9538 205.158 22.2243C205.548 22.4947 206.182 22.6272 207.067 22.6272C207.829 22.6278 208.589 22.537 209.33 22.3568C209.604 22.2865 209.797 22.2973 209.896 22.3811C210.019 22.5469 210.072 22.7535 210.044 22.9571V23.1789C210.067 23.3797 210.022 23.5824 209.915 23.7549C209.747 23.8939 209.545 23.9872 209.33 24.0254C208.591 24.2169 207.83 24.3079 207.067 24.2958C205.593 24.2958 204.51 24.001 203.817 23.4115C203.125 22.8219 202.779 21.8898 202.779 20.6152V19.1224C202.779 16.6506 204.068 15.4147 206.646 15.4147C207.855 15.4147 208.77 15.7149 209.393 16.3153C210.015 16.9156 210.331 17.7946 210.34 18.952ZM204.573 18.6248V19.0548H208.651V18.6248C208.651 17.4944 207.967 16.9283 206.597 16.9265C205.227 16.9247 204.553 17.4908 204.573 18.6248Z" fill="#FCB415"/>
<path d="M83.5616 40.8031V38.7857H85.0778V40.8031C85.0778 43.8284 86.6277 45.341 89.7277 45.341H91.859V42.2959C91.859 38.618 93.7404 36.7791 97.5032 36.7791H99.6565V43.1153C99.6565 44.6081 100.237 45.3545 101.398 45.3545H101.898V46.8689H101.387C100.321 46.8689 99.5082 46.5354 98.9479 45.8683C98.3876 45.2013 98.1075 44.2836 98.1075 43.1153V38.2475H97.5032C96.0823 38.2475 95.0405 38.5675 94.3776 39.2075C93.7148 39.8476 93.3843 40.8797 93.3861 42.304V46.8635H89.7277C87.7337 46.8635 86.2075 46.3353 85.1492 45.2788C84.0908 44.2223 83.5616 42.7304 83.5616 40.8031Z" fill="#168944"/>
<path d="M109.684 46.8554H101.489V45.341H109.684V46.8554Z" fill="#168944"/>
<path d="M109.275 45.341H109.808C111.011 45.341 111.611 44.5738 111.61 43.0396V31.1188H113.159V43.0396C113.159 44.2096 112.865 45.1381 112.277 45.825C111.689 46.5119 110.87 46.8554 109.819 46.8554H109.286L109.275 45.341Z" fill="#168944"/>
<path d="M116.076 41.7496C116.076 40.4067 116.619 39.119 117.583 38.1697C118.548 37.2204 119.856 36.6871 121.22 36.6871C121.917 36.663 122.611 36.7873 123.255 37.0515C123.898 37.3157 124.476 37.7135 124.95 38.2177C125.902 39.2436 126.38 40.5552 126.383 42.1525V46.328C126.42 47.6623 125.927 48.958 125.01 49.941C124.095 50.9092 122.875 51.3933 121.352 51.3933C120.514 51.3938 119.687 51.2148 118.927 50.8686C118.184 50.5436 117.534 50.0451 117.031 49.4164L118.13 48.4077C118.486 48.8783 118.959 49.2509 119.503 49.4894C120.074 49.7508 120.697 49.8847 121.327 49.8815C122.23 49.9198 123.112 49.6093 123.785 49.0162C124.406 48.4559 124.781 47.6802 124.832 46.8527H121.536C119.95 46.8527 118.645 46.3713 117.622 45.4086C117.117 44.9406 116.718 44.3727 116.451 43.742C116.185 43.1114 116.057 42.4324 116.076 41.7496ZM117.592 41.7496C117.573 42.2361 117.661 42.7208 117.851 43.1703C118.041 43.6199 118.327 44.0237 118.69 44.3539C119.472 45.0306 120.488 45.3842 121.528 45.341H124.845V42.0525C124.89 41.032 124.531 40.0343 123.843 39.2697C123.511 38.914 123.104 38.6331 122.652 38.4464C122.199 38.2597 121.71 38.1715 121.22 38.188C120.744 38.1851 120.273 38.2749 119.833 38.452C119.393 38.6292 118.993 38.8903 118.656 39.2203C118.318 39.5503 118.051 39.9427 117.868 40.3749C117.686 40.8071 117.592 41.2707 117.592 41.7388V41.7496Z" fill="#168944"/>
<path d="M134.085 45.341C135.588 45.341 136.34 44.4467 136.34 42.6583V31.1188H137.878V42.6366C137.878 43.9564 137.537 44.9867 136.864 45.7358C136.518 46.1098 136.093 46.4041 135.618 46.5976C135.143 46.7911 134.631 46.8791 134.118 46.8554H128.35V45.341H134.085ZM128.924 33.4987H129.825C129.679 33.3648 129.563 33.2028 129.483 33.0227C129.404 32.8427 129.363 32.6484 129.363 32.4521C129.361 32.2403 129.403 32.0303 129.488 31.8355C129.572 31.6408 129.697 31.4658 129.855 31.3217C130.012 31.1708 130.197 31.0522 130.401 30.9728C130.605 30.8934 130.823 30.8548 131.042 30.8592C131.295 30.8572 131.546 30.9104 131.777 31.0152C132.007 31.1199 132.211 31.2735 132.374 31.465L131.844 31.9464C131.749 31.8341 131.63 31.7449 131.494 31.6858C131.359 31.6267 131.212 31.5993 131.064 31.6056C130.81 31.5981 130.564 31.6884 130.377 31.8571C130.286 31.9409 130.214 32.0429 130.167 32.1563C130.12 32.2697 130.098 32.3918 130.102 32.5143C130.099 32.769 130.198 33.0147 130.377 33.1985C130.461 33.2936 130.565 33.3699 130.681 33.4221C130.798 33.4744 130.925 33.5014 131.053 33.5014H132.569V34.2288H128.924V33.4987ZM129.764 44.2728V35.078H131.3V44.2728H129.764Z" fill="#168944"/>
<path d="M143.041 46.8554H141.525V31.1188H143.041V46.8554Z" fill="#168944"/>
<path d="M151.564 38.7857H153.08V40.8031C153.08 43.8284 154.63 45.341 157.73 45.341H159.85V42.2959C159.85 38.618 161.732 36.7791 165.495 36.7791H167.648V43.1153C167.648 44.6081 168.228 45.3545 169.389 45.3545H169.9V46.8689H169.389C168.324 46.8689 167.511 46.5354 166.95 45.8683C166.39 45.2013 166.11 44.2836 166.11 43.1153V38.2475H165.517C164.097 38.2475 163.056 38.5675 162.391 39.2075C161.726 39.8476 161.396 40.8797 161.399 42.304V46.8635H157.73C155.736 46.8635 154.21 46.3353 153.151 45.2788C152.093 44.2223 151.564 42.7331 151.564 40.8112V38.7857ZM156.173 49.0324C156.26 48.936 156.368 48.8592 156.488 48.807C156.609 48.7547 156.739 48.7283 156.87 48.7295C157.004 48.7288 157.136 48.7545 157.259 48.8051C157.382 48.8558 157.494 48.9303 157.587 49.0243C157.685 49.1125 157.763 49.2199 157.816 49.3397C157.869 49.4594 157.896 49.5887 157.895 49.7193C157.895 49.8513 157.867 49.9819 157.814 50.1032C157.761 50.2245 157.684 50.334 157.587 50.4252C157.393 50.6041 157.136 50.7012 156.87 50.6956C156.605 50.6921 156.352 50.5871 156.164 50.4028C155.977 50.2185 155.869 49.9695 155.865 49.7085C155.865 49.5809 155.893 49.4548 155.946 49.3383C155.999 49.2218 156.076 49.1176 156.173 49.0324ZM159.534 49.0324C159.622 48.9363 159.729 48.8595 159.849 48.8073C159.969 48.7551 160.098 48.7286 160.229 48.7295C160.363 48.7286 160.496 48.7542 160.62 48.8048C160.743 48.8555 160.855 48.9301 160.949 49.0243C161.047 49.1125 161.125 49.2199 161.178 49.3397C161.231 49.4594 161.258 49.5887 161.257 49.7193C161.256 49.8513 161.229 49.9819 161.176 50.1032C161.123 50.2245 161.046 50.334 160.949 50.4252C160.754 50.6048 160.496 50.7019 160.229 50.6956C159.964 50.6928 159.711 50.5879 159.524 50.4034C159.336 50.2189 159.23 49.9694 159.227 49.7085C159.227 49.5808 159.254 49.4544 159.307 49.3379C159.36 49.2213 159.437 49.1172 159.534 49.0324Z" fill="#168944"/>
<path d="M177.686 46.8554H169.491V45.341H177.686V46.8554Z" fill="#168944"/>
<path d="M185.473 46.8554H177.277V45.341H185.473V46.8554Z" fill="#168944"/>
<path d="M185.064 46.8554V45.341H186.272C187.459 45.341 188.053 44.5738 188.055 43.0396V36.779H189.593V43.0531C189.593 44.5856 190.194 45.3527 191.395 45.3545H192.581V46.8689H191.395C190.205 46.8689 189.351 46.384 188.835 45.414C188.597 45.8753 188.228 46.2585 187.773 46.5168C187.318 46.7752 186.797 46.8975 186.272 46.8689L185.064 46.8554ZM186.217 34.5696C186.213 34.4382 186.235 34.3073 186.282 34.1843C186.329 34.0613 186.401 33.9487 186.492 33.8529C186.584 33.7569 186.695 33.6809 186.819 33.6301C186.942 33.5793 187.075 33.5548 187.209 33.5582C187.341 33.5568 187.472 33.5822 187.594 33.6329C187.716 33.6837 187.826 33.7585 187.918 33.8529C188.014 33.9461 188.09 34.0577 188.141 34.181C188.192 34.3043 188.217 34.4365 188.214 34.5696C188.213 34.7656 188.153 34.9569 188.042 35.1193C187.93 35.2818 187.773 35.4082 187.588 35.4825C187.404 35.5568 187.202 35.5758 187.007 35.537C186.812 35.4983 186.633 35.4035 186.492 35.2646C186.311 35.0778 186.212 34.8279 186.217 34.5696ZM189.497 34.5696C189.494 34.4363 189.52 34.304 189.571 34.1808C189.623 34.0575 189.699 33.9459 189.796 33.8529C189.887 33.7582 189.996 33.6831 190.118 33.6323C190.239 33.5816 190.37 33.5563 190.502 33.5582C190.636 33.5574 190.768 33.5831 190.891 33.6338C191.014 33.6844 191.126 33.7589 191.219 33.8529C191.318 33.9447 191.397 34.0559 191.45 34.1793C191.502 34.3027 191.529 34.4356 191.527 34.5696C191.528 34.6986 191.501 34.8263 191.448 34.9443C191.395 35.0623 191.317 35.1678 191.219 35.2538C191.127 35.3498 191.016 35.4261 190.892 35.4782C190.769 35.5303 190.636 35.557 190.502 35.5567C190.369 35.5597 190.237 35.5352 190.114 35.4849C189.991 35.4346 189.88 35.3596 189.788 35.2646C189.693 35.1749 189.617 35.067 189.566 34.9475C189.514 34.828 189.488 34.6994 189.489 34.5696H189.497Z" fill="#168944"/>
<path d="M192.175 45.341H197.459L193.812 39.9756V36.779H201.354C204.152 36.779 205.551 37.7346 205.553 39.6456C205.545 40.0862 205.452 40.5212 205.279 40.9275C205.059 41.4328 204.773 41.9074 204.427 42.3391C204.037 42.8422 203.691 43.2667 203.383 43.6102C203.076 43.9536 202.647 44.4215 202.104 44.9921C201.939 45.1517 201.829 45.2625 201.752 45.3545H207.182V46.8689H192.175V45.341ZM195.575 38.2799V39.8539L199.283 45.341H199.95C200.102 45.1787 200.457 44.8055 201.016 44.2214C201.574 43.6372 201.953 43.2271 202.153 42.9909C202.351 42.7547 202.625 42.4221 202.977 41.993C203.258 41.6565 203.495 41.2868 203.683 40.8923C203.808 40.6156 203.874 40.3164 203.878 40.0134C203.878 39.3301 203.635 38.8704 203.15 38.6342C202.665 38.398 201.91 38.2799 200.887 38.2799H195.575ZM198.547 34.529C198.545 34.3976 198.571 34.2672 198.621 34.1456C198.672 34.0239 198.746 33.9134 198.841 33.8205C198.934 33.7233 199.047 33.6462 199.172 33.5941C199.298 33.542 199.432 33.5159 199.568 33.5176C199.704 33.518 199.838 33.5449 199.963 33.597C200.088 33.649 200.201 33.7249 200.296 33.8205C200.396 33.9103 200.477 34.0197 200.531 34.1417C200.586 34.2637 200.615 34.3956 200.615 34.529C200.616 34.665 200.588 34.7997 200.533 34.9245C200.478 35.0493 200.398 35.1615 200.296 35.2538C200.202 35.3498 200.089 35.4261 199.964 35.4782C199.839 35.5302 199.704 35.5569 199.568 35.5567C199.432 35.559 199.297 35.5332 199.172 35.4811C199.047 35.4289 198.934 35.3515 198.841 35.2538C198.745 35.1583 198.67 35.0451 198.619 34.9206C198.569 34.7961 198.544 34.663 198.547 34.529Z" fill="#168944"/>
<path d="M206.784 45.341H207.317C208.516 45.341 209.116 44.5738 209.118 43.0396V31.1188H210.662V43.0396C210.662 44.2096 210.367 45.1381 209.777 45.825C209.476 46.1705 209.097 46.443 208.672 46.6217C208.246 46.8003 207.784 46.8803 207.322 46.8554H206.789L206.784 45.341Z" fill="#168944"/>
<path d="M83.5616 40.8031V38.7857H85.0778V40.8031C85.0778 43.8284 86.6277 45.341 89.7277 45.341H91.859V42.2959C91.859 38.618 93.7404 36.7791 97.5032 36.7791H99.6565V43.1153C99.6565 44.6081 100.237 45.3545 101.398 45.3545H101.898V46.8689H101.387C100.321 46.8689 99.5082 46.5354 98.9479 45.8683C98.3876 45.2013 98.1075 44.2836 98.1075 43.1153V38.2475H97.5032C96.0823 38.2475 95.0405 38.5675 94.3776 39.2075C93.7148 39.8476 93.3843 40.8797 93.3861 42.304V46.8635H89.7277C87.7337 46.8635 86.2075 46.3353 85.1492 45.2788C84.0908 44.2223 83.5616 42.7304 83.5616 40.8031Z" fill="#010101"/>
<path d="M109.684 46.8554H101.489V45.341H109.684V46.8554Z" fill="#010101"/>
<path d="M109.275 45.341H109.808C111.011 45.341 111.611 44.5738 111.61 43.0396V31.1188H113.159V43.0396C113.159 44.2096 112.865 45.1381 112.277 45.825C111.689 46.5119 110.87 46.8554 109.819 46.8554H109.286L109.275 45.341Z" fill="#010101"/>
<path d="M116.076 41.7496C116.076 40.4067 116.619 39.119 117.583 38.1697C118.548 37.2204 119.856 36.6871 121.22 36.6871C121.917 36.663 122.611 36.7873 123.255 37.0515C123.898 37.3157 124.476 37.7135 124.95 38.2177C125.902 39.2436 126.38 40.5552 126.383 42.1525V46.328C126.42 47.6623 125.927 48.958 125.01 49.941C124.095 50.9092 122.875 51.3933 121.352 51.3933C120.514 51.3938 119.687 51.2148 118.927 50.8686C118.184 50.5436 117.534 50.0451 117.031 49.4164L118.13 48.4077C118.486 48.8783 118.959 49.2509 119.503 49.4894C120.074 49.7508 120.697 49.8847 121.327 49.8815C122.23 49.9198 123.112 49.6093 123.785 49.0162C124.406 48.4559 124.781 47.6802 124.832 46.8527H121.536C119.95 46.8527 118.645 46.3713 117.622 45.4086C117.117 44.9406 116.718 44.3727 116.451 43.742C116.185 43.1114 116.057 42.4324 116.076 41.7496ZM117.592 41.7496C117.573 42.2361 117.661 42.7208 117.851 43.1703C118.041 43.6199 118.327 44.0237 118.69 44.3539C119.472 45.0306 120.488 45.3842 121.528 45.341H124.845V42.0525C124.89 41.032 124.531 40.0343 123.843 39.2697C123.511 38.914 123.104 38.6331 122.652 38.4464C122.199 38.2597 121.71 38.1715 121.22 38.188C120.744 38.1851 120.273 38.2749 119.833 38.452C119.393 38.6292 118.993 38.8903 118.656 39.2203C118.318 39.5503 118.051 39.9427 117.868 40.3749C117.686 40.8071 117.592 41.2707 117.592 41.7388V41.7496Z" fill="#010101"/>
<path d="M134.085 45.341C135.588 45.341 136.34 44.4467 136.34 42.6583V31.1188H137.878V42.6366C137.878 43.9564 137.537 44.9867 136.864 45.7358C136.518 46.1098 136.093 46.4041 135.618 46.5976C135.143 46.7911 134.631 46.8791 134.118 46.8554H128.35V45.341H134.085ZM128.924 33.4987H129.825C129.679 33.3648 129.563 33.2028 129.483 33.0227C129.404 32.8427 129.363 32.6484 129.363 32.4521C129.361 32.2403 129.403 32.0303 129.488 31.8355C129.572 31.6408 129.697 31.4658 129.855 31.3217C130.012 31.1708 130.197 31.0522 130.401 30.9728C130.605 30.8934 130.823 30.8548 131.042 30.8592C131.295 30.8572 131.546 30.9104 131.777 31.0152C132.007 31.1199 132.211 31.2735 132.374 31.465L131.844 31.9464C131.749 31.8341 131.63 31.7449 131.494 31.6858C131.359 31.6267 131.212 31.5993 131.064 31.6056C130.81 31.5981 130.564 31.6884 130.377 31.8571C130.286 31.9409 130.214 32.0429 130.167 32.1563C130.12 32.2697 130.098 32.3918 130.102 32.5143C130.099 32.769 130.198 33.0147 130.377 33.1985C130.461 33.2936 130.565 33.3699 130.681 33.4221C130.798 33.4744 130.925 33.5014 131.053 33.5014H132.569V34.2288H128.924V33.4987ZM129.764 44.2728V35.078H131.3V44.2728H129.764Z" fill="#010101"/>
<path d="M143.041 46.8554H141.525V31.1188H143.041V46.8554Z" fill="#010101"/>
<path d="M151.564 38.7857H153.08V40.8031C153.08 43.8284 154.63 45.341 157.73 45.341H159.85V42.2959C159.85 38.618 161.732 36.7791 165.495 36.7791H167.648V43.1153C167.648 44.6081 168.228 45.3545 169.389 45.3545H169.9V46.8689H169.389C168.324 46.8689 167.511 46.5354 166.95 45.8683C166.39 45.2013 166.11 44.2836 166.11 43.1153V38.2475H165.517C164.097 38.2475 163.056 38.5675 162.391 39.2075C161.726 39.8476 161.396 40.8797 161.399 42.304V46.8635H157.73C155.736 46.8635 154.21 46.3353 153.151 45.2788C152.093 44.2223 151.564 42.7331 151.564 40.8112V38.7857ZM156.173 49.0324C156.26 48.936 156.368 48.8592 156.488 48.807C156.609 48.7547 156.739 48.7283 156.87 48.7295C157.004 48.7288 157.136 48.7545 157.259 48.8051C157.382 48.8558 157.494 48.9303 157.587 49.0243C157.685 49.1125 157.763 49.2199 157.816 49.3397C157.869 49.4594 157.896 49.5887 157.895 49.7193C157.895 49.8513 157.867 49.9819 157.814 50.1032C157.761 50.2245 157.684 50.334 157.587 50.4252C157.393 50.6041 157.136 50.7012 156.87 50.6956C156.605 50.6921 156.352 50.5871 156.164 50.4028C155.977 50.2185 155.869 49.9695 155.865 49.7085C155.865 49.5809 155.893 49.4548 155.946 49.3383C155.999 49.2218 156.076 49.1176 156.173 49.0324ZM159.534 49.0324C159.622 48.9363 159.729 48.8595 159.849 48.8073C159.969 48.7551 160.098 48.7286 160.229 48.7295C160.363 48.7286 160.496 48.7542 160.62 48.8048C160.743 48.8555 160.855 48.9301 160.949 49.0243C161.047 49.1125 161.125 49.2199 161.178 49.3397C161.231 49.4594 161.258 49.5887 161.257 49.7193C161.256 49.8513 161.229 49.9819 161.176 50.1032C161.123 50.2245 161.046 50.334 160.949 50.4252C160.754 50.6048 160.496 50.7019 160.229 50.6956C159.964 50.6928 159.711 50.5879 159.524 50.4034C159.336 50.2189 159.23 49.9694 159.227 49.7085C159.227 49.5808 159.254 49.4544 159.307 49.3379C159.36 49.2213 159.437 49.1172 159.534 49.0324Z" fill="#010101"/>
<path d="M177.686 46.8554H169.491V45.341H177.686V46.8554Z" fill="#010101"/>
<path d="M185.473 46.8554H177.277V45.341H185.473V46.8554Z" fill="#010101"/>
<path d="M185.064 46.8554V45.341H186.272C187.459 45.341 188.053 44.5738 188.055 43.0396V36.779H189.593V43.0531C189.593 44.5856 190.194 45.3527 191.395 45.3545H192.581V46.8689H191.395C190.205 46.8689 189.351 46.384 188.835 45.414C188.597 45.8753 188.228 46.2585 187.773 46.5168C187.318 46.7752 186.797 46.8975 186.272 46.8689L185.064 46.8554ZM186.217 34.5696C186.213 34.4382 186.235 34.3073 186.282 34.1843C186.329 34.0613 186.401 33.9487 186.492 33.8529C186.584 33.7569 186.695 33.6809 186.819 33.6301C186.942 33.5793 187.075 33.5548 187.209 33.5582C187.341 33.5568 187.472 33.5822 187.594 33.6329C187.716 33.6837 187.826 33.7585 187.918 33.8529C188.014 33.9461 188.09 34.0577 188.141 34.181C188.192 34.3043 188.217 34.4365 188.214 34.5696C188.213 34.7656 188.153 34.9569 188.042 35.1193C187.93 35.2818 187.773 35.4082 187.588 35.4825C187.404 35.5568 187.202 35.5758 187.007 35.537C186.812 35.4983 186.633 35.4035 186.492 35.2646C186.311 35.0778 186.212 34.8279 186.217 34.5696ZM189.497 34.5696C189.494 34.4363 189.52 34.304 189.571 34.1808C189.623 34.0575 189.699 33.9459 189.796 33.8529C189.887 33.7582 189.996 33.6831 190.118 33.6323C190.239 33.5816 190.37 33.5563 190.502 33.5582C190.636 33.5574 190.768 33.5831 190.891 33.6338C191.014 33.6844 191.126 33.7589 191.219 33.8529C191.318 33.9447 191.397 34.0559 191.45 34.1793C191.502 34.3027 191.529 34.4356 191.527 34.5696C191.528 34.6986 191.501 34.8263 191.448 34.9443C191.395 35.0623 191.317 35.1678 191.219 35.2538C191.127 35.3498 191.016 35.4261 190.892 35.4782C190.769 35.5303 190.636 35.557 190.502 35.5567C190.369 35.5597 190.237 35.5352 190.114 35.4849C189.991 35.4346 189.88 35.3596 189.788 35.2646C189.693 35.1749 189.617 35.067 189.566 34.9475C189.514 34.828 189.488 34.6994 189.489 34.5696H189.497Z" fill="#010101"/>
<path d="M192.175 45.341H197.459L193.812 39.9756V36.779H201.354C204.152 36.779 205.551 37.7346 205.553 39.6456C205.545 40.0862 205.452 40.5212 205.279 40.9275C205.059 41.4328 204.773 41.9074 204.427 42.3391C204.037 42.8422 203.691 43.2667 203.383 43.6102C203.076 43.9536 202.647 44.4215 202.104 44.9921C201.939 45.1517 201.829 45.2625 201.752 45.3545H207.182V46.8689H192.175V45.341ZM195.575 38.2799V39.8539L199.283 45.341H199.95C200.102 45.1787 200.457 44.8055 201.016 44.2214C201.574 43.6372 201.953 43.2271 202.153 42.9909C202.351 42.7547 202.625 42.4221 202.977 41.993C203.258 41.6565 203.495 41.2868 203.683 40.8923C203.808 40.6156 203.874 40.3164 203.878 40.0134C203.878 39.3301 203.635 38.8704 203.15 38.6342C202.665 38.398 201.91 38.2799 200.887 38.2799H195.575ZM198.547 34.529C198.545 34.3976 198.571 34.2672 198.621 34.1456C198.672 34.0239 198.746 33.9134 198.841 33.8205C198.934 33.7233 199.047 33.6462 199.172 33.5941C199.298 33.542 199.432 33.5159 199.568 33.5176C199.704 33.518 199.838 33.5449 199.963 33.597C200.088 33.649 200.201 33.7249 200.296 33.8205C200.396 33.9103 200.477 34.0197 200.531 34.1417C200.586 34.2637 200.615 34.3956 200.615 34.529C200.616 34.665 200.588 34.7997 200.533 34.9245C200.478 35.0493 200.398 35.1615 200.296 35.2538C200.202 35.3498 200.089 35.4261 199.964 35.4782C199.839 35.5302 199.704 35.5569 199.568 35.5567C199.432 35.559 199.297 35.5332 199.172 35.4811C199.047 35.4289 198.934 35.3515 198.841 35.2538C198.745 35.1583 198.67 35.0451 198.619 34.9206C198.569 34.7961 198.544 34.663 198.547 34.529Z" fill="#010101"/>
<path d="M206.784 45.341H207.317C208.516 45.341 209.116 44.5738 209.118 43.0396V31.1188H210.662V43.0396C210.662 44.2096 210.367 45.1381 209.777 45.825C209.476 46.1705 209.097 46.443 208.672 46.6217C208.246 46.8003 207.784 46.8803 207.322 46.8554H206.789L206.784 45.341Z" fill="#010101"/>
<path d="M217.841 14.333H220.706C222.096 14.333 223.118 14.6539 223.771 15.2958C224.425 15.9376 224.751 16.9021 224.749 18.1894C224.749 20.7585 223.401 22.0431 220.706 22.0431H217.685V25.3072C217.713 25.5442 217.654 25.7834 217.517 25.9806C217.317 26.1143 217.074 26.1719 216.833 26.1429H216.594C216.354 26.1719 216.111 26.1143 215.911 25.9806C215.775 25.7829 215.717 25.5439 215.746 25.3072V16.3829C215.746 15.6581 215.911 15.1281 216.243 14.8036C216.575 14.479 217.103 14.333 217.841 14.333ZM220.706 16.1341H218.396C217.916 16.1341 217.677 16.364 217.677 16.8237V20.2339H220.698C221.472 20.2339 222.019 20.0743 222.332 19.7606C222.645 19.4469 222.802 18.9169 222.802 18.1786C222.802 17.4403 222.642 16.9102 222.321 16.5938C222 16.2774 221.467 16.1233 220.706 16.1233V16.1341Z" fill="#FCB415"/>
<path d="M226.43 23.5981V14.2302C226.402 13.9996 226.461 13.7668 226.595 13.5758C226.789 13.4425 227.027 13.3838 227.262 13.4108H227.501C227.736 13.3838 227.972 13.4425 228.166 13.5758C228.302 13.7658 228.362 13.9991 228.333 14.2302V23.233C228.303 23.5787 228.374 23.9258 228.537 24.2336C228.613 24.334 228.714 24.4136 228.83 24.4647C228.947 24.5158 229.074 24.5368 229.201 24.5256C229.405 24.4977 229.611 24.5429 229.783 24.6527C229.887 24.8354 229.928 25.0457 229.902 25.2531V25.4343C229.926 25.642 229.873 25.8512 229.753 26.0238C229.579 26.1632 229.367 26.2488 229.144 26.2699C229.059 26.286 228.974 26.2924 228.888 26.2889C228.554 26.3083 228.22 26.2576 227.907 26.1401C227.595 26.0226 227.311 25.841 227.075 25.6074C226.645 25.153 226.43 24.4833 226.43 23.5981Z" fill="#FCB415"/>
<path d="M238.345 19.9067V23.4223C238.345 24.4283 238.031 25.1666 237.402 25.6317C236.774 26.0969 235.779 26.3322 234.411 26.3322C231.912 26.3322 230.661 25.3983 230.66 23.5305C230.66 22.5876 230.971 21.8934 231.594 21.4481C232.216 21.0028 233.162 20.782 234.431 20.7856H236.46V19.9067C236.482 19.698 236.446 19.4875 236.357 19.2972C236.268 19.1069 236.128 18.9437 235.952 18.8249C235.614 18.6221 235.057 18.5166 234.282 18.5166C233.632 18.5083 232.983 18.5635 232.343 18.6816C232.253 18.7114 232.158 18.7227 232.064 18.7148C231.969 18.7069 231.877 18.6799 231.794 18.6356C231.736 18.559 231.693 18.4718 231.669 18.3789C231.645 18.2861 231.64 18.1895 231.654 18.0948V17.8487C231.636 17.6579 231.686 17.4668 231.794 17.3078C231.94 17.1778 232.125 17.0973 232.321 17.0779C232.932 16.9837 233.549 16.9349 234.167 16.9319C235.571 16.9319 236.618 17.169 237.306 17.6431C237.995 18.1173 238.341 18.8718 238.345 19.9067ZM236.46 23.3412V22.2135H234.431C233.94 22.178 233.449 22.2822 233.016 22.5136C232.861 22.6271 232.738 22.778 232.658 22.9517C232.579 23.1255 232.546 23.3164 232.563 23.5061C232.547 23.6909 232.578 23.8767 232.656 24.0458C232.733 24.2149 232.854 24.3615 233.005 24.4716C233.426 24.6937 233.902 24.7941 234.379 24.761C235.131 24.761 235.667 24.6582 235.985 24.4527C236.301 24.2444 236.46 23.8766 236.46 23.3412Z" fill="#FCB415"/>
<path d="M239.416 18.2327V18.0515C239.394 17.862 239.44 17.671 239.545 17.5106C239.688 17.3938 239.865 17.323 240.05 17.3078L241.028 17.1239L241.25 15.4148C241.253 15.2169 241.325 15.026 241.454 14.8739C241.618 14.773 241.811 14.7284 242.003 14.7468H242.247C242.436 14.7246 242.626 14.7697 242.783 14.8739C242.892 15.0326 242.938 15.225 242.912 15.4148V17.1239H245.499C245.716 17.1006 245.935 17.1523 246.117 17.2699C246.247 17.4498 246.302 17.6708 246.274 17.8892V18.1056C246.303 18.3241 246.247 18.5453 246.117 18.7249C245.935 18.8436 245.716 18.8953 245.499 18.8709H242.907V22.9869C242.907 24.0416 243.387 24.569 244.349 24.569C244.853 24.5749 245.355 24.5195 245.845 24.404C246.15 24.3445 246.354 24.3553 246.452 24.4419C246.551 24.5284 246.601 24.7123 246.601 25.0422V25.2586C246.622 25.4814 246.57 25.7051 246.452 25.8968C246.285 26.0495 246.072 26.1444 245.845 26.1672C245.351 26.2555 244.851 26.3034 244.349 26.3106C242.133 26.3106 241.024 25.1955 241.022 22.9653V18.8682H240.05C239.868 18.8894 239.684 18.8442 239.534 18.7411C239.433 18.5914 239.391 18.4107 239.416 18.2327Z" fill="#FCB415"/>
<path d="M247.23 18.2327V18.0515C247.208 17.8619 247.254 17.6709 247.359 17.5106C247.499 17.3899 247.674 17.3144 247.859 17.2943L248.836 17.1104V16.0557C248.836 14.955 249.111 14.1626 249.66 13.6569C250.21 13.1512 251.034 12.9105 252.165 12.9105C252.561 12.9106 252.956 12.9405 253.346 12.9998C253.579 13.0236 253.8 13.1117 253.984 13.254C254.109 13.4356 254.164 13.6551 254.14 13.8733V14.0923C254.14 14.4087 254.085 14.6061 253.975 14.6927C253.859 14.7425 253.734 14.7674 253.607 14.7657L253.014 14.7278C252.775 14.6963 252.535 14.6782 252.294 14.6738C251.248 14.6738 250.723 15.0875 250.723 15.9096V17.1104H253.182C253.401 17.0849 253.623 17.1366 253.808 17.2564C253.932 17.4381 253.985 17.6584 253.956 17.8757V18.092C253.986 18.3094 253.933 18.5299 253.808 18.7113C253.624 18.8324 253.401 18.8843 253.182 18.8574H250.723V25.3262C250.757 25.4387 250.759 25.5581 250.729 25.6717C250.699 25.7853 250.639 25.8889 250.555 25.9719C250.471 26.0548 250.366 26.1139 250.25 26.143C250.135 26.1722 250.014 26.1702 249.899 26.1375H249.663C249.549 26.1702 249.428 26.1722 249.312 26.143C249.197 26.1139 249.092 26.0548 249.007 25.9719C248.923 25.8889 248.863 25.7853 248.834 25.6717C248.804 25.5581 248.806 25.4387 248.839 25.3262V18.8682H247.878C247.696 18.8894 247.512 18.8442 247.362 18.7411C247.256 18.5932 247.209 18.4123 247.23 18.2327Z" fill="#FCB415"/>
<path d="M259.276 26.343C257.823 26.343 256.749 26.0212 256.063 25.3803C255.376 24.7393 255.027 23.7577 255.027 22.4055V20.8505C255.027 18.2327 256.444 16.9229 259.276 16.9211C260.719 16.9211 261.781 17.2456 262.462 17.8946C263.143 18.5437 263.485 19.529 263.487 20.8505V22.4163C263.487 23.7018 263.132 24.678 262.424 25.3451C261.715 26.0104 260.663 26.343 259.276 26.343ZM261.586 22.4163V20.8505C261.586 20.05 261.416 19.4866 261.075 19.1603C260.735 18.8303 260.136 18.66 259.276 18.66C258.416 18.66 257.79 18.8222 257.447 19.1522C257.104 19.4821 256.931 20.0419 256.931 20.8424V22.4082C256.931 23.1952 257.101 23.7604 257.447 24.0795C257.793 24.3986 258.4 24.5717 259.276 24.5717C260.152 24.5717 260.754 24.4094 261.086 24.0876C261.418 23.7658 261.583 23.2141 261.583 22.4163H261.586Z" fill="#FCB415"/>
<path d="M267.197 20.2826V25.3397C267.225 25.5707 267.166 25.8039 267.03 25.9941C266.836 26.1263 266.599 26.184 266.365 26.1564H266.126C265.892 26.184 265.655 26.1263 265.461 25.9941C265.325 25.8039 265.266 25.5707 265.294 25.3397V20.1419C265.294 17.9947 266.457 16.9211 268.785 16.9211C268.909 16.9162 269.033 16.9226 269.156 16.94C269.38 16.9458 269.597 17.0226 269.773 17.1591C269.9 17.346 269.956 17.5712 269.93 17.7946V18.065C269.93 18.3679 269.883 18.5599 269.782 18.6464C269.588 18.7435 269.364 18.7629 269.156 18.7005C269.033 18.6816 268.909 18.6752 268.785 18.6816C268.193 18.6816 267.781 18.8033 267.549 19.0467C267.313 19.2738 267.197 19.6876 267.197 20.2826Z" fill="#FCB415"/>
<path d="M273.182 20.4502V25.3181C273.209 25.5487 273.151 25.7813 273.017 25.9725C272.822 26.1041 272.585 26.1618 272.35 26.1348H272.111C271.877 26.1623 271.64 26.1046 271.446 25.9725C271.31 25.7823 271.25 25.5491 271.279 25.3181V20.4502C271.279 18.0975 272.528 16.9211 275.028 16.9211C276.384 16.9211 277.309 17.3637 277.802 18.2489C278.291 17.3646 279.216 16.9211 280.57 16.9211C281.839 16.9211 282.778 17.2122 283.388 17.7946C283.998 18.3769 284.303 19.2621 284.303 20.4502V25.3181C284.336 25.4307 284.338 25.55 284.308 25.6636C284.279 25.7772 284.219 25.8808 284.135 25.9638C284.05 26.0467 283.945 26.1058 283.83 26.1349C283.714 26.1641 283.593 26.1621 283.479 26.1294H283.24C283.126 26.1621 283.004 26.1641 282.889 26.1349C282.774 26.1058 282.668 26.0467 282.584 25.9638C282.5 25.8808 282.44 25.7772 282.41 25.6636C282.381 25.55 282.383 25.4307 282.416 25.3181V20.4502C282.416 19.7958 282.283 19.3352 282.018 19.0683C281.743 18.7979 281.276 18.6681 280.587 18.6681C279.897 18.6681 279.43 18.806 279.147 19.0791C278.865 19.3523 278.722 19.8093 278.722 20.4502V25.3181C278.755 25.4307 278.757 25.55 278.727 25.6636C278.698 25.7772 278.638 25.8808 278.554 25.9638C278.469 26.0467 278.364 26.1058 278.249 26.1349C278.133 26.1641 278.012 26.1621 277.898 26.1294H277.678C277.564 26.1621 277.443 26.1641 277.327 26.1349C277.212 26.1058 277.107 26.0467 277.022 25.9638C276.938 25.8808 276.878 25.7772 276.848 25.6636C276.819 25.55 276.821 25.4307 276.854 25.3181V20.4502C276.854 19.7958 276.722 19.3352 276.459 19.0683C276.184 18.7979 275.717 18.6681 275.025 18.6681C274.333 18.6681 273.858 18.8033 273.586 19.0683C273.314 19.3334 273.182 19.7958 273.182 20.4502Z" fill="#FCB415"/>
<path d="M223.296 38.8614C223.839 38.3085 224.491 37.871 225.213 37.5761C225.934 37.2812 226.709 37.1351 227.49 37.1468H233.101V44.4485C233.101 46.2316 233.793 47.1231 235.175 47.1231H235.842V48.8836H235.175C233.492 48.8836 232.42 48.0769 231.959 46.4633C231.513 47.2159 230.866 47.8335 230.088 48.2481C229.295 48.6723 228.404 48.891 227.501 48.8836C226.32 48.8879 225.164 48.5458 224.181 47.9009C223.198 47.256 222.432 46.3376 221.981 45.2626C221.53 44.1876 221.414 43.0048 221.648 41.8648C221.883 40.7248 222.456 39.6792 223.296 38.8614ZM223.296 43.0125C223.301 44.1042 223.745 45.1494 224.531 45.9194C225.317 46.6893 226.381 47.1211 227.49 47.1204C227.997 47.1315 228.5 47.0381 228.968 46.8462C229.436 46.6543 229.858 46.3682 230.206 46.0062C230.939 45.2634 231.305 44.2655 231.305 43.0125V38.9073H227.501C226.391 38.9037 225.325 39.334 224.536 40.1036C223.748 40.8733 223.302 41.9194 223.296 43.0125ZM225.037 33.7475C225.142 33.641 225.267 33.5567 225.406 33.5C225.545 33.4432 225.695 33.4152 225.845 33.4175C225.998 33.4178 226.15 33.4481 226.292 33.5066C226.433 33.5651 226.561 33.6506 226.669 33.7583C226.783 33.8648 226.874 33.9936 226.936 34.1365C226.997 34.2794 227.028 34.4333 227.026 34.5885C227.029 34.741 226.999 34.8925 226.937 35.0325C226.876 35.1724 226.784 35.2977 226.669 35.3998C226.562 35.5094 226.434 35.597 226.293 35.6574C226.151 35.7177 225.999 35.7497 225.845 35.7514C225.536 35.7471 225.242 35.6242 225.024 35.4089C224.807 35.1937 224.683 34.9031 224.68 34.5993C224.678 34.4399 224.71 34.2818 224.773 34.1351C224.836 33.9884 224.93 33.8564 225.048 33.7475H225.037ZM228.515 34.5885C228.512 34.4342 228.541 34.281 228.601 34.1382C228.66 33.9954 228.749 33.8662 228.861 33.7583C228.97 33.6501 229.1 33.5642 229.243 33.5057C229.386 33.4471 229.539 33.4169 229.694 33.4169C229.849 33.4169 230.003 33.4471 230.146 33.5057C230.289 33.5642 230.419 33.6501 230.528 33.7583C230.64 33.8658 230.729 33.995 230.789 34.1378C230.848 34.2807 230.877 34.4341 230.874 34.5885C230.876 34.7399 230.847 34.8902 230.787 35.0298C230.727 35.1694 230.639 35.2954 230.528 35.3998C230.419 35.508 230.289 35.5938 230.146 35.6524C230.003 35.711 229.849 35.7411 229.694 35.7411C229.539 35.7411 229.386 35.711 229.243 35.6524C229.1 35.5938 228.97 35.508 228.861 35.3998C228.75 35.295 228.662 35.1689 228.602 35.0294C228.543 34.8899 228.513 34.7398 228.515 34.5885Z" fill="#010101"/>
<path d="M235.365 48.881V47.1204H237.867V37.1468H239.655V41.1357C241.852 38.4765 244.049 37.1468 246.246 37.1468C247.01 37.1207 247.77 37.2608 248.472 37.5572C249.174 37.8535 249.801 38.2989 250.309 38.8614C251.349 40.0026 251.87 41.4729 251.871 43.2722V44.4675C251.871 46.2361 252.546 47.1204 253.896 47.1204H254.514V48.881H253.896C252.451 48.881 251.45 48.2554 250.894 47.0041C250.584 47.5947 250.109 48.0855 249.525 48.4181C248.941 48.7508 248.272 48.9114 247.598 48.881H235.365ZM239.655 47.1204H247.62C247.957 47.1306 248.292 47.0675 248.601 46.9357C248.911 46.8039 249.187 46.6066 249.41 46.3578C249.87 45.8494 250.1 45.1021 250.1 44.1159V43.3046C250.1 41.9741 249.742 40.9104 249.026 40.1135C248.31 39.3166 247.341 38.9173 246.12 38.9155C244.181 38.9155 242.029 40.4011 239.663 43.3722L239.655 47.1204Z" fill="#010101"/>
<path d="M254.058 48.881V47.1204H254.722C256.107 47.1204 256.798 46.2289 256.796 44.4458V37.1441H258.584V44.4458C258.584 46.2289 259.275 47.1204 260.658 47.1204H261.325V48.881H260.649C259.282 48.881 258.296 48.3176 257.694 47.1907C257.073 48.3157 256.08 48.8792 254.714 48.881H254.058ZM256.488 34.5669C256.485 34.4101 256.514 34.2543 256.574 34.1088C256.633 33.9634 256.722 33.8312 256.834 33.7204C256.942 33.6072 257.073 33.5175 257.218 33.4569C257.363 33.3964 257.52 33.3664 257.678 33.3689C258 33.3696 258.309 33.496 258.537 33.7205C258.765 33.9451 258.894 34.2494 258.894 34.5669C258.896 34.7192 258.865 34.8703 258.804 35.0101C258.742 35.1499 258.651 35.2753 258.537 35.3782C258.426 35.4911 258.292 35.5804 258.144 35.6409C257.996 35.7013 257.838 35.7315 257.678 35.7297C257.521 35.7308 257.366 35.7012 257.221 35.6426C257.076 35.5839 256.944 35.4975 256.833 35.3882C256.723 35.279 256.635 35.1492 256.576 35.0063C256.517 34.8634 256.487 34.7104 256.488 34.5561V34.5669Z" fill="#010101"/>
<path d="M260.839 47.1205H264.843C264.15 46.6979 263.581 46.1028 263.196 45.3951C262.79 44.665 262.58 43.8449 262.586 43.0126C262.584 41.8496 262.933 40.7123 263.588 39.7447C264.243 38.7771 265.175 38.0226 266.266 37.5768C267.357 37.131 268.558 37.014 269.716 37.2405C270.875 37.4669 271.939 38.0268 272.774 38.8491C273.609 39.6715 274.178 40.7193 274.408 41.86C274.638 43.0007 274.519 44.1829 274.067 45.2571C273.614 46.3312 272.848 47.2489 271.865 47.894C270.882 48.5391 269.727 48.8826 268.546 48.881H260.855L260.839 47.1205ZM264.344 43.0126C264.338 43.9683 264.67 44.8961 265.283 45.6376C265.895 46.3792 266.75 46.8886 267.701 47.0788C268.652 47.269 269.641 47.1282 270.498 46.6805C271.356 46.2328 272.029 45.506 272.403 44.624C272.777 43.7421 272.828 42.7597 272.548 41.8446C272.268 40.9295 271.674 40.1384 270.868 39.6063C270.062 39.0743 269.093 38.8343 268.127 38.9273C267.161 39.0203 266.258 39.4405 265.571 40.1162C265.177 40.491 264.864 40.9413 264.653 41.4394C264.442 41.9375 264.337 42.4729 264.344 43.0126Z" fill="#010101"/>
<path d="M418.48 15.3C419.333 15.3 420.067 15.6067 420.68 16.22C421.293 16.8067 421.6 17.54 421.6 18.42C421.6 19.2733 421.293 20.0067 420.68 20.62C420.067 21.2333 419.333 21.54 418.48 21.54C417.6 21.54 416.853 21.2333 416.24 20.62C415.627 20.0067 415.32 19.2733 415.32 18.42C415.32 17.5667 415.627 16.8333 416.24 16.22C416.853 15.6067 417.6 15.3 418.48 15.3ZM421.56 24.1V40.98C421.56 44.5267 420.427 47.2733 418.16 49.22C416.827 50.3667 415.24 51.18 413.4 51.66C412.44 51.9 411.333 52.02 410.08 52.02L409.04 51.94L406.52 48.78V46.66C406.6 46.6867 406.747 46.7133 406.96 46.74C407.653 46.8733 408.267 46.94 408.8 46.94C411.013 46.8867 412.653 46.3267 413.72 45.26C414.813 44.1667 415.36 42.5 415.36 40.26V24.1H421.56ZM433.264 13.86V36.78C433.264 36.8333 433.277 36.9133 433.304 37.02L433.344 37.06C433.424 37.2467 433.584 37.34 433.824 37.34H435.304V42.5H432.064C430.757 42.5 429.61 42.0333 428.624 41.1C427.61 40.1133 427.104 38.9267 427.104 37.54V13.86H433.264ZM442.365 37.34V42.5H434.965V37.34H442.365ZM447.394 24.78C449.928 24.0067 452.261 23.62 454.394 23.62C457.568 23.62 460.248 24.62 462.434 26.62C464.461 28.4867 465.474 30.7667 465.474 33.46V36.98C465.474 37.0867 465.488 37.2067 465.514 37.34H466.754V42.5H465.954L464.474 40.66H464.354C463.368 41.8867 462.074 42.5 460.474 42.5H442.074V37.34H458.714C459.088 37.34 459.274 37.1533 459.274 36.78V34.14C459.274 32.62 458.661 31.3667 457.434 30.38C456.234 29.3667 454.728 28.86 452.914 28.86C451.421 28.86 449.581 29.14 447.394 29.7V24.78ZM453.794 44.34C454.648 44.34 455.381 44.6467 455.994 45.26C456.608 45.8733 456.914 46.62 456.914 47.5C456.914 48.3533 456.608 49.0867 455.994 49.7C455.381 50.3133 454.648 50.62 453.794 50.62C452.914 50.62 452.168 50.3133 451.554 49.7C450.968 49.0867 450.674 48.3533 450.674 47.5C450.674 46.62 450.968 45.8733 451.554 45.26C452.168 44.6467 452.914 44.34 453.794 44.34ZM476.689 15.3C477.569 15.3 478.303 15.6067 478.889 16.22C479.503 16.8067 479.809 17.54 479.809 18.42C479.809 19.2733 479.503 20.0067 478.889 20.62C478.303 21.2333 477.569 21.54 476.689 21.54C475.836 21.54 475.103 21.2333 474.489 20.62C473.876 20.0067 473.569 19.2733 473.569 18.42C473.569 17.5667 473.876 16.8333 474.489 16.22C475.103 15.6067 475.836 15.3 476.689 15.3ZM479.809 24.1V37.54C479.809 38.7133 479.423 39.7667 478.649 40.7C477.636 41.9 476.356 42.5 474.809 42.5H466.449V37.34H473.049C473.209 37.34 473.343 37.3 473.449 37.22C473.583 37.1133 473.649 36.9667 473.649 36.78V24.1H479.809ZM491.546 13.86V40.98L488.426 43.5H485.346V13.86H491.546ZM485.106 51.98C484.759 51.18 484.586 50.4867 484.586 49.9C484.586 48.7267 484.933 47.7667 485.626 47.02C486.319 46.2733 487.213 45.9 488.306 45.9C489.106 45.9 489.933 46.02 490.786 46.26V48.78C490.119 48.5933 489.626 48.5 489.306 48.5C488.293 48.5 487.786 49.0733 487.786 50.22C487.786 50.7267 487.879 51.1133 488.066 51.38C488.333 51.78 488.746 51.98 489.306 51.98H492.106V53.18L491.026 54.54H483.666V51.98H485.106ZM510.236 15.3C511.089 15.3 511.822 15.6067 512.436 16.22C513.049 16.8333 513.356 17.5667 513.356 18.42C513.356 19.2733 513.049 20.0067 512.436 20.62C511.822 21.2333 511.089 21.54 510.236 21.54C509.356 21.54 508.609 21.2333 507.996 20.62C507.409 20.0067 507.116 19.2733 507.116 18.42C507.116 17.54 507.409 16.8067 507.996 16.22C508.609 15.6067 509.356 15.3 510.236 15.3ZM517.396 15.3C518.249 15.3 518.982 15.6067 519.596 16.22C520.209 16.8333 520.516 17.5667 520.516 18.42C520.516 19.2733 520.209 20.0067 519.596 20.62C518.982 21.2333 518.249 21.54 517.396 21.54C516.516 21.54 515.769 21.2333 515.156 20.62C514.569 20.0067 514.276 19.2733 514.276 18.42C514.276 17.54 514.569 16.8067 515.156 16.22C515.769 15.6067 516.516 15.3 517.396 15.3ZM520.516 23.02V35.38C520.516 37.8333 519.582 39.7533 517.716 41.14C516.196 42.2867 514.222 42.86 511.796 42.86C508.596 42.86 506.129 41.7 504.396 39.38C503.276 37.7 502.716 35.7533 502.716 33.54C502.716 30.5533 503.716 28.0733 505.716 26.1C507.502 24.34 509.662 23.46 512.196 23.46C513.502 23.46 514.702 23.7533 515.796 24.34L517.476 23.02H520.516ZM514.356 29.06C513.609 28.8467 512.996 28.74 512.516 28.74C511.396 28.74 510.489 29.1667 509.796 30.02C509.102 30.8733 508.756 32.02 508.756 33.46C508.756 34.7667 509.036 35.8067 509.596 36.58C510.156 37.3267 510.889 37.7 511.796 37.7C512.569 37.7 513.209 37.4467 513.716 36.94C514.142 36.4867 514.356 35.9533 514.356 35.34V29.06ZM528.342 23.86C529.036 23.7 529.996 23.62 531.222 23.62C534.502 23.62 537.142 24.6467 539.142 26.7C540.929 28.54 541.822 30.8733 541.822 33.7V37.54C541.822 39.0067 541.289 40.22 540.222 41.18C539.262 42.06 538.142 42.5 536.862 42.5H524.302V37.34H535.102C535.476 37.34 535.662 37.1533 535.662 36.78V34.18C535.662 32.5533 535.156 31.22 534.142 30.18C533.156 29.14 531.862 28.62 530.262 28.62C529.436 28.62 528.796 28.6733 528.342 28.78V23.86ZM553.147 13.86V36.78C553.147 36.8333 553.16 36.9133 553.187 37.02L553.227 37.06C553.307 37.2467 553.467 37.34 553.707 37.34H555.187V42.5H551.947C550.64 42.5 549.493 42.0333 548.507 41.1C547.493 40.1133 546.987 38.9267 546.987 37.54V13.86H553.147ZM564.568 24.54C567.501 23.2333 570.421 22.58 573.328 22.58C576.954 22.58 579.834 23.7 581.968 25.94C583.888 27.94 584.848 30.5267 584.848 33.7V36.06C584.848 36.3267 584.861 36.7533 584.888 37.34H586.168V42.5H585.368L583.888 40.66H583.768C583.394 41.0867 582.994 41.4333 582.568 41.7C581.768 42.2333 580.901 42.5 579.968 42.5H569.648C568.848 42.5 568.154 42.3133 567.568 41.94H567.368C566.754 42.3133 565.834 42.5 564.608 42.5H554.848V37.34H561.528C561.208 36.7267 560.994 36.1667 560.888 35.66C560.728 35.0733 560.648 34.42 560.648 33.7C560.648 32.2067 561.088 30.8867 561.968 29.74C562.608 28.8867 563.474 28.22 564.568 27.74V24.54ZM578.688 34.38C578.688 29.58 576.354 27.18 571.688 27.18C571.021 27.18 570.261 27.22 569.408 27.3C570.794 27.7267 571.954 28.5133 572.888 29.66C573.848 30.8067 574.328 32.1533 574.328 33.7C574.328 34.42 574.234 35.1 574.048 35.74C573.834 36.4333 573.634 36.9667 573.448 37.34H578.128C578.288 37.34 578.421 37.3 578.528 37.22C578.634 37.1133 578.688 36.9667 578.688 36.78V34.38ZM567.448 36.62C568.701 36.38 569.328 35.4733 569.328 33.9C569.328 33.1267 569.141 32.4867 568.768 31.98C568.394 31.5 567.941 31.26 567.408 31.26C566.874 31.26 566.421 31.5267 566.048 32.06C565.701 32.5667 565.528 33.2067 565.528 33.98C565.528 35.4733 566.168 36.3533 567.448 36.62ZM614.463 9.66C615.263 9.66 615.93 9.94 616.463 10.5C617.023 11.0333 617.303 11.7 617.303 12.5C617.303 13.2733 617.023 13.94 616.463 14.5C615.93 15.0333 615.263 15.3 614.463 15.3C613.69 15.3 613.023 15.0333 612.463 14.5C611.93 13.94 611.663 13.2733 611.663 12.5C611.663 11.7 611.93 11.0333 612.463 10.5C613.023 9.94 613.69 9.66 614.463 9.66ZM610.943 15.3C611.797 15.3 612.517 15.6067 613.103 16.22C613.717 16.8067 614.023 17.54 614.023 18.42C614.023 19.3 613.717 20.0467 613.103 20.66C612.517 21.2467 611.797 21.54 610.943 21.54C610.063 21.54 609.317 21.2333 608.703 20.62C608.09 20.0067 607.783 19.2733 607.783 18.42C607.783 17.5667 608.09 16.8333 608.703 16.22C609.317 15.6067 610.063 15.3 610.943 15.3ZM618.023 15.3C618.903 15.3 619.637 15.6067 620.223 16.22C620.837 16.8333 621.143 17.5667 621.143 18.42C621.143 19.2733 620.837 20.0067 620.223 20.62C619.637 21.2333 618.903 21.54 618.023 21.54C617.17 21.54 616.437 21.2333 615.823 20.62C615.21 20.0067 614.903 19.2733 614.903 18.42C614.903 17.54 615.21 16.8067 615.823 16.22C616.437 15.6067 617.17 15.3 618.023 15.3ZM632.183 24.1V37.54C632.183 38.9 631.69 40.0733 630.703 41.06C629.743 42.02 628.583 42.5 627.223 42.5H618.223L616.543 40.62H616.423C615.437 41.8733 614.143 42.5 612.543 42.5H603.543L601.863 40.62H601.743C600.757 41.8733 599.463 42.5 597.863 42.5H585.863V37.34H596.103C596.477 37.34 596.663 37.1533 596.663 36.78V28.7H602.823V34.98C602.823 35.38 602.837 36.0067 602.863 36.86V37.34H610.783C611.157 37.34 611.343 37.1533 611.343 36.78V26.38H617.503V35.66C617.503 36.1133 617.517 36.6733 617.543 37.34H625.463C625.837 37.34 626.023 37.1533 626.023 36.78V24.1H632.183Z" fill="#138944"/>
<line x1="646" y1="5" x2="646" y2="53" stroke="#138944" stroke-width="2"/>
<path d="M678.731 33.8574L671.718 37.8094L679.816 51.4999L679.852 51.4796L681.154 45.8568L686.793 47.5681L686.829 47.5478L678.731 33.8574Z" fill="#138944"/>
<path d="M670.633 37.8097L663.62 33.8576L655.522 47.548L655.558 47.5683L661.198 45.857L662.499 51.4799L662.535 51.5001L670.633 37.8097Z" fill="#138944"/>
<path d="M687.192 22.3084C687.192 30.9241 680.035 37.9167 671.196 37.9167C662.357 37.9167 655.2 30.9241 655.2 22.3084C655.2 13.6926 662.357 6.7 671.196 6.7C680.035 6.7 687.192 13.6926 687.192 22.3084Z" fill="white" stroke="#138944" stroke-width="0.4"/>
<ellipse cx="671.196" cy="22.3083" rx="12.9569" ry="12.6467" fill="#138944"/>
<ellipse cx="671.196" cy="22.3083" rx="9.71765" ry="9.48501" fill="white"/>
<ellipse cx="671.196" cy="22.3084" rx="8.09804" ry="7.90418" fill="#138944"/>
<path d="M671.196 17.5659L672.287 20.8428H675.817L672.961 22.8681L674.052 26.1451L671.196 24.1198L668.34 26.1451L669.431 22.8681L666.575 20.8428H670.105L671.196 17.5659Z" fill="white"/>
</svg>
