<svg xmlns="http://www.w3.org/2000/svg" viewBox="0 0 50 50"><defs><style>.cls-1,.cls-2{fill:#1a130d;}.cls-1{opacity:0;}.cls-3{fill:#ed1b24;}.cls-4{fill:#fcf004;}</style></defs><title>Asset 1</title><g id="Layer_2" data-name="Layer 2"><g id="Layer_1-2" data-name="Layer 1"><rect class="cls-1" width="50" height="50"/><path class="cls-2" d="M31.78,13.8c-1.39,1.58-2.71,3.08-4,4.6a.83.83,0,0,1-.71.27A24.8,24.8,0,0,0,9.33,26.51a13.3,13.3,0,0,0-3.87,7.16,7,7,0,0,0,3.77,7.65,13.66,13.66,0,0,0,7.19,1.61A25,25,0,0,0,34,35.28a14.23,14.23,0,0,0,4-7.1,7.06,7.06,0,0,0,0-2.86.67.67,0,0,1,.29-.8c1.25-.87,2.52-1.73,3.74-2.64.4-.29.5-.14.63.21A13,13,0,0,1,43,30.5a20.88,20.88,0,0,1-6.48,9.86,30.66,30.66,0,0,1-15.43,7.5c-5.09.88-10.1.63-14.69-2A11.92,11.92,0,0,1,0,34.29a17,17,0,0,1,4.2-10.1,30.21,30.21,0,0,1,19-10.56,24.32,24.32,0,0,1,8,0C31.4,13.68,31.56,13.74,31.78,13.8ZM31,14a25.51,25.51,0,0,0-10.23.49,28.82,28.82,0,0,0-4.83,1.61A28.1,28.1,0,0,0,4.36,24.73a17.45,17.45,0,0,0-3.82,8.5A11.44,11.44,0,0,0,4.69,44.17c3.23,2.69,7.09,3.63,11.18,3.72a25.68,25.68,0,0,0,6.62-.79A34.67,34.67,0,0,0,28,45.27a38.22,38.22,0,0,0,4.79-2.6,25.11,25.11,0,0,0,5.42-4.62,17.73,17.73,0,0,0,4.75-9.59A13.36,13.36,0,0,0,42.59,23c-.15-.56-.38-.77-.93-.35-1,.74-1.95,1.45-2.95,2.13a.49.49,0,0,0-.25.61,9,9,0,0,1-1.18,6.17,20.63,20.63,0,0,1-7.39,7.68,26,26,0,0,1-9.37,3.69,19.72,19.72,0,0,1-4.26.41,16.78,16.78,0,0,1-5.06-.72,11.19,11.19,0,0,1-4.1-2.38,7.12,7.12,0,0,1-2.18-6.18,13.43,13.43,0,0,1,3.36-7A21.16,21.16,0,0,1,13,22.8a30.47,30.47,0,0,1,5.79-3,24.86,24.86,0,0,1,7.89-1.55,1.48,1.48,0,0,0,1.19-.64Z"/><path class="cls-3" d="M50,7.67c0-1.72,0-3.45-.12-5.18,0-.16,0-.33,0-.5,0-.53-.22-.24-.39-.09-.54.34-1.09.65-1.61,1a74.59,74.59,0,0,0-8.67,7A118.19,118.19,0,0,0,26,24.43c-1.29,1.65-2.54,3.32-3.71,5.06-.09.14-.19.54-.5.15-1.2-1.54-2.41-3.06-3.6-4.6-.25-.32-.39-.21-.65,0-1.13.86-2.28,1.71-3.42,2.56L12.32,29c.63.49,1.21.9,1.76,1.35A47.68,47.68,0,0,1,21.27,38c.38.49.56.46.91,0,1.47-1.94,3-3.84,4.63-5.63a84.62,84.62,0,0,1,9.06-8.6,67.7,67.7,0,0,1,8-5.47,48.71,48.71,0,0,1,5.49-2.66c.53-.23.64-.39.64-.88C50,12.42,50,10,50,7.67Z"/><path class="cls-4" d="M31,14l-3.12,3.61a1.48,1.48,0,0,1-1.19.64,24.86,24.86,0,0,0-7.89,1.55,30.47,30.47,0,0,0-5.79,3A21.16,21.16,0,0,0,8.28,27a13.43,13.43,0,0,0-3.36,7.05A7.12,7.12,0,0,0,7.1,40.24a11.19,11.19,0,0,0,4.1,2.38,16.78,16.78,0,0,0,5.06.72,19.72,19.72,0,0,0,4.26-.41,26,26,0,0,0,9.37-3.69,20.63,20.63,0,0,0,7.39-7.68,9,9,0,0,0,1.18-6.17.49.49,0,0,1,.25-.61c1-.68,2-1.39,2.95-2.13.55-.42.78-.21.93.35a13.36,13.36,0,0,1,.35,5.46,17.73,17.73,0,0,1-4.75,9.59,25.11,25.11,0,0,1-5.42,4.62A38.22,38.22,0,0,1,28,45.27a34.67,34.67,0,0,1-5.49,1.83,25.68,25.68,0,0,1-6.62.79c-4.09-.09-7.95-1-11.18-3.72A11.44,11.44,0,0,1,.54,33.23a17.45,17.45,0,0,1,3.82-8.5,28.1,28.1,0,0,1,11.58-8.61,28.82,28.82,0,0,1,4.83-1.61A25.51,25.51,0,0,1,31,14Z"/></g></g></svg>