<svg xmlns="http://www.w3.org/2000/svg" xmlns:xlink="http://www.w3.org/1999/xlink" width="19.548" height="19.548" viewBox="0 0 19.548 19.548">
  <defs>
    <clipPath id="clip-path">
      <path id="Clip_2346" data-name="Clip 2346" d="M0,9.774a9.774,9.774,0,0,0,9.774,9.774h0a9.774,9.774,0,0,0,9.774-9.774h0A9.774,9.774,0,0,0,9.774,0h0A9.774,9.774,0,0,0,0,9.774Z" fill="none"/>
    </clipPath>
  </defs>
  <g id="Group_2354" data-name="Group 2354" clip-path="url(#clip-path)">
    <path id="Fill_2345" data-name="Fill 2345" d="M0,20.306H33.079V0H0Z" transform="translate(-6.766 -0.379)" fill="#006b35"/>
    <path id="Fill_2347" data-name="Fill 2347" d="M1.21,1.3c-.006.237.022.517.144.4s0-.678,0-.678C1.3.753,1.263.631,1.234.386S1.279-.021,1.383,0c.22.05.248.461.269.716a2.23,2.23,0,0,0,.12.735c.088.145.2.034.092-.145A1.173,1.173,0,0,1,1.755.517c.074-.229.264-.039.264-.039a1.1,1.1,0,0,1,.157.846c.357.327.405.289.489.289s.049-.3-.025-.366S2.309.753,2.383.524s.33-.213.488.03c.2.282.066.348-.05.242a1.9,1.9,0,0,1,.2.939c-.091.26-.616.5-.826.305s-.34-.084-.34.046A6.012,6.012,0,0,1,1.9,3.167c-.091.594-.322.5-.322.5S1.54,2.635,1.494,2.454s-.161-.148-.4-.224S.919,1.575.919,1.575.973,1.183.878,1.1c-.148,0-.14.266-.14.434s0,.624-.256.624S.06,1.942.019,1.629a5.279,5.279,0,0,1,0-.846s.107-.2.174.16.131.746.239.746.149-.479.216-.677.187-.473.4-.434.162.541.158.727" transform="translate(1.547 5.241)" fill="#fff"/>
    <path id="Fill_2348" data-name="Fill 2348" d="M15.157,5.473c-.074,0-.121-.017-.141-.049a.1.1,0,0,1,0-.087.6.6,0,0,0,.057-.063.41.41,0,0,1,.09-.089,1.6,1.6,0,0,1,.235-.114,1.871,1.871,0,0,0,.213-.1,1.237,1.237,0,0,0,.5-.594,4.314,4.314,0,0,0-.016-.53c-.009-.139-.017-.27-.017-.353s-.05-.626-.084-.914c-.008-.066-.015-.13-.022-.194-.03-.266-.057-.516-.11-.842-.007-.041-.016-.091-.026-.148A3.034,3.034,0,0,1,15.764.34l.115-.213a.36.36,0,0,1,.146.148c.012.018.024.035.035.05.043.056.084.114.124.17l.075.1a.768.768,0,0,1,.059.1.509.509,0,0,0,.089.14.2.2,0,0,1-.015.076L16.31.927l-.084.008V.95h-.017a1.93,1.93,0,0,0,.083.472,1.822,1.822,0,0,1,.045.28,1.818,1.818,0,0,0,.039.253c0,.09.015.168.024.243s.018.141.023.224a8.013,8.013,0,0,1,.036,1.027c0,.082,0,.163,0,.242q0,.069,0,.139a2.152,2.152,0,0,1-.183,1.156,1.142,1.142,0,0,1-.612.412,1.543,1.543,0,0,1-.364.06A.847.847,0,0,1,15.157,5.473ZM1.8,5.389H1.732a.861.861,0,0,1-.887-.75,1.263,1.263,0,0,1,.1-.7c.012-.026.031-.065.07-.071h0c.018,0,.067.013.071.027.018.082.029.172.041.268.03.248.06.505.225.614a.96.96,0,0,0,.545.153,1.637,1.637,0,0,0,1.158-.5,1.778,1.778,0,0,0,.282-.532c.014-.072.032-.144.05-.215s.036-.142.05-.213a.362.362,0,0,0-.034-.2c-.122.015-.162.214-.2.389a1.117,1.117,0,0,1-.049.19,1.431,1.431,0,0,1-.827.793,1.105,1.105,0,0,1-.348.061.762.762,0,0,1-.684-.4,1.013,1.013,0,0,1,.04-1.014h.082a2.182,2.182,0,0,1,.045.28c.028.232.06.5.219.589A.417.417,0,0,0,1.9,4.2a1.1,1.1,0,0,0,.337-.062,1.046,1.046,0,0,0,.777-.792.843.843,0,0,0-.126.042l-.051.032a.613.613,0,0,1-.086.05.46.46,0,0,1-.186.037.567.567,0,0,1-.107-.01.3.3,0,0,1-.243-.342.735.735,0,0,1,.149-.516.55.55,0,0,1,.359-.181.323.323,0,0,1,.06.006.757.757,0,0,1,.432.32.181.181,0,0,0,.144-.068.388.388,0,0,0,.033-.291l-.036-.144a5.179,5.179,0,0,1-.123-.583c-.009-.065-.017-.13-.025-.2a4.877,4.877,0,0,0-.11-.654A2.014,2.014,0,0,1,3.03.46c-.011-.193.244-.241.246-.241l.029,0a.2.2,0,0,1,.14.066,1.094,1.094,0,0,1,.22.467l.008.03a1.023,1.023,0,0,0,.035.112L3.714.9c.019.043.054.124.033.172a.058.058,0,0,1-.037.032.086.086,0,0,1-.027,0A.241.241,0,0,1,3.631,1.1.267.267,0,0,0,3.58,1.1a.076.076,0,0,0-.041.01c-.056.035-.031.123-.016.175l0,.007c.023.084.045.166.061.25.04.211.062.427.083.636.011.108.022.219.035.328l.009.006.008.009a.431.431,0,0,0,.069-.02.326.326,0,0,1,.1-.025.109.109,0,0,1,.058.015c.054.025.059.08.064.138a.207.207,0,0,0,.035.121.157.157,0,0,0,.095.028.228.228,0,0,0,.136-.042.283.283,0,0,0,.081-.121.42.42,0,0,1,.051-.093l.021-.013.1-.062h.01a.146.146,0,0,1,.073.014c.067.022.095.089.122.153.009.021.017.042.027.06.126,0,.13-.05.135-.113a.237.237,0,0,1,.031-.114c.022-.051.076-.067.133-.083a.347.347,0,0,0,.1-.039h.017v0A1.238,1.238,0,0,1,5,3.086a.3.3,0,0,1-.218.089.482.482,0,0,1-.117-.016.433.433,0,0,1-.1-.043.472.472,0,0,0-.115-.049A.662.662,0,0,1,4,3.285a.265.265,0,0,1-.228-.111.241.241,0,0,0-.054.011l-.013,0c0,.084.013.17.022.254a1.987,1.987,0,0,1,.011.524A1.8,1.8,0,0,1,2.283,5.323,1.871,1.871,0,0,1,1.8,5.389Zm.858-2.527H2.641a.082.082,0,0,0-.025.009.189.189,0,0,0-.1.118.088.088,0,0,0,.019.076.128.128,0,0,0,.084.035.436.436,0,0,0,.06,0c.06,0,.1-.02.108-.06A.142.142,0,0,0,2.77,2.9.192.192,0,0,0,2.655,2.863Zm9.963,2.525a.572.572,0,0,1-.237-.07.954.954,0,0,1-.283-.242.988.988,0,0,1,.01-1.132l0,0a.265.265,0,0,1,0,.089,1.216,1.216,0,0,0,.158.76l.022.025c.044.051.1.12.182.12a.156.156,0,0,0,.079-.023c.11-.037.16-.176.2-.3.015-.041.028-.079.043-.112a2.67,2.67,0,0,1,.3-.518c.106-.13.182-.137.2-.137h0l.027,0c.121,0,.187.1.286.248a1.227,1.227,0,0,0,.232.256.28.28,0,0,0,.068.009.184.184,0,0,0,.1-.024.894.894,0,0,0,.187-.7c-.028-.473-.082-1.279-.088-1.369,0-.074-.005-.142-.008-.209s-.005-.144-.008-.219a.626.626,0,0,0-.142-.18c-.028-.028-.055-.055-.075-.079L13.742,1.4l0,0c-.068-.087-.138-.177-.21-.267A1.726,1.726,0,0,0,13.406,1a1.222,1.222,0,0,1-.173-.2,1.046,1.046,0,0,1,0-.685c.087,0,.33.242.476.386.039.038.069.069.087.085.052.049.076.088.068.108s-.017.016-.038.016a.173.173,0,0,0-.1.028V.768a.69.69,0,0,1,.081.089.674.674,0,0,0,.085.094h0a.287.287,0,0,0,0-.1V.846c-.009-.1-.022-.2-.035-.291-.006-.042-.011-.082-.016-.122a.342.342,0,0,1,.022-.184c.019-.041.08-.125.149-.125l.017,0c.086.018.138.134.179.228a.872.872,0,0,0,.042.087c.1.167.189.306.281.448,0,.01,0,.02,0,.029a.106.106,0,0,1-.032.093H14.5a.132.132,0,0,1-.085-.03A.364.364,0,0,0,14.357.95a.677.677,0,0,0,.017.3c.006.1.011.211.015.335.16.212.469.608.481.609a2.778,2.778,0,0,0-.062-.376l-.019-.088-.051-.251V1.477c-.035-.173-.071-.351-.105-.528a2.756,2.756,0,0,1-.054-.407l0-.034A.368.368,0,0,1,14.641.22a.288.288,0,0,1,.1-.076A.113.113,0,0,1,14.791.13c.138,0,.284.271.434.8l.009.03c0,.048,0,.082-.019.1s-.039.021-.085.021H15.1V1.1h-.018a2.185,2.185,0,0,0,.1.609,2.486,2.486,0,0,1,.062.354,2.552,2.552,0,0,0,.053.317l.065.529.275.344c.1.13.223.3.339.484a1.039,1.039,0,0,1,.016.7l-.005.015a.016.016,0,0,1-.005.009l-.006.006a2.007,2.007,0,0,0-.141-.229L15.8,4.18c-.122-.185-.361-.571-.362-.579a.866.866,0,0,0-.005.108,4.036,4.036,0,0,1-.029.441,1.008,1.008,0,0,1-.281.363l-.066.063h-.016c0-.237-.009-.443-.019-.681-.005-.132-.011-.272-.016-.432q-.01-.172-.021-.345l-.011-.173c-.125-.164-.249-.331-.364-.488h-.034q.009.633.016,1.264c0,.053,0,.109,0,.163a1.523,1.523,0,0,1-.036.493.775.775,0,0,1-.164.276A.524.524,0,0,1,14,4.838a.647.647,0,0,1-.271-.065,2.5,2.5,0,0,1-.325-.244.253.253,0,0,0-.167-.078.135.135,0,0,0-.07.017.468.468,0,0,0-.153.343,1.234,1.234,0,0,1-.046.2.622.622,0,0,1-.216.329A.219.219,0,0,1,12.618,5.388ZM5.3,5.364h0a.779.779,0,0,1-.44-.133.628.628,0,0,1-.186-.251c-.014-.028-.029-.057-.045-.085-.244.075-.481.165-.711.253L3.9,5.154l-.465.13-.081.023H3.333a.228.228,0,0,1-.107-.016.021.021,0,0,1-.005-.018c.007-.066.233-.225.3-.272.149-.1.316-.188.477-.275.1-.053.2-.109.3-.166l.04-.024c.106-.062.215-.127.324-.189a.184.184,0,0,0,.08-.146.566.566,0,0,1,.015-.063c.009-.026.017-.052.025-.077s.025-.081.04-.12.111-.217.187-.218a.724.724,0,0,1-.022.109c-.023.094-.05.2.008.27a.83.83,0,0,0,.19-.131l.006-.005c.042-.036.092-.073.145-.113a1.1,1.1,0,0,0,.4-.421A.365.365,0,0,0,5.751,3.2a.7.7,0,0,0-.222-.3.446.446,0,0,1-.159-.33.347.347,0,0,1,.073-.254.226.226,0,0,1,.173-.079.4.4,0,0,1,.24.1.664.664,0,0,1,.231.444.193.193,0,0,1-.115-.031H5.889a1.43,1.43,0,0,0,.077.181,1.412,1.412,0,0,1,.1.261.87.87,0,0,1-.148.7,2.26,2.26,0,0,1-.877.747.243.243,0,0,0,.074.192.636.636,0,0,1,.042.051,2.074,2.074,0,0,0,.213.014.554.554,0,0,0,.2-.029,2.318,2.318,0,0,0,.944-.945,1.1,1.1,0,0,0,.015-.427c-.028-.12-.058-.241-.088-.358l-.028-.113a.65.65,0,0,0-.078-.167c-.014-.023-.027-.045-.038-.067a1.752,1.752,0,0,1-.1-.245.446.446,0,0,1,.017-.437.154.154,0,0,1,.111-.062c.112,0,.2.185.244.284l.01.022a4.333,4.333,0,0,1,.247.671,1.163,1.163,0,0,1,.034.221.649.649,0,0,0,.066.281c.05-.013.059-.037.074-.074l.007-.018a.344.344,0,0,1,.081-.111,1.984,1.984,0,0,1,.863-.391.888.888,0,0,1,.15-.022.722.722,0,0,0,.147-.023,1.975,1.975,0,0,0,.025-.235.746.746,0,0,1,.092-.39.456.456,0,0,1,.375-.195.7.7,0,0,1,.468.21.551.551,0,0,1,.018.579,1.182,1.182,0,0,1-1.043.5l-.006.008-.009.006a.2.2,0,0,0,.011.049l0,.012.483.006.692.009c.043,0,.091,0,.137-.007s.091-.007.137-.007a.391.391,0,0,1,.236.059A.467.467,0,0,0,9.7,3.8a.691.691,0,0,1-.089.228,2.364,2.364,0,0,1-.765.175c-.132.018-.257.035-.343.053l-.078.007-.251.022s-.2.126-.222.229.178.239.322.3.248.116.2.266c-.029.083-.1.124-.228.124A.988.988,0,0,1,8.1,5.189a2.063,2.063,0,0,1-.8-.266A1.73,1.73,0,0,1,7.013,4.7c-.01-.01-.051-.06-.093-.112a1.759,1.759,0,0,0-.139-.164.455.455,0,0,0-.284.235c-.021.031-.041.059-.062.085A1.678,1.678,0,0,1,5.3,5.364ZM7.118,3.8H7.112a.107.107,0,0,1-.056.022.173.173,0,0,0-.044.013c-.07.334.141.485.346.632.054.039.1.075.15.115h0a.189.189,0,0,0,.1-.015A.25.25,0,0,0,7.622,4.4a.358.358,0,0,1,0-.148c.038-.107.172-.16.29-.207C7.96,4.032,8,4.015,8.038,4c0-.063-.008-.1-.049-.121A5.194,5.194,0,0,0,7.118,3.8Zm1.5-1.245H8.585a.01.01,0,0,0-.009.005c-.012.021.01.094.015.1a.226.226,0,0,0,.122.082l.033,0a.192.192,0,0,0,.1-.018.01.01,0,0,0,0-.008C8.842,2.6,8.77,2.55,8.616,2.55ZM.341,5.324a.308.308,0,0,1-.32-.22A1.339,1.339,0,0,1,.266,4.073s.016.154.014.17C.274,4.3.266,4.35.258,4.4c-.005.032-.01.065-.015.1A.532.532,0,0,0,.3,4.925.4.4,0,0,1,.514,4.8a.055.055,0,0,1,.048.025c.043.063,0,.232-.025.308-.018.047-.085.184-.157.194A.338.338,0,0,1,.341,5.324ZM9.179,5.14H9.156c-.065,0-.116,0-.132-.066a.259.259,0,0,1,0-.081.315.315,0,0,0,0-.064v0c0-.027-.007-.06-.033-.073a.053.053,0,0,0-.023,0,.2.2,0,0,0-.055.012.2.2,0,0,1-.057.012.056.056,0,0,1-.024,0A.066.066,0,0,1,8.8,4.839a.121.121,0,0,0-.016-.02.018.018,0,0,1,0-.017c.009-.061.21-.206.273-.237l.012-.006a.087.087,0,0,1,.023,0,.35.35,0,0,1,.121.034h0a.354.354,0,0,1-.021.095c-.019.061-.039.124.006.179a.3.3,0,0,1,.017.045.7.7,0,0,0,.175-.051A.744.744,0,0,1,9.625,4.8a.159.159,0,0,1,.084.021h.034l.005.014a.022.022,0,0,0,.005.01l.006.007v.006a.15.15,0,0,1-.016.086.808.808,0,0,1-.276.1.861.861,0,0,0-.287.1Zm.778-.29h0c0-.134.006-.276.011-.414.009-.229.018-.466,0-.682-.01-.168-.016-.313-.016-.519L9.924,2.7l-.088-.747L9.66,1.712c-.077-.1-.153-.207-.226-.308-.109-.152-.222-.308-.342-.456C9.056.9,9.015.86,8.972.815A1.045,1.045,0,0,1,8.749.523.744.744,0,0,1,8.716.195c0-.018,0-.035,0-.053A.4.4,0,0,0,8.783.067a1.331,1.331,0,0,1,.769.526c0-.014,0-.032,0-.052A.61.61,0,0,1,9.56.326a.393.393,0,0,1,.133-.2L9.7.122a.022.022,0,0,1,.01,0l.015,0c.055.078.118.154.179.228a2.6,2.6,0,0,1,.268.367,1.161,1.161,0,0,1,.1.286c0,.006.029.064.014.087a.024.024,0,0,1-.022.01.2.2,0,0,1-.091-.038.022.022,0,0,0-.011,0,.011.011,0,0,0-.008,0c-.013.014-.007.065,0,.1l0,.018a2.337,2.337,0,0,0,.051.31.87.87,0,0,1,.015.169.773.773,0,0,0,.021.189.6.6,0,0,0,.14.225l.034.041a5.634,5.634,0,0,1,.505.756c.083.14.168.284.259.422a1.161,1.161,0,0,1,.134.344l0,.012c.04.153.107.408-.02.536a.049.049,0,0,1-.033.017c-.04,0-.07-.074-.092-.129-.007-.017-.013-.032-.018-.041-.023-.044-.044-.089-.065-.132s-.034-.072-.052-.108a4.728,4.728,0,0,0-.289-.471,5.115,5.115,0,0,1-.271-.435c-.022-.041-.043-.078-.066-.113a.392.392,0,0,0-.029-.035.206.206,0,0,1-.048-.068h0a.014.014,0,0,0-.011.005c-.025.028-.012.16-.006.231,0,.017,0,.029,0,.037l.006.1c0,.072.008.143.012.214.01.219.018.432.018.643,0,.047,0,.1,0,.15a1.187,1.187,0,0,1-.023.4c-.128.393-.369.411-.379.411Zm2.376-.209a.018.018,0,0,1-.012,0,11.751,11.751,0,0,0-.281-2.575c-.024-.11-.044-.22-.063-.326a4.4,4.4,0,0,0-.1-.482c-.088-.3-.093-.977.132-1.112a3.754,3.754,0,0,0,.282.5c.019.028.041.055.064.084a.525.525,0,0,1,.15.312h-.03a.4.4,0,0,0-.184.031,2.574,2.574,0,0,0,.1.594,2.638,2.638,0,0,1,.061.4,2.572,2.572,0,0,0,.054.364q.038.312.075.624t.075.624a1.743,1.743,0,0,1-.091.7C12.455,4.585,12.368,4.641,12.334,4.641ZM4.468,4.115A.019.019,0,0,1,4.45,4.1c.007-.262,0-.415-.2-.534a.126.126,0,0,1,0-.1.106.106,0,0,1,.084-.049h.016a.314.314,0,0,1,.236.185.447.447,0,0,1-.066.485A.082.082,0,0,1,4.468,4.115Zm9.376-.164h0a.208.208,0,0,1-.063-.014h0c0-.03,0-.057,0-.083a.921.921,0,0,0-.134-.572c-.037-.149-.006-.179.061-.244a.106.106,0,0,1,.052-.013.157.157,0,0,1,.113.058c.059.066.152.243.1.687a.283.283,0,0,1-.132.182ZM.161,3.492v0A1.159,1.159,0,0,1,.3,3.245L.334,3.2a1.43,1.43,0,0,1,.505-.387,1.126,1.126,0,0,1,.3-.117.586.586,0,0,1,.116-.013.345.345,0,0,1,.184.047.173.173,0,0,1,.063.079.3.3,0,0,0,.035.058.008.008,0,0,1,0,.008,1.624,1.624,0,0,1-.423.189l-.035.012c-.114.049-.226.106-.335.161-.087.044-.177.09-.267.131a1.224,1.224,0,0,1-.142.051,1.01,1.01,0,0,0-.176.068Zm12.872-.165a.014.014,0,0,1-.01,0c-.029-.03-.022-.19-.022-.192,0-.08.137-.159.237-.217.029-.016.053-.031.07-.042l.054-.04a2.846,2.846,0,0,1,.35-.23l.026-.014a.765.765,0,0,0,.092-.055l.018-.017a.094.094,0,0,1,.058-.035.043.043,0,0,1,.02.005c.028.014.029.062.03.091v.008a.341.341,0,0,1-.167.3A4.19,4.19,0,0,1,13.034,3.326ZM7.607,2.676a.3.3,0,0,1-.18-.05.207.207,0,0,1-.121-.141.191.191,0,0,1,.022-.179l.006-.018.009-.028a.117.117,0,0,1,.1.047.1.1,0,0,1,.012.027c.007.019.014.041.035.046H7.5c.027,0,.044-.034.053-.06,0-.01.007-.02.009-.029s.01-.032.014-.032c.079.008.094.052.112.1a.393.393,0,0,0,.02.05h.034c.007-.019.013-.038.019-.057a.585.585,0,0,1,.045-.112h.068l.012.02a.135.135,0,0,1,.019.041.326.326,0,0,1,.017.229C7.892,2.622,7.735,2.676,7.607,2.676Zm5.839-.2h0a1.31,1.31,0,0,1-.25-.119.884.884,0,0,1-.358-.341.265.265,0,0,1,0-.237.165.165,0,0,1,.143-.079h.008a.128.128,0,0,1,.106.066l.02.025a.119.119,0,0,0,.059.044c.009,0,.036,0,.058-.008h.009l.043-.006a.278.278,0,0,1,0-.257.175.175,0,0,1,.14-.094h.017c.073,0,.136.049.188.145a.565.565,0,0,1,.052.164c.006.036,0,.059-.006.072a.047.047,0,0,1-.039.013.466.466,0,0,1-.082-.012.315.315,0,0,1-.067.046l-.034.579Zm-6.5-.348h0A.477.477,0,0,1,6.6,1.978a.569.569,0,0,1-.159-.409.886.886,0,0,0,0-.11c0-.025,0-.052,0-.078s0-.041,0-.062a.715.715,0,0,0-.014-.155c-.117.009-.134.12-.15.218a.6.6,0,0,1-.018.086l-.019.06a1.161,1.161,0,0,1-.163.367.189.189,0,0,1-.156.074.492.492,0,0,1-.231-.076.681.681,0,0,1-.219-.241,1.218,1.218,0,0,1-.11-.538,1.968,1.968,0,0,1,.07-.56.2.2,0,0,1,.06.013l.007,0c.037.011.063.188.073.255l0,.019c0,.01,0,.028.006.051.018.176.067.643.249.643a.128.128,0,0,0,.049-.011c.093-.039.111-.158.126-.263a.684.684,0,0,1,.024-.117A2.35,2.35,0,0,1,6.256.676l0-.007c.065-.1.153-.236.292-.236h.013A.187.187,0,0,1,6.7.5c.085.1.066.3.048.5s-.036.387.046.475a.229.229,0,0,0,.145.121.543.543,0,0,1,.088.046.378.378,0,0,0,.3-.126A.753.753,0,0,0,7.443.95,1.356,1.356,0,0,0,7.379.722.984.984,0,0,1,7.308.41.432.432,0,0,1,7.389.187L7.412.149a.556.556,0,0,1,.1-.143h.067L7.588.03A1.79,1.79,0,0,1,7.742.4a1.907,1.907,0,0,1,.037.444,1.529,1.529,0,0,0,.046.455c.007.021.013.043.019.065.03.107.058.207.162.24a.23.23,0,0,0,.07.011.3.3,0,0,0,.192-.093.446.446,0,0,1,.052-.04A1.068,1.068,0,0,0,8.172.859C8.157.837,8.139.815,8.119.791A.6.6,0,0,1,8.038.676.512.512,0,0,1,8.072.265C8.1.172,8.193.126,8.336.126l.051,0,.021.019c.106.1.385.352.293.484-.019.037-.082.048-.137.058a.377.377,0,0,0-.079.019,2.475,2.475,0,0,0,.232.715.729.729,0,0,0,.169.024.367.367,0,0,0,.107-.015.39.39,0,0,0,.083-.043.3.3,0,0,1,.106-.048h.011a.05.05,0,0,1,.043.021.218.218,0,0,1,0,.161.557.557,0,0,1-.126.193l-.032.035a.273.273,0,0,1-.144.107l-.029,0a.077.077,0,0,1-.077-.036.47.47,0,0,1,.03-.144.211.211,0,0,0,.007-.027l-.008,0a.172.172,0,0,1-.04-.027c-.058,0-.07.006-.1.031a1,1,0,0,0-.2.248c-.006.009-.011.02-.017.032a.191.191,0,0,1-.041.062.611.611,0,0,1-.271.08l-.038,0a.371.371,0,0,1-.188-.049.641.641,0,0,1-.155-.141c-.005-.006-.016-.021-.028-.039-.029-.043-.069-.1-.086-.1a.433.433,0,0,0-.266.144,1.533,1.533,0,0,1-.19.146A.52.52,0,0,1,6.946,2.126ZM4.816,2A.158.158,0,0,1,4.7,1.95a.288.288,0,0,1-.1-.241.373.373,0,0,1,.063-.128l0-.006c.019-.032.07-.118.1-.123l.017,0a.057.057,0,0,0,.033-.012l.036.008.03.006a.15.15,0,0,1-.033.107A.383.383,0,0,0,4.9,1.8a.234.234,0,0,0,.143-.048.111.111,0,0,0,.016-.018.074.074,0,0,1,.03-.026h.058c-.042.144-.108.23-.2.257A.413.413,0,0,1,4.816,2ZM15.48,1.577h0a1.09,1.09,0,0,1-.018-.139c0-.019,0-.037.006-.055a.425.425,0,0,0,.006-.1A.387.387,0,0,0,15.4,1.1a.811.811,0,0,1-.05-.086C15.34,1,15.329.98,15.318.959a.372.372,0,0,1-.067-.205.116.116,0,0,1,.116-.1h.013a.2.2,0,0,1,.136.06.45.45,0,0,1,.1.232l.009.039a.726.726,0,0,1,.015.356.5.5,0,0,1-.065.141.434.434,0,0,1-.093.092ZM4.143,1.557A.667.667,0,0,1,3.9,1.529l-.01-.007-.008-.009a4.918,4.918,0,0,0,.478-.341l.108-.083c.03-.024.063-.047.095-.069A1.436,1.436,0,0,0,4.719.9l.037-.03c.049-.04.111-.089.116-.14S4.83.651,4.785.623A.312.312,0,0,1,4.729.582a.22.22,0,0,1-.038-.21.222.222,0,0,1,.12-.154L4.83.2A.187.187,0,0,1,4.863.188.175.175,0,0,0,4.9.173h0a.364.364,0,0,1,.278.092.238.238,0,0,1,.049.194.192.192,0,0,1-.077.116l0,0C5.117.6,5.1.622,5.1.64s.013.031.044.057a.1.1,0,0,1,.045.074c0,.043-.05.081-.1.118a.664.664,0,0,0-.063.053,2.359,2.359,0,0,0-.168.2,1.01,1.01,0,0,1-.476.391A.683.683,0,0,1,4.143,1.557ZM4.931.387A.047.047,0,0,0,4.9.4.093.093,0,0,0,4.875.47a.138.138,0,0,0,.038.105A.106.106,0,0,0,4.977.6.068.068,0,0,0,5.041.543.13.13,0,0,0,4.967.4.077.077,0,0,0,4.931.387Zm5.722.685h0l0-.058c0-.081.008-.164.013-.246a.559.559,0,0,0-.139-.206.84.84,0,0,1-.093-.114A.137.137,0,0,1,10.421.4.106.106,0,0,0,10.4.356a.213.213,0,0,1,.028-.1l.006-.012A.221.221,0,0,0,10.5.219.311.311,0,0,1,10.8.4a.7.7,0,0,1-.084.654l-.012,0a.208.208,0,0,1-.052.011ZM.681.841h0A.357.357,0,0,1,.667.687.37.37,0,0,0,.653.529.431.431,0,0,0,.558.4.41.41,0,0,1,.472.287.192.192,0,0,1,.49.153.046.046,0,0,1,.529.127a.231.231,0,0,1,.149.03A.356.356,0,0,1,.822.492C.821.5.806.8.681.841Zm6.3-.133h0A.2.2,0,0,1,6.875.681L6.865.676a.886.886,0,0,1,.183-.64H7.1L7.1.044a.064.064,0,0,0,.027.023A.683.683,0,0,1,7.057.58c-.017.04-.032.077-.044.111L7,.7A.017.017,0,0,0,6.987.7L6.981.707ZM5.849.593A.124.124,0,0,1,5.744.53C5.665.416,5.775.214,5.8.174A.363.363,0,0,1,5.914.051.356.356,0,0,1,6.041,0a.028.028,0,0,1,.014,0,.029.029,0,0,1,.014.019A.171.171,0,0,1,6.03.13a.509.509,0,0,1-.074.089L5.947.228A.1.1,0,0,0,5.909.34C5.922.4,5.954.4,5.994.4h.016a.2.2,0,0,1,.042,0A.244.244,0,0,1,5.849.593Zm-3.576,0a.3.3,0,0,1-.18-.05A.213.213,0,0,1,1.972.4.191.191,0,0,1,1.993.223L2.01.177c.088,0,.1.034.115.079A.383.383,0,0,0,2.142.3h.011A.1.1,0,0,0,2.209.283.269.269,0,0,0,2.241.177c.08.008.1.052.114.1a.415.415,0,0,0,.019.047h.033c.008-.02.015-.041.022-.06A.585.585,0,0,1,2.473.162H2.54L2.552.18a.147.147,0,0,1,.021.042A.331.331,0,0,1,2.59.451C2.559.538,2.4.593,2.273.593Z" transform="translate(1.457 5.044)" fill="#fff"/>
    <path id="Fill_2349" data-name="Fill 2349" d="M.209.254S0,.168.076.025A.744.744,0,0,1,.286,0C.418,0,.5.061.446.153s-.105.16.018.16S.678.34.556.453.093.7.021.595.113.42.171.366A.1.1,0,0,0,.209.254" transform="translate(15.964 9.792)" fill="#fff"/>
    <path id="Fill_2350" data-name="Fill 2350" d="M.149.2s.006.1.055.1S.264.277.276.2.391.145.391.215s.044.109.076.08c0,0-.014-.16.09-.15S.65.328.629.416.491.582.326.582.042.541.006.383.1.081.149.2" transform="translate(11.847 6.278)" fill="#fff"/>
    <path id="Fill_2351" data-name="Fill 2351" d="M.325.269.471.256l.069.3S.325.325.325.269" transform="translate(10.588 5.56)" fill="#fff"/>
    <path id="Fill_2352" data-name="Fill 2352" d="M.964.958A1.457,1.457,0,0,1,.992.2c.133-.239.083-.3.254-.01s.4.675.11.7a4.961,4.961,0,0,0,.132,1.1,14.287,14.287,0,0,1,.1,2A1.968,1.968,0,0,1,.8,5.127c-.344.226-.711.173-.8-.1a9.79,9.79,0,0,0,.876-.548c.342-.269.392-.305.392-.6S1.1,2.112,1.1,2.112Z" transform="translate(11.641 5.213)" fill="#fff"/>
    <path id="Fill_2353" data-name="Fill 2353" d="M11.808,1.472h0a.232.232,0,0,1-.23-.142l-1.235.006c-.019.026-.088.109-.164.109a.142.142,0,0,1-.117-.084.52.52,0,0,1-.045-.481H9.945c-.6,0-2.683.008-3.1.009H2.861l-1.556,0s-.035,0-.089,0A1.526,1.526,0,0,1,0,.32H0c.011,0,1.4.071,2.326.071.89,0,3.589.014,3.7.015l4.015.011,0,0C10,.368,9.911.25,9.94.148c.02-.069.09-.119.209-.148a.145.145,0,0,0,.026.1.028.028,0,0,0,.019.01c.011,0,.107,0,.142.066s.007.136-.064.243c.338.018.563.032.711.041s.231.014.281.014.175-.015.283-.029c.089-.011.172-.022.2-.022a.476.476,0,0,1,.4.462c.041.375-.04.542-.281.578A.415.415,0,0,1,11.808,1.472Zm-.824-.435a.249.249,0,0,1,.168.074h.358a.18.18,0,0,0,.038-.1.109.109,0,0,0-.038-.08c-.279,0-1.148-.015-1.185-.015,0,0-.083.122,0,.2h.491A.253.253,0,0,1,10.985,1.038Z" transform="translate(3.719 13.574)" fill="#fff"/>
  </g>
</svg>
