<svg id="vuesax_outline_3dcube" data-name="vuesax/outline/3dcube" xmlns="http://www.w3.org/2000/svg" width="27.76" height="27.76" viewBox="0 0 27.76 27.76">
  <g id="_3dcube" data-name="3dcube">
    <path id="Vector" d="M10.121,12.68a3.191,3.191,0,0,1-1.481-.37L1.11,8.25a2.2,2.2,0,0,1,0-3.817L8.64.373a3.1,3.1,0,0,1,2.95,0l7.53,4.06a2.2,2.2,0,0,1,0,3.817l-7.53,4.06A2.981,2.981,0,0,1,10.121,12.68Zm0-10.954a1.371,1.371,0,0,0-.659.174L1.943,5.948a.433.433,0,0,0-.208.393.407.407,0,0,0,.208.382l7.53,4.06a1.378,1.378,0,0,0,1.307,0l7.53-4.06a.456.456,0,0,0,.208-.382.407.407,0,0,0-.208-.382L10.78,1.9A1.371,1.371,0,0,0,10.121,1.726Z" transform="translate(3.759 1.489)" fill="#0f893b"/>
    <path id="Vector-2" data-name="Vector" d="M9.867,15.567a2.172,2.172,0,0,1-.96-.231L1.9,11.842A3.434,3.434,0,0,1,0,8.765V2.149A2.147,2.147,0,0,1,3.111.229l7.01,3.493a3.421,3.421,0,0,1,1.9,3.077v6.616A2.134,2.134,0,0,1,11,15.243,2.11,2.11,0,0,1,9.867,15.567ZM2.151,1.733a.5.5,0,0,0-.22.058.414.414,0,0,0-.2.359V8.765a1.7,1.7,0,0,0,.937,1.527l7,3.5a.428.428,0,0,0,.4-.012.414.414,0,0,0,.2-.359V6.811a1.7,1.7,0,0,0-.937-1.527l-7-3.5A.4.4,0,0,0,2.151,1.733Z" transform="translate(1.446 10.713)" fill="#0f893b"/>
    <path id="Vector-3" data-name="Vector" d="M2.151,15.578a2.11,2.11,0,0,1-1.134-.324A2.134,2.134,0,0,1,0,13.427V6.811A3.434,3.434,0,0,1,1.9,3.734l7-3.5a2.147,2.147,0,0,1,3.111,1.92V8.765a3.434,3.434,0,0,1-1.9,3.077l-7,3.5A2.026,2.026,0,0,1,2.151,15.578ZM9.867,1.744a.4.4,0,0,0-.185.046l-7,3.5a1.687,1.687,0,0,0-.937,1.527v6.616a.414.414,0,0,0,.2.359.4.4,0,0,0,.4.012l7-3.5a1.7,1.7,0,0,0,.937-1.527V2.161a.414.414,0,0,0-.2-.359A.5.5,0,0,0,9.867,1.744Z" transform="translate(14.297 10.702)" fill="#0f893b"/>
    <path id="Vector-4" data-name="Vector" d="M0,0H27.76V27.76H0Z" fill="none" opacity="0"/>
  </g>
</svg>
