<svg xmlns="http://www.w3.org/2000/svg" width="19.418" height="19.419" viewBox="0 0 19.418 19.419">
  <path id="icon" d="M1082.783,5700.7a9.427,9.427,0,0,0,3.178,2,11.457,11.457,0,0,0,4.1.721,12.961,12.961,0,0,0,4.57-.767c1.249-.454.174-2.754-.743-2.379a9.508,9.508,0,0,1-3.653.642,8.656,8.656,0,0,1-3-.5,6.549,6.549,0,0,1-2.293-1.409,6.4,6.4,0,0,1-1.486-2.221,7.735,7.735,0,0,1-.538-2.974,7.85,7.85,0,0,1,.522-2.895,6.659,6.659,0,0,1,3.7-3.8,7.605,7.605,0,0,1,2.926-.548,9.411,9.411,0,0,1,2.735.391,5.652,5.652,0,0,1,2.087,1.159,5.4,5.4,0,0,1,1.376,1.893,6.461,6.461,0,0,1,.49,2.629,6.885,6.885,0,0,1-.19,1.643,4.416,4.416,0,0,1-.506,1.268,2.506,2.506,0,0,1-.727.783,1.5,1.5,0,0,1-1.2.219c-.474-.157-.38-.813-.348-1.205a12.741,12.741,0,0,1,.3-1.548c.174-.846.364-1.675.538-2.5.095-.453.206-.923.3-1.376a.946.946,0,0,0-.933-1.143h-.7a.947.947,0,0,0-.917.688c-.047.188-.095.345-.095.345-.348-1.064-1.629-1.361-2.641-1.346a4.843,4.843,0,0,0-3.432,1.644c-.079.093-.174.188-.253.282a6.021,6.021,0,0,0-1.044,1.861,6.619,6.619,0,0,0-.38,2.207,5.977,5.977,0,0,0,.269,1.8,4.345,4.345,0,0,0,.807,1.455,3.721,3.721,0,0,0,1.313.97,4.21,4.21,0,0,0,1.74.36,3.9,3.9,0,0,0,1.312-.219,4.837,4.837,0,0,0,1.028-.516,4.24,4.24,0,0,0,.632-.517,2.263,2.263,0,0,0,.411.547,2.666,2.666,0,0,0,2.024.7,5.14,5.14,0,0,0,2.056-.423,4.868,4.868,0,0,0,1.724-1.283,6.526,6.526,0,0,0,1.154-2.066,8.452,8.452,0,0,0,.427-2.785,8.272,8.272,0,0,0-.791-3.708,7.75,7.75,0,0,0-2.119-2.645,9.18,9.18,0,0,0-3-1.581,10.682,10.682,0,0,0-3.447-.547,10.513,10.513,0,0,0-3.906.735,10.221,10.221,0,0,0-3.194,2.05,9.453,9.453,0,0,0-2.957,6.948,10.039,10.039,0,0,0,.727,3.88A8.83,8.83,0,0,0,1082.783,5700.7Zm8.555-6.573a4.687,4.687,0,0,1-.49,1.2,2.839,2.839,0,0,1-.838.892,1.978,1.978,0,0,1-1.17.329,1.331,1.331,0,0,1-.711-.171,1.362,1.362,0,0,1-.458-.485,2.262,2.262,0,0,1-.253-.688,3.837,3.837,0,0,1-.079-.688,4.911,4.911,0,0,1,.19-1.33,4.075,4.075,0,0,1,.538-1.189,3.066,3.066,0,0,1,.838-.845,1.763,1.763,0,0,1,1.028-.3,1.51,1.51,0,0,1,.759.157,1.307,1.307,0,0,1,.458.422,2.125,2.125,0,0,1,.269.642,3.559,3.559,0,0,1,.1.813A5.959,5.959,0,0,1,1091.338,5694.124Z" transform="translate(-1080 -5684)" fill="#0f893b"/>
</svg>
