<svg xmlns="http://www.w3.org/2000/svg" width="277.237" height="246.695" viewBox="0 0 277.237 246.695">
  <g id="send_icon" transform="translate(-724.882 -187.243)">
    <g id="Background" transform="translate(724.882 187.243)">
      <g id="Colors_Light_Pink_FFDFD6" data-name="Colors/Light Pink #FFDFD6">
        <path id="Mask" d="M150.4,246.695c-1.693,0-3.435-.034-5.176-.1-1.6-.277-3.208-.6-4.767-.906-.8-.159-1.63-.323-2.443-.479l-3.58-.706c-.784-.162-1.578-.349-2.347-.53h0c-.373-.088-.8-.187-1.21-.282a26.016,26.016,0,0,1-7.015.9c-.437,0-.886-.009-1.334-.027-1.537-.044-3.186-.147-4.9-.309-1.522-.188-3.22-.427-5.346-.753-5.337-.871-11.347-2.134-17.71-3.471l-.012,0q-3.8-.8-7.859-1.636a17.22,17.22,0,0,0-5.1-2.05c-1.2-.4-2.511-.81-3.9-1.221-.357-.107-.727-.216-1.084-.32l-.009,0c-1.044-.306-2.123-.622-3.18-1l-4.245-1.441c-1.2-.429-2.345-.923-3.358-1.359l-.438-.188a30.574,30.574,0,0,1-2.99-1.459A7.86,7.86,0,0,1,60.63,228c-4.034-1.869-4.032-3.121-3.658-4.344a107.824,107.824,0,0,1-26.955-19.542,10.827,10.827,0,0,0,1.33,3.291c.335.61.72,1.263,1.146,1.942.436.624.93,1.293,1.511,2.045a38.641,38.641,0,0,0,3.74,4.285c-.941-.752-1.819-1.543-2.669-2.308s-1.668-1.5-2.381-2.036A124.238,124.238,0,0,0,44.105,221.63c.457.386.885.741,1.3,1.083l.008.006a14.463,14.463,0,0,1,2.538,2.353c.085.136.11.238.074.3s-.108.083-.229.083a10.269,10.269,0,0,1-2.839-.968c-1.7-1.052-3.155-2.139-4.438-3.1l-.7-.52a38.258,38.258,0,0,1-3.124-2.7q-.3-.278-.581-.542c-.5-.473-.983-.95-1.487-1.457-.391-.422-.753-.843-1.1-1.25l-.163-.189c-.82-.962-1.566-1.882-2.225-2.694-2.616-3.516-5.155-6.673-10.867-13.509a1.046,1.046,0,0,0,.207.024.3.3,0,0,0,.281-.126c.206-.348-.333-1.384-1.117-2.809-.581-1.018-1.327-2.19-1.981-3.2l-2.074-3.6a30.416,30.416,0,0,1-1.625-3.155l-.032-.069a10.182,10.182,0,0,1-.779-2.069.418.418,0,0,1,.027-.316.114.114,0,0,1,.092-.039c.3,0,1.1.745,2.45,2.277a90.5,90.5,0,0,1-5.8-12.03c-.811-1.636-1.569-3.164-2.379-4.8.649,2.545.906,3.777.991,4.182l.012.059c.01.071.009.114,0,.128a.015.015,0,0,1-.012.006,2.383,2.383,0,0,1-.472-.8l-.056-.123c-.306-.679-.687-1.523-.864-1.523a.057.057,0,0,0-.044.022,3.743,3.743,0,0,0,.064,1.64A97.945,97.945,0,0,1,.693,146.36a118.186,118.186,0,0,1,.064-26.137A114.317,114.317,0,0,1,6.5,95.182,118.959,118.959,0,0,1,17.325,72.4c3.869-5.449,7.48-10.145,11.039-14.355,4.314-5.16,8.016-9.269,11.65-12.933.887-.932,1.942-2.024,3.043-3.056l3.1-3.005c.659-.591,1.324-1.2,1.968-1.789l0,0c1.448-1.326,2.946-2.7,4.491-3.969,1.749-1.544,3.616-3.022,5.42-4.451q.679-.538,1.36-1.08c.745-.582,1.523-1.15,2.276-1.7l.01-.007c.416-.3.845-.617,1.266-.931l1.8-1.32,1.85-1.258c1.719-.857,2.991-1.472,4.024-1.888a17.391,17.391,0,0,1,2.426-.782,3.381,3.381,0,0,1,.675-.087c.245,0,.4.056.475.166s.053.283-.054.51A14.093,14.093,0,0,1,72,23.047a26.253,26.253,0,0,0-1.876,2.118,151.108,151.108,0,0,1,16.208-7.808c-2.807,1.46-5.63,3.063-8.628,4.9a163.258,163.258,0,0,1,25.264-9.891A175.583,175.583,0,0,1,130.545,6.51c1.5-.538,4.262-1.251,6.212-1.74a14.783,14.783,0,0,0,4.064-1.433c.1-.086.129-.172.1-.254-.075-.208-.636-.575-3.55-.693a180.966,180.966,0,0,0-25.385,4.172,12.886,12.886,0,0,1-1.651.159c-.32,0-.491-.042-.506-.126-.034-.181.662-.558,2.013-1.093A78.16,78.16,0,0,1,123.3,2.464c3.525-.307,6.056-.482,8.089-.622,1.9-.131,3.267-.225,4.523-.364,1.31-.15,2.479-.354,3.831-.614l1.4-.232L144.957,0a4.7,4.7,0,0,0,2.1.338c.806.053,1.833.078,3.141.078l.7,0c.743-.019,1.527-.028,2.331-.028,2.29,0,4.616.078,6.383.214l.16-.008.358-.019,1.216-.064L162.2.491l.744-.015.9-.028,1.971-.06c.31-.009.618-.021.917-.033h.009c.552-.022,1.073-.043,1.6-.043h.114l1.376.035,1.246.031.059,0a43.517,43.517,0,0,1,6,.549c1.225.189,2.49.405,3.865.66,1.456.33,3.04.743,4.671,1.172-1.967.035-3,.23-3.145.6-.053.13.009.284.182.458a6.807,6.807,0,0,0,1.83,1.069c.43.2.928.4,1.455.612.553.222,1.178.473,1.823.764,5.111,1.95,12.433,5.34,16.432,8.173a87.463,87.463,0,0,0-9.86-3.185,98.2,98.2,0,0,1,13.389,5.757,94.431,94.431,0,0,1,12,7.468,97.491,97.491,0,0,1,9.912,6.823,115.15,115.15,0,0,0-15.216-12.573,99.258,99.258,0,0,0-14.311-8.4,161.249,161.249,0,0,1,18.246,9A123.506,123.506,0,0,1,233.11,29.4a84.416,84.416,0,0,1,12.344,12.355,74.982,74.982,0,0,1,9.972,16.391c.943,1.64,1.78,3.157,2.518,4.5.78,1.413,1.516,2.748,2.231,3.964.514.972,1.021,1.891,1.512,2.779.739,1.338,1.436,2.6,2.092,3.925l.163.335a65.179,65.179,0,0,1,3.079,7.071,84.677,84.677,0,0,1,3.146,10.668c.088.634.095.983.02,1.069a.055.055,0,0,1-.043.021c-.138,0-.411-.5-.652-.934l-.02-.036c-.254-.462-.493-.9-.611-.9a.044.044,0,0,0-.035.018,5.254,5.254,0,0,0,.223,1.97,27.481,27.481,0,0,0,2.366,7.383c.258.549.524,1.116.788,1.772l.074-2.152c-.027.905.054,2.168.139,3.5.021.328.042.664.063,1q.014.282.028.567l.005.1c.078,1.586.159,3.227.161,4.6a10.908,10.908,0,0,1-.238,2.715c.395,1.5.793,2.842,1.145,4.026l.006.02c.2.677.391,1.316.564,1.93.266.956.528,1.844.782,2.7.294.995.572,1.935.836,2.912.343,1.473.783,3.5,1.14,6.156.137,1.316.21,2.767.262,4.013q.02.721.042,1.5l.024.867c.007.612-.022,1.247-.053,1.918v0c-.011.239-.022.482-.032.728a2.358,2.358,0,0,0-.048-.739,14.959,14.959,0,0,0-.311,2.24v.01c-.063.562-.127,1.143-.2,1.7a8.433,8.433,0,0,1-.492,2.374.052.052,0,0,1-.036.022c-.054,0-.092-.168-.116-.514l-.021-.641v-.023c-.014-.419-.032-.962-.054-1.651-.232,1.755-.389,4-.572,6.595v.007c-.139,1.973-.3,4.209-.506,6.442-.045.834-.162,1.681-.275,2.5-.059.428-.12.867-.171,1.3-.055.4-.109.822-.157,1.191v.006c-.109.841-.221,1.711-.359,2.542-.106.525-.209,1.047-.308,1.553-.363,1.845-.7,3.587-1.147,5.1a.426.426,0,0,1-.166.036c-.286,0-.463-.358-.619-.673l-.015-.029c-.164-.331-.32-.643-.562-.643h0c-.3,0-.705.538-1.236,1.633-.309.632-.662,1.452-1.079,2.509-.339.933-.82,2.048-1.378,3.34l0,.006-.007.015-.277.643-.707,1.854-.189.5-.211.554-.49,1.167L265,180.817a25.062,25.062,0,0,0-1.009,2.85c-.35,1.368-.214,1.67.034,1.974l.047.06c.226.285.461.579.23,1.646a25.515,25.515,0,0,1-3.164,6.909c.224-.362.455-.729.679-1.084l.01-.016c.8-1.274,1.632-2.589,2.318-3.957.275-.529.566-1.063.848-1.579.645-1.182,1.31-2.4,1.84-3.66a30.438,30.438,0,0,1-1.679,4.909q-.109.262-.22.53c-.309.748-.629,1.521-1,2.3q-.569,1.068-1.172,2.2l-.077.145-.332.625a77.945,77.945,0,0,1-8.866,12.756l-2.86,3.111q-.724.782-1.454,1.569l-1.561,1.475q-1.569,1.47-3.143,2.947c-.711.6-1.446,1.2-2.155,1.783l-.015.012c-.374.306-.761.622-1.139.934-1.509,1.311-3.13,2.466-4.7,3.582l0,0c-.665.474-1.353.964-2.012,1.452-.72.553-1.486,1.032-2.227,1.5-.375.235-.763.477-1.138.725l-.639.412-.025.016-2.6,1.677a120.25,120.25,0,0,1-21.236,6.941c-4.324.981-8.827,1.936-13.6,2.947l-.018,0c-3.471.736-7.061,1.5-10.924,2.341.173-.065.452-.161.776-.271,1.419-.486,3.794-1.3,3.8-1.728,0-.064-.051-.118-.157-.16a31.591,31.591,0,0,0-4.178.543c-.746.128-1.513.259-2.284.372-1.919.327-4.1.766-6.491,1.3-2.51.628-3.723,1.089-3.708,1.41.014.288.987.436,1.929.579.9.136,1.821.276,1.851.537.016.134-.2.288-.651.472-1.153.211-2.319.443-3.447.669h0c-2.891.577-5.88,1.174-9.074,1.49-.409.043-.839.091-1.218.133-1.867.207-3.8.42-5.853.454C152.365,246.684,151.374,246.695,150.4,246.695Zm-44.3-6.978c1.061,0,2.321.048,3.781.1h.016c.494.019,1.006.038,1.532.057l.225.006h.006l.184.005c-3.42-.443-6.8-.963-10.042-1.544-.025.237.286.74,2.662,1.433C104.885,239.737,105.42,239.717,106.094,239.717ZM241.6,46.538h0a123.935,123.935,0,0,1,8.742,13.883,150.3,150.3,0,0,1,7.279,15.539A206.758,206.758,0,0,1,268.062,111.5a138.841,138.841,0,0,1,2.913,30.3c.154-1.326.3-2.837.409-4.369a62.588,62.588,0,0,0-.232-9.575c.149.778.3.929.46,1.089.186.187.4.4.644,1.652-.322-2.553-.544-4.751-.739-6.69-.1-1.024-.2-1.991-.3-2.87-.111-1.221-.18-2.337-.207-3.317-.065-1.123-.086-1.873-.073-2.509a11.793,11.793,0,0,1,.364-2.993,7.874,7.874,0,0,1-.769-1.226,98.989,98.989,0,0,0-8.208-25.06c-.477-1.022-.957-2.039-1.422-3.022l-.023-.048a164.593,164.593,0,0,1-7.454-17.618c.164-1.059.347-2.31.47-3.561-.309-.509-.618-1.029-.917-1.532l-.016-.027c-.557-.937-1.133-1.906-1.727-2.844l-2.83-4.292a1.67,1.67,0,0,1-.053-.416c-.016-.443-.033-.944-1.593-3.1-.907-1.076-1.424-1.6-1.583-1.6a.046.046,0,0,0-.042.022,8.927,8.927,0,0,0,1.079,2.529c.835,1.667,1.781,3.556,1.552,3.948a.144.144,0,0,1-.125.072C245.716,51.705,243.683,49.045,241.6,46.538ZM65.861,27.925h0C48.169,38.247,32.9,53.009,22.88,69.491a131.752,131.752,0,0,1,29.857-31.77,99.749,99.749,0,0,1,13.125-9.8Zm163.672,4.741h0c2.3,2.21,4.568,4.609,6.731,7.129a.96.96,0,0,0,.337.177.028.028,0,0,0,.025-.011c.009-.014,0-.042-.016-.085A32.675,32.675,0,0,0,229.533,32.666ZM162.87,3.493h0c-1.918.193-2.445.643-2.708,1.059a2.8,2.8,0,0,0-.2.413l-.046.108A132.891,132.891,0,0,1,177.359,6.9c-.677-.187-1.21-.343-1.677-.488.1-.047.152-.1.141-.164-.124-.724-8.37-2.376-12.953-2.751Z" fill="rgba(15,137,59,0.3)" opacity="0.47"/>
      </g>
    </g>
    <g id="paper-plane" transform="translate(756.423 211.537)">
      <path id="Path_95355" data-name="Path 95355" d="M303.454,3.253l-1.123-.333a3.374,3.374,0,0,0-2.065.424L156.923,84.364a2.616,2.616,0,0,0,1.287,4.893h37.868l44.238,6.274,59.721,25.595a3.82,3.82,0,0,0,5.325-3.511V6.317a3.39,3.39,0,0,0-1.907-3.064Z" transform="translate(-90.207 -2.897)" fill="#0f893b"/>
      <path id="Path_95356" data-name="Path 95356" d="M3.42,402.578a3.415,3.415,0,0,1-1.838-6.3l33.654-21.416L39.01,369.3l-.6-3.968,5.76-17.277a13.879,13.879,0,0,1,19.374-8.024,13.881,13.881,0,0,1,1.244,24.122L40.949,379.326l-.167.5a12.1,12.1,0,0,0,11.486,15.923,30.723,30.723,0,0,0,25.367-13.38l37.98-55.511a3.414,3.414,0,0,1,5.636,3.856l-37.98,55.512a37.547,37.547,0,0,1-31,16.353,18.982,18.982,0,0,1-18.95-18.4L5.251,402.045a3.4,3.4,0,0,1-1.831.534ZM57.341,345.4a7.055,7.055,0,0,0-6.69,4.821l-3.1,9.3-6.264,7.051,3.088,2.48,16.749-10.659a7.048,7.048,0,0,0-.63-12.25A7.047,7.047,0,0,0,57.341,345.4Z" transform="translate(0 -189.859)" fill="#0f893b"/>
      <path id="Path_95357" data-name="Path 95357" d="M358.908,3.113a3.328,3.328,0,0,0-.717-.163L251.938,89.288l13.234,26.467L291.745,92.9,359.315,3.283Z" transform="translate(-146.068 -2.928)" fill="#067e32"/>
      <path id="Path_95358" data-name="Path 95358" d="M377.167,3.338,283.43,115.98l4.589,9.177a3.511,3.511,0,0,0,6.038.413L377.573,3.508c-.105-.052-.3-.13-.406-.17Z" transform="translate(-164.326 -3.153)" fill="#06712d"/>
      <path id="Path_95359" data-name="Path 95359" d="M92.421,416.169l3.176-9.531-9.136,5.814-3.178,9.531-.413.263Z" transform="translate(-48.046 -236.977)" fill="#0f893b"/>
    </g>
    <g id="Group_63480" data-name="Group 63480" transform="translate(731.255 236.793)">
      <path id="Path_95173" data-name="Path 95173" d="M723.022,724.074a11.817,11.817,0,0,0-4.139.533,3.171,3.171,0,0,0-3.52-.963,5.272,5.272,0,0,0-8.265-4.19,3.113,3.113,0,0,0-.657-.726,6.215,6.215,0,0,0-4.964-9.508h-.02a6.829,6.829,0,0,0-5.143-.73,3.1,3.1,0,0,0-1.312-1.5,11.292,11.292,0,0,0-13.225-13.971,12.228,12.228,0,0,0-12.63,11.624c0,.093,0,.188-.009.281a7.582,7.582,0,0,0-1.831-.315,7.48,7.48,0,0,0-3.538.69,9.8,9.8,0,0,0-17.626,7.983c-.1-.01-.2-.02-.3-.025a4.822,4.822,0,0,0-5.051,4.582,4.639,4.639,0,0,0,.043.918l-.1-.006a2.781,2.781,0,0,0-2.911,2.548,6.879,6.879,0,0,0-1.279-.185,6.572,6.572,0,0,0-4.618,1.492c-3.273,2.806.107,3.742,3.4,3.9l4.295.209,3.367.164,69.076,3.373,5.389.263,8.86.432c3.429.167,8.3.97,5.075-2.784a11.758,11.758,0,0,0-8.366-4.091Zm-28.9-17.428a3.054,3.054,0,0,0-.521-.072h-.092c.029-.247.049-.493.062-.74a12.233,12.233,0,0,0-7.723-11.972,10.338,10.338,0,0,1,8.585,10.7,10.469,10.469,0,0,1-.311,2.083Zm11.508,11.612a3.106,3.106,0,0,0-1-.217,3.2,3.2,0,0,0-.512.017,6.816,6.816,0,0,0-1.108-7.578,5.283,5.283,0,0,1,3.431,5.206A5.226,5.226,0,0,1,705.632,718.258Z" transform="translate(-630.594 -692.778)" fill="rgba(15,137,59,0.4)" fill-rule="evenodd"/>
    </g>
    <g id="Group_63774" data-name="Group 63774" transform="translate(900.267 365.156)">
      <path id="Path_95173-2" data-name="Path 95173" d="M723.022,724.074a11.817,11.817,0,0,0-4.139.533,3.171,3.171,0,0,0-3.52-.963,5.272,5.272,0,0,0-8.265-4.19,3.113,3.113,0,0,0-.657-.726,6.215,6.215,0,0,0-4.964-9.508h-.02a6.829,6.829,0,0,0-5.143-.73,3.1,3.1,0,0,0-1.312-1.5,11.292,11.292,0,0,0-13.225-13.971,12.228,12.228,0,0,0-12.63,11.624c0,.093,0,.188-.009.281a7.582,7.582,0,0,0-1.831-.315,7.48,7.48,0,0,0-3.538.69,9.8,9.8,0,0,0-17.626,7.983c-.1-.01-.2-.02-.3-.025a4.822,4.822,0,0,0-5.051,4.582,4.639,4.639,0,0,0,.043.918l-.1-.006a2.781,2.781,0,0,0-2.911,2.548,6.879,6.879,0,0,0-1.279-.185,6.572,6.572,0,0,0-4.618,1.492c-3.273,2.806.107,3.742,3.4,3.9l4.295.209,3.367.164,69.076,3.373,5.389.263,8.86.432c3.429.167,8.3.97,5.075-2.784a11.758,11.758,0,0,0-8.366-4.091Zm-28.9-17.428a3.054,3.054,0,0,0-.521-.072h-.092c.029-.247.049-.493.062-.74a12.233,12.233,0,0,0-7.723-11.972,10.338,10.338,0,0,1,8.585,10.7,10.469,10.469,0,0,1-.311,2.083Zm11.508,11.612a3.106,3.106,0,0,0-1-.217,3.2,3.2,0,0,0-.512.017,6.816,6.816,0,0,0-1.108-7.578,5.283,5.283,0,0,1,3.431,5.206A5.226,5.226,0,0,1,705.632,718.258Z" transform="translate(-630.594 -692.778)" fill="rgba(15,137,59,0.4)" fill-rule="evenodd"/>
    </g>
  </g>
</svg>
