<svg xmlns="http://www.w3.org/2000/svg" width="301.666" height="900.546" viewBox="0 0 301.666 900.546">
  <g id="vector" transform="translate(-1313.092 -141.575)" style="isolation: isolate">
    <path id="Union_3" data-name="Union 3" d="M285.345,709.21l10.424-10.424.325,3.952-6.516,6.517-.922,0C287.55,709.258,286.445,709.245,285.345,709.21Zm11.073-2.518.189,2.283q-1.319.1-2.633.16Zm-19.076,1.971,17.779-17.781.325,3.953L281.278,709Q279.3,708.867,277.341,708.663ZM269.85,707.6l24.623-24.621.324,3.95-21.253,21.258C272.306,708.01,271.075,707.819,269.85,707.6Zm-7.041-1.512,31.014-31.012.324,3.95-27.866,27.868Q264.538,706.517,262.81,706.088Zm-6.659-1.891,37.025-37.026.325,3.953-34.071,34.068C258.33,704.879,257.237,704.543,256.151,704.2Zm-6.319-2.234,42.7-42.7.325,3.954-39.9,39.9Q251.381,702.562,249.831,701.962Zm-5.993-2.558,48.039-48.039.323,3.95-45.4,45.406Q245.3,700.083,243.838,699.4Zm-5.711-2.843,53.1-53.1.324,3.954-50.6,50.6C240,697.543,239.058,697.062,238.128,696.561Zm-5.429-3.124,57.88-57.881.326,3.952-55.526,55.526Q234.027,694.254,232.7,693.437Zm-5.174-3.38,62.406-62.405.324,3.951-60.172,60.174Q228.792,690.934,227.525,690.057Zm-4.918-3.635,66.676-66.674.324,3.95-64.575,64.575Q223.807,687.365,222.607,686.422Zm-4.671-3.881,70.7-70.7.324,3.953-68.717,68.718Q219.077,683.543,217.936,682.541Zm-4.436-4.116,74.486-74.485.324,3.953-72.621,72.621Q214.581,679.484,213.5,678.425Zm-4.191-4.36,78.028-78.029.324,3.951-76.291,76.29C210.672,675.55,209.988,674.812,209.309,674.065Zm-3.952-4.6,81.333-81.332.325,3.953-79.71,79.708Q206.313,670.644,205.357,669.463Zm-3.714-4.84,84.4-84.4.324,3.953-82.893,82.894C202.852,666.263,202.242,665.45,201.644,664.623Zm-3.452-5.1,87.2-87.2.326,3.952L199.887,662.1C199.31,661.253,198.747,660.392,198.192,659.523Zm-3.2-5.352,89.75-89.75.326,3.95L196.56,656.878Q195.758,655.536,194.991,654.171Zm-2.922-5.629,92.024-92.026.324,3.953-90.926,90.926C193,650.452,192.531,649.5,192.069,648.542Zm-2.635-5.918,94.011-94.011.325,3.953-93.053,93.053Q190.052,644.133,189.434,642.623Zm-2.326-6.225,95.689-95.69.325,3.95-94.9,94.9Q187.64,637.989,187.107,636.4Zm-1.99-6.562L282.148,532.8l.324,3.952-96.4,96.4Q185.568,631.508,185.117,629.836ZM183.5,622.9l98-98,.325,3.953-97.565,97.565C183.986,625.251,183.738,624.077,183.5,622.9Zm-1.2-7.357L280.85,517l.325,3.951-98.328,98.328Q182.544,617.421,182.3,615.541Zm-.514-4.869q-.124-1.484-.2-2.964L280.2,509.092l.326,3.951-98.64,98.642C181.854,611.347,181.819,611.011,181.791,610.672Zm-.337-11.384,98.1-98.1.326,3.953L181.44,603.576Q181.4,601.424,181.454,599.287Zm.605-9.154L278.9,493.285l.325,3.951-97.578,97.578Q181.8,592.461,182.059,590.133Zm1.6-10.161,94.592-94.591.324,3.951L182.713,585.2Q183.124,582.567,183.663,579.972Zm3.135-11.687,90.808-90.809.326,3.952-92.943,92.943Q185.8,571.3,186.8,568.284Zm6.047-14.6,84.112-84.115.324,3.954-87.993,87.993Q190.913,557.525,192.845,553.687Zm7.432-15.986,76.033-76.032.325,3.952-78.971,78.968A57.994,57.994,0,0,0,200.277,537.7Zm2.218-10.77,73.167-73.167.324,3.952-74.251,74.249C202.056,530.366,202.32,528.682,202.5,526.932Zm.077-8.631,72.442-72.44.324,3.953-72.6,72.6C202.745,521.066,202.694,519.692,202.573,518.3Zm-1.292-7.259,73.084-73.084.325,3.951-72.62,72.619Q201.759,512.794,201.281,511.042Zm-2.308-6.246,74.745-74.741.324,3.95-73.805,73.8C199.864,506.8,199.447,505.8,198.973,504.8Zm-3.111-5.442,77.2-77.205.326,3.952L197.5,501.988C197,501.107,196.455,500.227,195.862,499.354Zm-3.8-4.758,80.352-80.351.325,3.953-78.7,78.7Q193.09,495.689,192.066,494.6Zm-4.488-4.064,84.192-84.19.324,3.95L189.908,492.48Q188.774,491.454,187.578,490.532Zm-5.165-3.389,88.708-88.706.324,3.952-86.363,86.365C184.208,488.182,183.318,487.649,182.413,487.143Zm-5.823-2.727,93.882-93.883.324,3.954L179.582,485.7Q178.1,485,176.59,484.416Zm-6.475-2.077,99.708-99.709.326,3.953L173.435,483.3Q171.779,482.763,170.116,482.338Zm-7.128-1.423L269.175,374.727l.325,3.95L166.634,481.542C165.41,481.3,164.19,481.089,162.988,480.916Zm-34.251.036L255.062,354.629h4.277L132.923,481.041C131.524,481.032,130.129,481.005,128.737,480.952ZM263.615,354.629h3.909l.03.336L141.69,480.831q-1.871.109-3.734.162l-.009,0,0,0c-.237.01-.475.01-.712.013ZM120.729,480.409l125.78-125.779h4.275L124.673,480.741C123.351,480.652,122.04,480.536,120.729,480.409Zm147.15-121.49.325,3.952L151.011,480.059c-.283,0-.562,0-.838,0q-1.922.232-3.859.42Zm-112.7,121.246L268.527,366.82l.324,3.953L159.172,480.453C157.808,480.322,156.473,480.229,155.183,480.165Zm-42.039-.724L237.957,354.629h4.277L116.89,479.972C115.637,479.811,114.388,479.637,113.143,479.441Zm-7.225-1.329L229.4,354.629h4.278L109.489,478.821C108.294,478.6,107.1,478.365,105.919,478.112Zm-6.888-1.663L220.853,354.629h4.275L102.434,477.322C101.292,477.046,100.162,476.755,99.031,476.449Zm-6.587-1.965L212.3,354.629h4.277L95.7,475.5Q94.064,475.015,92.444,474.484Zm-6.317-2.237L203.748,354.629h4.276L89.252,473.4Q87.681,472.841,86.127,472.247Zm-6.062-2.491L195.194,354.629h4.276l-116.4,116.4Q81.558,470.414,80.066,469.755Zm-5.822-2.728,112.4-112.4h4.278L77.125,468.423Q75.677,467.741,74.244,467.027Zm-5.6-2.955L178.09,354.629h4.276L71.416,465.577Q70.02,464.839,68.645,464.072ZM63.263,460.9,169.537,354.629h4.277L65.927,462.512Q64.588,461.721,63.263,460.9Zm-5.172-3.379L160.985,354.629h4.274L60.652,459.235Q59.362,458.394,58.091,457.521Zm-4.97-3.581,99.308-99.311h4.278L55.582,455.755Q54.339,454.861,53.122,453.94Zm-4.775-3.779,95.532-95.532h4.278L50.708,452.073Q49.516,451.133,48.347,450.161Zm-4.581-3.974,91.562-91.558H139.6L46.031,448.2Q44.888,447.2,43.766,446.187Zm-4.387-4.163,87.4-87.395h4.276l-89.5,89.5Q40.454,443.088,39.379,442.024Zm-4.2-4.358,83.037-83.037H122.5l-85.241,85.24Q36.209,438.78,35.184,437.666Zm-4-4.547,78.491-78.49h4.274L33.158,435.415Q32.154,434.279,31.18,433.12Zm-3.812-4.746,73.748-73.745h4.278L29.251,430.771Q28.3,429.583,27.369,428.374Zm-3.611-4.94,68.808-68.8H96.84l-71.3,71.3Q24.635,424.693,23.757,423.434Zm-3.41-5.142L84.01,354.629h4.277L22.029,420.887Q21.172,419.6,20.348,418.292Zm-3.2-5.352,58.309-58.31h4.277L18.721,415.641Q17.918,414.3,17.149,412.939Zm-2.984-5.568,52.741-52.742h4.276L15.629,410.181Q14.882,408.786,14.165,407.372Zm-2.759-5.8,46.946-46.945h4.277L12.757,404.5Q12.063,403.049,11.406,401.574ZM8.89,395.538,49.8,354.629h4.276L10.119,398.589Q9.483,397.071,8.89,395.538Zm-2.263-6.287,34.62-34.622h4.278l-37.8,37.8Q7.155,390.851,6.627,389.251ZM4.634,382.69,32.7,354.629h4.278L5.595,386Q5.095,384.358,4.634,382.69Zm-1.7-6.857,21.209-21.2H28.42L3.746,379.3Q3.32,377.577,2.936,375.833Zm-1.375-7.174L15.59,354.629h4.277L2.207,372.29Q1.86,370.484,1.561,368.659ZM.535,361.132l6.5-6.5h4.277L1,364.942Q.743,363.046.535,361.132ZM0,354.629H2.761L.174,357.216C.109,356.351.049,355.49,0,354.629Zm263.615,0L137.237,228.252c.237,0,.475,0,.712.013l0,0,.009,0q1.862.053,3.734.162L267.553,354.293l-.03.337Zm-8.553,0L128.737,228.306c1.392-.053,2.787-.08,4.187-.089L259.339,354.629Zm-8.553,0L120.729,228.85c1.311-.128,2.622-.243,3.944-.333L250.785,354.629Zm-8.553,0L113.143,229.817c1.245-.2,2.494-.369,3.746-.531L242.233,354.629Zm-8.552,0L105.919,231.146c1.186-.253,2.376-.486,3.57-.708L233.682,354.629Zm-8.552,0L99.031,232.809c1.131-.305,2.261-.6,3.4-.873L225.128,354.629Zm-8.554,0L92.444,234.774q1.621-.531,3.257-1.017L216.576,354.629Zm-8.551,0L86.127,237.011q1.553-.6,3.125-1.153L208.024,354.629Zm-8.554,0L80.066,239.5q1.49-.659,3-1.277l116.4,116.4Zm-8.553,0-112.4-112.4q1.431-.716,2.881-1.4L190.919,354.629Zm-8.551,0L68.645,245.187q1.376-.768,2.771-1.506L182.366,354.629Zm-8.554,0L63.263,248.357q1.324-.82,2.664-1.612L173.813,354.629Zm-8.551,0L58.091,251.737q1.271-.874,2.561-1.714L165.26,354.629Zm-8.555,0L53.122,255.317q1.219-.919,2.46-1.814L156.708,354.629Zm-8.551,0L48.347,259.1c.779-.646,1.567-1.286,2.362-1.912l97.448,97.445Zm-8.551,0L43.766,263.071q1.122-1.017,2.266-2.011l93.57,93.57Zm-8.554,0-87.4-87.395q1.074-1.065,2.17-2.1l89.5,89.5Zm-8.554,0L35.184,271.592q1.023-1.113,2.074-2.2L122.5,354.629Zm-8.549,0L31.18,276.138q.973-1.156,1.977-2.3l80.788,80.786Zm-8.555,0L27.369,280.884q.926-1.211,1.883-2.4l76.143,76.143Zm-8.551,0L23.757,285.824q.878-1.26,1.782-2.5l71.3,71.3Zm-8.555,0L20.348,290.967q.827-1.311,1.681-2.6l66.258,66.258Zm-8.552,0L17.149,296.319q.768-1.359,1.572-2.7l61.014,61.012Zm-8.552,0L14.165,301.887q.715-1.415,1.464-2.81l55.553,55.552Zm-8.554,0L11.406,307.685q.659-1.477,1.351-2.929l49.873,49.873Zm-8.551,0L8.89,313.719q.6-1.535,1.229-3.05l43.959,43.96Zm-8.555,0L6.626,320.007q.529-1.6,1.1-3.175l37.8,37.8Zm-8.551,0L4.634,326.568q.458-1.665.96-3.315l31.378,31.376Zm-8.551,0-21.209-21.2q.385-1.745.81-3.467L28.42,354.629Zm-8.555,0L1.561,340.6q.3-1.825.646-3.632l17.66,17.661Zm-8.552,0-6.5-6.5c.136-1.276.294-2.547.465-3.81l10.315,10.312Zm-7.038,0c.049-.862.109-1.722.174-2.587l2.587,2.587ZM146.314,228.774q1.94.186,3.859.42c.276,0,.555,0,.838,0L268.2,346.387l-.325,3.953Zm8.869.319c1.291-.064,2.626-.156,3.99-.287L268.851,338.485l-.324,3.953Zm7.805-.751c1.2-.174,2.422-.384,3.646-.627L269.5,330.581l-.324,3.95Zm7.128-1.423q1.661-.426,3.319-.957l96.714,96.715-.326,3.952Zm6.475-2.077q1.513-.589,2.992-1.284L270.8,314.771l-.324,3.955Zm5.823-2.727c.905-.505,1.8-1.039,2.668-1.611l86.363,86.366-.324,3.951Zm5.165-3.389q1.194-.921,2.33-1.948l82.186,82.187-.323,3.951Zm4.488-4.064q1.026-1.094,1.982-2.3l78.7,78.7-.325,3.953Zm3.8-4.758c.594-.872,1.137-1.753,1.643-2.634l75.887,75.887-.326,3.952Zm3.111-5.442c.474-1,.891-2.008,1.263-3.013l73.805,73.8-.324,3.951Zm2.308-6.246q.477-1.751.789-3.486l72.62,72.619-.325,3.95Zm1.292-7.259c.122-1.392.173-2.766.166-4.111l72.6,72.6-.325,3.954Zm-.077-8.632c-.175-1.749-.439-3.435-.76-5.034l74.251,74.249-.324,3.952Zm-2.218-10.77a58,58,0,0,0-2.614-6.888l78.971,78.968-.325,3.953Zm-7.432-15.986q-1.93-3.831-3.557-7.831l87.993,87.993-.324,3.953Zm-6.047-14.6q-.99-3.008-1.81-6.087l92.943,92.943-.326,3.953Zm-3.135-11.687q-.539-2.594-.95-5.23l95.866,95.87-.324,3.951Zm-1.6-10.161q-.256-2.327-.408-4.682l97.578,97.578-.325,3.951Zm-.605-9.154q-.048-2.138-.014-4.289l98.439,98.434-.326,3.953Zm.134-8.42q.079-1.482.2-2.965c.028-.339.063-.675.1-1.014l98.64,98.642-.326,3.951Zm.717-7.834q.24-1.879.542-3.737l98.328,98.328-.325,3.952Zm1.2-7.357c.236-1.18.484-2.353.758-3.521l97.565,97.565-.325,3.953Zm1.615-6.939q.449-1.671.952-3.324l96.4,96.4-.324,3.953Zm1.99-6.562q.535-1.589,1.118-3.157l94.9,94.9-.325,3.951Zm2.326-6.225q.617-1.51,1.282-3l93.053,93.053-.325,3.953Zm2.635-5.918c.462-.958.933-1.911,1.422-2.852l90.926,90.927-.324,3.952Zm2.922-5.629q.767-1.365,1.569-2.707l88.507,88.507-.326,3.95Zm3.2-5.352c.556-.869,1.118-1.73,1.7-2.581l85.829,85.829-.326,3.951Zm3.452-5.1c.6-.826,1.208-1.64,1.827-2.45l82.893,82.893-.324,3.954Zm3.714-4.84q.958-1.178,1.948-2.329l79.71,79.709-.325,3.952Zm3.952-4.6c.679-.747,1.363-1.485,2.062-2.212l76.291,76.29-.324,3.951Zm4.191-4.36q1.077-1.062,2.188-2.089l72.621,72.621-.324,3.954Zm4.436-4.115q1.139-1,2.3-1.972l68.718,68.717-.325,3.953Zm4.671-3.881q1.2-.943,2.424-1.852L289.607,85.56l-.324,3.951Zm4.918-3.635q1.267-.876,2.558-1.72l60.172,60.174-.324,3.95Zm5.174-3.38c.886-.542,1.779-1.077,2.681-1.6L290.905,69.75l-.326,3.952Zm5.429-3.123c.931-.5,1.874-.982,2.822-1.456l50.6,50.605-.325,3.953Zm5.711-2.844q1.469-.677,2.96-1.317l45.4,45.406-.323,3.95ZM249.831,7.3q1.548-.6,3.12-1.156l39.9,39.9-.325,3.953Zm6.319-2.234c1.086-.346,2.179-.682,3.279-.995L293.5,38.135l-.325,3.953ZM262.81,3.17q1.727-.432,3.472-.806l27.866,27.869-.324,3.95Zm7.041-1.512c1.225-.218,2.456-.409,3.694-.587L294.8,22.329l-.324,3.95ZM277.341.595q1.96-.206,3.937-.339l14.167,14.167-.324,3.953Zm8-.547C286.75,0,288.163-.005,289.578,0l6.516,6.517-.325,3.952Zm8.629.076q1.312.061,2.633.16l-.189,2.283Z" transform="translate(1313.621 237.219)" fill="#0f893b" stroke="rgba(0,0,0,0)" stroke-miterlimit="10" stroke-width="1" opacity="0.23"/>
    <path id="Union_2" data-name="Union 2" d="M153.421,628.049a102.306,102.306,0,0,1,18.685-59.1H172.1s17.37-24.931,2.1-48.219c-9.759-14.888-28.485-18.844-40.718-19.759-1.662.063-3.33.1-5,.1q-3.384,0-6.726-.174h-.009A128.486,128.486,0,0,1,0,372.6q0-3.62.2-7.185H255.26V730.824A102.781,102.781,0,0,1,153.421,628.049ZM.2,365.412q-.2-3.562-.2-7.184A128.487,128.487,0,0,1,121.746,229.92h.009q3.34-.172,6.726-.174c1.674,0,3.342.042,5,.105,12.233-.915,30.96-4.871,40.718-19.759,15.266-23.288-2.1-48.219-2.1-48.219h.006A102.785,102.785,0,0,1,255.261,0V365.412ZM121.745,229.92h0Z" transform="translate(1359.497 226.436)" fill="#0f893b"/>
    <path id="Union_4" data-name="Union 4" d="M-28.289-298.539a122.807,122.807,0,0,1-4.936-93.642,123.038,123.038,0,0,1,17.7-33.185,122.742,122.742,0,0,1,26.794-26.167l.09-.074a62.447,62.447,0,0,0,14.826-16.52v4.814a65.314,65.314,0,0,1-13.153,13.794c-.034.028-.067.054-.1.079a120.126,120.126,0,0,0-26.321,25.673A120.451,120.451,0,0,0-30.706-391.3a120.155,120.155,0,0,0,4.835,91.624,120.246,120.246,0,0,0,52.059,54.637v3.014A122.911,122.911,0,0,1-28.289-298.539Zm16.28-244.184c-4.217-1.732-8.434-3.465-12.474-5.344A153.344,153.344,0,0,1-101.191-627.8a153.5,153.5,0,0,1-11.972-64.5,153.518,153.518,0,0,1,11.972-64.5,153.347,153.347,0,0,1,76.708-79.735c4.041-1.879,8.257-3.612,12.474-5.344,14.738-6.057,29.514-12.128,38.2-25.419v4.653C17-850.919,2.985-845.157-10.992-839.413c-4.159,1.708-8.32,3.419-12.37,5.3a150.646,150.646,0,0,0-75.37,78.345,150.823,150.823,0,0,0-11.76,63.463h0a150.829,150.829,0,0,0,11.76,63.464,150.65,150.65,0,0,0,75.369,78.344c4.052,1.884,8.212,3.595,12.37,5.3C2.985-539.447,17-533.686,26.187-521.957v4.653C17.505-530.594,2.73-536.666-12.009-542.723ZM11.362-933l-.09-.074a122.741,122.741,0,0,1-26.794-26.167,123.063,123.063,0,0,1-17.7-33.185,122.8,122.8,0,0,1,4.937-93.642,122.909,122.909,0,0,1,54.475-56.51v3.014a120.246,120.246,0,0,0-52.059,54.637A120.159,120.159,0,0,0-30.706-993.3a120.428,120.428,0,0,0,17.319,32.461,120.1,120.1,0,0,0,26.32,25.673c.036.025.068.051.1.079a65.316,65.316,0,0,1,13.153,13.794v4.814A62.448,62.448,0,0,0,11.362-933Z" transform="translate(1588.57 1284.15)" fill="#0f893b" opacity="0.17"/>
    <g id="Group_63772" data-name="Group 63772" transform="translate(1061.576 1437.228) rotate(-120)">
      <g id="Group_63226" data-name="Group 63226">
        <path id="Path_94944" data-name="Path 94944" d="M487.994,755.766a.653.653,0,0,0-.123.123l-17.057,21.69a.77.77,0,0,0,.874,1.2l91.777-34.124a.772.772,0,0,0-.394-1.485L488.35,755.6A.771.771,0,0,0,487.994,755.766Zm-14.273,20.612,15.178-19.3,66.489-11.065Z" fill="#fff"/>
      </g>
      <g id="Group_63227" data-name="Group 63227">
        <path id="Path_94945" data-name="Path 94945" d="M510.435,713.026a.774.774,0,0,0-.222.292L495.944,745.79a.762.762,0,0,0,.066.74.786.786,0,0,0,.665.34L563.22,744.7a.771.771,0,0,0,.364-1.438l-52.279-30.3a.775.775,0,0,0-.87.067Zm-12.588,32.262,13.431-30.563,49.2,28.522Z" fill="#fff"/>
      </g>
      <g id="Group_63228" data-name="Group 63228">
        <path id="Path_94946" data-name="Path 94946" d="M478.794,734.126l-.01.009a.768.768,0,0,0-.212.892l9.2,21.641a.77.77,0,1,0,1.417-.6l-8.2-19.3,15.244,9.982a.772.772,0,0,0,.845-1.293L479.7,734.079A.773.773,0,0,0,478.794,734.126Z" fill="#fff"/>
      </g>
      <g id="Group_63229" data-name="Group 63229">
        <path id="Path_94947" data-name="Path 94947" d="M478.794,734.126a.759.759,0,0,0-.284.564.772.772,0,0,0,.735.806l21.918,1.022a.772.772,0,0,0,.07-1.543l-21.917-1.021A.794.794,0,0,0,478.794,734.126Z" fill="#fff"/>
      </g>
      <path id="Path_94948" data-name="Path 94948" d="M488.476,756.365,563.2,743.93l-91.778,34.124Z" fill="#fff" fill-rule="evenodd"/>
      <path id="Path_94949" data-name="Path 94949" d="M563.2,743.93,496.649,746.1l4.548-10.35,9.721-22.122Z" fill="#fff" fill-rule="evenodd"/>
      <path id="Path_94950" data-name="Path 94950" d="M305.138,806.908a1.079,1.079,0,0,0,1.278,1.737l1.8-1.192a1.071,1.071,0,0,0,.306-1.495,1.083,1.083,0,0,0-1.5-.3l-1.8,1.2C305.191,806.872,305.163,806.888,305.138,806.908ZM316,799.855a1.08,1.08,0,0,0,1.256,1.753l1.821-1.146a1.079,1.079,0,0,0-1.143-1.83l-1.833,1.15C316.066,799.806,316.031,799.83,316,799.855Zm11.037-6.768a1.079,1.079,0,0,0,1.233,1.764l1.853-1.1a1.08,1.08,0,0,0-1.1-1.859l-1.861,1.1A1.225,1.225,0,0,0,327.037,793.087Zm11.211-6.487a1.08,1.08,0,0,0,1.208,1.78l1.878-1.052a1.078,1.078,0,1,0-1.048-1.884L338.4,786.5A1.382,1.382,0,0,0,338.248,786.6Zm11.369-6.2A1.08,1.08,0,0,0,350.8,782.2l1.9-1a1.079,1.079,0,1,0-1-1.912l-1.917,1.006A1.062,1.062,0,0,0,349.617,780.4Zm11.523-5.911a1.079,1.079,0,0,0,1.161,1.8l1.93-.952a1.08,1.08,0,1,0-.953-1.938l-1.938.96A1.073,1.073,0,0,0,361.14,774.49Zm11.672-5.617a1.078,1.078,0,0,0,1.132,1.816l1.956-.906a1.078,1.078,0,1,0-.9-1.958l-1.962.907A1.074,1.074,0,0,0,372.812,768.873Zm11.807-5.324a1.08,1.08,0,0,0,1.11,1.83l1.976-.857a1.078,1.078,0,1,0-.853-1.981l-1.985.86A1.057,1.057,0,0,0,384.619,763.549Zm11.941-5.02a1.079,1.079,0,0,0,1.083,1.839l2-.8a1.079,1.079,0,0,0-.8-2l-2.006.808A1.125,1.125,0,0,0,396.56,758.529Zm12.067-4.714a1.079,1.079,0,0,0,1.056,1.85l2.02-.752a1.08,1.08,0,0,0-.752-2.025l-2.024.757A1.072,1.072,0,0,0,408.627,753.815Zm12.186-4.394a1.08,1.08,0,0,0,1.03,1.86l2.038-.7a1.079,1.079,0,0,0-.7-2.043l-2.047.7A1.068,1.068,0,0,0,420.813,749.421Zm12.3-4.065a1.081,1.081,0,0,0,1,1.872l2.058-.644a1.079,1.079,0,0,0-.641-2.06l-2.063.645A1.062,1.062,0,0,0,433.117,745.356Zm12.414-3.711a1.081,1.081,0,0,0,.972,1.881l2.073-.581a1.079,1.079,0,0,0-.573-2.08l-2.084.584A1.069,1.069,0,0,0,445.531,741.645Zm12.53-3.311a1.079,1.079,0,0,0,.935,1.887l2.093-.506a1.079,1.079,0,0,0-.5-2.1l-2.109.51A1.086,1.086,0,0,0,458.061,738.334Zm12.665-2.813a1.079,1.079,0,0,0,.878,1.9c1.378-.264,2.1-.383,2.111-.384a1.079,1.079,0,1,0-.351-2.13s-.744.121-2.166.4A1.046,1.046,0,0,0,470.726,735.521Z" fill="#fff"/>
    </g>
  </g>
</svg>
