<svg xmlns="http://www.w3.org/2000/svg" xmlns:xlink="http://www.w3.org/1999/xlink" width="316.484" height="244.623" viewBox="0 0 316.484 244.623">
  <defs>
    <clipPath id="clip-path">
      <path id="Mask" d="M0,54.96S13.686,30.672,32.275,15.4C51.361-.279,69.979,0,69.979,0L92.3,1.51s12.335-1.684,36.03,21.678c2,1.975-5.6,62.334-5.6,62.334s-78.91.913-78.763,0l.293-16.456S13.028,72.551,0,54.96" transform="translate(0 0)" fill="#0f893b"/>
    </clipPath>
    <clipPath id="clip-path-2">
      <path id="Mask-2" data-name="Mask" d="M51.62,7.7C44.475,1.821,39.419.356,37.052,0c.043,1.425.05,2.446.05,2.446s-.486,4.586-7.586,4.367C20.646,6.54,21.447,1.74,21.447,1.74A5.875,5.875,0,0,0,22.308.009a21.672,21.672,0,0,0-10.18,3.7c-3.063,1.978-9.533,5.58-11.2,6.8a3.365,3.365,0,0,1-.008.57,1.225,1.225,0,0,0,.8.341S4.568,12.6,5.887,18.364c1.561,6.82-.307,10.406-.307,10.406A8.825,8.825,0,0,1,0,29.3a6.167,6.167,0,0,0,6.278,1.09c1.88-.577,7.451-4.683,7.9-4.292A24.915,24.915,0,0,0,30.605,32.28,25.54,25.54,0,0,0,55.467,11.506,31.724,31.724,0,0,0,51.62,7.7" fill="#ffcb57"/>
    </clipPath>
  </defs>
  <g id="Illustration_03" transform="translate(-0.25 -0.239)">
    <g id="Background" transform="translate(0.251 0.239)">
      <g id="Colors_Light_Pink_FFDFD6" data-name="Colors/Light Pink #FFDFD6" transform="translate(0 0)">
        <path id="Mask-3" data-name="Mask" d="M131.908,244.623h0a110.121,110.121,0,0,1-12.576-.726c-4.756-1.087-9.555-2.348-14.2-3.567l-1.176-.309a28.149,28.149,0,0,1-7.154.807A79.359,79.359,0,0,1,83.8,239.486c-5.635-1-11.986-2.31-18.71-3.7-2.926-.6-5.95-1.23-9.095-1.867-.812-.678-2.573-1.414-5.545-2.315-.727-.2-1.477-.459-2.272-.729-.639-.217-1.3-.441-1.978-.649-.515-.173-1.055-.339-1.576-.5-1.017-.313-2.063-.636-3.079-1.048-6.162-2.044-12.288-5.314-13.654-7.288a10.192,10.192,0,0,1-2.434-1.82A4.67,4.67,0,0,1,24.4,218.1a2.275,2.275,0,0,1,.2-2.026A48.391,48.391,0,0,1,12,202.605a50.627,50.627,0,0,1-6.43-16.4,11.281,11.281,0,0,0-.774,3.811,32.436,32.436,0,0,0,.32,5.3,31.975,31.975,0,0,0,1.611,6.209l-.345-.744-.535-1.152c-.167-.383-.309-.774-.445-1.151-.091-.251-.176-.486-.268-.72-.27-.739-.561-1.446-.818-2.069-.168-.408-.326-.791-.464-1.147.135.629.373,1.368.649,2.224.113.349.227.7.343,1.077.073.213.141.429.213.657.143.456.291.925.486,1.391.3.7.612,1.424.929,2.163.118.262.233.534.345.8.2.481.415.978.658,1.455l.822,1.515.365.671c.144.259.286.524.423.78.243.454.492.921.753,1.352l1.2,1.832.012.019.037.057c.681,1.131,1.36,2.118,1.906,2.911A10.639,10.639,0,0,1,14.3,215.6c.055.165.06.281.015.344a.164.164,0,0,1-.142.059c-.39,0-1.431-.672-3.094-2l-.567-.709-.019-.024a36.27,36.27,0,0,1-3.8-5.323c-.654-1.12-1.121-1.951-1.515-2.694-.392-.9-.737-1.729-1.053-2.531l-.031-.08c-.3-.772-.587-1.5-.823-2.211l-.185-.728-.013-.05q-.179-.705-.349-1.377-.07-.3-.139-.6l-.008-.034a24.456,24.456,0,0,1-.617-3.31l-.181-1.391L1.458,190.5c-.1-1.486-.229-2.809-.393-4.165-.175-1.836-.371-3.886-.6-6.309l-.018-.185L0,175.195a.6.6,0,0,0,.4.232c.781,0,.947-3.215,1.139-6.938.082-1.6.168-3.248.307-4.8.206-2.427.5-5.326.932-6.2.093-.187.18-.279.265-.279.287,0,.586,1.034,1.031,3.57.229-4.4.643-9.15,1.264-14.525.036-1.846.021-3.557-.013-5.721-.7,3.321-1.035,4.676-1.162,4.676a.02.02,0,0,1-.015-.007,4.158,4.158,0,0,1-.043-1.138c0-.121,0-.245.006-.369a3.685,3.685,0,0,0-.129-1.49.07.07,0,0,0-.051-.024c-.151,0-.4.522-.754,1.6a207.783,207.783,0,0,1,4-28.234,155.172,155.172,0,0,1,8.4-26.891A125.784,125.784,0,0,1,47.128,43.8c5.088-3.936,10.324-7.679,16.007-11.445,5.685-3.638,10.991-6.807,16.221-9.688l4.136-2.183,2.069-1.1,2.1-1.025,4.206-2.069,4.161-1.886.115-.052c1.251-.591,2.626-1.189,4.327-1.883l1.684-.7,2.7-1.128q2.224-.845,4.465-1.7l2.253-.857,2.283-.784c1.884-.372,3.475-.646,4.73-.813a19.307,19.307,0,0,1,2.179-.143c.2,0,.4.005.574.015.692.043,1.077.175,1.178.4.066.149.008.334-.177.567A11.776,11.776,0,0,1,119.847,9.2c-1.042.673-2.223,1.435-2.994,2.029,2.255-.6,4.572-1.086,6.813-1.561l.033-.007c.879-.186,1.788-.378,2.68-.575,2.908-.559,6.288-1.2,9.6-1.734-3.368.887-6.692,1.859-9.5,2.694l-.544.173-.023.007-.027.008-.533.17c8.129-1.709,16.631-3.069,25.268-4.046a152.861,152.861,0,0,1,17.1-.987,133.86,133.86,0,0,1,17.909,1.184c.149-.013.3-.024.469-.036.868-.055,1.953-.09,3-.119.612.008,1.245.036,1.858.062.5.022,1.005.044,1.494.055.726.022,1.335.033,1.861.033,2.02,0,2.989-.159,3.049-.5.07-.392-1.08-1.016-3.513-1.909l-3.478-.692c-.756-.147-1.532-.238-2.282-.327-.408-.048-.821-.1-1.225-.153-.8-.094-1.621-.2-2.411-.3-1.517-.2-3.077-.4-4.617-.525l-7.055-.372-1.765-.091c-.132,0-.263-.005-.395-.005-.244,0-.493.005-.734.01-.213,0-.423.009-.633.01l-3.525.059c-1.531-.144-2.311-.319-2.316-.523s.828-.443,2.411-.679c1.242-.169,3.318-.453,5.644-.547.469,0,.953-.007,1.441-.007,1.937,0,3.939.034,5.95.1,1.408.149,2.683.412,3.807.643.374.077.727.15,1.073.216l3.7.72,1.431.259,1.421.257c.812.188,1.565.347,2.3.485,1.315.244,2.548.416,4.256.594.308.036.625.065.961.1.513.047,1.037.1,1.605.173l2.251.376.978.163a5.2,5.2,0,0,0,2.083,1.13c.506.192,1.11.4,1.845.64l.775.244.063.02.222.07q.539.2,1.1.418c1.509.555,3.136,1.154,4.7,1.734.782.292,1.548.581,2.274.856.636.28,1.216.57,1.777.85l.2.1c1.571.569,3.006,1.047,4.272,1.469.773.258,1.5.5,2.212.747l.5.2c1.656.661,3.215,1.284,4.864,2,.252.115.5.225.772.341a19.145,19.145,0,0,1,2.043.987c1.01.562,2.021,1.151,3.092,1.8,1.015.62,2.279,1.393,3.631,2.3,1.288.961,2.652,2.009,4.168,3.2a9.744,9.744,0,0,0-2.973-.85c-.291,0-.469.078-.532.231-.288.71,1.911,2.977,4.1,5.1l1.092,1.147.017.017c3.929,4.121,9.31,9.766,11.842,13.983l-.518-.484a55.618,55.618,0,0,0-4.4-3.82c-.694-.538-1.386-1.1-2.118-1.7-.57-.464-1.159-.943-1.763-1.422a142.419,142.419,0,0,1,20.8,23.385l-.008-.017-.007-.016L273,63.79l4.01,5.243C268.8,55.093,261.84,45.2,254.456,36.95c5.963,6.127,10.778,11.212,14.9,16.1,3.892,4.418,7.578,9.007,11.953,14.881,8.535,11.9,13.7,22.34,17.254,34.893.9,2.5,1.77,4.667,2.541,6.583.437,1.087.85,2.114,1.228,3.1l.65,1.585.022.054c.315.767.621,1.512.921,2.245l.723,1.9.064.169.632,1.656a80.42,80.42,0,0,1,4.714,20.161,2.375,2.375,0,0,1-.1,1.15.068.068,0,0,1-.049.023c-.155,0-.407-.573-.63-1.079l-.018-.04c-.235-.535-.457-1.04-.59-1.04a.055.055,0,0,0-.041.02,5.673,5.673,0,0,0,.02,2.147,32.847,32.847,0,0,0,1.055,6.32c.178.583.362,1.106.539,1.612.267.763.519,1.481.742,2.355l.415-2.438c-.188,1.149-.3,2.873-.422,4.7-.139,2.111-.283,4.293-.559,6.089a11.921,11.921,0,0,1-.671,2.852c.21,1.579.408,3.02.583,4.292l0,.013c.471,3.425.843,6.129,1.089,8.956a38.35,38.35,0,0,1-.135,7.076,44.3,44.3,0,0,1-2.41,10.126,2.847,2.847,0,0,0,.186-.839c-.039,0-.142.2-.344.681l-.761,1.559-.94,1.924a9.559,9.559,0,0,1-1.533,2.372.077.077,0,0,1-.036.012.029.029,0,0,1-.025-.013c-.036-.049,0-.25.111-.6.058-.186.143-.412.251-.7.179-.474.4-1.059.638-1.831-.308.59-.64,1.248-.991,1.944a77.152,77.152,0,0,1-6.537,11.168A50.074,50.074,0,0,1,287.3,220.7c-.45-.127-.345-.654-.243-1.163.083-.416.161-.81-.055-.976a.431.431,0,0,0-.3-.093c-.6,0-1.892.637-5.02,2.178-1.041.512-2.33,1.147-3.841,1.879-.473.231-.913.461-1.339.682l-.01.005c-.591.308-1.15.6-1.678.833-.949.432-1.716.793-2.346,1.1-1.208.6-2.071,1.077-2.7,1.427l-.2.108c-1.251.741-1.374,1.176-1.4,1.629,0,.03,0,.06,0,.091-.019.41-.04.834-.985,1.55-1.06.85-3.366,1.862-7.479,3.282,1.331-.382,2.678-.812,3.982-1.227.674-.215,1.362-.435,2.046-.647,1.321-.455,2.654-.956,3.944-1.441.629-.236,1.342-.5,2.03-.757-1.319.827-2.973,1.739-4.913,2.715-1.83.84-3.918,1.7-6.384,2.632a126.574,126.574,0,0,1-15.831,4.351c-11.027,2.363-22.895,3.7-33.365,4.885l-1.2.136c-6.456-.062-12.57-.529-19.043-1.022-7.524-.574-15.3-1.167-24.265-1.167-2.42,0-4.865.045-7.265.133.212-.038.568-.088.981-.146l.018,0c1.549-.216,4.141-.578,4.251-1.042.017-.073-.027-.146-.132-.219a36.989,36.989,0,0,0-5.669-.341c-2.921,0-5.969.164-8.566.325-2.782.359-4.148.709-4.176,1.07-.025.323.993.621,1.978.909.938.274,1.908.558,1.906.853,0,.153-.252.3-.766.441-1.12.081-2.253.169-3.348.254l-.032,0C141.5,244.272,136.974,244.623,131.908,244.623Zm-54.524-9.4c1.542,0,3.5.086,5.549.183l.35.01.166.005c-3.807-.517-7.5-1.1-10.98-1.716-.043.316.42.851,2.887,1.6C75.883,235.245,76.546,235.22,77.385,235.22ZM285.653,88h0A219.151,219.151,0,0,1,299.3,127.05a202.977,202.977,0,0,1,5.61,34.683,99.134,99.134,0,0,1-.2,17.235,59.083,59.083,0,0,1-3.562,15.248l.235-.468a27.429,27.429,0,0,0,1.687-3.854c.1-.28.2-.568.3-.847a18.8,18.8,0,0,0,.657-2.03c.279-1.063.534-2.089.758-3.048.176-.851.3-1.717.416-2.554l0-.028q.035-.247.07-.493c.064-.41.114-.847.16-1.376-.031.938.028,1.208.157,1.4.021.036.043.07.066.1.16.242.34.516.3,1.916.415-3.873.656-7.051.849-9.6a62.614,62.614,0,0,1,.771-7.187,12.423,12.423,0,0,1,.864-3.169,8.289,8.289,0,0,1-.679-1.435c-.563-11.646-3.077-19.894-5.826-28.009q-.438-1.268-.872-2.51a140.846,140.846,0,0,1-6.024-20.86l1.135-3.76-1.04-2.57L294.02,101.3c-.26-.578-.518-1.168-.767-1.738l-.007-.016c-.475-1.088-.965-2.212-1.494-3.3a1.7,1.7,0,0,1,.027-.466c.076-.482.163-1.028-1.07-3.584-.772-1.345-1.229-2-1.4-2a.055.055,0,0,0-.046.023,10.129,10.129,0,0,0,.661,3.03c.064.225.129.454.193.682.45,1.6.908,3.339.651,3.678a.141.141,0,0,1-.117.059l-.026,0C288.923,94.191,287.3,91.027,285.653,88Zm-9.316-17.689h0c1.811,3.027,3.585,6.208,5.271,9.451.151.162.242.238.288.238a.027.027,0,0,0,.021-.009c.012-.015.014-.046.006-.095a30.309,30.309,0,0,0-3.166-6.147c-.5-.779-1.059-1.6-1.754-2.575-.187-.254-.381-.5-.569-.741ZM111.605,12.892a157.6,157.6,0,0,0-31.384,11.8c-.7.38-1.407.757-2.095,1.122-1.722.914-3.5,1.855-5.164,2.9l-1.5.909-2.029,1.228L68,31.816l-.021.014-1.955,1.309-1.693,1.146-1.638,1.221q-1.631,1.22-3.252,2.436l-.257.213q-1.431,1.186-2.853,2.368L54.781,41.81,53.3,43.169c-.07.065-.14.131-.212.2A131.443,131.443,0,0,1,72.3,29.877,155.945,155.945,0,0,1,94.774,19.251a119.837,119.837,0,0,1,16.832-6.359h0Zm106.286,1.3a1.852,1.852,0,0,0-1.62.7l-.068.072a114.147,114.147,0,0,1,16.76,8.947l-.177-.137c-.39-.312-.832-.666-1.255-1.02l0,0h.013c.1,0,.169-.029.191-.084.054-.137-.162-.442-.644-.908l-.158-.143a19,19,0,0,0-2.8-2.195l-.731-.471a69.858,69.858,0,0,0-7.555-4.469A8.668,8.668,0,0,0,217.891,14.2Z" transform="translate(0 0)" fill="rgba(15,137,59,0.1)"/>
      </g>
      <g id="Group_2" data-name="Group 2" transform="translate(50.81 29.84)">
        <path id="Fill_270" data-name="Fill 270" d="M0,22.12V0L19.157,11.06,0,22.118ZM1.172,2.031V20.089l15.64-9.029Z" transform="translate(184.552 89.244)" fill="#067e32"/>
        <path id="Fill_272" data-name="Fill 272" d="M0,19.589V0L16.967,9.795,0,19.588ZM1.172,2.031V17.56l13.45-7.765Z" transform="translate(64.86 7.23)" fill="#067e32"/>
        <path id="Fill_274" data-name="Fill 274" d="M8.885,17.766a8.883,8.883,0,1,1,8.884-8.884A8.894,8.894,0,0,1,8.885,17.766Zm0-16.593A7.71,7.71,0,1,0,16.6,8.882,7.72,7.72,0,0,0,8.885,1.172Z" transform="translate(96.067 41.172)" fill="#067e32"/>
        <path id="Fill_276" data-name="Fill 276" d="M3.6,7.2A3.6,3.6,0,1,1,7.2,3.6,3.6,3.6,0,0,1,3.6,7.2Zm0-6.025A2.426,2.426,0,1,0,6.025,3.6,2.429,2.429,0,0,0,3.6,1.172Z" transform="translate(49.722 24.248)" fill="#067e32"/>
        <path id="Fill_278" data-name="Fill 278" d="M3.6,7.2A3.6,3.6,0,1,1,7.2,3.6,3.6,3.6,0,0,1,3.6,7.2Zm0-6.025A2.426,2.426,0,1,0,6.025,3.6,2.429,2.429,0,0,0,3.6,1.172Z" transform="translate(92.082 0)" fill="#067e32"/>
        <path id="Fill_280" data-name="Fill 280" d="M7.948,15.893A7.946,7.946,0,1,1,15.9,7.946,7.956,7.956,0,0,1,7.948,15.893Zm0-14.721a6.774,6.774,0,1,0,6.774,6.774A6.783,6.783,0,0,0,7.948,1.172Z" transform="translate(0 75.897)" fill="#067e32"/>
      </g>
    </g>
    <g id="Group_3" data-name="Group 3" transform="translate(125.279 33.904)">
      <path id="Fill_12" data-name="Fill 12" d="M124.629,0H9.943A9.933,9.933,0,0,0,0,9.922V57.735a9.933,9.933,0,0,0,9.943,9.922h13.5a25.018,25.018,0,0,1,2.677,9c.478,3.441.726,9.09.726,9.09A97.4,97.4,0,0,0,51.33,67.657h73.3a9.933,9.933,0,0,0,9.943-9.922V9.922A9.933,9.933,0,0,0,124.629,0" transform="translate(56.358 0)" fill="#fff"/>
      <path id="Fill_14" data-name="Fill 14" d="M50.659,25.984c0,14.35-11.341,25.984-25.33,25.984S0,40.334,0,25.984,11.34,0,25.329,0s25.33,11.633,25.33,25.984" transform="translate(71.932 6.936)" fill="#fff"/>
      <path id="Fill_16" data-name="Fill 16" d="M21.022,9.621a4.461,4.461,0,0,0-2.381.917,17.472,17.472,0,0,0-2.9-7.941C13.121-1.164,3.2-.878.237,3.7c0,0-.681,8.117.265,13.4.791,4.425,3.388,6.218,5.388,6.821-.05.685-.11,1.369-.178,1.983a5.311,5.311,0,0,1-.943,2.156s-.8,4.8,8.055,5.073c7.088.218,7.574-4.369,7.574-4.369s-.014-2.752-.2-5.564c-.089-1.372-.161-4.006-.21-6.345A4.411,4.411,0,0,0,23.768,14.7a3.4,3.4,0,0,0-2.746-5.083" transform="translate(83.348 0.297)" fill="#fff"/>
      <path id="Fill_18" data-name="Fill 18" d="M25,39.778c-1.316-5.761-4.158-6.944-4.158-6.944s-1.363.21-3.051-3.923c-1.545-3.786-3.985-9.355-4.385-10.265a6.921,6.921,0,0,0,1.473-2.336c.516-1.508.835-5.4,1.391-6.7S18.417,5.718,17.5,5.082s-2.068.754-3.3,2.579c-.9,1.333-1.627,2.362-1.955,2.824-.36-.922-.55-.851-.55-.851S11.556,4,11.388,1.907,9.859.461,9.733,1.256,9.476,9.3,9.476,9.3,8.182.981,8.008.637c-.521-1.029-1.7-.888-1.6.988.068,1.338.849,8.386.849,8.386H6.834S3.689,1.642,2.387,2.52c-.955.646,2.654,8.16,2.654,8.16l-.473.252S.752,7,.081,7.752s3.063,5.022,3.063,5.022.125.419.922,2.47a17.1,17.1,0,0,0,1.918,3.568s.919,3.673,1.994,9.029S11.5,44.216,15.491,48.5s9.2,1.683,9.2,1.683S26.558,46.6,25,39.778" transform="translate(47.584 5.208)" fill="#fff"/>
      <path id="Fill_26" data-name="Fill 26" d="M.08,12.234c.4,6.154,2.426,13.594,8.286,11.991,5.4-1.478,8.777-5.824,8.777-11.991s-3.29-10.692-9.038-12C3.182-.877-.6,1.717.08,12.234" transform="translate(4.528 73.114)" fill="#fff"/>
      <path id="Fill_28" data-name="Fill 28" d="M0,12.594C0,19.55,4.308,25.188,9.623,25.188s9.623-5.638,9.623-12.594S14.938,0,9.623,0,0,5.639,0,12.594" transform="translate(0 72.754)" fill="#fff"/>
    </g>
    <g id="Colors_Yellow_FFCB57" data-name="Colors/Yellow #FFCB57" transform="translate(37.532 148.021)">
      <path id="Mask-4" data-name="Mask" d="M0,54.96S13.686,30.672,32.275,15.4C51.361-.279,69.979,0,69.979,0L92.3,1.51s12.335-1.684,36.03,21.678c2,1.975-5.6,62.334-5.6,62.334s-78.91.913-78.763,0l.293-16.456S13.028,72.551,0,54.96" transform="translate(0 0)" fill="#ffcb57"/>
      <g id="Colors_Yellow_FFCB57-2" data-name="Colors/Yellow #FFCB57" transform="translate(0 0)" clip-path="url(#clip-path)">
        <g id="Colors_Yellow_FFCB57-3" data-name="Colors/Yellow #FFCB57" transform="translate(-80.473 -217.93)">
          <rect id="Color" width="409.184" height="408.275" rx="80" fill="#0f893b"/>
        </g>
      </g>
    </g>
    <g id="Group_4" data-name="Group 4" transform="translate(16.618 80.279)">
      <path id="Fill_34" data-name="Fill 34" d="M45.414,5.652A46.228,46.228,0,0,0,40.944,0S32.131,6.6,23.6,13.5c-9.231,7.467-12.733,3.177-12.733,3.177a22.955,22.955,0,0,1-4.416.174A6.636,6.636,0,0,0,1,26.974c2.275,4.119,6.886,4.42,9.2,4.287.142,4.036.377,11.485.286,14.5-.165,5.428-2.2,8.722-2.435,8.821.108.919,1.388,8.644,14.14,9.667C35.745,65.336,37.233,56.8,37.233,56.8a12.729,12.729,0,0,1-3.473-6.677,33.92,33.92,0,0,1-.129-5.788c5.181-.876,10.791-5.522,12.59-15.645,1.868-10.517-.808-23.039-.808-23.039" transform="translate(78.247 15.267)" fill="#fff"/>
      <path id="Fill_240" data-name="Fill 240" d="M0,0S8.721,4.458,11.321,5.5c.392.157-1.292,3.111-4.7,2.451L1.861,7.021Z" transform="translate(97.788 130.408)" fill="#fff"/>
      <path id="Fill_242" data-name="Fill 242" d="M19.26,12.605c0,6.962-4.312,12.606-9.63,12.606S0,19.567,0,12.605,4.312,0,9.63,0s9.63,5.643,9.63,12.605" transform="translate(73.409 28.939)" fill="#fff"/>
      <path id="Fill_244" data-name="Fill 244" d="M17.075,11.176c0,6.173-3.822,11.177-8.538,11.177S0,17.349,0,11.176,3.822,0,8.537,0s8.538,5,8.538,11.176" transform="translate(72.156 30.369)" fill="#fff"/>
      <path id="Fill_246" data-name="Fill 246" d="M39.648,8.339S26.781-1.517,14.443,7.2C4.795,14.023,6.609,29.191,6.609,29.191a4.527,4.527,0,0,1-3.4.7,13.521,13.521,0,0,0-3.2-.5S-.6,14,8.127,5.92C21-6,38.051,2.863,39.648,8.339" transform="translate(78.585 0)" fill="#fff"/>
      <path id="Fill_248" data-name="Fill 248" d="M.221,4.191A2.881,2.881,0,0,1,1.426.584a3.188,3.188,0,0,1,3.723,0L26.57,28.549l3.6,8.33-8.819-4.827Z" transform="translate(83.177 116.091)" fill="#fff"/>
      <path id="Fill_250" data-name="Fill 250" d="M4.476,0A32.494,32.494,0,0,0,.157,12.753c-.743,7.164,1.238,10.87,4.208,12.1a14.94,14.94,0,0,0,5.2,1.236H85.3a3.878,3.878,0,0,0,1.459-2.78c-.05-1.607-.488-1.851-.488-1.851a2.778,2.778,0,0,0,2.342-1.656,2.826,2.826,0,0,0-.732-2.824,2.151,2.151,0,0,0,2-1.685c.475-1.609-1.192-2.814-5.218-4.7A45.589,45.589,0,0,0,74.1,7.379s-1.822-2.75-2.29-2.657c-5.581,1.115-14.368,5.365-14.368,5.365s-8.235,0-17.781-.187S23,8.9,16.548,6.538A45.463,45.463,0,0,1,4.476,0" transform="translate(20.106 127.232)" fill="#fff"/>
      <path id="Fill_256" data-name="Fill 256" d="M18.35,49.079,20.8,41.143a25.291,25.291,0,0,0,4.791-9.158c1.529-5.495,1.372-6.577,1.372-6.577s4.541-8.991,5.458-11.433-.407-3.866-1.936-1.73-6.751,9.548-6.751,9.548l-.978-.781s1.924-11.1,2.739-14.556-.414-5.4-1.84-4.487C21.707,3.217,18.314,19.3,18.314,19.3l-.806-.186S20.143,4.009,20.287,2.072c.2-2.748-2.877-2.74-3.506-.108-.449,1.878-3.425,17.779-3.425,17.779s0-13.092-.613-15.534-2.651-1.628-2.956.814S8.87,19.266,8.87,19.266L7.645,25.677s-2.052-5.3-3.989-7.846S0,16.621,0,16.621s.595,2.828,1.315,5.616C1.97,24.772,3.16,27.2,3.16,30.256S6.117,38.6,6.117,38.6L5.1,48.367Z" transform="translate(157.301 37.99)" fill="#fff"/>
      <path id="Fill_262" data-name="Fill 262" d="M87.54,66.364H5A5,5,0,0,1,.093,60.418L11.055,4.043A5,5,0,0,1,15.966,0H98.5a5,5,0,0,1,4.911,5.945L92.452,62.322a5,5,0,0,1-4.912,4.042" transform="translate(136.474 82.598)" fill="#fff"/>
      <path id="Fill_264" data-name="Fill 264" d="M108.614,4.883H1.682A1.68,1.68,0,0,1,0,3.205V1.679A1.681,1.681,0,0,1,1.682,0H108.614A1.681,1.681,0,0,1,110.3,1.679V3.205a1.68,1.68,0,0,1-1.681,1.678" transform="translate(117.628 149.023)" fill="#fff"/>
      <path id="Fill_266" data-name="Fill 266" d="M10.576,9.3c-1.969,3-5.663,4.058-8.252,2.365S-.767,6.17,1.2,3.172,6.866-.886,9.453.806,12.545,6.3,10.576,9.3" transform="translate(184.232 110.765)" fill="#fff"/>
      <path id="Fill_268" data-name="Fill 268" d="M7.985,10.348H275.119a7.978,7.978,0,0,0,7.985-7.97V0H0V2.378a7.978,7.978,0,0,0,7.985,7.97" transform="translate(0 153.44)" fill="#fff"/>
    </g>
    <g id="Colors_Green_5AE2E2" data-name="Colors/Green #5AE2E2" transform="translate(191.658 60.274)">
      <path id="Mask-5" data-name="Mask" d="M51.62,7.7C44.475,1.821,39.419.356,37.052,0c.043,1.425.05,2.446.05,2.446s-.486,4.586-7.586,4.367C20.646,6.54,21.447,1.74,21.447,1.74A5.875,5.875,0,0,0,22.308.009a21.672,21.672,0,0,0-10.18,3.7c-3.063,1.978-9.533,5.58-11.2,6.8a3.365,3.365,0,0,1-.008.57,1.225,1.225,0,0,0,.8.341S4.568,12.6,5.887,18.364c1.561,6.82-.307,10.406-.307,10.406A8.825,8.825,0,0,1,0,29.3a6.167,6.167,0,0,0,6.278,1.09c1.88-.577,7.451-4.683,7.9-4.292A24.915,24.915,0,0,0,30.605,32.28,25.54,25.54,0,0,0,55.467,11.506,31.724,31.724,0,0,0,51.62,7.7" transform="translate(0 0)" fill="#ffcb57"/>
      <g id="Colors_Green_5AE2E2-2" data-name="Colors/Green #5AE2E2" transform="translate(0 0)" clip-path="url(#clip-path-2)">
        <g id="Colors_Green_5AE2E2-3" data-name="Colors/Green #5AE2E2" transform="translate(-150.708 -111.634)">
          <rect id="Color-2" data-name="Color" width="461.593" height="461.593" rx="80" fill="#ffcb57"/>
        </g>
      </g>
    </g>
    <g id="Outline" transform="translate(16.021 24.536)">
      <g id="Mask-6" data-name="Mask" transform="translate(0 0)">
        <path id="Fill_284" data-name="Fill 284" d="M273.023,164.97H10.942A10.95,10.95,0,0,1,0,154.037a.587.587,0,0,1,.586-.586H25.4l-.144-.053c-.144-.053-.293-.108-.447-.171-2.1-.877-5.492-3.694-4.56-12.709a32.688,32.688,0,0,1,4.243-12.747,27.146,27.146,0,0,1-3.657-3.992l-.227-.3.186-.333c.571-1,14.2-24.7,32.4-39.654a21.973,21.973,0,0,1-1.945-2.8,14.952,14.952,0,0,1-1.523-12.434A18.1,18.1,0,0,1,59.754,57.683c6.481-2.806,10.631-6.843,12.686-12.342a14.856,14.856,0,0,1-.364-3.21A13.79,13.79,0,0,1,74.4,34.34c.055-.546.109-1.008.167-1.411.149-1.049.253-2.263.362-3.549a48,48,0,0,1,2.2-12.158,25.161,25.161,0,0,1,9.157-12.3A18.458,18.458,0,0,1,93.491,1.7,21.435,21.435,0,0,1,101.924,0a23.89,23.89,0,0,1,6.359.87c5.376,1.486,10.091,4.877,10.969,7.889l.229.785c.419.326.753.6,1.084.875,4.474,3.782,6.677,9.861,7.145,19.713a12.769,12.769,0,0,1,3.812,9.649,12.638,12.638,0,0,1-4.838,10.456c-.05,4.22.964,6.971,3.39,9.2,5.077,4.652,5.924,9.146,3.355,17.811a113.4,113.4,0,0,1,13.71,11.106l.24-1.233a5.59,5.59,0,0,1,5.481-4.516h9.811l.552-5.3c-.49-.9-2.936-5.571-2.936-8.464a17.919,17.919,0,0,0-1.153-5.639c-.259-.8-.488-1.513-.674-2.234-.717-2.784-1.315-5.626-1.318-5.643a.583.583,0,0,1,.214-.583,2.584,2.584,0,0,1,1.5-.472,2.729,2.729,0,0,1,.353.023,4.048,4.048,0,0,1,2.619,1.768,33.029,33.029,0,0,1,3.311,6.163L166,57.734c.019-.471.611-11.8.911-14.208.2-1.584,1.086-2.735,2.157-2.8.026,0,.058,0,.094,0,.412,0,1.418.187,1.853,1.919a67.377,67.377,0,0,1,.571,9.7c1.352-7.159,2.114-11.065,2.323-11.942a2.841,2.841,0,0,1,2.626-2.411,2.03,2.03,0,0,1,.3.022c.879.137,1.86.92,1.731,2.676-.084,1.133-.979,6.548-1.714,10.89,1.182-4.8,2.869-10.689,4.173-11.527a1.852,1.852,0,0,1,1.008-.321,1.535,1.535,0,0,1,.9.292c1.074.759,1.388,2.73.82,5.143-.73,3.1-2.353,12.357-2.671,14.182l.22.176c3.264-4.635,5.532-7.847,6.386-9.044.761-1.062,1.45-1.285,1.894-1.285a1.233,1.233,0,0,1,.584.141c.882.469,1.076,1.843.483,3.421-.846,2.253-4.654,9.857-5.409,11.359a30.725,30.725,0,0,1-1.4,6.6,25.754,25.754,0,0,1-4.826,9.292l-.8,2.591H200.2a.585.585,0,1,1,0,1.171H152.859a4.415,4.415,0,0,0-4.33,3.567L146.2,99.307a.585.585,0,0,1-.573.473.688.688,0,0,1-.114-.01.588.588,0,0,1-.464-.686l1.824-9.388c-7.577-7.142-14.719-12.415-21.229-15.672-5.388-2.7-8.971-3.3-10.627-3.416a12.022,12.022,0,0,0,1.319,1.621l.229.216-.052.312a9.019,9.019,0,0,1-2.252,4.045c-1.69,1.816-4.984,3.981-11.078,3.981-.744,0-1.528-.032-2.328-.1-7.208-.58-10.808-3.314-12.559-5.505a9.915,9.915,0,0,1-2.065-4.425l-.155-.147.139-.459.216-.614a67.32,67.32,0,0,0-32.45,14.814C36.768,98.471,23.461,120.879,22,123.388a27.9,27.9,0,0,0,6.472,6.038,47.694,47.694,0,0,0,8.929,4.389c1.092.4,2.171.747,3.3,1.06l.086.024.077.022c.308.085.64.172,1.043.273l.232.056c4.75,1.157,10.351,1.74,18.161,1.892l.6.011.1,0h.076l.69.013c1.6-.048,2.769-.134,3.321-.181.321-2.583,2.051-16.042,4.385-27.149a.587.587,0,0,1,.568-.467.549.549,0,0,1,.126.015.585.585,0,0,1,.452.694c-2.332,11.1-4.061,24.57-4.384,27.158,6.63.089,11.634.09,11.684.09,1.39-.663,8.588-4.034,13.757-5.215l-8.248-10.885a.712.712,0,0,1-.072-.122,3.429,3.429,0,0,1,1.442-4.341,4.335,4.335,0,0,1,2.237-.672,3.5,3.5,0,0,1,2.165.73.532.532,0,0,1,.085.088l11.1,14.507c2.735,1.383,7.6,3.811,9.413,4.536a.738.738,0,0,1,.376.971,4.315,4.315,0,0,1-2.189,2.214c1.813,1,3.592,2.279,3.038,4.152a3.117,3.117,0,0,1-.642,1.192l.3.4a.578.578,0,0,1,.072.124l3.6,8.33a.157.157,0,0,1,.009.068.234.234,0,0,0,0,.051h3.4a2.674,2.674,0,0,1-.26-1.13V151.8a2.77,2.77,0,0,1,2.767-2.766h18.306a5.63,5.63,0,0,1-.971-.918,5.561,5.561,0,0,1-1.174-4.614l2.17-11.166a.582.582,0,0,1-.188-.431,103.049,103.049,0,0,0-6.054-36.932,59.7,59.7,0,0,0-6.415-13,.585.585,0,0,1,.127-.818.574.574,0,0,1,.346-.115.593.593,0,0,1,.474.239c.119.162,11.87,16.568,12.65,46.209l3.156-16.244a.587.587,0,0,1,.58-.473.582.582,0,0,1,.571.7l-6.266,32.257a4.407,4.407,0,0,0,4.33,5.248h82.445a4.419,4.419,0,0,0,4.332-3.569l10.949-56.381a4.409,4.409,0,0,0-4.33-5.248H218.079a.585.585,0,1,1,0-1.171H235.3a5.581,5.581,0,0,1,5.481,6.642l-10.949,56.381a5.6,5.6,0,0,1-2.573,3.685,2.775,2.775,0,0,1,1.582,2.487v.524a2.673,2.673,0,0,1-.261,1.13h54.8a.586.586,0,0,1,.584.586A10.949,10.949,0,0,1,273.023,164.97ZM1.19,154.622a9.774,9.774,0,0,0,9.752,9.177H273.023a9.774,9.774,0,0,0,9.752-9.177ZM120.267,150.2a1.6,1.6,0,0,0-1.6,1.593v.524a1.584,1.584,0,0,0,.472,1.13H227.2a1.579,1.579,0,0,0,.472-1.13V151.8a1.6,1.6,0,0,0-1.6-1.593Zm-12.351.8c0,.022,0,.041,0,.06s0,.039,0,.063a3.713,3.713,0,0,1-.8,2.328h5.265ZM25.307,128.694h0a32.216,32.216,0,0,0-3.9,11.947c-.634,6.122.733,10.207,3.847,11.5a14.406,14.406,0,0,0,4.968,1.19h75.438a3.137,3.137,0,0,0,1.091-2.178,3.255,3.255,0,0,0-.238-1.362,53.44,53.44,0,0,0-12.052-2.178H94.4a.538.538,0,0,1-.171.029.572.572,0,0,1-.466-.857.667.667,0,0,1,.367-.3,1.521,1.521,0,0,1,.387-.03,51.474,51.474,0,0,1,12.4,2.24,2.128,2.128,0,0,0,1.726-1.265,2.16,2.16,0,0,0-.529-2.134c-4.531-2.2-13.557-3.233-14.571-3.343l-.017,0a.584.584,0,0,1-.523-.642.6.6,0,0,1,.581-.526.507.507,0,0,1,.061,0c.4.042,9.967,1.054,14.923,3.43a1.584,1.584,0,0,0,1.327-1.256c.289-.982-.72-1.927-3.6-3.372-.382-.2-.947-.466-1.218-.592l-.083-.039a45.242,45.242,0,0,0-10.4-3.176.6.6,0,0,1-.4-.255,15.255,15.255,0,0,0-1.845-2.374c-5.435,1.134-13.966,5.246-14.049,5.287a.6.6,0,0,1-.255.059c-.082,0-8.281,0-17.774-.188-10.519-.207-17.264-1.192-23.279-3.4a47.253,47.253,0,0,1-11.692-6.221Zm84.224,16.613h0a3,3,0,0,1-1.658,4.334l4.727,2.589-2.895-6.7Zm-7.52-11.759v0l3.249,4.246.1.045.131.059c.349.163.687.325,1.017.483a3.849,3.849,0,0,0,1.447-.557,3.361,3.361,0,0,0,.96-.97C107.623,136.3,105.3,135.189,102.011,133.548ZM87.038,117.271a3.193,3.193,0,0,0-1.641.5,2.266,2.266,0,0,0-.989,2.816l9.419,12.431c.223.269.486.616.782,1.033l.477.629a48.266,48.266,0,0,1,8.008,2.214l-14.7-19.21A2.368,2.368,0,0,0,87.038,117.271Zm71.813-61.839a1.427,1.427,0,0,0-.471.078c.059.268.58,2.7,1.213,5.158.182.711.415,1.429.641,2.123l.014.043a18.842,18.842,0,0,1,1.208,6c0,2.72,2.578,7.511,2.872,8.048l.006.011a.58.58,0,0,1,.07.345l-.558,5.365h13.142l.939-3.055a.608.608,0,0,1,.122-.216,24.838,24.838,0,0,0,4.66-8.926c1.419-5.107,1.357-6.309,1.354-6.358a.634.634,0,0,1,.059-.325l.045-.09c1.064-2.119,4.6-9.194,5.38-11.286.449-1.192.231-1.887.065-1.976a.093.093,0,0,0-.038-.007c-.136,0-.487.168-.937.8-1.437,2.011-6.194,8.768-6.732,9.532l-.009.013a.222.222,0,0,1-.047.047c-.011.009-.021.017-.03.027.023.017.046.032.069.047s.052.034.077.053a.586.586,0,0,1-.705.936,13.236,13.236,0,0,0-8.073-2.845,11.168,11.168,0,0,0-4.424.855.569.569,0,0,1-.249.057.585.585,0,0,1-.252-1.114,10.577,10.577,0,0,1,2.206-.686c0-4.76-.13-13.311-.593-15.158-.158-.628-.431-1.034-.695-1.034a.267.267,0,0,0-.043,0c-.342.02-.917.6-1.065,1.775-.275,2.191-.807,12.165-.911,14.143l0,.062L166,64a16.347,16.347,0,0,1,3.917,5.285,18.048,18.048,0,0,1,1.433,5.69.59.59,0,0,1-.534.635c-.018,0-.034,0-.052,0a.581.581,0,0,1-.581-.536,17.05,17.05,0,0,0-1.3-5.249c-2.1-4-3.8-5.058-3.821-5.068l-.009-.009a.569.569,0,0,1-.209-.249.047.047,0,0,0-.014-.016.043.043,0,0,1-.016-.02,41.606,41.606,0,0,0-3.905-7.7A2.691,2.691,0,0,0,158.851,55.432Zm-67.159-21.2a15.682,15.682,0,0,1,2.046,7.9,14.685,14.685,0,0,1-4.049,10.5c.122,4.368.159,7.4.109,9a17.691,17.691,0,0,1-2.4,8.972,8.834,8.834,0,0,0,2.528,4.673c2.4,2.421,6.115,3.848,11.031,4.243.768.062,1.521.093,2.238.093,4.063,0,7.257-.974,9.494-2.9a8.309,8.309,0,0,0,2.6-3.88,13.216,13.216,0,0,1-3.4-6.766,30.764,30.764,0,0,1-.162-5.2,12.086,12.086,0,0,1-1.327.075,19.792,19.792,0,0,1-10.52-3.571,21.1,21.1,0,0,1-6.27-6.546.585.585,0,1,1,1-.616,19.728,19.728,0,0,0,5.943,6.2,18.572,18.572,0,0,0,9.839,3.36,11.456,11.456,0,0,0,1.28-.071c4.914-.558,10.823-4.861,12.67-15.263,1.732-9.767-.518-21.416-.78-22.713a44.857,44.857,0,0,0-3.989-5.091c-1.488,1.122-9.3,7.032-16.887,13.173-3.719,3.012-7,4.539-9.747,4.539A6.505,6.505,0,0,1,91.693,34.236Zm90.335,6.671a.72.72,0,0,0-.373.131c-1.087.7-3.434,9.174-5.074,16.962a.585.585,0,0,1-.1.219,14.448,14.448,0,0,1,3.385,1.329.086.086,0,0,0,0-.025.068.068,0,0,1,0-.032c.018-.1,1.913-11.069,2.745-14.59.542-2.307.084-3.607-.356-3.919A.362.362,0,0,0,182.028,40.907Zm-5.513-1.746c-.533,0-1.22.474-1.469,1.514-.364,1.526-2.438,12.542-3.313,17.207a13.791,13.791,0,0,1,1.476-.08,13.427,13.427,0,0,1,1.448.079.561.561,0,0,1-.031-.287c.026-.148,2.63-15.116,2.767-16.988.06-.815-.217-1.35-.741-1.434A.887.887,0,0,0,176.515,39.161ZM85.673,30.469h0a5.671,5.671,0,0,1-1.477.571c3.654,1.653,6.11,6.111,6.11,11.091,0,6.3-3.824,11.456-8.706,11.736a6.881,6.881,0,0,0,1.935.286c4.981,0,9.034-5.393,9.034-12.022,0-5.549-2.835-10.345-6.895-11.662ZM81.19,31.54c-4.379,0-7.941,4.751-7.941,10.591s3.563,10.591,7.941,10.591,7.943-4.751,7.943-10.591S85.57,31.54,81.19,31.54Zm46.588.42c.013.481.026.971.033,1.463a16.17,16.17,0,0,1,1.287,6.359A15.463,15.463,0,0,1,126.78,48.1c-.009.111-.015.222-.022.332-.005.084-.01.163-.015.241a11.549,11.549,0,0,0,3.607-8.887A12.069,12.069,0,0,0,127.777,31.96Zm-.01,5.618h0c-.106,2.314-.354,4.485-.594,6.585l-.066.579a15.25,15.25,0,0,0,.818-4.96A16.053,16.053,0,0,0,127.768,37.578ZM101.9,1.164A20.513,20.513,0,0,0,87.6,6.932c-7.548,7-7.93,19.959-7.93,22.486a17.689,17.689,0,0,1,2.761.487,3,3,0,0,0,.717.085,4.151,4.151,0,0,0,1.917-.521c-.234-2.576-.938-15.759,8.106-22.159a19.389,19.389,0,0,1,11.39-3.684,26.036,26.036,0,0,1,12.374,3.491A19.27,19.27,0,0,0,107.969,2,22.77,22.77,0,0,0,101.9,1.164Z" transform="translate(0 55.025)" fill="#393f49"/>
        <path id="Fill_286" data-name="Fill 286" d="M4.537,1.171A.585.585,0,1,0,4.537,0H.586a.585.585,0,1,0,0,1.171Z" transform="translate(206.432 137.628)" fill="#393f49"/>
        <path id="Fill_288" data-name="Fill 288" d="M5.653,13.637a5.587,5.587,0,0,1-3.071-.9A5.773,5.773,0,0,1,.066,8.61,7.577,7.577,0,0,1,1.292,3.433,7.35,7.35,0,0,1,7.278,0a5.578,5.578,0,0,1,3.069.9A5.777,5.777,0,0,1,12.875,5.07a7.584,7.584,0,0,1-1.239,5.135A7.34,7.34,0,0,1,5.653,13.637ZM7.271,1.168a6.167,6.167,0,0,0-5,2.908,6.43,6.43,0,0,0-1.06,4.3A4.626,4.626,0,0,0,3.225,11.76a4.416,4.416,0,0,0,2.433.711,6.165,6.165,0,0,0,5-2.908,6.42,6.42,0,0,0,1.055-4.34A4.622,4.622,0,0,0,9.7,1.877,4.408,4.408,0,0,0,7.271,1.168Z" transform="translate(184.033 165.8)" fill="#393f49"/>
        <path id="Fill_290" data-name="Fill 290" d="M2.6,3.171A2.444,2.444,0,0,0,2.426.391,1.265,1.265,0,0,0,.347.8a2.446,2.446,0,0,0,.178,2.78A1.265,1.265,0,0,0,2.6,3.171" transform="translate(107.606 89.984)" fill="#393f49"/>
        <path id="Fill_292" data-name="Fill 292" d="M.27.87A2.575,2.575,0,0,0,.556,3.637c.611.619,1.472.385,1.925-.524A2.57,2.57,0,0,0,2.2.346C1.585-.273.723-.039.27.87" transform="translate(119.514 88.882)" fill="#393f49"/>
        <path id="Fill_294" data-name="Fill 294" d="M.586,9.782a.622.622,0,0,0,.1-.008L2.874,9.4a1.377,1.377,0,0,0,.965-2.149L2.754,5.262A13.626,13.626,0,0,1,1.633.574.587.587,0,0,0,1.047,0H1.035A.586.586,0,0,0,.46.594,14.692,14.692,0,0,0,1.7,5.779l1.147,2.1a.266.266,0,0,1,.042.247c-.011.023-.041.095-.207.121l-2.2.374a.585.585,0,0,0,.1,1.163" transform="translate(114.899 91.613)" fill="#393f49"/>
        <path id="Fill_296" data-name="Fill 296" d="M1.112.328A.586.586,0,0,0,.058.84,8.324,8.324,0,0,0,7.373,5.1a10.692,10.692,0,0,0,2.11-.218.586.586,0,0,0-.231-1.148C3.437,4.906,1.205.516,1.112.328" transform="translate(105.057 101.875)" fill="#393f49"/>
        <path id="Fill_298" data-name="Fill 298" d="M.586,3.2a.585.585,0,0,0,.486-.258,4.519,4.519,0,0,1,5.65-1.327A.586.586,0,1,0,7.162.531,5.775,5.775,0,0,0,.1,2.288.585.585,0,0,0,.586,3.2" transform="translate(104.088 82.759)" fill="#393f49"/>
        <path id="Fill_300" data-name="Fill 300" d="M.934,1.677a2.753,2.753,0,0,1,3.334.129.59.59,0,0,0,.367.127A.585.585,0,0,0,5,.891,3.918,3.918,0,0,0,.234.737a.586.586,0,0,0,.7.94" transform="translate(118.69 82.69)" fill="#393f49"/>
        <path id="Fill_302" data-name="Fill 302" d="M35.643,96.126v0l-.041-.89c0-.048-.255-5.679-.72-9.045a25.165,25.165,0,0,0-2.452-8.5H19.288A10.534,10.534,0,0,1,8.762,67.165V46.244c-.288-1.269-.544-2.471-.784-3.674-1.026-5.119-1.925-8.754-1.963-8.906A17.8,17.8,0,0,1,4.1,30.055c-.6-1.552-.821-2.162-.9-2.387-3.98-4.58-3.226-5.432-2.979-5.712a.9.9,0,0,1,.659-.293l.05,0c.655,0,1.8.757,3.405,2.25-2.93-6.453-2.035-7.06-1.7-7.288a.95.95,0,0,1,.536-.165,1.053,1.053,0,0,1,.318.05c1.087.345,2.478,3.112,3.453,5.373l-.024-.19c-.157-1.488-.482-4.585-.523-5.451-.091-1.758.8-2.13,1.071-2.2a1.132,1.132,0,0,1,.3-.039,1.582,1.582,0,0,1,1.341.959,6.637,6.637,0,0,1,.225.97,10.524,10.524,0,0,1,9.956-7.141H31.352C31,7.91,31.516,7.6,32.458,7.045c.329-.195.7-.415,1.109-.7a7.218,7.218,0,0,0,1.675-2.013A7.24,7.24,0,0,1,39.228.822a5.854,5.854,0,0,1,1.69-.251,6.5,6.5,0,0,1,3.688,1.206l.006,0A17.092,17.092,0,0,1,49.31.193,13.887,13.887,0,0,1,51.467,0c3.292,0,5.848,1.678,7.814,5.129a10.415,10.415,0,0,1,1.2,3.657h73.444A10.534,10.534,0,0,1,144.455,19.3V67.165a10.534,10.534,0,0,1-10.526,10.518H60.909A99.314,99.314,0,0,1,36.451,95.731l-.805.395ZM9.935,50.9h0l0,16.263a9.361,9.361,0,0,0,9.354,9.347H33.14l.165.314a25.947,25.947,0,0,1,2.738,9.2c.349,2.521.58,6.245.686,8.24a97.5,97.5,0,0,0,23.5-17.576l.175-.181h73.521a9.361,9.361,0,0,0,9.354-9.347V19.3a9.361,9.361,0,0,0-9.354-9.347H60.607a22.332,22.332,0,0,1-1.025,7.6,26.085,26.085,0,0,1,11.908,9.6,26.818,26.818,0,0,1,4.653,15.168,27.353,27.353,0,0,1-.473,5.04l.007.007-.056.279a.024.024,0,0,1,0,.011c-.121.614-.277,1.254-.49,2.011l-.031.113,0,.016c-.023.086-.046.173-.073.258-.16.547-.356,1.129-.6,1.78-.068.187-.133.354-.2.509-.236.594-.471,1.133-.718,1.647-.07.15-.146.3-.22.445l-.023.045c-.3.593-.575,1.1-.846,1.566l-.106.172L72.2,56.4c-.294.478-.61.959-.939,1.43l-.077.112c-.048.071-.092.135-.137.2-.353.488-.751,1-1.184,1.512-.072.086-.143.171-.215.256-.443.514-.9,1.008-1.365,1.47l-.052.051-.054.053a25.573,25.573,0,0,1-13.344,7.014l-.086.016-.086.015c-.719.126-1.391.218-2.056.281-.059.006-.118.01-.178.014l-.084.006c-.769.065-1.461.1-2.114.1-.754,0-1.538-.037-2.33-.111-.227-.021-.453-.055-.672-.088-.114-.017-.225-.034-.337-.049l-.306-.04c-.319-.041-.649-.083-.969-.143-.273-.051-.546-.117-.81-.181l-.3-.073-.255-.059c-.293-.067-.588-.134-.876-.216-.263-.074-.523-.162-.775-.246l-.234-.078-.176-.057c-.338-.11-.688-.224-1.026-.356-.184-.07-.368-.15-.546-.227l-.253-.109c-.438-.185-.9-.385-1.355-.609-.119-.058-.235-.122-.347-.183l-.2-.108c-.588-.307-1.072-.579-1.523-.856-.062-.038-.123-.079-.184-.119l-.121-.08c-.606-.383-1.142-.752-1.639-1.127-.029-.02-.058-.042-.086-.065l-.051-.04-.209-.159c-.336-.254-.682-.516-1.007-.8A31.62,31.62,0,0,0,30.6,64.524,26.78,26.78,0,0,1,26.132,67a8.833,8.833,0,0,1-2.578.418,6.177,6.177,0,0,1-4.139-1.537,8.058,8.058,0,0,1-3.781-2.349C13.559,61.3,11.642,57.051,9.935,50.9Zm28.224-4.757a.593.593,0,0,1,.122.013.585.585,0,0,1,.459.687c-.009.047-1.1,5.5-4.085,15.086a.112.112,0,0,1-.028.042A.152.152,0,0,0,34.6,62a24.363,24.363,0,0,0,15.632,5.744,24.115,24.115,0,0,0,14.572-4.926.033.033,0,0,0-.006-.008.033.033,0,0,1-.007-.008c-.587-1.761-1.326-4.057-1.978-6.082l-.12-.374c-.626-1.949-1.166-3.63-1.36-4.178a.588.588,0,0,1,.356-.748.574.574,0,0,1,.194-.034.587.587,0,0,1,.553.39c.207.584.817,2.48,1.373,4.212.641,2,1.375,4.275,1.974,6.08A25.542,25.542,0,0,0,74.413,47.7a30.7,30.7,0,0,0-3.579-3.523c-6.188-5.108-10.8-6.868-13.574-7.445l.075,3.135a.587.587,0,0,1-.571.6h-.015a.59.59,0,0,1-.586-.571l-.305-12.75a7.3,7.3,0,0,1-1.2-.1.586.586,0,0,1,.111-1.161.576.576,0,0,1,.112.011,5.671,5.671,0,0,0,1.009.083,3.962,3.962,0,0,0,3.681-1.877,2.657,2.657,0,0,0,.01-2.815,2.9,2.9,0,0,0-2.222-1.406,3.912,3.912,0,0,0-2.026.785l-.8.647c-.052.1-.086.159-.1.159a16.994,16.994,0,0,0-3.774-8.244,13.468,13.468,0,0,0-4.136-2.713c-.048,0-.079.013-.093.04-.027.05.009.149.107.293a1.16,1.16,0,0,1,.248,1.039,1.078,1.078,0,0,1-.666.566,12.434,12.434,0,0,0-4.105-1.245,2.345,2.345,0,0,0-.453.04,6.161,6.161,0,0,0-1.689.734,9.55,9.55,0,0,1-2.226.976,5.287,5.287,0,0,0-.509.612c-.039.485-.119,1.719-.173,3.257a.571.571,0,0,1,.158-.322,2.634,2.634,0,0,1,1.881-.8,2.9,2.9,0,0,1,1.62.509.586.586,0,0,1-.684.952,1.717,1.717,0,0,0-.925-.29,1.507,1.507,0,0,0-1.072.469.585.585,0,0,1-.828-.01.562.562,0,0,1-.155-.346,51.528,51.528,0,0,0,.446,9.7c1.024,5.725,5.147,6.487,5.963,6.581a10.338,10.338,0,0,0,1.184.071,8.334,8.334,0,0,0,5.024-1.689,12.87,12.87,0,0,0,3.288-3.509.586.586,0,0,1,.5-.278.585.585,0,0,1,.5.893,13.975,13.975,0,0,1-3.605,3.847,9.432,9.432,0,0,1-5.682,1.909,11.45,11.45,0,0,1-1.342-.082c-2.781-.322-6.075-2.471-6.98-7.538a36.819,36.819,0,0,1-.478-5.168A25.741,25.741,0,0,0,25.5,42.325c0,.1,0,.208.007.312,0,.072,0,.14.006.208l.07-.042.29-.172c1.952-1.151,4.162-2.453,5.6-3.386a22.035,22.035,0,0,1,10.577-3.819c0,.028-.006.057-.009.086s-.006.063-.009.092a3.582,3.582,0,0,1-.3,1.035,21.358,21.358,0,0,0-9.622,3.589c-1.442.935-3.672,2.25-5.639,3.41-2.073,1.223-4.212,2.485-5.237,3.183a.6.6,0,0,0,.145.049.494.494,0,0,1,.067-.005.443.443,0,0,1,.186.049c.127.052,3.128,1.346,4.5,7.36,1.585,6.94-.276,10.663-.356,10.818a.585.585,0,0,1-.26.253,9.7,9.7,0,0,1-3.058.789,5.493,5.493,0,0,0,1.113.111,7.575,7.575,0,0,0,2.207-.36,27.5,27.5,0,0,0,4.189-2.354,17.1,17.1,0,0,1,3.57-1.978c2.8-8.983,3.925-14.34,4.045-14.922l0-.014A.582.582,0,0,1,38.159,46.144ZM1.271,22.978a20.951,20.951,0,0,0,2.892,4.01.574.574,0,0,1,.118.214l0,.01c.058.176.262.764.9,2.421a16.662,16.662,0,0,0,1.837,3.429.614.614,0,0,1,.1.212l.008.032c.23.935,1.052,4.349,1.99,9.034,2.111,10.547,4.59,17.41,7.367,20.4a6.791,6.791,0,0,0,5.139,2.293,8.381,8.381,0,0,0,3.184-.649c.366-.887,1.465-4.222.181-9.847-1.091-4.788-3.294-6.25-3.724-6.495a1.5,1.5,0,0,1-.3-.059c.545,1.531,1.086,3.3,1.61,5.244a.59.59,0,0,1-.415.718.629.629,0,0,1-.152.02.587.587,0,0,1-.567-.434,46.593,46.593,0,0,0-2.511-7.481.1.1,0,0,1-.011-.035.129.129,0,0,0-.005-.022,15.767,15.767,0,0,1-1.105-2.243c-1.338-3.28-3.317-7.837-4.377-10.262a.582.582,0,0,1,.108-.634A6.393,6.393,0,0,0,14.9,30.722a23.721,23.721,0,0,0,.619-3.1A19.323,19.323,0,0,1,16.3,23.97c.121-.285.288-.629.464-.986.3-.617,1.223-2.492.971-2.831a.24.24,0,0,0-.145-.052.306.306,0,0,0-.058.006c-.7.131-1.884,1.894-2.274,2.473-.944,1.4-1.686,2.453-1.961,2.841-.008.005-.011.007-.013.01a.565.565,0,0,1-.189.167A4.491,4.491,0,0,0,11.129,28.8a.582.582,0,0,1-.575.485.71.71,0,0,1-.1-.008.587.587,0,0,1-.475-.679,5.9,5.9,0,0,1,2.113-3.723l-.006-.01c-.024-.044-.049-.089-.063-.111a.524.524,0,0,1-.077-.044.588.588,0,0,1-.258-.47v-.031c-.025-.952-.157-5.794-.306-7.674-.052-.646-.223-.852-.266-.872a.369.369,0,0,0-.225.266c-.092.583-.2,5.365-.248,7.813a.574.574,0,0,1-.23,1.079,7.476,7.476,0,0,0-4.547,2.113A.586.586,0,0,1,5,26.15l.014-.014.033-.035a.574.574,0,0,1-.317-.165,19.641,19.641,0,0,0-3.455-2.958Zm57.938-4.317c0,.01-.015.038-.015.038a3.373,3.373,0,0,1-.16.485,4.44,4.44,0,0,1,1.548,1.5,3.825,3.825,0,0,1,.018,3.989,4.754,4.754,0,0,1-3.572,2.394l.2,8.451c2.382.441,7.417,2.04,14.35,7.764a30.935,30.935,0,0,1,3.071,2.939,25.862,25.862,0,0,0,.318-3.891A25.275,25.275,0,0,0,59.209,18.661Zm-41.618.27a1.43,1.43,0,0,1,.817.26c1.137.791.221,2.659-.588,4.307l-.078.16c-.137.281-.266.546-.361.771a19.716,19.716,0,0,0-.709,3.378,23.569,23.569,0,0,1-.666,3.293,7.272,7.272,0,0,1-1.34,2.26c1.027,2.349,2.944,6.767,4.239,9.945a11.914,11.914,0,0,0,1.45,2.705c.776-.555,2.392-1.525,4.021-2.492,0-.1-.01-.206-.015-.31-.015-.289-.03-.587-.03-.884A26.789,26.789,0,0,1,35.744,20.315c-.034-3.282.171-6.162.235-6.966l0-.022.013-.145L36,13.167h-.035l-.039,0c-1.718-.031-3-1.734-3.918-3.215H19.288A9.274,9.274,0,0,0,11.3,14.514c.413.062,1.127.4,1.251,1.933.157,1.967.289,6.92.3,7.478a.477.477,0,0,1,.039.044c.446-.638.918-1.325,1.4-2.041,1.114-1.651,2.057-2.789,3.032-2.972A1.48,1.48,0,0,1,17.591,18.931ZM3.4,17.813a35.58,35.58,0,0,0,2.751,7.208.4.4,0,0,1,.032.113l.006.029c.191-.134.4-.264.655-.41C5.644,21.585,4.164,18.6,3.4,17.813ZM7.764,15.17c-.048.025-.235.284-.2,1.012.057,1.113.622,6.32.793,7.889a8.364,8.364,0,0,1,1.082-.281c-.465-2.988-1.255-7.9-1.4-8.353a.5.5,0,0,0-.274-.268Z" transform="translate(156.259 0)" fill="#393f49"/>
        <path id="Fill_305" data-name="Fill 305" d="M39.346,0H.587a.585.585,0,1,0,0,1.171H39.346a.585.585,0,0,0,0-1.171" transform="translate(245.519 25.071)" fill="#393f49"/>
        <path id="Fill_307" data-name="Fill 307" d="M39.346,0H.587a.585.585,0,1,0,0,1.171H39.346a.585.585,0,0,0,0-1.171" transform="translate(245.519 37.04)" fill="#393f49"/>
        <path id="Fill_309" data-name="Fill 309" d="M25.871,0H.586a.585.585,0,1,0,0,1.171H25.871a.585.585,0,1,0,0-1.171" transform="translate(245.519 49.507)" fill="#393f49"/>
        <path id="Fill_311" data-name="Fill 311" d="M1.62,1.052A.955.955,0,0,0,.81,0,.955.955,0,0,0,0,1.052.956.956,0,0,0,.81,2.106a.956.956,0,0,0,.81-1.053" transform="translate(201.306 20.695)" fill="#393f49"/>
        <path id="Fill_313" data-name="Fill 313" d="M.759,0C.355-.01.016.453,0,1.035S.3,2.1.705,2.105s.744-.452.757-1.034S1.162.01.759,0" transform="translate(194.251 20.351)" fill="#393f49"/>
        <path id="Fill_315" data-name="Fill 315" d="M2.854,5.126l-1.5.069L1.594,4.3A16.1,16.1,0,0,0,2.039.581.635.635,0,0,0,1.448,0,.586.586,0,0,0,.867.591,15.185,15.185,0,0,1,.461,4L.019,5.667A.587.587,0,0,0,.586,6.4H.614L2.91,6.3a.586.586,0,0,0-.056-1.17" transform="translate(196.046 21.064)" fill="#393f49"/>
        <path id="Fill_317" data-name="Fill 317" d="M4.322.007A.584.584,0,0,0,3.655.5,3.327,3.327,0,0,1,.522,3.119.586.586,0,0,0,.584,4.287a.523.523,0,0,0,.065,0A4.507,4.507,0,0,0,4.814.668.584.584,0,0,0,4.322.007" transform="translate(200.106 25.897)" fill="#393f49"/>
        <path id="Fill_319" data-name="Fill 319" d="M.321.414A.586.586,0,1,0,.852,1.458a1.994,1.994,0,0,1,2.532.353A.586.586,0,0,0,4.3,1.073,3.179,3.179,0,0,0,.321.414" transform="translate(200.992 15.889)" fill="#393f49"/>
        <path id="Fill_321" data-name="Fill 321" d="M.358,3.17A2.16,2.16,0,0,0,3.2.366a.585.585,0,1,0-1.084.44A.992.992,0,0,1,1.571,2.1.976.976,0,0,1,.814,2.09.586.586,0,1,0,.358,3.17" transform="translate(211.562 21.541)" fill="#393f49"/>
        <path id="Fill_323" data-name="Fill 323" d="M12.865,2.973C2.39,5.326,1.2.666,1.159.462A.586.586,0,0,0,.012.7,4.749,4.749,0,0,0,2.168,3.46,9.969,9.969,0,0,0,7.64,4.8a25.322,25.322,0,0,0,5.482-.688.586.586,0,1,0-.256-1.143" transform="translate(196.723 38.53)" fill="#393f49"/>
      </g>
    </g>
  </g>
</svg>
