<svg xmlns="http://www.w3.org/2000/svg" xmlns:xlink="http://www.w3.org/1999/xlink" width="234" height="166" viewBox="0 0 234 166">
  <defs>
    <filter id="bg" x="-88.5" y="-71.5" width="475" height="407" filterUnits="userSpaceOnUse">
      <feOffset dx="32" dy="49" input="SourceAlpha"/>
      <feGaussianBlur stdDeviation="40" result="blur"/>
      <feFlood flood-color="#223f99" flood-opacity="0.2"/>
      <feComposite operator="in" in2="blur"/>
      <feComposite in="SourceGraphic"/>
    </filter>
    <clipPath id="clip-path">
      <g transform="matrix(1, 0, 0, 1, 0, 0)" filter="url(#bg)">
        <path id="bg-2" data-name="bg" d="M0,0H202a32,32,0,0,1,32,32V166a0,0,0,0,1,0,0H0a0,0,0,0,1,0,0V0A0,0,0,0,1,0,0Z" transform="translate(316)" fill="#223f99" stroke="#223f99" stroke-miterlimit="10" stroke-width="1"/>
      </g>
    </clipPath>
  </defs>
  <g id="bg-3" data-name="bg" transform="translate(-316)" clip-path="url(#clip-path)">
    <g id="Group_63757" data-name="Group 63757" transform="translate(550.15 962.374) rotate(180)" opacity="0.2">
      <path id="Path_95332" data-name="Path 95332" d="M.15,805.66c.448.025.9.056,1.346.091L.15,807.1V805.66Zm3.384.278L.15,809.323v2.226l5.367-5.368q-.986-.134-1.983-.242Zm3.917.534-7.3,7.3V816l9.191-9.19q-.94-.181-1.89-.336Zm3.734.716q.908.2,1.8.421L.15,820.45v-2.225l11.035-11.037Zm3.568.884q.867.239,1.725.5L.15,824.9v-2.226l14.6-14.6Zm3.415,1.036q.832.275,1.652.573L.15,829.351v-2.226l18.018-18.017Zm3.272,1.178q.8.31,1.587.639L.15,833.8v-2.225l21.29-21.291Zm3.141,1.31q.768.343,1.524.7L.15,838.253v-2.226L24.58,811.6Zm3.017,1.436q.736.372,1.462.762L.15,842.7v-2.226L27.6,813.031Zm2.9,1.553q.708.4,1.406.818L.15,847.154v-2.226L30.5,814.584Zm2.785,1.665L.15,849.38v2.226l34.481-34.481q-.669-.446-1.351-.875Zm2.676,1.774L.15,853.832v2.224l37.106-37.105q-.644-.471-1.3-.928Zm2.571,1.879L.15,858.282v2.226l39.625-39.625q-.619-.5-1.248-.98ZM41,821.886.15,862.734v2.224l42.042-42.043q-.591-.522-1.195-1.029Zm2.366,2.083L.15,867.183v2.226l44.36-44.36q-.568-.546-1.147-1.079Zm2.268,2.183L.15,871.634v2.226l46.576-46.578q-.541-.57-1.1-1.129Zm2.167,2.283L.15,876.086v2.224l48.694-48.695q-.518-.595-1.047-1.179Zm2.068,2.384L.15,880.536v2.226l50.711-50.713q-.489-.62-1-1.229Zm1.967,2.485L.15,884.986v2.226l52.627-52.627q-.465-.647-.944-1.28Zm1.863,2.586L.15,889.438v2.225l54.438-54.439q-.438-.672-.892-1.333Zm1.759,2.691L.15,893.888v2.226l56.143-56.145q-.412-.7-.839-1.386Zm1.65,2.8L.15,898.34v2.225l57.738-57.739q-.384-.727-.784-1.442Zm1.538,2.914L.15,902.79v2.226L59.369,845.8q-.355-.754-.726-1.5Zm1.42,3.03q.343.775.665,1.562L.15,909.466V907.24l59.913-59.914Zm1.3,3.155q.309.809.6,1.626L.15,913.917v-2.225l61.209-61.211Zm1.164,3.287q.276.844.53,1.695l-62.9,62.9v-2.226l62.373-62.374Zm1.023,3.428c.159.589.311,1.177.454,1.771L.15,922.818v-2.225l63.4-63.4Zm.865,3.585c.132.617.253,1.236.369,1.858L.15,927.27v-2.226l64.261-64.263Zm.692,3.76c.1.647.192,1.3.277,1.95L.15,931.72v-2.226L65.1,864.541Zm.5,3.948c.067.682.126,1.365.173,2.052L.15,936.17v-2.224l65.457-65.457Zm.283,4.167c.028.725.042,1.451.046,2.179L.15,940.622V938.4l65.74-65.741Zm.028,4.423c0,.123,0,.247-.007.37h0l0,0q-.028.969-.084,1.943L.325,944.9l-.175-.015v-2.034l65.768-65.768Zm-.272,4.724q-.1,1.01-.219,2.009c0,.144,0,.289,0,.436L4.439,945.235l-2.057-.169L65.646,881.8Zm-.166,4.616c.033.672.081,1.366.15,2.076L8.552,945.572,6.494,945.4,65.48,886.418Zm.39,4.062c.09.626.2,1.26.326,1.9L12.665,945.91l-2.055-.169L65.871,890.48Zm.74,3.709q.222.865.5,1.728l-50.331,50.33-2.057-.169,51.889-51.889Zm1.081,3.369q.306.788.668,1.557L20.892,946.585l-2.058-.169,48.858-48.857Zm1.419,3.031c.263.471.541.934.838,1.388L25,946.922l-2.056-.169,46.163-46.164Zm1.763,2.688q.48.621,1.014,1.212L29.118,947.26l-2.056-.168,43.813-43.814Zm2.115,2.336L31.175,947.428l2.057.169,40.954-40.954q-.626-.5-1.2-1.031Zm2.476,1.975L35.288,947.765l2.057.17,39.492-39.492c-.458-.263-.917-.546-1.371-.855Zm2.832,1.619L39.4,948.1l2.056.169,38.408-38.409c-.523-.193-1.046-.411-1.568-.657Zm3.25,1.2L43.515,948.442l2.056.169,37.791-37.792q-.9-.162-1.814-.411Zm3.778.672-37.7,37.7,2.057.169,37.78-37.782c-.7,0-1.415-.023-2.139-.086Zm4.492-.04L51.741,949.117l2.057.169,38.639-38.641c-.832.167-1.709.3-2.62.4Zm5.6-1.154L55.855,949.454l2.057.169,41.1-41.1a30.2,30.2,0,0,1-3.585,1.36Zm8.319-3.868L59.967,949.791l2.057.169,45.792-45.792q-2.078.845-4.075,1.851Zm7.6-3.147L64.08,950.128l2.057.17,48.368-48.368q-1.6.425-3.168.942Zm6.082-1.631L68.195,950.466l2.056.169,49.891-49.889q-1.371.214-2.721.494Zm5.288-.835q1.211-.133,2.437-.212l-50.781,50.78-2.056-.169,50.4-50.4Zm4.764-.315q1.113-.025,2.232-.007L78.478,951.311l-2.057-.17,51.051-51.051Zm4.382.07q.771.041,1.543.105c.177.015.351.033.528.05L82.59,951.649l-2.056-.17,51.32-51.319Zm4.077.373q.978.125,1.945.282L86.7,951.985l-2.056-.169,51.283-51.284Zm3.829.623c.614.123,1.225.252,1.832.395L90.817,952.324l-2.057-.169,51-51Zm3.611.841q.87.234,1.73.5L94.931,952.661l-2.057-.169,50.5-50.5Zm3.415,1.036q.827.279,1.643.582L99.043,953l-2.056-.169,49.8-49.8Zm3.239,1.211q.786.321,1.559.667l-48.426,48.426-2.057-.169,48.924-48.924Zm3.08,1.371q.748.361,1.485.74L107.27,953.673l-2.057-.169,47.891-47.89Zm2.93,1.521q.71.4,1.409.817l-46.06,46.06-2.055-.17,46.707-46.707Zm2.785,1.665c.452.289.9.582,1.343.882L115.5,954.349l-2.056-.17L158.819,908.8Zm2.654,1.8c.43.311.853.629,1.275.951L119.61,954.686l-2.057-.168L161.473,910.6Zm2.519,1.932-42.326,42.327,2.057.169L165.2,913.543q-.6-.516-1.212-1.014Zm2.395,2.057L125.78,955.193l2.056.169,39.7-39.7c-.378-.364-.762-.72-1.151-1.073Zm2.269,2.181L129.893,955.53l2.057.169,37.793-37.793q-.536-.577-1.087-1.139Zm2.142,2.308-36.792,36.792,2.057.169,35.761-35.761q-.5-.606-1.026-1.2Zm2.02,2.431-34.7,34.7,2.056.169,33.606-33.606q-.473-.637-.964-1.262Zm1.892,2.56-32.476,32.476,2.056.169L175.6,925.4q-.439-.672-.895-1.331Zm1.759,2.692L146.346,956.88l2.057.17,28.9-28.9q-.406-.7-.831-1.395Zm1.626,2.825-27.635,27.635,2.057.169,26.335-26.335c-.246-.493-.5-.984-.757-1.469Zm1.48,2.972-25,25,2.055.168,23.63-23.628c-.221-.518-.45-1.03-.685-1.54Zm1.331,3.119-22.219,22.219,2.057.169L181.506,937.3q-.289-.818-.6-1.624Zm1.163,3.289c.18.565.355,1.134.517,1.706L164.856,958.4l-2.057-.169,19.269-19.268Zm.984,3.465q.225.9.419,1.807l-14.5,14.5-2.055-.169,16.139-16.14Zm.787,3.664c.113.637.213,1.278.305,1.922l-11.063,11.06-2.056-.169,12.813-12.814Zm.553,3.9q.108,1.019.177,2.048l-7.373,7.373-2.057-.169,9.253-9.253Zm.285,4.165c.024.731.028,1.467.024,2.2l-3.392,3.391-2.057-.169,5.425-5.425Zm-.039,4.491-1.271,1.271,1.188.1Q184.607,959.33,184.638,958.646Z" transform="translate(0 0)" fill="#92adff" fill-rule="evenodd"/>
      <path id="Path_95333" data-name="Path 95333" d="M.15,853.33q1.854-.1,3.739-.105a66.865,66.865,0,0,1,66.772,63.358h0v.005q.09,1.738.091,3.5c0,.871-.022,1.739-.055,2.6.476,6.367,2.535,16.112,10.283,21.19,12.119,7.945,25.093-1.095,25.093-1.095v0a53.49,53.49,0,0,1,84.24,43.275H.15Z" transform="translate(0 -23.691)" fill="#1f3887" fill-rule="evenodd"/>
      <path id="Path_95334" data-name="Path 95334" d="M.15,973.362a79.888,79.888,0,0,1,33.567,6.23,79.8,79.8,0,0,1,41.494,39.919c.978,2.1,1.88,4.3,2.781,6.491,3.152,7.67,6.312,15.359,13.228,19.877H88.8c-6.1-4.782-9.1-12.074-12.091-19.348-.889-2.164-1.779-4.329-2.76-6.438a78.4,78.4,0,0,0-40.771-39.223A78.5,78.5,0,0,0,.15,974.752v-1.39Zm116.663,72.519a32.5,32.5,0,0,0,8.6-7.715l.038-.047a64.133,64.133,0,0,1,109.028,7.762h-1.569a62.71,62.71,0,0,0-106.369-6.9h0c-.013.019-.027.036-.041.053a33.99,33.99,0,0,1-7.179,6.845Z" transform="translate(0 -83.507)" fill="#92adff" fill-rule="evenodd"/>
    </g>
  </g>
</svg>
