<svg width="626" height="136" viewBox="0 0 626 136" fill="none" xmlns="http://www.w3.org/2000/svg">
<g clip-path="url(#clip0_9_2004)">
<path d="M65.8096 0H70.4296C81.7209 0.542305 92.7076 3.84175 102.43 9.61C105.038 11.3101 106.868 13.9739 107.518 17.019C108.168 20.064 107.586 23.2427 105.9 25.86C102.76 31.1 95.3696 33.14 90.0996 29.91C80.319 24.4035 68.8566 22.6811 57.8896 25.07C55.6752 25.7131 53.3246 25.7213 51.1058 25.0936C48.8869 24.466 46.889 23.2278 45.3396 21.52C40.4696 16.44 41.7096 7.31 47.7396 3.7C53.2196 0.64 59.7196 0.61 65.8096 0Z" fill="#FDB416"/>
<path d="M18.12 22.09C22.92 16.94 32.2 18.09 35.86 24.03C39.07 28.68 38.03 35.17 34.18 39.13C29.3094 44.7733 25.9435 51.5556 24.3946 58.8474C22.8457 66.1392 23.164 73.7041 25.32 80.84C27.2587 87.2867 30.6584 93.1993 35.2545 98.118C39.8507 103.037 45.5194 106.829 51.82 109.2C60.64 112.96 70.67 113.01 79.87 110.66L80.69 112.43L80.05 110.33C82.91 109.16 85.75 107.93 88.59 106.72C94.48 112.51 99.87 118.84 106.24 124.11C90.14 134.73 69.55 137.91 50.86 133.49C39.7233 130.506 29.4768 124.865 21 117.05C8 104.83 0.47 87.2 0 69.42V65.25C0.813139 49.1884 7.22399 33.9185 18.12 22.09V22.09Z" fill="#FDB416"/>
<path d="M114.42 32.63C121.87 29.73 130.58 36.03 130.82 43.86C131.078 46.8097 130.236 49.7507 128.457 52.1173C126.677 54.4838 124.086 56.1089 121.18 56.68C114.03 58.26 106.67 52.13 106.43 44.92C106.236 42.2797 106.911 39.6484 108.354 37.4287C109.798 35.2091 111.928 33.5235 114.42 32.63Z" fill="#FDB416"/>
<path d="M299.44 86.66C299.16 83.39 298.32 78.4 301.96 76.66C304.91 79.69 301 83.88 299.44 86.66Z" fill="#FDB416"/>
<path d="M560.42 78.46C562.73 77 565.58 77.6 568.14 77.81C568.14 78.58 568.14 80.14 568.19 80.92C566.29 81.01 564.29 80.66 562.5 81.41C562.021 82.7107 561.649 84.0485 561.39 85.41C563.5 85.5 565.63 85.54 567.76 85.62L567.85 88.68C565.85 88.75 563.77 88.77 561.75 88.8C561.75 93.45 561.84 98.1 561.63 102.75C560.51 102.65 559.4 102.53 558.29 102.41C558.22 97.93 558.29 93.41 558.29 88.97L554.6 88.22C555.38 86.8236 556.615 85.7366 558.1 85.14C558.4 82.83 558.2 79.9 560.42 78.46Z" fill="#FDB416"/>
<path d="M516.36 99C516.22 92.24 516.04 85.44 516.47 78.69L519.64 78.39C519.95 85.28 519.48 92.18 519.96 99.05L522.88 99.94C522.75 100.74 522.48 102.32 522.34 103.12C519.75 103.09 516.4 102.19 516.36 99Z" fill="#FDB416"/>
<path d="M232.2 83.06C232.92 78.86 240.08 78.87 240.81 83.06C242.18 88.86 241.81 95.06 243.81 100.69C245.27 94.91 245.18 88.87 246.47 83.07C247.25 78.63 254.9 78.94 255.19 83.52C255.97 89.9382 256.39 96.3949 256.45 102.86C255.331 102.731 254.224 102.51 253.14 102.2C252.39 96.75 252.4 91.2 251.85 85.74C251.96 84.37 250.85 83.41 250.19 82.37C248.44 88.2 248.56 94.37 247.19 100.27C246.64 103.72 240.49 103.39 240.12 99.96C238.88 94.59 238.9 88.96 237.5 83.64L236 82.93C234.75 89.41 235 96.08 234.24 102.62C233.07 102.62 231.91 102.62 230.74 102.62C231.05 96.07 231.33 89.52 232.2 83.06Z" fill="#FDB416"/>
<path d="M284.89 85C286.75 82.87 288.5 79.81 291.72 79.82C292.222 79.8443 292.714 79.9711 293.165 80.1924C293.617 80.4137 294.018 80.725 294.345 81.107C294.672 81.4891 294.917 81.9339 295.066 82.4142C295.214 82.8945 295.263 83.4001 295.21 83.9C295.32 90.11 295.26 96.34 295.21 102.55C294.06 102.55 292.9 102.63 291.75 102.64C291.21 95.97 291.81 89.27 291.34 82.64C289.9 84.13 288.52 85.64 287.17 87.24L284.89 85Z" fill="#FDB416"/>
<path d="M345.31 80.35C346.46 80.35 347.62 80.29 348.78 80.28C349.23 86.57 348.86 92.88 349.05 99.18C352.5 99.28 355.96 99.18 359.41 99.42C359.17 100.49 358.89 101.54 358.56 102.58C354.846 102.967 351.098 102.903 347.4 102.39C345.4 102.02 345.3 99.67 345.26 98.08C345.23 92.17 345.21 86.26 345.31 80.35Z" fill="#FDB416"/>
<path d="M496.35 83.09C496.35 80.69 498.91 80.03 500.86 80.23C504.6 80.39 509.52 79.29 512.01 82.92C513.76 86.36 513.68 91.78 509.96 93.92C506.77 95.36 503.14 94.58 499.76 94.76C499.76 97.4 499.76 100.05 499.65 102.69C498.52 102.69 497.42 102.59 496.31 102.52C496.27 96 496.11 89.56 496.35 83.09ZM499.9 83.66C499.75 86.28 499.73 88.9 499.73 91.52C502.47 91.46 505.28 91.75 507.96 91.01C510.01 89.53 509.83 86.38 508.56 84.45C506 82.83 502.75 83.66 499.9 83.66V83.66Z" fill="#FDB416"/>
<path d="M323 85.4C323.24 83.91 323.49 82.4 323.76 80.92L326.46 81.12C326.46 82.57 326.46 84.03 326.53 85.49C328.58 85.49 330.64 85.49 332.71 85.56C332.71 86.56 332.71 87.66 332.76 88.71C330.67 88.71 328.59 88.71 326.51 88.71C326.61 92.06 326.12 95.5 327.02 98.77C328.88 100.28 331.35 99.31 333.5 99.3C333.45 100.11 333.35 101.73 333.31 102.54C330.08 103.01 325.56 103.74 323.76 100.21C322.35 96.58 323.24 92.55 323.02 88.74L320.02 88.57C320.02 87.97 320.1 86.75 320.13 86.14L323 85.4Z" fill="#FDB416"/>
<path d="M544.26 81.19L547.09 80.93C547.17 82.44 547.24 83.93 547.31 85.48C549.23 85.48 551.17 85.48 553.1 85.61C553.26 86.35 553.57 87.83 553.73 88.61C551.57 88.77 549.41 88.81 547.25 88.84C547.55 92.25 546.48 95.99 547.95 99.17C549.95 100.17 552.23 99.42 554.35 99.44C554.61 104.97 545.61 103.95 544.13 99.86C543.35 96.28 543.88 92.56 543.76 88.92L540.24 88.47C540.63 86.66 542.04 85.78 543.67 85.19C543.86 83.82 544.05 82.5 544.26 81.19Z" fill="#FDB416"/>
<path d="M408.4 85.48C409.28 84.72 410.16 83.96 411.06 83.21L413.29 85.21L411.29 87.31C412.29 90.02 413.11 93.5 410.9 95.84C408.02 98.9 403.22 96.64 400.09 99.16C403.3 100.23 406.74 99.73 409.99 100.53C413.39 101.47 413.5 106.25 411.62 108.63C408.11 110.87 403.47 110.63 399.62 109.55C397.05 109.02 397.02 106.21 396.86 104.13L398 102.54C397.24 100.28 397.14 97.76 399.54 96.54C396.94 94.15 396.26 89.54 398.98 87.04C401.51 84.61 405.26 85.19 408.4 85.48ZM400.75 89.64C400.877 91.0104 401.114 92.3682 401.46 93.7C403.46 95.17 406.02 94.56 408.28 94.15C408.45 92.48 409.09 90.68 408.12 89.15C405.9 87.42 402.9 88.26 400.75 89.64ZM402.05 107C404.81 107.53 409.8 108.07 409.27 103.89C406.69 102.39 403.51 103.27 400.69 102.89C400.82 104.21 399.85 107 402.05 107Z" fill="#FDB416"/>
<path d="M461.74 85.47L465.09 83.05C466.19 84.59 465.91 86.24 465.09 87.81C465.89 90.55 466.36 93.97 464.04 96.13C460.99 98.53 456.7 97.13 453.33 98.82C456.92 100.68 461.28 99.2 464.8 101.16C467.38 103.54 466.54 108.95 462.8 109.73C459.226 110.677 455.443 110.46 452 109.11C449.51 107.38 450.2 104.25 451.56 102.04C451.006 101.131 450.825 100.043 451.055 99.0029C451.284 97.9633 451.906 97.0522 452.79 96.46C450.51 93.94 449.79 89.8 452.24 87.12C454.77 84.7 458.54 85.14 461.74 85.47ZM456.33 88.39C455.542 88.6988 454.907 89.3045 454.561 90.0768C454.215 90.8492 454.186 91.7265 454.48 92.52C455.16 95.25 458.87 94.95 460.98 94.19C462.73 92.89 461.91 90.58 461.76 88.8C460 88.49 458.14 88 456.33 88.39ZM454.54 103.32C453.54 103.94 453.68 106.87 455.07 106.89C457.81 107.47 463.35 108.13 462.57 103.75C460.12 102.85 456.91 102.41 454.54 103.32V103.32Z" fill="#FDB416"/>
<path d="M259.09 85.38C260.17 85.4502 261.245 85.5804 262.31 85.77C264.05 90 264.46 94.68 266 99C266.717 99.5478 267.468 100.049 268.25 100.5C270.14 95.66 270.76 90.45 272.25 85.5L275.55 85.77C274.55 91.16 273.07 96.43 271.88 101.77C271.11 105.12 269.62 109.08 265.88 110C264.01 111.07 262.76 109.55 261.95 108C264.425 107.215 266.609 105.707 268.22 103.67C266.38 102.77 263.34 102.88 262.8 100.4C261.264 95.4721 260.025 90.4564 259.09 85.38V85.38Z" fill="#FDB416"/>
<path d="M306.37 86.5C309.05 84.6 312.62 85.03 315.66 85.62C317.46 85.69 316.94 87.89 317.45 89.06C314.5 88.67 311.45 88.14 308.53 88.87C308.76 92.24 312.94 92.21 315.18 93.81C318.51 95.01 319.12 100.37 315.93 102.09C312.5 103.74 308.51 102.97 304.93 102.09V99C308.12 99.38 311.47 100.41 314.6 99.17C314.52 95.78 310.1 95.86 307.93 94.17C304.93 93 304.27 88.76 306.37 86.5Z" fill="#FDB416"/>
<path d="M362.55 88.39C363.07 87.25 363.01 85.03 364.87 85.29C368.28 85.08 372.92 84.61 374.87 88.1C375.87 91.62 375.58 95.4 375.23 99C374.33 103.5 368.56 103.39 365.05 102.71C360.94 102.22 359.49 96.26 362.71 93.83C365.53 91.92 369.14 92.67 372.35 92.42C371.73 91 371.87 88.65 369.94 88.36C367.478 88.2167 365.01 88.2267 362.55 88.39V88.39ZM364.69 96.93C363.82 100.13 367.86 100.39 370.02 99.84C372.18 99.29 371.8 96.84 372.25 95.24C369.82 95.68 365.94 94.08 364.69 96.93Z" fill="#FDB416"/>
<path d="M379.48 88.53C381.92 84.04 389.24 84.08 392.65 87.33C395.03 91.96 393.75 97.51 393.82 102.52C392.71 102.52 391.59 102.59 390.49 102.6C390.02 98.42 390.49 94.2 390.08 90.02C388.57 87.78 384.41 87.83 382.75 89.85C382.11 94.13 382.82 98.52 382.24 102.85C381.139 102.737 380.047 102.554 378.97 102.3C378.69 97.72 378.28 93 379.48 88.53Z" fill="#FDB416"/>
<path d="M434.78 88.37C434.7 84.24 439.27 85.19 442.02 85.24C445.02 85.24 447.92 87.55 447.7 90.73C447.55 94.19 448.63 98.36 446.36 101.3C443.69 103.59 439.64 103.3 436.46 102.45C432.68 101.33 432.04 95.33 435.52 93.45C438.33 92 441.61 92.64 444.64 92.36C443.97 91.1 444.25 88.99 442.64 88.5C440 87.92 437.37 88.43 434.78 88.37ZM436.89 97.06C436.45 101.06 441.38 100.06 443.82 99.35C444.01 97.97 444.2 96.59 444.37 95.21C441.93 95.63 438 94.11 436.89 97.06V97.06Z" fill="#FDB416"/>
<path d="M472.55 85.71C475.78 84.79 480.15 84.65 482.35 87.71C484.05 89.84 483.35 92.76 483.47 95.27C479.54 95.65 475.59 95.45 471.66 95.64C472.117 96.7834 472.655 97.8928 473.27 98.96C476.34 100.43 479.75 99.35 482.97 99.09V102.18C479.19 103.18 474.85 103.74 471.31 101.73C468.69 100.16 468.59 96.73 468.52 93.99C468.43 90.83 469.19 86.91 472.55 85.71ZM471.63 92.38C474.661 92.535 477.698 92.535 480.73 92.38C479.99 90.63 479.46 88.04 477 88.24C474.12 87.49 472.16 89.79 471.63 92.38Z" fill="#FDB416"/>
<path d="M525.54 88.36C525.59 84.13 530.22 85.21 533.06 85.28C535.28 85.52 537.98 86.59 538.37 89.09C538.678 92.6691 538.632 96.2701 538.23 99.84C537.18 102.74 533.57 103.02 530.96 103.04C528.35 103.06 525.29 102.34 524.47 99.65C523.86 97.53 524.19 94.65 526.36 93.49C529.13 92.11 532.36 92.6 535.3 92.43C534.78 91.12 535.3 88.87 533.51 88.56C530.92 87.87 528.18 88.46 525.54 88.36ZM528.09 96.15C526.16 100.29 532.44 101.15 534.73 99.01C534.92 97.75 535.07 96.49 535.18 95.22C532.84 95.46 530.11 94.63 528.09 96.15V96.15Z" fill="#FDB416"/>
<path d="M574.45 85.57C577.59 84.87 581.45 84.76 583.97 87.09C586.45 90.09 585.84 94.32 585.54 97.9C584.4 103.36 577.25 104.11 573 102C569.29 100.08 570 95.35 570 91.87C569.91 90.4695 570.302 89.0804 571.112 87.934C571.922 86.7877 573.1 85.9534 574.45 85.57V85.57ZM574.34 89.35C573.707 90.8325 573.38 92.4279 573.38 94.04C573.38 95.6521 573.707 97.2475 574.34 98.73C575.419 99.4256 576.678 99.7889 577.962 99.7747C579.245 99.7605 580.497 99.3694 581.56 98.65C582.679 95.6888 582.679 92.4212 581.56 89.46C580.485 88.7744 579.24 88.4011 577.965 88.3817C576.69 88.3623 575.435 88.6975 574.34 89.35V89.35Z" fill="#FDB416"/>
<path d="M589.63 88.48C590.63 85.16 594.63 85.16 597.45 85.06C597.59 86.16 597.72 87.25 597.86 88.35C596.333 88.47 594.813 88.6 593.3 88.74C592.3 93.27 592.9 97.91 592.7 102.49C591.58 102.57 590.46 102.64 589.36 102.69C589.35 98 588.82 93.15 589.63 88.48Z" fill="#FDB416"/>
<path d="M600.78 89.06C602.44 84.16 609.1 84.3 612.66 86.98C616.16 84.22 623.01 84.21 624.49 89.16C624.89 93.7271 624.91 98.3196 624.55 102.89C623.483 102.75 622.433 102.56 621.4 102.32C620.79 97.96 621.96 93.42 620.64 89.17C618.82 88.12 615.13 87.82 614.56 90.41C613.9 94.41 614.4 98.54 614.22 102.59C613.15 102.59 612.09 102.59 611.03 102.59C610.55 98.71 610.89 94.8 610.68 90.91C610.74 87.49 603.99 87.51 604.1 90.91C603.84 94.71 604.05 98.53 604.01 102.34C602.86 102.48 601.72 102.61 600.59 102.72C600.58 98.18 600.16 93.58 600.78 89.06Z" fill="#FDB416"/>
<path d="M415.58 85.51L418.93 85.67C419.29 89.96 418.41 94.41 419.5 98.6C421.55 100.38 426.5 100.48 426.81 97.07C427.22 93.27 426.93 89.44 426.99 85.63L430.4 85.57C430.618 89.7115 430.585 93.8625 430.3 98C429.3 105.42 415.23 104.82 415.53 97C415.42 93.16 415.49 89.33 415.58 85.51Z" fill="#FDB416"/>
<path d="M166.51 39.53C169.6 36.03 174.21 33.65 178.98 34.38C182.569 34.7576 185.882 36.4829 188.248 39.2076C190.615 41.9323 191.859 45.4534 191.73 49.06C191.73 54.71 187.55 59 183.73 62.62C164.85 81.44 145.89 100.18 127.16 119.16C124.3 121.97 121.16 124.96 117.08 125.71C113.4 126.45 109.66 125.53 106.27 124.11C99.9004 118.84 94.5104 112.51 88.6204 106.72C83.7604 101.8 78.8404 97 73.9404 92.14C70.7504 89.2 67.7304 85.55 67.6104 81C66.8004 73.3 73.3004 65.9 81.0004 65.55C85.9404 65.15 90.3804 67.96 93.6804 71.37C100.52 78.2033 107.317 85.08 114.07 92C131.45 74.41 149.15 57.13 166.51 39.53Z" fill="#0F893B"/>
<path d="M287.549 26.7356H290.869C290.869 35.0656 291.019 43.4056 290.869 51.7356C290.869 54.9156 288.989 58.5056 285.559 58.9356C280.389 59.6056 275.149 59.0756 269.949 59.2656C266.949 59.2656 262.949 59.2056 261.469 56.0356C259.549 51.3656 260.419 46.1656 260.219 41.2556C257.169 41.8156 253.059 42.1756 251.969 45.6956C250.969 50.0556 251.589 54.6156 251.419 59.0656C246.019 58.8756 239.699 60.1856 235.199 56.4156C231.199 53.0856 231.199 47.4156 231.119 42.7056L234.659 42.6256C234.929 46.2856 234.029 50.7756 237.099 53.5256C239.949 56.3856 244.319 55.5756 247.969 55.7756C248.179 51.1356 247.099 45.7756 250.219 41.8856C253.489 37.7956 259.219 38.5456 263.899 38.1256C264.089 43.2456 263.589 48.4056 264.159 53.5056C264.719 56.2356 267.989 55.5056 270.049 55.7456C275.249 55.6256 280.479 56.0356 285.659 55.4456C287.559 54.1756 287.309 51.6456 287.529 49.6456C287.599 42.0356 287.429 34.3856 287.549 26.7356Z" fill="black"/>
<path d="M324.249 26.9856C326.249 25.7856 328.249 27.1256 330.039 27.9856C328.309 28.2556 326.579 28.4956 324.849 28.6956C324.919 29.3956 325.079 30.7956 325.159 31.4956L329.699 31.8756C329.699 32.3156 329.599 33.1956 329.569 33.6356C326.949 33.6356 324.329 33.6356 321.709 33.5356L322.639 31.1456C323.099 29.7356 323.299 28.1756 324.249 26.9856Z" fill="black"/>
<path d="M336.95 26.6756H340.36C340.36 34.3156 340.48 41.9656 340.36 49.6056C340.36 52.9756 339.42 57.0756 335.9 58.4456C331.04 59.6156 325.97 58.8456 321.02 58.9756C321.02 58.1456 321.02 56.4856 321.07 55.6556C325.58 55.5356 330.13 55.9856 334.62 55.3756C336.56 54.1856 336.99 51.7456 336.97 49.6456C337 42.0656 336.95 34.3956 336.95 26.6756Z" fill="black"/>
<path d="M347.239 26.8556C348.379 26.8556 349.529 26.8556 350.679 26.8556C350.759 37.6356 350.679 48.4256 350.679 59.2056H347.199C347.189 48.4256 347.159 37.6756 347.239 26.8556Z" fill="black"/>
<path d="M482.549 26.7356H485.869C485.869 34.7356 485.869 42.7089 485.869 50.6556C485.919 53.0556 485.509 55.6556 483.739 57.4256C481.969 59.1956 479.319 59.1356 477.019 59.1456C467.339 58.9856 457.669 59.1456 448.019 59.1456C445.859 59.3056 444.019 58.1456 442.199 57.1456C440.061 58.5726 437.539 59.3122 434.969 59.2656C424.969 59.2656 414.879 59.2656 404.829 59.2656C401.929 59.3356 398.369 58.6256 397.259 55.5356C395.859 50.9356 396.709 46.0456 396.489 41.3156C393.549 41.8256 389.759 41.9956 388.259 45.0656C386.699 49.5556 387.589 54.4256 387.369 59.0656C381.969 58.8956 375.669 60.1656 371.169 56.3956C367.169 53.0656 367.369 47.3956 367.039 42.7256L370.589 42.6256C370.929 46.2656 370.149 50.6256 373.049 53.4856C375.949 56.3456 380.319 55.6756 383.949 55.8056C384.119 50.9856 383.019 45.2756 386.639 41.3956C390.019 37.8456 395.369 38.5856 399.809 38.1556C399.879 43.2256 399.809 48.3056 399.889 53.3856L401.689 55.6756C412.759 55.7856 423.829 55.6756 434.899 55.7356C436.739 55.7356 439.659 55.9856 439.999 53.5156C440.489 48.4556 440.069 43.3556 440.199 38.2756H443.869C443.869 43.3556 443.869 48.4456 443.919 53.5256L445.729 55.7256C450.169 55.7256 454.619 55.7256 459.079 55.7256C456.829 52.2956 454.259 49.0556 452.349 45.4156C451.739 43.1056 452.049 40.6556 451.929 38.2856C458.519 38.3456 465.199 37.7256 471.719 38.9756C474.869 39.6156 476.519 43.3356 475.449 46.2456C474.099 49.9956 471.059 52.7656 468.519 55.7156C472.519 55.6556 476.589 56.0256 480.579 55.4456C482.429 54.6556 482.319 52.4456 482.489 50.7456C482.609 42.7456 482.419 34.7456 482.549 26.7356ZM455.489 41.7356C456.489 47.2956 460.339 51.7356 463.779 56.0356C467.589 52.5956 471.779 48.6656 472.449 43.2956C467.179 40.6756 461.139 41.8756 455.489 41.7656V41.7356Z" fill="black"/>
<path d="M436.949 32.7356L438.949 31.5256L440.949 32.9656C440.899 33.6956 440.809 35.1456 440.759 35.8756C439.479 35.8756 438.189 35.8756 436.919 35.8756C436.949 35.0956 436.949 33.5256 436.949 32.7356Z" fill="black"/>
<path d="M442.199 33.7856C443.193 33.095 444.225 32.4607 445.289 31.8856C446.467 32.4141 447.612 33.0118 448.719 33.6756C447.809 34.5823 446.822 35.4087 445.769 36.1456C444.269 36.0456 443.359 34.5156 442.199 33.7856Z" fill="black"/>
<path d="M462.309 32.3056C463.819 30.3056 465.139 32.6756 466.239 33.7756C465.709 35.3356 463.469 37.4456 462.139 35.4556C460.849 34.6156 461.269 33.1156 462.309 32.3056Z" fill="black"/>
<path d="M508.829 32.5456C510.249 30.6956 511.909 33.0456 513.319 33.7356C512.209 34.7356 511.079 35.8256 509.949 36.8556C509.349 35.6156 507.099 33.6756 508.829 32.5456Z" fill="black"/>
<path d="M514.949 32.7356L516.949 31.5256L518.949 33.0056C518.949 33.5956 518.839 34.7756 518.799 35.3656L516.919 36.3656L514.919 35.3656C514.949 34.6756 514.949 33.3956 514.949 32.7356Z" fill="black"/>
<path d="M595.37 31.9956C596.19 30.6756 597.74 32.2956 598.19 33.1656C599.52 34.7756 596.4 37.4456 594.98 35.7156C593.27 34.5756 593.73 32.8856 595.37 31.9956Z" fill="black"/>
<path d="M323.949 34.9256H326.949V53.6756H323.949V34.9256Z" fill="black"/>
<path d="M299.069 41.6756C302.759 37.2256 310.419 37.0156 314.269 41.3656C317.699 44.8556 317.339 50.1756 317.439 54.6956C317.539 59.2156 316.859 64.7556 312.379 67.0956C307.719 69.9556 301.929 67.9856 298.089 64.6556C298.779 63.8356 299.479 63.0156 300.179 62.2056C302.749 63.9056 305.729 65.6556 308.959 64.7756C311.859 64.3656 313.089 61.4256 314.429 59.2056C309.579 58.9256 303.949 60.0856 299.949 56.6056C298.899 55.691 298.041 54.576 297.427 53.3259C296.813 52.0759 296.455 50.7158 296.373 49.3255C296.291 47.9351 296.487 46.5424 296.95 45.2288C297.413 43.9152 298.133 42.7073 299.069 41.6756V41.6756ZM302.949 42.7356C299.049 45.0656 298.649 51.4056 302.289 54.1556C305.669 56.6456 310.119 55.5056 314.009 55.7556C313.789 51.9456 314.819 47.6056 312.389 44.3056C311.309 42.8945 309.732 41.9471 307.979 41.6555C306.226 41.364 304.428 41.7501 302.949 42.7356V42.7356Z" fill="black"/>
<path d="M507.35 40.1156C512.02 37.4056 517.73 38.4256 522.89 38.2756C522.98 43.0956 522.63 47.9356 523.07 52.7456C523.124 53.196 523.269 53.6307 523.496 54.0238C523.722 54.417 524.026 54.7605 524.388 55.0339C524.75 55.3073 525.163 55.505 525.603 55.6153C526.043 55.7255 526.501 55.746 526.95 55.6756C538.63 55.7956 550.32 55.6756 562.01 55.6756C562.01 49.8656 562.01 44.0456 562.01 38.2356H565.4C565.4 40.4756 565.4 42.7156 565.31 44.9656C568.44 41.7556 572.15 38.0856 577.03 38.5156C579.096 38.4803 581.111 39.1656 582.728 40.4538C584.345 41.7421 585.462 43.553 585.89 45.5756C586.51 48.6756 586.57 51.8456 586.95 54.9756C588.95 55.3956 591.049 55.6756 593.119 55.9756C595.609 50.3956 594.12 44.1556 594.52 38.2656H597.89C598.35 44.0456 596.58 50.3556 599.46 55.6956C602.126 55.6956 604.793 55.7156 607.46 55.7556C604.52 52.2356 603.46 46.9756 606.26 43.0556C609.78 37.1856 619.26 36.8656 623.26 42.4656C627.75 47.8656 624.72 57.1356 617.84 58.7156C612.94 59.5256 607.92 58.9556 602.98 59.1556C600.56 59.3956 598.37 58.3356 596.38 57.1556C594.718 58.5209 592.623 59.2463 590.473 59.2004C588.323 59.1545 586.261 58.3405 584.66 56.9056C582.66 58.1156 580.46 59.3556 578 59.1456C561 59.0856 544 59.4556 527 59.2456C524.36 59.4356 522.36 57.6456 520.7 55.8356C517.11 59.5056 510.93 60.4556 506.87 56.9956C501.26 53.0356 501.64 43.6756 507.35 40.1156ZM511.24 42.0356C509.916 42.4531 508.732 43.2243 507.816 44.266C506.899 45.3076 506.285 46.58 506.04 47.9456C505.4 53.0456 511.58 57.8156 516.22 55.0156C520.86 52.2156 519.22 46.1056 519.53 41.6356C516.76 41.6756 513.95 41.4056 511.24 42.0356V42.0356ZM565.669 49.4956C565.358 51.5568 565.231 53.6418 565.29 55.7256C569.89 55.7256 574.49 55.8956 579.09 55.6656C580.9 55.8656 582.35 54.3356 582.83 52.7156C583.32 49.6056 583.34 45.9756 581.01 43.5456C580.257 42.7721 579.312 42.2126 578.271 41.9245C577.231 41.6363 576.133 41.6298 575.09 41.9056C571.137 43.2163 567.791 45.912 565.669 49.4956V49.4956ZM613.119 41.9356C609.629 43.0356 606.97 46.8856 608.06 50.5656C609.01 53.4456 611.81 55.9056 614.96 55.7856C618.37 55.9156 621.34 53.0156 621.96 49.7856C622.8 45.1256 617.659 40.4456 613.119 41.9356V41.9356Z" fill="black"/>
<path d="M377.459 62.6156C379.219 62.3756 380.929 63.9556 380.119 65.6856C379.629 67.5956 377.569 66.8256 376.349 66.2856C376.154 65.9784 376.027 65.6327 375.978 65.2721C375.928 64.9115 375.957 64.5445 376.062 64.1961C376.168 63.8477 376.347 63.5262 376.588 63.2534C376.829 62.9807 377.126 62.7631 377.459 62.6156V62.6156Z" fill="black"/>
<path d="M382.77 63.0156C384.16 63.0156 387.28 62.3856 386.93 64.6656C387.48 66.9156 384.68 66.4956 383.33 67.1156L382.77 63.0156Z" fill="black"/>
</g>
<defs>
<clipPath id="clip0_9_2004">
<rect width="625.38" height="135.42" fill="white"/>
</clipPath>
</defs>
</svg>
