<svg xmlns="http://www.w3.org/2000/svg" width="13.35" height="19.419" viewBox="0 0 13.35 19.419">
  <path id="icon" d="M786.675,5699.887a1.768,1.768,0,1,1-1.669,1.765A1.724,1.724,0,0,1,786.675,5699.887ZM791.681,5684a1.768,1.768,0,1,1-1.669,1.766A1.725,1.725,0,0,1,791.681,5684Zm0,5.3a1.768,1.768,0,1,1-1.669,1.766A1.724,1.724,0,0,1,791.681,5689.294Zm0,5.3a1.769,1.769,0,1,1-1.669,1.766A1.724,1.724,0,0,1,791.681,5694.59Zm-10.013-7.061a1.768,1.768,0,1,1,1.669-1.765A1.724,1.724,0,0,1,781.669,5687.529Zm5.006,7.061a1.769,1.769,0,1,1-1.669,1.766A1.724,1.724,0,0,1,786.675,5694.59Zm-5.006,0a1.769,1.769,0,1,1-1.669,1.766A1.724,1.724,0,0,1,781.669,5694.59Zm0-5.3a1.768,1.768,0,1,1-1.669,1.766A1.724,1.724,0,0,1,781.669,5689.294Zm5.006,0a1.768,1.768,0,1,1-1.669,1.766A1.724,1.724,0,0,1,786.675,5689.294Zm0-5.3a1.768,1.768,0,1,1-1.669,1.766A1.725,1.725,0,0,1,786.675,5684Z" transform="translate(-780 -5683.998)" fill="#0f893b"/>
</svg>
