<svg id="vuesax_twotone_ocean-protocol-_ocean_" data-name="vuesax/twotone/ocean-protocol-(ocean)" xmlns="http://www.w3.org/2000/svg" width="24" height="24" viewBox="0 0 24 24">
  <g id="ocean-protocol-_ocean_" data-name="ocean-protocol-(ocean)">
    <g id="Group">
      <path id="BG_157" data-name="BG 157" d="M0,0H24V24H0Z" fill="none" opacity="0.58"/>
    </g>
    <path id="Vector" d="M0,0V.01" transform="translate(12 3.2)" fill="none" stroke="#0f893b" stroke-linecap="round" stroke-linejoin="round" stroke-width="3"/>
    <path id="Vector-2" data-name="Vector" d="M0,0V.01" transform="translate(12 7.7)" fill="none" stroke="#0f893b" stroke-linecap="round" stroke-linejoin="round" stroke-width="3"/>
    <path id="Vector-3" data-name="Vector" d="M0,0V.01" transform="translate(12 11.7)" fill="none" stroke="#0f893b" stroke-linecap="round" stroke-linejoin="round" stroke-width="3"/>
    <path id="Vector-4" data-name="Vector" d="M0,0V.01" transform="translate(12 15.7)" fill="none" stroke="#0f893b" stroke-linecap="round" stroke-linejoin="round" stroke-width="2" opacity="0.4"/>
    <path id="Vector-5" data-name="Vector" d="M0,0V.01" transform="translate(12 19.2)" fill="none" stroke="#0f893b" stroke-linecap="round" stroke-linejoin="round" stroke-width="1.5" opacity="0.4"/>
    <path id="Vector-6" data-name="Vector" d="M0,0V.01" transform="translate(12 22.2)" fill="none" stroke="#0f893b" stroke-linecap="round" stroke-linejoin="round" stroke-width="1" opacity="0.4"/>
    <path id="Vector-7" data-name="Vector" d="M0,0V.01" transform="translate(3.5 7.7)" fill="none" stroke="#0f893b" stroke-linecap="round" stroke-linejoin="round" stroke-width="3"/>
    <path id="Vector-8" data-name="Vector" d="M0,0V.01" transform="translate(20.5 7.7)" fill="none" stroke="#0f893b" stroke-linecap="round" stroke-linejoin="round" stroke-width="3"/>
    <path id="Vector-9" data-name="Vector" d="M0,0V.01" transform="translate(20.5 11.7)" fill="none" stroke="#0f893b" stroke-linecap="round" stroke-linejoin="round" stroke-width="2" opacity="0.4"/>
    <path id="Vector-10" data-name="Vector" d="M0,0V.01" transform="translate(3.5 11.7)" fill="none" stroke="#0f893b" stroke-linecap="round" stroke-linejoin="round" stroke-width="2" opacity="0.4"/>
    <path id="Vector-11" data-name="Vector" d="M0,0V.01" transform="translate(20.5 14.7)" fill="none" stroke="#0f893b" stroke-linecap="round" stroke-linejoin="round" stroke-width="1.5" opacity="0.4"/>
    <path id="Vector-12" data-name="Vector" d="M0,0V.01" transform="translate(20.5 17.7)" fill="none" stroke="#0f893b" stroke-linecap="round" stroke-linejoin="round" stroke-width="1" opacity="0.4"/>
    <path id="Vector-13" data-name="Vector" d="M0,0V.01" transform="translate(3.5 14.7)" fill="none" stroke="#0f893b" stroke-linecap="round" stroke-linejoin="round" stroke-width="1.5" opacity="0.4"/>
    <path id="Vector-14" data-name="Vector" d="M0,0V.01" transform="translate(3.5 17.7)" fill="none" stroke="#0f893b" stroke-linecap="round" stroke-linejoin="round" stroke-width="1" opacity="0.4"/>
    <path id="Vector-15" data-name="Vector" d="M0,0V.01" transform="translate(7.8 9.7)" fill="none" stroke="#0f893b" stroke-linecap="round" stroke-linejoin="round" stroke-width="3"/>
    <path id="Vector-16" data-name="Vector" d="M0,0V.01" transform="translate(7.75 5.5)" fill="none" stroke="#0f893b" stroke-linecap="round" stroke-linejoin="round" stroke-width="3"/>
    <path id="Vector-17" data-name="Vector" d="M0,0V.01" transform="translate(16.2 9.7)" fill="none" stroke="#0f893b" stroke-linecap="round" stroke-linejoin="round" stroke-width="3"/>
    <path id="Vector-18" data-name="Vector" d="M0,0V.01" transform="translate(16.25 5.5)" fill="none" stroke="#0f893b" stroke-linecap="round" stroke-linejoin="round" stroke-width="3"/>
    <path id="Vector-19" data-name="Vector" d="M0,0V.01" transform="translate(7.8 13.7)" fill="none" stroke="#0f893b" stroke-linecap="round" stroke-linejoin="round" stroke-width="2" opacity="0.4"/>
    <path id="Vector-20" data-name="Vector" d="M0,0V.01" transform="translate(7.8 16.7)" fill="none" stroke="#0f893b" stroke-linecap="round" stroke-linejoin="round" stroke-width="1.5" opacity="0.4"/>
    <path id="Vector-21" data-name="Vector" d="M0,0V.01" transform="translate(7.8 19.7)" fill="none" stroke="#0f893b" stroke-linecap="round" stroke-linejoin="round" stroke-width="1" opacity="0.4"/>
    <path id="Vector-22" data-name="Vector" d="M0,0V.01" transform="translate(16.2 13.7)" fill="none" stroke="#0f893b" stroke-linecap="round" stroke-linejoin="round" stroke-width="2" opacity="0.4"/>
    <path id="Vector-23" data-name="Vector" d="M0,0V.01" transform="translate(16.2 16.7)" fill="none" stroke="#0f893b" stroke-linecap="round" stroke-linejoin="round" stroke-width="1.5" opacity="0.4"/>
    <path id="Vector-24" data-name="Vector" d="M0,0V.01" transform="translate(16.2 19.7)" fill="none" stroke="#0f893b" stroke-linecap="round" stroke-linejoin="round" stroke-width="1" opacity="0.4"/>
    <path id="Vector-25" data-name="Vector" d="M0,0H24V24H0Z" fill="none" opacity="0"/>
  </g>
</svg>
