<svg id="call-calling" xmlns="http://www.w3.org/2000/svg" width="28.114" height="28.114" viewBox="0 0 28.114 28.114">
  <path id="Vector" d="M14.737,4.7a4.009,4.009,0,0,0-.469.82,1.852,1.852,0,0,0-.164.715,1.59,1.59,0,0,0,.246.832,3.984,3.984,0,0,0,.656.832l.89.925a.627.627,0,0,1,.187.469,1.064,1.064,0,0,1-.035.269c-.035.094-.07.164-.094.234a9.721,9.721,0,0,1-1.089,1.5c-.527.609-1.089,1.23-1.7,1.851-.633.621-1.242,1.195-1.863,1.722a8.991,8.991,0,0,1-1.511,1.078c-.059.023-.129.059-.211.094a.809.809,0,0,1-.293.047.644.644,0,0,1-.48-.2l-.89-.879a3.594,3.594,0,0,0-.843-.656,1.56,1.56,0,0,0-.832-.246,1.869,1.869,0,0,0-.715.152,4.531,4.531,0,0,0-.82.457L.832,17.466a1.777,1.777,0,0,0-.644.75A2.4,2.4,0,0,0,0,19.13a2.982,2.982,0,0,0,.293,1.277,4.833,4.833,0,0,0,.8,1.195,5.281,5.281,0,0,0,1.921,1.382,5.883,5.883,0,0,0,2.284.445,9.762,9.762,0,0,0,3.819-.855,20.575,20.575,0,0,0,4.03-2.319,33.679,33.679,0,0,0,3.842-3.28,33.285,33.285,0,0,0,3.268-3.831,20.884,20.884,0,0,0,2.3-3.995,9.867,9.867,0,0,0,.843-3.831,6.06,6.06,0,0,0-.422-2.261A5.392,5.392,0,0,0,21.625,1.1,3.432,3.432,0,0,0,19.188,0a2.2,2.2,0,0,0-.949.211,1.91,1.91,0,0,0-.785.656" transform="translate(2.378 2.343)" fill="none" stroke="#0f893b" stroke-linecap="round" stroke-linejoin="round" stroke-width="1.8"/>
  <path id="Vector-2" data-name="Vector" d="M0,4.1A4.645,4.645,0,0,1,1.371,1.441,4,4,0,0,1,4.1,0" transform="translate(6.443 6.443)" fill="none" stroke="#0f893b" stroke-linecap="round" stroke-linejoin="round" stroke-width="1.8"/>
  <path id="Vector-3" data-name="Vector" d="M0,.34A8.232,8.232,0,0,1,2.355,0" transform="translate(8.188 2.343)" fill="none" stroke="#0f893b" stroke-linecap="round" stroke-linejoin="round" stroke-width="1.8"/>
  <path id="Vector-4" data-name="Vector" d="M0,6.712A8.184,8.184,0,0,1,3.491,0" transform="translate(2.343 3.831)" fill="none" stroke="#0f893b" stroke-linecap="round" stroke-linejoin="round" stroke-width="1.8"/>
  <path id="Vector-5" data-name="Vector" d="M28.114,0H0V28.114H28.114Z" fill="none" opacity="0"/>
</svg>
