<svg xmlns="http://www.w3.org/2000/svg" width="195.514" height="180.782" viewBox="0 0 195.514 180.782">
  <g id="reciept" transform="translate(-219.409 -217.855)">
    <g id="Group_62893" data-name="Group 62893" transform="translate(381.403 217.855)">
      <path id="Path_94214" data-name="Path 94214" d="M922.321,235.5v-.8c0-9.3-4.042-16.84-9.027-16.84s-9.026,7.54-9.026,16.84v.8Z" transform="translate(-904.268 -217.855)" fill="#c3cbdf"/>
    </g>
    <g id="Group_62894" data-name="Group 62894" transform="translate(291.621 217.855)">
      <path id="Path_94215" data-name="Path 94215" d="M542.73,235.5c.007-.268.021-.531.021-.8,0-9.3-4.041-16.84-9.026-16.84s-9.026,7.54-9.026,16.84v.8Z" transform="translate(-524.699 -217.855)" fill="#0f893b"/>
    </g>
    <g id="Group_62897" data-name="Group 62897" transform="translate(300.648 217.855)">
      <g id="Group_62895" data-name="Group 62895" transform="translate(89.943)">
        <path id="Path_94216" data-name="Path 94216" d="M943.111,217.855Z" transform="translate(-943.111 -217.855)" fill="#0f893b"/>
      </g>
      <g id="Group_62896" data-name="Group 62896" transform="translate(0 0)">
        <path id="Path_94217" data-name="Path 94217" d="M652.8,217.855H562.86V235.5h80.917v-.8C643.777,225.395,647.818,217.855,652.8,217.855Z" transform="translate(-562.86 -217.855)" fill="#0f893b"/>
      </g>
    </g>
    <g id="Group_62898" data-name="Group 62898" transform="translate(291.621 234.409)">
      <path id="Path_94218" data-name="Path 94218" d="M524.7,288.93l44.948-1.088,45,1.088v17.642l-45,1.088L524.7,306.572Z" transform="translate(-524.7 -287.842)" fill="rgba(232,237,250,0.67)"/>
    </g>
    <g id="Group_62899" data-name="Group 62899" transform="translate(363.522 253.14)">
      <path id="Path_94219" data-name="Path 94219" d="M846.727,367.028v.8c0,9.3-4.041,16.84-9.027,16.84s-9.026-7.54-9.026-16.84v-.8Z" transform="translate(-828.674 -367.028)" fill="#0f893b"/>
    </g>
    <g id="Group_62902" data-name="Group 62902" transform="translate(282.606 253.14)">
      <g id="Group_62900" data-name="Group 62900" transform="translate(89.943 17.643)">
        <path id="Path_94220" data-name="Path 94220" d="M866.835,441.615Z" transform="translate(-866.835 -441.615)" fill="#bf7a73"/>
      </g>
      <g id="Group_62901" data-name="Group 62901" transform="translate(0 0)">
        <path id="Path_94221" data-name="Path 94221" d="M576.527,384.671H486.584V367.028H567.5v.8C567.5,377.131,571.542,384.671,576.527,384.671Z" transform="translate(-486.584 -367.028)" fill="#c3cbdf"/>
      </g>
    </g>
    <g id="Group_62903" data-name="Group 62903" transform="translate(255.515 253.14)">
      <path id="Path_94222" data-name="Path 94222" d="M372.052,367.028H462V494.883l-53.987,1.088-35.956-1.088Z" transform="translate(-372.052 -367.028)" fill="#0f893b"/>
    </g>
    <g id="Group_62904" data-name="Group 62904" transform="translate(327.405 380.995)">
      <path id="Path_94223" data-name="Path 94223" d="M694.035,907.558v.8c0,9.3-4.041,16.84-9.027,16.84s-9.026-7.54-9.026-16.84v-.8Z" transform="translate(-675.982 -907.558)" fill="#0f893b"/>
    </g>
    <g id="Group_62905" data-name="Group 62905" transform="translate(237.462 380.995)">
      <path id="Path_94224" data-name="Path 94224" d="M313.761,907.558c.007.268.022.531.022.8,0,9.3-4.042,16.84-9.027,16.84s-9.026-7.54-9.026-16.84v-.8Z" transform="translate(-295.73 -907.558)" fill="#c3cbdf"/>
    </g>
    <g id="Group_62908" data-name="Group 62908" transform="translate(246.488 380.995)">
      <g id="Group_62906" data-name="Group 62906" transform="translate(89.943 17.643)">
        <path id="Path_94225" data-name="Path 94225" d="M714.143,982.145Z" transform="translate(-714.143 -982.145)" fill="#c3cbdf"/>
      </g>
      <g id="Group_62907" data-name="Group 62907" transform="translate(0 0)">
        <path id="Path_94226" data-name="Path 94226" d="M423.834,925.2H333.891V907.558h80.917v.8C414.808,917.661,418.849,925.2,423.834,925.2Z" transform="translate(-333.891 -907.558)" fill="#c3cbdf"/>
      </g>
    </g>
    <g id="Group_62909" data-name="Group 62909" transform="translate(237.462 362.264)">
      <path id="Path_94227" data-name="Path 94227" d="M295.732,847.1l44.948,1.088,45-1.088V829.46l-45-1.088-44.948,1.088Z" transform="translate(-295.732 -828.372)" fill="#c3cbdf"/>
    </g>
    <g id="Group_62950" data-name="Group 62950" transform="translate(265.977 256.062)">
      <g id="Group_62910" data-name="Group 62910" transform="translate(20.192 0)">
        <path id="Path_94228" data-name="Path 94228" d="M527.453,382.647H503.28a1.632,1.632,0,1,1,0-3.264h24.172a1.632,1.632,0,0,1,0,3.264Z" transform="translate(-501.648 -379.383)" fill="#9ba5be"/>
      </g>
      <g id="Group_62913" data-name="Group 62913" transform="translate(18.569 63.86)">
        <g id="Group_62911" data-name="Group 62911" transform="translate(21.827)">
          <path id="Path_94229" data-name="Path 94229" d="M594.288,652.626H588.7a1.632,1.632,0,1,1,0-3.264h5.592a1.632,1.632,0,1,1,0,3.264Z" transform="translate(-587.064 -649.362)" fill="#9ba5be"/>
        </g>
        <g id="Group_62912" data-name="Group 62912">
          <path id="Path_94230" data-name="Path 94230" d="M511.57,652.626H496.417a1.632,1.632,0,0,1,0-3.264H511.57a1.632,1.632,0,1,1,0,3.264Z" transform="translate(-494.785 -649.362)" fill="#9ba5be"/>
        </g>
      </g>
      <g id="Group_62916" data-name="Group 62916" transform="translate(5.444 24.774)">
        <g id="Group_62914" data-name="Group 62914">
          <path id="Path_94231" data-name="Path 94231" d="M460.414,487.383H440.931a1.632,1.632,0,1,1,0-3.264h19.483a1.632,1.632,0,0,1,0,3.264Z" transform="translate(-439.299 -484.119)" fill="#92adff"/>
        </g>
        <g id="Group_62915" data-name="Group 62915" transform="translate(44.829)">
          <path id="Path_94232" data-name="Path 94232" d="M639.293,487.383h-8.839a1.632,1.632,0,0,1,0-3.264h8.839a1.632,1.632,0,1,1,0,3.264Z" transform="translate(-628.822 -484.119)" fill="#92adff"/>
        </g>
      </g>
      <g id="Group_62919" data-name="Group 62919" transform="translate(5.444 32.32)">
        <g id="Group_62917" data-name="Group 62917" transform="translate(48.406)">
          <path id="Path_94233" data-name="Path 94233" d="M650.84,519.287h-5.262a1.632,1.632,0,0,1,0-3.264h5.262a1.632,1.632,0,0,1,0,3.264Z" transform="translate(-643.946 -516.023)" fill="#9ba5be"/>
        </g>
        <g id="Group_62918" data-name="Group 62918">
          <path id="Path_94234" data-name="Path 94234" d="M476.469,519.287H440.931a1.632,1.632,0,1,1,0-3.264h35.538a1.632,1.632,0,0,1,0,3.264Z" transform="translate(-439.299 -516.023)" fill="#9ba5be"/>
        </g>
      </g>
      <g id="Group_62922" data-name="Group 62922" transform="translate(5.444 39.867)">
        <g id="Group_62920" data-name="Group 62920" transform="translate(49.79)">
          <path id="Path_94235" data-name="Path 94235" d="M655.305,551.192h-3.878a1.632,1.632,0,1,1,0-3.264h3.878a1.632,1.632,0,1,1,0,3.264Z" transform="translate(-649.795 -547.928)" fill="#92adff"/>
        </g>
        <g id="Group_62921" data-name="Group 62921">
          <path id="Path_94236" data-name="Path 94236" d="M468.352,551.192h-27.42a1.632,1.632,0,1,1,0-3.264h27.42a1.632,1.632,0,1,1,0,3.264Z" transform="translate(-439.299 -547.928)" fill="#92adff"/>
        </g>
      </g>
      <g id="Group_62925" data-name="Group 62925" transform="translate(5.444 47.413)">
        <g id="Group_62923" data-name="Group 62923" transform="translate(44.829)">
          <path id="Path_94237" data-name="Path 94237" d="M639.293,583.1h-8.839a1.632,1.632,0,0,1,0-3.264h8.839a1.632,1.632,0,1,1,0,3.264Z" transform="translate(-628.822 -579.832)" fill="#9ba5be"/>
        </g>
        <g id="Group_62924" data-name="Group 62924">
          <path id="Path_94238" data-name="Path 94238" d="M456.085,583.1H440.931a1.632,1.632,0,1,1,0-3.264h15.154a1.632,1.632,0,0,1,0,3.264Z" transform="translate(-439.299 -579.832)" fill="#9ba5be"/>
        </g>
      </g>
      <g id="Group_62928" data-name="Group 62928" transform="translate(5.444 54.96)">
        <g id="Group_62926" data-name="Group 62926" transform="translate(47.896)">
          <path id="Path_94239" data-name="Path 94239" d="M649.191,615h-5.773a1.632,1.632,0,1,1,0-3.264h5.773a1.632,1.632,0,1,1,0,3.264Z" transform="translate(-641.786 -611.737)" fill="#92adff"/>
        </g>
        <g id="Group_62927" data-name="Group 62927">
          <path id="Path_94240" data-name="Path 94240" d="M464.5,615H440.931a1.632,1.632,0,1,1,0-3.264H464.5a1.632,1.632,0,1,1,0,3.264Z" transform="translate(-439.299 -611.737)" fill="#92adff"/>
        </g>
      </g>
      <g id="Group_62929" data-name="Group 62929" transform="translate(5.391 80.998)">
        <path id="Path_94241" data-name="Path 94241" d="M468.128,725.08h-27.42a1.632,1.632,0,1,1,0-3.264h27.42a1.632,1.632,0,0,1,0,3.264Z" transform="translate(-439.075 -721.816)" fill="#9ba5be"/>
      </g>
      <g id="Group_62930" data-name="Group 62930" transform="translate(5.391 87.717)">
        <path id="Path_94242" data-name="Path 94242" d="M461.995,753.487H440.707a1.632,1.632,0,1,1,0-3.264h21.288a1.632,1.632,0,1,1,0,3.264Z" transform="translate(-439.075 -750.223)" fill="#9ba5be"/>
      </g>
      <g id="Group_62931" data-name="Group 62931" transform="translate(12.074 7.393)">
        <path id="Path_94243" data-name="Path 94243" d="M509.367,413.9h-40.41a1.632,1.632,0,1,1,0-3.264h40.41a1.632,1.632,0,1,1,0,3.264Z" transform="translate(-467.325 -410.639)" fill="#9ba5be"/>
      </g>
      <g id="Group_62935" data-name="Group 62935" transform="translate(0 74.329)">
        <g id="Group_62932" data-name="Group 62932">
          <path id="Path_94244" data-name="Path 94244" d="M420.09,694.71h-3.264a.544.544,0,1,1,0-1.088h3.264a.544.544,0,1,1,0,1.088Z" transform="translate(-416.282 -693.622)" fill="#9ba5be"/>
        </g>
        <g id="Group_62933" data-name="Group 62933" transform="translate(7.724)">
          <path id="Path_94245" data-name="Path 94245" d="M500.764,694.71h-6.69a.544.544,0,1,1,0-1.088h6.69a.544.544,0,1,1,0,1.088Zm-11.149,0h-6.688a.544.544,0,1,1,0-1.088h6.688a.544.544,0,1,1,0,1.088Zm-11.149,0h-6.689a.544.544,0,1,1,0-1.088h6.689a.544.544,0,1,1,0,1.088Zm-11.148,0h-6.69a.544.544,0,1,1,0-1.088h6.69a.544.544,0,1,1,0,1.088Zm-11.149,0h-6.689a.544.544,0,1,1,0-1.088h6.689a.544.544,0,1,1,0,1.088Z" transform="translate(-448.935 -693.622)" fill="#9ba5be"/>
        </g>
        <g id="Group_62934" data-name="Group 62934" transform="translate(63.469)">
          <path id="Path_94246" data-name="Path 94246" d="M688.416,694.71h-3.264a.544.544,0,1,1,0-1.088h3.264a.544.544,0,1,1,0,1.088Z" transform="translate(-684.608 -693.622)" fill="#9ba5be"/>
        </g>
      </g>
      <g id="Group_62939" data-name="Group 62939" transform="translate(0 17.171)">
        <g id="Group_62936" data-name="Group 62936">
          <path id="Path_94247" data-name="Path 94247" d="M420.09,453.066h-3.264a.544.544,0,0,1,0-1.088h3.264a.544.544,0,1,1,0,1.088Z" transform="translate(-416.282 -451.978)" fill="#9ba5be"/>
        </g>
        <g id="Group_62937" data-name="Group 62937" transform="translate(7.724)">
          <path id="Path_94248" data-name="Path 94248" d="M500.764,453.066h-6.69a.544.544,0,0,1,0-1.088h6.69a.544.544,0,0,1,0,1.088Zm-11.149,0h-6.688a.544.544,0,1,1,0-1.088h6.688a.544.544,0,0,1,0,1.088Zm-11.149,0h-6.689a.544.544,0,1,1,0-1.088h6.689a.544.544,0,0,1,0,1.088Zm-11.148,0h-6.69a.544.544,0,0,1,0-1.088h6.69a.544.544,0,0,1,0,1.088Zm-11.149,0h-6.689a.544.544,0,1,1,0-1.088h6.689a.544.544,0,1,1,0,1.088Z" transform="translate(-448.935 -451.978)" fill="#9ba5be"/>
        </g>
        <g id="Group_62938" data-name="Group 62938" transform="translate(63.469)">
          <path id="Path_94249" data-name="Path 94249" d="M688.416,453.066h-3.264a.544.544,0,0,1,0-1.088h3.264a.544.544,0,1,1,0,1.088Z" transform="translate(-684.608 -451.978)" fill="#9ba5be"/>
        </g>
      </g>
      <g id="Group_62949" data-name="Group 62949" transform="translate(45.809 81.412)">
        <g id="Group_62940" data-name="Group 62940">
          <rect id="Rectangle_12214" data-name="Rectangle 12214" width="0.654" height="9.156" fill="#9ba5be"/>
        </g>
        <g id="Group_62941" data-name="Group 62941" transform="translate(1.067)">
          <rect id="Rectangle_12215" data-name="Rectangle 12215" width="1.24" height="9.156" fill="#9ba5be"/>
        </g>
        <g id="Group_62942" data-name="Group 62942" transform="translate(3.232)">
          <rect id="Rectangle_12216" data-name="Rectangle 12216" width="0.879" height="9.156" fill="#9ba5be"/>
        </g>
        <g id="Group_62943" data-name="Group 62943" transform="translate(6.209)">
          <rect id="Rectangle_12217" data-name="Rectangle 12217" width="1.781" height="9.156" fill="#9ba5be"/>
        </g>
        <g id="Group_62944" data-name="Group 62944" transform="translate(9.937)">
          <rect id="Rectangle_12218" data-name="Rectangle 12218" width="0.459" height="9.156" fill="#9ba5be"/>
        </g>
        <g id="Group_62945" data-name="Group 62945" transform="translate(18.716)">
          <rect id="Rectangle_12219" data-name="Rectangle 12219" width="0.459" height="9.156" fill="#9ba5be"/>
        </g>
        <g id="Group_62946" data-name="Group 62946" transform="translate(11.56)">
          <rect id="Rectangle_12220" data-name="Rectangle 12220" width="1" height="9.156" fill="#9ba5be"/>
        </g>
        <g id="Group_62947" data-name="Group 62947" transform="translate(14.387)">
          <rect id="Rectangle_12221" data-name="Rectangle 12221" width="1" height="9.156" fill="#9ba5be"/>
        </g>
        <g id="Group_62948" data-name="Group 62948" transform="translate(16.07)">
          <rect id="Rectangle_12222" data-name="Rectangle 12222" width="1.962" height="9.156" fill="#9ba5be"/>
        </g>
      </g>
    </g>
    <g id="Group_62951" data-name="Group 62951" transform="translate(309.352 345.71)">
      <path id="Path_94250" data-name="Path 94250" d="M617.714,776.027v-.8c0-9.3-4.042-16.84-9.027-16.84s-9.026,7.54-9.026,16.84v.8Z" transform="translate(-599.661 -758.385)" fill="#c3cbdf"/>
    </g>
    <g id="Group_62952" data-name="Group 62952" transform="translate(219.409 345.71)">
      <path id="Path_94251" data-name="Path 94251" d="M237.44,776.027c.007-.268.022-.531.022-.8,0-9.3-4.041-16.84-9.026-16.84s-9.027,7.54-9.027,16.84v.8Z" transform="translate(-219.409 -758.385)" fill="#0f893b"/>
    </g>
    <g id="Group_62955" data-name="Group 62955" transform="translate(228.436 345.71)">
      <g id="Group_62953" data-name="Group 62953" transform="translate(89.943 0)">
        <path id="Path_94252" data-name="Path 94252" d="M637.822,758.385Z" transform="translate(-637.822 -758.385)" fill="#0f893b"/>
      </g>
      <g id="Group_62954" data-name="Group 62954" transform="translate(0 0)">
        <path id="Path_94253" data-name="Path 94253" d="M347.514,758.385H257.571v17.642h80.917v-.8C338.488,765.925,342.529,758.385,347.514,758.385Z" transform="translate(-257.571 -758.385)" fill="#0f893b"/>
      </g>
    </g>
    <g id="Group_62956" data-name="Group 62956" transform="translate(345.458 235.497)">
      <path id="Path_94254" data-name="Path 94254" d="M770.369,310.084s-.012-.531-.012-.8c0-9.3-4.041-16.84-9.027-16.84s-9.026,7.54-9.026,16.84v.8Z" transform="translate(-752.304 -292.442)" fill="#c3cbdf"/>
    </g>
    <g id="Group_62957" data-name="Group 62957" transform="translate(255.512 235.497)">
      <path id="Path_94255" data-name="Path 94255" d="M390.074,310.084c.007-.268.022-.531.022-.8,0-9.3-4.042-16.84-9.027-16.84s-9.026,7.54-9.026,16.84c0,.271-.007.535,0,.8Z" transform="translate(-372.039 -292.442)" fill="#0f893b"/>
    </g>
    <g id="Group_62960" data-name="Group 62960" transform="translate(264.541 235.497)">
      <g id="Group_62958" data-name="Group 62958" transform="translate(89.943)">
        <path id="Path_94256" data-name="Path 94256" d="M790.465,292.442Z" transform="translate(-790.465 -292.442)" fill="#0f893b"/>
      </g>
      <g id="Group_62959" data-name="Group 62959" transform="translate(0 0)">
        <path id="Path_94257" data-name="Path 94257" d="M500.156,292.442H410.213v17.642H491.13v-.8C491.13,299.982,495.171,292.442,500.156,292.442Z" transform="translate(-410.213 -292.442)" fill="#0f893b"/>
      </g>
    </g>
    <g id="icon_success" transform="translate(331.429 290.096)">
      <circle id="Oval" cx="41.747" cy="41.747" r="41.747" transform="translate(0)" fill="#d9e3fd"/>
      <path id="Path" d="M0,14.161,11.707,25.868,37.575,0" transform="translate(22.93 29.305)" fill="none" stroke="#223f99" stroke-linecap="round" stroke-linejoin="round" stroke-miterlimit="10" stroke-width="5"/>
    </g>
  </g>
</svg>
