<svg id="vuesax_broken_courthouse" data-name="vuesax/broken/courthouse" xmlns="http://www.w3.org/2000/svg" width="27.32" height="27.32" viewBox="0 0 27.32 27.32">
  <g id="courthouse">
    <path id="Vector" d="M0,0H22.767" transform="translate(2.277 25.043)" fill="none" stroke="#0f893b" stroke-linecap="round" stroke-linejoin="round" stroke-width="1.6"/>
    <path id="Vector-2" data-name="Vector" d="M0,0A7.684,7.684,0,0,0,5.692,0V3.415A7.684,7.684,0,0,1,0,3.415Z" transform="translate(13.66 2.277)" fill="none" stroke="#0f893b" stroke-linecap="round" stroke-linejoin="round" stroke-width="1.6"/>
    <path id="Vector-3" data-name="Vector" d="M0,0V3.415" transform="translate(13.66 5.692)" fill="none" stroke="#0f893b" stroke-linecap="round" stroke-linejoin="round" stroke-width="1.6"/>
    <path id="Vector-4" data-name="Vector" d="M0,9v6.932H18.213V3.415Q18.213,0,14.8,0H3.415Q0,0,0,3.415V4.553" transform="translate(4.553 9.107)" fill="none" stroke="#0f893b" stroke-linecap="round" stroke-linejoin="round" stroke-width="1.6"/>
    <path id="Vector-5" data-name="Vector" d="M0,0H17.553" transform="translate(4.553 13.66)" fill="none" stroke="#0f893b" stroke-linecap="round" stroke-linejoin="round" stroke-width="1.6"/>
    <path id="Vector-6" data-name="Vector" d="M0,0V11.383" transform="translate(9.095 13.66)" fill="none" stroke="#0f893b" stroke-linejoin="round" stroke-width="1.6"/>
    <path id="Vector-7" data-name="Vector" d="M0,0V11.383" transform="translate(13.649 13.66)" fill="none" stroke="#0f893b" stroke-linejoin="round" stroke-width="1.6"/>
    <path id="Vector-8" data-name="Vector" d="M0,0V11.383" transform="translate(18.202 13.66)" fill="none" stroke="#0f893b" stroke-linejoin="round" stroke-width="1.6"/>
    <path id="Vector-9" data-name="Vector" d="M0,0H27.32V27.32H0Z" fill="none" opacity="0"/>
  </g>
</svg>
