<svg id="vuesax_bulk_send-2" data-name="vuesax/bulk/send-2" xmlns="http://www.w3.org/2000/svg" width="28.661" height="28.661" viewBox="0 0 28.661 28.661">
  <g id="send-2">
    <path id="Vector" d="M17.1,4.068,6.332.474C1.5-1.139-1.131,1.5.469,6.337L4.064,17.109c2.412,7.249,6.377,7.249,8.789,0l1.063-3.2,3.2-1.063C24.353,10.445,24.353,6.492,17.1,4.068Z" transform="translate(3.066 3.049)" fill="#0f893b" opacity="0.4"/>
    <path id="Vector-2" data-name="Vector" d="M4.55,4.562,0,0" transform="translate(9.637 9.327)" fill="#0f893b"/>
    <path id="Vector-3" data-name="Vector" d="M5.431,6.35a.886.886,0,0,0,.633-.263.9.9,0,0,0,0-1.266L1.526.26A.9.9,0,1,0,.26,1.526L4.8,6.087A.938.938,0,0,0,5.431,6.35Z" transform="translate(8.756 8.434)" fill="#0f893b"/>
    <path id="Vector-4" data-name="Vector" d="M28.661,0H0V28.661H28.661Z" fill="none" opacity="0"/>
  </g>
</svg>
